<?xml version="1.0" standalone="no"?>
<!DOCTYPE svg PUBLIC "-//W3C//DTD SVG 1.1//EN" "http://www.w3.org/Graphics/SVG/1.1/DTD/svg11.dtd" >
<svg xmlns="http://www.w3.org/2000/svg">
<metadata>
Created by FontPrep 20130207 at Wed Oct 30 14:26:22 2013
 By Rodrigo Saiani
Copyright (c) 2010 by Rodrigo Saiani. All rights reserved.
</metadata>
<defs>
<font id="714d7af45db528a04c0b6ddaf53f088e" horiz-adv-x='1024' >
  <font-face 
    font-family="Plau-Light"
    font-weight="300"
    font-stretch="normal"
    units-per-em="1000"
    panose-1="0 0 4 0 0 0 0 0 0 0"
    ascent="750"
    descent="-250"
    x-height="504"
    cap-height="700"
    bbox="-66.3636 -207.125 823 925"
    underline-thickness="50"
    underline-position="-50"
    unicode-range="U+0020-FB02"
  />
<missing-glyph horiz-adv-x="572" 
d="M118 701h335q21 0 21 -20v-661q0 -20 -21 -20h-335q-20 0 -20 20v661q0 20 20 20zM427 662h-283q-5 0 -5 -5v-613q0 -5 5 -5h283q5 0 5 5v613q0 5 -5 5z" />
    <glyph glyph-name="fi" unicode="fi" horiz-adv-x="438" 
d="M91 510v44q0 85 28 116.5t107 31.5q65 0 108 -9q15 -3 14 -19l-2 -18q0 -7 -7 -7q-2 0 -18 1.5t-42.5 3.5t-51.5 2q-51 0 -68.5 -19.5t-17.5 -79.5v-48q0 -5 7 -5h206q7 0 7 -8v-488q0 -8 -8 -8h-34q-8 0 -8 8v451h-163q-7 0 -7 -6v-446q0 -7 -7 -7h-34q-9 0 -9 7v447
q0 5 -6 5h-62q-8 0 -8 9v27q0 9 8 9h62q6 0 6 6z" />
    <glyph glyph-name="fl" unicode="fl" horiz-adv-x="493" 
d="M91 510v49q0 84 37 118t123 34q82 0 122.5 -31.5t40.5 -109.5v-563q0 -7 -6 -7h-38q-7 0 -7 7v552q0 59 -25 82.5t-87 23.5q-61 0 -85.5 -21t-24.5 -82v-53q0 -5 7 -5h127q8 0 8 -9v-27q0 -9 -8 -9h-127q-7 0 -7 -6v-446q0 -7 -7 -7h-34q-9 0 -9 7v447q0 5 -6 5h-62
q-8 0 -8 9v27q0 9 8 9h62q6 0 6 6z" />
    <glyph glyph-name="f_f" unicode="ff" horiz-adv-x="525" 
d="M328 510v53q0 85 25.5 116.5t92.5 31.5q41 0 73 -8q12 -4 11 -17l-2 -21q-2 -7 -8 -7q-1 0 -11.5 2t-26.5 3.5t-30 1.5q-42 0 -58 -19.5t-16 -79.5v-57q0 -5 7 -5h113q8 0 8 -9v-27q0 -9 -8 -9h-113q-7 0 -7 -6v-446q0 -7 -7 -7h-35q-8 0 -8 7v447q0 5 -6 5h-174
q-7 0 -7 -6v-446q0 -7 -7 -7h-34q-9 0 -9 7v447q0 5 -6 5h-62q-8 0 -8 9v27q0 9 8 9h62q6 0 6 6v36q0 83 23 114t83 31q35 0 73 -7q12 -3 12 -17l-3 -18q0 -7 -7 -7q-33 3 -67 3q-37 0 -50.5 -19t-13.5 -77v-40q0 -5 7 -5h174q6 0 6 6z" />
    <glyph glyph-name="f_f_i" unicode="ffi" horiz-adv-x="667" 
d="M320 510v53q0 85 26.5 116.5t98.5 31.5q50 0 96 -8q12 -3 12 -17l-3 -21q0 -7 -7 -7q-2 0 -15.5 2t-34.5 3.5t-42 1.5q-47 0 -64 -19.5t-17 -79.5v-57q0 -5 7 -5h206q7 0 7 -8v-488q0 -8 -8 -8h-34q-8 0 -8 8v451h-163q-7 0 -7 -6v-446q0 -7 -8 -7h-34q-8 0 -8 7v447
q-2 5 -6 5h-166q-7 0 -7 -6v-446q0 -7 -7 -7h-34q-9 0 -9 7v447q0 5 -6 5h-62q-8 0 -8 9v27q0 9 8 9h62q6 0 6 6v52q0 83 24.5 113.5t89.5 30.5q38 0 73 -8q13 -5 12 -17l-2 -18q-1 -7 -7 -7q-1 0 -12 1t-27 2.5t-29 1.5q-42 0 -57 -19t-15 -77v-56q0 -5 7 -5h166q6 0 6 6z
" />
    <glyph glyph-name=".notdef" horiz-adv-x="572" 
d="M118 701h335q21 0 21 -20v-661q0 -20 -21 -20h-335q-20 0 -20 20v661q0 20 20 20zM427 662h-283q-5 0 -5 -5v-613q0 -5 5 -5h283q5 0 5 5v613q0 5 -5 5z" />
    <glyph glyph-name=".null" horiz-adv-x="0" 
 />
    <glyph glyph-name="nonmarkingreturn" horiz-adv-x="333" 
 />
    <glyph glyph-name="space" unicode=" " horiz-adv-x="207" 
 />
    <glyph glyph-name="exclam" unicode="!" horiz-adv-x="206" 
d="M84 700h38q7 0 7 -8v-443q0 -7 -7 -7h-38q-7 0 -7 7v443q0 8 7 8zM85 147h36q8 0 8 -7v-132q0 -8 -8 -8h-36q-8 0 -8 8v132q0 7 8 7z" />
    <glyph glyph-name="quotedbl" unicode="&#x22;" horiz-adv-x="276" 
d="M60 700h36q8 0 8 -8v-101l-6 -87q0 -7 -7 -7h-26q-8 0 -8 7l-5 87v101q0 8 8 8zM180 700h36q8 0 8 -8v-101l-5 -87q0 -7 -8 -7h-26q-8 0 -8 7l-5 87v101q0 8 8 8z" />
    <glyph glyph-name="numbersign" unicode="#" horiz-adv-x="655" 
d="M430 702h32q6 0 6 -8l-20 -197h126q8 0 8 -7v-30q0 -7 -8 -7h-131l-18 -185h136q8 0 8 -7v-36q0 -2 -8 -2h-141l-22 -216q0 -7 -9 -7h-31q-7 0 -7 8l22 215h-125l-21 -216q0 -7 -10 -7h-30q-9 0 -7 8l21 215h-120q-7 0 -7 1v37q0 7 7 7h125l18 185h-131q-7 0 -7 7v30
q0 7 7 7h136l20 197q0 8 9 8h33q6 0 6 -8l-20 -197h123l21 197q0 8 9 8zM272 453l-19 -185h124l19 185h-124z" />
    <glyph glyph-name="dollar" unicode="$" horiz-adv-x="492" 
d="M239 770h32q8 0 8 -8v-96q0 -5 5 -5q67 -1 101 -10q7 -2 11 -4.5t3 -7.5l-1 -28q-2 -7 -9 -7q-2 0 -22.5 2.5t-53.5 5t-66 2.5q-64 0 -89.5 -20t-25.5 -70q0 -12 1.5 -21.5t3 -17.5t7 -15.5t8 -12.5t12.5 -12t14.5 -11t19 -11.5t21.5 -11t26.5 -13t29.5 -14.5
q94 -48 124.5 -82t30.5 -107q0 -149 -157 -156q-6 -1 -6 -8v-98q0 -7 -7 -7h-33q-7 0 -7 7v96q0 6 -6 6q-50 1 -111 15q-15 4 -15 15l3 28q0 7 7 7q3 0 24 -4t53 -7.5t61 -3.5q79 0 109.5 25.5t30.5 83.5q0 31 -5.5 50t-26 37t-42 30t-72.5 37q-47 23 -71.5 37.5t-45 35.5
t-28 45.5t-7.5 61.5q0 67 35.5 99t112.5 33q6 1 6 6v96q0 8 7 8z" />
    <glyph glyph-name="percent" unicode="%" horiz-adv-x="666" 
d="M183 707q56 0 78.5 -30t22.5 -111q0 -77 -23.5 -110.5t-77.5 -33.5t-77.5 33t-23.5 111q0 80 22.5 110.5t78.5 30.5zM507 700h25q10 0 5 -9l-372 -684q-4 -7 -12 -7h-23q-11 0 -5 9l371 683q4 8 11 8zM183 667q-32 0 -45.5 -19.5t-13.5 -81.5t13.5 -83t45.5 -21
q34 0 47 20.5t13 83.5t-12.5 82t-47.5 19zM483 280q56 0 78.5 -30t22.5 -111q0 -78 -23.5 -111t-77.5 -33t-77.5 33t-23.5 111q0 80 22.5 110.5t78.5 30.5zM483 240q-32 0 -45.5 -20t-13.5 -81q0 -63 13.5 -83.5t45.5 -20.5q35 0 47.5 20t12.5 84q0 62 -12.5 81.5
t-47.5 19.5z" />
    <glyph glyph-name="ampersand" unicode="&#x26;" horiz-adv-x="592" 
d="M567 42v-17q0 -16 -20.5 -24.5t-48.5 -8.5q-64 0 -94 61q-3 4 -7 0q-33 -61 -140 -61q-98 0 -140 51t-42 156q0 71 24 119.5t70 63.5q7 3 7 4q0 2 -6 6q-66 38 -66 149q0 166 184 166q68 0 115 -9q18 -4 17 -20l-2 -19q0 -7 -7 -7l-45 4q-44 3 -73 3q-64 0 -98.5 -27.5
t-34.5 -97.5t27.5 -102.5t87.5 -32.5h107q7 0 7 6v93q0 8 7 8h18q6 0 11 -9l7 -13q7 -11 7 -39v-38q0 -8 10 -8h94q6 0 6 -7v-31q0 -6 -6 -6h-95q-7 0 -7 -7v-221q0 -34 16 -60t44 -26q19 0 37.5 4.5t20.5 4.5q8 0 8 -8zM382 355h-134q-118 0 -118 -155q0 -82 32 -121
t103 -39q59 0 91.5 26t32.5 67v215q0 7 -7 7z" />
    <glyph glyph-name="quotesingle" unicode="'" horiz-adv-x="181" 
d="M77 700h33q8 0 8 -8v-84q0 -29 -9 -51t-33 -60q-4 -7 -15 -6l-13 1q-10 2 -7 8q28 58 28 110v82q0 8 8 8z" />
    <glyph glyph-name="parenleft" unicode="(" horiz-adv-x="262" 
d="M242 -54l-9 -15q-5 -8 -15 -4q-87 40 -123 142.5t-36 272.5t36 272.5t123 142.5q11 3 14 -4l10 -16q5 -7 -4 -12q-70 -40 -100 -133t-30 -250q0 -156 30 -249t100 -134q8 -5 4 -13z" />
    <glyph glyph-name="parenright" unicode=")" horiz-adv-x="268" 
d="M23 737l9 16q4 7 14 4q88 -40 124 -142.5t36 -272.5t-36 -272.5t-124 -142.5q-9 -4 -14 4l-9 15q-5 8 4 13q70 41 100 134t30 249q0 157 -30 250t-100 133q-9 5 -4 12z" />
    <glyph glyph-name="asterisk" unicode="*" horiz-adv-x="443" 
d="M206 700h28q10 0 8 -8v-122q-2 -9 9 -6l114 38q8 4 10 -5l9 -26q2 -8 -6 -10l-114 -36q-9 -3 -3 -11l71 -95q4 -7 -2 -11l-22 -16q-7 -5 -11 1l-71 100q-5 8 -11 0l-71 -100q-4 -7 -11 -2l-24 17q-6 4 -1 11l71 95q5 8 -4 11l-110 34q-8 3 -5 11l8 26q3 7 11 4l111 -36
q4 -1 6.5 0.5t1.5 5.5v122q0 8 8 8z" />
    <glyph glyph-name="plus" unicode="+" horiz-adv-x="515" 
d="M242 443h31q7 0 7 -7v-142q0 -7 7 -7h139q8 0 8 -7v-30q0 -7 -8 -7h-139q-7 0 -7 -7v-146q0 -7 -7 -7h-31q-7 0 -7 7v145q0 8 -7 8h-139q-7 0 -7 7v30q0 7 7 7h139q7 0 7 7v142q0 7 7 7z" />
    <glyph glyph-name="comma" unicode="," horiz-adv-x="190" 
d="M79 117h33q8 0 8 -9v-84q0 -28 -8.5 -50t-33.5 -61q-4 -7 -15 -6l-12 2q-8 2 -8 4q-1 1 0 3q28 58 28 111v81q0 9 8 9z" />
    <glyph glyph-name="hyphen" unicode="-" horiz-adv-x="354" 
d="M67 295h219q8 0 8 -7v-29q0 -8 -8 -8h-219q-7 0 -7 7v30q0 7 7 7z" />
    <glyph glyph-name="period" unicode="." horiz-adv-x="197" 
d="M82 150h34q8 0 8 -8v-134q0 -8 -8 -8h-34q-8 0 -8 8v134q0 8 8 8z" />
    <glyph glyph-name="slash" unicode="/" horiz-adv-x="265" 
d="M225 758h30q7 0 5 -8l-200 -814q-3 -7 -10 -7h-30q-7 0 -6 7l201 814q2 8 10 8z" />
    <glyph glyph-name="zero" unicode="0" horiz-adv-x="557" 
d="M276 708q78 0 118.5 -29t58 -103t17.5 -218q0 -152 -17.5 -229t-57.5 -107t-119 -30t-119 30t-58 107t-18 229q0 144 18 218t58.5 103t118.5 29zM276 659q-59 0 -88 -24t-41.5 -86.5t-12.5 -190.5q0 -134 12.5 -200.5t41.5 -91.5t88 -25q58 0 87 25t41 91t12 201
q0 128 -12.5 190.5t-41 86.5t-86.5 24z" />
    <glyph glyph-name="one" unicode="1" horiz-adv-x="346" 
d="M55 657v22q0 14 16 19q34 9 68 9q52 0 75 -22t23 -70v-607q0 -8 -8 -8h-37q-8 0 -8 8v587q0 36 -10 49t-43 13q-18 0 -41.5 -3.5t-27.5 -3.5q-7 0 -7 7z" />
    <glyph glyph-name="two" unicode="2" horiz-adv-x="475" 
d="M72 652l-2 28q-1 9 8 13q51 15 141 15q105 0 148.5 -38.5t43.5 -120.5q0 -30 -8.5 -57t-17.5 -45t-32.5 -43.5t-36 -37t-45.5 -40.5q-40 -36 -62 -59t-46.5 -57t-35.5 -72.5t-11 -85.5q0 -3 2 -3h284q9 0 9 -8v-33q0 -8 -9 -8h-328q-12 0 -12 12v27q0 105 38.5 169
t116.5 133q44 40 59 54.5t39.5 43t32.5 52.5t8 54q0 61 -32.5 87.5t-111.5 26.5q-31 0 -61.5 -3.5t-50 -7t-22.5 -3.5q-6 0 -6 7z" />
    <glyph glyph-name="three" unicode="3" horiz-adv-x="468" 
d="M56 654l-3 23q0 11 12 15q39 16 123 16q106 0 149 -42.5t43 -129.5q0 -126 -86 -156q-8 -3 0 -4q56 -10 82 -56.5t26 -113.5q0 -105 -48 -159.5t-157 -54.5q-96 0 -136 15q-9 4 -8 15l2 26q0 6 6 6q3 0 21.5 -3t47.5 -6t58 -3q86 0 122.5 38.5t36.5 126.5q0 77 -32.5 109
t-117.5 32h-75q-8 0 -8 8v32q0 8 8 8h72q73 0 102 32.5t29 98.5q0 71 -31.5 101.5t-110.5 30.5q-28 0 -55.5 -3.5t-44.5 -6.5t-20 -3q-7 0 -7 8z" />
    <glyph glyph-name="four" unicode="4" horiz-adv-x="503" 
d="M329 700h21q21 0 21 -21v-491q0 -6 6 -7h85q9 0 9 -8v-29q0 -9 -9 -9h-85q-6 0 -6 -6v-121q0 -8 -9 -8h-36q-8 0 -8 8v121q0 6 -6 6h-227q-34 0 -34 35v75q0 30 7 49.5t24 47.5l202 334q15 24 45 24zM318 188v445q-10 0 -14 -10l-180 -304q-21 -38 -21 -76v-55q0 -6 6 -6
h203q6 0 6 6z" />
    <glyph glyph-name="five" unicode="5" horiz-adv-x="500" 
d="M126 700h265q9 0 9 -8v-33q0 -8 -9 -8h-240q-15 0 -15 -15v-220q66 11 113 11q91 0 132 -46.5t41 -163.5q0 -115 -46 -170t-155 -55q-74 0 -131 15q-9 3 -8 12l2 28q1 7 8 7q3 0 20.5 -3t45.5 -6.5t59 -3.5q86 0 118 37.5t32 138.5q0 96 -30.5 128.5t-99.5 32.5
q-32 0 -62.5 -4t-49.5 -7.5t-23 -3.5q-2 0 -8 3l-7 5q-4 3 -4 10v276q0 43 43 43z" />
    <glyph glyph-name="six" unicode="6" horiz-adv-x="501" 
d="M66 167v320q0 118 41 169.5t155 51.5q82 0 131 -13q13 -3 12 -15l-2 -25q0 -11 -11 -9q-104 11 -125 11q-85 0 -116.5 -34.5t-31.5 -131.5v-77q0 -6 6 -6q2 0 19 2t45.5 4t57.5 2q103 0 143 -48.5t40 -147.5q0 -129 -39 -178.5t-149 -49.5q-102 0 -139 40t-37 135z
M119 348v-181q0 -71 24 -98.5t99 -27.5q85 0 109 35.5t24 141.5q0 81 -26.5 115t-107.5 34q-80 0 -116 -9q-6 0 -6 -10z" />
    <glyph glyph-name="seven" unicode="7" horiz-adv-x="434" 
d="M47 700h266q51 0 51 -49v-173q0 -91 -46 -171l-179 -302q-5 -11 -17 -6l-24 13q-10 5 -5 16l177 301q23 39 32 71t9 81v150q0 19 -18 19h-246q-9 0 -9 8v34q0 8 9 8z" />
    <glyph glyph-name="eight" unicode="8" horiz-adv-x="521" 
d="M214 366l-71 71q-32 31 -48 61t-16 75q0 64 41.5 99.5t141.5 35.5q99 0 140.5 -35t41.5 -101q0 -43 -15.5 -71.5t-46.5 -60.5l-77 -75q-4 -4 0 -8l72 -71q39 -36 59 -69t20 -75q0 -74 -42.5 -112t-152.5 -38q-109 0 -151.5 38t-42.5 110q0 42 19 74.5t58 71.5l71 72
q3 4 -1 8zM267 392l73 72q18 19 26 29t16.5 30.5t8.5 43.5q0 47 -27.5 69t-101.5 22q-75 0 -102.5 -22t-27.5 -69q0 -24 8.5 -44.5t18 -32t27.5 -28.5l71 -70q5 -5 10 0zM334 260l-71 67q-5 5 -10 0l-67 -68q-34 -33 -50 -58.5t-16 -56.5q0 -52 29 -77t112 -25t112 25t29 77
q0 56 -68 116z" />
    <glyph glyph-name="nine" unicode="9" horiz-adv-x="513" 
d="M367 209v84q0 6 -6 6q-2 0 -23 -3.5t-51 -7.5t-54 -4q-104 0 -141.5 50.5t-37.5 156.5q0 123 38.5 170t151.5 47q106 0 141 -40t35 -129v-330q0 -114 -40 -165.5t-155 -51.5q-83 0 -133 10q-14 4 -13 20l2 15q0 7 2.5 10t9.5 2q88 -8 126 -8q86 0 117 34t31 134zM367 358
v178q0 71 -25.5 97.5t-99.5 26.5q-84 0 -109.5 -33.5t-25.5 -135.5q0 -87 25.5 -122.5t107.5 -35.5q39 0 117 13q10 2 10 12z" />
    <glyph glyph-name="colon" unicode=":" horiz-adv-x="209" 
d="M87 500h36q8 0 8 -8v-126q0 -7 -8 -7h-36q-8 0 -8 7v126q0 8 8 8zM87 141h36q8 0 8 -8v-125q0 -8 -8 -8h-36q-8 0 -8 8v125q0 8 8 8z" />
    <glyph glyph-name="semicolon" unicode=";" horiz-adv-x="190" 
d="M78 500h32q8 0 8 -8v-98q0 -7 -8 -7h-32q-8 0 -8 7v98q0 8 8 8zM79 117h33q8 0 8 -9v-84q0 -28 -8.5 -50t-33.5 -61q-4 -7 -15 -6l-12 2q-8 2 -8 4q-1 1 0 3q28 58 28 111v81q0 9 8 9z" />
    <glyph glyph-name="less" unicode="&#x3c;" horiz-adv-x="395" 
d="M317 511l19 -18q7 -7 1 -12l-222 -219q-9 -7 0 -14l222 -219q5 -5 -1 -12l-18 -17q-6 -6 -14 0l-243 239q-18 16 0 32l243 239q6 6 13 1z" />
    <glyph glyph-name="equal" unicode="=" horiz-adv-x="467" 
d="M75 382h317q8 0 8 -7v-29q0 -8 -8 -8h-317q-7 0 -7 7v30q0 7 7 7zM75 244h317q8 0 8 -7v-30q0 -7 -8 -7h-317q-7 0 -7 6v31q0 7 7 7z" />
    <glyph glyph-name="greater" unicode="&#x3e;" horiz-adv-x="395" 
d="M56 493l19 18q7 5 13 -1l243 -239q18 -16 0 -32l-244 -239q-7 -6 -13 0l-18 17q-6 7 -1 12l222 219q9 7 0 14l-222 219q-6 5 1 12z" />
    <glyph glyph-name="question" unicode="?" horiz-adv-x="467" 
d="M78 652l-3 28q-1 10 8 13q53 14 149 14q104 0 143 -30.5t39 -104.5q0 -35 -12.5 -60t-31 -39t-40 -29t-40 -28.5t-31 -39.5t-12.5 -61v-69q0 -9 -8 -9h-33q-8 0 -8 9v77q0 47 16.5 79.5t40.5 49.5t48 31.5t40.5 35.5t16.5 50q0 51 -29 70t-109 19q-32 0 -63 -3t-51 -6.5
t-24 -3.5q-6 0 -6 7zM203 146h39q8 0 8 -8v-130q0 -8 -8 -8h-39q-8 0 -8 8v130q0 8 8 8z" />
    <glyph glyph-name="at" unicode="@" horiz-adv-x="671" 
d="M421 -15l2 -11q1 -13 -8 -19q-34 -21 -117 -21q-238 0 -238 309q0 184 63.5 255.5t215.5 71.5q144 0 208 -61.5t64 -222.5q0 -122 -25.5 -165t-88.5 -43q-35 0 -54 12.5t-27 41.5h-5q-10 -18 -32.5 -32t-52.5 -14q-58 0 -83.5 38t-25.5 126q0 90 25 125t92 35
q62 0 87.5 -22.5t25.5 -79.5v-128q0 -34 12 -47t38 -13q40 0 53 30t13 135q0 73 -13.5 120.5t-43 74.5t-69 37t-98.5 10q-82 0 -130.5 -22.5t-75.5 -85t-27 -172.5q0 -70 13 -122t32 -79.5t47 -44t52 -21t54 -4.5q37 0 62.5 4t36 8.5t12.5 4.5q6 0 6 -8zM404 213v83
q0 43 -14.5 56.5t-52.5 13.5q-45 0 -60.5 -22t-15.5 -95q0 -69 15.5 -94t54.5 -25q73 0 73 83z" />
    <glyph glyph-name="A" unicode="A" horiz-adv-x="545" 
d="M117 551l123 137q16 17 33 17t33 -17l122 -137q21 -23 21 -55v-488q0 -8 -8 -8h-36q-8 0 -8 8v204q0 6 -7 6h-236q-6 0 -6 -6v-204q0 -8 -8 -8h-36q-8 0 -8 8v488q0 32 21 55zM387 521l-107 122q-3 5 -7 5q-2 0 -7 -5l-108 -122q-10 -11 -10 -26v-222q0 -6 6 -6h236
q7 0 7 6v222q0 15 -10 26z" />
    <glyph glyph-name="B" unicode="B" horiz-adv-x="521" 
d="M96 28v516q0 87 36 125.5t133 38.5q99 0 143 -40.5t44 -126.5q0 -140 -80 -168v-2q58 -11 82.5 -55t24.5 -118q0 -102 -44 -150t-145 -48h-165q-29 0 -29 28zM154 384h117q70 0 98.5 33.5t28.5 114.5q0 70 -30.5 98.5t-103.5 28.5q-65 0 -90.5 -24t-25.5 -87v-158
q0 -6 6 -6zM291 341h-137q-6 0 -6 -5v-282q0 -5 6 -5h125q79 0 112 35.5t33 115.5q0 79 -30 110t-103 31z" />
    <glyph glyph-name="C" unicode="C" horiz-adv-x="476" 
d="M431 42l2 -19q1 -15 -12 -19q-42 -12 -129 -12q-130 0 -171.5 72.5t-41.5 287.5q0 111 9 177t34.5 107.5t65.5 56.5t107 15q79 0 120 -9q12 -1 12 -15l-2 -26q-2 -7 -8 -7l-44 4q-44 4 -73 4q-68 1 -100.5 -20t-48.5 -86.5t-16 -200.5q0 -105 6.5 -163.5t26.5 -93
t49.5 -44.5t83.5 -10q29 0 57 2.5t45.5 4.5t20.5 2q7 0 7 -8z" />
    <glyph glyph-name="D" unicode="D" horiz-adv-x="567" 
d="M124 700h144q48 0 80.5 -8t60.5 -30.5t44 -61.5t25 -100.5t9 -149.5q1 -109 -11.5 -178.5t-42 -107t-67.5 -51t-98 -13.5h-145q-12 0 -19.5 8t-7.5 20v645q0 12 8 19.5t20 7.5zM265 651h-111q-6 0 -6 -5v-592q0 -5 6 -5h111q64 0 97.5 21t52 87t18.5 193t-18.5 193
t-52 87t-97.5 21z" />
    <glyph glyph-name="E" unicode="E" horiz-adv-x="502" 
d="M260 700h163q8 0 8 -8v-33q0 -8 -8 -8h-151q-80 0 -102 -20.5t-22 -95.5v-143q0 -6 6 -6h242q9 0 9 -8v-32q0 -9 -9 -9h-242q-6 0 -6 -5v-167q0 -75 22 -95.5t102 -20.5h151q8 0 8 -8v-33q0 -8 -8 -8h-155q-101 0 -136.5 32t-35.5 120v396q0 87 34 119.5t130 32.5z" />
    <glyph glyph-name="F" unicode="F" horiz-adv-x="443" 
d="M257 700h142q8 0 8 -8v-33q0 -8 -8 -8h-132q-76 0 -97.5 -20.5t-21.5 -95.5v-165q0 -5 6 -5h225q9 0 9 -8v-33q0 -8 -9 -8h-225q-6 0 -6 -5v-304q0 -7 -7 -7h-38q-7 0 -7 7v541q0 88 32.5 120t128.5 32z" />
    <glyph glyph-name="G" unicode="G" horiz-adv-x="546" 
d="M476 363v-193q0 -86 -44 -131.5t-148 -45.5q-118 0 -161.5 77.5t-43.5 281.5q0 142 20.5 217.5t66 106.5t130.5 31q98 0 141 -9q12 -2 11 -16l-2 -24q0 -7 -8 -7q-4 0 -24 1.5t-51 3.5t-62 2q-66 0 -99.5 -23t-50 -88.5t-16.5 -194.5q0 -128 15.5 -194.5t46 -90
t88.5 -23.5q77 0 107.5 33.5t30.5 110.5v148q0 5 -5 5h-150q-8 0 -8 8v32q0 8 8 8h181q27 0 27 -26z" />
    <glyph glyph-name="H" unicode="H" horiz-adv-x="582" 
d="M440 700h39q7 0 7 -8v-685q0 -7 -7 -7h-39q-7 0 -7 7v313q0 6 -6 6h-273q-6 0 -6 -6v-313q0 -7 -7 -7h-38q-7 0 -7 7v685q0 8 7 8h38q7 0 7 -8v-308q0 -6 6 -6h273q6 0 6 6v308q0 8 7 8z" />
    <glyph glyph-name="I" unicode="I" horiz-adv-x="245" 
d="M104 700h37q8 0 8 -8v-684q0 -8 -8 -8h-37q-8 0 -8 8v684q0 8 8 8z" />
    <glyph glyph-name="J" unicode="J" horiz-adv-x="400" 
d="M260 700h36q8 0 8 -8v-514q0 -106 -29.5 -145.5t-118.5 -39.5q-67 0 -102 11q-14 4 -13 18l2 23q1 7 8 7q1 0 14.5 -2t37 -4.5t49.5 -2.5q61 0 80.5 25t19.5 111v513q0 8 8 8z" />
    <glyph glyph-name="K" unicode="K" horiz-adv-x="511" 
d="M418 700h44q10 0 5 -8l-196 -318v-9l201 -351q8 -14 -6 -14h-37q-11 0 -16 8l-183 324q-6 9 -15 9h-61q-6 0 -6 -6v-327q0 -8 -9 -8h-35q-8 0 -8 8v684q0 8 8 8h35q9 0 9 -8v-295q0 -6 6 -6h60q10 0 14 9l177 293q5 7 13 7z" />
    <glyph glyph-name="L" unicode="L" horiz-adv-x="439" 
d="M104 700h36q8 0 8 -8v-535q0 -69 20 -88.5t93 -19.5h142q8 0 8 -8v-33q0 -8 -8 -8h-147q-94 0 -127 31t-33 112v549q0 8 8 8z" />
    <glyph glyph-name="M" unicode="M" horiz-adv-x="643" 
d="M523 700h9q15 0 15 -16v-677q0 -7 -7 -7h-39q-7 0 -7 7v562q0 7 -4 1l-147 -242q-7 -13 -22 -13t-22 13l-147 242q-2 2 -4 -1v-562q0 -7 -7 -7h-38q-7 0 -7 7v677q0 16 15 16h8q11 0 17 -9l180 -299q2 -5 5 -5q2 0 6 5l180 299q6 9 16 9z" />
    <glyph glyph-name="N" unicode="N" horiz-adv-x="577" 
d="M439 700h39q7 0 7 -7v-677q0 -16 -16 -16h-14q-11 0 -15 9l-291 560q-3 3 -5 -1v-561q0 -7 -7 -7h-39q-7 0 -7 7v677q0 16 16 16h17q10 0 16 -10l288 -555q1 -3 4 -2l1 3v557q0 7 6 7z" />
    <glyph glyph-name="O" unicode="O" horiz-adv-x="572" 
d="M286 708q54 0 89.5 -12t59 -36t36 -68.5t17 -99.5t4.5 -140q0 -107 -7 -170t-29.5 -109t-62.5 -63.5t-107 -17.5q-54 0 -90 12.5t-59.5 36.5t-36 69.5t-17 100.5t-4.5 141q0 85 4.5 140t17 99.5t36 68.5t59.5 36t90 12zM286 658q-65 0 -96 -25.5t-43 -88t-12 -193.5
t12 -194t43.5 -88.5t95.5 -25.5t95.5 25.5t43.5 88.5t12 194t-12 193.5t-43 88t-96 25.5z" />
    <glyph glyph-name="P" unicode="P" horiz-adv-x="501" 
d="M96 8v530q0 88 37.5 126t144.5 38q100 0 142.5 -48t42.5 -152q0 -108 -43.5 -160.5t-150.5 -52.5h-116q-5 0 -5 -4v-277q0 -8 -8 -8h-36q-8 0 -8 8zM153 338h114q82 0 112.5 38t30.5 126q0 82 -29.5 116.5t-103.5 34.5t-101.5 -24t-27.5 -91v-196q0 -4 5 -4z" />
    <glyph glyph-name="Q" unicode="Q" horiz-adv-x="572" 
d="M431 -114v-18q0 -12 -10 -15q-18 -7 -41 -7q-66 0 -92.5 34.5t-26.5 101.5q-1 12 -12 15q-104 7 -137 82.5t-33 272.5q0 85 4.5 140t17 99.5t36 68.5t59.5 36t90 12q45 0 77 -7.5t55.5 -26t37.5 -44t22 -68.5t11 -91t3 -119q0 -202 -33 -275t-137 -79q-10 -2 -10 -13
q0 -53 16.5 -73t58.5 -20q12 0 22.5 1.5t12.5 1.5q9 0 9 -9zM286 658q-63 0 -94 -25t-44 -89t-13 -193t13 -192.5t44 -89t94 -25.5t94 25.5t44 89t13 192.5t-13 193t-44 89t-94 25z" />
    <glyph glyph-name="R" unicode="R" horiz-adv-x="534" 
d="M96 7v531q0 91 35 130t138 39q99 0 144.5 -45t45.5 -155q0 -81 -27.5 -125t-85.5 -62q-10 -4 -5 -13l149 -299q4 -8 -4 -8h-39q-9 0 -13 7l-146 288q-4 9 -18 9h-114q-8 0 -8 -7v-290q0 -7 -7 -7h-38q-7 0 -7 7zM156 353h109q78 0 109 39t31 112q0 85 -31 120t-105 35
q-69 0 -95 -26.5t-26 -99.5v-173q0 -7 8 -7z" />
    <glyph glyph-name="S" unicode="S" horiz-adv-x="494" 
d="M88 22l2 24q0 7 8 7q3 0 18.5 -2.5t45.5 -5t67 -2.5q87 0 117.5 30.5t30.5 100.5q0 58 -29 89.5t-111 75.5q-49 26 -72 40.5t-47 38t-32 51.5t-8 70q0 92 42 130.5t147 38.5q88 0 133 -9q12 -1 12 -14l-2 -31q-2 -7 -8 -7q-2 0 -20 2.5t-48.5 5t-61.5 2.5
q-78 0 -108.5 -27.5t-30.5 -95.5q0 -16 2.5 -29t4.5 -22.5t11.5 -20t14 -16t20.5 -15.5t24 -14.5t32 -17.5t36 -20q93 -53 123.5 -91t30.5 -115q0 -94 -44 -137.5t-149 -43.5q-94 0 -138 12q-9 2 -11.5 5.5t-1.5 12.5z" />
    <glyph glyph-name="T" unicode="T" horiz-adv-x="450" 
d="M32 701h386q8 0 8 -9v-32q0 -8 -8 -8h-161q-6 0 -6 -6v-638q0 -8 -8 -8h-36q-8 0 -8 8v638q0 6 -6 6h-161q-9 0 -9 8v32q0 9 9 9z" />
    <glyph glyph-name="U" unicode="U" horiz-adv-x="584" 
d="M440 700h38q7 0 7 -7v-484q0 -124 -39 -170t-154 -46t-154 46t-39 170v484q0 7 7 7h38q8 0 8 -7v-488q0 -100 28 -131.5t112 -31.5t112.5 31.5t28.5 131.5v488q0 7 7 7z" />
    <glyph glyph-name="V" unicode="V" horiz-adv-x="569" 
d="M424 700h40q7 0 7 -7v-481q0 -34 -17 -52l-134 -145q-17 -18 -36 -18q-17 0 -35 18l-134 145q-17 20 -17 52v481q0 7 7 7h40q7 0 7 -7v-477q0 -18 9 -28l114 -125q6 -7 9 -7q4 0 10 7l114 125q10 12 10 28v477q0 7 6 7z" />
    <glyph glyph-name="W" unicode="W" horiz-adv-x="764" 
d="M622 700h40q7 0 7 -7v-481q0 -39 -21 -64l-107 -142q-11 -15 -28 -14.5t-30 16.5l-98 132q-1 4 -5 0l-96 -129q-14 -17 -31.5 -17.5t-30.5 16.5l-106 138q-20 25 -20 64v481q0 7 6 7h40q6 0 6 -7v-489q0 -11 11 -26l85 -118q8 -10 15 0l87 120q10 12 10 22v491q0 7 7 7
h39q7 0 7 -7v-491q0 -12 10 -23l87 -119q7 -10 14 0l85 118q11 16 11 26v489q0 7 6 7z" />
    <glyph glyph-name="X" unicode="X" horiz-adv-x="539" 
d="M406 700h39q6 0 6 -7v-129q0 -35 -23 -62l-110 -134q-7 -8 0 -15l111 -129q22 -26 22 -63v-154q0 -7 -6 -7h-39q-7 0 -7 7v152q0 20 -13 33l-104 128q-9 9 -18 0l-111 -128q-13 -14 -13 -33v-152q0 -7 -6 -7h-39q-7 0 -7 7v154q0 40 22 63l116 129q8 7 0 15l-116 133
q-22 25 -22 63v129q0 7 7 7h39q6 0 6 -7v-127q0 -19 13 -33l111 -132q10 -13 19 0l104 133q12 15 12 34v125q0 7 7 7z" />
    <glyph glyph-name="Y" unicode="Y" horiz-adv-x="528" 
d="M400 700h39q7 0 7 -7v-192q0 -36 -23 -63l-116 -141q-13 -18 -13 -35v-255q0 -7 -7 -7h-38q-7 0 -7 7v255q0 20 -14 35l-124 141q-22 24 -22 63v192q0 7 7 7h39q7 0 7 -7v-191q0 -20 12 -32l112 -133q10 -11 18 1l105 132q12 16 12 34v189q0 7 6 7z" />
    <glyph glyph-name="Z" unicode="Z" horiz-adv-x="482" 
d="M77 700h323q17 0 17 -16v-23q0 -8 -3 -14l-292 -594q-4 -4 2 -4h284q9 0 9 -8v-33q0 -8 -9 -8h-326q-16 0 -16 16v27q0 10 4 17l287 588q3 3 -2 3h-278q-9 0 -9 9v32q0 8 9 8z" />
    <glyph glyph-name="bracketleft" unicode="[" horiz-adv-x="304" 
d="M79 14v653q0 52 19 74t67 22q43 0 65 -5q14 -3 14 -14v-15q0 -7 -9 -7h-62q-29 0 -39 -13.5t-10 -53.5v-628q0 -40 10 -53.5t39 -13.5h62q9 0 9 -7v-15q0 -12 -12 -14q-30 -6 -67 -6q-48 0 -67 22t-19 74z" />
    <glyph glyph-name="backslash" unicode="\" horiz-adv-x="370" 
d="M62 758h33q7 0 9 -8l203 -814q3 -7 -5 -7h-34q-6 0 -8 6l-204 815q-1 8 6 8z" />
    <glyph glyph-name="bracketright" unicode="]" horiz-adv-x="296" 
d="M52 729v15q0 11 13 14q23 5 65 5q49 0 68 -21.5t19 -74.5v-653q0 -52 -19 -74t-68 -22q-36 0 -66 6q-12 2 -12 14v15q0 7 9 7h62q29 0 39 13.5t10 53.5v628q0 40 -10 53.5t-39 13.5h-62q-9 0 -9 7z" />
    <glyph glyph-name="asciicircum" unicode="^" horiz-adv-x="474" 
d="M36 463l166 184q19 19 36 19t35 -19l164 -182q14 -15 -5 -15h-31q-16 0 -26 11l-128 147q-10 12 -19 0l-127 -148q-9 -10 -28 -10h-30q-9 0 -10.5 4t3.5 9z" />
    <glyph glyph-name="underscore" unicode="_" horiz-adv-x="614" 
d="M119 0h376q7 0 7 -7v-30q0 -7 -7 -7h-376q-7 0 -7 7v30q0 7 7 7z" />
    <glyph glyph-name="grave" unicode="`" horiz-adv-x="188" 
d="M36 700h41q7 0 10 -7l53 -113q4 -12 -7 -12h-15q-10 0 -15 8l-72 116q-4 8 5 8z" />
    <glyph glyph-name="a" unicode="a" horiz-adv-x="452" 
d="M87 461l-3 18q0 13 12 17q50 15 111 15q93 0 130.5 -41t37.5 -156v-307q0 -7 -7 -7h-21q-10 0 -11 9l-5 46q-1 1 -3 1t-7 -6.5t-14.5 -16t-23.5 -19t-39 -16t-56 -6.5q-70 0 -101 38t-31 123q0 78 37 112.5t114 34.5h105q13 0 13 13q0 92 -26.5 122t-96.5 30
q-29 0 -68 -7l-39 -6q-8 0 -8 9zM315 258h-97q-61 0 -87.5 -23.5t-26.5 -81.5q0 -68 22.5 -92.5t71.5 -24.5q64 0 96 36t32 99v75q0 12 -11 12z" />
    <glyph glyph-name="b" unicode="b" horiz-adv-x="472" 
d="M83 700h37q6 0 6 -7v-224q0 -2 3 -2l1 1q2 2 5.5 6t9.5 9q35 28 105 28q59 0 92.5 -18t53 -74t19.5 -159q0 -157 -39.5 -212.5t-133.5 -55.5q-92 0 -128.5 37.5t-36.5 125.5v538q0 7 6 7zM126 365v-219q0 -58 26 -82.5t89 -24.5q48 0 73 15.5t38.5 63.5t13.5 142
q0 86 -14.5 131.5t-38.5 59t-69 13.5q-118 0 -118 -99z" />
    <glyph glyph-name="c" unicode="c" horiz-adv-x="398" 
d="M332 38l2 -19q1 -14 -12 -18q-42 -9 -92 -9q-99 0 -136.5 59t-37.5 202t36.5 200.5t131.5 57.5q61 0 97 -10q14 -4 13 -18l-2 -20q0 -8 -7 -8q-1 0 -34.5 5t-57.5 5q-74 0 -99.5 -45t-25.5 -167t26.5 -168t104.5 -46q21 0 53 3.5t33 3.5q7 0 7 -8z" />
    <glyph glyph-name="d" unicode="d" horiz-adv-x="469" 
d="M351 700h33q8 0 8 -8v-527q0 -93 -38 -133t-133 -40q-92 0 -128.5 54.5t-36.5 203.5q0 106 18.5 163.5t52 77.5t92.5 20q38 0 66 -10t40 -20t13 -10q4 0 4 5v216q0 8 9 8zM343 162v198q0 55 -27.5 79.5t-88.5 24.5q-34 0 -54 -7t-36.5 -28.5t-23.5 -65t-7 -113.5
q0 -90 12.5 -136t35.5 -60.5t68 -14.5q69 0 95 27t26 96z" />
    <glyph glyph-name="e" unicode="e" horiz-adv-x="437" 
d="M370 48l3 -17q2 -14 -12 -19q-43 -19 -118 -19q-71 0 -109 20.5t-57.5 77t-19.5 162.5t19.5 163t54.5 76t98 19q87 0 123 -49t36 -180v-18q0 -28 -29 -28h-248q-4 0 -4 -4v-10q0 -79 15.5 -119t43.5 -52.5t82 -12.5q25 0 51 4.5t43 9t19 4.5q9 0 9 -8zM111 277h227
q3 0 3 4q0 79 -13.5 120t-35.5 53t-62 12q-46 0 -70.5 -12.5t-38.5 -53t-14 -118.5q0 -5 4 -5z" />
    <glyph glyph-name="f" unicode="f" horiz-adv-x="288" 
d="M91 510v44q0 85 26.5 116.5t94.5 31.5q46 0 70 -8q12 -4 11 -17l-2 -20q-1 -7 -8 -7q-1 0 -11.5 1.5t-26 3t-29.5 1.5q-43 0 -59 -20t-16 -80v-47q0 -5 7 -5h113q9 0 9 -9v-27q0 -9 -9 -9h-113q-7 0 -7 -6v-446q0 -7 -7 -7h-34q-9 0 -9 7v447q0 5 -6 5h-62q-8 0 -8 9v27
q0 9 8 9h62q6 0 6 6z" />
    <glyph glyph-name="g" unicode="g" horiz-adv-x="481" 
d="M354 81h-2q-41 -61 -129 -61q-55 0 -89.5 20t-55.5 76.5t-21 152.5q0 136 38 189t130 53q89 0 129 -50q7 -8 8 -5q0 1 1 4l6 35q4 9 14 9h13q8 0 8 -9v-491q0 -94 -37 -139t-140 -45q-66 0 -121 13q-11 4 -10 16l2 19q0 9 9 9q1 0 44 -6t73 -6q81 0 105.5 33t24.5 109v74
zM354 208v163q0 40 -31 67t-91 27q-69 0 -97 -41.5t-28 -154.5q0 -115 31.5 -158.5t91.5 -43.5q39 0 60.5 10t40.5 30q23 25 23 101z" />
    <glyph glyph-name="h" unicode="h" horiz-adv-x="493" 
d="M84 700h35q7 0 7 -7v-240q0 -2 1 -2q3 0 3 2q34 58 135 58q87 0 119.5 -39.5t32.5 -135.5v-329q0 -7 -7 -7h-37q-7 0 -7 7v328q0 75 -24 102.5t-83 27.5q-68 0 -100 -30t-32 -100v-328q0 -7 -8 -7h-35q-7 0 -7 7v686q0 7 7 7z" />
    <glyph glyph-name="i" unicode="i" horiz-adv-x="206" 
d="M85 700h36q8 0 8 -8v-99q0 -8 -8 -8h-36q-8 0 -8 8v99q0 8 8 8zM86 504h34q8 0 8 -9v-487q0 -8 -8 -8h-35q-7 0 -7 8v487q0 9 8 9z" />
    <glyph glyph-name="j" unicode="j" horiz-adv-x="231" 
d="M112 700h34q9 0 9 -8v-90q0 -8 -9 -8h-34q-8 0 -8 8v90q0 8 8 8zM112 503h35q8 0 8 -7v-527q0 -83 -27 -115.5t-95 -32.5q-48 0 -74 8q-12 2 -12 16l2 21q2 8 8 8q2 0 12 -2t25.5 -3.5t30.5 -1.5q46 0 63 20.5t17 82.5v526q0 7 7 7z" />
    <glyph glyph-name="k" unicode="k" horiz-adv-x="439" 
d="M85 700h33q9 0 9 -8v-398q0 -5 4 -5h70q3 0 5 4l109 203q3 8 16 8h34q15 0 9 -12l-116 -205q-2 -3 2 -5q63 -12 87 -78l71 -195q3 -9 -7 -9h-34q-9 0 -12 10l-67 175q-22 58 -81 58h-86q-4 0 -4 -4v-231q0 -8 -9 -8h-33q-8 0 -8 8v684q0 8 8 8z" />
    <glyph glyph-name="l" unicode="l" horiz-adv-x="208" 
d="M87 700h33q9 0 9 -8v-684q0 -8 -9 -8h-33q-8 0 -8 8v684q0 8 8 8z" />
    <glyph glyph-name="m" unicode="m" horiz-adv-x="713" 
d="M77 8v342q0 87 31.5 124t111.5 37q103 0 133 -74q1 -3 3.5 -3t3.5 2q24 75 133 75q80 0 111.5 -37t31.5 -124v-342q0 -8 -8 -8h-34q-8 0 -8 8v347q0 59 -23 84t-79 25q-53 0 -78 -30t-25 -94v-332q0 -8 -7 -8h-34q-9 0 -9 8v332q0 65 -23.5 94.5t-78.5 29.5
q-56 0 -79 -25t-23 -84v-347q0 -8 -9 -8h-33q-8 0 -8 8z" />
    <glyph glyph-name="n" unicode="n" horiz-adv-x="493" 
d="M77 7v327q0 100 35 138.5t135 38.5t135 -38.5t35 -138.5v-327q0 -7 -8 -7h-35q-7 0 -7 7v328q0 79 -26 104.5t-94 25.5t-94 -25.5t-26 -104.5v-328q0 -7 -8 -7h-35q-7 0 -7 7z" />
    <glyph glyph-name="o" unicode="o" 
d="M230 511q101 0 137 -55t36 -203q0 -149 -36 -205t-137 -56t-137 56t-36 205q0 148 36 203t137 55zM230 465q-72 0 -97.5 -42.5t-25.5 -169.5t25.5 -170.5t97.5 -43.5q71 0 96.5 43t25.5 171q0 127 -25 169.5t-97 42.5z" />
    <glyph glyph-name="p" unicode="p" horiz-adv-x="472" 
d="M77 -170v514q0 83 40 125t128 42q94 1 132 -51.5t38 -198.5q0 -106 -19.5 -165.5t-55.5 -81.5t-98 -22q-35 0 -61.5 8.5t-38.5 17.5l-12 8q-3 0 -3 -3v-193q0 -8 -9 -8h-33q-8 0 -8 8zM127 338v-223q0 -39 29.5 -57.5t76.5 -18.5q37 0 59 7.5t39.5 30.5t25 67.5
t7.5 116.5q0 87 -12.5 131.5t-36.5 58.5t-70 14q-64 0 -91 -30.5t-27 -96.5z" />
    <glyph glyph-name="q" unicode="q" horiz-adv-x="479" 
d="M353 -170v199q0 2 -1 3.5t-3 0.5q-46 -41 -122 -41q-63 0 -98 20.5t-54 79t-19 167.5q0 148 40.5 200t141.5 52q89 0 127 -40.5t38 -128.5v-512q0 -8 -9 -8h-33q-8 0 -8 8zM353 130v213q0 65 -27 92.5t-89 27.5q-50 0 -76 -14.5t-40 -59t-14 -130.5q0 -95 15 -143.5
t40 -62t73 -13.5q63 0 99 34q19 20 19 56z" />
    <glyph glyph-name="r" unicode="r" horiz-adv-x="315" 
d="M77 7v387q0 66 26 91.5t90 25.5q39 0 78 -9q16 -4 13 -19l-2 -17q0 -8 -8 -8l-28 3q-27 3 -43 3q-43 0 -59.5 -14t-16.5 -57v-386q0 -7 -8 -7h-35q-7 0 -7 7z" />
    <glyph glyph-name="s" unicode="s" horiz-adv-x="398" 
d="M216 229l-65 33q-35 17 -52 29t-30 38.5t-13 67.5q0 62 38 88t115 26t115 -9q11 -2 11 -15l-3 -19q0 -8 -8 -8q-1 0 -42 3.5t-68 3.5q-53 0 -80.5 -15t-27.5 -57q0 -38 17 -56.5t63 -41.5l62 -29q58 -28 80.5 -54.5t22.5 -75.5q0 -72 -37.5 -109t-126.5 -37q-73 0 -111 9
q-13 2 -13 15l2 22q2 7 8 7q3 0 19.5 -2t42 -4t50.5 -2q116 0 116 94q0 36 -17 54t-68 44z" />
    <glyph glyph-name="t" unicode="t" horiz-adv-x="283" 
d="M69 603h28q10 0 10 -10l3 -81q0 -8 9 -8h115q9 0 9 -9v-27q0 -9 -9 -9h-116q-7 0 -7 -5v-344q0 -42 15.5 -56t57.5 -14q17 0 38 3l22 3q7 0 7 -8l3 -22q1 -11 -12 -15q-27 -9 -63 -9q-68 0 -93 26.5t-25 91.5v486q0 7 8 7z" />
    <glyph glyph-name="u" unicode="u" horiz-adv-x="477" 
d="M358 504h34q8 0 8 -9v-318q0 -106 -34 -145.5t-127 -39.5t-127.5 39.5t-34.5 145.5v318q0 9 8 9h33q9 0 9 -9v-326q0 -79 24 -104.5t88 -25.5t87.5 25.5t23.5 104.5v326q0 9 8 9z" />
    <glyph glyph-name="v" unicode="v" horiz-adv-x="477" 
d="M357 504h36q7 0 7 -7v-287q0 -39 -26 -71l-95 -122q-20 -25 -41 -25t-41 25l-96 123q-24 30 -24 70v287q0 7 7 7h35q8 0 8 -7v-287q0 -23 15 -43l85 -115q5 -8 11 -8t13 8l84 115q15 20 15 43v287q0 7 7 7z" />
    <glyph glyph-name="w" unicode="w" horiz-adv-x="687" 
d="M569 504h33q8 0 8 -9v-292q0 -35 -26 -71l-78 -115q-18 -25 -41 -25t-41 25l-78 116q-2 3 -3 3t-3 -3l-82 -116q-20 -25 -38 -25q-20 0 -39 25l-80 116q-24 32 -24 70v292q0 9 8 9h33q9 0 9 -9v-291q0 -21 15 -43l69 -108q6 -8 9 -8q5 0 10 8l74 108q14 22 14 43v294
q0 6 7 6h38q5 0 5 -6v-294q0 -19 15 -43l70 -108q6 -9 11 -9q7 0 13 9l68 108q15 21 15 43v291q0 9 9 9z" />
    <glyph glyph-name="x" unicode="x" horiz-adv-x="414" 
d="M322 504h33q9 0 9 -9v-74q0 -44 -25 -67l-91 -93q-4 -3 0 -7l94 -91q24 -24 24 -67v-88q0 -8 -8 -8h-34q-8 0 -8 8v83q0 27 -15 44l-87 89q-4 4 -7 0l-85 -89q-15 -15 -15 -44v-83q0 -8 -9 -8h-33q-8 0 -8 8v88q0 42 24 67l92 94q3 3 0 6l-89 91q-25 25 -25 67v74
q0 9 8 9h34q8 0 8 -9v-69q0 -30 16 -47l82 -86q3 -3 7 0l84 86q16 16 16 47v69q0 9 8 9z" />
    <glyph glyph-name="y" unicode="y" horiz-adv-x="489" 
d="M365 504h35q7 0 7 -8v-498q0 -93 -35 -136t-133 -43q-71 0 -115 13q-14 4 -13 16l2 23q2 7 8 7q3 0 21 -3t44.5 -6t48.5 -3q76 0 99.5 31t23.5 100v84q0 3 -3 1q-41 -41 -120 -41q-85 0 -119 38t-34 137v280q0 8 8 8h35q7 0 7 -8v-277q0 -79 24.5 -105t88.5 -26
q53 0 82.5 22t29.5 55v331q0 8 8 8z" />
    <glyph glyph-name="z" unicode="z" horiz-adv-x="398" 
d="M58 504h270q26 0 26 -24v-15q0 -20 -14 -40l-239 -370q-5 -8 2 -8h242q7 0 7 -7v-33q0 -7 -7 -7h-275q-26 0 -26 22v14q0 19 17 42l236 368q7 11 -3 11h-236q-7 0 -7 7v33q0 7 7 7z" />
    <glyph glyph-name="braceleft" unicode="{" horiz-adv-x="326" 
d="M114 468v198q0 55 20 77t75 22q45 0 61 -5q12 -4 12 -18v-13q0 -6 -7 -6h-60q-32 0 -43 -15t-11 -58v-208q0 -52 -40 -74q-9 -6 -9 -10t9 -10q40 -22 40 -86v-221q0 -43 11 -58t43 -15h60q7 0 7 -6v-13q0 -14 -12 -18q-16 -5 -61 -5q-55 0 -75 22t-20 77v223
q0 40 -10 57.5t-34 30.5q-14 8 -14 22t14 22q24 14 34 31t10 57z" />
    <glyph glyph-name="bar" unicode="|" horiz-adv-x="239" 
d="M104 799h31q7 0 7 -8v-915q0 -7 -7 -7h-31q-7 0 -7 7v915q0 8 7 8z" />
    <glyph glyph-name="braceright" unicode="}" horiz-adv-x="331" 
d="M44 729v13q0 14 12 18q16 5 62 5q54 0 74 -22t20 -77v-198q0 -39 10.5 -56.5t33.5 -31.5q15 -8 15 -22t-15 -22q-24 -14 -34 -31t-10 -57v-223q0 -55 -20 -77t-74 -22q-46 0 -62 5q-12 4 -12 18v13q0 6 7 6h60q33 0 44 15t11 58v221q0 65 40 86q8 5 8 10t-8 10
q-40 21 -40 74v208q0 43 -11 58t-44 15h-60q-7 0 -7 6z" />
    <glyph glyph-name="asciitilde" unicode="~" horiz-adv-x="448" 
d="M378 421q12 0 15.5 -2.5t1.5 -9.5q-21 -78 -94 -78q-35 0 -78 25t-67 25q-20 0 -37 -12.5t-26 -31.5q-5 -9 -9 -11.5t-15 -2.5t-14.5 2.5t-1.5 9.5q12 41 39 63.5t64 22.5q35 0 77.5 -24.5t64.5 -24.5q42 0 58 37q5 12 22 12z" />
    <glyph glyph-name="exclamdown" unicode="&#xa1;" horiz-adv-x="199" 
d="M118 353h-36q-8 0 -8 7v132q0 8 8 8h36q8 0 8 -8v-132q0 -7 -8 -7zM119 -200h-38q-7 0 -7 8v443q0 7 7 7h38q7 0 7 -7v-443q0 -8 -7 -8z" />
    <glyph glyph-name="cent" unicode="&#xa2;" horiz-adv-x="411" 
d="M219 700h29q8 0 8 -8v-120q0 -4 5 -6q42 -1 63 -8q19 -5 19 -17l-3 -24q0 -7 -7 -7q-2 0 -17 2t-37 4.5t-42 2.5q-69 0 -92 -37t-23 -133q0 -97 23.5 -135.5t92.5 -38.5q21 0 42.5 1.5t36 3.5t16.5 2q7 0 7 -7l3 -21q0 -12 -12 -16q-33 -10 -80 -10q-6 0 -6 -5v-116
q0 -7 -7 -7h-30q-7 0 -7 7v117q0 4 -4 5q-71 7 -99.5 59.5t-28.5 160.5q0 109 30.5 161t106.5 56q5 0 5 6v120q0 8 8 8z" />
    <glyph glyph-name="sterling" unicode="&#xa3;" horiz-adv-x="421" 
d="M108 428v90q0 96 33.5 142.5t121.5 46.5q53 0 117 -12q13 -3 13 -14l-2 -27q0 -8 -7 -8q-3 0 -20 3t-43.5 6t-52.5 3q-59 0 -82 -30t-23 -100v-100q0 -7 6 -7h178q8 0 8 -6v-30q0 -8 -8 -8h-178q-6 0 -6 -6v-318q0 -6 6 -6h206q7 0 7 -7v-33q0 -7 -7 -7h-309q-6 0 -6 7
v19q0 8 7 10l34 6q7 2 7 8v321q0 6 -6 6h-43q-7 0 -7 7v31q0 6 7 6h43q6 0 6 7z" />
    <glyph glyph-name="currency" unicode="&#xa4;" horiz-adv-x="594" 
d="M88 503l95 -95q4 -4 8 -2q36 30 106 30t103 -30q4 -2 9 1l96 96q6 4 10 0l20 -19q5 -5 0 -10l-100 -99q-4 -4 -2 -8q20 -40 20 -114q0 -69 -20 -116q-1 -4 2 -8l100 -97q5 -5 0 -10l-20 -19q-5 -5 -10 0l-95 94q-3 3 -9 1q-34 -32 -104 -32q-69 0 -107 32q-4 2 -7 -1
l-95 -95q-4 -4 -9 0l-20 20q-5 5 0 10l98 97q3 3 2 8q-21 44 -21 116q0 74 22 113q2 6 -3 9l-98 98q-5 5 0 11l19 19q6 4 10 0zM297 391q-60 0 -84.5 -32t-24.5 -106q0 -75 24.5 -108.5t84.5 -33.5q59 0 83 33.5t24 108.5q0 73 -24 105.5t-83 32.5z" />
    <glyph glyph-name="yen" unicode="&#xa5;" horiz-adv-x="581" 
d="M427 700h39q7 0 7 -7v-195q0 -33 -25 -59l-93 -115q-6 -6 3 -6h118q7 0 7 -7v-24q0 -8 -7 -8h-144q-11 0 -11 -12v-50q0 -6 6 -6h149q7 0 7 -7v-25q0 -7 -7 -7h-149q-6 0 -6 -7v-158q0 -7 -7 -7h-38q-7 0 -7 7v158q0 7 -7 7h-157q-7 0 -7 7v25q0 7 7 7h158q6 0 6 6v50
q0 12 -13 12h-151q-7 0 -7 7v25q0 7 7 7h125q9 0 2 7l-99 114q-24 27 -24 62v192q0 7 7 7h39q6 0 6 -7v-191q0 -17 12 -32l112 -133q10 -12 19 1l104 132q13 18 13 34v189q0 7 6 7z" />
    <glyph glyph-name="brokenbar" unicode="&#xa6;" horiz-adv-x="243" 
d="M106 799h31q7 0 7 -8v-347q0 -11 -7 -11h-31q-7 0 -7 11v347q0 8 7 8zM106 264h31q7 0 7 -7v-382q0 -6 -7 -6h-31q-7 0 -7 6v382q0 7 7 7z" />
    <glyph glyph-name="section" unicode="&#xa7;" horiz-adv-x="442" 
d="M94 21l2 18q2 9 10 9q2 0 35.5 -4.5t57.5 -4.5q56 0 80 20t24 67q0 40 -25 63t-88 45q-60 20 -84 46t-24 72q0 92 92 101q2 0 2.5 3t-1.5 4q-23 17 -37 30.5t-27.5 41t-13.5 60.5q0 64 31 90t104 26q68 0 96 -8q12 -3 12 -12l-2 -23q0 -8 -9 -8q-2 0 -35 3.5t-57 3.5
q-50 0 -70.5 -19.5t-20.5 -59.5q0 -47 35 -77t78 -43q55 -15 79.5 -38.5t24.5 -71.5q0 -98 -96 -107q-3 0 -2 -4l2 -2q50 -23 68 -50.5t18 -71.5q0 -65 -35.5 -96.5t-113.5 -31.5q-60 0 -95 11q-15 4 -15 18zM222 422q-49 0 -70.5 -17t-21.5 -52q0 -74 92 -74q49 0 71 18
t22 56q0 35 -22 52t-71 17z" />
    <glyph glyph-name="dieresis" unicode="&#xa8;" horiz-adv-x="245" 
d="M57 700h29q8 0 8 -8v-110q0 -7 -8 -7h-29q-8 0 -8 7v110q0 8 8 8zM159 700h29q8 0 8 -8v-110q0 -7 -8 -7h-29q-8 0 -8 7v110q0 8 8 8z" />
    <glyph glyph-name="copyright" unicode="&#xa9;" horiz-adv-x="535" 
d="M267 700q199 0 199 -227q0 -116 -48.5 -173.5t-150.5 -57.5t-150.5 57.5t-48.5 173.5q0 227 199 227zM267 675q-86 0 -128.5 -48t-42.5 -155t42.5 -155.5t128.5 -48.5q85 0 128.5 49t43.5 155t-43.5 154.5t-128.5 48.5zM327 372v-9q0 -10 -10 -14q-13 -8 -51 -8
q-56 0 -74 31.5t-18 104.5q0 72 19 104t76 32q19 0 44 -7q9 -2 9 -13v-11q0 -6 -5 -6q-1 0 -9 2t-19.5 3.5t-20.5 1.5q-34 0 -47.5 -24.5t-13.5 -81.5q0 -59 13 -82.5t48 -23.5q13 0 25.5 1.5t19.5 3t8 1.5q6 0 6 -5z" />
    <glyph glyph-name="ordfeminine" unicode="&#xaa;" horiz-adv-x="299" 
d="M54 666v11q0 12 10 16q27 10 67 10q65 0 91 -21t26 -73v-201q0 -8 -8 -8h-12q-5 0 -6 6l-8 31q-2 3 -3 0q-29 -40 -86 -40q-86 0 -86 86q0 48 23 68.5t74 20.5h68q6 0 6 5v31q0 33 -18 46t-63 13q-20 0 -35 -2.5t-23 -4.5t-10 -2q-7 0 -7 8zM202 540h-61
q-34 0 -47.5 -11.5t-13.5 -40.5q0 -56 54 -56q35 0 55.5 23t20.5 54v23q0 8 -8 8z" />
    <glyph glyph-name="guillemotleft" unicode="&#xab;" horiz-adv-x="426" 
d="M67 282l120 144q5 5 10 0l20 -20q5 -4 0 -9l-109 -131q-4 -5 0 -9l109 -131q5 -4 0 -9l-20 -20q-5 -5 -10 1l-120 142q-17 21 0 42zM207 282l125 144q5 5 9 0l21 -20q4 -5 0 -9l-114 -131q-5 -5 0 -9l114 -131q3 -4 0 -9l-21 -20q-3 -5 -9 1l-125 142q-18 21 0 42z" />
    <glyph glyph-name="logicalnot" unicode="&#xac;" horiz-adv-x="605" 
d="M87 316h334q57 0 83 -27t26 -88v-67q0 -12 -12 -12h-25q-12 0 -12 12v54q0 42 -17 60.5t-56 18.5h-321q-13 0 -13 12v25q0 12 13 12z" />
    <glyph glyph-name="softhyphen" unicode="&#xad;" horiz-adv-x="354" 
d="M67 295h219q8 0 8 -7v-29q0 -8 -8 -8h-219q-7 0 -7 7v30q0 7 7 7z" />
    <glyph glyph-name="registered" unicode="&#xae;" horiz-adv-x="535" 
d="M267 700q199 0 199 -227q0 -116 -48.5 -173.5t-150.5 -57.5t-150.5 57.5t-48.5 173.5q0 227 199 227zM267 675q-86 0 -128.5 -48t-42.5 -155t42.5 -155.5t128.5 -48.5q85 0 128.5 49t43.5 155t-43.5 154.5t-128.5 48.5zM185 353v186q0 39 18.5 58t62.5 19q79 0 79 -80
q0 -54 -43 -74q-4 -1 -2 -6l61 -103q4 -6 -4 -6h-21q-6 0 -10 6l-53 91q-6 10 -20 10h-30q-6 0 -6 -6v-95q0 -6 -6 -6h-20q-6 0 -6 6zM222 485h40q26 0 38 12t12 39q0 28 -10 39.5t-37 11.5t-38 -11.5t-10 -38.5v-47q0 -5 5 -5z" />
    <glyph glyph-name="macron" unicode="&#xaf;" horiz-adv-x="341" 
d="M66 655h209q7 0 7 -7v-28q0 -7 -7 -7h-209q-7 0 -7 7v28q0 7 7 7z" />
    <glyph glyph-name="degree" unicode="&#xb0;" horiz-adv-x="331" 
d="M166 705q118 0 118 -133q0 -131 -118 -131q-119 0 -119 131q0 133 119 133zM166 669q-40 0 -59 -23t-19 -73q0 -51 19 -74t59 -23q77 0 77 97q0 96 -77 96z" />
    <glyph glyph-name="plusminus" unicode="&#xb1;" horiz-adv-x="515" 
d="M242 618h31q7 0 7 -7v-143q0 -6 7 -6h139q8 0 8 -1v-36q0 -7 -8 -7h-139q-7 0 -7 -7v-146q0 -7 -7 -7h-31q-7 0 -7 7v145q0 8 -7 8h-139q-7 0 -7 7v36q0 1 7 1h139q7 0 7 6v143q0 7 7 7zM89 150h337q8 0 8 -7v-29q0 -8 -8 -8h-337q-7 0 -7 7v30q0 7 7 7z" />
    <glyph glyph-name="twosuperior" unicode="&#xb2;" horiz-adv-x="296" 
d="M44 885l-2 21q-1 9 6 10q27 9 85 9q67 0 94 -22.5t27 -68.5q0 -32 -17.5 -59.5t-42.5 -47.5t-50 -40.5t-42.5 -49.5t-17.5 -63q0 -2 2 -2h166q5 0 5 -4v-29q0 -4 -5 -4h-207q-7 0 -7 6v19q0 43 17.5 78.5t43 58t51 42t43 42.5t17.5 48q0 32 -18 45.5t-66 13.5
q-16 0 -33.5 -2t-29.5 -3.5t-14 -1.5q-5 0 -5 4z" />
    <glyph glyph-name="threesuperior" unicode="&#xb3;" horiz-adv-x="291" 
d="M42 889l-2 17q-1 8 7 10q16 9 75 9q66 0 91.5 -24t25.5 -73q0 -69 -49 -85q-6 -1 0 -3q62 -11 62 -91q0 -58 -28 -88t-97 -30q-52 0 -79 9q-7 3 -6 11l2 17q0 5 5 5q2 0 13 -1.5t28.5 -3t34.5 -1.5q48 0 67.5 19.5t19.5 63.5q0 39 -16.5 55.5t-59.5 16.5h-45q-7 0 -7 6
v21q0 8 7 8h40q38 0 52.5 15.5t14.5 50.5t-18 51t-62 16q-16 0 -32 -1.5t-26 -3t-12 -1.5q-6 0 -6 5z" />
    <glyph glyph-name="acute" unicode="&#xb4;" horiz-adv-x="196" 
d="M101 700h45q12 0 5 -9l-71 -116q-4 -7 -12 -7h-20q-13 0 -7 11l50 114q3 7 10 7z" />
    <glyph glyph-name="paragraph" unicode="&#xb6;" horiz-adv-x="551" 
d="M314 355h-78q-87 0 -122.5 41.5t-35.5 130.5q0 96 36 138.5t115 42.5q78 0 104.5 -31.5t26.5 -107.5v-560q0 -9 -8 -9h-25q-9 0 -9 9v341q0 5 -4 5zM422 700h21q11 0 11 -10v-682q0 -8 -9 -8h-25q-8 0 -8 8v682q0 10 10 10z" />
    <glyph glyph-name="periodcentered" unicode="&#xb7;" horiz-adv-x="248" 
d="M106 416h36q8 0 8 -9v-127q0 -8 -8 -8h-36q-8 0 -8 8v127q0 9 8 9z" />
    <glyph glyph-name="cedilla" unicode="&#xb8;" horiz-adv-x="208" 
d="M106 18h33q7 0 5 -7l-37 -125q-4 -10 -14 -10h-25q-9 0 -6 9l32 125q1 8 12 8z" />
    <glyph glyph-name="onesuperior" unicode="&#xb9;" horiz-adv-x="269" 
d="M70 889v15q0 10 8 13q14 7 47 7q62 0 62 -48v-336q0 -5 -6 -5h-29q-5 0 -5 5v318q0 17 -6.5 23.5t-25.5 6.5q-11 0 -25 -2l-14 -2q-6 0 -6 5z" />
    <glyph glyph-name="ordmasculine" unicode="&#xba;" horiz-adv-x="307" 
d="M154 704q66 0 89.5 -35t23.5 -121q0 -81 -23.5 -116t-89.5 -35q-67 0 -90.5 35t-23.5 116q0 86 23.5 121t90.5 35zM154 668q-44 0 -59 -25t-15 -95q0 -64 15 -89t59 -25q43 0 58 25t15 89q0 70 -15 95t-58 25z" />
    <glyph glyph-name="guillemotright" unicode="&#xbb;" horiz-adv-x="426" 
d="M239 426l120 -144q18 -21 0 -42l-120 -142q-5 -5 -9 -1l-20 20q-4 5 0 9l108 131q5 4 0 9l-109 131q-3 5 1 9l20 20q5 5 9 0zM94 426l126 -144q17 -21 0 -42l-126 -142q-4 -6 -9 -1l-20 20q-5 5 0 9l114 131q4 4 0 9l-115 131q-3 5 1 9l20 20q5 5 9 0z" />
    <glyph glyph-name="onequarter" unicode="&#xbc;" horiz-adv-x="684" 
d="M438 711h18q7 0 6 -7l-225 -709q-2 -8 -10 -8h-17q-8 0 -6 7l225 710q1 7 9 7zM70 669v15q0 10 8 13q14 7 47 7q62 0 62 -48v-336q0 -5 -6 -5h-29q-5 0 -5 5v318q0 17 -6.5 23.5t-25.5 6.5q-11 0 -25 -2l-14 -2q-6 0 -6 5zM585 385h12q12 0 12 -14v-260q0 -4 4 -4h46
q4 0 4 -5v-26q0 -4 -4 -4h-46q-4 0 -4 -4v-64q0 -4 -5 -4h-28q-5 0 -5 4v64q0 4 -4 4h-126q-24 0 -24 19v36q0 29 18 56l113 180q13 22 37 22zM571 111v219q-6 0 -11 -8l-92 -152q-11 -17 -11 -35v-25q0 -3 4 -3h106q4 0 4 4z" />
    <glyph glyph-name="onehalf" unicode="&#xbd;" horiz-adv-x="691" 
d="M438 711h18q7 0 6 -7l-225 -709q-2 -8 -10 -8h-17q-8 0 -6 7l225 710q1 7 9 7zM70 669v15q0 10 8 13q14 7 47 7q62 0 62 -48v-336q0 -5 -6 -5h-29q-5 0 -5 5v318q0 17 -6.5 23.5t-25.5 6.5q-11 0 -25 -2l-14 -2q-6 0 -6 5zM440 350l-2 21q-1 9 6 10q27 9 85 9
q67 0 94 -22.5t27 -68.5q0 -32 -17.5 -59.5t-42.5 -47.5t-50 -40.5t-42.5 -49.5t-17.5 -63q0 -2 2 -2h166q5 0 5 -4v-29q0 -4 -5 -4h-207q-7 0 -7 6v19q0 43 17.5 78.5t43 58t51 42t43 42.5t17.5 48q0 32 -18 45.5t-66 13.5q-16 0 -33.5 -1.5t-29.5 -3.5t-14 -2q-5 0 -5 4z
" />
    <glyph glyph-name="threequarters" unicode="&#xbe;" horiz-adv-x="706" 
d="M460 711h18q8 0 5 -7l-224 -709q-2 -8 -10 -8h-17q-3 0 -5 2t-1 5l224 710q3 7 10 7zM42 669l-2 17q-1 8 7 10q16 9 75 9q66 0 91.5 -24t25.5 -73q0 -69 -49 -85q-6 -1 0 -3q62 -11 62 -91q0 -58 -28 -88t-97 -30q-52 0 -79 9q-7 3 -6 11l2 17q0 5 5 5q2 0 13 -1.5
t28.5 -3t34.5 -1.5q48 0 67.5 19.5t19.5 63.5q0 39 -16.5 55.5t-59.5 16.5h-45q-7 0 -7 6v21q0 8 7 8h40q38 0 52.5 15.5t14.5 50.5t-18 51t-62 16q-16 0 -32 -1.5t-26 -3t-12 -1.5q-6 0 -6 5zM607 385h12q11 0 11 -14v-260q0 -4 5 -4h46q4 0 4 -5v-26q0 -4 -4 -4h-46
q-5 0 -5 -4v-64q0 -4 -4 -4h-28q-5 0 -5 4v64q0 4 -4 4h-126q-24 0 -24 19v36q0 29 18 56l112 180q14 22 38 22zM593 111v219q-7 0 -11 -8l-92 -152q-12 -18 -12 -35v-25q0 -3 5 -3h106q4 0 4 4z" />
    <glyph glyph-name="questiondown" unicode="&#xbf;" 
d="M262 354h-40q-7 0 -7 8v130q0 8 7 8h40q8 0 8 -8v-130q0 -8 -8 -8zM387 -152l3 -28q0 -10 -8 -13q-53 -14 -149 -14q-105 0 -143.5 30.5t-38.5 104.5q0 35 12.5 60t31 39t40 29t40 28.5t31 39.5t12.5 61v69q0 9 8 9h33q8 0 8 -9v-77q0 -47 -16.5 -79.5t-40.5 -49.5
t-48 -31.5t-40.5 -35.5t-16.5 -50q0 -51 29 -70t109 -19q32 0 63 3t51 6.5t24 3.5q6 0 6 -7z" />
    <glyph glyph-name="Agrave" unicode="&#xc0;" horiz-adv-x="545" 
d="M161 844l34 14q10 3 17 -5l83 -90q8 -13 -4 -13h-18q-12 0 -21 8l-93 74q-7 7 2 12zM117 551l123 137q16 17 33 17t33 -17l122 -137q21 -23 21 -55v-488q0 -8 -8 -8h-36q-8 0 -8 8v204q0 6 -7 6h-236q-6 0 -6 -6v-204q0 -8 -8 -8h-36q-8 0 -8 8v488q0 32 21 55zM387 521
l-107 122q-3 5 -7 5q-2 0 -7 -5l-108 -122q-10 -11 -10 -26v-222q0 -6 6 -6h236q7 0 7 6v222q0 15 -10 26z" />
    <glyph glyph-name="Aacute" unicode="&#xc1;" horiz-adv-x="545" 
d="M366 853l23 -13q9 -5 1 -12l-92 -73q-11 -7 -25 -7h-20q-12 0 -4 10l92 91q9 12 25 4zM117 551l123 137q16 17 33 17t33 -17l122 -137q21 -23 21 -55v-488q0 -8 -8 -8h-36q-8 0 -8 8v204q0 6 -7 6h-236q-6 0 -6 -6v-204q0 -8 -8 -8h-36q-8 0 -8 8v488q0 32 21 55z
M387 521l-107 122q-3 5 -7 5q-2 0 -7 -5l-108 -122q-10 -11 -10 -26v-222q0 -6 6 -6h236q7 0 7 6v222q0 15 -10 26z" />
    <glyph glyph-name="Acircumflex" unicode="&#xc2;" horiz-adv-x="545" 
d="M277 838l90 -57q4 -2 2 -7l-11 -22q-1 -7 -8 -4l-73 45q-4 3 -11 0l-73 -45q-7 -3 -8 4l-11 22q-2 5 2 7l90 57q6 3 11 0zM117 551l123 137q16 17 33 17t33 -17l122 -137q21 -23 21 -55v-488q0 -8 -8 -8h-36q-8 0 -8 8v204q0 6 -7 6h-236q-6 0 -6 -6v-204q0 -8 -8 -8h-36
q-8 0 -8 8v488q0 32 21 55zM387 521l-107 122q-3 5 -7 5q-2 0 -7 -5l-108 -122q-10 -11 -10 -26v-222q0 -6 6 -6h236q7 0 7 6v222q0 15 -10 26z" />
    <glyph glyph-name="Atilde" unicode="&#xc3;" horiz-adv-x="545" 
d="M369 840q11 0 14.5 -2.5t2.5 -7.5q-14 -77 -65 -77q-22 0 -51.5 20.5t-41.5 20.5q-13 0 -19 -6t-14 -26q-5 -11 -21 -11t-16 9q14 72 64 72q22 0 52.5 -20t41.5 -20q24 0 34 38q4 10 19 10zM117 551l123 137q16 17 33 17t33 -17l122 -137q21 -23 21 -55v-488q0 -8 -8 -8
h-36q-8 0 -8 8v204q0 6 -7 6h-236q-6 0 -6 -6v-204q0 -8 -8 -8h-36q-8 0 -8 8v488q0 32 21 55zM387 521l-107 122q-3 5 -7 5q-2 0 -7 -5l-108 -122q-10 -11 -10 -26v-222q0 -6 6 -6h236q7 0 7 6v222q0 15 -10 26z" />
    <glyph glyph-name="Adieresis" unicode="&#xc4;" horiz-adv-x="545" 
d="M203 848h32q7 0 7 -8v-82q0 -8 -7 -8h-32q-8 0 -8 8v82q0 8 8 8zM311 848h32q7 0 7 -8v-82q0 -8 -7 -8h-32q-8 0 -8 8v82q0 8 8 8zM117 551l123 137q16 17 33 17t33 -17l122 -137q21 -23 21 -55v-488q0 -8 -8 -8h-36q-8 0 -8 8v204q0 6 -7 6h-236q-6 0 -6 -6v-204
q0 -8 -8 -8h-36q-8 0 -8 8v488q0 32 21 55zM387 521l-107 122q-3 5 -7 5q-2 0 -7 -5l-108 -122q-10 -11 -10 -26v-222q0 -6 6 -6h236q7 0 7 6v222q0 15 -10 26z" />
    <glyph glyph-name="Aring" unicode="&#xc5;" horiz-adv-x="545" 
d="M273 887q63 0 63 -66q0 -67 -63 -67t-63 67q0 66 63 66zM273 859q-32 0 -32 -38t32 -38t32 38t-32 38zM117 551l123 137q16 17 33 17t33 -17l122 -137q21 -23 21 -55v-488q0 -8 -8 -8h-36q-8 0 -8 8v204q0 6 -7 6h-236q-6 0 -6 -6v-204q0 -8 -8 -8h-36q-8 0 -8 8v488
q0 32 21 55zM387 521l-107 122q-3 5 -7 5q-2 0 -7 -5l-108 -122q-10 -11 -10 -26v-222q0 -6 6 -6h236q7 0 7 6v222q0 15 -10 26z" />
    <glyph glyph-name="AE" unicode="&#xc6;" horiz-adv-x="770" 
d="M301 700h364q7 0 7 -7v-35q0 -7 -7 -7h-244q-14 0 -14 -13v-245q0 -6 6 -6h225q7 0 7 -7v-34q0 -7 -7 -7h-225q-6 0 -6 -6v-206q0 -47 18 -62.5t71 -15.5h169q7 0 7 -7v-35q0 -7 -7 -7h-178q-70 0 -100.5 27t-30.5 84v81q0 10 -10 10h-190q-5 0 -5 -6v-189q0 -7 -7 -7
h-40q-6 0 -6 7v469q0 34 17 51l147 155q15 18 39 18zM348 648h-45q-7 0 -12 -6l-130 -141q-10 -11 -10 -28v-215q0 -5 5 -5h193q6 0 6 6v382q0 7 -7 7z" />
    <glyph glyph-name="Ccedilla" unicode="&#xc7;" horiz-adv-x="476" 
d="M431 42l2 -19q1 -15 -12 -19q-25 -8 -99 -11l-32 -107q-3 -10 -13 -10h-25q-9 0 -6 9l27 108q-61 2 -97.5 19t-59 60.5t-30 108t-7.5 171.5q0 111 9 177t34.5 107.5t65.5 56.5t107 15q79 0 120 -9q12 -1 12 -15l-2 -26q-2 -7 -8 -7l-44 4q-44 4 -73 4q-68 1 -100.5 -20
t-48.5 -86.5t-16 -200.5q0 -105 6.5 -163.5t26.5 -93t49.5 -44.5t83.5 -10q29 0 57 2.5t45.5 4.5t20.5 2q7 0 7 -8z" />
    <glyph glyph-name="Egrave" unicode="&#xc8;" horiz-adv-x="502" 
d="M161 844l34 14q10 3 17 -5l83 -90q10 -13 -4 -13h-17q-13 0 -21 8l-93 74q-6 6 1 12zM260 700h163q8 0 8 -8v-33q0 -8 -8 -8h-151q-80 0 -102 -20.5t-22 -95.5v-143q0 -6 6 -6h242q9 0 9 -8v-32q0 -9 -9 -9h-242q-6 0 -6 -5v-167q0 -75 22 -95.5t102 -20.5h151q8 0 8 -8
v-33q0 -8 -8 -8h-155q-101 0 -136.5 32t-35.5 120v396q0 87 34 119.5t130 32.5z" />
    <glyph glyph-name="Eacute" unicode="&#xc9;" horiz-adv-x="502" 
d="M367 853l23 -13q8 -5 1 -12l-92 -73q-11 -7 -26 -7h-19q-12 0 -4 10l92 91q8 12 25 4zM260 700h163q8 0 8 -8v-33q0 -8 -8 -8h-151q-80 0 -102 -20.5t-22 -95.5v-143q0 -6 6 -6h242q9 0 9 -8v-32q0 -9 -9 -9h-242q-6 0 -6 -5v-167q0 -75 22 -95.5t102 -20.5h151q8 0 8 -8
v-33q0 -8 -8 -8h-155q-101 0 -136.5 32t-35.5 120v396q0 87 34 119.5t130 32.5z" />
    <glyph glyph-name="Ecircumflex" unicode="&#xca;" horiz-adv-x="502" 
d="M278 838l89 -57q5 -2 3 -7l-11 -22q-1 -7 -9 -4l-72 45q-5 4 -12 0l-72 -45q-7 -3 -9 4l-11 22q-2 5 3 7l90 57q5 3 11 0zM260 700h163q8 0 8 -8v-33q0 -8 -8 -8h-151q-80 0 -102 -20.5t-22 -95.5v-143q0 -6 6 -6h242q9 0 9 -8v-32q0 -9 -9 -9h-242q-6 0 -6 -5v-167
q0 -75 22 -95.5t102 -20.5h151q8 0 8 -8v-33q0 -8 -8 -8h-155q-101 0 -136.5 32t-35.5 120v396q0 87 34 119.5t130 32.5z" />
    <glyph glyph-name="Edieresis" unicode="&#xcb;" horiz-adv-x="502" 
d="M203 848h32q8 0 8 -8v-82q0 -8 -8 -8h-32q-7 0 -7 8v82q0 8 7 8zM312 848h31q8 0 8 -8v-82q0 -8 -8 -8h-31q-8 0 -8 8v82q0 8 8 8zM260 700h163q8 0 8 -8v-33q0 -8 -8 -8h-151q-80 0 -102 -20.5t-22 -95.5v-143q0 -6 6 -6h242q9 0 9 -8v-32q0 -9 -9 -9h-242q-6 0 -6 -5
v-167q0 -75 22 -95.5t102 -20.5h151q8 0 8 -8v-33q0 -8 -8 -8h-155q-101 0 -136.5 32t-35.5 120v396q0 87 34 119.5t130 32.5z" />
    <glyph glyph-name="Igrave" unicode="&#xcc;" horiz-adv-x="245" 
d="M10 844l34 14q10 3 17 -5l83 -90q8 -13 -4 -13h-17q-13 0 -21 8l-93 74q-6 6 1 12zM104 700h37q8 0 8 -8v-684q0 -8 -8 -8h-37q-8 0 -8 8v684q0 8 8 8z" />
    <glyph glyph-name="Iacute" unicode="&#xcd;" horiz-adv-x="245" 
d="M216 853l22 -13q9 -5 2 -12l-93 -73q-9 -7 -25 -7h-19q-14 0 -4 10l92 91q8 12 25 4zM104 700h37q8 0 8 -8v-684q0 -8 -8 -8h-37q-8 0 -8 8v684q0 8 8 8z" />
    <glyph glyph-name="Icircumflex" unicode="&#xce;" horiz-adv-x="245" 
d="M127 838l89 -57q5 -2 2 -7l-10 -22q-3 -7 -9 -4l-72 45q-5 4 -12 0l-72 -45q-7 -3 -9 4l-11 22q-2 5 3 7l89 57q7 3 12 0zM104 700h37q8 0 8 -8v-684q0 -8 -8 -8h-37q-8 0 -8 8v684q0 8 8 8z" />
    <glyph glyph-name="Idieresis" unicode="&#xcf;" horiz-adv-x="245" 
d="M52 848h32q8 0 8 -8v-82q0 -8 -8 -8h-32q-7 0 -7 8v82q0 8 7 8zM160 848h32q8 0 8 -8v-82q0 -8 -8 -8h-32q-7 0 -7 8v82q0 8 7 8zM104 700h37q8 0 8 -8v-684q0 -8 -8 -8h-37q-8 0 -8 8v684q0 8 8 8z" />
    <glyph glyph-name="Eth" unicode="&#xd0;" horiz-adv-x="594" 
d="M146 700h151q57 0 93.5 -13t65 -50t41.5 -107t13 -180t-12.5 -180t-41 -107t-65.5 -50t-94 -13h-152q-12 0 -19.5 8t-7.5 20v310q0 4 -4 4h-65q-7 0 -7 7v25q0 7 7 7h65q4 0 4 5v287q0 12 8 19.5t20 7.5zM287 651h-111q-5 0 -5 -5v-260q0 -5 5 -5h139q8 0 8 -7v-25
q0 -7 -8 -7h-139q-5 0 -5 -4v-284q0 -5 5 -5h111q66 0 100.5 23.5t51 88t16.5 189.5t-16.5 189.5t-51 88t-100.5 23.5z" />
    <glyph glyph-name="Ntilde" unicode="&#xd1;" horiz-adv-x="577" 
d="M385 840q18 0 18 -10q-14 -77 -66 -77q-21 0 -50.5 20.5t-42.5 20.5q-12 0 -19 -6.5t-14 -25.5q-5 -11 -20 -11q-10 0 -13.5 2t-2.5 7q14 72 64 72q23 0 53 -20t40 -20q25 0 35 38q2 6 5 8t13 2zM439 700h39q7 0 7 -7v-677q0 -16 -16 -16h-14q-11 0 -15 9l-291 560
q-3 3 -5 -1v-561q0 -7 -7 -7h-39q-7 0 -7 7v677q0 16 16 16h17q10 0 16 -10l288 -555q1 -3 4 -2l1 3v557q0 7 6 7z" />
    <glyph glyph-name="Ograve" unicode="&#xd2;" horiz-adv-x="572" 
d="M174 844l34 14q10 3 17 -5l83 -90q8 -13 -4 -13h-17q-13 0 -21 8l-93 74q-6 6 1 12zM286 708q54 0 89.5 -12t59 -36t36 -68.5t17 -99.5t4.5 -140q0 -107 -7 -170t-29.5 -109t-62.5 -63.5t-107 -17.5q-54 0 -90 12.5t-59.5 36.5t-36 69.5t-17 100.5t-4.5 141q0 85 4.5 140
t17 99.5t36 68.5t59.5 36t90 12zM286 658q-65 0 -96 -25.5t-43 -88t-12 -193.5t12 -194t43.5 -88.5t95.5 -25.5t95.5 25.5t43.5 88.5t12 194t-12 193.5t-43 88t-96 25.5z" />
    <glyph glyph-name="Oacute" unicode="&#xd3;" horiz-adv-x="572" 
d="M380 853l22 -13q9 -5 2 -12l-93 -73q-9 -7 -25 -7h-19q-14 0 -4 10l92 91q8 12 25 4zM286 708q54 0 89.5 -12t59 -36t36 -68.5t17 -99.5t4.5 -140q0 -107 -7 -170t-29.5 -109t-62.5 -63.5t-107 -17.5q-54 0 -90 12.5t-59.5 36.5t-36 69.5t-17 100.5t-4.5 141
q0 85 4.5 140t17 99.5t36 68.5t59.5 36t90 12zM286 658q-65 0 -96 -25.5t-43 -88t-12 -193.5t12 -194t43.5 -88.5t95.5 -25.5t95.5 25.5t43.5 88.5t12 194t-12 193.5t-43 88t-96 25.5z" />
    <glyph glyph-name="Ocircumflex" unicode="&#xd4;" horiz-adv-x="572" 
d="M291 838l89 -57q5 -2 2 -7l-10 -22q-3 -7 -9 -4l-72 45q-5 4 -12 0l-72 -45q-7 -3 -9 4l-11 22q-2 5 3 7l89 57q7 3 12 0zM286 708q54 0 89.5 -12t59 -36t36 -68.5t17 -99.5t4.5 -140q0 -107 -7 -170t-29.5 -109t-62.5 -63.5t-107 -17.5q-54 0 -90 12.5t-59.5 36.5
t-36 69.5t-17 100.5t-4.5 141q0 85 4.5 140t17 99.5t36 68.5t59.5 36t90 12zM286 658q-65 0 -96 -25.5t-43 -88t-12 -193.5t12 -194t43.5 -88.5t95.5 -25.5t95.5 25.5t43.5 88.5t12 194t-12 193.5t-43 88t-96 25.5z" />
    <glyph glyph-name="Otilde" unicode="&#xd5;" horiz-adv-x="572" 
d="M382 840q18 0 18 -10q-14 -77 -66 -77q-22 0 -51 20.5t-42 20.5q-12 0 -19 -6.5t-14 -25.5q-5 -11 -20 -11q-10 0 -13.5 2t-2.5 7q14 72 64 72q22 0 52 -20t41 -20q25 0 34 38q4 10 19 10zM286 708q54 0 89.5 -12t59 -36t36 -68.5t17 -99.5t4.5 -140q0 -107 -7 -170
t-29.5 -109t-62.5 -63.5t-107 -17.5q-54 0 -90 12.5t-59.5 36.5t-36 69.5t-17 100.5t-4.5 141q0 85 4.5 140t17 99.5t36 68.5t59.5 36t90 12zM286 658q-65 0 -96 -25.5t-43 -88t-12 -193.5t12 -194t43.5 -88.5t95.5 -25.5t95.5 25.5t43.5 88.5t12 194t-12 193.5t-43 88
t-96 25.5z" />
    <glyph glyph-name="Odieresis" unicode="&#xd6;" horiz-adv-x="572" 
d="M216 848h32q8 0 8 -8v-82q0 -8 -8 -8h-32q-7 0 -7 8v82q0 8 7 8zM324 848h32q8 0 8 -8v-82q0 -8 -8 -8h-32q-7 0 -7 8v82q0 8 7 8zM286 708q54 0 89.5 -12t59 -36t36 -68.5t17 -99.5t4.5 -140q0 -107 -7 -170t-29.5 -109t-62.5 -63.5t-107 -17.5q-54 0 -90 12.5
t-59.5 36.5t-36 69.5t-17 100.5t-4.5 141q0 85 4.5 140t17 99.5t36 68.5t59.5 36t90 12zM286 658q-65 0 -96 -25.5t-43 -88t-12 -193.5t12 -194t43.5 -88.5t95.5 -25.5t95.5 25.5t43.5 88.5t12 194t-12 193.5t-43 88t-96 25.5z" />
    <glyph glyph-name="multiply" unicode="&#xd7;" horiz-adv-x="433" 
d="M83 378l22 21q4 6 10 0l100 -100q5 -5 10 0l99 98q5 6 10 1l21 -21q5 -5 0 -11l-98 -98q-5 -5 0 -10l102 -103q6 -4 0 -10l-21 -22q-5 -5 -10 0l-103 103q-5 5 -10 0l-99 -99q-4 -4 -10 0l-21 22q-5 5 0 10l98 98q5 5 1 11l-100 100q-6 6 -1 10z" />
    <glyph glyph-name="Oslash" unicode="&#xd8;" horiz-adv-x="564" 
d="M488 783l-48 -129q30 -38 41 -108.5t11 -193.5q0 -107 -7 -170t-29.5 -109t-62.5 -63.5t-107 -17.5q-58 0 -94 14l-37 -98q-4 -7 -13 -7h-29q-9 0 -6 7l46 119q-44 34 -59 108.5t-15 216.5q0 85 4.5 140t17 99.5t36 68.5t59.5 36t90 12q75 0 117 -23l38 99q1 7 9 7h33
q7 0 5 -8zM286 43q64 0 95.5 25.5t43.5 88.5t12 194t-12 193.5t-43 88t-96 25.5t-96 -25.5t-43 -88t-12 -193.5t12 -194t43.5 -88.5t95.5 -25.5z" />
    <glyph glyph-name="Ugrave" unicode="&#xd9;" horiz-adv-x="584" 
d="M177 844l33 14q10 3 17 -5l83 -90q10 -13 -4 -13h-17q-12 0 -21 8l-93 74q-7 7 2 12zM440 700h38q7 0 7 -7v-484q0 -124 -39 -170t-154 -46t-154 46t-39 170v484q0 7 7 7h38q8 0 8 -7v-488q0 -100 28 -131.5t112 -31.5t112.5 31.5t28.5 131.5v488q0 7 7 7z" />
    <glyph glyph-name="Uacute" unicode="&#xda;" horiz-adv-x="584" 
d="M382 853l23 -13q8 -5 1 -12l-92 -73q-11 -7 -26 -7h-19q-12 0 -4 10l92 91q9 11 25 4zM440 700h38q7 0 7 -7v-484q0 -124 -39 -170t-154 -46t-154 46t-39 170v484q0 7 7 7h38q8 0 8 -7v-488q0 -100 28 -131.5t112 -31.5t112.5 31.5t28.5 131.5v488q0 7 7 7z" />
    <glyph glyph-name="Ucircumflex" unicode="&#xdb;" horiz-adv-x="584" 
d="M293 838l89 -57q5 -2 3 -7l-11 -22q-1 -7 -9 -4l-72 45q-5 4 -11 0l-73 -45q-7 -3 -9 4l-10 22q-2 5 2 7l90 57q6 3 11 0zM440 700h38q7 0 7 -7v-484q0 -124 -39 -170t-154 -46t-154 46t-39 170v484q0 7 7 7h38q8 0 8 -7v-488q0 -100 28 -131.5t112 -31.5t112.5 31.5
t28.5 131.5v488q0 7 7 7z" />
    <glyph glyph-name="Udieresis" unicode="&#xdc;" horiz-adv-x="584" 
d="M219 848h31q8 0 8 -8v-82q0 -8 -8 -8h-31q-8 0 -8 8v82q0 8 8 8zM327 848h31q8 0 8 -8v-82q0 -8 -8 -8h-31q-8 0 -8 8v82q0 8 8 8zM440 700h38q7 0 7 -7v-484q0 -124 -39 -170t-154 -46t-154 46t-39 170v484q0 7 7 7h38q8 0 8 -7v-488q0 -100 28 -131.5t112 -31.5
t112.5 31.5t28.5 131.5v488q0 7 7 7z" />
    <glyph glyph-name="Yacute" unicode="&#xdd;" horiz-adv-x="528" 
d="M358 853l23 -13q9 -5 1 -12l-92 -73q-11 -7 -25 -7h-20q-12 0 -4 10l92 91q9 11 25 4zM400 700h39q7 0 7 -7v-192q0 -36 -23 -63l-116 -141q-13 -18 -13 -35v-255q0 -7 -7 -7h-38q-7 0 -7 7v255q0 20 -14 35l-124 141q-22 24 -22 63v192q0 7 7 7h39q7 0 7 -7v-191
q0 -20 12 -32l112 -133q10 -11 18 1l105 132q12 16 12 34v189q0 7 6 7z" />
    <glyph glyph-name="Thorn" unicode="&#xde;" horiz-adv-x="471" 
d="M105 700h38q8 0 8 -7v-137q0 -5 4 -5h115q86 0 125.5 -39t39.5 -134t-42 -140t-142 -45h-96q-4 0 -4 -4v-183q0 -6 -7 -6h-40q-6 0 -6 6v687q0 7 7 7zM272 502h-115q-6 0 -6 -6v-249q0 -5 5 -5h97q73 0 100.5 31.5t27.5 103.5q0 68 -25 96.5t-84 28.5z" />
    <glyph glyph-name="germandbls" unicode="&#xdf;" horiz-adv-x="493" 
d="M79 7v527q0 89 37 131.5t132 42.5q157 0 157 -126q0 -76 -67 -116l-51 -32q-36 -22 -42 -34q-7 -12 -7 -32q0 -24 10.5 -41t42.5 -32l62 -30q57 -28 75 -51.5t18 -79.5q0 -79 -37.5 -110.5t-125.5 -31.5q-61 0 -95 9q-7 1 -10 4t-3 4.5v6.5l2 22q1 8 7 8q3 0 18.5 -2
t38.5 -4t43 -2q64 0 88 21.5t24 74.5q0 28 -9 44t-20 23t-46 25l-59 31q-37 19 -54 42.5t-17 64.5q0 34 12 52t47 40l49 29q30 19 43 36.5t13 51.5q0 88 -109 88q-66 0 -91.5 -31t-25.5 -99v-524q0 -7 -8 -7h-34q-8 0 -8 7z" />
    <glyph glyph-name="agrave" unicode="&#xe0;" horiz-adv-x="452" 
d="M140 704h42q6 0 10 -8l52 -112q4 -12 -6 -12h-16q-11 0 -15 8l-71 116q-4 8 4 8zM87 461l-3 18q0 13 12 17q50 15 111 15q93 0 130.5 -41t37.5 -156v-307q0 -7 -7 -7h-21q-10 0 -11 9l-5 46q-1 1 -3 1t-7 -6.5t-14.5 -16t-23.5 -19t-39 -16t-56 -6.5q-70 0 -101 38
t-31 123q0 78 37 112.5t114 34.5h105q13 0 13 13q0 92 -26.5 122t-96.5 30q-29 0 -68 -7l-39 -6q-8 0 -8 9zM315 258h-97q-61 0 -87.5 -23.5t-26.5 -81.5q0 -68 22.5 -92.5t71.5 -24.5q64 0 96 36t32 99v75q0 12 -11 12z" />
    <glyph glyph-name="aacute" unicode="&#xe1;" horiz-adv-x="452" 
d="M260 704h44q5 0 6.5 -3t-0.5 -6l-71 -116q-3 -7 -12 -7h-21q-12 0 -7 11l51 114q2 7 10 7zM87 461l-3 18q0 13 12 17q50 15 111 15q93 0 130.5 -41t37.5 -156v-307q0 -7 -7 -7h-21q-10 0 -11 9l-5 46q-1 1 -3 1t-7 -6.5t-14.5 -16t-23.5 -19t-39 -16t-56 -6.5
q-70 0 -101 38t-31 123q0 78 37 112.5t114 34.5h105q13 0 13 13q0 92 -26.5 122t-96.5 30q-29 0 -68 -7l-39 -6q-8 0 -8 9zM315 258h-97q-61 0 -87.5 -23.5t-26.5 -81.5q0 -68 22.5 -92.5t71.5 -24.5q64 0 96 36t32 99v75q0 12 -11 12z" />
    <glyph glyph-name="acircumflex" unicode="&#xe2;" horiz-adv-x="452" 
d="M230 684l89 -57q5 -2 3 -6l-11 -23q-1 -6 -9 -3l-72 45q-6 3 -12 0l-72 -45q-7 -3 -9 3l-10 23q-2 4 2 6l90 57q5 4 11 0zM87 461l-3 18q0 13 12 17q50 15 111 15q93 0 130.5 -41t37.5 -156v-307q0 -7 -7 -7h-21q-10 0 -11 9l-5 46q-1 1 -3 1t-7 -6.5t-14.5 -16
t-23.5 -19t-39 -16t-56 -6.5q-70 0 -101 38t-31 123q0 78 37 112.5t114 34.5h105q13 0 13 13q0 92 -26.5 122t-96.5 30q-29 0 -68 -7l-39 -6q-8 0 -8 9zM315 258h-97q-61 0 -87.5 -23.5t-26.5 -81.5q0 -68 22.5 -92.5t71.5 -24.5q64 0 96 36t32 99v75q0 12 -11 12z" />
    <glyph glyph-name="atilde" unicode="&#xe3;" horiz-adv-x="452" 
d="M319 682q11 0 14.5 -2.5t2.5 -7.5q-14 -77 -65 -77q-22 0 -51.5 20.5t-41.5 20.5q-13 0 -19 -6t-14 -26q-5 -11 -21 -11t-16 9q14 72 64 72q22 0 52.5 -20t41.5 -20q24 0 34 38q2 6 5 8t14 2zM87 461l-3 18q0 13 12 17q50 15 111 15q93 0 130.5 -41t37.5 -156v-307
q0 -7 -7 -7h-21q-10 0 -11 9l-5 46q-1 1 -3 1t-7 -6.5t-14.5 -16t-23.5 -19t-39 -16t-56 -6.5q-70 0 -101 38t-31 123q0 78 37 112.5t114 34.5h105q13 0 13 13q0 92 -26.5 122t-96.5 30q-29 0 -68 -7l-39 -6q-8 0 -8 9zM315 258h-97q-61 0 -87.5 -23.5t-26.5 -81.5
q0 -68 22.5 -92.5t71.5 -24.5q64 0 96 36t32 99v75q0 12 -11 12z" />
    <glyph glyph-name="adieresis" unicode="&#xe4;" horiz-adv-x="452" 
d="M161 704h30q7 0 7 -8v-110q0 -8 -7 -8h-30q-7 0 -7 8v110q0 8 7 8zM263 704h30q7 0 7 -8v-110q0 -8 -7 -8h-30q-8 0 -8 8v110q0 8 8 8zM87 461l-3 18q0 13 12 17q50 15 111 15q93 0 130.5 -41t37.5 -156v-307q0 -7 -7 -7h-21q-10 0 -11 9l-5 46q-1 1 -3 1t-7 -6.5
t-14.5 -16t-23.5 -19t-39 -16t-56 -6.5q-70 0 -101 38t-31 123q0 78 37 112.5t114 34.5h105q13 0 13 13q0 92 -26.5 122t-96.5 30q-29 0 -68 -7l-39 -6q-8 0 -8 9zM315 258h-97q-61 0 -87.5 -23.5t-26.5 -81.5q0 -68 22.5 -92.5t71.5 -24.5q64 0 96 36t32 99v75q0 12 -11 12
z" />
    <glyph glyph-name="aring" unicode="&#xe5;" horiz-adv-x="452" 
d="M227 691q63 0 63 -67t-63 -67t-63 67t63 67zM227 663q-32 0 -32 -39q0 -37 32 -37t32 37q0 39 -32 39zM87 461l-3 18q0 13 12 17q50 15 111 15q93 0 130.5 -41t37.5 -156v-307q0 -7 -7 -7h-21q-10 0 -11 9l-5 46q-1 1 -3 1t-7 -6.5t-14.5 -16t-23.5 -19t-39 -16t-56 -6.5
q-70 0 -101 38t-31 123q0 78 37 112.5t114 34.5h105q13 0 13 13q0 92 -26.5 122t-96.5 30q-29 0 -68 -7l-39 -6q-8 0 -8 9zM315 258h-97q-61 0 -87.5 -23.5t-26.5 -81.5q0 -68 22.5 -92.5t71.5 -24.5q64 0 96 36t32 99v75q0 12 -11 12z" />
    <glyph glyph-name="ae" unicode="&#xe6;" horiz-adv-x="698" 
d="M81 462l-2 17q-1 12 13 18q42 14 101 14q122 0 154 -91q3 -6 8 -1q34 92 140 92q84 0 119 -45.5t35 -163.5v-27q0 -29 -29 -29h-239q-5 0 -5 -5v-55q0 -85 31.5 -116.5t99.5 -31.5q32 0 74 9l42 9q8 0 8 -8l3 -17q3 -14 -12 -19q-45 -19 -120 -19q-116 0 -152 87
q-1 2 -2.5 2t-2.5 -2q-44 -87 -152 -87q-73 0 -105 34t-32 118q0 82 28.5 114t108.5 32h124q8 0 8 8v26q0 141 -133 141q-26 0 -64 -7t-40 -7q-6 0 -7 10zM382 288h215q7 0 5 6q0 104 -23 138t-84 34q-119 0 -119 -144v-28q0 -6 6 -6zM319 249h-95q-40 0 -58.5 -2t-35 -12.5
t-21.5 -31.5t-5 -60q0 -63 21.5 -85t72.5 -22q127 0 127 133v73q0 7 -6 7z" />
    <glyph glyph-name="ccedilla" unicode="&#xe7;" horiz-adv-x="398" 
d="M332 38l2 -19q1 -14 -12 -18q-28 -6 -61 -8l-33 -107q-3 -10 -13 -10h-25q-9 0 -6 9l27 108q-88 5 -121.5 64.5t-33.5 195.5q0 143 36.5 200.5t131.5 57.5q61 0 97 -10q14 -4 13 -18l-2 -20q0 -8 -7 -8q-1 0 -34.5 5t-57.5 5q-74 0 -99.5 -45t-25.5 -167t26.5 -168
t104.5 -46q21 0 53 3.5t33 3.5q7 0 7 -8z" />
    <glyph glyph-name="egrave" unicode="&#xe8;" horiz-adv-x="437" 
d="M146 704h41q7 0 10 -8l52 -112q6 -12 -6 -12h-16q-10 0 -15 8l-71 116q-4 8 5 8zM370 48l3 -17q2 -14 -12 -19q-43 -19 -118 -19q-71 0 -109 20.5t-57.5 77t-19.5 162.5t19.5 163t54.5 76t98 19q87 0 123 -49t36 -180v-18q0 -28 -29 -28h-248q-4 0 -4 -4v-10
q0 -79 15.5 -119t43.5 -52.5t82 -12.5q25 0 51 4.5t43 9t19 4.5q9 0 9 -8zM111 277h227q3 0 3 4q0 79 -13.5 120t-35.5 53t-62 12q-46 0 -70.5 -12.5t-38.5 -53t-14 -118.5q0 -5 4 -5z" />
    <glyph glyph-name="eacute" unicode="&#xe9;" horiz-adv-x="437" 
d="M265 704h44q5 0 6.5 -3t-0.5 -6l-71 -116q-4 -7 -12 -7h-21q-12 0 -6 11l50 114q2 7 10 7zM370 48l3 -17q2 -14 -12 -19q-43 -19 -118 -19q-71 0 -109 20.5t-57.5 77t-19.5 162.5t19.5 163t54.5 76t98 19q87 0 123 -49t36 -180v-18q0 -28 -29 -28h-248q-4 0 -4 -4v-10
q0 -79 15.5 -119t43.5 -52.5t82 -12.5q25 0 51 4.5t43 9t19 4.5q9 0 9 -8zM111 277h227q3 0 3 4q0 79 -13.5 120t-35.5 53t-62 12q-46 0 -70.5 -12.5t-38.5 -53t-14 -118.5q0 -5 4 -5z" />
    <glyph glyph-name="ecircumflex" unicode="&#xea;" horiz-adv-x="437" 
d="M235 684l89 -57q5 -2 3 -6l-11 -23q-2 -6 -9 -3l-72 45q-5 3 -11 0l-73 -45q-7 -3 -9 3l-10 23q-2 4 2 6l90 57q6 4 11 0zM370 48l3 -17q2 -14 -12 -19q-43 -19 -118 -19q-71 0 -109 20.5t-57.5 77t-19.5 162.5t19.5 163t54.5 76t98 19q87 0 123 -49t36 -180v-18
q0 -28 -29 -28h-248q-4 0 -4 -4v-10q0 -79 15.5 -119t43.5 -52.5t82 -12.5q25 0 51 4.5t43 9t19 4.5q9 0 9 -8zM111 277h227q3 0 3 4q0 79 -13.5 120t-35.5 53t-62 12q-46 0 -70.5 -12.5t-38.5 -53t-14 -118.5q0 -5 4 -5z" />
    <glyph glyph-name="edieresis" unicode="&#xeb;" horiz-adv-x="437" 
d="M166 704h30q8 0 8 -8v-110q0 -8 -8 -8h-30q-7 0 -7 8v110q0 8 7 8zM268 704h30q8 0 8 -8v-110q0 -8 -8 -8h-30q-7 0 -7 8v110q0 8 7 8zM370 48l3 -17q2 -14 -12 -19q-43 -19 -118 -19q-71 0 -109 20.5t-57.5 77t-19.5 162.5t19.5 163t54.5 76t98 19q87 0 123 -49t36 -180
v-18q0 -28 -29 -28h-248q-4 0 -4 -4v-10q0 -79 15.5 -119t43.5 -52.5t82 -12.5q25 0 51 4.5t43 9t19 4.5q9 0 9 -8zM111 277h227q3 0 3 4q0 79 -13.5 120t-35.5 53t-62 12q-46 0 -70.5 -12.5t-38.5 -53t-14 -118.5q0 -5 4 -5z" />
    <glyph glyph-name="igrave" unicode="&#xec;" horiz-adv-x="204" 
d="M15 704h42q6 0 10 -8l52 -112q4 -12 -6 -12h-16q-11 0 -15 8l-71 116q-6 8 4 8zM85 504h34q8 0 8 -9v-487q0 -8 -8 -8h-35q-7 0 -7 8v487q0 9 8 9z" />
    <glyph glyph-name="iacute" unicode="&#xed;" horiz-adv-x="204" 
d="M135 704h44q5 0 6.5 -3t-1.5 -6l-70 -116q-4 -7 -12 -7h-21q-12 0 -7 11l51 114q2 7 10 7zM85 504h34q8 0 8 -9v-487q0 -8 -8 -8h-35q-7 0 -7 8v487q0 9 8 9z" />
    <glyph glyph-name="icircumflex" unicode="&#xee;" horiz-adv-x="204" 
d="M105 684l89 -57q5 -2 3 -6l-11 -23q-2 -6 -9 -3l-72 45q-6 3 -12 0l-72 -45q-7 -3 -9 3l-11 23q-2 4 3 6l90 57q6 4 11 0zM85 504h34q8 0 8 -9v-487q0 -8 -8 -8h-35q-7 0 -7 8v487q0 9 8 9z" />
    <glyph glyph-name="idieresis" unicode="&#xef;" horiz-adv-x="204" 
d="M36 704h30q7 0 7 -8v-110q0 -8 -7 -8h-30q-8 0 -8 8v110q0 8 8 8zM138 704h30q7 0 7 -8v-110q0 -8 -7 -8h-30q-8 0 -8 8v110q0 8 8 8zM85 504h34q8 0 8 -9v-487q0 -8 -8 -8h-35q-7 0 -7 8v487q0 9 8 9z" />
    <glyph glyph-name="eth" unicode="&#xf0;" horiz-adv-x="478" 
d="M426 643l2 -21q1 -7 -6 -8l-66 -17q36 -66 36 -166v-261q0 -96 -32 -132q-37 -45 -138 -45q-92 0 -128.5 53.5t-36.5 201.5q0 105 18.5 162t52 77t93.5 20q25 0 46.5 -4.5t33.5 -11.5t20.5 -14t13 -11.5t5.5 -4.5q3 0 3 4q0 63 -35 119l-113 -30q-7 -1 -7 5l-2 20
q-2 6 6 8l97 26q-35 44 -75 71q-13 8 0 15l15 11q12 8 26 -1q52 -41 83 -83l81 22q7 1 7 -5zM344 174v171q0 55 -24 83q-29 33 -93 33q-44 0 -68 -14t-38.5 -61.5t-14.5 -137.5q0 -89 12.5 -134.5t35.5 -59.5t68 -14q75 0 99 31q23 27 23 103z" />
    <glyph glyph-name="ntilde" unicode="&#xf1;" horiz-adv-x="493" 
d="M338 681q12 0 15 -2t3 -7q-14 -77 -66 -77q-22 0 -51.5 20t-41.5 20t-19 -6t-14 -25q-5 -12 -20 -12q-10 0 -13.5 2.5t-2.5 7.5q14 72 64 72q22 0 52 -20t41 -20q24 0 34 37q4 10 19 10zM77 7v327q0 100 35 138.5t135 38.5t135 -38.5t35 -138.5v-327q0 -7 -8 -7h-35
q-7 0 -7 7v328q0 79 -26 104.5t-94 25.5t-94 -25.5t-26 -104.5v-328q0 -7 -8 -7h-35q-7 0 -7 7z" />
    <glyph glyph-name="ograve" unicode="&#xf2;" 
d="M146 703h41q7 0 10 -7l53 -113q4 -11 -7 -11h-15q-11 0 -15 7l-72 117q-3 7 5 7zM230 511q101 0 137 -55t36 -203q0 -149 -36 -205t-137 -56t-137 56t-36 205q0 148 36 203t137 55zM230 465q-72 0 -97.5 -42.5t-25.5 -169.5t25.5 -170.5t97.5 -43.5q71 0 96.5 43
t25.5 171q0 127 -25 169.5t-97 42.5z" />
    <glyph glyph-name="oacute" unicode="&#xf3;" 
d="M265 703h45q12 0 5 -9l-71 -116q-4 -6 -12 -6h-20q-14 0 -7 10l50 115q3 6 10 6zM230 511q101 0 137 -55t36 -203q0 -149 -36 -205t-137 -56t-137 56t-36 205q0 148 36 203t137 55zM230 465q-72 0 -97.5 -42.5t-25.5 -169.5t25.5 -170.5t97.5 -43.5q71 0 96.5 43
t25.5 171q0 127 -25 169.5t-97 42.5z" />
    <glyph glyph-name="ocircumflex" unicode="&#xf4;" 
d="M235 684l90 -57q3 -3 2 -7l-11 -23q-2 -6 -8 -3l-73 45q-4 4 -11 0l-72 -45q-7 -3 -9 3l-11 23q-1 4 3 7l89 57q6 3 11 0zM230 511q101 0 137 -55t36 -203q0 -149 -36 -205t-137 -56t-137 56t-36 205q0 148 36 203t137 55zM230 465q-72 0 -97.5 -42.5t-25.5 -169.5
t25.5 -170.5t97.5 -43.5q71 0 96.5 43t25.5 171q0 127 -25 169.5t-97 42.5z" />
    <glyph glyph-name="otilde" unicode="&#xf5;" 
d="M324 681q11 0 14.5 -2t2.5 -7q-13 -77 -65 -77q-22 0 -51.5 20t-41.5 20t-19 -6t-14 -25q-5 -12 -20 -12q-10 0 -13.5 2.5t-2.5 7.5q14 72 63 72q23 0 53 -20t41 -20q24 0 34 37q4 10 19 10zM230 511q101 0 137 -55t36 -203q0 -149 -36 -205t-137 -56t-137 56t-36 205
q0 148 36 203t137 55zM230 465q-72 0 -97.5 -42.5t-25.5 -169.5t25.5 -170.5t97.5 -43.5q71 0 96.5 43t25.5 171q0 127 -25 169.5t-97 42.5z" />
    <glyph glyph-name="odieresis" unicode="&#xf6;" 
d="M167 703h29q8 0 8 -8v-109q0 -8 -8 -8h-29q-8 0 -8 8v109q0 8 8 8zM269 703h29q8 0 8 -8v-109q0 -8 -8 -8h-29q-8 0 -8 8v109q0 8 8 8zM230 511q101 0 137 -55t36 -203q0 -149 -36 -205t-137 -56t-137 56t-36 205q0 148 36 203t137 55zM230 465q-72 0 -97.5 -42.5
t-25.5 -169.5t25.5 -170.5t97.5 -43.5q71 0 96.5 43t25.5 171q0 127 -25 169.5t-97 42.5z" />
    <glyph glyph-name="divide" unicode="&#xf7;" horiz-adv-x="545" 
d="M258 500h30q8 0 8 -8v-123q0 -8 -8 -8h-30q-8 0 -8 8v123q0 8 8 8zM84 270h377q8 0 8 -7v-30q0 -7 -8 -7h-377q-7 0 -7 6v31q0 7 7 7zM258 139h30q8 0 8 -8v-123q0 -8 -8 -8h-30q-8 0 -8 8v123q0 8 8 8z" />
    <glyph glyph-name="oslash" unicode="&#xf8;" horiz-adv-x="456" 
d="M308 598h31q9 0 5 -7l-27 -96q47 -20 65 -75t18 -168q0 -148 -34.5 -204t-136.5 -56q-25 0 -48 5l-25 -88q-3 -7 -10 -7h-30q-7 0 -5 7l30 98q-48 20 -66.5 76.5t-18.5 168.5q0 147 34 203t132 56q26 0 52 -4l24 84q4 7 10 7zM228 465q-71 0 -96 -42t-25 -170
q0 -129 25.5 -171.5t95.5 -42.5t95.5 42.5t25.5 171.5q0 128 -25 170t-96 42z" />
    <glyph glyph-name="ugrave" unicode="&#xf9;" horiz-adv-x="477" 
d="M151 703h41q7 0 10 -7l53 -113q5 -12 -6 -12h-16q-10 0 -15 8l-71 117q-2 2 -1 4.5t5 2.5zM358 504h34q8 0 8 -9v-318q0 -106 -34 -145.5t-127 -39.5t-127.5 39.5t-34.5 145.5v318q0 9 8 9h33q9 0 9 -9v-326q0 -79 24 -104.5t88 -25.5t87.5 25.5t23.5 104.5v326q0 9 8 9z
" />
    <glyph glyph-name="uacute" unicode="&#xfa;" horiz-adv-x="477" 
d="M271 703h44q5 0 6.5 -3t-1.5 -6l-70 -116q-4 -7 -12 -7h-21q-12 0 -7 11l51 115q1 6 10 6zM358 504h34q8 0 8 -9v-318q0 -106 -34 -145.5t-127 -39.5t-127.5 39.5t-34.5 145.5v318q0 9 8 9h33q9 0 9 -9v-326q0 -79 24 -104.5t88 -25.5t87.5 25.5t23.5 104.5v326q0 9 8 9z
" />
    <glyph glyph-name="ucircumflex" unicode="&#xfb;" horiz-adv-x="477" 
d="M241 684l89 -57q4 -3 3 -7l-11 -23q-2 -6 -9 -3l-72 45q-6 3 -12 0l-72 -45q-7 -3 -9 3l-11 23q-1 3 3 7l89 57q7 3 12 0zM358 504h34q8 0 8 -9v-318q0 -106 -34 -145.5t-127 -39.5t-127.5 39.5t-34.5 145.5v318q0 9 8 9h33q9 0 9 -9v-326q0 -79 24 -104.5t88 -25.5
t87.5 25.5t23.5 104.5v326q0 9 8 9z" />
    <glyph glyph-name="udieresis" unicode="&#xfc;" horiz-adv-x="477" 
d="M172 703h30q7 0 7 -8v-109q0 -8 -7 -8h-30q-8 0 -8 8v109q0 8 8 8zM274 703h29q8 0 8 -8v-109q0 -8 -8 -8h-29q-8 0 -8 8v109q0 8 8 8zM358 504h34q8 0 8 -9v-318q0 -106 -34 -145.5t-127 -39.5t-127.5 39.5t-34.5 145.5v318q0 9 8 9h33q9 0 9 -9v-326q0 -79 24 -104.5
t88 -25.5t87.5 25.5t23.5 104.5v326q0 9 8 9z" />
    <glyph glyph-name="yacute" unicode="&#xfd;" horiz-adv-x="489" 
d="M280 703h44q5 0 6.5 -3t-0.5 -6l-71 -116q-4 -6 -12 -6h-21q-12 0 -7 10l51 115q2 6 10 6zM365 504h35q7 0 7 -8v-498q0 -93 -35 -136t-133 -43q-71 0 -115 13q-14 4 -13 16l2 23q2 7 8 7q3 0 21 -3t44.5 -6t48.5 -3q76 0 99.5 31t23.5 100v84q0 3 -3 1q-41 -41 -120 -41
q-85 0 -119 38t-34 137v280q0 8 8 8h35q7 0 7 -8v-277q0 -79 24.5 -105t88.5 -26q53 0 82.5 22t29.5 55v331q0 8 8 8z" />
    <glyph glyph-name="thorn" unicode="&#xfe;" horiz-adv-x="467" 
d="M84 700h36q6 0 6 -7v-226q0 -5 5 -3q41 47 121 47q88 0 123 -53t35 -198q0 -155 -37 -211.5t-128 -56.5q-63 0 -114 41q-5 3 -5 -4v-194q0 -7 -6 -7h-36q-7 0 -7 7v858q0 7 7 7zM127 338v-220q0 -28 19 -46q35 -33 92 -33q46 0 70 14t38.5 62.5t14.5 143.5q0 88 -13 133
t-36 59t-68 14q-68 0 -95 -37q-22 -29 -22 -90z" />
    <glyph glyph-name="ydieresis" unicode="&#xff;" horiz-adv-x="489" 
d="M181 703h30q7 0 7 -8v-109q0 -8 -7 -8h-30q-7 0 -7 8v109q0 8 7 8zM283 703h30q7 0 7 -8v-109q0 -8 -7 -8h-30q-8 0 -8 8v109q0 8 8 8zM365 504h35q7 0 7 -8v-498q0 -93 -35 -136t-133 -43q-71 0 -115 13q-14 4 -13 16l2 23q2 7 8 7q3 0 21 -3t44.5 -6t48.5 -3
q76 0 99.5 31t23.5 100v84q0 3 -3 1q-41 -41 -120 -41q-85 0 -119 38t-34 137v280q0 8 8 8h35q7 0 7 -8v-277q0 -79 24.5 -105t88.5 -26q53 0 82.5 22t29.5 55v331q0 8 8 8z" />
    <glyph glyph-name="Amacron" unicode="&#x100;" horiz-adv-x="545" 
d="M166 824h209q7 0 7 -7v-28q0 -8 -7 -8h-209q-7 0 -7 8v28q0 7 7 7zM117 551l123 137q16 17 33 17t33 -17l122 -137q21 -23 21 -55v-488q0 -8 -8 -8h-36q-8 0 -8 8v204q0 6 -7 6h-236q-6 0 -6 -6v-204q0 -8 -8 -8h-36q-8 0 -8 8v488q0 32 21 55zM387 521l-107 122
q-3 5 -7 5q-2 0 -7 -5l-108 -122q-10 -11 -10 -26v-222q0 -6 6 -6h236q7 0 7 6v222q0 15 -10 26z" />
    <glyph glyph-name="amacron" unicode="&#x101;" horiz-adv-x="452" 
d="M120 659h209q8 0 8 -8v-27q0 -8 -8 -8h-209q-7 0 -7 8v27q0 8 7 8zM87 461l-3 18q0 13 12 17q50 15 111 15q93 0 130.5 -41t37.5 -156v-307q0 -7 -7 -7h-21q-10 0 -11 9l-5 46q-1 1 -3 1t-7 -6.5t-14.5 -16t-23.5 -19t-39 -16t-56 -6.5q-70 0 -101 38t-31 123
q0 78 37 112.5t114 34.5h105q13 0 13 13q0 92 -26.5 122t-96.5 30q-29 0 -68 -7l-39 -6q-8 0 -8 9zM315 258h-97q-61 0 -87.5 -23.5t-26.5 -81.5q0 -68 22.5 -92.5t71.5 -24.5q64 0 96 36t32 99v75q0 12 -11 12z" />
    <glyph glyph-name="Abreve" unicode="&#x102;" horiz-adv-x="545" 
d="M349 843h20q6 0 6 -6q-3 -76 -102 -76q-102 0 -102 76q0 6 6 6h20q7 0 8 -7q4 -20 19.5 -29t48.5 -9t48 8.5t19 29.5q1 7 9 7zM117 551l123 137q16 17 33 17t33 -17l122 -137q21 -23 21 -55v-488q0 -8 -8 -8h-36q-8 0 -8 8v204q0 6 -7 6h-236q-6 0 -6 -6v-204q0 -8 -8 -8
h-36q-8 0 -8 8v488q0 32 21 55zM387 521l-107 122q-3 5 -7 5q-2 0 -7 -5l-108 -122q-10 -11 -10 -26v-222q0 -6 6 -6h236q7 0 7 6v222q0 15 -10 26z" />
    <glyph glyph-name="abreve" unicode="&#x103;" horiz-adv-x="452" 
d="M303 662h20q7 0 7 -5q-4 -76 -103 -76q-101 0 -101 76q0 5 5 5h20q7 0 8 -7q5 -20 20 -28.5t48 -8.5t48 8.5t20 28.5q1 7 8 7zM87 461l-3 18q0 13 12 17q50 15 111 15q93 0 130.5 -41t37.5 -156v-307q0 -7 -7 -7h-21q-10 0 -11 9l-5 46q-1 1 -3 1t-7 -6.5t-14.5 -16
t-23.5 -19t-39 -16t-56 -6.5q-70 0 -101 38t-31 123q0 78 37 112.5t114 34.5h105q13 0 13 13q0 92 -26.5 122t-96.5 30q-29 0 -68 -7l-39 -6q-8 0 -8 9zM315 258h-97q-61 0 -87.5 -23.5t-26.5 -81.5q0 -68 22.5 -92.5t71.5 -24.5q64 0 96 36t32 99v75q0 12 -11 12z" />
    <glyph glyph-name="Aogonek" unicode="&#x104;" horiz-adv-x="545" 
d="M441 0h-9q-69 -24 -69 -94q0 -57 40 -57q12 0 24.5 1t14.5 1q8 0 8 -8v-9q0 -8 -11 -14q-16 -8 -49 -8q-36 0 -54 19t-18 66q0 40 18.5 67t60.5 46v202q0 6 -7 6h-236q-6 0 -6 -6v-204q0 -8 -8 -8h-36q-8 0 -8 8v488q0 32 21 55l123 137q16 17 33 17t33 -17l122 -137
q21 -23 21 -55v-488q0 -8 -8 -8zM154 267h236q7 0 7 6v222q0 15 -10 26l-107 122q-3 5 -7 5q-2 0 -7 -5l-108 -122q-10 -11 -10 -26v-222q0 -6 6 -6z" />
    <glyph glyph-name="aogonek" unicode="&#x105;" horiz-adv-x="452" 
d="M87 461l-3 18q0 13 12 17q50 15 111 15q93 0 130.5 -41t37.5 -156v-307q0 -5 -6 -7q-44 -13 -63 -36t-19 -62q0 -33 10 -45.5t30 -12.5q11 0 23.5 1.5t14.5 1.5q8 0 8 -8v-10q0 -8 -10 -13q-16 -8 -50 -8q-36 0 -54 19t-18 66q0 43 22.5 71t72.5 49l-5 42q-1 1 -3 1
t-7 -6.5t-14.5 -16t-23.5 -19t-39 -16t-56 -6.5q-70 0 -101 38t-31 123q0 78 37 112.5t114 34.5h105q13 0 13 13q0 92 -26.5 122t-96.5 30q-29 0 -68 -7l-39 -6q-8 0 -8 9zM326 171v75q0 12 -11 12h-97q-61 0 -87.5 -23.5t-26.5 -81.5q0 -68 22.5 -92.5t71.5 -24.5
q64 0 96 36t32 99z" />
    <glyph glyph-name="Cacute" unicode="&#x106;" horiz-adv-x="476" 
d="M382 853l22 -13q9 -5 2 -12l-93 -73q-9 -7 -25 -7h-20q-13 0 -3 10l91 91q9 12 26 4zM431 42l2 -19q1 -15 -12 -19q-42 -12 -129 -12q-130 0 -171.5 72.5t-41.5 287.5q0 111 9 177t34.5 107.5t65.5 56.5t107 15q79 0 120 -9q12 -1 12 -15l-2 -26q-2 -7 -8 -7l-44 4
q-44 4 -73 4q-68 1 -100.5 -20t-48.5 -86.5t-16 -200.5q0 -105 6.5 -163.5t26.5 -93t49.5 -44.5t83.5 -10q29 0 57 2.5t45.5 4.5t20.5 2q7 0 7 -8z" />
    <glyph glyph-name="cacute" unicode="&#x107;" horiz-adv-x="398" 
d="M248 704h44q5 0 6.5 -3t-1.5 -6l-70 -116q-3 -7 -12 -7h-21q-12 0 -7 11l51 114q2 7 10 7zM332 38l2 -19q1 -14 -12 -18q-42 -9 -92 -9q-99 0 -136.5 59t-37.5 202t36.5 200.5t131.5 57.5q61 0 97 -10q14 -4 13 -18l-2 -20q0 -8 -7 -8q-1 0 -34.5 5t-57.5 5
q-74 0 -99.5 -45t-25.5 -167t26.5 -168t104.5 -46q21 0 53 3.5t33 3.5q7 0 7 -8z" />
    <glyph glyph-name="Cdotaccent" unicode="&#x10a;" horiz-adv-x="476" 
d="M271 900h32q8 0 8 -8v-110q0 -7 -8 -7h-32q-8 0 -8 7v110q0 8 8 8zM431 42l2 -19q1 -15 -12 -19q-42 -12 -129 -12q-130 0 -171.5 72.5t-41.5 287.5q0 111 9 177t34.5 107.5t65.5 56.5t107 15q79 0 120 -9q12 -1 12 -15l-2 -26q-2 -7 -8 -7l-44 4q-44 4 -73 4
q-68 1 -100.5 -20t-48.5 -86.5t-16 -200.5q0 -105 6.5 -163.5t26.5 -93t49.5 -44.5t83.5 -10q29 0 57 2.5t45.5 4.5t20.5 2q7 0 7 -8z" />
    <glyph glyph-name="cdotaccent" unicode="&#x10b;" horiz-adv-x="398" 
d="M198 704h32q7 0 7 -8v-110q0 -8 -7 -8h-32q-8 0 -8 8v110q0 8 8 8zM332 38l2 -19q1 -14 -12 -18q-42 -9 -92 -9q-99 0 -136.5 59t-37.5 202t36.5 200.5t131.5 57.5q61 0 97 -10q14 -4 13 -18l-2 -20q0 -8 -7 -8q-1 0 -34.5 5t-57.5 5q-74 0 -99.5 -45t-25.5 -167
t26.5 -168t104.5 -46q21 0 53 3.5t33 3.5q7 0 7 -8z" />
    <glyph glyph-name="Ccaron" unicode="&#x10c;" horiz-adv-x="476" 
d="M294 793l71 45q8 3 9 -4l11 -22q1 -4 -3 -6l-89 -57l-6 -2q-2 0 -6 2l-89 57q-3 2 -2 6l10 22q3 7 9 4l69 -44q2 -1 7 -3l2 -1q1 0 3 1.5t4 1.5zM431 42l2 -19q1 -15 -12 -19q-42 -12 -129 -12q-130 0 -171.5 72.5t-41.5 287.5q0 111 9 177t34.5 107.5t65.5 56.5t107 15
q79 0 120 -9q12 -1 12 -15l-2 -26q-2 -7 -8 -7l-44 4q-44 4 -73 4q-68 1 -100.5 -20t-48.5 -86.5t-16 -200.5q0 -105 6.5 -163.5t26.5 -93t49.5 -44.5t83.5 -10q29 0 57 2.5t45.5 4.5t20.5 2q7 0 7 -8z" />
    <glyph glyph-name="ccaron" unicode="&#x10d;" horiz-adv-x="398" 
d="M221 634l71 45q6 1 9 -4l11 -22q1 -4 -3 -7l-90 -57q-4 -2 -5 -2q-2 0 -6 2l-89 57q-4 3 -3 7l11 22q2 5 9 4l69 -44q7 -5 9 -5q1 0 3.5 2t3.5 2zM332 38l2 -19q1 -14 -12 -18q-42 -9 -92 -9q-99 0 -136.5 59t-37.5 202t36.5 200.5t131.5 57.5q61 0 97 -10q14 -4 13 -18
l-2 -20q0 -8 -7 -8q-1 0 -34.5 5t-57.5 5q-74 0 -99.5 -45t-25.5 -167t26.5 -168t104.5 -46q21 0 53 3.5t33 3.5q7 0 7 -8z" />
    <glyph glyph-name="Dcaron" unicode="&#x10e;" horiz-adv-x="567" 
d="M270 793l71 45q8 3 9 -4l11 -22q1 -4 -3 -6l-89 -57l-6 -2q-2 0 -6 2l-89 57q-3 2 -2 6l10 22q3 7 9 4l69 -44q2 -1 7 -3l2 -1q1 0 3 1.5t4 1.5zM124 700h144q48 0 80.5 -8t60.5 -30.5t44 -61.5t25 -100.5t9 -149.5q1 -109 -11.5 -178.5t-42 -107t-67.5 -51t-98 -13.5
h-145q-12 0 -19.5 8t-7.5 20v645q0 12 8 19.5t20 7.5zM265 651h-111q-6 0 -6 -5v-592q0 -5 6 -5h111q64 0 97.5 21t52 87t18.5 193t-18.5 193t-52 87t-97.5 21z" />
    <glyph glyph-name="dcaron" unicode="&#x10f;" horiz-adv-x="507" 
d="M351 700h33q8 0 8 -8v-527q0 -93 -37.5 -133t-132.5 -40q-92 0 -128.5 54t-36.5 204q0 106 18.5 163.5t51.5 77.5t92 20q38 0 66 -10t40.5 -20t13.5 -10q4 0 4 5v216q0 8 8 8zM484 700h33q8 0 8 -8v-84q0 -29 -8.5 -51.5t-32.5 -59.5q-6 -7 -16 -6l-12 1q-10 2 -8 8
q28 58 28 110v82q0 8 8 8zM344 162v198q0 55 -27.5 79.5t-89.5 24.5q-33 0 -53 -7t-37 -28.5t-24 -65t-7 -113.5q0 -90 12.5 -136t35.5 -60.5t68 -14.5q69 0 95.5 27t26.5 96z" />
    <glyph glyph-name="Dcroat" unicode="&#x110;" horiz-adv-x="573" 
d="M160 824h209q7 0 7 -7v-28q0 -8 -7 -8h-209q-7 0 -7 8v28q0 7 7 7zM124 700h144q48 0 80.5 -8t60.5 -30.5t44 -61.5t25 -100.5t9 -149.5q1 -109 -11.5 -178.5t-42 -107t-67.5 -51t-98 -13.5h-145q-12 0 -19.5 8t-7.5 20v645q0 12 8 19.5t20 7.5zM265 651h-111q-6 0 -6 -5
v-592q0 -5 6 -5h111q64 0 97.5 21t52 87t18.5 193t-18.5 193t-52 87t-97.5 21z" />
    <glyph glyph-name="dcroat" unicode="&#x111;" horiz-adv-x="471" 
d="M392 608h71q8 0 8 -7v-20q0 -8 -8 -8h-71v-408q0 -93 -37.5 -133t-132.5 -40q-92 0 -128.5 54t-36.5 204q0 106 18.5 163.5t51.5 77.5t92 20q38 0 66 -10t40.5 -20t13.5 -10q4 0 4 5v97h-67q-7 0 -7 8v20q0 7 7 7h67v84q0 8 8 8h33q8 0 8 -8v-84zM344 162v198
q0 55 -27.5 79.5t-89.5 24.5q-33 0 -53 -7t-37 -28.5t-24 -65t-7 -113.5q0 -90 12.5 -136t35.5 -60.5t68 -14.5q69 0 95.5 27t26.5 96z" />
    <glyph glyph-name="Emacron" unicode="&#x112;" horiz-adv-x="502" 
d="M167 824h209q7 0 7 -7v-28q0 -8 -7 -8h-209q-7 0 -7 8v28q0 7 7 7zM260 700h163q8 0 8 -8v-33q0 -8 -8 -8h-151q-80 0 -102 -20.5t-22 -95.5v-143q0 -6 6 -6h242q9 0 9 -8v-32q0 -9 -9 -9h-242q-6 0 -6 -5v-167q0 -75 22 -95.5t102 -20.5h151q8 0 8 -8v-33q0 -8 -8 -8
h-155q-101 0 -136.5 32t-35.5 120v396q0 87 34 119.5t130 32.5z" />
    <glyph glyph-name="emacron" unicode="&#x113;" horiz-adv-x="437" 
d="M125 659h209q8 0 8 -8v-27q0 -8 -8 -8h-209q-7 0 -7 8v27q0 8 7 8zM370 48l3 -17q2 -14 -12 -19q-43 -19 -118 -19q-71 0 -109 20.5t-57.5 77t-19.5 162.5t19.5 163t54.5 76t98 19q87 0 123 -49t36 -180v-18q0 -28 -29 -28h-248q-4 0 -4 -4v-10q0 -79 15.5 -119
t43.5 -52.5t82 -12.5q25 0 51 4.5t43 9t19 4.5q9 0 9 -8zM111 277h227q3 0 3 4q0 79 -13.5 120t-35.5 53t-62 12q-46 0 -70.5 -12.5t-38.5 -53t-14 -118.5q0 -5 4 -5z" />
    <glyph glyph-name="Edotaccent" unicode="&#x116;" horiz-adv-x="502" 
d="M256 900h32q8 0 8 -8v-110q0 -7 -8 -7h-32q-7 0 -7 7v110q0 8 7 8zM260 700h163q8 0 8 -8v-33q0 -8 -8 -8h-151q-80 0 -102 -20.5t-22 -95.5v-143q0 -6 6 -6h242q9 0 9 -8v-32q0 -9 -9 -9h-242q-6 0 -6 -5v-167q0 -75 22 -95.5t102 -20.5h151q8 0 8 -8v-33q0 -8 -8 -8
h-155q-101 0 -136.5 32t-35.5 120v396q0 87 34 119.5t130 32.5z" />
    <glyph glyph-name="edotaccent" unicode="&#x117;" horiz-adv-x="437" 
d="M215 704h32q8 0 8 -8v-110q0 -8 -8 -8h-32q-7 0 -7 8v110q0 8 7 8zM370 48l3 -17q2 -14 -12 -19q-43 -19 -118 -19q-71 0 -109 20.5t-57.5 77t-19.5 162.5t19.5 163t54.5 76t98 19q87 0 123 -49t36 -180v-18q0 -28 -29 -28h-248q-4 0 -4 -4v-10q0 -79 15.5 -119
t43.5 -52.5t82 -12.5q25 0 51 4.5t43 9t19 4.5q9 0 9 -8zM111 277h227q3 0 3 4q0 79 -13.5 120t-35.5 53t-62 12q-46 0 -70.5 -12.5t-38.5 -53t-14 -118.5q0 -5 4 -5z" />
    <glyph glyph-name="Eogonek" unicode="&#x118;" horiz-adv-x="502" 
d="M423 651h-151q-80 0 -102 -20.5t-22 -95.5v-143q0 -6 6 -6h242q9 0 9 -8v-32q0 -9 -9 -9h-242q-6 0 -6 -5v-167q0 -75 22 -95.5t102 -20.5h151q8 0 8 -8v-33q0 -8 -8 -8h-65q-40 -13 -57.5 -35.5t-17.5 -60.5q0 -33 10.5 -45t29.5 -12q11 0 23.5 1t15.5 1q7 0 7 -8v-9
q0 -9 -10 -14q-16 -8 -49 -8q-36 0 -54.5 19t-18.5 66q0 69 64 105h-33q-101 0 -136.5 32t-35.5 120v396q0 87 34 119.5t130 32.5h163q8 0 8 -8v-33q0 -8 -8 -8z" />
    <glyph glyph-name="eogonek" unicode="&#x119;" horiz-adv-x="437" 
d="M314 -161v-10q0 -8 -10 -13q-16 -8 -49 -8q-36 0 -54 19t-18 66q0 65 55 100q-68 1 -105.5 21.5t-56.5 77t-19 161.5q0 106 19.5 163t54.5 76t98 19q87 0 123 -49t36 -180v-18q0 -28 -29 -28h-248q-4 0 -4 -4v-10q0 -79 15.5 -119t43.5 -52.5t82 -12.5q25 0 51 4.5t43 9
t19 4.5q9 0 9 -8l3 -17q2 -14 -12 -19q-21 -9 -60 -15q-73 -24 -73 -95q0 -58 40 -58q12 0 24 1.5t15 1.5q7 0 7 -8zM111 277h227q3 0 3 4q0 79 -13.5 120t-35.5 53t-62 12q-46 0 -70.5 -12.5t-38.5 -53t-14 -118.5q0 -5 4 -5z" />
    <glyph glyph-name="Ecaron" unicode="&#x11a;" horiz-adv-x="502" 
d="M279 793l72 45q7 3 8 -4l11 -22q1 -4 -2 -6l-90 -57q-4 -2 -5 -2q-4 0 -6 2l-90 57q-3 2 -2 6l11 22q1 7 8 4l69 -44q2 0 5.5 -2t4.5 -2l3 2q2 1 3 1zM260 700h163q8 0 8 -8v-33q0 -8 -8 -8h-151q-80 0 -102 -20.5t-22 -95.5v-143q0 -6 6 -6h242q9 0 9 -8v-32q0 -9 -9 -9
h-242q-6 0 -6 -5v-167q0 -75 22 -95.5t102 -20.5h151q8 0 8 -8v-33q0 -8 -8 -8h-155q-101 0 -136.5 32t-35.5 120v396q0 87 34 119.5t130 32.5z" />
    <glyph glyph-name="ecaron" unicode="&#x11b;" horiz-adv-x="437" 
d="M238 634l71 45q8 2 9 -4l11 -22q1 -4 -3 -7l-89 -57l-6 -2q-2 0 -6 2l-89 57q-3 3 -2 7l10 22q2 5 9 4l69 -44q2 -1 5 -3l4 -2q1 0 3.5 2t3.5 2zM370 48l3 -17q2 -14 -12 -19q-43 -19 -118 -19q-71 0 -109 20.5t-57.5 77t-19.5 162.5t19.5 163t54.5 76t98 19
q87 0 123 -49t36 -180v-18q0 -28 -29 -28h-248q-4 0 -4 -4v-10q0 -79 15.5 -119t43.5 -52.5t82 -12.5q25 0 51 4.5t43 9t19 4.5q9 0 9 -8zM111 277h227q3 0 3 4q0 79 -13.5 120t-35.5 53t-62 12q-46 0 -70.5 -12.5t-38.5 -53t-14 -118.5q0 -5 4 -5z" />
    <glyph glyph-name="Gbreve" unicode="&#x11e;" horiz-adv-x="546" 
d="M368 843h20q6 0 6 -6q-3 -76 -102 -76q-102 0 -102 76q0 6 6 6h20q7 0 8 -7q4 -20 19.5 -29t48.5 -9t48 8.5t19 29.5q1 7 9 7zM476 363v-193q0 -86 -44 -131.5t-148 -45.5q-118 0 -161.5 77.5t-43.5 281.5q0 142 20.5 217.5t66 106.5t130.5 31q98 0 141 -9q12 -2 11 -16
l-2 -24q0 -7 -8 -7q-4 0 -24 1.5t-51 3.5t-62 2q-66 0 -99.5 -23t-50 -88.5t-16.5 -194.5q0 -128 15.5 -194.5t46 -90t88.5 -23.5q77 0 107.5 33.5t30.5 110.5v148q0 5 -5 5h-150q-8 0 -8 8v32q0 8 8 8h181q27 0 27 -26z" />
    <glyph glyph-name="gbreve" unicode="&#x11f;" horiz-adv-x="481" 
d="M318 662h20q6 0 6 -5q-3 -76 -102 -76q-102 0 -102 76q0 5 6 5h20q7 0 8 -7q4 -20 19 -28.5t49 -8.5t48.5 8.5t18.5 28.5q1 7 9 7zM354 81h-2q-41 -61 -129 -61q-55 0 -89.5 20t-55.5 76.5t-21 152.5q0 136 38 189t130 53q89 0 129 -50q7 -8 8 -5q0 1 1 4l6 35q4 9 14 9
h13q8 0 8 -9v-491q0 -94 -37 -139t-140 -45q-66 0 -121 13q-11 4 -10 16l2 19q0 9 9 9q1 0 44 -6t73 -6q81 0 105.5 33t24.5 109v74zM354 208v163q0 40 -31 67t-91 27q-69 0 -97 -41.5t-28 -154.5q0 -115 31.5 -158.5t91.5 -43.5q39 0 60.5 10t40.5 30q23 25 23 101z" />
    <glyph glyph-name="Gdotaccent" unicode="&#x120;" horiz-adv-x="546" 
d="M275 900h31q8 0 8 -8v-110q0 -7 -8 -7h-31q-8 0 -8 7v110q0 8 8 8zM476 363v-193q0 -86 -44 -131.5t-148 -45.5q-118 0 -161.5 77.5t-43.5 281.5q0 142 20.5 217.5t66 106.5t130.5 31q98 0 141 -9q12 -2 11 -16l-2 -24q0 -7 -8 -7q-4 0 -24 1.5t-51 3.5t-62 2
q-66 0 -99.5 -23t-50 -88.5t-16.5 -194.5q0 -128 15.5 -194.5t46 -90t88.5 -23.5q77 0 107.5 33.5t30.5 110.5v148q0 5 -5 5h-150q-8 0 -8 8v32q0 8 8 8h181q27 0 27 -26z" />
    <glyph glyph-name="gdotaccent" unicode="&#x121;" horiz-adv-x="481" 
d="M225 704h31q8 0 8 -8v-110q0 -8 -8 -8h-31q-8 0 -8 8v110q0 8 8 8zM354 81h-2q-41 -61 -129 -61q-55 0 -89.5 20t-55.5 76.5t-21 152.5q0 136 38 189t130 53q89 0 129 -50q7 -8 8 -5q0 1 1 4l6 35q4 9 14 9h13q8 0 8 -9v-491q0 -94 -37 -139t-140 -45q-66 0 -121 13
q-11 4 -10 16l2 19q0 9 9 9q1 0 44 -6t73 -6q81 0 105.5 33t24.5 109v74zM354 208v163q0 40 -31 67t-91 27q-69 0 -97 -41.5t-28 -154.5q0 -115 31.5 -158.5t91.5 -43.5q39 0 60.5 10t40.5 30q23 25 23 101z" />
    <glyph glyph-name="Gcommaaccent" unicode="&#x122;" horiz-adv-x="546" 
d="M476 363v-193q0 -86 -44 -131.5t-148 -45.5q-118 0 -161.5 77.5t-43.5 281.5q0 142 20.5 217.5t66 106.5t130.5 31q98 0 141 -9q12 -2 11 -16l-2 -24q0 -7 -8 -7q-4 0 -24 1.5t-51 3.5t-62 2q-66 0 -99.5 -23t-50 -88.5t-16.5 -194.5q0 -128 15.5 -194.5t46 -90
t88.5 -23.5q77 0 107.5 33.5t30.5 110.5v148q0 5 -5 5h-150q-8 0 -8 8v32q0 8 8 8h181q27 0 27 -26zM276 -27h33q8 0 8 -8v-41q0 -30 -7.5 -51t-29.5 -59q-6 -7 -15 -6l-13 2q-9 0 -7 7q23 58 23 109v39q0 8 8 8z" />
    <glyph glyph-name="gcommaaccent" unicode="&#x123;" horiz-adv-x="481" 
d="M245 552h-33q-8 0 -8 8v41q0 30 7.5 51t29.5 58q5 8 15 7l12 -2q4 0 6.5 -2t1.5 -5q-23 -58 -23 -109v-39q0 -8 -8 -8zM354 81h-2q-41 -61 -129 -61q-55 0 -89.5 20t-55.5 76.5t-21 152.5q0 136 38 189t130 53q89 0 129 -50q7 -8 8 -5q0 1 1 4l6 35q4 9 14 9h13q8 0 8 -9
v-491q0 -94 -37 -139t-140 -45q-66 0 -121 13q-11 4 -10 16l2 19q0 9 9 9q1 0 44 -6t73 -6q81 0 105.5 33t24.5 109v74zM354 208v163q0 40 -31 67t-91 27q-69 0 -97 -41.5t-28 -154.5q0 -115 31.5 -158.5t91.5 -43.5q39 0 60.5 10t40.5 30q23 25 23 101z" />
    <glyph glyph-name="Hbar" unicode="&#x126;" horiz-adv-x="587" 
d="M489 548h50q8 0 8 -8v-23q0 -8 -8 -8h-50v-502q0 -7 -7 -7h-39q-6 0 -6 7v314q0 5 -7 5h-273q-6 0 -6 -5v-314q0 -7 -7 -7h-38q-7 0 -7 7v502h-52q-7 0 -7 8v23q0 8 7 8h52v144q0 8 7 8h38q7 0 7 -8v-144h286v144q0 8 6 8h39q7 0 7 -8v-144zM437 509h-286v-126q0 -5 6 -5
h273q7 0 7 5v126z" />
    <glyph glyph-name="hbar" unicode="&#x127;" horiz-adv-x="493" 
d="M126 573v-120q0 -2 1 -2q3 0 3 2q34 58 135 58q87 0 119.5 -39.5t32.5 -135.5v-329q0 -7 -7 -7h-37q-7 0 -7 7v328q0 75 -24 102.5t-83 27.5q-68 0 -100 -30t-32 -100v-328q0 -7 -8 -7h-35q-7 0 -7 7v566h-67q-7 0 -7 8v20q0 7 7 7h67v85q0 7 7 7h35q7 0 7 -7v-85h72
q7 0 7 -7v-20q0 -8 -7 -8h-72z" />
    <glyph glyph-name="Imacron" unicode="&#x12a;" horiz-adv-x="245" 
d="M15 824h209q8 0 8 -7v-28q0 -8 -8 -8h-209q-7 0 -7 8v28q0 7 7 7zM104 700h37q8 0 8 -8v-684q0 -8 -8 -8h-37q-8 0 -8 8v684q0 8 8 8z" />
    <glyph glyph-name="imacron" unicode="&#x12b;" horiz-adv-x="204" 
d="M-5 659h209q7 0 7 -8v-27q0 -8 -7 -8h-209q-7 0 -7 8v27q0 8 7 8zM85 504h34q8 0 8 -9v-487q0 -8 -8 -8h-35q-7 0 -7 8v487q0 9 8 9z" />
    <glyph glyph-name="Iogonek" unicode="&#x12e;" horiz-adv-x="245" 
d="M104 700h37q8 0 8 -8v-684q0 -8 -8 -8q-45 -13 -64 -36t-19 -62q0 -58 40 -58q11 0 23.5 1.5t15.5 1.5q7 0 7 -8v-10q0 -8 -10 -13q-16 -8 -49 -8q-36 0 -54 19t-18 66q0 41 19.5 68t63.5 47v684q0 8 8 8z" />
    <glyph glyph-name="iogonek" unicode="&#x12f;" horiz-adv-x="206" 
d="M85 700h36q8 0 8 -8v-99q0 -8 -8 -8h-36q-8 0 -8 8v99q0 8 8 8zM86 504h34q8 0 8 -9v-487q0 -6 -6 -8q-45 -13 -64 -36t-19 -62q0 -58 40 -58q11 0 23.5 1.5t15.5 1.5q7 0 7 -8v-10q0 -8 -10 -13q-16 -8 -49 -8q-36 0 -54.5 19t-18.5 66q0 41 20 68t65 47v487q0 9 8 9z
" />
    <glyph glyph-name="Idotaccent" unicode="&#x130;" horiz-adv-x="245" 
d="M105 900h32q8 0 8 -8v-110q0 -7 -8 -7h-32q-7 0 -7 7v110q0 8 7 8zM104 700h37q8 0 8 -8v-684q0 -8 -8 -8h-37q-8 0 -8 8v684q0 8 8 8z" />
    <glyph glyph-name="dotlessi" unicode="&#x131;" horiz-adv-x="204" 
d="M85 504h34q8 0 8 -9v-487q0 -8 -8 -8h-35q-7 0 -7 8v487q0 9 8 9z" />
    <glyph glyph-name="IJ" unicode="&#x132;" horiz-adv-x="644" 
d="M505 700h35q9 0 9 -8v-514q0 -105 -30 -145t-118 -40q-69 0 -102 11q-14 3 -13 18l2 23q0 7 7 7q2 0 15.5 -2t37 -4.5t48.5 -2.5q61 0 80.5 25t19.5 111v513q0 8 9 8zM104 700h37q8 0 8 -8v-684q0 -8 -8 -8h-37q-8 0 -8 8v684q0 8 8 8z" />
    <glyph glyph-name="ij" unicode="&#x133;" horiz-adv-x="437" 
d="M85 700h36q8 0 8 -8v-99q0 -8 -8 -8h-36q-8 0 -8 8v99q0 8 8 8zM318 700h34q8 0 8 -8v-90q0 -8 -8 -8h-34q-8 0 -8 8v90q0 8 8 8zM86 504h34q8 0 8 -9v-487q0 -8 -8 -8h-35q-7 0 -7 8v487q0 9 8 9zM318 503h35q7 0 7 -7v-527q0 -83 -26.5 -115.5t-95.5 -32.5q-47 0 -73 8
q-13 2 -12 16l2 21q0 8 7 8q2 0 12.5 -2t26 -3.5t30.5 -1.5q46 0 62.5 20.5t16.5 82.5v526q0 7 8 7z" />
    <glyph glyph-name="Kcommaaccent" unicode="&#x136;" horiz-adv-x="511" 
d="M418 700h44q10 0 5 -8l-196 -318v-9l201 -351q8 -14 -6 -14h-37q-11 0 -16 8l-183 324q-6 9 -15 9h-61q-6 0 -6 -6v-327q0 -8 -9 -8h-35q-8 0 -8 8v684q0 8 8 8h35q9 0 9 -8v-295q0 -6 6 -6h60q10 0 14 9l177 293q5 7 13 7zM251 -27h32q9 0 9 -8v-41q0 -29 -7.5 -49.5
t-29.5 -60.5q-7 -7 -15 -6l-13 2q-4 0 -6.5 1.5t-1.5 5.5q23 58 23 109v39q0 8 9 8z" />
    <glyph glyph-name="kcommaaccent" unicode="&#x137;" horiz-adv-x="439" 
d="M85 700h33q9 0 9 -8v-398q0 -5 4 -5h70q3 0 5 4l109 203q3 8 16 8h34q15 0 9 -12l-116 -205q-2 -3 2 -5q63 -12 87 -78l71 -195q3 -9 -7 -9h-34q-9 0 -12 10l-67 175q-22 58 -81 58h-86q-4 0 -4 -4v-231q0 -8 -9 -8h-33q-8 0 -8 8v684q0 8 8 8zM216 -27h33q8 0 8 -8v-41
q0 -30 -7.5 -51t-28.5 -59q-7 -7 -16 -6l-12 2q-5 0 -7 1.5t-1 5.5q23 58 23 109v39q0 8 8 8z" />
    <glyph glyph-name="Lacute" unicode="&#x139;" horiz-adv-x="439" 
d="M222 853l22 -13q9 -5 2 -12l-93 -73q-9 -7 -25 -7h-20q-13 0 -3 10l91 91q9 12 26 4zM104 700h36q8 0 8 -8v-535q0 -69 20 -88.5t93 -19.5h142q8 0 8 -8v-33q0 -8 -8 -8h-147q-94 0 -127 31t-33 112v549q0 8 8 8z" />
    <glyph glyph-name="lacute" unicode="&#x13a;" horiz-adv-x="213" 
d="M147 882h45q12 0 5 -9l-71 -116q-4 -7 -12 -7h-20q-13 0 -7 11l50 114q3 7 10 7zM92 700h34q8 0 8 -8v-684q0 -8 -8 -8h-34q-8 0 -8 8v684q0 8 8 8z" />
    <glyph glyph-name="Lcommaaccent" unicode="&#x13b;" horiz-adv-x="439" 
d="M104 700h36q8 0 8 -8v-535q0 -69 20 -88.5t93 -19.5h142q8 0 8 -8v-33q0 -8 -8 -8h-147q-94 0 -127 31t-33 112v549q0 8 8 8zM247 -27h33q9 0 9 -8v-41q0 -29 -7.5 -49.5t-29.5 -60.5q-7 -7 -16 -6l-12 2q-5 0 -7 1.5t-1 5.5q23 58 23 109v39q0 8 8 8z" />
    <glyph glyph-name="lcommaaccent" unicode="&#x13c;" horiz-adv-x="208" 
d="M87 700h33q9 0 9 -8v-684q0 -8 -9 -8h-33q-8 0 -8 8v684q0 8 8 8zM87 -27h33q8 0 8 -8v-41q0 -30 -7.5 -51t-29.5 -59q-5 -7 -15 -6l-12 2q-5 0 -7 1.5t-1 5.5q23 58 23 109v39q0 8 8 8z" />
    <glyph glyph-name="Lcaron" unicode="&#x13d;" horiz-adv-x="439" 
d="M104 700h36q8 0 8 -8v-535q0 -69 20 -88.5t93 -19.5h142q8 0 8 -8v-33q0 -8 -8 -8h-147q-94 0 -127 31t-33 112v549q0 8 8 8zM336 700h33q8 0 8 -8v-84q0 -29 -8.5 -51.5t-32.5 -59.5q-6 -7 -15 -6l-13 1q-10 2 -8 8q28 58 28 110v82q0 8 8 8z" />
    <glyph glyph-name="lcaron" unicode="&#x13e;" horiz-adv-x="235" 
d="M87 700h33q9 0 9 -8v-684q0 -8 -9 -8h-33q-8 0 -8 8v684q0 8 8 8zM211 700h33q8 0 8 -8v-84q0 -29 -8.5 -51.5t-32.5 -59.5q-6 -7 -16 -6l-12 1q-10 2 -8 8q28 58 28 110v82q0 8 8 8z" />
    <glyph glyph-name="Ldot" unicode="&#x13f;" horiz-adv-x="439" 
d="M104 700h36q8 0 8 -8v-535q0 -69 20 -88.5t93 -19.5h142q8 0 8 -8v-33q0 -8 -8 -8h-147q-94 0 -127 31t-33 112v549q0 8 8 8zM273 471h36q8 0 8 -9v-127q0 -8 -8 -8h-36q-8 0 -8 8v127q0 9 8 9z" />
    <glyph glyph-name="ldot" unicode="&#x140;" horiz-adv-x="241" 
d="M87 700h33q9 0 9 -8v-684q0 -8 -9 -8h-33q-8 0 -8 8v684q0 8 8 8zM192 419h36q8 0 8 -9v-127q0 -8 -8 -8h-36q-9 0 -9 8v127q0 9 9 9z" />
    <glyph glyph-name="Lslash" unicode="&#x141;" horiz-adv-x="465" 
d="M112 700h37q7 0 7 -8v-269q0 -5 6 -4l118 28q7 1 7 -6v-30q0 -8 -7 -9l-119 -28q-5 -2 -5 -5v-227q0 -49 25.5 -71t78.5 -22h154q7 0 7 -7v-34q0 -8 -7 -8h-158q-83 0 -117.5 33t-34.5 111v213q0 7 -6 5l-77 -18q-7 -1 -7 6v30q0 7 7 8l79 18q4 2 4 6v280q0 8 8 8z" />
    <glyph glyph-name="lslash" unicode="&#x142;" horiz-adv-x="244" 
d="M105 700h35q8 0 8 -8v-278q0 -4 5 -4l63 12q7 1 7 -5v-29q0 -8 -8 -9l-63 -13q-4 -1 -4 -5v-354q0 -7 -7 -7h-36q-7 0 -7 7v344q0 5 -5 5l-66 -12q-7 -1 -7 6v29q0 8 7 8l67 12q4 1 4 5v288q0 8 7 8z" />
    <glyph glyph-name="Nacute" unicode="&#x143;" horiz-adv-x="577" 
d="M383 853l22 -13q9 -5 2 -12l-92 -73q-11 -7 -26 -7h-19q-12 0 -4 10l92 91q8 12 25 4zM439 700h39q7 0 7 -7v-677q0 -16 -16 -16h-14q-11 0 -15 9l-291 560q-3 3 -5 -1v-561q0 -7 -7 -7h-39q-7 0 -7 7v677q0 16 16 16h17q10 0 16 -10l288 -555q1 -3 4 -2l1 3v557q0 7 6 7
z" />
    <glyph glyph-name="nacute" unicode="&#x144;" horiz-adv-x="493" 
d="M279 703h45q12 0 5 -9l-71 -116q-4 -6 -12 -6h-20q-14 0 -7 10l50 115q3 6 10 6zM77 7v327q0 100 35 138.5t135 38.5t135 -38.5t35 -138.5v-327q0 -7 -8 -7h-35q-7 0 -7 7v328q0 79 -26 104.5t-94 25.5t-94 -25.5t-26 -104.5v-328q0 -7 -8 -7h-35q-7 0 -7 7z" />
    <glyph glyph-name="Ncommaaccent" unicode="&#x145;" horiz-adv-x="577" 
d="M439 700h39q7 0 7 -7v-677q0 -16 -16 -16h-14q-11 0 -15 9l-291 560q-3 3 -5 -1v-561q0 -7 -7 -7h-39q-7 0 -7 7v677q0 16 16 16h17q10 0 16 -10l288 -555q1 -3 4 -2l1 3v557q0 7 6 7zM284 -27h32q9 0 9 -8v-41q0 -29 -7.5 -49.5t-29.5 -60.5q-7 -7 -15 -6l-13 2
q-5 0 -7 1.5t-1 5.5q23 58 23 109v39q0 8 9 8z" />
    <glyph glyph-name="ncommaaccent" unicode="&#x146;" horiz-adv-x="493" 
d="M77 7v327q0 100 35 138.5t135 38.5t135 -38.5t35 -138.5v-327q0 -7 -8 -7h-35q-7 0 -7 7v328q0 79 -26 104.5t-94 25.5t-94 -25.5t-26 -104.5v-328q0 -7 -8 -7h-35q-7 0 -7 7zM233 -27h33q9 0 9 -8v-41q0 -29 -7.5 -49.5t-29.5 -60.5q-7 -7 -16 -6l-12 2q-5 0 -7 1.5
t-1 5.5q23 58 23 109v39q0 8 8 8z" />
    <glyph glyph-name="Ncaron" unicode="&#x147;" horiz-adv-x="577" 
d="M295 793l71 45q8 3 9 -4l11 -22q2 -4 -3 -6l-89 -57l-6 -2q-3 0 -5 2l-90 57q-3 2 -2 6l11 22q1 7 8 4l69 -44q2 -1 7 -3l2 -1q1 0 3.5 1.5t3.5 1.5zM439 700h39q7 0 7 -7v-677q0 -16 -16 -16h-14q-11 0 -15 9l-291 560q-3 3 -5 -1v-561q0 -7 -7 -7h-39q-7 0 -7 7v677
q0 16 16 16h17q10 0 16 -10l288 -555q1 -3 4 -2l1 3v557q0 7 6 7z" />
    <glyph glyph-name="ncaron" unicode="&#x148;" horiz-adv-x="493" 
d="M252 633l72 45q7 2 8 -4l11 -22q1 -4 -2 -6l-90 -57q-3 -3 -6 -3t-5 3l-90 57q-3 2 -2 6l11 22q1 6 8 4l69 -44q2 -1 7 -3l2 -1q1 0 7 3zM77 7v327q0 100 35 138.5t135 38.5t135 -38.5t35 -138.5v-327q0 -7 -8 -7h-35q-7 0 -7 7v328q0 79 -26 104.5t-94 25.5t-94 -25.5
t-26 -104.5v-328q0 -7 -8 -7h-35q-7 0 -7 7z" />
    <glyph glyph-name="Eng" unicode="&#x14a;" horiz-adv-x="577" 
d="M439 700h39q7 0 7 -7v-712q0 -106 -29.5 -145.5t-118.5 -39.5q-63 0 -101 10q-14 5 -14 19l3 23q0 7 7 7q1 0 15 -2.5t37.5 -4.5t48.5 -2q61 0 80.5 25t19.5 111v40l-284 547q-3 3 -5 -1v-561q0 -7 -7 -7h-39q-7 0 -7 7v677q0 16 16 16h17q10 0 16 -10l288 -555
q1 -3 4 -2l1 3v557q0 7 6 7z" />
    <glyph glyph-name="eng" unicode="&#x14b;" horiz-adv-x="493" 
d="M77 7v327q0 100 35 138.5t135 38.5t135 -38.5t35 -138.5v-365q0 -83 -27 -115.5t-95 -32.5q-46 0 -74 8q-12 2 -12 16l2 21q2 8 8 8q2 0 12 -2t25.5 -3.5t30.5 -1.5q46 0 63 20.5t17 82.5v365q0 79 -26 104.5t-94 25.5t-94 -25.5t-26 -104.5v-328q0 -7 -8 -7h-35
q-7 0 -7 7z" />
    <glyph glyph-name="Omacron" unicode="&#x14c;" horiz-adv-x="572" 
d="M179 824h209q8 0 8 -7v-28q0 -8 -8 -8h-209q-7 0 -7 8v28q0 7 7 7zM286 708q54 0 89.5 -12t59 -36t36 -68.5t17 -99.5t4.5 -140q0 -107 -7 -170t-29.5 -109t-62.5 -63.5t-107 -17.5q-54 0 -90 12.5t-59.5 36.5t-36 69.5t-17 100.5t-4.5 141q0 85 4.5 140t17 99.5t36 68.5
t59.5 36t90 12zM286 658q-65 0 -96 -25.5t-43 -88t-12 -193.5t12 -194t43.5 -88.5t95.5 -25.5t95.5 25.5t43.5 88.5t12 194t-12 193.5t-43 88t-96 25.5z" />
    <glyph glyph-name="omacron" unicode="&#x14d;" 
d="M126 659h209q7 0 7 -8v-28q0 -7 -7 -7h-209q-7 0 -7 7v28q0 8 7 8zM230 511q101 0 137 -55t36 -203q0 -149 -36 -205t-137 -56t-137 56t-36 205q0 148 36 203t137 55zM230 465q-72 0 -97.5 -42.5t-25.5 -169.5t25.5 -170.5t97.5 -43.5q71 0 96.5 43t25.5 171
q0 127 -25 169.5t-97 42.5z" />
    <glyph glyph-name="Ohungarumlaut" unicode="&#x150;" horiz-adv-x="572" 
d="M270 853h39q11 0 6 -7l-49 -77q-6 -7 -10 -7h-21q-11 0 -8 9l34 75q3 7 9 7zM374 853h40q11 0 5 -8l-68 -77q-5 -6 -9 -6h-23q-13 0 -7 10l52 75q4 6 10 6zM286 708q54 0 89.5 -12t59 -36t36 -68.5t17 -99.5t4.5 -140q0 -107 -7 -170t-29.5 -109t-62.5 -63.5t-107 -17.5
q-54 0 -90 12.5t-59.5 36.5t-36 69.5t-17 100.5t-4.5 141q0 85 4.5 140t17 99.5t36 68.5t59.5 36t90 12zM286 658q-65 0 -96 -25.5t-43 -88t-12 -193.5t12 -194t43.5 -88.5t95.5 -25.5t95.5 25.5t43.5 88.5t12 194t-12 193.5t-43 88t-96 25.5z" />
    <glyph glyph-name="ohungarumlaut" unicode="&#x151;" 
d="M208 703h38q9 0 6 -7l-49 -123q-4 -8 -10 -8h-20q-11 0 -9 9l35 122q1 7 9 7zM311 703h41q9 0 4 -8l-67 -124q-5 -6 -10 -6h-23q-11 0 -7 10l53 122q2 6 9 6zM230 511q101 0 137 -55t36 -203q0 -149 -36 -205t-137 -56t-137 56t-36 205q0 148 36 203t137 55zM230 465
q-72 0 -97.5 -42.5t-25.5 -169.5t25.5 -170.5t97.5 -43.5q71 0 96.5 43t25.5 171q0 127 -25 169.5t-97 42.5z" />
    <glyph glyph-name="OE" unicode="&#x152;" horiz-adv-x="765" 
d="M687 0h-139q-67 0 -97.5 17.5t-40.5 61.5q-17 -43 -50.5 -65t-92.5 -22q-110 0 -148 72.5t-38 279.5q0 148 16.5 224t55.5 108t115 32q119 0 146 -83q8 41 38 58t99 17h136q8 0 8 -7v-35q0 -7 -8 -7h-118q-80 0 -102 -20.5t-22 -95.5v-142q0 -6 6 -6h210q7 0 7 -7v-34
q0 -7 -7 -7h-210q-6 0 -6 -6v-168q0 -75 22 -95.5t102 -20.5h118q8 0 8 -7v-35q0 -7 -8 -7zM390 239v278q0 78 -31 110.5t-89 32.5q-54 0 -81 -23.5t-40 -90.5t-13 -203q0 -129 13 -193t40 -86.5t81 -22.5q75 0 97.5 44.5t22.5 153.5z" />
    <glyph glyph-name="oe" unicode="&#x153;" horiz-adv-x="748" 
d="M673 40l3 -16q2 -14 -10 -18q-48 -13 -122 -13q-67 0 -102.5 24.5t-53.5 71.5q-5 11 -9 -1q-30 -96 -159 -96q-91 0 -127 59t-36 206q0 145 37 199.5t133 54.5q63 0 100.5 -23t52.5 -75q1 -5 5 0q34 98 149 98q90 0 127.5 -55t37.5 -178v-17q0 -29 -32 -29h-252
q-6 0 -6 -7q-1 -101 30.5 -144t108.5 -43q35 0 75 6l40 6q8 0 10 -10zM416 272h230q7 0 7 8q-1 102 -28 144t-92 42q-68 0 -97 -42q-27 -40 -27 -113v-31q0 -8 7 -8zM230 465q-71 0 -97 -42t-26 -166q0 -125 25.5 -171.5t89.5 -46.5q53 0 80.5 16t41 62t13.5 136
q0 130 -27 171t-100 41z" />
    <glyph glyph-name="Racute" unicode="&#x154;" horiz-adv-x="534" 
d="M363 853l23 -13q8 -5 1 -12l-92 -73q-11 -7 -26 -7h-19q-12 0 -4 10l92 91q9 11 25 4zM96 7v531q0 91 35 130t138 39q99 0 144.5 -45t45.5 -155q0 -81 -27.5 -125t-85.5 -62q-10 -4 -5 -13l149 -299q4 -8 -4 -8h-39q-9 0 -13 7l-146 288q-4 9 -18 9h-114q-8 0 -8 -7v-290
q0 -7 -7 -7h-38q-7 0 -7 7zM156 353h109q78 0 109 39t31 112q0 85 -31 120t-105 35q-69 0 -95 -26.5t-26 -99.5v-173q0 -7 8 -7z" />
    <glyph glyph-name="racute" unicode="&#x155;" horiz-adv-x="315" 
d="M212 703h44q5 0 6.5 -3t-0.5 -6l-71 -116q-4 -6 -12 -6h-21q-13 0 -6 10l50 115q2 6 10 6zM77 7v387q0 66 26 91.5t90 25.5q39 0 78 -9q16 -4 13 -19l-2 -17q0 -8 -8 -8l-28 3q-27 3 -43 3q-43 0 -59.5 -14t-16.5 -57v-386q0 -7 -8 -7h-35q-7 0 -7 7z" />
    <glyph glyph-name="Rcommaaccent" unicode="&#x156;" horiz-adv-x="534" 
d="M96 7v531q0 91 35 130t138 39q99 0 144.5 -45t45.5 -155q0 -81 -27.5 -125t-85.5 -62q-10 -4 -5 -13l149 -299q4 -8 -4 -8h-39q-9 0 -13 7l-146 288q-4 9 -18 9h-114q-8 0 -8 -7v-290q0 -7 -7 -7h-38q-7 0 -7 7zM156 353h109q78 0 109 39t31 112q0 85 -31 120t-105 35
q-69 0 -95 -26.5t-26 -99.5v-173q0 -7 8 -7zM266 -27h32q9 0 9 -8v-41q0 -29 -7.5 -49.5t-29.5 -60.5q-7 -7 -16 -6l-12 2q-5 0 -7 1.5t-1 5.5q23 58 23 109v39q0 8 9 8z" />
    <glyph glyph-name="rcommaaccent" unicode="&#x157;" horiz-adv-x="315" 
d="M77 7v387q0 66 26 91.5t90 25.5q39 0 78 -9q16 -4 13 -19l-2 -17q0 -8 -8 -8l-28 3q-27 3 -43 3q-43 0 -59.5 -14t-16.5 -57v-386q0 -7 -8 -7h-35q-7 0 -7 7zM86 -27h33q8 0 8 -8v-41q0 -30 -7.5 -51t-29.5 -59q-6 -7 -15 -6l-13 2q-9 0 -7 7q23 58 23 109v39q0 8 8 8z
" />
    <glyph glyph-name="Rcaron" unicode="&#x158;" horiz-adv-x="534" 
d="M276 793l71 45q7 3 8 -4l11 -22q1 -4 -2 -6l-90 -57q-4 -2 -5 -2q-4 0 -6 2l-90 57q-3 2 -2 6l11 22q1 7 8 4l69 -44q2 0 5.5 -2t4.5 -2l3 2q2 1 4 1zM96 7v531q0 91 35 130t138 39q99 0 144.5 -45t45.5 -155q0 -81 -27.5 -125t-85.5 -62q-10 -4 -5 -13l149 -299
q4 -8 -4 -8h-39q-9 0 -13 7l-146 288q-4 9 -18 9h-114q-8 0 -8 -7v-290q0 -7 -7 -7h-38q-7 0 -7 7zM156 353h109q78 0 109 39t31 112q0 85 -31 120t-105 35q-69 0 -95 -26.5t-26 -99.5v-173q0 -7 8 -7z" />
    <glyph glyph-name="rcaron" unicode="&#x159;" horiz-adv-x="315" 
d="M185 633l71 45q8 2 9 -4l11 -22q2 -4 -3 -6l-89 -57q-5 -3 -6 -3q-3 0 -6 3l-89 57q-3 2 -2 6l10 22q2 5 9 4l69 -44q2 -1 7 -3l2 -1q1 0 3.5 1.5t3.5 1.5zM77 7v387q0 66 26 91.5t90 25.5q39 0 78 -9q16 -4 13 -19l-2 -17q0 -8 -8 -8l-28 3q-27 3 -43 3q-43 0 -59.5 -14
t-16.5 -57v-386q0 -7 -8 -7h-35q-7 0 -7 7z" />
    <glyph glyph-name="Sacute" unicode="&#x15a;" horiz-adv-x="494" 
d="M355 853l22 -13q10 -5 1 -12l-92 -73q-11 -7 -25 -7h-20q-13 0 -3 10l91 91q9 12 26 4zM88 22l2 24q0 7 8 7q3 0 18.5 -2.5t45.5 -5t67 -2.5q87 0 117.5 30.5t30.5 100.5q0 58 -29 89.5t-111 75.5q-49 26 -72 40.5t-47 38t-32 51.5t-8 70q0 92 42 130.5t147 38.5
q88 0 133 -9q12 -1 12 -14l-2 -31q-2 -7 -8 -7q-2 0 -20 2.5t-48.5 5t-61.5 2.5q-78 0 -108.5 -27.5t-30.5 -95.5q0 -16 2.5 -29t4.5 -22.5t11.5 -20t14 -16t20.5 -15.5t24 -14.5t32 -17.5t36 -20q93 -53 123.5 -91t30.5 -115q0 -94 -44 -137.5t-149 -43.5q-94 0 -138 12
q-9 2 -11.5 5.5t-1.5 12.5z" />
    <glyph glyph-name="sacute" unicode="&#x15b;" horiz-adv-x="398" 
d="M241 703h45q12 0 5 -9l-71 -116q-4 -6 -12 -6h-20q-14 0 -7 10l50 115q3 6 10 6zM216 229l-65 33q-35 17 -52 29t-30 38.5t-13 67.5q0 62 38 88t115 26t115 -9q11 -2 11 -15l-3 -19q0 -8 -8 -8q-1 0 -42 3.5t-68 3.5q-53 0 -80.5 -15t-27.5 -57q0 -38 17 -56.5t63 -41.5
l62 -29q58 -28 80.5 -54.5t22.5 -75.5q0 -72 -37.5 -109t-126.5 -37q-73 0 -111 9q-13 2 -13 15l2 22q2 7 8 7q3 0 19.5 -2t42 -4t50.5 -2q116 0 116 94q0 36 -17 54t-68 44z" />
    <glyph glyph-name="Scedilla" unicode="&#x15e;" horiz-adv-x="494" 
d="M412 685l-2 -31q-2 -7 -8 -7q-2 0 -20 2.5t-48.5 5t-61.5 2.5q-78 0 -108.5 -27.5t-30.5 -95.5q0 -16 2.5 -29t4.5 -22.5t11.5 -20t14 -16t20.5 -15.5t24 -14.5t32 -17.5t36 -20q93 -53 123.5 -91t30.5 -115q0 -80 -31 -123t-104 -54l-34 -110q-3 -10 -13 -10h-25
q-9 0 -6 9l27 107h-7q-94 0 -138 12q-9 2 -11.5 5.5t-1.5 12.5l2 24q0 7 8 7q3 0 18.5 -2.5t45.5 -5t67 -2.5q87 0 117.5 30.5t30.5 100.5q0 58 -29 89.5t-111 75.5q-49 26 -72 40.5t-47 38t-32 51.5t-8 70q0 92 42 130.5t147 38.5q88 0 133 -9q12 -1 12 -14z" />
    <glyph glyph-name="scedilla" unicode="&#x15f;" horiz-adv-x="398" 
d="M186 297l62 -29q58 -28 80.5 -54.5t22.5 -75.5q0 -61 -27 -97t-89 -45l-33 -110q-4 -10 -14 -10h-25q-9 0 -6 9l27 107q-76 1 -108 9q-13 2 -13 15l2 22q2 7 8 7q3 0 19.5 -2t42 -4t50.5 -2q116 0 116 94q0 36 -17 54t-68 44l-65 33q-35 17 -52 29t-30 38.5t-13 67.5
q0 62 38 88t115 26t115 -9q11 -2 11 -15l-3 -19q0 -8 -8 -8q-1 0 -42 3.5t-68 3.5q-53 0 -80.5 -15t-27.5 -57q0 -38 17 -56.5t63 -41.5z" />
    <glyph glyph-name="Scaron" unicode="&#x160;" horiz-adv-x="494" 
d="M267 793l71 45q6 3 9 -4l11 -22q2 -4 -3 -6l-89 -57q-1 0 -3 -1t-3 -1q-2 0 -6 2l-89 57q-5 2 -3 6l11 22q3 7 9 4l69 -44q1 0 4.5 -2t4.5 -2t3 1.5t4 1.5zM88 22l2 24q0 7 8 7q3 0 18.5 -2.5t45.5 -5t67 -2.5q87 0 117.5 30.5t30.5 100.5q0 58 -29 89.5t-111 75.5
q-49 26 -72 40.5t-47 38t-32 51.5t-8 70q0 92 42 130.5t147 38.5q88 0 133 -9q12 -1 12 -14l-2 -31q-2 -7 -8 -7q-2 0 -20 2.5t-48.5 5t-61.5 2.5q-78 0 -108.5 -27.5t-30.5 -95.5q0 -16 2.5 -29t4.5 -22.5t11.5 -20t14 -16t20.5 -15.5t24 -14.5t32 -17.5t36 -20
q93 -53 123.5 -91t30.5 -115q0 -94 -44 -137.5t-149 -43.5q-94 0 -138 12q-9 2 -11.5 5.5t-1.5 12.5z" />
    <glyph glyph-name="scaron" unicode="&#x161;" horiz-adv-x="398" 
d="M214 633l72 45q7 2 8 -4l11 -22q1 -4 -2 -6l-90 -57q-3 -3 -5 -3q-4 0 -6 3l-90 57q-3 2 -2 6l11 22q1 6 8 4l69 -44q2 0 5.5 -2t4.5 -2zM216 229l-65 33q-35 17 -52 29t-30 38.5t-13 67.5q0 62 38 88t115 26t115 -9q11 -2 11 -15l-3 -19q0 -8 -8 -8q-1 0 -42 3.5
t-68 3.5q-53 0 -80.5 -15t-27.5 -57q0 -38 17 -56.5t63 -41.5l62 -29q58 -28 80.5 -54.5t22.5 -75.5q0 -72 -37.5 -109t-126.5 -37q-73 0 -111 9q-13 2 -13 15l2 22q2 7 8 7q3 0 19.5 -2t42 -4t50.5 -2q116 0 116 94q0 36 -17 54t-68 44z" />
    <glyph glyph-name="Tcedilla" unicode="&#x162;" horiz-adv-x="450" 
d="M32 701h386q8 0 8 -9v-32q0 -8 -8 -8h-161q-6 0 -6 -6v-638q0 -8 -8 -8h-36q-8 0 -8 8v638q0 6 -6 6h-161q-9 0 -9 8v32q0 9 9 9zM211 -47h33q8 0 5 -8l-38 -125q-3 -10 -13 -10h-25q-9 0 -6 9l31 126q3 8 13 8z" />
    <glyph glyph-name="tcedilla" unicode="&#x163;" horiz-adv-x="283" 
d="M251 38l3 -22q1 -11 -12 -15q-27 -9 -63 -9h-3l-32 -106q-3 -10 -14 -10h-24q-9 0 -6 9l28 112q-38 9 -52.5 35t-14.5 78v486q0 7 8 7h28q10 0 10 -10l3 -81q0 -8 9 -8h115q9 0 9 -9v-27q0 -9 -9 -9h-116q-7 0 -7 -5v-344q0 -42 15.5 -56t57.5 -14q17 0 38 3l22 3
q7 0 7 -8z" />
    <glyph glyph-name="Tcaron" unicode="&#x164;" horiz-adv-x="450" 
d="M231 793l71 45q8 3 9 -4l11 -22q2 -4 -3 -6l-89 -57l-6 -2q-2 0 -6 2l-89 57q-3 2 -2 6l10 22q3 7 9 4l69 -44l5 -2.5t4 -1.5t3 1.5t4 1.5zM32 701h386q8 0 8 -9v-32q0 -8 -8 -8h-161q-6 0 -6 -6v-638q0 -8 -8 -8h-36q-8 0 -8 8v638q0 6 -6 6h-161q-9 0 -9 8v32q0 9 9 9z
" />
    <glyph glyph-name="tcaron" unicode="&#x165;" horiz-adv-x="283" 
d="M204 774h33q8 0 8 -8v-84q0 -29 -8.5 -51.5t-32.5 -59.5q-6 -7 -15 -6l-13 1q-10 2 -8 8q28 58 28 110v82q0 8 8 8zM69 603h28q10 0 10 -10l3 -81q0 -8 9 -8h115q9 0 9 -9v-27q0 -9 -9 -9h-116q-7 0 -7 -5v-344q0 -42 15.5 -56t57.5 -14q17 0 38 3l22 3q7 0 7 -8l3 -22
q1 -11 -12 -15q-27 -9 -63 -9q-68 0 -93 26.5t-25 91.5v486q0 7 8 7z" />
    <glyph glyph-name="Tbar" unicode="&#x166;" horiz-adv-x="450" 
d="M32 701h386q8 0 8 -9v-32q0 -8 -8 -8h-161q-6 0 -6 -6v-162h100q7 0 7 -7v-24q0 -7 -7 -7h-100v-438q0 -8 -8 -8h-36q-8 0 -8 8v438h-100q-7 0 -7 7v24q0 7 7 7h100v162q0 6 -6 6h-161q-9 0 -9 8v32q0 9 9 9z" />
    <glyph glyph-name="tbar" unicode="&#x167;" horiz-adv-x="283" 
d="M251 38l3 -22q1 -11 -12 -15q-27 -9 -63 -9q-68 0 -93 26.5t-25 91.5v486q0 7 8 7h28q10 0 10 -10l3 -81q0 -8 9 -8h115q9 0 9 -9v-27q0 -9 -9 -9h-116q-7 0 -7 -5v-70h123q7 0 7 -8v-20q0 -7 -7 -7h-123v-239q0 -42 15.5 -56t57.5 -14q17 0 38 3l22 3q7 0 7 -8z" />
    <glyph glyph-name="Umacron" unicode="&#x16a;" horiz-adv-x="584" 
d="M182 824h209q7 0 7 -7v-28q0 -8 -7 -8h-209q-7 0 -7 8v28q0 7 7 7zM440 700h38q7 0 7 -7v-484q0 -124 -39 -170t-154 -46t-154 46t-39 170v484q0 7 7 7h38q8 0 8 -7v-488q0 -100 28 -131.5t112 -31.5t112.5 31.5t28.5 131.5v488q0 7 7 7z" />
    <glyph glyph-name="umacron" unicode="&#x16b;" horiz-adv-x="477" 
d="M131 658h209q7 0 7 -7v-28q0 -7 -7 -7h-209q-7 0 -7 7v28q0 7 7 7zM358 504h34q8 0 8 -9v-318q0 -106 -34 -145.5t-127 -39.5t-127.5 39.5t-34.5 145.5v318q0 9 8 9h33q9 0 9 -9v-326q0 -79 24 -104.5t88 -25.5t87.5 25.5t23.5 104.5v326q0 9 8 9z" />
    <glyph glyph-name="Uring" unicode="&#x16e;" horiz-adv-x="584" 
d="M289 887q32 0 47 -15.5t15 -50.5q0 -67 -62 -67q-63 0 -63 67q0 66 63 66zM289 859q-32 0 -32 -38t32 -38q31 0 31 38t-31 38zM440 700h38q7 0 7 -7v-484q0 -124 -39 -170t-154 -46t-154 46t-39 170v484q0 7 7 7h38q8 0 8 -7v-488q0 -100 28 -131.5t112 -31.5t112.5 31.5
t28.5 131.5v488q0 7 7 7z" />
    <glyph glyph-name="uring" unicode="&#x16f;" horiz-adv-x="477" 
d="M238 690q63 0 63 -66q0 -67 -63 -67t-63 67q0 66 63 66zM238 662q-32 0 -32 -38t32 -38t32 38t-32 38zM358 504h34q8 0 8 -9v-318q0 -106 -34 -145.5t-127 -39.5t-127.5 39.5t-34.5 145.5v318q0 9 8 9h33q9 0 9 -9v-326q0 -79 24 -104.5t88 -25.5t87.5 25.5t23.5 104.5
v326q0 9 8 9z" />
    <glyph glyph-name="Uhungarumlaut" unicode="&#x170;" horiz-adv-x="584" 
d="M273 853h38q11 0 6 -7l-49 -77q-4 -7 -10 -7h-21q-11 0 -8 9l35 75q1 7 9 7zM376 853h40q5 0 6.5 -2.5t-1.5 -5.5l-68 -77q-5 -6 -9 -6h-23q-13 0 -7 10l53 75q3 6 9 6zM440 700h38q7 0 7 -7v-484q0 -124 -39 -170t-154 -46t-154 46t-39 170v484q0 7 7 7h38q8 0 8 -7
v-488q0 -100 28 -131.5t112 -31.5t112.5 31.5t28.5 131.5v488q0 7 7 7z" />
    <glyph glyph-name="uhungarumlaut" unicode="&#x171;" horiz-adv-x="477" 
d="M213 703h39q9 0 6 -7l-50 -124q-3 -7 -10 -7h-20q-10 0 -8 9l34 122q1 7 9 7zM316 703h41q8 0 5 -8l-68 -124q-4 -6 -9 -6h-23q-12 0 -8 10l53 122q3 6 9 6zM358 504h34q8 0 8 -9v-318q0 -106 -34 -145.5t-127 -39.5t-127.5 39.5t-34.5 145.5v318q0 9 8 9h33q9 0 9 -9
v-326q0 -79 24 -104.5t88 -25.5t87.5 25.5t23.5 104.5v326q0 9 8 9z" />
    <glyph glyph-name="Uogonek" unicode="&#x172;" horiz-adv-x="584" 
d="M440 700h38q7 0 7 -7v-484q0 -103 -24.5 -150t-92.5 -60q-69 -24 -69 -94q0 -57 40 -57q11 0 23.5 1t15.5 1q7 0 7 -8v-9q0 -9 -10 -13q-18 -9 -49 -9q-36 0 -54 19t-18 66q0 63 50 97h-12q-115 0 -154 46t-39 170v484q0 7 7 7h38q8 0 8 -7v-488q0 -100 28 -131.5
t112 -31.5t112.5 31.5t28.5 131.5v488q0 7 7 7z" />
    <glyph glyph-name="uogonek" unicode="&#x173;" horiz-adv-x="477" 
d="M358 504h34q8 0 8 -9v-318q0 -90 -23 -130.5t-83 -50.5q-38 -13 -54.5 -35.5t-16.5 -58.5q0 -58 40 -58q11 0 23.5 1.5t15.5 1.5q7 0 7 -8v-10q0 -8 -10 -13q-16 -8 -49 -8q-36 0 -54 19t-18 66q0 65 54 99q-90 1 -122.5 40.5t-32.5 144.5v318q0 9 8 9h33q9 0 9 -9v-326
q0 -79 24 -104.5t88 -25.5t87.5 25.5t23.5 104.5v326q0 9 8 9z" />
    <glyph glyph-name="Wcircumflex" unicode="&#x174;" horiz-adv-x="764" 
d="M386 838l89 -57q5 -2 3 -7l-11 -22q-1 -7 -9 -4l-72 45q-5 4 -12 0l-72 -45q-7 -3 -9 4l-11 22q-2 5 3 7l90 57q5 3 11 0zM622 700h40q7 0 7 -7v-481q0 -39 -21 -64l-107 -142q-11 -15 -28 -14.5t-30 16.5l-98 132q-1 4 -5 0l-96 -129q-14 -17 -31.5 -17.5t-30.5 16.5
l-106 138q-20 25 -20 64v481q0 7 6 7h40q6 0 6 -7v-489q0 -11 11 -26l85 -118q8 -10 15 0l87 120q10 12 10 22v491q0 7 7 7h39q7 0 7 -7v-491q0 -12 10 -23l87 -119q7 -10 14 0l85 118q11 16 11 26v489q0 7 6 7z" />
    <glyph glyph-name="wcircumflex" unicode="&#x175;" horiz-adv-x="687" 
d="M347 684l90 -57q3 -3 2 -7l-11 -23q-2 -6 -8 -3l-73 45q-4 3 -11 0l-73 -45q-6 -3 -8 3l-11 23q-1 4 3 7l89 57q6 3 11 0zM569 504h33q8 0 8 -9v-292q0 -35 -26 -71l-78 -115q-18 -25 -41 -25t-41 25l-78 116q-2 3 -3 3t-3 -3l-82 -116q-20 -25 -38 -25q-20 0 -39 25
l-80 116q-24 32 -24 70v292q0 9 8 9h33q9 0 9 -9v-291q0 -21 15 -43l69 -108q6 -8 9 -8q5 0 10 8l74 108q14 22 14 43v294q0 6 7 6h38q5 0 5 -6v-294q0 -19 15 -43l70 -108q6 -9 11 -9q7 0 13 9l68 108q15 21 15 43v291q0 9 9 9z" />
    <glyph glyph-name="Ycircumflex" unicode="&#x176;" horiz-adv-x="528" 
d="M269 838l89 -57q5 -2 3 -7l-11 -22q-1 -7 -8 -4l-73 45q-4 3 -11 0l-73 -45q-7 -3 -9 4l-10 22q-2 5 2 7l90 57q6 3 11 0zM400 700h39q7 0 7 -7v-192q0 -36 -23 -63l-116 -141q-13 -18 -13 -35v-255q0 -7 -7 -7h-38q-7 0 -7 7v255q0 20 -14 35l-124 141q-22 24 -22 63
v192q0 7 7 7h39q7 0 7 -7v-191q0 -20 12 -32l112 -133q10 -11 18 1l105 132q12 16 12 34v189q0 7 6 7z" />
    <glyph glyph-name="ycircumflex" unicode="&#x177;" horiz-adv-x="489" 
d="M250 684l89 -57q4 -3 3 -7l-11 -23q-1 -6 -9 -3l-72 45q-5 4 -12 0l-72 -45q-6 -3 -9 3l-10 23q-1 4 2 7l90 57q5 3 11 0zM365 504h35q7 0 7 -8v-498q0 -93 -35 -136t-133 -43q-71 0 -115 13q-14 4 -13 16l2 23q2 7 8 7q3 0 21 -3t44.5 -6t48.5 -3q76 0 99.5 31t23.5 100
v84q0 3 -3 1q-41 -41 -120 -41q-85 0 -119 38t-34 137v280q0 8 8 8h35q7 0 7 -8v-277q0 -79 24.5 -105t88.5 -26q53 0 82.5 22t29.5 55v331q0 8 8 8z" />
    <glyph glyph-name="Ydieresis" unicode="&#x178;" horiz-adv-x="528" 
d="M195 848h31q8 0 8 -8v-82q0 -8 -8 -8h-31q-8 0 -8 8v82q0 8 8 8zM303 848h32q7 0 7 -8v-82q0 -8 -7 -8h-32q-8 0 -8 8v82q0 8 8 8zM400 700h39q7 0 7 -7v-192q0 -36 -23 -63l-116 -141q-13 -18 -13 -35v-255q0 -7 -7 -7h-38q-7 0 -7 7v255q0 20 -14 35l-124 141
q-22 24 -22 63v192q0 7 7 7h39q7 0 7 -7v-191q0 -20 12 -32l112 -133q10 -11 18 1l105 132q12 16 12 34v189q0 7 6 7z" />
    <glyph glyph-name="Zacute" unicode="&#x179;" horiz-adv-x="482" 
d="M338 853l22 -13q10 -5 1 -12l-92 -73q-9 -7 -25 -7h-20q-13 0 -3 10l91 91q9 12 26 4zM77 700h323q17 0 17 -16v-23q0 -8 -3 -14l-292 -594q-4 -4 2 -4h284q9 0 9 -8v-33q0 -8 -9 -8h-326q-16 0 -16 16v27q0 10 4 17l287 588q3 3 -2 3h-278q-9 0 -9 9v32q0 8 9 8z" />
    <glyph glyph-name="zacute" unicode="&#x17a;" horiz-adv-x="398" 
d="M237 703h45q5 0 6.5 -3t-1.5 -6l-70 -116q-4 -6 -13 -6h-20q-12 0 -7 10l51 115q2 6 9 6zM58 504h270q26 0 26 -24v-15q0 -20 -14 -40l-239 -370q-5 -8 2 -8h242q7 0 7 -7v-33q0 -7 -7 -7h-275q-26 0 -26 22v14q0 19 17 42l236 368q7 11 -3 11h-236q-7 0 -7 7v33q0 7 7 7
z" />
    <glyph glyph-name="Zdotaccent" unicode="&#x17b;" horiz-adv-x="482" 
d="M227 900h32q7 0 7 -8v-110q0 -7 -7 -7h-32q-8 0 -8 7v110q0 8 8 8zM77 700h323q17 0 17 -16v-23q0 -8 -3 -14l-292 -594q-4 -4 2 -4h284q9 0 9 -8v-33q0 -8 -9 -8h-326q-16 0 -16 16v27q0 10 4 17l287 588q3 3 -2 3h-278q-9 0 -9 9v32q0 8 9 8z" />
    <glyph glyph-name="zdotaccent" unicode="&#x17c;" horiz-adv-x="398" 
d="M188 703h31q8 0 8 -8v-109q0 -8 -8 -8h-31q-8 0 -8 8v109q0 8 8 8zM58 504h270q26 0 26 -24v-15q0 -20 -14 -40l-239 -370q-5 -8 2 -8h242q7 0 7 -7v-33q0 -7 -7 -7h-275q-26 0 -26 22v14q0 19 17 42l236 368q7 11 -3 11h-236q-7 0 -7 7v33q0 7 7 7z" />
    <glyph glyph-name="Zcaron" unicode="&#x17d;" horiz-adv-x="482" 
d="M250 793l71 45q8 3 9 -4l11 -22q1 -4 -3 -6l-89 -57l-6 -2q-2 0 -6 2l-89 57q-3 2 -2 6l10 22q3 7 9 4l69 -44l5 -2.5t4 -1.5t3 1.5t4 1.5zM77 700h323q17 0 17 -16v-23q0 -8 -3 -14l-292 -594q-4 -4 2 -4h284q9 0 9 -8v-33q0 -8 -9 -8h-326q-16 0 -16 16v27q0 10 4 17
l287 588q3 3 -2 3h-278q-9 0 -9 9v32q0 8 9 8z" />
    <glyph glyph-name="zcaron" unicode="&#x17e;" horiz-adv-x="398" 
d="M211 633l71 45q7 1 9 -4l10 -22q1 -4 -2 -6l-90 -57q-3 -3 -5 -3q-3 0 -6 3l-89 57q-5 2 -3 6l11 22q2 5 9 4l69 -44q1 0 4.5 -2t4.5 -2t3.5 1.5t3.5 1.5zM58 504h270q26 0 26 -24v-15q0 -20 -14 -40l-239 -370q-5 -8 2 -8h242q7 0 7 -7v-33q0 -7 -7 -7h-275
q-26 0 -26 22v14q0 19 17 42l236 368q7 11 -3 11h-236q-7 0 -7 7v33q0 7 7 7z" />
    <glyph glyph-name="florin" unicode="&#x192;" horiz-adv-x="311" 
d="M111 504v45q0 87 26 120t96 33q46 0 68 -8q12 -3 11 -17l-2 -20q0 -7 -7 -7q-2 0 -12.5 1.5t-26 3t-29.5 1.5q-43 0 -58.5 -20.5t-15.5 -79.5v-52q0 -5 5 -5h116q7 0 7 -6v-32q0 -6 -7 -6h-116q-5 0 -5 -5v-432q0 -86 -26.5 -119.5t-95.5 -33.5q-39 0 -68 8q-12 3 -12 17
l3 20q0 8 7 8q2 0 12.5 -2t26 -3.5t29.5 -1.5q43 0 58.5 20.5t15.5 79.5v440q0 4 -4 4h-66q-7 0 -7 6v32q0 6 7 6h66q4 0 4 5z" />
    <glyph glyph-name="Oslashacute" unicode="&#x1fe;" horiz-adv-x="564" 
d="M272 748h-20q-12 0 -4 10l92 91q9 11 25 4l23 -13q9 -5 1 -12l-92 -73q-11 -7 -25 -7zM488 783l-48 -129q30 -38 41 -108.5t11 -193.5q0 -107 -7 -170t-29.5 -109t-62.5 -63.5t-107 -17.5q-58 0 -94 14l-37 -98q-4 -7 -13 -7h-29q-9 0 -6 7l46 119q-44 34 -59 108.5
t-15 216.5q0 85 4.5 140t17 99.5t36 68.5t59.5 36t90 12q75 0 117 -23l38 99q1 7 9 7h33q7 0 5 -8zM286 43q64 0 95.5 25.5t43.5 88.5t12 194t-12 193.5t-43 88t-96 25.5t-96 -25.5t-43 -88t-12 -193.5t12 -194t43.5 -88.5t95.5 -25.5z" />
    <glyph glyph-name="oslashacute" unicode="&#x1ff;" horiz-adv-x="456" 
d="M260 704h44q5 0 6.5 -3t-1.5 -6l-70 -116q-3 -7 -12 -7h-21q-12 0 -7 11l51 114q2 7 10 7zM308 598h31q9 0 5 -7l-27 -96q47 -20 65 -75t18 -168q0 -148 -34.5 -204t-136.5 -56q-25 0 -48 5l-25 -88q-3 -7 -10 -7h-30q-7 0 -5 7l30 98q-48 20 -66.5 76.5t-18.5 168.5
q0 147 34 203t132 56q26 0 52 -4l24 84q4 7 10 7zM228 465q-71 0 -96 -42t-25 -170q0 -129 25.5 -171.5t95.5 -42.5t95.5 42.5t25.5 171.5q0 128 -25 170t-96 42z" />
    <glyph glyph-name="Scommaaccent" unicode="&#x218;" horiz-adv-x="494" 
d="M88 22l2 24q0 7 8 7q3 0 18.5 -2.5t45.5 -5t67 -2.5q87 0 117.5 30.5t30.5 100.5q0 58 -29 89.5t-111 75.5q-49 26 -72 40.5t-47 38t-32 51.5t-8 70q0 92 42 130.5t147 38.5q88 0 133 -9q12 -1 12 -14l-2 -31q-2 -7 -8 -7q-2 0 -20 2.5t-48.5 5t-61.5 2.5
q-78 0 -108.5 -27.5t-30.5 -95.5q0 -16 2.5 -29t4.5 -22.5t11.5 -20t14 -16t20.5 -15.5t24 -14.5t32 -17.5t36 -20q93 -53 123.5 -91t30.5 -115q0 -94 -44 -137.5t-149 -43.5q-94 0 -138 12q-9 2 -11.5 5.5t-1.5 12.5zM257 -27h33q8 0 8 -8v-41q0 -30 -7.5 -51t-28.5 -59
q-7 -7 -16 -6l-12 2q-5 0 -7 1.5t-1 5.5q23 58 23 109v39q0 8 8 8z" />
    <glyph glyph-name="scommaaccent" unicode="&#x219;" horiz-adv-x="398" 
d="M216 229l-65 33q-35 17 -52 29t-30 38.5t-13 67.5q0 62 38 88t115 26t115 -9q11 -2 11 -15l-3 -19q0 -8 -8 -8q-1 0 -42 3.5t-68 3.5q-53 0 -80.5 -15t-27.5 -57q0 -38 17 -56.5t63 -41.5l62 -29q58 -28 80.5 -54.5t22.5 -75.5q0 -72 -37.5 -109t-126.5 -37q-73 0 -111 9
q-13 2 -13 15l2 22q2 7 8 7q3 0 19.5 -2t42 -4t50.5 -2q116 0 116 94q0 36 -17 54t-68 44zM196 -27h32q9 0 9 -8v-41q0 -29 -7.5 -49.5t-29.5 -60.5q-7 -7 -15 -6l-13 2q-5 0 -7 1.5t-1 5.5q23 58 23 109v39q0 8 9 8z" />
    <glyph glyph-name="uni021A" unicode="&#x21a;" horiz-adv-x="450" 
d="M32 701h386q8 0 8 -9v-32q0 -8 -8 -8h-161q-6 0 -6 -6v-638q0 -8 -8 -8h-36q-8 0 -8 8v638q0 6 -6 6h-161q-9 0 -9 8v32q0 9 9 9zM210 -27h33q8 0 8 -8v-41q0 -29 -7.5 -49.5t-29.5 -60.5q-6 -7 -15 -6l-13 2q-9 0 -7 7q23 62 23 109v39q0 8 8 8z" />
    <glyph glyph-name="uni021B" unicode="&#x21b;" horiz-adv-x="283" 
d="M69 603h28q10 0 10 -10l3 -81q0 -8 9 -8h115q9 0 9 -9v-27q0 -9 -9 -9h-116q-7 0 -7 -5v-344q0 -42 15.5 -56t57.5 -14q17 0 38 3l22 3q7 0 7 -8l3 -22q1 -11 -12 -15q-27 -9 -63 -9q-68 0 -93 26.5t-25 91.5v486q0 7 8 7zM138 -27h33q8 0 8 -8v-41q0 -29 -7.5 -49.5
t-29.5 -60.5q-6 -7 -15 -6l-13 2q-9 0 -7 7q23 62 23 109v39q0 8 8 8z" />
    <glyph glyph-name="circumflex" unicode="&#x2c6;" horiz-adv-x="316" 
d="M163 681l89 -57q5 -3 3 -7l-11 -23q-2 -6 -9 -3l-72 45q-6 3 -12 0l-72 -45q-7 -3 -9 3l-11 23q-1 3 3 7l90 57q6 3 11 0z" />
    <glyph glyph-name="caron" unicode="&#x2c7;" horiz-adv-x="332" 
d="M172 630l72 45q7 2 8 -4l11 -22q1 -4 -2 -7l-90 -57q-4 -2 -5 -2q-4 0 -6 2l-90 57q-3 3 -2 7l11 22q1 6 8 4l69 -44q2 -1 5.5 -2.5t4.5 -1.5z" />
    <glyph glyph-name="breve" unicode="&#x2d8;" horiz-adv-x="334" 
d="M242 659h21q6 0 6 -6q-3 -76 -102 -76q-102 0 -102 76q0 6 5 6h21q7 0 8 -8q7 -37 68 -37q60 0 67 37q1 8 8 8z" />
    <glyph glyph-name="dotaccent" unicode="&#x2d9;" horiz-adv-x="194" 
d="M81 700h32q8 0 8 -8v-110q0 -7 -8 -7h-32q-7 0 -7 7v110q0 8 7 8z" />
    <glyph glyph-name="ring" unicode="&#x2da;" horiz-adv-x="252" 
d="M126 687q63 0 63 -66q0 -67 -63 -67t-63 67q0 66 63 66zM126 659q-32 0 -32 -38t32 -38t32 38t-32 38z" />
    <glyph glyph-name="ogonek" unicode="&#x2db;" horiz-adv-x="254" 
d="M171 19l18 -19q-45 -13 -64 -36t-19 -62q0 -58 40 -58q12 0 24 1.5t15 1.5q8 0 8 -8v-10q0 -7 -11 -13q-16 -8 -49 -8q-36 0 -54 19t-18 66q0 46 25.5 75t84.5 51z" />
    <glyph glyph-name="tilde" unicode="&#x2dc;" horiz-adv-x="331" 
d="M262 678q11 0 14.5 -2t2.5 -7q-12 -77 -65 -77q-22 0 -51.5 20t-41.5 20t-19 -6t-14 -26q-5 -11 -20 -11q-10 0 -13.5 2t-2.5 7q14 72 63 72q23 0 53 -20t41 -20q24 0 34 38q4 10 19 10z" />
    <glyph glyph-name="hungarumlaut" unicode="&#x2dd;" horiz-adv-x="308" 
d="M114 700h38q9 0 6 -7l-49 -124q-3 -7 -10 -7h-21q-10 0 -8 9l35 122q1 7 9 7zM217 700h41q9 0 4 -8l-68 -124q-2 -6 -9 -6h-23q-11 0 -7 10l53 122q2 6 9 6z" />
    <glyph glyph-name="commaaccentcomb" unicode="&#x326;" horiz-adv-x="0" 
d="M74 -27h33q8 0 8 -8v-41q0 -30 -7.5 -51t-29.5 -59q-6 -7 -15 -6l-13 2q-9 0 -7 7q23 57 23 109v39q0 8 8 8z" />
    <glyph glyph-name="mu" unicode="&#x3bc;" horiz-adv-x="486" 
d="M367 506h35q7 0 7 -7v-274q0 -108 -32 -146.5t-123 -38.5q-67 0 -121 40q-4 0 -4 -4v-241q0 -6 -7 -6h-37q-6 0 -6 6v664q0 7 8 7h36q7 0 7 -7v-323q0 -35 20 -57q36 -32 97 -32q65 0 88.5 27t23.5 110v275q0 7 8 7z" />
    <glyph glyph-name="Wgrave" unicode="&#x1e80;" horiz-adv-x="764" 
d="M269 844l34 14q10 3 17 -5l83 -90q10 -13 -4 -13h-17q-13 0 -21 8l-93 74q-6 6 1 12zM622 700h40q7 0 7 -7v-481q0 -39 -21 -64l-107 -142q-11 -15 -28 -14.5t-30 16.5l-98 132q-1 4 -5 0l-96 -129q-14 -17 -31.5 -17.5t-30.5 16.5l-106 138q-20 25 -20 64v481q0 7 6 7
h40q6 0 6 -7v-489q0 -11 11 -26l85 -118q8 -10 15 0l87 120q10 12 10 22v491q0 7 7 7h39q7 0 7 -7v-491q0 -12 10 -23l87 -119q7 -10 14 0l85 118q11 16 11 26v489q0 7 6 7z" />
    <glyph glyph-name="wgrave" unicode="&#x1e81;" horiz-adv-x="687" 
d="M258 703h41q7 0 10 -7l53 -113q4 -11 -7 -11h-15q-10 0 -16 7l-71 117q-3 7 5 7zM569 504h33q8 0 8 -9v-292q0 -35 -26 -71l-78 -115q-18 -25 -41 -25t-41 25l-78 116q-2 3 -3 3t-3 -3l-82 -116q-20 -25 -38 -25q-20 0 -39 25l-80 116q-24 32 -24 70v292q0 9 8 9h33
q9 0 9 -9v-291q0 -21 15 -43l69 -108q6 -8 9 -8q5 0 10 8l74 108q14 22 14 43v294q0 6 7 6h38q5 0 5 -6v-294q0 -19 15 -43l70 -108q6 -9 11 -9q7 0 13 9l68 108q15 21 15 43v291q0 9 9 9z" />
    <glyph glyph-name="Wacute" unicode="&#x1e82;" horiz-adv-x="764" 
d="M475 853l23 -13q8 -5 1 -12l-92 -73q-11 -7 -26 -7h-19q-12 0 -4 10l92 91q8 12 25 4zM622 700h40q7 0 7 -7v-481q0 -39 -21 -64l-107 -142q-11 -15 -28 -14.5t-30 16.5l-98 132q-1 4 -5 0l-96 -129q-14 -17 -31.5 -17.5t-30.5 16.5l-106 138q-20 25 -20 64v481q0 7 6 7
h40q6 0 6 -7v-489q0 -11 11 -26l85 -118q8 -10 15 0l87 120q10 12 10 22v491q0 7 7 7h39q7 0 7 -7v-491q0 -12 10 -23l87 -119q7 -10 14 0l85 118q11 16 11 26v489q0 7 6 7z" />
    <glyph glyph-name="wacute" unicode="&#x1e83;" horiz-adv-x="687" 
d="M377 703h45q12 0 5 -9l-71 -116q-4 -6 -12 -6h-20q-14 0 -7 10l50 115q3 6 10 6zM569 504h33q8 0 8 -9v-292q0 -35 -26 -71l-78 -115q-18 -25 -41 -25t-41 25l-78 116q-2 3 -3 3t-3 -3l-82 -116q-20 -25 -38 -25q-20 0 -39 25l-80 116q-24 32 -24 70v292q0 9 8 9h33
q9 0 9 -9v-291q0 -21 15 -43l69 -108q6 -8 9 -8q5 0 10 8l74 108q14 22 14 43v294q0 6 7 6h38q5 0 5 -6v-294q0 -19 15 -43l70 -108q6 -9 11 -9q7 0 13 9l68 108q15 21 15 43v291q0 9 9 9z" />
    <glyph glyph-name="Wdieresis" unicode="&#x1e84;" horiz-adv-x="764" 
d="M311 848h32q8 0 8 -8v-82q0 -8 -8 -8h-32q-7 0 -7 8v82q0 8 7 8zM420 848h31q8 0 8 -8v-82q0 -8 -8 -8h-31q-8 0 -8 8v82q0 8 8 8zM622 700h40q7 0 7 -7v-481q0 -39 -21 -64l-107 -142q-11 -15 -28 -14.5t-30 16.5l-98 132q-1 4 -5 0l-96 -129q-14 -17 -31.5 -17.5
t-30.5 16.5l-106 138q-20 25 -20 64v481q0 7 6 7h40q6 0 6 -7v-489q0 -11 11 -26l85 -118q8 -10 15 0l87 120q10 12 10 22v491q0 7 7 7h39q7 0 7 -7v-491q0 -12 10 -23l87 -119q7 -10 14 0l85 118q11 16 11 26v489q0 7 6 7z" />
    <glyph glyph-name="wdieresis" unicode="&#x1e85;" horiz-adv-x="687" 
d="M279 703h29q8 0 8 -8v-109q0 -8 -8 -8h-29q-8 0 -8 8v109q0 8 8 8zM380 703h30q8 0 8 -8v-109q0 -8 -8 -8h-30q-7 0 -7 8v109q0 8 7 8zM569 504h33q8 0 8 -9v-292q0 -35 -26 -71l-78 -115q-18 -25 -41 -25t-41 25l-78 116q-2 3 -3 3t-3 -3l-82 -116q-20 -25 -38 -25
q-20 0 -39 25l-80 116q-24 32 -24 70v292q0 9 8 9h33q9 0 9 -9v-291q0 -21 15 -43l69 -108q6 -8 9 -8q5 0 10 8l74 108q14 22 14 43v294q0 6 7 6h38q5 0 5 -6v-294q0 -19 15 -43l70 -108q6 -9 11 -9q7 0 13 9l68 108q15 21 15 43v291q0 9 9 9z" />
    <glyph glyph-name="Ygrave" unicode="&#x1ef2;" horiz-adv-x="528" 
d="M153 844l34 14q9 3 16 -5l84 -90q8 -13 -5 -13h-17q-12 0 -21 8l-93 74q-7 7 2 12zM400 700h39q7 0 7 -7v-192q0 -36 -23 -63l-116 -141q-13 -18 -13 -35v-255q0 -7 -7 -7h-38q-7 0 -7 7v255q0 20 -14 35l-124 141q-22 24 -22 63v192q0 7 7 7h39q7 0 7 -7v-191
q0 -20 12 -32l112 -133q10 -11 18 1l105 132q12 16 12 34v189q0 7 6 7z" />
    <glyph glyph-name="ygrave" unicode="&#x1ef3;" horiz-adv-x="489" 
d="M160 703h42q6 0 10 -7l52 -113q4 -11 -6 -11h-16q-11 0 -15 7l-71 117q-4 7 4 7zM365 504h35q7 0 7 -8v-498q0 -93 -35 -136t-133 -43q-71 0 -115 13q-14 4 -13 16l2 23q2 7 8 7q3 0 21 -3t44.5 -6t48.5 -3q76 0 99.5 31t23.5 100v84q0 3 -3 1q-41 -41 -120 -41
q-85 0 -119 38t-34 137v280q0 8 8 8h35q7 0 7 -8v-277q0 -79 24.5 -105t88.5 -26q53 0 82.5 22t29.5 55v331q0 8 8 8z" />
    <glyph glyph-name="uni2009" unicode="&#x2009;" horiz-adv-x="43" 
 />
    <glyph glyph-name="endash" unicode="&#x2013;" horiz-adv-x="451" 
d="M67 295h316q8 0 8 -6v-31q0 -7 -8 -7h-316q-7 0 -7 7v31q0 6 7 6z" />
    <glyph glyph-name="emdash" unicode="&#x2014;" horiz-adv-x="535" 
d="M67 294h400q8 0 8 -7v-30q0 -7 -8 -7h-400q-7 0 -7 7v30q0 7 7 7z" />
    <glyph glyph-name="quoteleft" unicode="&#x2018;" horiz-adv-x="178" 
d="M93 505h-33q-8 0 -8 8v84q0 29 8.5 51.5t32.5 59.5q6 7 15 6l13 -1q10 -2 8 -8q-28 -56 -28 -110v-82q0 -8 -8 -8z" />
    <glyph glyph-name="quoteright" unicode="&#x2019;" horiz-adv-x="178" 
d="M77 700h33q8 0 8 -8v-84q0 -29 -9 -51t-33 -60q-4 -7 -15 -6l-12 1q-10 2 -8 8q28 58 28 110v82q0 8 8 8z" />
    <glyph glyph-name="quotesinglbase" unicode="&#x201a;" horiz-adv-x="178" 
d="M77 117h33q8 0 8 -9v-84q0 -28 -8.5 -50t-33.5 -61q-4 -7 -15 -6l-13 2q-9 2 -7 7q27 55 27 111v81q0 9 9 9z" />
    <glyph glyph-name="quotedblleft" unicode="&#x201c;" horiz-adv-x="270" 
d="M118 714l13 -1q9 -2 7 -8q-28 -56 -28 -110v-82q0 -8 -8 -8h-33q-8 0 -8 8v84q0 29 9 51t33 60q5 8 15 6zM209 714l12 -1q10 -2 8 -8q-28 -56 -28 -110v-82q0 -8 -8 -8h-33q-8 0 -8 8v84q0 29 9 51t33 60q4 7 15 6z" />
    <glyph glyph-name="quotedblright" unicode="&#x201d;" horiz-adv-x="270" 
d="M82 700h33q8 0 8 -8v-84q0 -29 -8.5 -51.5t-32.5 -59.5q-6 -7 -15 -6l-13 1q-10 2 -8 8q28 58 28 110v82q0 8 8 8zM173 700h33q8 0 8 -8v-84q0 -29 -8.5 -51t-32.5 -60q-6 -7 -16 -6l-12 1q-10 2 -8 8q28 58 28 110v82q0 8 8 8z" />
    <glyph glyph-name="quotedblbase" unicode="&#x201e;" horiz-adv-x="270" 
d="M77 100h33q8 0 8 -8v-84q0 -29 -8.5 -50.5t-33.5 -60.5q-4 -7 -15 -6l-13 1q-10 2 -7 8q27 56 27 110v82q0 8 9 8zM168 100h32q9 0 9 -8v-84q0 -29 -8.5 -50.5t-33.5 -60.5q-5 -7 -15 -6l-13 1q-10 2 -7 8q27 56 27 110v82q0 8 9 8z" />
    <glyph glyph-name="dagger" unicode="&#x2020;" horiz-adv-x="354" 
d="M162 700h30q7 0 7 -7v-186q0 -7 7 -7h90q7 0 7 -7v-24q0 -8 -7 -8h-90q-7 0 -7 -6v-448q0 -7 -7 -7h-30q-7 0 -7 7v448q0 6 -7 6h-91q-7 0 -7 7v25q0 7 7 7h91q7 0 7 7v186q0 7 7 7z" />
    <glyph glyph-name="daggerdbl" unicode="&#x2021;" horiz-adv-x="354" 
d="M162 700h30q7 0 7 -7v-173q0 -7 7 -7h90q7 0 7 -7v-24q0 -8 -7 -8h-90q-7 0 -7 -6v-98q0 -3 7 -3h90q7 0 7 -7v-24q0 -7 -7 -7h-90q-7 0 -7 -6v-316q0 -7 -7 -7h-30q-7 0 -7 7v315q0 7 -7 7h-91q-7 0 -7 7v24q0 7 7 7h91q7 0 7 3v98q0 6 -7 6h-91q-7 0 -7 7v25q0 7 7 7
h91q7 0 7 7v173q0 7 7 7z" />
    <glyph glyph-name="bullet" unicode="&#x2022;" horiz-adv-x="289" 
d="M105 382h79q10 0 10 -10v-92q0 -9 -10 -9h-79q-10 0 -10 9v92q0 10 10 10z" />
    <glyph glyph-name="ellipsis" unicode="&#x2026;" horiz-adv-x="472" 
d="M82 150h34q8 0 8 -8v-134q0 -8 -8 -8h-34q-8 0 -8 8v134q0 8 8 8zM219 150h34q8 0 8 -8v-134q0 -8 -8 -8h-34q-8 0 -8 8v134q0 8 8 8zM356 150h35q8 0 8 -8v-134q0 -8 -8 -8h-35q-7 0 -7 8v134q0 8 7 8z" />
    <glyph glyph-name="perthousand" unicode="&#x2030;" horiz-adv-x="905" 
d="M183 707q56 0 78.5 -30t22.5 -111q0 -77 -23.5 -110.5t-77.5 -33.5t-77.5 33t-23.5 111q0 80 22.5 110.5t78.5 30.5zM492 700h22q10 0 5 -7l-372 -685q-4 -8 -12 -8h-22q-10 0 -4 9l370 683q5 8 13 8zM183 667q-32 0 -45.5 -19.5t-13.5 -81.5t13.5 -83t45.5 -21
q34 0 47 20.5t13 83.5t-12.5 82t-47.5 19zM451 280q56 0 78.5 -30t22.5 -111q0 -78 -23.5 -111t-77.5 -33t-77.5 33t-23.5 111q0 80 22.5 110.5t78.5 30.5zM722 280q56 0 78.5 -30.5t22.5 -110.5q0 -78 -23.5 -111t-77.5 -33t-77.5 33t-23.5 111q0 80 22.5 110.5t78.5 30.5z
M451 240q-32 0 -45.5 -20t-13.5 -81q0 -63 13.5 -83.5t45.5 -20.5q35 0 47.5 20t12.5 84q0 62 -12.5 81.5t-47.5 19.5zM722 240q-33 0 -46 -20t-13 -81q0 -63 13 -83.5t46 -20.5q34 0 46.5 20t12.5 84q0 62 -12.5 81.5t-46.5 19.5z" />
    <glyph glyph-name="guilsinglleft" unicode="&#x2039;" horiz-adv-x="281" 
d="M197 426l20 -20q5 -4 0 -9l-109 -131q-4 -5 0 -9l109 -131q5 -4 0 -9l-20 -20q-5 -5 -10 1l-120 142q-17 21 0 42l120 144q5 5 10 0z" />
    <glyph glyph-name="guilsinglright" unicode="&#x203a;" horiz-adv-x="281" 
d="M94 426l120 -144q18 -21 0 -42l-120 -142q-4 -6 -9 -1l-20 20q-5 5 0 9l108 131q5 4 0 9l-109 131q-3 5 1 9l20 20q5 5 9 0z" />
    <glyph glyph-name="fraction" unicode="&#x2044;" horiz-adv-x="126" 
d="M169 711h18q6 0 5 -7l-224 -709q-2 -8 -10 -8h-17q-9 0 -7 7l225 710q1 7 10 7z" />
    <glyph glyph-name="Euro" unicode="&#x20ac;" horiz-adv-x="523" 
d="M463 42l1 -19q1 -15 -12 -19q-42 -12 -129 -12q-114 0 -158.5 54t-51.5 204h-71q-6 0 -6 6v25q0 7 6 7h69v64v60h-69q-6 0 -6 7v24q0 7 6 7h71q8 152 53.5 205t159.5 53q80 0 120 -9q12 -1 12 -15l-2 -26q-2 -7 -8 -7l-44 4q-44 4 -73 4q-44 0 -70.5 -7t-47.5 -29.5
t-31 -63.5t-14 -109h288q6 0 6 -7l-4 -24q-2 -7 -9 -7h-282l-1 -60q0 -44 1 -64h266q9 0 7 -7l-5 -24q0 -7 -9 -7h-258q4 -89 22 -134t49.5 -60t92.5 -15q29 0 57 2.5t45.5 4.5t20.5 2q6 0 8 -8z" />
    <glyph glyph-name="trademark" unicode="&#x2122;" horiz-adv-x="777" 
d="M88 701h248q7 0 7 -7v-27q0 -7 -7 -7h-101q-5 0 -5 -5v-329q0 -8 -7 -8h-28q-6 0 -8 8v330q0 5 -5 5h-94q-7 0 -7 7v26q0 7 7 7zM668 700h13q6 0 6 -7v-368q0 -7 -6 -7h-30q-7 0 -7 7v268q0 2 -1 2.5t-2 -1.5l-75 -117q-7 -9 -15 -8.5t-13 7.5l-74 118q-2 1 -4 -2v-267
q0 -7 -7 -7h-29q-7 0 -7 7v368q0 7 7 7h14q7 0 11 -5l101 -162q3 -5 6 0l101 162q4 5 11 5z" />
    <glyph glyph-name="oneeighth" unicode="&#x215b;" horiz-adv-x="679" 
d="M438 711h18q7 0 6 -7l-225 -709q-2 -8 -10 -8h-17q-8 0 -6 7l225 710q1 7 9 7zM70 669v15q0 10 8 13q14 7 47 7q62 0 62 -48v-336q0 -5 -6 -5h-29q-5 0 -5 5v318q0 17 -6.5 23.5t-25.5 6.5q-11 0 -25 -2l-14 -2q-6 0 -6 5zM502 204l-36 38q-18 19 -26.5 34t-8.5 38
q0 37 24 56.5t82 19.5q57 0 81 -19t24 -56q0 -40 -34 -74l-36 -36q-3 -3 -1 -5l37 -40q42 -44 42 -81q0 -39 -25 -60t-89 -21q-63 0 -87.5 20.5t-24.5 60.5q0 37 41 80l37 41q1 2 0 4zM541 221l37 37q25 23 25 50q0 25 -14 36.5t-52 11.5t-52.5 -11.5t-14.5 -36.5
q0 -26 24 -50l39 -38q4 -3 8 1zM577 142l-37 41q-3 3 -6 0l-39 -41q-31 -34 -31 -59q0 -26 15 -38t58 -12t58 12t15 38q0 24 -33 59z" />
    <glyph glyph-name="threeeighths" unicode="&#x215c;" horiz-adv-x="700" 
d="M460 711h18q8 0 5 -7l-224 -709q-2 -8 -10 -8h-17q-3 0 -5 2t-1 5l224 710q3 7 10 7zM42 669l-2 17q-1 8 7 10q16 9 75 9q66 0 91.5 -24t25.5 -73q0 -69 -49 -85q-6 -1 0 -3q62 -11 62 -91q0 -58 -28 -88t-97 -30q-52 0 -79 9q-7 3 -6 11l2 17q0 5 5 5q2 0 13 -1.5
t28.5 -3t34.5 -1.5q48 0 67.5 19.5t19.5 63.5q0 39 -16.5 55.5t-59.5 16.5h-45q-7 0 -7 6v21q0 8 7 8h40q38 0 52.5 15.5t14.5 50.5t-18 51t-62 16q-16 0 -32 -1.5t-26 -3t-12 -1.5q-6 0 -6 5zM524 204l-37 38q-34 37 -34 72q0 37 24 56.5t82 19.5q57 0 81 -19t24 -56
q0 -41 -35 -74l-36 -36q-2 -3 0 -5l37 -40q42 -44 42 -81q0 -39 -25 -60t-89 -21t-88 20.5t-24 60.5q0 37 41 80l37 41q1 2 0 4zM563 221l37 37q25 25 25 50t-14 36.5t-52 11.5t-52.5 -11.5t-14.5 -36.5q0 -26 24 -50l39 -38q4 -3 8 1zM599 142l-37 41q-3 3 -6 0l-39 -41
q-32 -34 -32 -59q0 -26 15.5 -38t58.5 -12t58 12t15 38q0 24 -33 59z" />
    <glyph glyph-name="fiveeighths" unicode="&#x215d;" horiz-adv-x="695" 
d="M455 711h17q7 0 6 -7l-225 -709q-2 -8 -9 -8h-17q-9 0 -7 7l225 710q1 7 10 7zM69 700h158q5 0 5 -4v-26q0 -4 -5 -4h-139q-8 0 -8 -7v-114q32 6 64 6q51 0 75.5 -25.5t24.5 -89.5q0 -65 -28 -95t-90 -30q-50 0 -77 9q-8 2 -7 10l2 19q0 5 4 5q1 0 24.5 -3.5t45.5 -3.5
q48 0 67 19t19 69t-17 66t-56 16q-23 0 -47.5 -4t-25.5 -4q-4 0 -7 3l-5 3q-4 3 -4 8v152q0 25 27 25zM518 204l-36 38q-18 19 -26.5 34t-8.5 38q0 37 24 56.5t82 19.5q106 0 106 -75q0 -39 -35 -74l-36 -36q-3 -3 0 -5l36 -40q42 -44 42 -81q0 -39 -25 -60t-88 -21
q-64 0 -88.5 20.5t-24.5 60.5q0 38 42 80l36 41q1 1 0 4zM557 221l38 37q24 24 24 50q0 25 -14 36.5t-52 11.5t-52.5 -11.5t-14.5 -36.5q0 -26 24 -50l39 -38q4 -3 8 1zM593 142l-37 41q-3 3 -6 0l-39 -41q-31 -34 -31 -59q0 -26 15 -38t58 -12t58 12t15 38q0 24 -33 59z
" />
    <glyph glyph-name="seveneighths" unicode="&#x215e;" horiz-adv-x="684" 
d="M444 711h18q6 0 5 -7l-224 -709q-2 -8 -10 -8h-17q-9 0 -7 7l225 710q1 7 10 7zM47 700h155q33 0 33 -30v-89q0 -55 -26 -97l-104 -169q-2 -6 -9 -2l-20 10q-8 5 -5 10l101 169q24 38 24 81v72q0 9 -9 9h-140q-7 0 -7 7v22q0 7 7 7zM508 204l-37 38q-34 36 -34 72
q0 37 23.5 56.5t81.5 19.5q106 0 106 -75q0 -41 -35 -74l-36 -36q-3 -3 0 -5l36 -40q43 -43 43 -81q0 -39 -25 -60t-89 -21t-88.5 20.5t-24.5 60.5q0 38 42 80l37 41q1 2 0 4zM546 221l38 37q25 25 25 50t-14 36.5t-52 11.5q-39 0 -53 -11.5t-14 -36.5q0 -28 24 -50l39 -38
q4 -2 7 1zM582 142l-37 41q-2 2 -6 0l-38 -41q-32 -34 -32 -59q0 -26 15.5 -38t58.5 -12q42 0 57.5 12t15.5 38q0 25 -34 59z" />
    <glyph glyph-name="minus" unicode="&#x2212;" horiz-adv-x="474" 
d="M89 325h296q8 0 8 -7v-29q0 -8 -8 -8h-296q-7 0 -7 7v30q0 7 7 7z" />
    <glyph glyph-name="A.ss01" horiz-adv-x="552" 
d="M319 673l194 -665q3 -8 -7 -8h-40q-6 0 -8 7l-53 189h-257l-53 -189q-2 -7 -8 -7h-42q-9 0 -6 8l195 665q9 27 40 27h7q31 0 38 -27zM391 244l-109 390q-1 4 -6 4t-6 -4l-109 -390h230z" />
    <glyph glyph-name="Aacute.ss01" horiz-adv-x="552" 
d="M276 748h-19q-12 0 -4 10l92 91q8 12 25 4l22 -13q9 -5 2 -12l-92 -73q-11 -7 -26 -7zM319 673l194 -665q3 -8 -7 -8h-40q-6 0 -8 7l-53 189h-257l-53 -189q-2 -7 -8 -7h-42q-9 0 -6 8l195 665q9 27 40 27h7q31 0 38 -27zM391 244l-109 390q-1 4 -6 4t-6 -4l-109 -390
h230z" />
    <glyph glyph-name="Abreve.ss01" horiz-adv-x="552" 
d="M352 843h21q6 0 6 -6q-4 -76 -103 -76q-101 0 -101 76q0 6 5 6h21q7 0 8 -7q4 -20 19 -29t48 -9t48.5 9t19.5 29q1 7 8 7zM319 673l194 -665q3 -8 -7 -8h-40q-6 0 -8 7l-53 189h-257l-53 -189q-2 -7 -8 -7h-42q-9 0 -6 8l195 665q9 27 40 27h7q31 0 38 -27zM391 244
l-109 390q-1 4 -6 4t-6 -4l-109 -390h230z" />
    <glyph glyph-name="Acircumflex.ss01" horiz-adv-x="552" 
d="M188 752l-11 22q-2 5 3 7l90 57q6 3 11 0l89 -57q5 -2 3 -7l-11 -22q-1 -7 -9 -4l-72 45q-5 4 -12 0l-72 -45q-7 -3 -9 4zM319 673l194 -665q3 -8 -7 -8h-40q-6 0 -8 7l-53 189h-257l-53 -189q-2 -7 -8 -7h-42q-9 0 -6 8l195 665q9 27 40 27h7q31 0 38 -27zM391 244
l-109 390q-1 4 -6 4t-6 -4l-109 -390h230z" />
    <glyph glyph-name="Adieresis.ss01" horiz-adv-x="552" 
d="M238 750h-32q-7 0 -7 8v82q0 8 7 8h32q8 0 8 -8v-82q0 -8 -8 -8zM346 750h-31q-8 0 -8 8v82q0 8 8 8h31q8 0 8 -8v-82q0 -8 -8 -8zM319 673l194 -665q3 -8 -7 -8h-40q-6 0 -8 7l-53 189h-257l-53 -189q-2 -7 -8 -7h-42q-9 0 -6 8l195 665q9 27 40 27h7q31 0 38 -27z
M391 244l-109 390q-1 4 -6 4t-6 -4l-109 -390h230z" />
    <glyph glyph-name="Agrave.ss01" horiz-adv-x="552" 
d="M256 758l-93 74q-6 6 1 12l34 14q10 3 17 -5l83 -90q10 -13 -4 -13h-17q-13 0 -21 8zM319 673l194 -665q3 -8 -7 -8h-40q-6 0 -8 7l-53 189h-257l-53 -189q-2 -7 -8 -7h-42q-9 0 -6 8l195 665q9 27 40 27h7q31 0 38 -27zM391 244l-109 390q-1 4 -6 4t-6 -4l-109 -390h230
z" />
    <glyph glyph-name="Amacron.ss01" horiz-adv-x="552" 
d="M379 781h-210q-6 0 -6 8v28q0 7 6 7h210q7 0 7 -7v-28q0 -8 -7 -8zM319 673l194 -665q3 -8 -7 -8h-40q-6 0 -8 7l-53 189h-257l-53 -189q-2 -7 -8 -7h-42q-9 0 -6 8l195 665q9 27 40 27h7q31 0 38 -27zM391 244l-109 390q-1 4 -6 4t-6 -4l-109 -390h230z" />
    <glyph glyph-name="Aogonek.ss01" horiz-adv-x="552" 
d="M319 673l194 -665q3 -8 -6 -8q-45 -13 -64 -36t-19 -62q0 -58 40 -58q11 0 23.5 1.5t15.5 1.5q7 0 7 -8v-10q0 -8 -10 -13q-16 -8 -49 -8q-36 0 -54 19t-18 66q0 40 18.5 67t60.5 46v1l-53 189h-257l-53 -189q-2 -7 -8 -7h-42q-9 0 -6 8l195 665q9 27 40 27h7
q31 0 38 -27zM391 244l-109 390q-1 4 -6 4t-6 -4l-109 -390h230z" />
    <glyph glyph-name="Aring.ss01" horiz-adv-x="552" 
d="M276 754q-62 0 -62 67q0 35 15 50.5t47 15.5q63 0 63 -66q0 -67 -63 -67zM276 859q-31 0 -31 -38t31 -38q32 0 32 38t-32 38zM319 673l194 -665q3 -8 -7 -8h-40q-6 0 -8 7l-53 189h-257l-53 -189q-2 -7 -8 -7h-42q-9 0 -6 8l195 665q9 27 40 27h7q31 0 38 -27zM391 244
l-109 390q-1 4 -6 4t-6 -4l-109 -390h230z" />
    <glyph glyph-name="Atilde.ss01" horiz-adv-x="552" 
d="M178 751q-10 0 -13.5 2t-2.5 7q14 72 64 72q22 0 52 -20t41 -20q25 0 35 38q2 6 5 8t14 2t14.5 -2.5t2.5 -7.5q-14 -77 -66 -77q-21 0 -50.5 20.5t-42.5 20.5q-12 0 -19 -6.5t-14 -25.5q-5 -11 -20 -11zM319 673l194 -665q3 -8 -7 -8h-40q-6 0 -8 7l-53 189h-257
l-53 -189q-2 -7 -8 -7h-42q-9 0 -6 8l195 665q9 27 40 27h7q31 0 38 -27zM391 244l-109 390q-1 4 -6 4t-6 -4l-109 -390h230z" />
    <glyph glyph-name="V.ss01" horiz-adv-x="562" 
d="M469 700h41q10 0 7 -8l-194 -672q-8 -28 -42 -28q-36 0 -43 28l-193 672q-3 8 6 8h41q4 0 8 -7l175 -632q1 -4 6 -4q4 0 5 4l175 632q2 7 8 7z" />
    <glyph glyph-name="W.ss01" horiz-adv-x="765" 
d="M675 700h39q8 0 7 -9l-138 -670q-6 -28 -34 -28h-14q-29 0 -36 28l-115 566q-1 2 -2 2q-2 0 -2 -2l-114 -566q-8 -28 -34 -28h-14q-29 0 -35 27l-138 671q-3 9 7 9h39q8 0 8 -7l122 -628q1 -4 4 -4t5 3l127 624q3 12 16 12h20q13 0 16 -12l129 -623q1 -4 4 -4t4 4
l120 627q2 8 9 8z" />
    <glyph glyph-name="Wacute.ss01" horiz-adv-x="765" 
d="M476 853l23 -13q8 -5 1 -13l-92 -72q-12 -8 -26 -8h-19q-13 0 -4 11l92 91q9 11 25 4zM675 700h39q8 0 7 -9l-138 -670q-6 -28 -34 -28h-14q-29 0 -36 28l-115 566q-1 2 -2 2q-2 0 -2 -2l-114 -566q-8 -28 -34 -28h-14q-29 0 -35 27l-138 671q-3 9 7 9h39q8 0 8 -7
l122 -628q1 -4 4 -4t5 3l127 624q3 12 16 12h20q13 0 16 -12l129 -623q1 -4 4 -4t4 4l120 627q2 8 9 8z" />
    <glyph glyph-name="Wcircumflex.ss01" horiz-adv-x="765" 
d="M387 838l89 -57q4 -3 3 -7l-11 -23q-2 -6 -9 -3l-72 45q-5 4 -11 0l-73 -45q-7 -3 -9 3l-10 23q-1 4 2 7l90 57q6 3 11 0zM675 700h39q8 0 7 -9l-138 -670q-6 -28 -34 -28h-14q-29 0 -36 28l-115 566q-1 2 -2 2q-2 0 -2 -2l-114 -566q-8 -28 -34 -28h-14q-29 0 -35 27
l-138 671q-3 9 7 9h39q8 0 8 -7l122 -628q1 -4 4 -4t5 3l127 624q3 12 16 12h20q13 0 16 -12l129 -623q1 -4 4 -4t4 4l120 627q2 8 9 8z" />
    <glyph glyph-name="Wdieresis.ss01" horiz-adv-x="765" 
d="M313 848h31q8 0 8 -8v-82q0 -8 -8 -8h-31q-8 0 -8 8v82q0 8 8 8zM421 848h31q8 0 8 -8v-82q0 -8 -8 -8h-31q-8 0 -8 8v82q0 8 8 8zM675 700h39q8 0 7 -9l-138 -670q-6 -28 -34 -28h-14q-29 0 -36 28l-115 566q-1 2 -2 2q-2 0 -2 -2l-114 -566q-8 -28 -34 -28h-14
q-29 0 -35 27l-138 671q-3 9 7 9h39q8 0 8 -7l122 -628q1 -4 4 -4t5 3l127 624q3 12 16 12h20q13 0 16 -12l129 -623q1 -4 4 -4t4 4l120 627q2 8 9 8z" />
    <glyph glyph-name="Wgrave.ss01" horiz-adv-x="765" 
d="M271 844l33 14q11 3 17 -5l83 -91q10 -12 -4 -12h-17q-12 0 -21 8l-93 74q-7 7 2 12zM675 700h39q8 0 7 -9l-138 -670q-6 -28 -34 -28h-14q-29 0 -36 28l-115 566q-1 2 -2 2q-2 0 -2 -2l-114 -566q-8 -28 -34 -28h-14q-29 0 -35 27l-138 671q-3 9 7 9h39q8 0 8 -7
l122 -628q1 -4 4 -4t5 3l127 624q3 12 16 12h20q13 0 16 -12l129 -623q1 -4 4 -4t4 4l120 627q2 8 9 8z" />
    <glyph glyph-name="Y.ss01" horiz-adv-x="528" 
d="M445 700h35q12 0 7 -12l-188 -394q-5 -12 -5 -21v-266q0 -7 -7 -7h-39q-7 0 -7 7v265q0 13 -5 22l-193 393q-7 13 7 13h34q11 0 14 -9l167 -351q3 -7 7 0l160 350q5 10 13 10z" />
    <glyph glyph-name="Yacute.ss01" horiz-adv-x="528" 
d="M358 853l23 -13q9 -5 1 -12l-92 -73q-11 -7 -25 -7h-20q-12 0 -4 10l92 91q9 11 25 4zM445 700h35q12 0 7 -12l-188 -394q-5 -12 -5 -21v-266q0 -7 -7 -7h-39q-7 0 -7 7v265q0 13 -5 22l-193 393q-7 13 7 13h34q11 0 14 -9l167 -351q3 -7 7 0l160 350q5 10 13 10z" />
    <glyph glyph-name="Ycircumflex.ss01" horiz-adv-x="528" 
d="M269 838l89 -57q5 -2 3 -7l-11 -22q-1 -7 -8 -4l-73 45q-4 3 -11 0l-73 -45q-7 -3 -9 4l-10 22q-2 5 2 7l90 57q6 3 11 0zM445 700h35q12 0 7 -12l-188 -394q-5 -12 -5 -21v-266q0 -7 -7 -7h-39q-7 0 -7 7v265q0 13 -5 22l-193 393q-7 13 7 13h34q11 0 14 -9l167 -351
q3 -7 7 0l160 350q5 10 13 10z" />
    <glyph glyph-name="Ydieresis.ss01" horiz-adv-x="528" 
d="M195 848h31q8 0 8 -8v-82q0 -8 -8 -8h-31q-8 0 -8 8v82q0 8 8 8zM303 848h32q7 0 7 -8v-82q0 -8 -7 -8h-32q-8 0 -8 8v82q0 8 8 8zM445 700h35q12 0 7 -12l-188 -394q-5 -12 -5 -21v-266q0 -7 -7 -7h-39q-7 0 -7 7v265q0 13 -5 22l-193 393q-7 13 7 13h34q11 0 14 -9
l167 -351q3 -7 7 0l160 350q5 10 13 10z" />
    <glyph glyph-name="Ygrave.ss01" horiz-adv-x="528" 
d="M153 844l34 14q9 3 16 -5l84 -90q8 -13 -5 -13h-17q-12 0 -21 8l-93 74q-7 7 2 12zM445 700h35q12 0 7 -12l-188 -394q-5 -12 -5 -21v-266q0 -7 -7 -7h-39q-7 0 -7 7v265q0 13 -5 22l-193 393q-7 13 7 13h34q11 0 14 -9l167 -351q3 -7 7 0l160 350q5 10 13 10z" />
    <glyph glyph-name="a.sc.ss01" horiz-adv-x="456" 
d="M268 516l152 -508q2 -8 -6 -8h-39q-5 0 -7 7l-40 138h-198l-40 -138q-2 -7 -8 -7h-40q-8 0 -6 8l153 508q8 24 37 24h7q28 0 35 -24zM315 190l-83 286q-2 3 -4 3t-4 -3l-81 -286h172z" />
    <glyph glyph-name="aacute.sc.ss01" horiz-adv-x="456" 
d="M230 615h-21q-12 0 -7 11l51 114q2 7 10 7h44q5 0 6.5 -3t-1.5 -6l-70 -116q-4 -7 -12 -7zM268 516l152 -508q2 -8 -6 -8h-39q-5 0 -7 7l-40 138h-198l-40 -138q-2 -7 -8 -7h-40q-8 0 -6 8l153 508q8 24 37 24h7q28 0 35 -24zM315 190l-83 286q-2 3 -4 3t-4 -3l-81 -286
h172z" />
    <glyph glyph-name="abreve.sc.ss01" horiz-adv-x="456" 
d="M306 706h20q7 0 7 -6q-4 -76 -103 -76q-101 0 -101 76q0 6 5 6h20q7 0 8 -8q5 -20 20 -28.5t48 -8.5t48 8.5t20 28.5q1 8 8 8zM268 516l152 -508q2 -8 -6 -8h-39q-5 0 -7 7l-40 138h-198l-40 -138q-2 -7 -8 -7h-40q-8 0 -6 8l153 508q8 24 37 24h7q28 0 35 -24zM315 190
l-83 286q-2 3 -4 3t-4 -3l-81 -286h172z" />
    <glyph glyph-name="acircumflex.sc.ss01" horiz-adv-x="456" 
d="M140 641l-10 23q-2 4 2 6l90 57q6 4 11 0l89 -57q5 -2 3 -6l-11 -23q-2 -6 -9 -3l-72 45q-6 3 -12 0l-72 -45q-7 -3 -9 3zM268 516l152 -508q2 -8 -6 -8h-39q-5 0 -7 7l-40 138h-198l-40 -138q-2 -7 -8 -7h-40q-8 0 -6 8l153 508q8 24 37 24h7q28 0 35 -24zM315 190
l-83 286q-2 3 -4 3t-4 -3l-81 -286h172z" />
    <glyph glyph-name="adieresis.sc.ss01" horiz-adv-x="456" 
d="M194 621h-30q-7 0 -7 8v110q0 8 7 8h30q7 0 7 -8v-110q0 -8 -7 -8zM296 621h-30q-8 0 -8 8v110q0 8 8 8h30q7 0 7 -8v-110q0 -8 -7 -8zM268 516l152 -508q2 -8 -6 -8h-39q-5 0 -7 7l-40 138h-198l-40 -138q-2 -7 -8 -7h-40q-8 0 -6 8l153 508q8 24 37 24h7q28 0 35 -24z
M315 190l-83 286q-2 3 -4 3t-4 -3l-81 -286h172z" />
    <glyph glyph-name="agrave.sc.ss01" horiz-adv-x="456" 
d="M210 623l-71 116q-6 8 4 8h42q6 0 10 -8l52 -112q4 -12 -6 -12h-16q-10 0 -15 8zM268 516l152 -508q2 -8 -6 -8h-39q-5 0 -7 7l-40 138h-198l-40 -138q-2 -7 -8 -7h-40q-8 0 -6 8l153 508q8 24 37 24h7q28 0 35 -24zM315 190l-83 286q-2 3 -4 3t-4 -3l-81 -286h172z" />
    <glyph glyph-name="amacron.sc.ss01" horiz-adv-x="456" 
d="M332 660h-209q-7 0 -7 7v28q0 7 7 7h209q8 0 8 -7v-28q0 -7 -8 -7zM268 516l152 -508q2 -8 -6 -8h-39q-5 0 -7 7l-40 138h-198l-40 -138q-2 -7 -8 -7h-40q-8 0 -6 8l153 508q8 24 37 24h7q28 0 35 -24zM315 190l-83 286q-2 3 -4 3t-4 -3l-81 -286h172z" />
    <glyph glyph-name="aogonek.sc.ss01" horiz-adv-x="456" 
d="M268 516l152 -508q2 -8 -6 -8q-44 -13 -63.5 -36t-19.5 -62q0 -58 40 -58q11 0 24 1.5t15 1.5q8 0 8 -8v-10q0 -7 -11 -13q-16 -8 -49 -8q-36 0 -54 19t-18 66q0 40 19 67t62 47l-39 138h-198l-40 -138q-2 -7 -8 -7h-40q-8 0 -6 8l153 508q8 24 37 24h7q28 0 35 -24z
M315 190l-83 286q-2 3 -4 3t-4 -3l-81 -286h172z" />
    <glyph glyph-name="aring.sc.ss01" horiz-adv-x="456" 
d="M230 601q-63 0 -63 67q0 66 63 66t63 -66q0 -67 -63 -67zM230 706q-32 0 -32 -38t32 -38t32 38t-32 38zM268 516l152 -508q2 -8 -6 -8h-39q-5 0 -7 7l-40 138h-198l-40 -138q-2 -7 -8 -7h-40q-8 0 -6 8l153 508q8 24 37 24h7q28 0 35 -24zM315 190l-83 286q-2 3 -4 3
t-4 -3l-81 -286h172z" />
    <glyph glyph-name="atilde.sc.ss01" horiz-adv-x="456" 
d="M127 636q-16 0 -16 9q14 72 64 72q22 0 52.5 -20t41.5 -20q24 0 34 38q2 6 5 8t14 2t14.5 -2t2.5 -7q-14 -78 -65 -78q-22 0 -51.5 20.5t-41.5 20.5q-13 0 -19 -6t-14 -26q-5 -11 -21 -11zM268 516l152 -508q2 -8 -6 -8h-39q-5 0 -7 7l-40 138h-198l-40 -138q-2 -7 -8 -7
h-40q-8 0 -6 8l153 508q8 24 37 24h7q28 0 35 -24zM315 190l-83 286q-2 3 -4 3t-4 -3l-81 -286h172z" />
    <glyph glyph-name="v.sc.ss01" horiz-adv-x="442" 
d="M366 540h39q4 0 6 -2.5t1 -6.5l-151 -510q-8 -27 -42 -27q-35 0 -43 27l-146 510q-2 9 7 9h40q6 0 8 -7l129 -478q0 -4 4 -4q5 0 6 4l133 478q3 7 9 7z" />
    <glyph glyph-name="w.sc.ss01" horiz-adv-x="614" 
d="M541 541h37q9 0 6 -8l-109 -514q-5 -24 -30 -24h-15q-27 0 -32 24l-90 420l-1 2q-2 0 -2 -2l-88 -420q-6 -24 -31 -24h-15q-25 0 -31 23l-109 515q-3 8 6 8h38q7 0 8 -7l94 -477q0 -3 2 -3q4 0 4 3l100 468q2 10 6 13t14 3h9q11 0 15 -3t7 -13l100 -468q0 -2 3 -2t3 3
l92 476q1 7 9 7z" />
    <glyph glyph-name="wacute.sc.ss01" horiz-adv-x="614" 
d="M340 741h44q5 0 6.5 -3t-0.5 -6l-71 -116q-4 -7 -12 -7h-21q-12 0 -7 11l51 114q2 7 10 7zM541 541h37q9 0 6 -8l-109 -514q-5 -24 -30 -24h-15q-27 0 -32 24l-90 420l-1 2q-2 0 -2 -2l-88 -420q-6 -24 -31 -24h-15q-25 0 -31 23l-109 515q-3 8 6 8h38q7 0 8 -7l94 -477
q0 -3 2 -3q4 0 4 3l100 468q2 10 6 13t14 3h9q11 0 15 -3t7 -13l100 -468q0 -2 3 -2t3 3l92 476q1 7 9 7z" />
    <glyph glyph-name="wcircumflex.sc.ss01" horiz-adv-x="614" 
d="M310 721l89 -56q5 -3 3 -7l-11 -23q-1 -6 -9 -3l-72 45q-6 3 -11 0l-73 -45q-7 -3 -9 3l-10 23q-2 3 2 7l90 56q5 4 11 0zM541 541h37q9 0 6 -8l-109 -514q-5 -24 -30 -24h-15q-27 0 -32 24l-90 420l-1 2q-2 0 -2 -2l-88 -420q-6 -24 -31 -24h-15q-25 0 -31 23l-109 515
q-3 8 6 8h38q7 0 8 -7l94 -477q0 -3 2 -3q4 0 4 3l100 468q2 10 6 13t14 3h9q11 0 15 -3t7 -13l100 -468q0 -2 3 -2t3 3l92 476q1 7 9 7z" />
    <glyph glyph-name="wdieresis.sc.ss01" horiz-adv-x="614" 
d="M241 741h30q7 0 7 -8v-110q0 -8 -7 -8h-30q-7 0 -7 8v110q0 8 7 8zM343 741h30q7 0 7 -8v-110q0 -8 -7 -8h-30q-7 0 -7 8v110q0 8 7 8zM541 541h37q9 0 6 -8l-109 -514q-5 -24 -30 -24h-15q-27 0 -32 24l-90 420l-1 2q-2 0 -2 -2l-88 -420q-6 -24 -31 -24h-15
q-25 0 -31 23l-109 515q-3 8 6 8h38q7 0 8 -7l94 -477q0 -3 2 -3q4 0 4 3l100 468q2 10 6 13t14 3h9q11 0 15 -3t7 -13l100 -468q0 -2 3 -2t3 3l92 476q1 7 9 7z" />
    <glyph glyph-name="wgrave.sc.ss01" horiz-adv-x="614" 
d="M220 741h42q7 0 10 -8l52 -112q6 -12 -6 -12h-16q-9 0 -15 8l-71 116q-4 8 4 8zM541 541h37q9 0 6 -8l-109 -514q-5 -24 -30 -24h-15q-27 0 -32 24l-90 420l-1 2q-2 0 -2 -2l-88 -420q-6 -24 -31 -24h-15q-25 0 -31 23l-109 515q-3 8 6 8h38q7 0 8 -7l94 -477q0 -3 2 -3
q4 0 4 3l100 468q2 10 6 13t14 3h9q11 0 15 -3t7 -13l100 -468q0 -2 3 -2t3 3l92 476q1 7 9 7z" />
    <glyph glyph-name="y.sc.ss01" horiz-adv-x="418" 
d="M349 540h31q16 0 8 -14l-144 -306q-5 -11 -5 -26v-186q0 -8 -9 -8h-34q-9 0 -9 8v186q0 17 -5 26l-151 305q-9 15 9 15h29q10 0 15 -9l128 -265q1 -2 2.5 -2t2.5 2l117 264q5 10 15 10z" />
    <glyph glyph-name="yacute.sc.ss01" horiz-adv-x="418" 
d="M241 725h44q5 0 6.5 -3t-0.5 -6l-71 -116q-4 -7 -12 -7h-21q-12 0 -6 11l50 114q1 7 10 7zM349 540h31q16 0 8 -14l-144 -306q-5 -11 -5 -26v-186q0 -8 -9 -8h-34q-9 0 -9 8v186q0 17 -5 26l-151 305q-9 15 9 15h29q10 0 15 -9l128 -265q1 -2 2.5 -2t2.5 2l117 264
q5 10 15 10z" />
    <glyph glyph-name="ycircumflex.sc.ss01" horiz-adv-x="418" 
d="M211 706l89 -57q5 -3 3 -7l-11 -23q-2 -6 -9 -3l-72 45q-6 3 -11 0l-73 -45q-7 -3 -9 3l-10 23q-2 3 2 7l90 57q6 3 11 0zM349 540h31q16 0 8 -14l-144 -306q-5 -11 -5 -26v-186q0 -8 -9 -8h-34q-9 0 -9 8v186q0 17 -5 26l-151 305q-9 15 9 15h29q10 0 15 -9l128 -265
q1 -2 2.5 -2t2.5 2l117 264q5 10 15 10z" />
    <glyph glyph-name="ydieresis.sc.ss01" horiz-adv-x="418" 
d="M142 725h30q7 0 7 -8v-110q0 -7 -7 -7h-30q-7 0 -7 7v110q0 8 7 8zM244 725h30q7 0 7 -8v-110q0 -7 -7 -7h-30q-7 0 -7 7v110q0 8 7 8zM349 540h31q16 0 8 -14l-144 -306q-5 -11 -5 -26v-186q0 -8 -9 -8h-34q-9 0 -9 8v186q0 17 -5 26l-151 305q-9 15 9 15h29q10 0 15 -9
l128 -265q1 -2 2.5 -2t2.5 2l117 264q5 10 15 10z" />
    <glyph glyph-name="ygrave.sc.ss01" horiz-adv-x="418" 
d="M121 725h42q7 0 10 -7l52 -113q6 -12 -6 -12h-16q-9 0 -15 8l-71 116q-4 8 4 8zM349 540h31q16 0 8 -14l-144 -306q-5 -11 -5 -26v-186q0 -8 -9 -8h-34q-9 0 -9 8v186q0 17 -5 26l-151 305q-9 15 9 15h29q10 0 15 -9l128 -265q1 -2 2.5 -2t2.5 2l117 264q5 10 15 10z" />
    <glyph glyph-name="v.ss01" horiz-adv-x="434" 
d="M356 504h38q4 0 6 -2.5t1 -5.5l-147 -477q-7 -25 -33 -25h-13q-26 0 -34 25l-142 477q-2 8 7 8h39q6 0 8 -7l123 -439q1 -4 5 -4q5 0 5 4l129 439q2 7 8 7z" />
    <glyph glyph-name="w.ss01" horiz-adv-x="603" 
d="M528 504h36q9 0 6 -8l-106 -477q-6 -24 -30 -24h-14q-26 0 -31 24l-87 390q0 2 -1 2q-2 0 -2 -2l-86 -390q-6 -24 -30 -24h-14q-24 0 -29 23l-108 478q-2 8 7 8h36q7 0 8 -6l91 -442q2 -3 3 -3q3 0 4 3l98 439q1 9 12 9h21q12 0 13 -9l99 -439q0 -3 3 -3t3 3l90 441
q0 7 8 7z" />
    <glyph glyph-name="wacute.ss01" horiz-adv-x="603" 
d="M334 704h45q5 0 6.5 -3t-1.5 -6l-70 -116q-6 -7 -13 -7h-20q-12 0 -7 11l50 114q3 7 10 7zM528 504h36q9 0 6 -8l-106 -477q-6 -24 -30 -24h-14q-26 0 -31 24l-87 390q0 2 -1 2q-2 0 -2 -2l-86 -390q-6 -24 -30 -24h-14q-24 0 -29 23l-108 478q-2 8 7 8h36q7 0 8 -6
l91 -442q2 -3 3 -3q3 0 4 3l98 439q1 9 12 9h21q12 0 13 -9l99 -439q0 -3 3 -3t3 3l90 441q0 7 8 7z" />
    <glyph glyph-name="wcircumflex.ss01" horiz-adv-x="603" 
d="M305 685l89 -57q4 -4 2 -7l-10 -23q-3 -6 -9 -3l-72 45q-6 3 -12 0l-72 -45q-7 -3 -9 3l-11 23q-1 4 3 7l89 57q6 3 12 0zM528 504h36q9 0 6 -8l-106 -477q-6 -24 -30 -24h-14q-26 0 -31 24l-87 390q0 2 -1 2q-2 0 -2 -2l-86 -390q-6 -24 -30 -24h-14q-24 0 -29 23
l-108 478q-2 8 7 8h36q7 0 8 -6l91 -442q2 -3 3 -3q3 0 4 3l98 439q1 9 12 9h21q12 0 13 -9l99 -439q0 -3 3 -3t3 3l90 441q0 7 8 7z" />
    <glyph glyph-name="wdieresis.ss01" horiz-adv-x="603" 
d="M236 704h29q8 0 8 -8v-110q0 -7 -8 -7h-29q-8 0 -8 7v110q0 8 8 8zM338 704h29q8 0 8 -8v-110q0 -7 -8 -7h-29q-8 0 -8 7v110q0 8 8 8zM528 504h36q9 0 6 -8l-106 -477q-6 -24 -30 -24h-14q-26 0 -31 24l-87 390q0 2 -1 2q-2 0 -2 -2l-86 -390q-6 -24 -30 -24h-14
q-24 0 -29 23l-108 478q-2 8 7 8h36q7 0 8 -6l91 -442q2 -3 3 -3q3 0 4 3l98 439q1 9 12 9h21q12 0 13 -9l99 -439q0 -3 3 -3t3 3l90 441q0 7 8 7z" />
    <glyph glyph-name="wgrave.ss01" horiz-adv-x="603" 
d="M215 704h41q7 0 10 -7l53 -113q4 -12 -7 -12h-15q-10 0 -15 8l-71 116q-6 8 4 8zM528 504h36q9 0 6 -8l-106 -477q-6 -24 -30 -24h-14q-26 0 -31 24l-87 390q0 2 -1 2q-2 0 -2 -2l-86 -390q-6 -24 -30 -24h-14q-24 0 -29 23l-108 478q-2 8 7 8h36q7 0 8 -6l91 -442
q2 -3 3 -3q3 0 4 3l98 439q1 9 12 9h21q12 0 13 -9l99 -439q0 -3 3 -3t3 3l90 441q0 7 8 7z" />
    <glyph glyph-name="a.sc" 
d="M98 418l95 111q16 19 36 19q21 0 37 -20l93 -109q21 -23 21 -53v-358q0 -8 -9 -8h-34q-8 0 -8 8v157q0 7 -6 7h-187q-6 0 -6 -7v-157q0 -8 -8 -8h-35q-8 0 -8 8v358q0 30 19 52zM319 392l-82 99q-8 11 -16 0l-81 -99q-10 -11 -10 -26v-144q0 -6 6 -6h187q6 0 6 6v144
q0 15 -10 26z" />
    <glyph glyph-name="aacute.sc" 
d="M262 725h45q12 0 5 -9l-71 -116q-4 -7 -12 -7h-20q-13 0 -7 11l50 114q3 7 10 7zM98 418l95 111q16 19 36 19q21 0 37 -20l93 -109q21 -23 21 -53v-358q0 -8 -9 -8h-34q-8 0 -8 8v157q0 7 -6 7h-187q-6 0 -6 -7v-157q0 -8 -8 -8h-35q-8 0 -8 8v358q0 30 19 52zM319 392
l-82 99q-8 11 -16 0l-81 -99q-10 -11 -10 -26v-144q0 -6 6 -6h187q6 0 6 6v144q0 15 -10 26z" />
    <glyph glyph-name="acircumflex.sc" 
d="M232 706l90 -57q4 -4 2 -7l-11 -23q-1 -6 -8 -3l-73 45q-5 3 -11 0l-72 -45q-7 -3 -9 3l-11 23q-2 4 3 7l89 57q5 3 11 0zM98 418l95 111q16 19 36 19q21 0 37 -20l93 -109q21 -23 21 -53v-358q0 -8 -9 -8h-34q-8 0 -8 8v157q0 7 -6 7h-187q-6 0 -6 -7v-157q0 -8 -8 -8
h-35q-8 0 -8 8v358q0 30 19 52zM319 392l-82 99q-8 11 -16 0l-81 -99q-10 -11 -10 -26v-144q0 -6 6 -6h187q6 0 6 6v144q0 15 -10 26z" />
    <glyph glyph-name="adieresis.sc" 
d="M164 725h29q8 0 8 -8v-110q0 -7 -8 -7h-29q-8 0 -8 7v110q0 8 8 8zM266 725h29q8 0 8 -8v-110q0 -7 -8 -7h-29q-8 0 -8 7v110q0 8 8 8zM98 418l95 111q16 19 36 19q21 0 37 -20l93 -109q21 -23 21 -53v-358q0 -8 -9 -8h-34q-8 0 -8 8v157q0 7 -6 7h-187q-6 0 -6 -7v-157
q0 -8 -8 -8h-35q-8 0 -8 8v358q0 30 19 52zM319 392l-82 99q-8 11 -16 0l-81 -99q-10 -11 -10 -26v-144q0 -6 6 -6h187q6 0 6 6v144q0 15 -10 26z" />
    <glyph glyph-name="agrave.sc" 
d="M143 725h41q7 0 10 -7l53 -113q4 -12 -7 -12h-15q-10 0 -15 8l-71 116q-6 8 4 8zM98 418l95 111q16 19 36 19q21 0 37 -20l93 -109q21 -23 21 -53v-358q0 -8 -9 -8h-34q-8 0 -8 8v157q0 7 -6 7h-187q-6 0 -6 -7v-157q0 -8 -8 -8h-35q-8 0 -8 8v358q0 30 19 52zM319 392
l-82 99q-8 11 -16 0l-81 -99q-10 -11 -10 -26v-144q0 -6 6 -6h187q6 0 6 6v144q0 15 -10 26z" />
    <glyph glyph-name="aring.sc" 
d="M230 712q62 0 62 -66q0 -67 -62 -67q-63 0 -63 67q0 66 63 66zM230 684q-32 0 -32 -38t32 -38q31 0 31 38t-31 38zM98 418l95 111q16 19 36 19q21 0 37 -20l93 -109q21 -23 21 -53v-358q0 -8 -9 -8h-34q-8 0 -8 8v157q0 7 -6 7h-187q-6 0 -6 -7v-157q0 -8 -8 -8h-35
q-8 0 -8 8v358q0 30 19 52zM319 392l-82 99q-8 11 -16 0l-81 -99q-10 -11 -10 -26v-144q0 -6 6 -6h187q6 0 6 6v144q0 15 -10 26z" />
    <glyph glyph-name="atilde.sc" 
d="M321 703q18 0 18 -9q-14 -77 -66 -77q-22 0 -51.5 20t-41.5 20t-19 -6t-14 -26q-5 -11 -20 -11q-10 0 -13.5 2t-2.5 7q14 72 64 72q22 0 52 -20t41 -20q24 0 34 38q4 10 19 10zM98 418l95 111q16 19 36 19q21 0 37 -20l93 -109q21 -23 21 -53v-358q0 -8 -9 -8h-34
q-8 0 -8 8v157q0 7 -6 7h-187q-6 0 -6 -7v-157q0 -8 -8 -8h-35q-8 0 -8 8v358q0 30 19 52zM319 392l-82 99q-8 11 -16 0l-81 -99q-10 -11 -10 -26v-144q0 -6 6 -6h187q6 0 6 6v144q0 15 -10 26z" />
    <glyph glyph-name="ae.sc" horiz-adv-x="587" 
d="M240 540h286q9 0 9 -9v-28q0 -9 -9 -9h-190q-12 0 -12 -10v-178q0 -6 7 -6h172q9 0 9 -9v-28q0 -9 -9 -9h-172q-7 0 -7 -6v-122q0 -51 15 -65.5t66 -14.5h121q9 0 9 -9v-28q0 -9 -9 -9h-137q-66 0 -90.5 21.5t-24.5 80.5v45q0 6 -6 6h-131q-7 0 -7 -7v-137q0 -9 -9 -9
h-33q-9 0 -9 9v346q0 30 20 51l102 116q16 18 39 18zM269 490h-27q-7 0 -10 -5l-92 -105q-10 -11 -10 -27v-149q0 -7 7 -7h130q7 0 7 7v281q0 5 -5 5z" />
    <glyph glyph-name="b.sc" 
d="M79 26v379q0 73 34 108t116 35q148 0 148 -136q0 -105 -82 -127q-4 -1 1 -3q55 -9 77 -43.5t22 -92.5q0 -72 -38 -109t-127 -37h-124q-27 0 -27 26zM133 298h71q65 0 94 23.5t29 82.5q0 53 -22.5 76t-76.5 23q-56 0 -78 -21t-22 -74v-105q0 -5 5 -5zM223 257h-90
q-5 0 -5 -5v-201q0 -5 5 -5h90q65 0 93 23t28 79q0 59 -27.5 84t-93.5 25z" />
    <glyph glyph-name="c.sc" horiz-adv-x="403" 
d="M362 38l1 -18q1 -14 -14 -18q-37 -10 -109 -10q-106 0 -141 56t-35 219t37 221.5t142 58.5q57 2 100 -8q13 -2 12 -16l-1 -21q-2 -9 -9 -8q-1 0 -38.5 3.5t-62.5 3.5q-73 0 -99.5 -47t-26.5 -187q0 -139 24.5 -183.5t103.5 -44.5q26 0 50.5 1.5t39.5 3.5t17 2q9 0 9 -8z
" />
    <glyph glyph-name="ccaron.sc" horiz-adv-x="403" 
d="M241 655l71 45q8 2 9 -4l11 -22q1 -4 -3 -7l-89 -57l-6 -2q-2 0 -6 2l-89 57q-3 3 -2 7l10 22q2 5 9 4l69 -44l5 -2.5t4 -1.5t3.5 1.5t3.5 1.5zM362 38l1 -18q1 -14 -14 -18q-37 -10 -109 -10q-106 0 -141 56t-35 219t37 221.5t142 58.5q57 2 100 -8q13 -2 12 -16l-1 -21
q-2 -9 -9 -8q-1 0 -38.5 3.5t-62.5 3.5q-73 0 -99.5 -47t-26.5 -187q0 -139 24.5 -183.5t103.5 -44.5q26 0 50.5 1.5t39.5 3.5t17 2q9 0 9 -8z" />
    <glyph glyph-name="ccedilla.sc" horiz-adv-x="403" 
d="M362 38l1 -18q1 -14 -14 -18q-18 -6 -80 -9l-32 -107q-3 -10 -13 -10h-25q-9 0 -6 9l27 108q-93 4 -124.5 61t-31.5 213q0 163 37 221.5t142 58.5q57 2 100 -8q13 -2 12 -16l-1 -21q-2 -9 -9 -8q-1 0 -38.5 3.5t-62.5 3.5q-73 0 -99.5 -47t-26.5 -187q0 -139 24.5 -183.5
t103.5 -44.5q26 0 50.5 1.5t39.5 3.5t17 2q9 0 9 -8z" />
    <glyph glyph-name="d.sc" horiz-adv-x="468" 
d="M105 540h116q49 0 79.5 -9.5t55.5 -37t36 -81.5t11 -139q1 -85 -10 -140t-36 -83.5t-56 -39t-80 -10.5h-116q-26 0 -26 26v488q0 26 26 26zM220 493h-84q-6 0 -6 -7v-433q0 -6 6 -6h84q74 0 102 45t28 181q0 93 -14 140.5t-40 63.5t-76 16z" />
    <glyph glyph-name="eth.sc" horiz-adv-x="468" 
d="M105 540h115q49 0 79.5 -9.5t55.5 -37t36 -81.5t12 -139q0 -85 -11 -140t-36 -83.5t-56 -39t-80 -10.5h-115q-27 0 -27 26v224q0 4 -4 4h-56q-7 0 -7 7v30q0 7 7 7h56q4 0 4 5v211q0 26 27 26zM219 493h-83q-6 0 -6 -7v-183q0 -5 5 -5h83q7 0 7 -7v-30q0 -7 -7 -7h-83
q-5 0 -5 -5v-196q0 -6 6 -6h83q74 0 102.5 45t28.5 181q0 92 -14 140t-40.5 64t-76.5 16z" />
    <glyph glyph-name="e.sc" horiz-adv-x="400" 
d="M215 539h126q8 0 8 -8v-30q0 -9 -8 -9h-120q-59 0 -75 -15.5t-16 -72.5v-100q0 -7 6 -7h184q8 0 8 -8v-28q0 -8 -8 -8h-184q-6 0 -6 -6v-111q0 -57 15 -73t68 -16h128q8 0 8 -8v-31q0 -8 -8 -8h-132q-75 0 -102.5 26.5t-27.5 97.5v292q0 71 28.5 97t107.5 26z" />
    <glyph glyph-name="eacute.sc" horiz-adv-x="400" 
d="M268 725h44q5 0 6.5 -3t-0.5 -6l-71 -116q-4 -7 -12 -7h-21q-12 0 -7 11l51 114q1 7 10 7zM215 539h126q8 0 8 -8v-30q0 -9 -8 -9h-120q-59 0 -75 -15.5t-16 -72.5v-100q0 -7 6 -7h184q8 0 8 -8v-28q0 -8 -8 -8h-184q-6 0 -6 -6v-111q0 -57 15 -73t68 -16h128q8 0 8 -8
v-31q0 -8 -8 -8h-132q-75 0 -102.5 26.5t-27.5 97.5v292q0 71 28.5 97t107.5 26z" />
    <glyph glyph-name="ecircumflex.sc" horiz-adv-x="400" 
d="M238 706l89 -57q5 -3 3 -7l-11 -23q-1 -6 -9 -3l-72 45q-6 3 -11 0l-73 -45q-6 -3 -9 3l-10 23q-2 3 2 7l90 57q5 3 11 0zM215 539h126q8 0 8 -8v-30q0 -9 -8 -9h-120q-59 0 -75 -15.5t-16 -72.5v-100q0 -7 6 -7h184q8 0 8 -8v-28q0 -8 -8 -8h-184q-6 0 -6 -6v-111
q0 -57 15 -73t68 -16h128q8 0 8 -8v-31q0 -8 -8 -8h-132q-75 0 -102.5 26.5t-27.5 97.5v292q0 71 28.5 97t107.5 26z" />
    <glyph glyph-name="edieresis.sc" horiz-adv-x="400" 
d="M169 725h30q7 0 7 -8v-110q0 -7 -7 -7h-30q-7 0 -7 7v110q0 8 7 8zM271 725h30q7 0 7 -8v-110q0 -7 -7 -7h-30q-7 0 -7 7v110q0 8 7 8zM215 539h126q8 0 8 -8v-30q0 -9 -8 -9h-120q-59 0 -75 -15.5t-16 -72.5v-100q0 -7 6 -7h184q8 0 8 -8v-28q0 -8 -8 -8h-184
q-6 0 -6 -6v-111q0 -57 15 -73t68 -16h128q8 0 8 -8v-31q0 -8 -8 -8h-132q-75 0 -102.5 26.5t-27.5 97.5v292q0 71 28.5 97t107.5 26z" />
    <glyph glyph-name="egrave.sc" horiz-adv-x="400" 
d="M148 725h42q7 0 10 -7l52 -113q4 -12 -6 -12h-16q-10 0 -15 8l-71 116q-4 8 4 8zM215 539h126q8 0 8 -8v-30q0 -9 -8 -9h-120q-59 0 -75 -15.5t-16 -72.5v-100q0 -7 6 -7h184q8 0 8 -8v-28q0 -8 -8 -8h-184q-6 0 -6 -6v-111q0 -57 15 -73t68 -16h128q8 0 8 -8v-31
q0 -8 -8 -8h-132q-75 0 -102.5 26.5t-27.5 97.5v292q0 71 28.5 97t107.5 26z" />
    <glyph glyph-name="eogonek.sc" horiz-adv-x="400" 
d="M213 47h128q8 0 8 -8v-31q0 -8 -8 -8q-44 -13 -62.5 -36t-18.5 -62q0 -32 10 -44.5t30 -12.5q11 0 23.5 1t14.5 1q8 0 8 -8v-9q0 -9 -10 -14q-16 -8 -50 -8q-36 0 -54 19t-18 66q0 70 67 107h-72q-75 0 -102.5 26.5t-27.5 97.5v292q0 71 28.5 97t107.5 26h126q8 0 8 -8
v-30q0 -9 -8 -9h-120q-59 0 -75 -15.5t-16 -72.5v-100q0 -7 6 -7h184q8 0 8 -8v-28q0 -8 -8 -8h-184q-6 0 -6 -6v-111q0 -57 15 -73t68 -16z" />
    <glyph glyph-name="f.sc" horiz-adv-x="390" 
d="M212 539h121q9 0 9 -8v-30q0 -9 -9 -9h-114q-57 0 -73.5 -17t-16.5 -73v-107q0 -7 7 -7h179q8 0 8 -8v-30q0 -9 -8 -9h-179q-7 0 -7 -6v-227q0 -8 -9 -8h-34q-9 0 -9 8v406q0 74 28 99.5t107 25.5z" />
    <glyph glyph-name="g.sc" horiz-adv-x="446" 
d="M389 276v-136q0 -74 -34.5 -111t-121.5 -37q-100 0 -134.5 63.5t-34.5 226.5q0 154 37 210t139 56q78 0 112 -8q15 -5 14 -18l-1 -18q-2 -11 -10 -11q-1 0 -41.5 4t-69.5 4q-50 0 -75.5 -16t-38 -63t-12.5 -139q0 -103 12.5 -156t35.5 -70t68 -17q62 0 82.5 25.5
t20.5 86.5v100q0 6 -5 6h-100q-8 0 -8 8v28q0 8 8 8h130q15 0 21 -6t6 -20z" />
    <glyph glyph-name="h.sc" horiz-adv-x="485" 
d="M364 540h34q8 0 8 -9v-523q0 -8 -8 -8h-34q-9 0 -9 8v232q0 7 -6 7h-213q-6 0 -6 -7v-232q0 -8 -8 -8h-35q-8 0 -8 8v523q0 9 8 9h35q8 0 8 -9v-231q0 -7 6 -7h213q6 0 6 7v231q0 9 9 9z" />
    <glyph glyph-name="i.sc" horiz-adv-x="210" 
d="M87 539h35q9 0 9 -8v-523q0 -8 -9 -8h-35q-8 0 -8 8v523q0 8 8 8z" />
    <glyph glyph-name="iacute.sc" horiz-adv-x="210" 
d="M138 725h45q5 0 6.5 -3t-1.5 -6l-70 -116q-6 -7 -13 -7h-20q-12 0 -7 11l51 114q1 7 9 7zM87 539h35q9 0 9 -8v-523q0 -8 -9 -8h-35q-8 0 -8 8v523q0 8 8 8z" />
    <glyph glyph-name="icircumflex.sc" horiz-adv-x="210" 
d="M109 706l89 -57q5 -4 2 -7l-10 -23q-3 -5 -9 -3l-72 45q-6 3 -12 0l-72 -45q-7 -3 -9 3l-11 23q-1 3 3 7l89 57q6 3 12 0zM87 539h35q9 0 9 -8v-523q0 -8 -9 -8h-35q-8 0 -8 8v523q0 8 8 8z" />
    <glyph glyph-name="idieresis.sc" horiz-adv-x="210" 
d="M40 725h29q8 0 8 -8v-110q0 -7 -8 -7h-29q-8 0 -8 7v110q0 8 8 8zM142 725h29q8 0 8 -8v-110q0 -7 -8 -7h-29q-8 0 -8 7v110q0 8 8 8zM87 539h35q9 0 9 -8v-523q0 -8 -9 -8h-35q-8 0 -8 8v523q0 8 8 8z" />
    <glyph glyph-name="igrave.sc" horiz-adv-x="210" 
d="M19 725h41q7 0 10 -7l53 -113q5 -12 -7 -12h-15q-10 0 -15 8l-71 116q-6 8 4 8zM87 539h35q9 0 9 -8v-523q0 -8 -9 -8h-35q-8 0 -8 8v523q0 8 8 8z" />
    <glyph glyph-name="ij.sc" horiz-adv-x="541" 
d="M87 539h35q9 0 9 -8v-523q0 -8 -9 -8h-35q-8 0 -8 8v523q0 8 8 8zM420 539h34q9 0 9 -8v-398q0 -81 -24 -111t-89 -30t-90 10q-14 3 -13 18l2 21q0 8 8 8q2 0 13 -2.5t30.5 -4.5t41.5 -2q41 0 55.5 19t14.5 79v393q0 8 8 8z" />
    <glyph glyph-name="iogonek.sc" horiz-adv-x="210" 
d="M87 539h35q9 0 9 -8v-523q0 -8 -8 -8q-44 -13 -63 -36t-19 -62q0 -33 10 -45t29 -12q12 0 24.5 1t14.5 1q8 0 8 -8v-9q0 -9 -11 -14q-14 -8 -49 -8q-36 0 -54 19t-18 66q0 77 84 115v523q0 8 8 8z" />
    <glyph glyph-name="j.sc" horiz-adv-x="332" 
d="M211 539h34q8 0 8 -8v-398q0 -81 -24 -111t-89 -30q-62 0 -90 10q-13 3 -12 18l1 21q2 8 8 8q2 0 13.5 -2.5t31 -4.5t40.5 -2q41 0 55.5 19t14.5 79v393q0 8 9 8z" />
    <glyph glyph-name="k.sc" horiz-adv-x="427" 
d="M323 539h38q12 0 6 -10l-142 -240q-5 -8 0 -15l149 -261q8 -13 -7 -13h-34q-13 0 -18 8l-133 241q-4 7 -13 7h-34q-5 0 -5 -6v-242q0 -8 -8 -8h-35q-8 0 -8 8v523q0 8 8 8h35q8 0 8 -8v-219q0 -6 5 -6h36q9 0 14 9l123 217q4 7 15 7z" />
    <glyph glyph-name="l.sc" horiz-adv-x="378" 
d="M87 540h35q7 0 9 -8v-397q-1 -56 12.5 -72t60.5 -16h142q8 0 8 -8v-31q0 -8 -8 -8h-147q-71 0 -95.5 27t-24.5 96v409q0 8 8 8z" />
    <glyph glyph-name="lacute.sc" horiz-adv-x="378" 
d="M151 725h44q5 0 6.5 -3t-1.5 -6l-70 -116q-4 -7 -12 -7h-21q-12 0 -7 11l51 114q1 7 10 7zM87 540h35q7 0 9 -8v-397q-1 -56 12.5 -72t60.5 -16h142q8 0 8 -8v-31q0 -8 -8 -8h-147q-71 0 -95.5 27t-24.5 96v409q0 8 8 8z" />
    <glyph glyph-name="lcaron.sc" horiz-adv-x="378" 
d="M260 540h31q8 0 8 -8v-80q0 -28 -8.5 -49t-31.5 -57q-4 -7 -14 -6l-12 1q-10 2 -8 8q27 53 27 105v78q0 8 8 8zM87 540h35q7 0 9 -8v-397q-1 -56 12.5 -72t60.5 -16h142q8 0 8 -8v-31q0 -8 -8 -8h-147q-71 0 -95.5 27t-24.5 96v409q0 8 8 8z" />
    <glyph glyph-name="lcommaaccent.sc" horiz-adv-x="378" 
d="M87 540h35q7 0 9 -8v-397q-1 -56 12.5 -72t60.5 -16h142q8 0 8 -8v-31q0 -8 -8 -8h-147q-71 0 -95.5 27t-24.5 96v409q0 8 8 8zM182 -27h33q8 0 8 -8v-41q0 -29 -7.5 -49.5t-29.5 -60.5q-6 -7 -15 -6l-13 2q-4 0 -6.5 1.5t-1.5 5.5q24 60 24 109v39q0 8 8 8z" />
    <glyph glyph-name="ldot.sc" horiz-adv-x="378" 
d="M87 540h35q7 0 9 -8v-397q-1 -56 12.5 -72t60.5 -16h142q8 0 8 -8v-31q0 -8 -8 -8h-147q-71 0 -95.5 27t-24.5 96v409q0 8 8 8zM228 375h35q8 0 8 -8v-121q0 -8 -8 -8h-35q-8 0 -8 8v121q0 8 8 8z" />
    <glyph glyph-name="lslash.sc" horiz-adv-x="390" 
d="M103 454l12 19v-1l-1 -51q-14 9 -11 33zM167 229l-24 4l-14 66l-19 -7l4 129q10 -4 19 -5l18 -95l22 -4l-20 -8zM124 325l-1 3q-2 1 -3 0t0 -3h4zM196 324l7 -10q2 -3 -2 -2l-28 5l14 5q4 5 9 2zM110 292v-5q-2 -2 -3 -0.5t0 4.5zM74 229l54 34q3 3 5 2l3 -32l-20 3
q-4 3 -9 0l-29 -11l-5 -2zM336 100l9 -10q5 -4 1 -8l-113 -14q-52 -2 -70.5 14.5t-20.5 68.5l-6 82h7l3 -14q2 -52 15 -67.5t55 -17.5l113 -28q3 -2 7 -6zM167 229h4q1 -5 -3 -3z" />
    <glyph glyph-name="m.sc" horiz-adv-x="525" 
d="M423 540h10q13 0 13 -14v-519q0 -7 -7 -7h-38q-7 0 -7 7v405q-1 4 -4 1l-105 -177q-9 -17 -22 -17q-12 0 -23 17l-105 178q-4 4 -4 -2v-405q0 -7 -8 -7h-37q-7 0 -7 7v519q0 14 14 14h10q12 0 18 -11l138 -238q1 -2 3.5 -2t3.5 2l139 238q5 11 18 11z" />
    <glyph glyph-name="n.sc" horiz-adv-x="482" 
d="M361 539h33q9 0 9 -8v-515q0 -16 -16 -16h-11q-10 0 -16 11l-226 412q-4 6 -4 -1v-414q0 -8 -8 -8h-35q-8 0 -8 8v516q0 16 16 16h13q10 0 16 -11l224 -410q4 -4 4 1v411q0 8 9 8z" />
    <glyph glyph-name="eng.sc" horiz-adv-x="482" 
d="M95 540h13q10 0 16 -11l224 -410q4 -4 4 1v411q0 8 9 8h33q9 0 9 -8v-574q0 -84 -23.5 -114.5t-89.5 -30.5q-58 0 -88 9q-14 5 -13 19l2 21q0 7 8 7q2 0 13.5 -2t30.5 -4t40 -2q41 0 55 18.5t14 79.5v65l-218 400q-4 6 -4 -1v-414q0 -8 -8 -8h-35q-8 0 -8 8v516
q0 16 16 16z" />
    <glyph glyph-name="ntilde.sc" horiz-adv-x="482" 
d="M333 703q19 0 17 -9q-14 -77 -65 -77q-22 0 -51.5 20t-41.5 20q-13 0 -19.5 -6t-13.5 -26q-5 -11 -20 -11q-10 0 -13.5 2t-2.5 7q14 72 63 72q23 0 53 -20t41 -20q24 0 34 38q4 10 19 10zM361 539h33q9 0 9 -8v-515q0 -16 -16 -16h-11q-10 0 -16 11l-226 412q-4 6 -4 -1
v-414q0 -8 -8 -8h-35q-8 0 -8 8v516q0 16 16 16h13q10 0 16 -11l224 -410q4 -4 4 1v411q0 8 9 8z" />
    <glyph glyph-name="o.sc" horiz-adv-x="472" 
d="M236 547q103 0 137.5 -58.5t34.5 -213.5q0 -160 -34 -221.5t-138 -61.5t-138 61.5t-34 221.5q0 155 34 213.5t138 58.5zM236 500q-73 0 -95.5 -44.5t-22.5 -181.5q0 -142 22.5 -188t95.5 -46t95.5 46t22.5 188q0 137 -22.5 181.5t-95.5 44.5z" />
    <glyph glyph-name="oacute.sc" horiz-adv-x="472" 
d="M270 725h44q5 0 6.5 -3t-1.5 -6l-70 -116q-4 -7 -12 -7h-21q-12 0 -7 11l51 114q1 7 10 7zM236 547q103 0 137.5 -58.5t34.5 -213.5q0 -160 -34 -221.5t-138 -61.5t-138 61.5t-34 221.5q0 155 34 213.5t138 58.5zM236 500q-73 0 -95.5 -44.5t-22.5 -181.5
q0 -142 22.5 -188t95.5 -46t95.5 46t22.5 188q0 137 -22.5 181.5t-95.5 44.5z" />
    <glyph glyph-name="ocircumflex.sc" horiz-adv-x="472" 
d="M240 706l89 -57q5 -3 3 -7l-11 -23q-1 -6 -9 -3l-72 45q-6 3 -12 0l-72 -45q-7 -3 -9 3l-11 23q-1 3 3 7l90 57q5 3 11 0zM236 547q103 0 137.5 -58.5t34.5 -213.5q0 -160 -34 -221.5t-138 -61.5t-138 61.5t-34 221.5q0 155 34 213.5t138 58.5zM236 500
q-73 0 -95.5 -44.5t-22.5 -181.5q0 -142 22.5 -188t95.5 -46t95.5 46t22.5 188q0 137 -22.5 181.5t-95.5 44.5z" />
    <glyph glyph-name="odieresis.sc" horiz-adv-x="472" 
d="M171 725h30q7 0 7 -8v-110q0 -7 -7 -7h-30q-8 0 -8 7v110q0 8 8 8zM273 725h30q7 0 7 -8v-110q0 -7 -7 -7h-30q-8 0 -8 7v110q0 8 8 8zM236 547q103 0 137.5 -58.5t34.5 -213.5q0 -160 -34 -221.5t-138 -61.5t-138 61.5t-34 221.5q0 155 34 213.5t138 58.5zM236 500
q-73 0 -95.5 -44.5t-22.5 -181.5q0 -142 22.5 -188t95.5 -46t95.5 46t22.5 188q0 137 -22.5 181.5t-95.5 44.5z" />
    <glyph glyph-name="ograve.sc" horiz-adv-x="472" 
d="M150 725h41q7 0 11 -7l52 -113q4 -12 -6 -12h-16q-10 0 -15 8l-71 116q-6 8 4 8zM236 547q103 0 137.5 -58.5t34.5 -213.5q0 -160 -34 -221.5t-138 -61.5t-138 61.5t-34 221.5q0 155 34 213.5t138 58.5zM236 500q-73 0 -95.5 -44.5t-22.5 -181.5q0 -142 22.5 -188
t95.5 -46t95.5 46t22.5 188q0 137 -22.5 181.5t-95.5 44.5z" />
    <glyph glyph-name="oslash.sc" horiz-adv-x="475" 
d="M352 637l-26 -105q47 -22 64.5 -81.5t17.5 -175.5q0 -160 -34 -221.5t-138 -61.5q-23 0 -41 3l-26 -101q-3 -7 -10 -7h-22q-8 0 -5 7l28 109q-56 20 -76 82.5t-20 189.5q0 155 34 213.5t138 58.5q34 0 55 -4l25 94q2 8 10 8h21q9 0 5 -8zM236 40q73 0 95.5 46t22.5 188
q0 137 -22.5 181.5t-95.5 44.5t-95.5 -44.5t-22.5 -181.5q0 -142 22.5 -188t95.5 -46z" />
    <glyph glyph-name="oslashacute.sc" horiz-adv-x="475" 
d="M224 593h-20q-13 0 -7 11l50 114q3 7 10 7h45q12 0 5 -9l-71 -116q-4 -7 -12 -7zM352 637l-26 -105q47 -22 64.5 -81.5t17.5 -175.5q0 -160 -34 -221.5t-138 -61.5q-23 0 -41 3l-26 -101q-3 -7 -10 -7h-22q-8 0 -5 7l28 109q-56 20 -76 82.5t-20 189.5q0 155 34 213.5
t138 58.5q34 0 55 -4l25 94q2 8 10 8h21q9 0 5 -8zM236 40q73 0 95.5 46t22.5 188q0 137 -22.5 181.5t-95.5 44.5t-95.5 -44.5t-22.5 -181.5q0 -142 22.5 -188t95.5 -46z" />
    <glyph glyph-name="otilde.sc" horiz-adv-x="472" 
d="M329 703q19 0 17 -9q-14 -77 -66 -77q-21 0 -50.5 20t-42.5 20q-12 0 -18.5 -6t-13.5 -26q-5 -11 -21 -11q-10 0 -13.5 2t-2.5 7q14 72 64 72q22 0 52.5 -20t41.5 -20q24 0 34 38q2 6 5 8t14 2zM236 547q103 0 137.5 -58.5t34.5 -213.5q0 -160 -34 -221.5t-138 -61.5
t-138 61.5t-34 221.5q0 155 34 213.5t138 58.5zM236 500q-73 0 -95.5 -44.5t-22.5 -181.5q0 -142 22.5 -188t95.5 -46t95.5 46t22.5 188q0 137 -22.5 181.5t-95.5 44.5z" />
    <glyph glyph-name="oe.sc" horiz-adv-x="644" 
d="M584 0h-124q-57 0 -84 17t-30 56q-1 3 -3.5 3t-3.5 -3q-14 -40 -42.5 -59.5t-81.5 -19.5q-87 0 -118.5 60.5t-31.5 229.5q1 156 32 209.5t119 53.5q102 0 127 -75q3 -5 5 0q7 38 31 53t79 15h126q9 0 9 -9v-28q0 -9 -9 -9h-115q-58 0 -75.5 -21t-17.5 -93v-73q0 -7 7 -7
h181q9 0 9 -9v-29q0 -9 -9 -9h-181q-7 0 -7 -7v-86q0 -72 17.5 -93t74.5 -21h116q9 0 9 -9v-28q0 -9 -9 -9zM323 204v174q0 122 -104 122q-40 0 -61 -16t-31 -63.5t-10 -139.5q0 -103 10.5 -154.5t30.5 -69t61 -17.5q33 0 55 14t32 40t13.5 51t3.5 59z" />
    <glyph glyph-name="p.sc" horiz-adv-x="432" 
d="M79 8v401q0 75 31 106.5t121 31.5q84 0 121.5 -38.5t37.5 -126.5q0 -82 -38 -124t-127 -42h-89q-6 0 -6 -4v-204q0 -8 -8 -8h-35q-8 0 -8 8zM136 263h86q66 0 90.5 27t24.5 92q0 64 -24 91t-81 27q-58 0 -80 -20t-22 -72v-139q0 -6 6 -6z" />
    <glyph glyph-name="thorn.sc" horiz-adv-x="421" 
d="M86 539h39q7 0 7 -7v-80q0 -4 4 -4h78q88 0 125 -38.5t37 -116.5q0 -79 -38.5 -118.5t-126.5 -39.5h-74q-5 0 -5 -4v-124q0 -7 -7 -7h-39q-7 0 -7 7v525q0 7 7 7zM209 401h-73q-4 0 -4 -4v-210q0 -5 4 -5h73q64 0 88.5 26.5t24.5 83.5t-24.5 83t-88.5 26z" />
    <glyph glyph-name="q.sc" horiz-adv-x="472" 
d="M351 -99v-20q0 -9 -8 -12q-12 -4 -37 -4q-57 0 -76.5 29t-19.5 94q0 7 -7 8q-82 6 -110.5 69.5t-28.5 208.5q0 152 33.5 212.5t138.5 60.5q106 0 139 -60t33 -213q0 -150 -27.5 -212.5t-116.5 -65.5q-7 -1 -7 -10q0 -44 12 -62t42 -18q8 0 19.5 1t12.5 1q8 0 8 -7z
M236 500q-73 0 -95.5 -44.5t-22.5 -181.5q0 -141 22.5 -186.5t95.5 -45.5t95.5 45.5t22.5 186.5q0 137 -22.5 181.5t-95.5 44.5z" />
    <glyph glyph-name="r.sc" horiz-adv-x="447" 
d="M79 8v408q0 71 31 101.5t119 30.5q79 0 117 -38t38 -120q0 -118 -81 -152q-6 -2 -4 -9l95 -218q6 -11 -6 -11h-36q-12 0 -15 8l-83 204q-4 9 -16 9h-101q-7 0 -7 -6v-207q0 -8 -8 -8h-35q-8 0 -8 8zM137 266h94q56 0 78 30t22 90q0 59 -24 87t-78 28q-58 0 -78.5 -18
t-20.5 -68v-143q0 -6 7 -6z" />
    <glyph glyph-name="racute.sc" horiz-adv-x="447" 
d="M256 725h44q5 0 6.5 -3t-1.5 -6l-70 -116q-4 -7 -12 -7h-21q-12 0 -7 11l51 114q1 7 10 7zM79 8v408q0 71 31 101.5t119 30.5q79 0 117 -38t38 -120q0 -118 -81 -152q-6 -2 -4 -9l95 -218q6 -11 -6 -11h-36q-12 0 -15 8l-83 204q-4 9 -16 9h-101q-7 0 -7 -6v-207
q0 -8 -8 -8h-35q-8 0 -8 8zM137 266h94q56 0 78 30t22 90q0 59 -24 87t-78 28q-58 0 -78.5 -18t-20.5 -68v-143q0 -6 7 -6z" />
    <glyph glyph-name="rcaron.sc" horiz-adv-x="447" 
d="M229 655l71 45q8 2 9 -4l11 -22q1 -4 -3 -7l-89 -57l-6 -2q-2 0 -6 2l-89 57q-4 2 -2 7l10 22q2 5 9 4l69 -44q1 0 4.5 -2t4.5 -2t3.5 1.5t3.5 1.5zM79 8v408q0 71 31 101.5t119 30.5q79 0 117 -38t38 -120q0 -118 -81 -152q-6 -2 -4 -9l95 -218q6 -11 -6 -11h-36
q-12 0 -15 8l-83 204q-4 9 -16 9h-101q-7 0 -7 -6v-207q0 -8 -8 -8h-35q-8 0 -8 8zM137 266h94q56 0 78 30t22 90q0 59 -24 87t-78 28q-58 0 -78.5 -18t-20.5 -68v-143q0 -6 7 -6z" />
    <glyph glyph-name="rcommaaccent.sc" horiz-adv-x="447" 
d="M79 8v408q0 71 31 101.5t119 30.5q79 0 117 -38t38 -120q0 -118 -81 -152q-6 -2 -4 -9l95 -218q6 -11 -6 -11h-36q-12 0 -15 8l-83 204q-4 9 -16 9h-101q-7 0 -7 -6v-207q0 -8 -8 -8h-35q-8 0 -8 8zM137 266h94q56 0 78 30t22 90q0 59 -24 87t-78 28q-58 0 -78.5 -18
t-20.5 -68v-143q0 -6 7 -6zM222 -27h32q9 0 9 -8v-41q0 -29 -7.5 -49.5t-29.5 -60.5q-7 -7 -15 -6l-13 2q-4 0 -6.5 1.5t-1.5 5.5q23 58 23 109v39q0 8 9 8z" />
    <glyph glyph-name="s.sc" horiz-adv-x="404" 
d="M64 19l2 22q0 8 8 8q2 0 18.5 -2.5t45 -5t58.5 -2.5q54 0 77.5 23.5t23.5 72.5q0 43 -21.5 67t-89.5 56q-70 33 -96.5 62.5t-26.5 92.5q0 72 34.5 103.5t116.5 31.5t106 -7q11 -3 11 -15l-3 -25q0 -7 -7 -7q-2 0 -14.5 2t-37 4t-54.5 2q-54 0 -76.5 -21.5t-22.5 -73.5
q0 -24 4.5 -38.5t23.5 -29.5t33 -22t57 -27q70 -33 93 -63.5t23 -91.5q0 -72 -36.5 -107.5t-113.5 -35.5q-86 0 -126 12q-11 3 -10 15z" />
    <glyph glyph-name="sacute.sc" horiz-adv-x="404" 
d="M244 725h45q5 0 6.5 -3t-1.5 -6l-70 -116q-4 -7 -13 -7h-20q-12 0 -7 11l51 114q1 7 9 7zM64 19l2 22q0 8 8 8q2 0 18.5 -2.5t45 -5t58.5 -2.5q54 0 77.5 23.5t23.5 72.5q0 43 -21.5 67t-89.5 56q-70 33 -96.5 62.5t-26.5 92.5q0 72 34.5 103.5t116.5 31.5t106 -7
q11 -3 11 -15l-3 -25q0 -7 -7 -7q-2 0 -14.5 2t-37 4t-54.5 2q-54 0 -76.5 -21.5t-22.5 -73.5q0 -24 4.5 -38.5t23.5 -29.5t33 -22t57 -27q70 -33 93 -63.5t23 -91.5q0 -72 -36.5 -107.5t-113.5 -35.5q-86 0 -126 12q-11 3 -10 15z" />
    <glyph glyph-name="scaron.sc" horiz-adv-x="404" 
d="M218 655l71 45q7 1 9 -4l10 -22q1 -4 -2 -7l-90 -57q-4 -2 -5 -2q-2 0 -6 2l-89 57q-4 3 -3 7l11 22q1 6 9 4l69 -44q1 0 4.5 -2t4.5 -2t3.5 1.5t3.5 1.5zM64 19l2 22q0 8 8 8q2 0 18.5 -2.5t45 -5t58.5 -2.5q54 0 77.5 23.5t23.5 72.5q0 43 -21.5 67t-89.5 56
q-70 33 -96.5 62.5t-26.5 92.5q0 72 34.5 103.5t116.5 31.5t106 -7q11 -3 11 -15l-3 -25q0 -7 -7 -7q-2 0 -14.5 2t-37 4t-54.5 2q-54 0 -76.5 -21.5t-22.5 -73.5q0 -24 4.5 -38.5t23.5 -29.5t33 -22t57 -27q70 -33 93 -63.5t23 -91.5q0 -72 -36.5 -107.5t-113.5 -35.5
q-86 0 -126 12q-11 3 -10 15z" />
    <glyph glyph-name="germandbls.sc" horiz-adv-x="482" 
d="M91 6v404q0 74 34.5 108t125.5 34q147 0 147 -103q0 -58 -61 -90l-46 -24q-18 -9 -24.5 -13.5t-11.5 -13t-5 -22.5q0 -19 9.5 -31t38.5 -23l60 -26q48 -21 64 -39t16 -60q0 -62 -34.5 -88t-116.5 -26q-51 0 -88 8q-14 2 -12 14l1 23q0 7 6 7q1 0 34.5 -3t57.5 -3
q59 0 80.5 16.5t21.5 56.5q0 21 -8 33.5t-19 18t-43 18.5l-53 22q-34 14 -49.5 31.5t-15.5 48.5q0 26 10.5 39.5t42.5 30.5l48 23q24 13 35.5 26.5t11.5 38.5q0 65 -100 65q-59 0 -82.5 -23t-24.5 -75v-403q0 -6 -7 -6h-35q-8 0 -8 6z" />
    <glyph glyph-name="t.sc" horiz-adv-x="379" 
d="M32 539h316q8 0 8 -8v-30q0 -9 -8 -9h-126q-6 0 -6 -6v-478q0 -8 -9 -8h-34q-8 0 -8 8v478q0 6 -7 6h-126q-8 0 -8 9v30q0 8 8 8z" />
    <glyph glyph-name="tbar.sc" horiz-adv-x="383" 
d="M32 539h316q8 0 8 -8v-30q0 -9 -8 -9h-126q-6 0 -6 -6v-166h88q8 0 8 -7v-24q0 -7 -8 -7h-88v-274q0 -8 -9 -8h-34q-8 0 -8 8v274h-90q-7 0 -7 7v24q0 7 7 7h90v166q0 6 -7 6h-126q-8 0 -8 9v30q0 8 8 8z" />
    <glyph glyph-name="tcaron.sc" horiz-adv-x="379" 
d="M194 657l71 45q8 2 9 -4l11 -22q1 -4 -3 -7l-89 -57l-6 -2q-3 0 -5 2l-90 57q-3 3 -2 7l11 22q1 6 8 4l69 -44q2 -1 7 -3l2 -1q1 0 7 3zM32 539h316q8 0 8 -8v-30q0 -9 -8 -9h-126q-6 0 -6 -6v-478q0 -8 -9 -8h-34q-8 0 -8 8v478q0 6 -7 6h-126q-8 0 -8 9v30q0 8 8 8z
" />
    <glyph glyph-name="tcedilla.sc" horiz-adv-x="379" 
d="M32 539h316q8 0 8 -8v-30q0 -9 -8 -9h-126q-6 0 -6 -6v-478q0 -8 -9 -8h-34q-8 0 -8 8v478q0 6 -7 6h-126q-8 0 -8 9v30q0 8 8 8zM178 -16h33q8 0 5 -8l-37 -125q-4 -9 -14 -9h-24q-8 0 -7 8l32 126q3 8 12 8z" />
    <glyph glyph-name="uni021B.sc" horiz-adv-x="379" 
d="M32 539h316q8 0 8 -8v-30q0 -9 -8 -9h-126q-6 0 -6 -6v-478q0 -8 -9 -8h-34q-8 0 -8 8v478q0 6 -7 6h-126q-8 0 -8 9v30q0 8 8 8zM176 -46h32q8 0 8 -8v-40q0 -29 -7.5 -49t-28.5 -58q-4 -7 -15 -6l-12 1q-9 2 -8 8q23 56 23 106v38q0 8 8 8z" />
    <glyph glyph-name="u.sc" horiz-adv-x="473" 
d="M350 539h35q8 0 8 -8v-359q0 -103 -33 -141.5t-124 -38.5q-92 0 -125.5 38.5t-33.5 141.5v359q0 8 9 8h34q8 0 8 -8v-364q0 -78 22.5 -102.5t85.5 -24.5t84.5 24.5t21.5 102.5v364q0 8 8 8z" />
    <glyph glyph-name="uacute.sc" horiz-adv-x="473" 
d="M269 725h45q5 0 6.5 -3t-1.5 -6l-70 -116q-4 -7 -13 -7h-20q-12 0 -7 11l51 114q1 7 9 7zM350 539h35q8 0 8 -8v-359q0 -103 -33 -141.5t-124 -38.5q-92 0 -125.5 38.5t-33.5 141.5v359q0 8 9 8h34q8 0 8 -8v-364q0 -78 22.5 -102.5t85.5 -24.5t84.5 24.5t21.5 102.5v364
q0 8 8 8z" />
    <glyph glyph-name="ucircumflex.sc" horiz-adv-x="473" 
d="M240 706l89 -57q5 -4 2 -7l-10 -23q-3 -5 -9 -3l-72 45q-6 3 -12 0l-72 -45q-7 -3 -9 3l-11 23q-1 3 3 7l89 57q6 3 12 0zM350 539h35q8 0 8 -8v-359q0 -103 -33 -141.5t-124 -38.5q-92 0 -125.5 38.5t-33.5 141.5v359q0 8 9 8h34q8 0 8 -8v-364q0 -78 22.5 -102.5
t85.5 -24.5t84.5 24.5t21.5 102.5v364q0 8 8 8z" />
    <glyph glyph-name="udieresis.sc" horiz-adv-x="473" 
d="M171 725h29q8 0 8 -8v-110q0 -7 -8 -7h-29q-8 0 -8 7v110q0 8 8 8zM273 725h29q8 0 8 -8v-110q0 -7 -8 -7h-29q-8 0 -8 7v110q0 8 8 8zM350 539h35q8 0 8 -8v-359q0 -103 -33 -141.5t-124 -38.5q-92 0 -125.5 38.5t-33.5 141.5v359q0 8 9 8h34q8 0 8 -8v-364
q0 -78 22.5 -102.5t85.5 -24.5t84.5 24.5t21.5 102.5v364q0 8 8 8z" />
    <glyph glyph-name="ugrave.sc" horiz-adv-x="473" 
d="M150 725h41q7 0 10 -7l53 -113q4 -12 -7 -12h-15q-10 0 -15 8l-71 116q-6 8 4 8zM350 539h35q8 0 8 -8v-359q0 -103 -33 -141.5t-124 -38.5q-92 0 -125.5 38.5t-33.5 141.5v359q0 8 9 8h34q8 0 8 -8v-364q0 -78 22.5 -102.5t85.5 -24.5t84.5 24.5t21.5 102.5v364q0 8 8 8
z" />
    <glyph glyph-name="v.sc" horiz-adv-x="467" 
d="M348 540h30q11 0 11 -10v-363q0 -25 -20 -46l-98 -110q-18 -19 -37 -19q-18 0 -37 19l-99 110q-19 22 -19 46v363q0 10 10 10h31q10 0 10 -10v-355q0 -14 11 -27l84 -100q9 -9 16 0l86 100q11 16 11 27v355q0 10 10 10z" />
    <glyph glyph-name="w.sc" horiz-adv-x="662" 
d="M540 539h35q8 0 8 -8v-361q0 -27 -18 -48l-85 -109q-32 -40 -68 0l-77 102q-3 3 -8 -1l-78 -102q-15 -18 -33 -18t-33 19l-85 109q-19 19 -19 48v361q0 8 8 8h35q8 0 8 -8v-357q0 -12 10 -26l71 -97q7 -10 14 0l70 97q10 15 10 31v352q0 8 9 8h35q8 0 8 -8v-352
q0 -17 10 -31l70 -97q8 -10 15 0l70 97q10 16 10 26v357q0 8 8 8z" />
    <glyph glyph-name="x.sc" horiz-adv-x="449" 
d="M326 539h34q8 0 8 -8v-97q0 -27 -23 -56l-81 -103q-4 -3 0 -7l83 -96q23 -26 23 -58v-106q0 -8 -8 -8h-35q-8 0 -8 8v105q0 19 -13 33l-73 90q-3 5 -8 -1l-82 -89q-13 -16 -13 -33v-105q0 -8 -8 -8h-34q-9 0 -9 8v106q0 34 23 58l88 97q3 3 0 8l-88 100q-23 24 -23 57v97
q0 8 8 8h35q8 0 8 -8v-95q0 -16 13 -33l81 -94q5 -3 8 0l73 96q12 13 12 33v93q0 8 9 8z" />
    <glyph glyph-name="y.sc" horiz-adv-x="418" 
d="M315 539h35q8 0 8 -8v-148q0 -28 -24 -56l-83 -97q-12 -12 -12 -33v-189q0 -8 -9 -8h-34q-9 0 -9 8v189q0 19 -13 33l-90 96q-24 25 -24 57v148q0 8 9 8h34q9 0 9 -8v-142q0 -19 12 -32l82 -90q6 -8 15 1l73 89q13 16 13 33v141q0 8 8 8z" />
    <glyph glyph-name="yacute.sc" horiz-adv-x="418" 
d="M243 725h44q5 0 6.5 -3t-0.5 -6l-71 -116q-4 -7 -12 -7h-21q-12 0 -7 11l51 114q1 7 10 7zM315 539h35q8 0 8 -8v-148q0 -28 -24 -56l-83 -97q-12 -12 -12 -33v-189q0 -8 -9 -8h-34q-9 0 -9 8v189q0 19 -13 33l-90 96q-24 25 -24 57v148q0 8 9 8h34q9 0 9 -8v-142
q0 -19 12 -32l82 -90q6 -8 15 1l73 89q13 16 13 33v141q0 8 8 8z" />
    <glyph glyph-name="ygrave.sc" horiz-adv-x="418" 
d="M123 725h42q7 0 10 -7l52 -113q6 -12 -6 -12h-16q-9 0 -15 8l-71 116q-4 8 4 8zM315 539h35q8 0 8 -8v-148q0 -28 -24 -56l-83 -97q-12 -12 -12 -33v-189q0 -8 -9 -8h-34q-9 0 -9 8v189q0 19 -13 33l-90 96q-24 25 -24 57v148q0 8 9 8h34q9 0 9 -8v-142q0 -19 12 -32
l82 -90q6 -8 15 1l73 89q13 16 13 33v141q0 8 8 8z" />
    <glyph glyph-name="z.sc" horiz-adv-x="417" 
d="M68 539h268q15 0 15 -15v-14q0 -13 -15 -33l-217 -425q-3 -5 2 -5h224q8 0 8 -8v-31q0 -8 -8 -8h-270q-16 0 -16 16v16q0 15 10 29l221 427q1 4 -3 4h-219q-9 0 -9 9v30q0 8 9 8z" />
    <glyph glyph-name="zacute.sc" horiz-adv-x="417" 
d="M243 725h45q5 0 6.5 -3t-1.5 -6l-70 -116q-6 -7 -13 -7h-20q-12 0 -7 11l50 114q3 7 10 7zM68 539h268q15 0 15 -15v-14q0 -13 -15 -33l-217 -425q-3 -5 2 -5h224q8 0 8 -8v-31q0 -8 -8 -8h-270q-16 0 -16 16v16q0 15 10 29l221 427q1 4 -3 4h-219q-9 0 -9 9v30q0 8 9 8z
" />
    <glyph glyph-name="zcaron.sc" horiz-adv-x="417" 
d="M217 655l71 45q7 2 9 -4l10 -22q1 -4 -2 -7l-90 -57q-4 -2 -5 -2q-2 0 -6 2l-89 57q-4 3 -3 7l11 22q1 6 9 4l69 -44q1 0 4.5 -2t4.5 -2l3 1q3 1 4 2zM68 539h268q15 0 15 -15v-14q0 -13 -15 -33l-217 -425q-3 -5 2 -5h224q8 0 8 -8v-31q0 -8 -8 -8h-270q-16 0 -16 16v16
q0 15 10 29l221 427q1 4 -3 4h-219q-9 0 -9 9v30q0 8 9 8z" />
    <glyph glyph-name="zdotaccent.sc" horiz-adv-x="417" 
d="M194 725h31q8 0 8 -8v-110q0 -7 -8 -7h-31q-8 0 -8 7v110q0 8 8 8zM68 539h268q15 0 15 -15v-14q0 -13 -15 -33l-217 -425q-3 -5 2 -5h224q8 0 8 -8v-31q0 -8 -8 -8h-270q-16 0 -16 16v16q0 15 10 29l221 427q1 4 -3 4h-219q-9 0 -9 9v30q0 8 9 8z" />
    <glyph glyph-name="zero.lf" horiz-adv-x="557" 
d="M276 708q78 0 118.5 -29t58 -103t17.5 -218q0 -152 -17.5 -229t-57.5 -107t-119 -30t-119 30t-58 107t-18 229q0 144 18 218t58.5 103t118.5 29zM276 659q-59 0 -88 -24t-41.5 -86.5t-12.5 -190.5q0 -134 12.5 -200.5t41.5 -91.5t88 -25q58 0 87 25t41 91t12 201
q0 128 -12.5 190.5t-41 86.5t-86.5 24z" />
    <glyph glyph-name="one.lf" horiz-adv-x="346" 
d="M55 657v22q0 14 16 19q34 9 68 9q52 0 75 -22t23 -70v-607q0 -8 -8 -8h-37q-8 0 -8 8v587q0 36 -10 49t-43 13q-18 0 -41.5 -3.5t-27.5 -3.5q-7 0 -7 7z" />
    <glyph glyph-name="two.lf" horiz-adv-x="475" 
d="M72 652l-2 28q-1 9 8 13q51 15 141 15q105 0 148.5 -38.5t43.5 -120.5q0 -30 -8.5 -57t-17.5 -45t-32.5 -43.5t-36 -37t-45.5 -40.5q-40 -36 -62 -59t-46.5 -57t-35.5 -72.5t-11 -85.5q0 -3 2 -3h284q9 0 9 -8v-33q0 -8 -9 -8h-328q-12 0 -12 12v27q0 105 38.5 169
t116.5 133q44 40 59 54.5t39.5 43t32.5 52.5t8 54q0 61 -32.5 87.5t-111.5 26.5q-31 0 -61.5 -3.5t-50 -7t-22.5 -3.5q-6 0 -6 7z" />
    <glyph glyph-name="three.lf" horiz-adv-x="468" 
d="M56 654l-3 23q0 11 12 15q39 16 123 16q106 0 149 -42.5t43 -129.5q0 -126 -86 -156q-8 -3 0 -4q56 -10 82 -56.5t26 -113.5q0 -105 -48 -159.5t-157 -54.5q-96 0 -136 15q-9 4 -8 15l2 26q0 6 6 6q3 0 21.5 -3t47.5 -6t58 -3q86 0 122.5 38.5t36.5 126.5q0 77 -32.5 109
t-117.5 32h-75q-8 0 -8 8v32q0 8 8 8h72q73 0 102 32.5t29 98.5q0 71 -31.5 101.5t-110.5 30.5q-28 0 -55.5 -3.5t-44.5 -6.5t-20 -3q-7 0 -7 8z" />
    <glyph glyph-name="four.lf" horiz-adv-x="503" 
d="M329 700h21q21 0 21 -21v-491q0 -6 6 -7h85q9 0 9 -8v-29q0 -9 -9 -9h-85q-6 0 -6 -6v-121q0 -8 -9 -8h-36q-8 0 -8 8v121q0 6 -6 6h-227q-34 0 -34 35v75q0 30 7 49.5t24 47.5l202 334q15 24 45 24zM318 188v445q-10 0 -14 -10l-180 -304q-21 -38 -21 -76v-55q0 -6 6 -6
h203q6 0 6 6z" />
    <glyph glyph-name="five.lf" horiz-adv-x="500" 
d="M126 700h265q9 0 9 -8v-33q0 -8 -9 -8h-240q-15 0 -15 -15v-220q66 11 113 11q91 0 132 -46.5t41 -163.5q0 -115 -46 -170t-155 -55q-74 0 -131 15q-9 3 -8 12l2 28q1 7 8 7q3 0 20.5 -3t45.5 -6.5t59 -3.5q86 0 118 37.5t32 138.5q0 96 -30.5 128.5t-99.5 32.5
q-32 0 -62.5 -4t-49.5 -7.5t-23 -3.5q-2 0 -8 3l-7 5q-4 3 -4 10v276q0 43 43 43z" />
    <glyph glyph-name="six.lf" horiz-adv-x="501" 
d="M66 167v320q0 118 41 169.5t155 51.5q82 0 131 -13q13 -3 12 -15l-2 -25q0 -11 -11 -9q-104 11 -125 11q-85 0 -116.5 -34.5t-31.5 -131.5v-77q0 -6 6 -6q2 0 19 2t45.5 4t57.5 2q103 0 143 -48.5t40 -147.5q0 -129 -39 -178.5t-149 -49.5q-102 0 -139 40t-37 135z
M119 348v-181q0 -71 24 -98.5t99 -27.5q85 0 109 35.5t24 141.5q0 81 -26.5 115t-107.5 34q-80 0 -116 -9q-6 0 -6 -10z" />
    <glyph glyph-name="seven.lf" horiz-adv-x="434" 
d="M47 700h266q51 0 51 -49v-173q0 -91 -46 -171l-179 -302q-5 -11 -17 -6l-24 13q-10 5 -5 16l177 301q23 39 32 71t9 81v150q0 19 -18 19h-246q-9 0 -9 8v34q0 8 9 8z" />
    <glyph glyph-name="eight.lf" horiz-adv-x="521" 
d="M214 366l-71 71q-32 31 -48 61t-16 75q0 64 41.5 99.5t141.5 35.5q99 0 140.5 -35t41.5 -101q0 -43 -15.5 -71.5t-46.5 -60.5l-77 -75q-4 -4 0 -8l72 -71q39 -36 59 -69t20 -75q0 -74 -42.5 -112t-152.5 -38q-109 0 -151.5 38t-42.5 110q0 42 19 74.5t58 71.5l71 72
q3 4 -1 8zM267 392l73 72q18 19 26 29t16.5 30.5t8.5 43.5q0 47 -27.5 69t-101.5 22q-75 0 -102.5 -22t-27.5 -69q0 -24 8.5 -44.5t18 -32t27.5 -28.5l71 -70q5 -5 10 0zM334 260l-71 67q-5 5 -10 0l-67 -68q-34 -33 -50 -58.5t-16 -56.5q0 -52 29 -77t112 -25t112 25t29 77
q0 56 -68 116z" />
    <glyph glyph-name="nine.lf" horiz-adv-x="513" 
d="M367 209v84q0 6 -6 6q-2 0 -23 -3.5t-51 -7.5t-54 -4q-104 0 -141.5 50.5t-37.5 156.5q0 123 38.5 170t151.5 47q106 0 141 -40t35 -129v-330q0 -114 -40 -165.5t-155 -51.5q-83 0 -133 10q-14 4 -13 20l2 15q0 7 2.5 10t9.5 2q88 -8 126 -8q86 0 117 34t31 134zM367 358
v178q0 71 -25.5 97.5t-99.5 26.5q-84 0 -109.5 -33.5t-25.5 -135.5q0 -87 25.5 -122.5t107.5 -35.5q39 0 117 13q10 2 10 12z" />
    <glyph glyph-name="zero.osf" horiz-adv-x="517" 
d="M260 512q112 0 152 -62.5t40 -195.5q0 -134 -40 -197.5t-152 -63.5q-59 0 -98 17t-59.5 53t-28.5 80.5t-8 110.5q0 133 40 195.5t154 62.5zM260 464q-81 0 -111.5 -44.5t-30.5 -165.5q0 -120 31 -166.5t111 -46.5q78 0 108.5 47t30.5 166q0 121 -30 165.5t-109 44.5z" />
    <glyph glyph-name="one.osf" horiz-adv-x="295" 
d="M45 464v23q-2 11 10 14q23 10 65 10q46 0 65 -17t19 -56v-430q0 -8 -8 -8h-35q-8 0 -8 8v418q0 39 -47 39q-15 0 -32 -4.5t-20 -4.5q-7 0 -9 8z" />
    <glyph glyph-name="two.osf" horiz-adv-x="458" 
d="M74 459l-3 24q-1 7 9 13q60 15 138 15q93 0 133 -30t40 -94q0 -46 -27.5 -80t-67 -56.5t-79.5 -46.5t-69 -62.5t-31 -91.5q0 -3 3 -3h267q9 0 9 -8v-31q0 -8 -9 -8h-315q-10 0 -10 10v25q0 55 20.5 98t50.5 67.5t66 47t66 39t50.5 41.5t20.5 55q0 45 -28 64t-96 19
q-31 0 -61 -3.5t-48.5 -7t-22.5 -3.5q-6 0 -6 7z" />
    <glyph glyph-name="three.osf" horiz-adv-x="460" 
d="M47 459l-2 24q-1 10 12 15q40 14 123 14q106 0 149 -37.5t43 -114.5q0 -110 -87 -138q-8 -3 0 -4q56 -8 82.5 -49t26.5 -101q0 -91 -48 -139t-158 -48q-99 0 -136 13q-9 3 -8 14l2 26q2 6 7 6q3 0 21.5 -2.5t47.5 -5t58 -2.5q87 0 122.5 32t35.5 107q0 66 -32 93.5
t-117 27.5h-75q-8 0 -8 8v32q0 8 8 8h72q73 0 101.5 28t28.5 85q0 61 -31.5 86.5t-110.5 25.5q-28 0 -55 -2.5t-44 -5.5t-21 -3q-7 0 -7 7z" />
    <glyph glyph-name="four.osf" horiz-adv-x="479" 
d="M321 504h21q21 0 21 -21v-415q0 -6 6 -6h85q9 0 9 -8v-30q0 -8 -9 -8h-85q-6 0 -6 -6v-121q0 -8 -9 -8h-36q-8 0 -8 8v121q0 6 -6 6h-227q-34 0 -34 34v74q0 53 31 92l202 265q18 23 45 23zM310 68v375q-8 0 -14 -9l-180 -240q-21 -30 -21 -72v-54q0 -6 6 -6h203q6 0 6 6
z" />
    <glyph glyph-name="five.osf" horiz-adv-x="468" 
d="M113 504h265q8 0 8 -8v-33q0 -8 -8 -8h-240q-16 0 -16 -12v-191q56 9 113 9q91 0 132 -41t41 -144q0 -98 -45.5 -146t-154.5 -49q-65 -1 -131 13q-9 3 -8 13l2 28q1 7 8 7q3 0 20.5 -3t45.5 -6t59 -3q86 1 117.5 31.5t31.5 114.5q0 82 -30 109t-99 27q-32 0 -62.5 -3
t-49.5 -6.5t-23 -3.5q-3 0 -8 3l-7 5q-4 3 -4 11v247q0 39 43 39z" />
    <glyph glyph-name="six.osf" horiz-adv-x="493" 
d="M72 167v310q0 125 41 178t155 53q82 0 131 -13q13 -3 13 -15l-3 -25q0 -11 -10 -9q-110 11 -125 11q-86 0 -117.5 -34.5t-31.5 -131.5v-77q0 -6 6 -6q2 0 19.5 2t45.5 4t58 2q103 0 143 -48.5t40 -147.5q0 -129 -39.5 -178.5t-149.5 -49.5q-102 0 -139 40t-37 135z
M125 348v-181q0 -71 24 -98.5t99 -27.5q85 0 109 35.5t24 141.5q0 81 -26 115t-108 34q-83 0 -115 -9q-7 0 -7 -10z" />
    <glyph glyph-name="seven.osf" horiz-adv-x="434" 
d="M56 504h266q51 0 51 -50v-172q0 -95 -46 -172l-132 -223q-6 -11 -17 -6l-24 13q-11 5 -5 16l130 222q24 40 33 71.5t9 81.5v149q0 19 -19 19h-246q-8 0 -8 9v33q0 9 8 9z" />
    <glyph glyph-name="eight.osf" horiz-adv-x="504" 
d="M193 366l-72 71q-32 31 -47.5 60.5t-15.5 75.5q0 64 41 99.5t141 35.5q99 0 140.5 -35t41.5 -101q0 -43 -15.5 -71.5t-46.5 -60.5l-76 -75q-5 -5 0 -8l71 -71q39 -36 59 -69t20 -75q0 -74 -42.5 -112t-151.5 -38q-110 0 -152.5 38t-42.5 110q0 41 19 73.5t59 72.5l71 72
q4 4 -1 8zM245 392l73 72q18 19 26 29t16.5 30.5t8.5 43.5q0 47 -27.5 69t-101.5 22q-75 0 -102.5 -22t-27.5 -69q0 -24 8.5 -44.5t18 -31.5t28.5 -29l70 -70q6 -4 10 0zM312 260l-71 67q-5 5 -9 0l-68 -68q-65 -63 -65 -115t29 -77t112 -25t112 25t29 77q0 56 -69 116z" />
    <glyph glyph-name="nine.osf" horiz-adv-x="513" 
d="M367 23v82q0 6 -6 6q-2 0 -23 -3.5t-51 -7t-54 -3.5q-104 0 -141.5 49.5t-37.5 152.5q0 120 38.5 166t151.5 46q106 0 141 -39t35 -126v-323q0 -112 -40.5 -163t-156.5 -51q-86 0 -131 9q-14 4 -13 20l2 16q0 7 2.5 10t9.5 2q88 -8 126 -8q86 0 117 34t31 131zM367 169
v173q0 70 -25 95.5t-100 25.5q-84 0 -109.5 -32t-25.5 -132q0 -85 25.5 -119.5t107.5 -34.5q29 0 69.5 5.5t47.5 7.5q10 2 10 11z" />
    <glyph glyph-name="zero.sinf" horiz-adv-x="288" 
d="M144 274q68 0 91 -40t23 -152q0 -115 -23 -158t-91 -43q-67 0 -90.5 43.5t-23.5 157.5q0 112 23.5 152t90.5 40zM144 237q-44 0 -59 -30.5t-15 -124.5q0 -100 15 -132t59 -32t59 32t15 132q0 94 -15 124.5t-59 30.5z" />
    <glyph glyph-name="one.sinf" horiz-adv-x="269" 
d="M70 239v15q0 10 8 13q14 7 47 7q62 0 62 -48v-336q0 -5 -6 -5h-29q-5 0 -5 5v318q0 17 -6.5 23.5t-25.5 6.5q-11 0 -25 -2l-14 -2q-6 0 -6 5z" />
    <glyph glyph-name="two.sinf" horiz-adv-x="296" 
d="M44 235l-2 21q-1 9 6 10q27 9 85 9q67 0 94 -22.5t27 -68.5q0 -32 -17.5 -59.5t-42.5 -47.5t-50 -40.5t-42.5 -49.5t-17.5 -63q0 -2 2 -2h166q5 0 5 -4v-29q0 -4 -5 -4h-207q-7 0 -7 6v19q0 43 17.5 78.5t43 58t51 42t43 42.5t17.5 48q0 32 -18 45.5t-66 13.5
q-16 0 -33.5 -2t-29.5 -3.5t-14 -1.5q-5 0 -5 4z" />
    <glyph glyph-name="three.sinf" horiz-adv-x="291" 
d="M42 239l-2 17q-1 8 7 10q16 9 75 9q66 0 91.5 -24t25.5 -73q0 -69 -49 -85q-6 -1 0 -3q62 -11 62 -91q0 -58 -28 -88t-97 -30q-52 0 -79 9q-7 3 -6 11l2 17q0 5 5 5q2 0 13 -1.5t28.5 -3t34.5 -1.5q48 0 67.5 19.5t19.5 63.5q0 39 -16.5 55.5t-59.5 16.5h-45q-7 0 -7 6
v21q0 8 7 8h40q38 0 52.5 15.5t14.5 50.5t-18 51t-62 16q-16 0 -32 -1.5t-26 -3t-12 -1.5q-6 0 -6 5z" />
    <glyph glyph-name="four.sinf" horiz-adv-x="288" 
d="M189 270h12q12 0 12 -14v-260q0 -4 4 -4h46q4 0 4 -5v-26q0 -4 -4 -4h-46q-4 0 -4 -4v-64q0 -4 -5 -4h-28q-5 0 -5 4v64q0 4 -4 4h-126q-24 0 -24 19v36q0 29 18 56l113 180q13 22 37 22zM175 -4v219q-6 0 -11 -8l-92 -152q-11 -17 -11 -35v-25q0 -3 4 -3h106q4 0 4 4z
" />
    <glyph glyph-name="five.sinf" horiz-adv-x="286" 
d="M70 270h157q5 0 5 -4v-26q0 -4 -5 -4h-139q-8 0 -8 -7v-114q32 6 64 6q51 0 75.5 -25.5t24.5 -89.5q0 -65 -28 -95t-90 -30q-50 0 -77 9q-8 2 -7 10l2 19q0 5 4 5q1 0 24.5 -3.5t45.5 -3.5q48 0 67 19t19 69t-17 66t-56 16q-23 0 -47.5 -4t-25.5 -4q-4 0 -7 3l-5 3
q-4 3 -4 8v152q0 25 28 25z" />
    <glyph glyph-name="six.sinf" horiz-adv-x="277" 
d="M32 -23v171q0 68 24.5 97.5t93.5 29.5q35 0 74 -6q8 -3 7 -11l-2 -16q0 -8 -8 -8q-5 0 -30 2.5t-38 2.5q-47 0 -64.5 -18t-17.5 -67v-39q0 -3 4 -3q1 0 12.5 1t26.5 2t27 1q60 0 82 -27t22 -83q0 -69 -21 -97t-85 -28t-85.5 22.5t-21.5 73.5zM71 72v-93q0 -36 12.5 -49
t53.5 -13q44 0 56.5 17.5t12.5 70.5q0 41 -13.5 58.5t-56.5 17.5q-10 0 -24.5 -0.5t-25 -1.5t-11.5 -1q-4 -4 -4 -6z" />
    <glyph glyph-name="seven.sinf" horiz-adv-x="275" 
d="M47 270h155q33 0 33 -30v-89q0 -55 -26 -97l-104 -169q-2 -6 -9 -2l-20 10q-8 5 -5 10l101 169q24 38 24 81v72q0 9 -9 9h-140q-7 0 -7 7v22q0 7 7 7z" />
    <glyph glyph-name="eight.sinf" horiz-adv-x="283" 
d="M106 89l-36 38q-18 19 -26.5 34t-8.5 38q0 37 24 56.5t82 19.5q106 0 106 -75q0 -39 -35 -74l-36 -36q-3 -3 0 -5l36 -40q42 -44 42 -81q0 -40 -24.5 -60.5t-88.5 -20.5t-88.5 20.5t-24.5 60.5q0 38 42 80l36 41q1 2 0 4zM145 106l37 37q25 23 25 50q0 25 -14 36.5
t-52 11.5t-52.5 -11.5t-14.5 -36.5q0 -26 24 -50l39 -38q4 -3 8 1zM181 27l-37 41q-3 3 -6 0l-39 -41q-31 -34 -31 -59q0 -26 15 -38t58 -12t58 12t15 38q0 24 -33 59z" />
    <glyph glyph-name="nine.sinf" horiz-adv-x="277" 
d="M206 1v44q0 4 -3 4q-1 0 -12.5 -2t-26.5 -4t-27 -2q-60 0 -82.5 27.5t-22.5 86.5q0 65 22 92.5t86 27.5t84.5 -23t20.5 -74v-177q0 -61 -24 -89.5t-90 -28.5q-55 0 -75 6q-8 3 -7 13l2 14q0 7 7 7q3 0 29.5 -2.5t40.5 -2.5q45 0 61.5 17t16.5 66zM206 90v86
q0 37 -13 50.5t-53 13.5q-42 0 -55 -17t-13 -68q0 -44 12.5 -62t54.5 -18q50 0 61 7q6 2 6 8z" />
    <glyph glyph-name="zero.sups" horiz-adv-x="288" 
d="M144 924q68 0 91 -40t23 -152q0 -115 -23 -158t-91 -43q-67 0 -90.5 43.5t-23.5 157.5q0 112 23.5 152t90.5 40zM144 887q-44 0 -59 -30.5t-15 -124.5q0 -100 15 -132t59 -32t59 32t15 132q0 94 -15 124.5t-59 30.5z" />
    <glyph glyph-name="four.sups" horiz-adv-x="288" 
d="M189 920h12q12 0 12 -14v-260q0 -4 4 -4h46q4 0 4 -5v-26q0 -4 -4 -4h-46q-4 0 -4 -4v-64q0 -4 -5 -4h-28q-5 0 -5 4v64q0 4 -4 4h-126q-24 0 -24 19v36q0 29 18 56l113 180q13 22 37 22zM175 646v219q-6 0 -11 -8l-92 -152q-11 -17 -11 -35v-25q0 -3 4 -3h106q4 0 4 4z
" />
    <glyph glyph-name="five.sups" horiz-adv-x="286" 
d="M70 920h157q5 0 5 -4v-26q0 -4 -5 -4h-139q-8 0 -8 -7v-114q32 6 64 6q51 0 75.5 -25.5t24.5 -89.5q0 -65 -28 -95t-90 -30q-50 0 -77 9q-8 2 -7 10l2 19q0 5 4 5q1 0 24.5 -3.5t45.5 -3.5q48 0 67 19t19 69t-17 66t-56 16q-23 0 -47.5 -4t-25.5 -4q-4 0 -7 3l-5 3
q-4 3 -4 8v152q0 25 28 25z" />
    <glyph glyph-name="six.sups" horiz-adv-x="277" 
d="M32 627v171q0 68 24.5 97.5t93.5 29.5q35 0 74 -6q8 -3 7 -11l-2 -16q0 -8 -8 -8q-5 0 -30 2.5t-38 2.5q-47 0 -64.5 -18t-17.5 -67v-39q0 -3 4 -3q1 0 12.5 1t26.5 2t27 1q60 0 82 -27t22 -83q0 -69 -21 -97t-85 -28t-85.5 22.5t-21.5 73.5zM71 722v-93q0 -36 12.5 -49
t53.5 -13q44 0 56.5 17.5t12.5 70.5q0 41 -13.5 58.5t-56.5 17.5q-10 0 -24.5 -0.5t-25 -1.5t-11.5 -1q-4 -4 -4 -6z" />
    <glyph glyph-name="seven.sups" horiz-adv-x="275" 
d="M47 920h155q33 0 33 -30v-89q0 -55 -26 -97l-104 -169q-2 -6 -9 -2l-20 10q-8 5 -5 10l101 169q24 38 24 81v72q0 9 -9 9h-140q-7 0 -7 7v22q0 7 7 7z" />
    <glyph glyph-name="eight.sups" horiz-adv-x="283" 
d="M106 739l-36 38q-18 19 -26.5 34t-8.5 38q0 37 24 56.5t82 19.5q106 0 106 -75q0 -39 -35 -74l-36 -36q-3 -3 0 -5l36 -40q42 -44 42 -81q0 -39 -25 -60t-88 -21q-64 0 -88.5 20.5t-24.5 60.5q0 38 42 80l36 41q1 2 0 4zM145 756l37 37q25 23 25 50q0 25 -14 36.5
t-52 11.5t-52.5 -11.5t-14.5 -36.5q0 -26 24 -50l39 -38q4 -3 8 1zM181 677l-37 41q-3 3 -6 0l-39 -41q-31 -34 -31 -59q0 -26 15 -38t58 -12t58 12t15 38q0 24 -33 59z" />
    <glyph glyph-name="nine.sups" horiz-adv-x="277" 
d="M206 651v44q0 4 -3 4q-1 0 -12.5 -2t-26.5 -4t-27 -2q-60 0 -82.5 27.5t-22.5 86.5q0 65 22 92.5t86 27.5t84.5 -23t20.5 -74v-177q0 -61 -24 -89.5t-90 -28.5q-55 0 -75 6q-8 3 -7 13l2 14q0 7 7 7q3 0 29.5 -2.5t40.5 -2.5q45 0 61.5 17t16.5 66zM206 740v86
q0 37 -13 50.5t-53 13.5q-42 0 -55 -17t-13 -68q0 -44 12.5 -62t54.5 -18q50 0 61 7q6 2 6 8z" />
    <glyph glyph-name="zero.tf" horiz-adv-x="502" 
d="M240 708q78 0 118.5 -29t58 -103t17.5 -218q0 -152 -17.5 -229t-57.5 -107t-119 -30t-119 30t-58 107t-18 229q0 144 18 218t58.5 103t118.5 29zM240 659q-59 0 -88 -24t-41.5 -86.5t-12.5 -190.5q0 -134 12.5 -200.5t41.5 -91.5t88 -25q58 0 87 25t41 91t12 201
q0 128 -12.5 190.5t-41 86.5t-86.5 24z" />
    <glyph glyph-name="one.tf" horiz-adv-x="502" 
d="M105 660v22q0 13 16 17q34 8 82 8q59 0 85.5 -22t26.5 -70v-607q0 -8 -8 -8h-37q-8 0 -8 8v590q0 33 -16 47t-57 13q-17 0 -34.5 -1.5t-29 -2.5t-13.5 -1q-7 0 -7 7z" />
    <glyph glyph-name="two.tf" horiz-adv-x="502" 
d="M74 652l-2 28q-1 9 8 13q51 15 142 15q105 0 148 -38.5t43 -120.5q0 -30 -8.5 -57t-17.5 -45t-32.5 -43.5t-36 -37t-45.5 -40.5q-40 -36 -62 -59t-46.5 -57t-35.5 -72.5t-11 -85.5q0 -3 2 -3h284q9 0 9 -8v-33q0 -8 -9 -8h-328q-12 0 -12 12v27q0 105 38.5 169t116.5 133
q44 40 59 54.5t39.5 43t32.5 52.5t8 54q0 61 -32.5 87.5t-111.5 26.5q-31 0 -61.5 -3.5t-50 -7t-22.5 -3.5q-6 0 -6 7z" />
    <glyph glyph-name="three.tf" horiz-adv-x="502" 
d="M70 654l-2 23q-1 11 12 15q37 16 123 16q106 0 149 -42.5t43 -129.5q0 -127 -87 -156q-8 -3 0 -4q56 -10 82.5 -56.5t26.5 -113.5q0 -104 -48.5 -159t-157.5 -55q-96 0 -136 15q-9 5 -8 15l2 26q0 6 7 6q3 0 21 -3t47.5 -6t58.5 -3q86 0 122 38t36 127q0 77 -32 109
t-117 32h-75q-8 0 -8 8v32q0 8 8 8h72q73 0 101.5 32.5t28.5 98.5q0 71 -31.5 101.5t-110.5 30.5q-28 0 -55.5 -3.5t-44.5 -6.5t-20 -3q-7 0 -7 8z" />
    <glyph glyph-name="four.tf" horiz-adv-x="502" 
d="M320 700h21q21 0 21 -21v-491q0 -6 6 -7h86q8 0 8 -8v-29q0 -9 -8 -9h-86q-6 0 -6 -6v-121q0 -8 -8 -8h-37q-8 0 -8 8v121q0 6 -6 6h-227q-34 0 -34 35v75q0 30 7 49.5t24 47.5l202 334q15 24 45 24zM309 188v445q-8 0 -14 -10l-180 -304q-21 -38 -21 -76v-55q0 -6 6 -6
h203q6 0 6 6z" />
    <glyph glyph-name="five.tf" horiz-adv-x="502" 
d="M115 700h265q9 0 9 -8v-33q0 -8 -9 -8h-240q-15 0 -15 -15v-220q66 11 113 11q91 0 132 -46.5t41 -163.5q0 -115 -46 -170t-155 -55q-74 0 -131 15q-9 3 -8 12l3 28q0 7 7 7q3 0 20.5 -3t45.5 -6.5t59 -3.5q86 0 118 37.5t32 138.5q0 96 -30 128.5t-100 32.5
q-32 0 -62.5 -4t-49.5 -7.5t-23 -3.5q-3 0 -7 3l-7 5q-5 3 -5 10v276q0 43 43 43z" />
    <glyph glyph-name="six.tf" horiz-adv-x="508" 
d="M70 167v320q0 118 41 169.5t155 51.5q82 0 131 -13q13 -3 12 -15l-2 -25q0 -11 -11 -9q-104 11 -125 11q-85 0 -116.5 -34.5t-31.5 -131.5v-77q0 -6 6 -6q2 0 19 2t45.5 4t57.5 2q103 0 143 -48.5t40 -147.5q0 -129 -39 -178.5t-149 -49.5q-102 0 -139 40t-37 135z
M123 348v-181q0 -71 24 -98.5t99 -27.5q85 0 109 35.5t24 141.5q0 81 -26.5 115t-107.5 34q-80 0 -116 -9q-6 0 -6 -10z" />
    <glyph glyph-name="seven.tf" horiz-adv-x="502" 
d="M82 700h266q51 0 51 -49v-173q0 -94 -46 -171l-178 -302q-6 -11 -17 -6l-24 13q-11 6 -5 16l176 301q23 40 32.5 71.5t9.5 80.5v150q0 19 -19 19h-246q-8 0 -8 8v34q0 8 8 8z" />
    <glyph glyph-name="eight.tf" horiz-adv-x="504" 
d="M193 366l-72 71q-32 31 -47.5 60.5t-15.5 75.5q0 64 41 99.5t141 35.5q99 0 140.5 -35t41.5 -101q0 -43 -15.5 -71.5t-46.5 -60.5l-76 -75q-5 -5 0 -8l71 -71q39 -36 59 -69t20 -75q0 -74 -42.5 -112t-151.5 -38q-110 0 -152.5 38t-42.5 110q0 41 19 73.5t59 72.5l71 72
q4 4 -1 8zM245 392l73 72q18 19 26 29t16.5 30.5t8.5 43.5q0 47 -27.5 69t-101.5 22q-75 0 -102.5 -22t-27.5 -69q0 -24 8.5 -44.5t18 -31.5t28.5 -29l70 -70q6 -4 10 0zM312 260l-71 67q-5 5 -9 0l-68 -68q-65 -63 -65 -115t29 -77t112 -25t112 25t29 77q0 56 -69 116z" />
    <glyph glyph-name="nine.tf" horiz-adv-x="502" 
d="M369 209v84q0 6 -6 6q-2 0 -23 -3.5t-51 -7.5t-54 -4q-103 0 -140.5 50.5t-37.5 156.5q0 123 38 170t151 47q106 0 141 -40t35 -129v-330q0 -114 -40 -165.5t-155 -51.5q-85 0 -132 10q-9 2 -12 6t-2 14l2 15q0 13 12 12q88 -8 126 -8q86 0 117 34t31 134zM369 358v178
q0 71 -25.5 97.5t-99.5 26.5q-84 0 -109.5 -33.5t-25.5 -135.5q0 -87 25.5 -122.5t107.5 -35.5q39 0 117 13q10 2 10 12z" />
    <glyph glyph-name="zero.tosf" horiz-adv-x="495" 
d="M237 512q112 0 152 -62.5t40 -195.5q0 -134 -40 -197.5t-152 -63.5q-59 0 -98 17t-59.5 53t-28.5 80.5t-8 110.5q0 133 40 195.5t154 62.5zM237 464q-81 0 -111 -44t-30 -166q0 -120 30.5 -166.5t110.5 -46.5q78 0 108.5 47t30.5 166q0 121 -30 165.5t-109 44.5z" />
    <glyph glyph-name="one.tosf" horiz-adv-x="495" 
d="M131 468v23q0 9 14 13q35 7 79 7q109 0 109 -80v-423q0 -8 -8 -8h-35q-8 0 -8 8v399q0 32 -15 45.5t-56 12.5q-17 0 -33 -1.5t-25.5 -2.5t-11.5 -1q-7 0 -10 8z" />
    <glyph glyph-name="two.tosf" horiz-adv-x="495" 
d="M81 459l-2 24q-1 7 9 13q60 15 138 15q93 0 132.5 -30t39.5 -94q0 -46 -27.5 -80t-66.5 -56.5t-79 -46.5t-69 -62.5t-31 -91.5q-1 -3 3 -3h267q8 0 8 -8v-31q0 -8 -8 -8h-315q-11 0 -11 10v25q0 55 20.5 98t50.5 67.5t66 47t66 39t50.5 41.5t20.5 55q0 45 -27.5 64
t-95.5 19q-31 0 -61 -3.5t-49 -7t-22 -3.5q-7 0 -7 7z" />
    <glyph glyph-name="three.tosf" horiz-adv-x="495" 
d="M51 459l-2 24q-1 10 12 15q40 14 123 14q106 0 149 -37.5t43 -114.5q0 -110 -87 -138q-8 -3 0 -4q56 -8 82.5 -49t26.5 -101q0 -91 -48 -139t-158 -48q-99 0 -136 13q-9 3 -8 14l2 26q2 6 7 6q3 0 21.5 -2.5t47.5 -5t58 -2.5q87 0 123 32t36 107q0 66 -32 93.5t-118 27.5
h-75q-8 0 -8 8v32q0 8 8 8h72q73 0 102 28t29 85q0 61 -31.5 86.5t-111.5 25.5q-28 0 -55 -2.5t-44 -5.5t-21 -3q-7 0 -7 7z" />
    <glyph glyph-name="four.tosf" horiz-adv-x="495" 
d="M323 504h21q21 0 21 -21v-415q0 -6 6 -6h86q8 0 8 -8v-30q0 -8 -8 -8h-86q-6 0 -6 -6v-121q0 -8 -8 -8h-37q-8 0 -8 8v121q0 6 -6 6h-227q-34 0 -34 34v74q0 53 31 92l202 265q18 23 45 23zM312 68v375q-8 0 -14 -9l-180 -240q-21 -30 -21 -72v-54q0 -6 6 -6h203q6 0 6 6
z" />
    <glyph glyph-name="five.tosf" horiz-adv-x="495" 
d="M116 504h265q8 0 8 -8v-33q0 -8 -8 -8h-240q-15 0 -15 -12v-191q54 9 112 9q91 0 132.5 -41t41.5 -144q0 -98 -46 -146t-155 -49q-65 -1 -131 13q-9 3 -8 13l2 28q1 7 8 7q3 0 20.5 -3t45.5 -6t59 -3q86 1 117.5 31.5t31.5 114.5q0 82 -30 109t-99 27q-32 0 -62.5 -3
t-49.5 -6.5t-23 -3.5t-8 3l-7 5q-4 3 -4 11v247q0 39 43 39z" />
    <glyph glyph-name="six.tosf" horiz-adv-x="495" 
d="M67 152v275q0 114 40 162t151 48q74 0 128 -12q13 -3 13 -14l-2 -26q0 -11 -11 -9q-95 10 -122 10q-83 0 -113.5 -30t-30.5 -114v-67q0 -6 5 -6q2 0 19 1.5t44.5 3.5t56.5 2q101 0 139.5 -43.5t38.5 -133.5q0 -116 -38.5 -161t-145.5 -45q-99 0 -135.5 36.5t-36.5 122.5z
M120 310v-158q0 -62 23 -86.5t96 -24.5q82 0 105.5 31.5t23.5 124.5q0 71 -25.5 101t-104.5 30q-80 0 -112 -9q-6 -1 -6 -9z" />
    <glyph glyph-name="seven.tosf" horiz-adv-x="495" 
d="M57 504h267q51 0 51 -50v-172q0 -92 -46 -172l-133 -223q-6 -11 -17 -6l-24 13q-11 5 -5 16l130 222q24 40 33 71.5t9 81.5v149q0 19 -19 19h-246q-8 0 -8 9v33q0 9 8 9z" />
    <glyph glyph-name="eight.tosf" horiz-adv-x="495" 
d="M191 329l-69 62q-32 26 -47 52.5t-15 68.5q0 60 40 92.5t138 32.5q96 0 137 -31.5t41 -91.5q0 -41 -14.5 -68t-45.5 -53l-73 -64q-5 -5 0 -7l68 -62q42 -35 59.5 -63.5t17.5 -72.5q0 -63 -42.5 -97t-147.5 -34t-147.5 34t-42.5 96q0 42 17 70t59 66l68 63q4 4 -1 7z
M243 353l71 63q28 27 38.5 45.5t10.5 47.5q0 40 -27 59t-98 19q-72 0 -98.5 -19t-27.5 -59q0 -22 8.5 -40t16 -26.5t28.5 -28.5l68 -61q6 -4 10 0zM308 234l-69 59q-4 4 -9 0l-65 -60q-36 -32 -50 -53t-14 -53q0 -41 29 -62.5t108 -21.5q78 0 107 21t30 63q-1 32 -15 54.5
t-52 52.5z" />
    <glyph glyph-name="nine.tosf" horiz-adv-x="495" 
d="M365 72v75q0 5 -5 5q-2 0 -23 -3t-51 -6.5t-54 -3.5q-104 0 -141.5 44t-37.5 138q0 107 38.5 148.5t151.5 41.5q106 0 140.5 -35t34.5 -113v-291q0 -100 -40 -145.5t-156 -45.5q-91 0 -131 8q-15 4 -14 20l2 17q1 11 13 10q73 -7 125 -7q86 0 117 29.5t31 113.5zM365 210
v149q0 60 -25 82t-99 22q-84 0 -110 -28t-26 -114q0 -73 26 -103t108 -30q50 0 116 11q10 2 10 11z" />
    <glyph glyph-name="zero.dnom" horiz-adv-x="288" 
d="M144 389q68 0 91 -40t23 -152q0 -115 -23 -158t-91 -43q-67 0 -90.5 43.5t-23.5 157.5q0 112 23.5 152t90.5 40zM144 352q-44 0 -59 -30.5t-15 -124.5q0 -100 15 -132t59 -32t59 32t15 132q0 94 -15 124.5t-59 30.5z" />
    <glyph glyph-name="one.dnom" horiz-adv-x="269" 
d="M70 354v15q0 10 8 13q14 7 47 7q62 0 62 -48v-336q0 -5 -6 -5h-29q-5 0 -5 5v318q0 17 -6.5 23.5t-25.5 6.5q-11 0 -25 -2l-14 -2q-6 0 -6 5z" />
    <glyph glyph-name="two.dnom" horiz-adv-x="296" 
d="M44 350l-2 21q-1 9 6 10q27 9 85 9q67 0 94 -22.5t27 -68.5q0 -32 -17.5 -59.5t-42.5 -47.5t-50 -40.5t-42.5 -49.5t-17.5 -63q0 -2 2 -2h166q5 0 5 -4v-29q0 -4 -5 -4h-207q-7 0 -7 6v19q0 43 17.5 78.5t43 58t51 42t43 42.5t17.5 48q0 32 -18 45.5t-66 13.5
q-16 0 -33.5 -1.5t-29.5 -3.5t-14 -2q-5 0 -5 4z" />
    <glyph glyph-name="three.dnom" horiz-adv-x="291" 
d="M42 354l-2 17q-1 8 7 10q16 9 75 9q66 0 91.5 -24t25.5 -73q0 -69 -49 -85q-6 -2 0 -3q62 -11 62 -91q0 -58 -28 -88t-97 -30q-52 0 -79 9q-7 3 -6 11l2 17q0 5 5 5q2 0 13 -1.5t28.5 -3t34.5 -1.5q48 0 67.5 19.5t19.5 63.5q0 39 -16.5 55.5t-59.5 16.5h-45q-7 0 -7 6
v21q0 8 7 8h40q38 0 52.5 15.5t14.5 50.5t-18 51t-62 16q-16 0 -32 -1.5t-26 -3t-12 -1.5q-6 0 -6 5z" />
    <glyph glyph-name="four.dnom" horiz-adv-x="288" 
d="M189 385h12q12 0 12 -14v-260q0 -4 4 -4h46q4 0 4 -5v-26q0 -4 -4 -4h-46q-4 0 -4 -4v-64q0 -4 -5 -4h-28q-5 0 -5 4v64q0 4 -4 4h-126q-24 0 -24 19v36q0 29 18 56l113 180q13 22 37 22zM175 111v219q-6 0 -11 -8l-92 -152q-11 -16 -11 -35v-25q0 -3 4 -3h106q4 0 4 4z
" />
    <glyph glyph-name="five.dnom" horiz-adv-x="286" 
d="M70 385h157q5 0 5 -4v-26q0 -4 -5 -4h-139q-8 0 -8 -7v-114q32 6 64 6q51 0 75.5 -25.5t24.5 -89.5q0 -65 -28 -95t-90 -30q-50 0 -77 9q-8 2 -7 10l2 19q0 5 4 5q1 0 24.5 -3.5t45.5 -3.5q48 0 67 19t19 69t-17 66t-56 16q-23 0 -47.5 -4t-25.5 -4q-4 0 -7 3l-5 3
q-4 3 -4 8v152q0 25 28 25z" />
    <glyph glyph-name="six.dnom" horiz-adv-x="277" 
d="M32 92v171q0 68 24.5 97.5t93.5 29.5q35 0 74 -6q8 -3 7 -11l-2 -16q0 -8 -8 -8q-5 0 -30 2.5t-38 2.5q-47 0 -64.5 -18t-17.5 -67v-39q0 -3 4 -3q1 0 12.5 1t26.5 2t27 1q60 0 82 -27t22 -83q0 -69 -21 -97t-85 -28t-85.5 22.5t-21.5 73.5zM71 187v-93q0 -36 12.5 -49
t53.5 -13q44 0 56.5 17.5t12.5 70.5q0 41 -13.5 58.5t-56.5 17.5q-10 0 -24.5 -1t-25 -1.5t-11.5 -0.5q-4 -4 -4 -6z" />
    <glyph glyph-name="seven.dnom" horiz-adv-x="275" 
d="M47 385h155q33 0 33 -30v-89q0 -55 -26 -97l-104 -169q-2 -6 -9 -2l-20 10q-8 5 -5 10l101 169q24 38 24 81v72q0 9 -9 9h-140q-7 0 -7 7v22q0 7 7 7z" />
    <glyph glyph-name="eight.dnom" horiz-adv-x="283" 
d="M106 204l-36 38q-18 19 -26.5 34t-8.5 38q0 37 24 56.5t82 19.5q106 0 106 -75q0 -39 -35 -74l-36 -36q-3 -3 0 -5l36 -40q42 -44 42 -81q0 -39 -25 -60t-88 -21q-64 0 -88.5 20.5t-24.5 60.5q0 38 42 80l36 41q1 2 0 4zM145 221l37 37q25 23 25 50q0 25 -14 36.5
t-52 11.5t-52.5 -11.5t-14.5 -36.5q0 -26 24 -50l39 -38q4 -3 8 1zM181 142l-37 41q-3 3 -6 0l-39 -41q-31 -34 -31 -59q0 -26 15 -38t58 -12t58 12t15 38q0 24 -33 59z" />
    <glyph glyph-name="nine.dnom" horiz-adv-x="277" 
d="M206 116v44q0 4 -3 4q-1 0 -12.5 -2t-26.5 -4t-27 -2q-60 0 -82.5 27.5t-22.5 86.5q0 65 22 92.5t86 27.5t84.5 -23t20.5 -74v-177q0 -61 -24 -89.5t-90 -28.5q-55 0 -75 6q-8 3 -7 13l2 14q0 7 7 7q3 0 29.5 -2.5t40.5 -2.5q45 0 61.5 17t16.5 66zM206 205v86
q0 37 -13 50.5t-53 13.5q-42 0 -55 -17t-13 -68q0 -44 12.5 -62t54.5 -18q50 0 61 7q6 2 6 8z" />
    <glyph glyph-name="zero.numr" horiz-adv-x="288" 
d="M144 704q68 0 91 -40t23 -152q0 -115 -23 -158t-91 -43q-67 0 -90.5 43.5t-23.5 157.5q0 112 23.5 152t90.5 40zM144 667q-44 0 -59 -30.5t-15 -124.5q0 -100 15 -132t59 -32t59 32t15 132q0 94 -15 124.5t-59 30.5z" />
    <glyph glyph-name="one.numr" horiz-adv-x="269" 
d="M70 669v15q0 10 8 13q14 7 47 7q62 0 62 -48v-336q0 -5 -6 -5h-29q-5 0 -5 5v318q0 17 -6.5 23.5t-25.5 6.5q-11 0 -25 -2l-14 -2q-6 0 -6 5z" />
    <glyph glyph-name="two.numr" horiz-adv-x="296" 
d="M44 665l-2 21q-1 9 6 10q27 9 85 9q67 0 94 -22.5t27 -68.5q0 -32 -17.5 -59.5t-42.5 -47.5t-50 -40.5t-42.5 -49.5t-17.5 -63q0 -2 2 -2h166q5 0 5 -4v-29q0 -4 -5 -4h-207q-7 0 -7 6v19q0 43 17.5 78.5t43 58t51 42t43 42.5t17.5 48q0 32 -18 45.5t-66 13.5
q-16 0 -33.5 -2t-29.5 -3.5t-14 -1.5q-5 0 -5 4z" />
    <glyph glyph-name="three.numr" horiz-adv-x="291" 
d="M42 669l-2 17q-1 8 7 10q16 9 75 9q66 0 91.5 -24t25.5 -73q0 -69 -49 -85q-6 -1 0 -3q62 -11 62 -91q0 -58 -28 -88t-97 -30q-52 0 -79 9q-7 3 -6 11l2 17q0 5 5 5q2 0 13 -1.5t28.5 -3t34.5 -1.5q48 0 67.5 19.5t19.5 63.5q0 39 -16.5 55.5t-59.5 16.5h-45q-7 0 -7 6
v21q0 8 7 8h40q38 0 52.5 15.5t14.5 50.5t-18 51t-62 16q-16 0 -32 -1.5t-26 -3t-12 -1.5q-6 0 -6 5z" />
    <glyph glyph-name="four.numr" horiz-adv-x="288" 
d="M189 700h12q12 0 12 -14v-260q0 -4 4 -4h46q4 0 4 -5v-26q0 -4 -4 -4h-46q-4 0 -4 -4v-64q0 -4 -5 -4h-28q-5 0 -5 4v64q0 4 -4 4h-126q-24 0 -24 19v36q0 29 18 56l113 180q13 22 37 22zM175 426v219q-6 0 -11 -8l-92 -152q-11 -17 -11 -35v-25q0 -3 4 -3h106q4 0 4 4z
" />
    <glyph glyph-name="five.numr" horiz-adv-x="286" 
d="M70 700h157q5 0 5 -4v-26q0 -4 -5 -4h-139q-8 0 -8 -7v-114q32 6 64 6q51 0 75.5 -25.5t24.5 -89.5q0 -65 -28 -95t-90 -30q-50 0 -77 9q-8 2 -7 10l2 19q0 5 4 5q1 0 24.5 -3.5t45.5 -3.5q48 0 67 19t19 69t-17 66t-56 16q-23 0 -47.5 -4t-25.5 -4q-4 0 -7 3l-5 3
q-4 3 -4 8v152q0 25 28 25z" />
    <glyph glyph-name="six.numr" horiz-adv-x="277" 
d="M32 407v171q0 68 24.5 97.5t93.5 29.5q35 0 74 -6q8 -3 7 -11l-2 -16q0 -8 -8 -8q-5 0 -30 2.5t-38 2.5q-47 0 -64.5 -18t-17.5 -67v-39q0 -3 4 -3q1 0 12.5 1t26.5 2t27 1q60 0 82 -27t22 -83q0 -69 -21 -97t-85 -28t-85.5 22.5t-21.5 73.5zM71 502v-93q0 -36 12.5 -49
t53.5 -13q44 0 56.5 17.5t12.5 70.5q0 41 -13.5 58.5t-56.5 17.5q-10 0 -24.5 -0.5t-25 -1.5t-11.5 -1q-4 -4 -4 -6z" />
    <glyph glyph-name="seven.numr" horiz-adv-x="275" 
d="M47 700h155q33 0 33 -30v-89q0 -55 -26 -97l-104 -169q-2 -6 -9 -2l-20 10q-8 5 -5 10l101 169q24 38 24 81v72q0 9 -9 9h-140q-7 0 -7 7v22q0 7 7 7z" />
    <glyph glyph-name="eight.numr" horiz-adv-x="283" 
d="M106 519l-36 38q-18 19 -26.5 34t-8.5 38q0 37 24 56.5t82 19.5q106 0 106 -75q0 -39 -35 -74l-36 -36q-3 -3 0 -5l36 -40q42 -44 42 -81q0 -39 -25 -60t-88 -21q-64 0 -88.5 20.5t-24.5 60.5q0 38 42 80l36 41q1 2 0 4zM145 536l37 37q25 23 25 50q0 25 -14 36.5
t-52 11.5t-52.5 -11.5t-14.5 -36.5q0 -26 24 -50l39 -38q4 -3 8 1zM181 457l-37 41q-3 3 -6 0l-39 -41q-31 -34 -31 -59q0 -26 15 -38t58 -12t58 12t15 38q0 24 -33 59z" />
    <glyph glyph-name="nine.numr" horiz-adv-x="277" 
d="M206 431v44q0 4 -3 4q-1 0 -12.5 -2t-26.5 -4t-27 -2q-60 0 -82.5 27.5t-22.5 86.5q0 65 22 92.5t86 27.5t84.5 -23t20.5 -74v-177q0 -61 -24 -89.5t-90 -28.5q-55 0 -75 6q-8 3 -7 13l2 14q0 7 7 7q3 0 29.5 -2.5t40.5 -2.5q45 0 61.5 17t16.5 66zM206 520v86
q0 37 -13 50.5t-53 13.5q-42 0 -55 -17t-13 -68q0 -44 12.5 -62t54.5 -18q50 0 61 7q6 2 6 8z" />
    <glyph glyph-name="zero.sc" horiz-adv-x="473" 
d="M237 547q104 0 141 -66.5t37 -208.5q0 -144 -37 -212t-141 -68t-141 68t-37 212q0 142 37 208.5t141 66.5zM237 498q-72 0 -98.5 -47.5t-26.5 -178.5q0 -130 27 -180.5t98 -50.5q70 0 97.5 51t27.5 180q0 131 -27 178.5t-98 47.5z" />
    </font>
</defs>
</svg>
