<?xml version="1.0" standalone="no"?>
<!DOCTYPE svg PUBLIC "-//W3C//DTD SVG 1.1//EN" "http://www.w3.org/Graphics/SVG/1.1/DTD/svg11.dtd" >
<svg xmlns="http://www.w3.org/2000/svg">
<metadata>
Created by FontPrep 20130207 at Wed Oct 30 14:26:19 2013
 By Rodrigo Saiani
Copyright (c) 2010 by Rodrigo Saiani. All rights reserved.
</metadata>
<defs>
<font id="07a2877975bf390fd7a6d23d05ec07fd" horiz-adv-x='1024' >
  <font-face 
    font-family="Plau-Bold"
    font-weight="700"
    font-stretch="normal"
    units-per-em="1000"
    panose-1="0 0 8 0 0 0 0 0 0 0"
    ascent="750"
    descent="-250"
    x-height="514"
    cap-height="700"
    bbox="-63.3913 -240 1002 929"
    underline-thickness="50"
    underline-position="-50"
    unicode-range="U+0020-FB02"
  />
<missing-glyph horiz-adv-x="586" 
d="M105 701h376q21 0 21 -20v-661q0 -20 -21 -20h-376q-21 0 -21 20v661q0 20 21 20zM412 620h-238q-5 0 -5 -5v-529q0 -5 5 -5h238q5 0 5 5v529q0 5 -5 5z" />
    <glyph glyph-name="fi" unicode="fi" horiz-adv-x="535" 
d="M87 524v22q0 91 37 127t141 36q94 0 141 -15q24 -9 21 -40l-7 -48q-3 -15 -14 -15l-22 3q-23 2 -56 4t-61 2q-35 0 -47.5 -12t-12.5 -43v-21q0 -10 12 -10h233q15 0 15 -14v-483q0 -17 -17 -17h-88q-15 0 -15 17v393h-128q-12 0 -12 -12v-384q0 -14 -14 -14h-89
q-17 0 -17 14v385q0 11 -10 11h-43q-17 0 -17 17v70q0 17 17 17h43q10 0 10 10z" />
    <glyph glyph-name="fl" unicode="fl" horiz-adv-x="574" 
d="M87 524v41q0 90 51 133t153 43q108 0 158 -46t50 -143v-540q0 -12 -12 -12h-101q-12 0 -12 12v533q0 45 -19 65.5t-65 20.5q-45 0 -64 -15.5t-19 -52.5v-39q0 -10 12 -10h80q18 0 18 -17v-70q0 -17 -18 -17h-80q-12 0 -12 -12v-384q0 -14 -14 -14h-89q-17 0 -17 14v385
q0 11 -10 11h-43q-17 0 -17 17v70q0 17 17 17h43q10 0 10 10z" />
    <glyph glyph-name="f_f" unicode="ff" horiz-adv-x="611" 
d="M367 524v53q0 93 32 128.5t107 35.5q68 0 90 -11q18 -10 15 -34l-9 -57q-2 -12 -13 -12q-3 0 -24 2t-35 2q-23 0 -33 -11t-10 -40v-56q0 -10 11 -10h84q17 0 17 -17v-70q0 -17 -17 -17h-84q-11 0 -11 -12v-384q0 -14 -15 -14h-89q-16 0 -16 14v385q0 11 -10 11h-138
q-12 0 -12 -12v-384q0 -14 -14 -14h-89q-17 0 -17 14v385q0 11 -10 11h-43q-17 0 -17 17v70q0 17 17 17h43q10 0 10 10v48q0 82 28.5 115t95.5 33q55 0 90 -13q21 -10 17 -32l-8 -47q-1 -10 -3.5 -12.5t-10.5 -2.5l-56 1q-18 0 -25.5 -10t-7.5 -33v-47q0 -10 12 -10h138
q10 0 10 10z" />
    <glyph glyph-name="f_f_i" unicode="ffi" horiz-adv-x="804" 
d="M355 524v53q0 93 32 128.5t109 35.5q70 0 95 -11q19 -11 15 -34l-8 -57q-3 -12 -14 -12q-3 0 -25 2t-39 2q-24 0 -34.5 -11t-10.5 -40v-56q0 -10 12 -10h234q15 0 15 -14v-483q0 -17 -17 -17h-88q-15 0 -15 17v393h-129q-12 0 -12 -12v-384q0 -14 -15 -14h-89
q-16 0 -16 14v385q0 11 -10 11h-126q-12 0 -12 -12v-384q0 -14 -14 -14h-89q-17 0 -17 14v385q0 11 -10 11h-43q-17 0 -17 17v70q0 17 17 17h43q10 0 10 10v52q0 82 29 115t97 33q56 0 90 -14q21 -10 17 -31l-8 -47q-1 -10 -3.5 -12.5t-9.5 -2.5q-2 0 -24.5 0.5t-32.5 0.5
q-20 0 -27.5 -10t-7.5 -33v-51q0 -10 12 -10h126q10 0 10 10z" />
    <glyph glyph-name=".notdef" horiz-adv-x="586" 
d="M105 701h376q21 0 21 -20v-661q0 -20 -21 -20h-376q-21 0 -21 20v661q0 20 21 20zM412 620h-238q-5 0 -5 -5v-529q0 -5 5 -5h238q5 0 5 5v529q0 5 -5 5z" />
    <glyph glyph-name=".null" horiz-adv-x="0" 
 />
    <glyph glyph-name="nonmarkingreturn" horiz-adv-x="333" 
 />
    <glyph glyph-name="space" unicode=" " horiz-adv-x="224" 
 />
    <glyph glyph-name="exclam" unicode="!" horiz-adv-x="292" 
d="M95 700h102q13 0 13 -15v-431q0 -12 -12 -12h-103q-12 0 -12 12v431q0 15 12 15zM99 165h96q15 0 15 -15v-135q0 -15 -15 -15h-96q-16 0 -16 15v135q0 15 16 15z" />
    <glyph glyph-name="quotedbl" unicode="&#x22;" horiz-adv-x="371" 
d="M45 700h91q15 0 15 -16v-133l-11 -95q0 -15 -16 -15h-67q-16 0 -16 15l-11 95v133q0 16 15 16zM234 700h90q16 0 16 -16v-133l-11 -95q0 -15 -16 -15h-67q-16 0 -16 15l-12 95v133q0 16 16 16z" />
    <glyph glyph-name="numbersign" unicode="#" horiz-adv-x="686" 
d="M442 707h82q16 0 16 -17l-18 -166h80q14 0 14 -13v-72q0 -5 -4.5 -9t-9.5 -4h-90l-15 -138h98q14 0 14 -12v-71q0 -5 -4.5 -10t-9.5 -5h-108l-19 -178q0 -12 -18 -12h-76q-15 0 -15 16l19 174h-109l-19 -178q0 -12 -18 -12h-76q-17 0 -15 16l18 174h-77q-5 0 -8.5 4.5
t-3.5 9.5v72q0 12 12 12h86l14 138h-93q-12 0 -12 11v74q0 13 12 13h102l18 169q2 14 15 14h83q14 0 14 -17l-17 -166h105l19 169q2 14 14 14zM293 426l-14 -138h107l15 138h-108z" />
    <glyph glyph-name="dollar" unicode="$" horiz-adv-x="524" 
d="M228 780h82q5 0 9.5 -4.5t4.5 -10.5v-82q0 -13 13 -13q18 -1 72 -8q11 -2 15 -6.5t3 -14.5l-6 -76q-2 -11 -14 -11q-2 0 -57 5.5t-85 5.5q-42 0 -58.5 -11.5t-16.5 -40.5q0 -35 27.5 -54.5t108.5 -54.5q5 -2 8 -3q68 -31 98.5 -69.5t30.5 -105.5q0 -145 -142 -175
q-14 -4 -14 -18v-94q0 -12 -13 -12h-83q-13 0 -13 12v88q0 12 -14 15q-52 5 -93 17q-11 4 -14.5 9t-2.5 15l8 78q1 14 13 14l54 -8q54 -8 89 -8q55 0 77.5 13.5t22.5 46.5q0 36 -25.5 57t-101.5 53q-78 33 -112.5 72.5t-34.5 115.5q0 72 31 108.5t106 43.5q7 1 10.5 3t4 4.5
t0.5 6.5v82q0 15 12 15z" />
    <glyph glyph-name="percent" unicode="%" horiz-adv-x="796" 
d="M216 706q71 0 98.5 -38.5t27.5 -121.5q0 -84 -27 -121.5t-99 -37.5t-100 38t-28 121q0 82 28.5 121t99.5 39zM565 700h50q17 0 9 -14l-381 -674q-6 -12 -22 -12h-48q-7 0 -9.5 4.5t1.5 11.5l378 669q8 15 22 15zM216 623q-23 0 -31.5 -17t-8.5 -60q0 -44 8.5 -60
t31.5 -16q22 0 30.5 16.5t8.5 59.5t-8.5 60t-30.5 17zM581 313q71 0 99 -38.5t28 -121.5q0 -84 -27.5 -121.5t-99.5 -37.5q-71 0 -99 38.5t-28 120.5t28 121t99 39zM581 230q-23 0 -30.5 -16t-7.5 -61q0 -44 7.5 -60t30.5 -16q22 0 31 16.5t9 59.5t-9 60t-31 17z" />
    <glyph glyph-name="ampersand" unicode="&#x26;" horiz-adv-x="715" 
d="M622 97v-45q0 -28 -34 -45t-68 -17q-67 0 -102 42q-8 8 -14 0q-34 -41 -132 -41q-107 0 -152 51t-45 155q0 145 95 177q10 3 10 4t-7 6q-38 18 -55 51.5t-17 94.5q0 87 50.5 131.5t163.5 44.5q99 0 143 -16q25 -10 20 -42l-8 -49q-2 -13 -13 -13q-5 0 -49 4t-81 4
q-94 0 -94 -89q0 -50 21.5 -74t67.5 -24h54q11 0 11 10v89q0 14 16 14h52q13 0 22 -11l12 -16q16 -21 16 -38v-30q0 -18 23 -18h70q11 0 11 -11v-78q0 -9 -11 -9h-73q-12 0 -12 -10v-151q0 -18 8 -30.5t22 -12.5q16 0 38 4t27 4q14 0 14 -16zM376 309h-78q-50 0 -70.5 -25.5
t-20.5 -79.5q0 -55 22.5 -78.5t69.5 -23.5q43 0 65.5 19t22.5 51v125q0 12 -11 12z" />
    <glyph glyph-name="quotesingle" unicode="'" horiz-adv-x="247" 
d="M85 700h77q18 0 18 -17v-109q0 -33 -15 -64.5t-50 -80.5q-11 -14 -32 -9l-20 6q-15 3 -14 15q18 108 18 132v110q0 17 18 17z" />
    <glyph glyph-name="parenleft" unicode="(" horiz-adv-x="320" 
d="M301 -38l-28 -46q-9 -14 -24 -7q-94 42 -144 154.5t-49 278.5q-1 165 49 277.5t144 154.5q15 7 24 -7l28 -46q9 -14 -7 -23q-59 -36 -91.5 -130t-32.5 -226q0 -133 32 -226t92 -130q16 -9 7 -24z" />
    <glyph glyph-name="parenright" unicode=")" horiz-adv-x="340" 
d="M27 721l28 46q9 14 24 7q94 -42 144 -154.5t49 -277.5q1 -166 -49 -278.5t-144 -154.5q-15 -7 -24 7l-28 46q-9 15 7 24q60 37 92 130t32 226q0 132 -32.5 226t-91.5 130q-16 9 -7 23z" />
    <glyph glyph-name="asterisk" unicode="*" horiz-adv-x="489" 
d="M212 700h65q17 0 17 -16l-3 -96q-1 -10 4.5 -13.5t15.5 -0.5l92 31q16 6 21 -10l20 -63q5 -15 -11 -20l-85 -24q-20 -7 -7 -23l59 -76q10 -13 -3 -23l-54 -39q-14 -11 -23 3l-62 91q-13 16 -24 0l-63 -92q-9 -14 -23 -4l-55 39q-11 11 -3 24l60 76q12 17 -7 22l-86 25
q-18 5 -11 20l19 63q5 15 23 10l92 -32q19 -5 19 14l-4 98q0 16 17 16z" />
    <glyph glyph-name="plus" unicode="+" horiz-adv-x="551" 
d="M238 451h74q5 0 9.5 -4t4.5 -10v-106q0 -15 13 -15h112q15 0 15 -12v-73q0 -5 -4.5 -9t-10.5 -4h-111q-6 0 -10 -4t-4 -9v-110q0 -12 -13 -12h-75q-12 0 -12 12v108q0 6 -4 10.5t-9 4.5h-115q-12 0 -12 12v74q0 12 12 12h113q6 0 10.5 4t4.5 9v108q0 14 12 14z" />
    <glyph glyph-name="comma" unicode="," horiz-adv-x="280" 
d="M84 161h78q17 0 17 -17v-109q0 -33 -14.5 -65t-49.5 -80q-11 -14 -32 -9l-20 6q-15 3 -15 15q19 91 19 132v110q0 17 17 17z" />
    <glyph glyph-name="hyphen" unicode="-" horiz-adv-x="413" 
d="M72 318h267q14 0 14 -12v-73q0 -5 -4.5 -9.5t-9.5 -4.5h-267q-12 0 -12 12v75q0 12 12 12z" />
    <glyph glyph-name="period" unicode="." horiz-adv-x="260" 
d="M86 174h89q15 0 15 -15v-144q0 -15 -15 -15h-89q-16 0 -16 15v144q0 15 16 15z" />
    <glyph glyph-name="slash" unicode="/" horiz-adv-x="330" 
d="M226 752h74q14 0 11 -15l-188 -787q-3 -12 -18 -12h-75q-12 0 -11 12l189 787q4 15 18 15z" />
    <glyph glyph-name="zero" unicode="0" horiz-adv-x="606" 
d="M303 709q87 0 136 -31.5t73 -109t24 -218.5q0 -142 -24 -220.5t-72.5 -109.5t-136.5 -31t-136.5 31t-72.5 109.5t-24 220.5q0 141 24 218.5t73 109t136 31.5zM303 594q-64 0 -84 -47.5t-20 -196.5q0 -148 20.5 -197t83.5 -49q61 0 81.5 49.5t20.5 196.5q0 149 -20 196.5
t-82 47.5z" />
    <glyph glyph-name="one" unicode="1" horiz-adv-x="440" 
d="M58 600v57q0 28 21 35q44 14 96 14q80 0 113.5 -32t33.5 -118v-541q0 -15 -15 -15h-97q-6 0 -10.5 4.5t-4.5 10.5v508q0 39 -10 53.5t-42 14.5q-12 0 -36 -2t-36 -2q-13 0 -13 13z" />
    <glyph glyph-name="two" unicode="2" horiz-adv-x="548" 
d="M82 591l-8 68q-4 25 18 32q48 18 153 18q120 0 172 -41.5t52 -134.5q0 -66 -26 -109t-94 -106q-100 -94 -118 -116q-31 -39 -31 -81q0 -5 6 -5h251q17 0 17 -17v-82q0 -17 -17 -17h-367q-18 0 -18 18v60q0 88 25.5 135.5t98.5 115.5q90 85 116 118t26 70q0 41 -27 59
t-87 18q-40 0 -84 -8l-44 -7q-12 0 -14 12z" />
    <glyph glyph-name="three" unicode="3" horiz-adv-x="554" 
d="M73 594l-8 63q-3 23 17 30q55 22 142 22q124 0 177 -42.5t53 -128.5q0 -63 -17 -99.5t-53 -58.5q-8 -5 0 -7q97 -27 97 -165q0 -217 -242 -217q-123 0 -161 18q-20 8 -16 37l8 60q2 13 14 13l48 -5q48 -5 84 -5q71 0 102 22.5t31 80.5q0 52 -21.5 72t-83.5 20h-96
q-17 0 -17 17v81q0 17 17 17h84q51 0 70.5 21t19.5 67q0 49 -25 68t-86 19q-39 0 -80.5 -6t-43.5 -6q-12 0 -14 12z" />
    <glyph glyph-name="four" unicode="4" horiz-adv-x="574" 
d="M346 700h58q46 0 46 -47v-420q0 -9 9 -10h69q18 0 18 -17v-71q0 -17 -18 -17h-69q-9 0 -9 -9v-92q0 -17 -16 -17h-94q-17 0 -17 17v92q0 9 -9 9h-186q-72 0 -72 72v75q0 54 33 103l206 305q18 27 51 27zM323 233v283q-6 0 -10 -7l-118 -186q-14 -20 -14 -50v-40
q0 -9 8 -9h125q9 0 9 9z" />
    <glyph glyph-name="five" unicode="5" horiz-adv-x="563" 
d="M141 700h308q17 0 17 -17v-82q0 -17 -17 -17h-226q-7 0 -7 -7v-142q31 6 85 6q103 0 149.5 -51t46.5 -168q0 -110 -56.5 -170.5t-190.5 -60.5q-92 0 -145 15q-21 6 -18 29l9 68q3 16 17 16q4 0 22 -3.5t47.5 -6.5t61.5 -3q69 0 95 25.5t26 90.5q0 61 -22.5 82.5
t-75.5 21.5q-36 0 -81 -6.5t-48 -6.5q-10 0 -18 7l-21 15q-11 8 -11 23v290q0 52 53 52z" />
    <glyph glyph-name="six" unicode="6" horiz-adv-x="576" 
d="M74 189v289q0 125 51 178t163 53q116 0 166 -18q12 -4 16.5 -9t3.5 -17l-9 -81q0 -12 -13 -12q-1 0 -23 3.5t-54 6.5t-67 3q-62 0 -84 -22t-22 -81v-38q0 -9 7 -9l37 5q37 4 72 4q104 0 151.5 -51t47.5 -158q0 -128 -56.5 -186t-172.5 -58q-110 0 -162 44.5t-52 153.5z
M202 297v-106q0 -47 18.5 -66t67.5 -19q58 0 78 29t20 91q0 55 -18 79t-72 24q-61 0 -83 -10q-11 -4 -11 -22z" />
    <glyph glyph-name="seven" unicode="7" horiz-adv-x="502" 
d="M64 701h289q38 -1 59.5 -20.5t21.5 -53.5v-172q0 -43 -9 -79.5t-18.5 -55t-29.5 -51.5l-159 -263q-8 -16 -24 -7l-76 43q-17 9 -7 24l155 268q40 67 40 123v101q0 12 -4.5 16.5t-15.5 4.5h-222q-17 0 -17 17v88q0 17 17 17z" />
    <glyph glyph-name="eight" unicode="8" horiz-adv-x="577" 
d="M181 364l-31 26q-39 30 -55.5 64t-16.5 88q0 75 51 121t165 46q214 0 214 -169q0 -43 -17.5 -74t-52.5 -65l-40 -37q-5 -5 0 -8l35 -29q45 -34 66 -68t21 -84q0 -92 -55 -138t-173 -46q-228 0 -228 176q0 50 19 85t62 73l36 32q5 4 0 7zM302 416l36 33q42 44 42 76
q0 33 -20 48.5t-67 15.5q-49 0 -69 -16.5t-20 -47.5q0 -27 12 -45t41 -39l32 -25q8 -5 13 0zM337 262l-45 34q-7 5 -13 -1l-42 -36q-43 -36 -43 -75q0 -73 98 -73q53 0 75.5 17.5t22.5 54.5q0 24 -12.5 41t-40.5 38z" />
    <glyph glyph-name="nine" unicode="9" horiz-adv-x="577" 
d="M363 218v39q0 7 -7 7q-3 0 -15 -2t-34.5 -4t-50.5 -2q-106 0 -150.5 54t-44.5 171q0 120 50.5 174t171.5 54q112 0 160 -44t48 -133v-326q0 -105 -53 -160t-173 -55q-107 0 -155 15q-18 6 -22.5 15t-1.5 29l7 48q3 20 18 20q4 0 26.5 -3.5t51 -6t53.5 -2.5q69 0 95 23.5
t26 88.5zM363 397v121q0 43 -20 59.5t-68 16.5q-50 0 -69 -22.5t-19 -90.5q0 -62 20 -86t72 -24q59 0 75 8q9 3 9 18z" />
    <glyph glyph-name="colon" unicode=":" horiz-adv-x="304" 
d="M104 499h96q15 0 15 -15v-112q0 -14 -15 -14h-96q-15 0 -15 14v112q0 15 15 15zM104 141h96q15 0 15 -15v-111q0 -15 -15 -15h-96q-15 0 -15 15v111q0 15 15 15z" />
    <glyph glyph-name="semicolon" unicode=";" horiz-adv-x="280" 
d="M81 500h79q16 0 16 -15v-119q0 -14 -16 -14h-79q-16 0 -16 14v119q0 15 16 15zM84 161h78q17 0 17 -17v-109q0 -33 -14.5 -65t-49.5 -80q-11 -14 -32 -9l-20 6q-15 3 -15 15q19 91 19 132v110q0 17 17 17z" />
    <glyph glyph-name="less" unicode="&#x3c;" horiz-adv-x="413" 
d="M321 512l42 -39q15 -15 3 -25l-190 -178q-17 -17 0 -32l191 -179q12 -10 -4 -24l-41 -39q-13 -12 -30 3l-253 234q-8 6 -8 20t8 21l254 238q15 13 28 0z" />
    <glyph glyph-name="equal" unicode="=" horiz-adv-x="563" 
d="M102 464h358q14 0 14 -12v-73q0 -5 -4 -9.5t-10 -4.5h-358q-13 0 -13 13v74q0 12 13 12zM102 286h358q14 0 14 -13v-72q0 -5 -4 -9t-10 -4h-358q-6 0 -9.5 4t-3.5 7v74q0 13 13 13z" />
    <glyph glyph-name="greater" unicode="&#x3e;" horiz-adv-x="414" 
d="M40 473l42 39q14 12 27 -1l254 -236q8 -7 8.5 -21.5t-7.5 -20.5l-254 -234q-15 -15 -29 -3l-42 39q-14 14 -3 24l191 179q17 15 0 32l-191 178q-11 10 4 25z" />
    <glyph glyph-name="question" unicode="?" horiz-adv-x="481" 
d="M71 591l-9 72q-3 22 16 28q47 15 152 15q121 0 168 -38.5t47 -128.5q0 -49 -16.5 -82t-40.5 -49.5t-48 -29t-40.5 -30t-16.5 -42.5v-64q0 -15 -16 -15h-85q-17 0 -17 15v79q0 48 23.5 80t51 45.5t51 34.5t23.5 48q0 34 -23 48t-87 14q-27 0 -72 -6t-47 -6q-12 0 -14 12z
M170 158h109q15 0 15 -15v-128q0 -15 -15 -15h-109q-15 0 -15 15v128q0 15 15 15z" />
    <glyph glyph-name="at" unicode="@" horiz-adv-x="786" 
d="M486 -10l7 -34q5 -31 -17 -41q-33 -19 -120 -19q-297 0 -297 341q0 191 78 276t261 85q165 0 246.5 -73.5t81.5 -243.5q0 -117 -42.5 -165t-120.5 -48q-42 0 -62 11.5t-34 35.5h-6q-28 -41 -91 -41q-120 0 -120 179q0 91 34 128.5t117 37.5q68 0 99.5 -28t31.5 -96v-78
q0 -59 32 -59q31 0 42.5 22.5t11.5 98.5q0 119 -52 171.5t-168 52.5q-119 0 -175 -55.5t-56 -195.5q0 -64 10.5 -111.5t28 -75.5t45 -45t56 -23t66.5 -6q29 0 51.5 2.5t34 5.5t15.5 3q11 0 12 -12zM438 218v61q0 24 -10 33t-35 9q-28 0 -38 -15t-10 -57q0 -43 9 -58t36 -15
q48 0 48 42z" />
    <glyph glyph-name="A" unicode="A" horiz-adv-x="601" 
d="M128 564l121 123q21 22 53 22t54 -23l117 -121q45 -45 45 -108v-440q0 -17 -18 -17h-93q-17 0 -17 17v145q0 9 -9 9h-161q-9 0 -9 -9v-145q0 -17 -17 -17h-93q-17 0 -17 17v440q0 63 44 107zM380 487l-71 76q-4 4 -7 4t-7 -4l-74 -76q-10 -10 -10 -25v-166q0 -9 9 -9h161
q9 0 9 9v167q0 14 -10 24z" />
    <glyph glyph-name="B" unicode="B" horiz-adv-x="579" 
d="M84 78v426q0 111 42 158t160 47q218 0 218 -171q0 -113 -77 -155v-3q104 -35 104 -176q0 -100 -54 -152t-158 -52h-154q-37 0 -59 23t-22 55zM224 407h61q49 0 70.5 23.5t21.5 75.5q0 47 -21.5 67.5t-68.5 20.5q-42 0 -59.5 -17.5t-17.5 -56.5v-100q0 -13 14 -13z
M302 312h-78q-14 0 -14 -13v-172q0 -12 14 -12h76q52 0 75.5 24.5t23.5 75.5q0 52 -24 74.5t-73 22.5z" />
    <glyph glyph-name="C" unicode="C" horiz-adv-x="524" 
d="M468 103l7 -58q3 -26 -20 -36q-36 -18 -133 -18q-142 -2 -199.5 86t-57.5 275q0 192 56.5 275.5t200.5 83.5q87 0 137 -13q21 -6 18 -26l-8 -76q-2 -12 -13 -12q-1 0 -38 5t-66 5q-45 1 -71.5 -6.5t-47 -33t-28.5 -74t-8 -128.5q0 -106 16.5 -160t46.5 -71t88 -17
q35 0 69 6t37 6q12 0 14 -13z" />
    <glyph glyph-name="D" unicode="D" horiz-adv-x="617" 
d="M160 700h142q133 0 192 -81.5t58 -268.5q0 -186 -58.5 -268t-191.5 -82h-145q-31 0 -52 23t-21 55v549q0 31 23 52t53 21zM291 585h-67q-4 0 -8.5 -4.5t-4.5 -7.5v-446q0 -3 4.5 -7.5t8.5 -4.5h67q49 0 76 16.5t42.5 68.5t15.5 150t-15.5 150t-42.5 68.5t-76 16.5z" />
    <glyph glyph-name="E" unicode="E" horiz-adv-x="515" 
d="M273 700h167q17 0 17 -17v-82q0 -17 -17 -17h-127q-64 0 -83 -14.5t-19 -68.5v-80q0 -8 8 -8h172q18 0 18 -17v-81q0 -18 -18 -18h-172q-8 0 -8 -8v-90q0 -54 19 -68.5t83 -14.5h127q17 0 17 -17v-82q0 -17 -17 -17h-143q-121 0 -167 43t-46 144v326q0 99 42.5 143
t146.5 44z" />
    <glyph glyph-name="F" unicode="F" horiz-adv-x="482" 
d="M264 700h165q17 0 17 -17v-82q0 -17 -17 -17h-135q-50 0 -66.5 -15t-16.5 -68v-105q0 -7 8 -7h188q17 0 17 -18v-81q0 -17 -17 -17h-188q-8 0 -8 -9v-252q0 -12 -12 -12h-103q-12 0 -12 12v501q0 103 36.5 145t143.5 42z" />
    <glyph glyph-name="G" unicode="G" horiz-adv-x="600" 
d="M542 349v-144q0 -104 -54.5 -157.5t-172.5 -53.5q-138 0 -194 84t-56 274q0 142 28 219.5t83.5 106t155.5 28.5q113 0 154 -13q21 -6 18 -29l-10 -68q-2 -13 -14 -13q-5 0 -50 4t-81 4q-64 0 -94 -16.5t-44 -67t-14 -155.5q0 -77 8 -125t25.5 -71.5t38 -31t53.5 -7.5
q47 0 70 20.5t23 69.5v89q0 8 -9 8h-98q-17 0 -17 18v81q0 17 17 17h163q71 0 71 -71z" />
    <glyph glyph-name="H" unicode="H" horiz-adv-x="627" 
d="M428 700h101q5 0 9.5 -4.5t4.5 -10.5v-673q0 -12 -12 -12h-103q-12 0 -12 12v261q0 9 -9 9h-187q-9 0 -9 -9v-261q0 -12 -12 -12h-103q-12 0 -12 12v673q0 15 12 15h102q5 0 9 -4.5t4 -10.5v-270q0 -9 9 -9h187q9 0 9 9v270q0 15 12 15z" />
    <glyph glyph-name="I" unicode="I" horiz-adv-x="297" 
d="M101 700h95q18 0 18 -17v-666q0 -17 -18 -17h-95q-17 0 -17 17v666q0 17 17 17z" />
    <glyph glyph-name="J" unicode="J" horiz-adv-x="444" 
d="M252 700h91q17 0 17 -17v-506q0 -87 -39 -135t-141 -48q-76 0 -114 14q-24 8 -22 33l8 69q2 14 13 14q1 0 33 -5t67 -5q39 0 54 16.5t15 62.5v490q0 17 18 17z" />
    <glyph glyph-name="K" unicode="K" horiz-adv-x="582" 
d="M432 700h104q23 0 10 -19l-190 -305v-7l197 -344q9 -15 7 -20t-15 -5h-102q-23 0 -31 13l-161 280q-7 12 -15 12h-18q-9 0 -9 -10v-278q0 -17 -17 -17h-91q-17 0 -17 17v666q0 17 17 17h91q17 0 17 -17v-251q0 -9 9 -9h16q10 0 14 8l156 253q11 16 28 16z" />
    <glyph glyph-name="L" unicode="L" horiz-adv-x="498" 
d="M101 700h93q17 0 17 -17v-484q0 -51 16.5 -67t69.5 -16h148q17 0 17 -17v-82q0 -17 -17 -17h-166q-109 0 -152 44t-43 135v504q0 17 17 17z" />
    <glyph glyph-name="M" unicode="M" horiz-adv-x="692" 
d="M548 700h19q42 0 42 -46v-641q0 -13 -14 -13h-102q-12 0 -12 13v400q0 12 -6 2l-86 -142q-15 -25 -43 -25t-43 25l-86 142q-6 10 -6 -2v-400q0 -13 -12 -13h-102q-13 0 -13 13v641q0 46 41 46h19q28 0 42 -24l146 -240q8 -13 14 -13q7 0 14 13l146 240q14 24 42 24z" />
    <glyph glyph-name="N" unicode="N" horiz-adv-x="619" 
d="M422 700h102q13 0 13 -12v-642q0 -46 -46 -46h-40q-13 0 -18 9l-214 401q-2 3 -4.5 4t-4 -1t-1.5 -5v-396q0 -12 -12 -12h-103q-12 0 -12 12v642q0 46 46 46h46q15 0 23 -12l203 -385q2 -5 6 -4t4 7v382q0 12 12 12z" />
    <glyph glyph-name="O" unicode="O" 
d="M311 709q63 0 107 -14.5t71 -40.5t42 -72t20.5 -98.5t5.5 -131.5t-5 -132t-20.5 -100t-42.5 -73t-71 -41t-107 -15q-79 0 -128 21t-74.5 69.5t-34.5 110t-9 160.5q0 79 5.5 131.5t20.5 98.5t42 72t71 40.5t107 14.5zM311 589q-48 0 -71 -17t-33.5 -67t-10.5 -154
q0 -105 10.5 -155.5t33.5 -67.5t71 -17q47 0 70 17t34 68t11 155q0 103 -11 154t-34 67.5t-70 16.5z" />
    <glyph glyph-name="P" unicode="P" horiz-adv-x="556" 
d="M84 17v491q0 103 49 151t172 48q65 0 109.5 -17.5t67.5 -50.5t32.5 -71t9.5 -89q0 -106 -50 -165t-167 -59h-84q-12 0 -12 -12v-226q0 -17 -17 -17h-93q-17 0 -17 17zM223 370h77q55 0 76.5 27t21.5 82q0 60 -19.5 86.5t-74.5 26.5t-74 -16.5t-19 -66.5v-128
q0 -11 12 -11z" />
    <glyph glyph-name="Q" unicode="Q" horiz-adv-x="622" 
d="M497 -93v-51q0 -20 -14 -26q-29 -12 -77 -12q-150 0 -152 140q-1 24 -9 33.5t-30 16.5q-88 20 -119 100t-31 244q0 79 5.5 131.5t20.5 98.5t42 72t71 40.5t107 14.5q64 0 108 -14.5t71 -40.5t42 -72.5t20 -98.5t5 -131q0 -125 -13.5 -193t-45.5 -103t-94 -50
q-19 -7 -24 -13.5t-5 -24.5q0 -28 9.5 -38t37.5 -10q20 0 37 2t21 2q17 0 17 -17zM311 591q-49 0 -71.5 -17.5t-33 -67t-10.5 -154.5q0 -103 10 -152.5t33 -66.5t72 -17q48 0 71 17t33.5 66.5t10.5 152.5q0 104 -10.5 154.5t-33.5 67.5t-71 17z" />
    <glyph glyph-name="R" unicode="R" horiz-adv-x="594" 
d="M84 13v502q0 98 46.5 146t169.5 48q117 0 171.5 -50t54.5 -170q0 -83 -24.5 -125t-74.5 -71q-9 -4 -4 -14l146 -266q3 -5 0.5 -9t-6.5 -4h-105q-18 0 -25 14l-133 234q-4 9 -16 9h-60q-13 0 -13 -13v-231q0 -13 -13 -13h-101q-13 0 -13 13zM224 372h68q59 0 83 26.5
t24 84.5q0 63 -23.5 87t-75.5 24q-49 0 -69 -20t-20 -71v-118q0 -13 13 -13z" />
    <glyph glyph-name="S" unicode="S" horiz-adv-x="541" 
d="M79 47l8 66q2 13 15 13l48 -8q49 -7 88 -7q65 0 88.5 21t23.5 66q0 22 -8.5 39t-30 33t-38.5 25t-54 28q-85 42 -120 87t-35 122q0 98 48.5 137.5t161.5 39.5q122 0 163 -10q19 -5 18 -24l-9 -83q0 -12 -14 -12q-3 0 -28.5 2t-60 4.5t-59.5 2.5q-51 0 -70 -14.5
t-19 -50.5q0 -12 2 -21t9.5 -18.5t12.5 -15t20 -14.5t23 -14t30 -16.5t33 -17.5q92 -50 124 -90.5t32 -120.5q0 -108 -51 -156.5t-177 -48.5q-36 0 -85 5.5t-68 12.5q-25 8 -21 38z" />
    <glyph glyph-name="T" unicode="T" horiz-adv-x="516" 
d="M49 700h418q17 0 17 -17v-81q0 -17 -17 -17h-137q-8 0 -8 -7v-561q0 -17 -17 -17h-93q-17 0 -17 17v561q0 7 -7 7h-139q-17 0 -17 17v81q0 17 17 17z" />
    <glyph glyph-name="U" unicode="U" horiz-adv-x="625" 
d="M423 700h102q13 0 13 -13v-487q0 -52 -8 -86t-31 -63.5t-69 -43t-117 -13.5t-117 13.5t-69 43t-31 63.5t-8 86v487q0 13 13 13h100q14 0 14 -13v-488q0 -51 19 -70.5t79 -19.5q58 0 77.5 20t19.5 70v488q0 13 13 13z" />
    <glyph glyph-name="V" unicode="V" horiz-adv-x="618" 
d="M416 700h107q11 0 11 -13v-414q0 -67 -28 -97l-134 -152q-29 -31 -62 -31q-31 0 -60 30l-137 153q-28 32 -28 97v414q0 6 4 9.5t8 3.5h107q11 0 11 -13v-410q0 -20 8 -32l70 -86q9 -12 17 -12t17 12l69 86q10 15 10 32v410q0 13 10 13z" />
    <glyph glyph-name="W" unicode="W" horiz-adv-x="813" 
d="M621 700h106q10 0 10 -12v-414q0 -57 -7.5 -84.5t-33.5 -56.5l-99 -115q-20 -26 -54 -25t-57 30l-65 81q-8 9 -17 0l-68 -83q-21 -26 -55 -27t-55 24l-101 115q-26 29 -33.5 56.5t-7.5 84.5v414q0 12 10 12h107q10 0 10 -12v-454q0 -11 11 -26l47 -61q8 -9 17 1l52 65
q10 13 10 22v453q0 12 11 12h105q11 0 11 -12v-453q0 -11 11 -23l51 -65q9 -9 17 0l44 61q12 17 12 26v454q0 12 11 12z" />
    <glyph glyph-name="X" unicode="X" horiz-adv-x="599" 
d="M402 700h104q11 0 11 -13v-131q0 -65 -27 -94l-84 -94q-8 -8 0 -17l85 -95q26 -30 26 -94v-149q0 -13 -11 -13h-104q-10 0 -10 13v145q0 17 -10 30l-69 93q-13 19 -27 0l-69 -92q-8 -10 -8 -31v-145q0 -13 -12 -13h-103q-12 0 -12 13v149q0 66 26 94l85 96q8 9 0 17
l-84 95q-27 29 -27 92v131q0 13 12 13h103q12 0 12 -13v-126q0 -21 7 -30l67 -88q8 -10 17 -10t16 10l66 87q10 11 10 31v126q0 13 10 13z" />
    <glyph glyph-name="Y" unicode="Y" horiz-adv-x="558" 
d="M382 700h103q12 0 12 -13v-177q0 -65 -27 -94l-116 -130q-12 -14 -12 -34v-240q0 -12 -12 -12h-101q-12 0 -12 12v240q0 21 -13 34l-116 131q-26 30 -26 93v177q0 13 12 13h103q11 0 11 -13v-173q0 -19 8 -30l67 -88q17 -21 32 0l67 88q10 14 10 30v173q0 13 10 13z" />
    <glyph glyph-name="Z" unicode="Z" horiz-adv-x="523" 
d="M81 700h342q26 0 36 -10t10 -36v-66q0 -16 -6 -26l-274 -437q-7 -9 6 -9h257q17 0 17 -17v-82q0 -17 -17 -17h-352q-25 0 -35.5 10.5t-10.5 35.5v69q0 19 11 37l261 424q5 9 -5 9h-240q-18 0 -18 17v81q0 17 18 17z" />
    <glyph glyph-name="bracketleft" unicode="[" horiz-adv-x="375" 
d="M76 20v643q0 118 112 118q60 0 103 -9q21 -6 21 -29v-41q0 -13 -12 -13h-84q-25 0 -33.5 -10t-8.5 -35v-604q0 -25 8.5 -35.5t33.5 -10.5h84q12 0 12 -13v-41q0 -24 -21 -28q-34 -9 -103 -9q-112 0 -112 117z" />
    <glyph glyph-name="backslash" unicode="\" horiz-adv-x="412" 
d="M53 752h85q9 0 15 -15l198 -787q3 -12 -10 -12h-87q-11 0 -15 12l-197 787q-5 15 11 15z" />
    <glyph glyph-name="bracketright" unicode="]" horiz-adv-x="344" 
d="M32 702v41q0 23 21 29q41 9 103 9q112 0 112 -118v-643q0 -117 -112 -117q-71 0 -103 9q-21 4 -21 28v41q0 13 12 13h84q25 0 33.5 10.5t8.5 35.5v604q0 24 -8.5 34.5t-33.5 10.5h-84q-12 0 -12 13z" />
    <glyph glyph-name="asciicircum" unicode="^" horiz-adv-x="542" 
d="M43 468l169 172q33 33 61 33q27 0 60 -33l166 -170q12 -14 8.5 -21.5t-19.5 -7.5h-86q-38 0 -63 27l-56 62q-12 14 -23 0l-55 -62q-18 -19 -29.5 -23t-37.5 -4h-80q-20 0 -22.5 8.5t7.5 18.5z" />
    <glyph glyph-name="underscore" unicode="_" horiz-adv-x="597" 
d="M66 0h463q14 0 14 -12v-73q0 -13 -14 -13h-463q-12 0 -12 11v75q0 12 12 12z" />
    <glyph glyph-name="grave" unicode="`" horiz-adv-x="225" 
d="M41 700h101q13 0 18 -14l32 -101q6 -22 -13 -22h-33q-19 0 -29 13l-84 107q-5 6 -3 11.5t11 5.5z" />
    <glyph glyph-name="a" unicode="a" horiz-adv-x="498" 
d="M80 419l-8 49q-5 24 17 33q59 22 147 22q102 0 148 -42t46 -153v-314q0 -14 -15 -14h-57q-15 0 -18 10l-11 37q0 2 -3 2t-12 -9t-21.5 -20t-40.5 -20t-63 -9q-77 0 -110 40t-33 130q0 83 39.5 119.5t129.5 36.5h80q16 0 16 16q0 48 -18 66t-67 18q-37 0 -81.5 -8
t-47.5 -8q-14 0 -17 18zM301 224h-58q-48 0 -65.5 -13t-17.5 -50q0 -39 14.5 -55t50.5 -16q40 0 63.5 24t23.5 62v36q0 12 -11 12z" />
    <glyph glyph-name="b" unicode="b" horiz-adv-x="526" 
d="M78 700h98q11 0 11 -11v-195q0 -4 3 -4l7 5q28 28 93 28q47 0 79 -10.5t58 -38t38.5 -80t12.5 -132.5q0 -147 -50 -209t-155 -62q-121 0 -163 50.5t-42 182.5v465q0 11 10 11zM185 329v-136q0 -50 18.5 -71t64.5 -21q51 0 71.5 33t20.5 128q0 84 -19.5 115t-69.5 31
q-84 0 -86 -79z" />
    <glyph glyph-name="c" unicode="c" horiz-adv-x="426" 
d="M370 94l8 -55q4 -26 -20 -35q-33 -13 -116 -13q-108 0 -152 60.5t-44 208.5q0 146 42.5 204.5t144.5 58.5q80 0 125 -20q23 -10 20 -35l-8 -56q-3 -16 -14 -16q-2 0 -33 8.5t-62 8.5q-51 0 -70 -30.5t-19 -124.5q0 -95 20 -126t74 -31q21 0 54 3.5t36 3.5q11 0 14 -14z
" />
    <glyph glyph-name="d" unicode="d" horiz-adv-x="514" 
d="M344 700h85q17 0 17 -17v-476q0 -111 -45.5 -163.5t-151.5 -52.5q-115 0 -159 62t-44 201q0 150 42 208t135 58q27 0 49 -5.5t34 -11t15 -5.5q6 0 6 9v176q0 17 17 17zM330 196v141q0 73 -79 73q-49 0 -68 -30t-19 -126q0 -93 19 -123t68 -30q43 0 61 21.5t18 73.5z" />
    <glyph glyph-name="e" unicode="e" horiz-adv-x="489" 
d="M411 97l12 -42q6 -28 -19 -41q-42 -22 -140 -22q-115 0 -165.5 59t-50.5 207t50 206.5t157 58.5q95 0 141 -52.5t46 -161.5v-38q0 -35 -16 -50.5t-50 -15.5h-201q-7 0 -7 -6v-5q0 -54 23 -75.5t82 -21.5q36 0 76.5 8.5t42.5 8.5q16 0 19 -17zM176 296h150q8 0 8 9
q0 64 -18.5 88.5t-58.5 24.5q-46 0 -67.5 -24.5t-21.5 -88.5q0 -9 8 -9z" />
    <glyph glyph-name="f" unicode="f" horiz-adv-x="331" 
d="M87 524v21q0 92 35.5 127.5t116.5 35.5q57 0 77 -11q19 -10 15 -34l-8 -53q-3 -15 -14 -15q-5 0 -22 3t-33 3q-47 0 -47 -57v-20q0 -10 12 -10h83q17 0 17 -17v-70q0 -17 -17 -17h-83q-12 0 -12 -12v-384q0 -14 -14 -14h-89q-17 0 -17 14v385q0 11 -10 11h-43
q-17 0 -17 17v70q0 17 17 17h43q10 0 10 10z" />
    <glyph glyph-name="g" unicode="g" horiz-adv-x="530" 
d="M342 53h-4q-44 -38 -107 -38q-95 0 -139 57t-44 199q0 130 41.5 191t144.5 61q90 0 125 -53q3 -4 4.5 -5.5t3 -1.5t2.5 1.5t2 5.5l9 23q9 21 33 21h32q17 0 17 -17v-484q0 -109 -53 -163t-168 -54q-88 0 -128 17q-17 6 -14 28l7 51q2 19 18 19q5 0 41.5 -4.5t63.5 -4.5
q67 0 90 27t23 94v30zM342 213v124q0 36 -21 55.5t-61 19.5q-51 0 -71.5 -29t-20.5 -112q0 -82 20.5 -114t64.5 -32q50 0 72 27q17 20 17 61z" />
    <glyph glyph-name="h" unicode="h" horiz-adv-x="535" 
d="M83 700h88q7 0 11.5 -4.5t3.5 -9.5v-205q0 -3 2 -3t4 3q38 42 117 42q91 0 124.5 -45.5t33.5 -137.5v-327q0 -13 -13 -13h-95q-13 0 -13 13v313q0 48 -16 67.5t-59 19.5q-45 0 -64 -20.5t-19 -66.5v-313q0 -13 -13 -13h-94q-13 0 -13 13v673q0 14 15 14z" />
    <glyph glyph-name="i" unicode="i" horiz-adv-x="265" 
d="M85 700h95q17 0 17 -17v-91q0 -18 -17 -18h-95q-17 0 -17 18v91q0 17 17 17zM88 514h88q17 0 17 -17v-480q0 -17 -17 -17h-90q-15 0 -15 17v480q0 17 17 17z" />
    <glyph glyph-name="j" unicode="j" horiz-adv-x="270" 
d="M96 700h89q17 0 17 -17v-89q0 -18 -17 -18h-89q-17 0 -17 18v89q0 17 17 17zM97 512h90q15 0 15 -14v-541q0 -85 -37.5 -123t-119.5 -38q-62 0 -91 10q-20 8 -17 32l7 57q3 15 14 15q5 0 22.5 -2.5t35.5 -2.5q36 0 51 15.5t15 53.5v524q0 14 15 14z" />
    <glyph glyph-name="k" unicode="k" horiz-adv-x="507" 
d="M85 700h86q17 0 17 -17v-349q0 -8 8 -8h36q7 0 10 7l72 167q6 14 26 14h91q30 0 17 -24l-94 -177q-3 -6 3 -11q47 -27 72 -104l61 -179q4 -8 -0.5 -13.5t-13.5 -5.5h-86q-13 0 -17.5 4.5t-10.5 19.5l-49 140q-19 51 -67 51h-50q-8 0 -8 -9v-189q0 -17 -17 -17h-86
q-17 0 -17 17v666q0 17 17 17z" />
    <glyph glyph-name="l" unicode="l" horiz-adv-x="271" 
d="M93 700h85q17 0 17 -17v-666q0 -17 -17 -17h-85q-17 0 -17 17v666q0 17 17 17z" />
    <glyph glyph-name="m" unicode="m" horiz-adv-x="768" 
d="M68 17v336q0 170 164 170q59 0 92 -16t55 -47q6 -8 10 -1q34 64 146 64q166 0 166 -170v-336q0 -17 -18 -17h-85q-17 0 -17 17v314q0 45 -15.5 63.5t-52.5 18.5q-34 0 -51.5 -19t-17.5 -63v-314q0 -17 -17 -17h-86q-17 0 -17 17v314q0 45 -16.5 64t-51.5 19
q-36 0 -52 -19.5t-16 -63.5v-314q0 -17 -17 -17h-86q-17 0 -17 17z" />
    <glyph glyph-name="n" unicode="n" horiz-adv-x="535" 
d="M68 14v321q0 47 7.5 78.5t28.5 58t61.5 39t102.5 12.5t102.5 -12.5t61 -39t28 -58t7.5 -78.5v-321q0 -14 -15 -14h-90q-15 0 -15 14v313q0 52 -17.5 69t-61.5 17t-62 -17t-18 -69v-313q0 -14 -14 -14h-92q-14 0 -14 14z" />
    <glyph glyph-name="o" unicode="o" horiz-adv-x="506" 
d="M254 523q115 0 159.5 -58t44.5 -206q0 -150 -44.5 -209t-159.5 -59q-116 0 -161 59t-45 209q0 148 45 206t161 58zM254 413q-49 0 -66.5 -30.5t-17.5 -123.5q0 -95 17 -126.5t67 -31.5q49 0 65.5 31.5t16.5 126.5q0 93 -16.5 123.5t-65.5 30.5z" />
    <glyph glyph-name="p" unicode="p" horiz-adv-x="525" 
d="M68 -179v504q0 197 204 198q113 1 159 -60t46 -203q0 -269 -189 -269q-26 0 -47.5 4.5t-33.5 9.5t-13 5q-6 0 -6 -7v-182q0 -17 -17 -17h-86q-17 0 -17 17zM188 304v-150q0 -30 16 -41.5t55 -11.5q54 0 75 32t21 127q0 94 -17.5 123.5t-66.5 29.5q-47 0 -65 -24.5
t-18 -84.5z" />
    <glyph glyph-name="q" unicode="q" horiz-adv-x="524" 
d="M338 -179v185q0 7 -1.5 10t-5.5 2q-2 -1 -12 -5.5t-21 -9t-30 -8.5t-39 -4q-102 0 -142.5 55.5t-40.5 207.5q0 147 46 208t164 61q106 0 154 -48.5t48 -158.5v-495q0 -17 -17 -17h-85q-18 0 -18 17zM338 199v124q0 45 -20 65t-64 20q-48 0 -66.5 -32.5t-18.5 -121.5
q0 -95 16.5 -122.5t67.5 -27.5q50 0 70 29q15 24 15 66z" />
    <glyph glyph-name="r" unicode="r" horiz-adv-x="370" 
d="M68 14v356q0 86 31.5 119.5t104.5 33.5q66 0 107 -13q17 -5 21.5 -13t0.5 -27l-8 -44q-2 -18 -17 -18q-5 0 -29 3t-40 3q-30 0 -40.5 -12t-10.5 -45v-343q0 -14 -15 -14h-90q-15 0 -15 14z" />
    <glyph glyph-name="s" unicode="s" horiz-adv-x="433" 
d="M207 209l-66 32q-49 23 -72.5 53.5t-23.5 91.5q0 75 44 106t137 31q96 0 134 -14q17 -7 14 -27l-8 -50q-3 -18 -18 -18q-5 0 -45.5 4t-66.5 4q-72 0 -72 -42q0 -22 15 -34t49 -27q7 -3 10 -4l52 -24q54 -25 76 -54t22 -88q0 -81 -46 -119.5t-150 -38.5q-74 0 -122 11
q-22 6 -19 29l7 59q2 13 13 13q2 0 40.5 -4.5t73.5 -4.5q47 0 66 13t19 39q0 22 -12.5 33.5t-50.5 29.5z" />
    <glyph glyph-name="t" unicode="t" horiz-adv-x="356" 
d="M79 623h67q21 0 24 -23l9 -69q4 -17 22 -17h91q17 0 17 -17v-71q0 -17 -17 -17h-97q-11 0 -11 -11v-236q0 -29 14 -43.5t52 -14.5q18 0 36 2.5t23 2.5q11 0 13 -15l8 -63q3 -19 -19 -28q-36 -12 -78 -12q-98 0 -133.5 38t-35.5 121v458q0 15 15 15z" />
    <glyph glyph-name="u" unicode="u" horiz-adv-x="527" 
d="M356 514h86q17 0 17 -17v-292q0 -120 -42.5 -167t-151.5 -47q-110 0 -153.5 47t-43.5 167v292q0 17 17 17h86q17 0 17 -17v-309q0 -51 17 -69t60 -18q42 0 58 18t16 69v309q0 17 17 17z" />
    <glyph glyph-name="v" unicode="v" horiz-adv-x="522" 
d="M347 514h94q13 0 13 -13v-294q0 -56 -42 -97l-96 -94q-28 -25 -55 -25q-28 0 -56 25l-96 94q-41 40 -41 97v294q0 13 13 13h94q13 0 13 -13v-292q0 -18 12 -30l53 -57q4 -4 8 -4q5 0 8 4l53 57q12 12 12 30v292q0 13 13 13z" />
    <glyph glyph-name="w" unicode="w" horiz-adv-x="727" 
d="M557 514h85q18 0 18 -17v-301q0 -55 -42 -97l-81 -82q-25 -26 -54 -26q-30 0 -57 27l-56 63q-4 2 -7 2l-6 -2l-57 -63q-27 -27 -56 -27t-54 26l-81 82q-41 41 -41 97v301q0 17 17 17h86q17 0 17 -17v-295q0 -17 12 -30l38 -46q5 -5 7 -5q5 0 8 5l39 46q12 15 12 30v295
q0 17 16 17h87q17 0 17 -17v-295q0 -17 12 -30l37 -46q7 -5 9 -5q5 0 8 5l38 46q12 15 12 30v295q0 17 17 17z" />
    <glyph glyph-name="x" unicode="x" horiz-adv-x="478" 
d="M333 514h85q17 0 17 -17v-55q0 -51 -23 -77l-86 -103q-5 -5 0 -12l87 -94q23 -24 23 -76v-63q0 -17 -17 -17h-86q-17 0 -17 17v53q0 22 -12 35l-56 69q-6 8 -13 0l-54 -68q-13 -14 -13 -36v-53q0 -17 -17 -17h-86q-17 0 -17 17v63q0 51 22 76l89 101q5 6 -1 12l-86 96
q-24 27 -24 77v55q0 17 18 17h85q17 0 17 -17v-45q0 -26 16 -46l51 -63q7 -8 13 0l52 63q15 18 15 46v45q0 17 18 17z" />
    <glyph glyph-name="y" unicode="y" horiz-adv-x="532" 
d="M359 514h90q15 0 15 -14v-509q0 -104 -48.5 -150t-158.5 -46q-85 0 -129 16q-23 8 -19 29l8 64q2 14 13 14q3 0 42 -6t71 -6q58 0 82 20.5t24 62.5v64q0 6 -6 6l-9 -3q-9 -4 -17 -6.5t-21.5 -6t-31.5 -5.5t-38 -2q-158 0 -158 180v284q0 14 14 14h91q15 0 15 -14v-262
q0 -52 17 -72t58 -20q42 0 61 16t19 51v287q0 14 16 14z" />
    <glyph glyph-name="z" unicode="z" horiz-adv-x="460" 
d="M78 514h284q43 0 43 -42v-37q0 -40 -32 -79l-183 -235q-10 -10 3 -10h205q12 0 12 -12v-86q0 -13 -12 -13h-301q-43 0 -43 43v33q0 32 7 49.5t31 46.5l174 224q7 8 -5 8h-183q-12 0 -12 12v86q0 12 12 12z" />
    <glyph glyph-name="braceleft" unicode="{" horiz-adv-x="398" 
d="M119 470v188q0 71 33 100.5t110 29.5q72 0 89 -9q19 -10 19 -42v-35q0 -8 -7 -8h-77q-39 0 -50 -15.5t-11 -53.5v-193q0 -42 -33 -60q-11 -7 -11 -14t11 -14q33 -18 33 -57v-194q0 -38 11.5 -53.5t49.5 -15.5h77q7 0 7 -7v-36q0 -33 -19 -42q-15 -8 -89 -8q-77 0 -110 29
t-33 101v185q0 42 -8.5 54.5t-47.5 31.5q-19 10 -19 26q0 17 19 26q39 18 47.5 30.5t8.5 55.5z" />
    <glyph glyph-name="bar" unicode="|" horiz-adv-x="264" 
d="M95 799h73q5 0 9.5 -4.5t4.5 -10.5v-903q0 -12 -12 -12h-75q-12 0 -12 12v903q0 15 12 15z" />
    <glyph glyph-name="braceright" unicode="}" horiz-adv-x="416" 
d="M28 702v35q0 32 18 42q18 9 89 9q78 0 110.5 -29t32.5 -101v-188q0 -42 9 -54.5t48 -31.5q19 -9 19 -26q0 -16 -19 -26q-39 -19 -48 -31.5t-9 -54.5v-185q0 -72 -32.5 -101t-110.5 -29q-73 0 -89 8q-18 8 -18 42v36q0 7 7 7h77q39 0 50.5 16t11.5 53v194q0 39 31 57
q2 1 5 3t3.5 2.5l2 2t2 3t0.5 3.5q0 6 -9 11q-2 2 -4 3q-31 18 -31 60v193q0 38 -11.5 53.5t-50.5 15.5h-77q-7 0 -7 8z" />
    <glyph glyph-name="asciitilde" unicode="~" horiz-adv-x="454" 
d="M386 455q27 0 34 -5t3 -22q-11 -47 -40 -73t-73 -26q-43 0 -85.5 22t-64.5 22q-33 0 -49 -27q-9 -14 -16 -17.5t-31 -3.5t-30.5 5t-1.5 21q33 104 126 104q38 0 82 -22t58 -22q32 0 46 26q7 12 13 15t29 3z" />
    <glyph glyph-name="exclamdown" unicode="&#xa1;" horiz-adv-x="268" 
d="M182 335h-96q-16 0 -16 15v135q0 15 16 15h96q15 0 15 -15v-135q0 -15 -15 -15zM185 -200h-101q-5 0 -9.5 4.5t-4.5 10.5v431q0 5 4 8.5t8 3.5h103q12 0 12 -12v-431q0 -15 -12 -15z" />
    <glyph glyph-name="cent" unicode="&#xa2;" horiz-adv-x="419" 
d="M208 700h70q14 0 14 -15v-93q0 -11 12 -14q43 -4 62 -12q17 -7 16 -29l-8 -71q-2 -12 -13 -12q-2 0 -42 6t-65 6q-44 0 -63.5 -26t-19.5 -84q0 -60 21 -88t72 -28q23 0 57.5 3.5t38.5 3.5q12 0 14 -13l8 -66q1 -16 -18 -25q-4 -3 -27 -8.5t-43 -6.5q-12 -1 -12 -13v-103
q0 -12 -13 -12h-74q-12 0 -12 12v107q0 10 -10 11q-71 15 -102.5 70t-31.5 156q0 190 140 222q14 4 14 14v93q0 15 15 15z" />
    <glyph glyph-name="sterling" unicode="&#xa3;" horiz-adv-x="511" 
d="M123 445v27q0 61 7.5 100.5t28 71.5t60.5 47t103 15q75 0 121 -10q23 -3 20 -26l-8 -76q-2 -13 -13 -13q-1 0 -41.5 5t-67.5 5q-50 0 -66.5 -17.5t-16.5 -64.5v-64q0 -12 11 -12h138q14 0 14 -11v-74q0 -5 -4.5 -9t-9.5 -4h-138q-11 0 -11 -11v-206q0 -10 11 -10h180
q11 0 11 -11v-86q0 -11 -11 -11h-355q-11 0 -11 11v52q0 15 14 21l20 6q14 5 14 17v218q0 10 -11 10h-30q-13 0 -13 13v74q0 11 13 11h30q11 0 11 12z" />
    <glyph glyph-name="currency" unicode="&#xa4;" horiz-adv-x="624" 
d="M114 504l66 -63q9 -9 17 -6q47 18 116 18q77 0 109 -15q14 -3 23 4l63 61q9 9 17 0l47 -44q8 -8 0 -16l-69 -67q-8 -8 -6 -17q12 -34 12 -105q0 -58 -13 -106q-3 -10 6 -18l68 -65q10 -9 1 -18l-46 -45q-8 -10 -17 1l-64 61q-8 8 -23 5q-40 -16 -108 -16q-66 0 -115 19
q-10 3 -16 -3l-68 -66q-9 -8 -16 0l-46 46q-8 8 0 16l72 70q7 7 5 16q-13 55 -13 103q0 50 12 98q3 12 -6 22l-70 67q-10 9 1 20l44 43q9 8 17 0zM313 353q-48 0 -67.5 -21t-19.5 -78q0 -58 19.5 -78.5t67.5 -20.5q49 0 68.5 20.5t19.5 78.5q0 57 -19.5 78t-68.5 21z" />
    <glyph glyph-name="yen" unicode="&#xa5;" horiz-adv-x="617" 
d="M410 700h105q10 0 10 -13v-188q0 -47 -30 -80l-65 -74q-6 -6 3 -6h85q15 0 15 -12v-52q0 -13 -15 -13h-137q-10 0 -10 -11v-38q0 -9 9 -9h138q15 0 15 -11v-54q0 -5 -4.5 -9t-10.5 -4h-136q-11 0 -11 -10v-104q0 -12 -12 -12h-101q-12 0 -12 12v104q0 10 -11 10h-138
q-13 0 -13 13v54q0 11 13 11h140q9 0 9 9v38q0 11 -10 11h-139q-13 0 -13 12v53q0 12 13 12h87q8 0 2 6l-62 74q-33 38 -33 91v177q0 6 4 9.5t8 3.5h103q11 0 11 -13v-173q0 -19 9 -29l65 -89q10 -14 17 -14t17 15l66 87q9 12 9 30v173q0 13 10 13z" />
    <glyph glyph-name="brokenbar" unicode="&#xa6;" horiz-adv-x="279" 
d="M102 799h74q13 0 13 -15v-345q0 -12 -12 -12h-75q-12 0 -12 12v345q0 15 12 15zM102 260h74q5 0 9 -4.5t4 -9.5v-367q0 -10 -12 -10h-75q-12 0 -12 10v367q0 14 12 14z" />
    <glyph glyph-name="section" unicode="&#xa7;" horiz-adv-x="498" 
d="M109 37l8 53q2 17 17 17q10 0 38.5 -4.5t38.5 -4.5q43 0 58 9.5t15 34.5q0 26 -14.5 37.5t-47.5 23.5q-5 2 -23.5 8.5t-23.5 8.5t-20.5 8t-20.5 9.5t-16.5 11t-15.5 13.5t-11.5 15.5t-10 19.5t-5 23t-2.5 28q0 57 19 84.5t68 44.5q7 3 0 6q-52 31 -52 100q0 70 34 98
t125 28q72 0 107 -10q19 -6 16 -23l-7 -60q-2 -14 -15 -14q-7 0 -35 3t-48 3q-35 0 -48.5 -9.5t-13.5 -30.5q0 -23 16 -35t58 -29q8 -3 12 -5q70 -31 88 -45q36 -32 36 -94q0 -50 -19 -79.5t-72 -44.5q-2 -2 -2 -4.5t2 -3.5q36 -13 47 -39t11 -71q0 -127 -170 -127
q-68 0 -104 11q-21 7 -17 35zM252 402q-38 0 -53 -11.5t-15 -36.5q0 -51 68 -51q40 0 55 12.5t15 38.5q0 25 -15 36.5t-55 11.5z" />
    <glyph glyph-name="dieresis" unicode="&#xa8;" horiz-adv-x="350" 
d="M62 700h68q15 0 15 -16v-95q0 -16 -15 -16h-68q-15 0 -15 16v95q0 16 15 16zM220 700h68q15 0 15 -16v-95q0 -16 -15 -16h-68q-15 0 -15 16v95q0 16 15 16z" />
    <glyph glyph-name="copyright" unicode="&#xa9;" horiz-adv-x="550" 
d="M275 700q212 0 212 -227q0 -116 -52 -173.5t-160 -57.5t-159.5 57.5t-51.5 173.5q0 114 51.5 170.5t159.5 56.5zM275 663q-86 0 -128.5 -44.5t-42.5 -146.5t42.5 -147t128.5 -45t129 45t43 147t-42.5 146.5t-129.5 44.5zM341 381v-22q0 -15 -7 -18q-11 -6 -48 -6
q-66 0 -86.5 32.5t-20.5 108.5q0 77 20.5 106.5t88.5 29.5q28 0 46 -8q9 -2 9 -17v-25q0 -6 -7 -6q-1 0 -13.5 3t-31.5 3q-32 0 -43.5 -17t-11.5 -69t12 -71.5t42 -19.5q14 0 29 1t17 1q5 0 5 -6z" />
    <glyph glyph-name="ordfeminine" unicode="&#xaa;" horiz-adv-x="322" 
d="M50 646v27q0 16 18 25q27 9 72 9q76 0 102 -23.5t26 -92.5v-179q0 -12 -12 -12h-32q-6 0 -9 8l-8 20q-1 2 -3 0q-21 -32 -74 -32q-50 0 -72 22t-22 69q0 54 22.5 76.5t79.5 22.5h40q9 0 9 8v12q0 17 -10 23.5t-40 6.5q-25 0 -48 -4t-24 -4q-15 0 -15 18zM177 535h-20
q-26 0 -33.5 -7t-7.5 -29q0 -37 30 -37q41 0 41 49v13q0 11 -10 11z" />
    <glyph glyph-name="guillemotleft" unicode="&#xab;" horiz-adv-x="516" 
d="M254 310l127 144q6 9 16 1l47 -47q9 -7 2 -15l-101 -112q-7 -7 0 -15l100 -112q6 -8 0 -15l-48 -47q-8 -7 -16 2l-126 142q-34 37 -1 74zM68 310l125 144q7 10 16 1l47 -47q9 -6 2 -15l-100 -112q-6 -7 0 -15l99 -112q7 -8 0 -15l-48 -47q-8 -8 -16 2l-125 142
q-32 37 0 74z" />
    <glyph glyph-name="logicalnot" unicode="&#xac;" horiz-adv-x="686" 
d="M78 379h421q66 0 96.5 -31t30.5 -95v-119q0 -18 -18 -18h-83q-18 0 -18 18v73q0 30 -12 42.5t-43 12.5h-374q-18 0 -18 18v81q0 18 18 18z" />
    <glyph glyph-name="softhyphen" unicode="&#xad;" horiz-adv-x="413" 
d="M72 318h267q14 0 14 -12v-73q0 -5 -4.5 -9.5t-9.5 -4.5h-267q-12 0 -12 12v75q0 12 12 12z" />
    <glyph glyph-name="registered" unicode="&#xae;" horiz-adv-x="550" 
d="M275 700q212 0 212 -227q0 -116 -52 -173.5t-160 -57.5t-159.5 57.5t-51.5 173.5q0 114 51.5 170.5t159.5 56.5zM275 280q86 0 129 45t43 147t-42.5 146.5t-129.5 44.5q-86 0 -128.5 -44.5t-42.5 -146.5t42.5 -147t128.5 -45zM320 452l58 -100q3 -9 -7 -9h-39q-8 0 -14 9
l-38 73q-7 14 -19 14h-8q-10 0 -10 -10v-77q0 -6 -1.5 -7.5t-7.5 -1.5h-38q-8 0 -8 9v188q0 38 17.5 55t71.5 17q29 0 48 -7.5t27 -21t10.5 -25.5t2.5 -29q0 -61 -43 -74q-2 0 -2 -3zM248 493h23q23 0 30 7.5t7 28.5q0 18 -5.5 25.5t-26.5 7.5q-23 0 -28.5 -4.5t-4.5 -24.5
v-35q0 -5 5 -5z" />
    <glyph glyph-name="macron" unicode="&#xaf;" horiz-adv-x="419" 
d="M95 678h228q5 0 9.5 -4.5t4.5 -10.5v-64q0 -5 -4.5 -9.5t-9.5 -4.5h-228q-12 0 -12 14v64q0 15 12 15z" />
    <glyph glyph-name="degree" unicode="&#xb0;" horiz-adv-x="373" 
d="M186 706q149 0 149 -148q0 -154 -149 -154q-148 0 -148 154q0 148 148 148zM186 636q-33 0 -48 -19.5t-15 -61.5q0 -80 63 -80q64 0 64 80q0 81 -64 81z" />
    <glyph glyph-name="plusminus" unicode="&#xb1;" horiz-adv-x="551" 
d="M238 649h74q5 0 9.5 -4.5t4.5 -9.5v-107q0 -5 4 -9.5t9 -4.5h112q15 0 15 -13v-72q0 -13 -15 -13h-111q-6 0 -10 -4t-4 -9v-111q0 -11 -13 -11h-75q-12 0 -12 11v109q0 6 -4 10.5t-9 4.5h-115q-12 0 -12 11v74q0 13 12 13h113q6 0 10.5 4t4.5 9v108q0 14 12 14zM98 173
h353q15 0 15 -12v-73q0 -5 -4.5 -9.5t-10.5 -4.5h-353q-12 0 -12 12v75q0 12 12 12z" />
    <glyph glyph-name="twosuperior" unicode="&#xb2;" horiz-adv-x="335" 
d="M45 854l-8 42q-4 16 11 22q28 11 100 11q74 0 103.5 -26.5t29.5 -80.5q0 -33 -15 -60.5t-36.5 -45t-42.5 -33t-36 -33t-15 -36.5q0 -4 2 -4h144q9 0 9 -8v-59q0 -8 -9 -8h-236q-8 0 -8 7v32q0 40 16 72t38.5 52t45.5 37t39 34.5t16 36.5q0 27 -14.5 37.5t-51.5 10.5
q-20 0 -47 -4l-26 -4q-7 0 -9 8z" />
    <glyph glyph-name="threesuperior" unicode="&#xb3;" horiz-adv-x="341" 
d="M56 859l-8 39q-3 13 8 20q22 11 92 11q74 0 102.5 -25.5t28.5 -80.5q0 -61 -44 -81q-6 -4 0 -6q58 -11 58 -84q0 -58 -31.5 -89t-107.5 -31q-58 0 -91 11q-15 7 -10 25l7 34q3 10 12 10q2 0 13.5 -1t28.5 -2.5t33 -1.5q37 0 51 12.5t14 37.5q0 23 -10.5 32.5t-38.5 9.5
h-49q-17 0 -17 17v39q0 17 17 17h35q29 0 38.5 9t9.5 31q0 45 -59 45q-22 0 -46.5 -3.5t-26.5 -3.5q-6 0 -9 9z" />
    <glyph glyph-name="acute" unicode="&#xb4;" horiz-adv-x="256" 
d="M106 700h108q13 0 16 -7.5t-4 -14.5l-100 -106q-9 -9 -18 -9h-51q-23 0 -15 19l47 107q3 11 17 11z" />
    <glyph glyph-name="paragraph" unicode="&#xb6;" horiz-adv-x="647" 
d="M327 335h-78q-86 0 -124 45t-38 136q0 99 40 146t132 47q94 0 130 -38t36 -130v-523q0 -17 -18 -17h-52q-17 0 -17 17v305q0 12 -11 12zM494 700h51q18 0 18 -18v-665q0 -17 -18 -17h-52q-17 0 -17 17v665q0 18 18 18z" />
    <glyph glyph-name="periodcentered" unicode="&#xb7;" horiz-adv-x="313" 
d="M108 412h96q17 0 17 -17v-117q0 -17 -17 -17h-96q-17 0 -17 17v117q0 17 17 17z" />
    <glyph glyph-name="cedilla" unicode="&#xb8;" horiz-adv-x="355" 
d="M168 49h77q9 0 11 -3.5t-2 -11.5l-63 -162q-9 -23 -30 -23h-54q-21 0 -15 18l51 166q7 16 25 16z" />
    <glyph glyph-name="onesuperior" unicode="&#xb9;" horiz-adv-x="295" 
d="M47 855v35q0 17 8 22q13 11 63 11q85 0 85 -63v-316q0 -9 -11 -9h-61q-10 0 -10 9v279q0 15 -6 20.5t-23 5.5q-9 0 -22 -1t-14 -1q-9 0 -9 8z" />
    <glyph glyph-name="ordmasculine" unicode="&#xba;" horiz-adv-x="326" 
d="M163 708q74 0 98.5 -36t24.5 -120t-24.5 -120t-98.5 -36q-73 0 -98 36.5t-25 119.5q0 84 25 120t98 36zM163 638q-27 0 -36.5 -17t-9.5 -69q0 -53 9.5 -70t36.5 -17t36 17t9 70q0 52 -9 69t-36 17z" />
    <glyph glyph-name="guillemotright" unicode="&#xbb;" horiz-adv-x="516" 
d="M136 454l127 -144q33 -37 -1 -74l-126 -142q-8 -10 -16 -2l-48 47q-8 7 0 15l100 112q8 8 0 15l-101 112q-7 9 2 15l47 47q9 9 16 -1zM324 454l125 -144q32 -37 0 -74l-125 -142q-8 -10 -16 -2l-48 47q-8 7 0 15l99 112q6 8 0 15l-100 112q-8 8 2 15l47 47q8 8 16 -1z
" />
    <glyph glyph-name="onequarter" unicode="&#xbc;" horiz-adv-x="786" 
d="M469 742h26q15 0 11 -14l-209 -763q-3 -13 -17 -13h-28q-14 0 -11 12l211 764q3 14 17 14zM47 635v35q0 17 8 22q13 11 63 11q85 0 85 -63v-316q0 -9 -11 -9h-61q-10 0 -10 9v279q0 15 -6 20.5t-23 5.5q-9 0 -22 -1t-14 -1q-9 0 -9 8zM672 385h20q20 0 20 -26v-220
q0 -6 7 -6h35q6 0 6 -7v-58q0 -7 -6 -7h-35q-7 0 -7 -6v-47q0 -8 -8 -8h-57q-7 0 -7 8v47q0 6 -7 6h-124q-30 0 -30 26v33q0 38 17 64l123 174q18 27 53 27zM640 139v126q-8 0 -16 -9l-56 -84q-9 -13 -9 -23v-12q0 -4 6 -4h68q7 0 7 6z" />
    <glyph glyph-name="onehalf" unicode="&#xbd;" horiz-adv-x="787" 
d="M469 742h26q15 0 11 -14l-209 -763q-3 -13 -17 -13h-28q-14 0 -11 12l211 764q3 14 17 14zM47 635v35q0 17 8 22q13 11 63 11q85 0 85 -63v-316q0 -9 -11 -9h-61q-10 0 -10 9v279q0 15 -6 20.5t-23 5.5q-9 0 -22 -1t-14 -1q-9 0 -9 8zM497 319l-8 42q-2 15 11 22
q28 11 100 11q75 0 104.5 -26.5t29.5 -80.5q0 -33 -15 -60.5t-36 -45t-42.5 -33t-36.5 -33t-15 -36.5q0 -4 2 -4h144q8 0 8 -8v-59q0 -8 -8 -8h-237q-8 0 -8 7v32q0 40 16 72t39 52t45.5 37t38.5 34.5t16 36.5q0 27 -14 37.5t-51 10.5q-21 0 -47 -4t-27 -4q-7 0 -9 8z" />
    <glyph glyph-name="threequarters" unicode="&#xbe;" horiz-adv-x="831" 
d="M515 742h25q15 0 12 -14l-209 -763q-3 -13 -18 -13h-28q-13 0 -10 12l210 764q3 14 18 14zM56 639l-8 39q-3 13 8 20q22 11 92 11q74 0 102.5 -25.5t28.5 -80.5q0 -61 -44 -81q-6 -4 0 -6q58 -11 58 -84q0 -58 -31.5 -89t-107.5 -31q-58 0 -91 11q-15 7 -10 25l7 34
q3 10 12 10q2 0 13.5 -1t28.5 -2.5t33 -1.5q37 0 51 12.5t14 37.5q0 23 -10.5 32.5t-38.5 9.5h-49q-17 0 -17 17v39q0 17 17 17h35q29 0 38.5 9t9.5 31q0 45 -59 45q-22 0 -46.5 -3.5t-26.5 -3.5q-6 0 -9 9zM717 385h20q21 0 21 -26v-220q0 -6 6 -6h36q6 0 6 -7v-58
q0 -7 -6 -7h-36q-6 0 -6 -6v-47q0 -8 -8 -8h-58q-7 0 -7 8v47q0 6 -6 6h-125q-30 0 -30 26v33q0 24 3 35.5t15 28.5l122 174q20 27 53 27zM685 139v126q-9 0 -15 -9l-57 -84q-8 -11 -8 -23v-12q0 -4 6 -4h68q6 0 6 6z" />
    <glyph glyph-name="questiondown" unicode="&#xbf;" horiz-adv-x="450" 
d="M302 342h-108q-16 0 -16 15v128q0 15 16 15h108q16 0 16 -15v-128q0 -15 -16 -15zM402 -91l8 -72q4 -22 -16 -28q-45 -15 -152 -15q-121 0 -168 39t-47 128q0 49 17 82t40.5 49.5t47.5 29t41 30t17 42.5v64q0 15 15 15h86q16 0 16 -15v-79q0 -48 -23.5 -80t-51 -45.5
t-51 -34.5t-23.5 -48q0 -34 23.5 -48t87.5 -14q27 0 72 6t47 6q12 0 14 -12z" />
    <glyph glyph-name="Agrave" unicode="&#xc0;" horiz-adv-x="601" 
d="M171 878l82 22q20 4 27 -12l57 -116q9 -22 -13 -22h-33q-18 0 -31 13l-95 91q-7 8 -5 15t11 9zM128 564l121 123q21 22 53 22t54 -23l117 -121q45 -45 45 -108v-440q0 -17 -18 -17h-93q-17 0 -17 17v145q0 9 -9 9h-161q-9 0 -9 -9v-145q0 -17 -17 -17h-93q-17 0 -17 17
v440q0 63 44 107zM380 487l-71 76q-4 4 -7 4t-7 -4l-74 -76q-10 -10 -10 -25v-166q0 -9 9 -9h161q9 0 9 9v167q0 14 -10 24z" />
    <glyph glyph-name="Aacute" unicode="&#xc1;" horiz-adv-x="601" 
d="M398 885l44 -20q22 -11 5 -28l-93 -83q-14 -13 -45 -13h-42q-10 0 -13 4t2 11l88 119q11 14 22 16.5t32 -6.5zM128 564l121 123q21 22 53 22t54 -23l117 -121q45 -45 45 -108v-440q0 -17 -18 -17h-93q-17 0 -17 17v145q0 9 -9 9h-161q-9 0 -9 -9v-145q0 -17 -17 -17h-93
q-17 0 -17 17v440q0 63 44 107zM380 487l-71 76q-4 4 -7 4t-7 -4l-74 -76q-10 -10 -10 -25v-166q0 -9 9 -9h161q9 0 9 9v167q0 14 -10 24z" />
    <glyph glyph-name="Acircumflex" unicode="&#xc2;" horiz-adv-x="601" 
d="M313 865l98 -49q12 -5 9 -14l-10 -46q-2 -10 -6 -12.5t-15 0.5l-76 32q-10 4 -21 0l-76 -32q-10 -4 -14.5 -2.5t-7.5 14.5l-10 46q-1 8 10 14l99 49q10 4 20 0zM128 564l121 123q21 22 53 22t54 -23l117 -121q45 -45 45 -108v-440q0 -17 -18 -17h-93q-17 0 -17 17v145
q0 9 -9 9h-161q-9 0 -9 -9v-145q0 -17 -17 -17h-93q-17 0 -17 17v440q0 63 44 107zM380 487l-71 76q-4 4 -7 4t-7 -4l-74 -76q-10 -10 -10 -25v-166q0 -9 9 -9h161q9 0 9 9v167q0 14 -10 24z" />
    <glyph glyph-name="Atilde" unicode="&#xc3;" horiz-adv-x="601" 
d="M401 880q22 0 29.5 -4t7.5 -15q-1 -21 -8 -41.5t-27.5 -40t-50.5 -19.5q-25 0 -53.5 16.5t-39.5 16.5q-20 0 -30 -22q-5 -10 -11 -12.5t-26 -2.5q-32 0 -32 18q8 97 79 97q26 0 58.5 -16.5t42.5 -16.5q17 0 26 23q6 13 11 16t24 3zM128 564l121 123q21 22 53 22t54 -23
l117 -121q45 -45 45 -108v-440q0 -17 -18 -17h-93q-17 0 -17 17v145q0 9 -9 9h-161q-9 0 -9 -9v-145q0 -17 -17 -17h-93q-17 0 -17 17v440q0 63 44 107zM380 487l-71 76q-4 4 -7 4t-7 -4l-74 -76q-10 -10 -10 -25v-166q0 -9 9 -9h161q9 0 9 9v167q0 14 -10 24z" />
    <glyph glyph-name="Adieresis" unicode="&#xc4;" horiz-adv-x="601" 
d="M173 870h76q15 0 15 -15v-89q0 -16 -15 -16h-76q-15 0 -15 16v89q0 15 15 15zM354 870h76q15 0 15 -15v-89q0 -16 -15 -16h-76q-15 0 -15 16v89q0 15 15 15zM128 564l121 123q21 22 53 22t54 -23l117 -121q45 -45 45 -108v-440q0 -17 -18 -17h-93q-17 0 -17 17v145
q0 9 -9 9h-161q-9 0 -9 -9v-145q0 -17 -17 -17h-93q-17 0 -17 17v440q0 63 44 107zM380 487l-71 76q-4 4 -7 4t-7 -4l-74 -76q-10 -10 -10 -25v-166q0 -9 9 -9h161q9 0 9 9v167q0 14 -10 24z" />
    <glyph glyph-name="Aring" unicode="&#xc5;" horiz-adv-x="601" 
d="M302 905q41 0 62 -19.5t21 -63.5q0 -83 -83 -83q-84 0 -84 83t84 83zM302 854q-29 0 -29 -32q0 -31 29 -31t29 31q0 32 -29 32zM128 564l121 123q21 22 53 22t54 -23l117 -121q45 -45 45 -108v-440q0 -17 -18 -17h-93q-17 0 -17 17v145q0 9 -9 9h-161q-9 0 -9 -9v-145
q0 -17 -17 -17h-93q-17 0 -17 17v440q0 63 44 107zM380 487l-71 76q-4 4 -7 4t-7 -4l-74 -76q-10 -10 -10 -25v-166q0 -9 9 -9h161q9 0 9 9v167q0 14 -10 24z" />
    <glyph glyph-name="AE" unicode="&#xc6;" horiz-adv-x="827" 
d="M331 700h398q14 0 14 -13v-91q0 -12 -14 -12h-208q-37 0 -37 -35v-123q0 -8 8 -8h189q14 0 14 -12v-90q0 -14 -14 -14h-189q-8 0 -8 -8v-109q0 -43 15.5 -56t59.5 -13h170q14 0 14 -12v-91q0 -13 -14 -13h-208q-81 0 -122.5 38.5t-41.5 109.5v-3q0 11 -4 15.5t-16 4.5
h-118q-7 0 -7 -7v-145q0 -13 -10 -13h-107q-11 0 -11 13v421q0 69 28 96l141 138q34 32 78 32zM344 572h-9q-12 0 -23 -11l-90 -99q-10 -12 -10 -32v-133q0 -8 7 -8h127q11 0 11 12v260q0 11 -13 11z" />
    <glyph glyph-name="Ccedilla" unicode="&#xc7;" horiz-adv-x="524" 
d="M477 672l-8 -76q-2 -12 -13 -12q-1 0 -38 5t-66 5q-45 1 -71.5 -6.5t-47 -33t-28.5 -74t-8 -128.5q0 -106 16.5 -160t46.5 -71t88 -17q35 0 69 6t37 6q12 0 14 -13l7 -58q3 -26 -20 -36q-27 -15 -85 -17l-46 -120q-9 -23 -31 -23h-54q-21 0 -14 18l39 127
q-109 16 -154 103.5t-45 254.5q0 192 56.5 275.5t200.5 83.5q87 0 137 -13q21 -6 18 -26z" />
    <glyph glyph-name="Egrave" unicode="&#xc8;" horiz-adv-x="515" 
d="M157 878l82 22q21 4 28 -12l56 -116q9 -22 -12 -22h-34q-18 0 -30 13l-95 91q-7 8 -5.5 15t10.5 9zM273 700h167q17 0 17 -17v-82q0 -17 -17 -17h-127q-64 0 -83 -14.5t-19 -68.5v-80q0 -8 8 -8h172q18 0 18 -17v-81q0 -18 -18 -18h-172q-8 0 -8 -8v-90q0 -54 19 -68.5
t83 -14.5h127q17 0 17 -17v-82q0 -17 -17 -17h-143q-121 0 -167 43t-46 144v326q0 99 42.5 143t146.5 44z" />
    <glyph glyph-name="Eacute" unicode="&#xc9;" horiz-adv-x="515" 
d="M385 885l44 -20q23 -11 5 -28l-93 -83q-15 -13 -45 -13h-43q-21 0 -11 15l89 119q18 26 54 10zM273 700h167q17 0 17 -17v-82q0 -17 -17 -17h-127q-64 0 -83 -14.5t-19 -68.5v-80q0 -8 8 -8h172q18 0 18 -17v-81q0 -18 -18 -18h-172q-8 0 -8 -8v-90q0 -54 19 -68.5
t83 -14.5h127q17 0 17 -17v-82q0 -17 -17 -17h-143q-121 0 -167 43t-46 144v326q0 99 42.5 143t146.5 44z" />
    <glyph glyph-name="Ecircumflex" unicode="&#xca;" horiz-adv-x="515" 
d="M299 865l99 -49q10 -5 9 -14l-11 -46q-1 -19 -21 -12l-76 32q-10 3 -21 0l-75 -32q-11 -4 -15 -2.5t-7 14.5l-11 46q-1 8 10 14l99 49q10 4 20 0zM273 700h167q17 0 17 -17v-82q0 -17 -17 -17h-127q-64 0 -83 -14.5t-19 -68.5v-80q0 -8 8 -8h172q18 0 18 -17v-81
q0 -18 -18 -18h-172q-8 0 -8 -8v-90q0 -54 19 -68.5t83 -14.5h127q17 0 17 -17v-82q0 -17 -17 -17h-143q-121 0 -167 43t-46 144v326q0 99 42.5 143t146.5 44z" />
    <glyph glyph-name="Edieresis" unicode="&#xcb;" horiz-adv-x="515" 
d="M159 870h77q15 0 15 -15v-89q0 -16 -15 -16h-77q-15 0 -15 16v89q0 15 15 15zM340 870h77q15 0 15 -15v-89q0 -16 -15 -16h-77q-15 0 -15 16v89q0 15 15 15zM273 700h167q17 0 17 -17v-82q0 -17 -17 -17h-127q-64 0 -83 -14.5t-19 -68.5v-80q0 -8 8 -8h172q18 0 18 -17
v-81q0 -18 -18 -18h-172q-8 0 -8 -8v-90q0 -54 19 -68.5t83 -14.5h127q17 0 17 -17v-82q0 -17 -17 -17h-143q-121 0 -167 43t-46 144v326q0 99 42.5 143t146.5 44z" />
    <glyph glyph-name="Igrave" unicode="&#xcc;" horiz-adv-x="297" 
d="M16 878l82 22q21 4 28 -12l56 -116q9 -22 -12 -22h-34q-18 0 -30 13l-96 91q-7 8 -5 15t11 9zM101 700h95q18 0 18 -17v-666q0 -17 -18 -17h-95q-17 0 -17 17v666q0 17 17 17z" />
    <glyph glyph-name="Iacute" unicode="&#xcd;" horiz-adv-x="297" 
d="M243 885l45 -20q22 -10 4 -28l-92 -83q-15 -13 -45 -13h-43q-21 0 -11 15l88 119q19 26 54 10zM101 700h95q18 0 18 -17v-666q0 -17 -18 -17h-95q-17 0 -17 17v666q0 17 17 17z" />
    <glyph glyph-name="Icircumflex" unicode="&#xce;" horiz-adv-x="297" 
d="M158 865l98 -49q12 -5 9 -14l-10 -46q-2 -10 -6 -12.5t-15 0.5l-76 32q-11 4 -21 0l-76 -32q-10 -4 -14 -2.5t-8 14.5l-10 46q-1 8 10 14l99 49q10 4 20 0zM101 700h95q18 0 18 -17v-666q0 -17 -18 -17h-95q-17 0 -17 17v666q0 17 17 17z" />
    <glyph glyph-name="Idieresis" unicode="&#xcf;" horiz-adv-x="297" 
d="M18 870h77q14 0 14 -15v-89q0 -16 -14 -16h-77q-15 0 -15 16v89q0 15 15 15zM199 870h77q14 0 14 -15v-89q0 -16 -14 -16h-77q-15 0 -15 16v89q0 15 15 15zM101 700h95q18 0 18 -17v-666q0 -17 -18 -17h-95q-17 0 -17 17v666q0 17 17 17z" />
    <glyph glyph-name="Eth" unicode="&#xd0;" horiz-adv-x="663" 
d="M189 700h167q118 0 172.5 -79.5t53.5 -270.5q0 -190 -54.5 -270t-171.5 -80h-170q-31 0 -52 23t-21 55v230q0 10 -11 10h-51q-12 0 -12 13v54q0 11 12 11h51q11 0 11 12v219q0 31 23 52t53 21zM321 585h-68q-4 0 -8.5 -4.5t-4.5 -7.5v-165q0 -12 12 -12h104q15 0 15 -11
v-53q0 -5 -4.5 -9.5t-10.5 -4.5h-104q-12 0 -12 -10v-181q0 -3 4.5 -7.5t8.5 -4.5h68q85 0 109 47.5t24 187.5t-24 187.5t-109 47.5z" />
    <glyph glyph-name="Ntilde" unicode="&#xd1;" horiz-adv-x="619" 
d="M411 880q22 0 29.5 -4t7.5 -15q-1 -21 -8 -41.5t-27.5 -40t-50.5 -19.5q-24 0 -53 16.5t-40 16.5q-18 0 -30 -22q-5 -10 -11 -12.5t-26 -2.5q-32 0 -32 18q8 97 79 97q26 0 58.5 -16.5t42.5 -16.5q17 0 26 23q6 13 11 16t24 3zM422 700h102q13 0 13 -12v-642
q0 -46 -46 -46h-40q-13 0 -18 9l-214 401q-2 3 -4.5 4t-4 -1t-1.5 -5v-396q0 -12 -12 -12h-103q-12 0 -12 12v642q0 46 46 46h46q15 0 23 -12l203 -385q2 -5 6 -4t4 7v382q0 12 12 12z" />
    <glyph glyph-name="Ograve" unicode="&#xd2;" 
d="M180 878l82 22q21 4 28 -12l56 -116q9 -22 -12 -22h-34q-18 0 -30 13l-96 91q-7 8 -5 15t11 9zM311 709q63 0 107 -14.5t71 -40.5t42 -72t20.5 -98.5t5.5 -131.5t-5 -132t-20.5 -100t-42.5 -73t-71 -41t-107 -15q-79 0 -128 21t-74.5 69.5t-34.5 110t-9 160.5
q0 79 5.5 131.5t20.5 98.5t42 72t71 40.5t107 14.5zM311 589q-48 0 -71 -17t-33.5 -67t-10.5 -154q0 -105 10.5 -155.5t33.5 -67.5t71 -17q47 0 70 17t34 68t11 155q0 103 -11 154t-34 67.5t-70 16.5z" />
    <glyph glyph-name="Oacute" unicode="&#xd3;" 
d="M407 885l45 -20q22 -10 4 -28l-92 -83q-15 -13 -45 -13h-43q-21 0 -11 15l88 119q19 26 54 10zM311 709q63 0 107 -14.5t71 -40.5t42 -72t20.5 -98.5t5.5 -131.5t-5 -132t-20.5 -100t-42.5 -73t-71 -41t-107 -15q-79 0 -128 21t-74.5 69.5t-34.5 110t-9 160.5
q0 79 5.5 131.5t20.5 98.5t42 72t71 40.5t107 14.5zM311 589q-48 0 -71 -17t-33.5 -67t-10.5 -154q0 -105 10.5 -155.5t33.5 -67.5t71 -17q47 0 70 17t34 68t11 155q0 103 -11 154t-34 67.5t-70 16.5z" />
    <glyph glyph-name="Ocircumflex" unicode="&#xd4;" 
d="M322 865l98 -49q12 -5 9 -14l-10 -46q-2 -10 -6 -12.5t-15 0.5l-76 32q-10 4 -21 0l-76 -32q-10 -4 -14 -2.5t-8 14.5l-10 46q-1 8 10 14l99 49q10 4 20 0zM311 709q63 0 107 -14.5t71 -40.5t42 -72t20.5 -98.5t5.5 -131.5t-5 -132t-20.5 -100t-42.5 -73t-71 -41
t-107 -15q-79 0 -128 21t-74.5 69.5t-34.5 110t-9 160.5q0 79 5.5 131.5t20.5 98.5t42 72t71 40.5t107 14.5zM311 589q-48 0 -71 -17t-33.5 -67t-10.5 -154q0 -105 10.5 -155.5t33.5 -67.5t71 -17q47 0 70 17t34 68t11 155q0 103 -11 154t-34 67.5t-70 16.5z" />
    <glyph glyph-name="Otilde" unicode="&#xd5;" 
d="M410 880q22 0 29.5 -4t7.5 -15q-1 -21 -8 -41.5t-27.5 -40t-50.5 -19.5q-24 0 -53 16.5t-40 16.5q-19 0 -29 -22q-5 -10 -11.5 -12.5t-26.5 -2.5q-32 0 -32 18q8 97 79 97q26 0 58.5 -16.5t42.5 -16.5q18 0 26 23q6 13 11 16t24 3zM311 709q63 0 107 -14.5t71 -40.5
t42 -72t20.5 -98.5t5.5 -131.5t-5 -132t-20.5 -100t-42.5 -73t-71 -41t-107 -15q-79 0 -128 21t-74.5 69.5t-34.5 110t-9 160.5q0 79 5.5 131.5t20.5 98.5t42 72t71 40.5t107 14.5zM311 589q-48 0 -71 -17t-33.5 -67t-10.5 -154q0 -105 10.5 -155.5t33.5 -67.5t71 -17
q47 0 70 17t34 68t11 155q0 103 -11 154t-34 67.5t-70 16.5z" />
    <glyph glyph-name="Odieresis" unicode="&#xd6;" 
d="M182 870h77q14 0 14 -15v-89q0 -16 -14 -16h-77q-15 0 -15 16v89q0 15 15 15zM363 870h77q14 0 14 -15v-89q0 -16 -14 -16h-77q-15 0 -15 16v89q0 15 15 15zM311 709q63 0 107 -14.5t71 -40.5t42 -72t20.5 -98.5t5.5 -131.5t-5 -132t-20.5 -100t-42.5 -73t-71 -41
t-107 -15q-79 0 -128 21t-74.5 69.5t-34.5 110t-9 160.5q0 79 5.5 131.5t20.5 98.5t42 72t71 40.5t107 14.5zM311 589q-48 0 -71 -17t-33.5 -67t-10.5 -154q0 -105 10.5 -155.5t33.5 -67.5t71 -17q47 0 70 17t34 68t11 155q0 103 -11 154t-34 67.5t-70 16.5z" />
    <glyph glyph-name="multiply" unicode="&#xd7;" horiz-adv-x="453" 
d="M72 371l52 52q9 9 20 0l75 -76q11 -10 20 -1l79 80q11 10 19 2l52 -52q3 -3 3 -9.5t-4 -10.5l-79 -79q-10 -8 -1 -19l78 -77q7 -9 0 -18l-53 -53q-9 -8 -18 0l-76 77q-10 9 -20 1l-81 -81q-10 -10 -17 0l-53 52q-8 8 1 17l80 80q9 9 1 20l-77 76q-8 10 -1 19z" />
    <glyph glyph-name="Oslash" unicode="&#xd8;" horiz-adv-x="650" 
d="M493 656l-12 6q44 -39 60 -112.5t16 -197.5q0 -79 -5 -132t-20.5 -100t-42.5 -73t-71 -41t-107 -15q-21 0 -32 1l-37 -99q-3 -10 -17 -10h-81q-18 0 -10 15l44 117q-67 32 -90 111t-23 226q0 79 5.5 131.5t20.5 98.5t42 72t71 40.5t107 14.5q54 0 87 -8l36 92q4 11 15 11
h86q14 0 8 -15zM311 111q47 0 70 17t34 68t11 155q0 103 -11 154t-34 67.5t-70 16.5q-48 0 -71 -17t-33.5 -67t-10.5 -154q0 -105 10.5 -155.5t33.5 -67.5t71 -17z" />
    <glyph glyph-name="Ugrave" unicode="&#xd9;" horiz-adv-x="625" 
d="M181 878l82 22q20 4 27 -12l57 -116q8 -22 -13 -22h-34q-17 0 -30 13l-95 91q-7 8 -5 15t11 9zM423 700h102q13 0 13 -13v-487q0 -52 -8 -86t-31 -63.5t-69 -43t-117 -13.5t-117 13.5t-69 43t-31 63.5t-8 86v487q0 13 13 13h100q14 0 14 -13v-488q0 -51 19 -70.5
t79 -19.5q58 0 77.5 20t19.5 70v488q0 13 13 13z" />
    <glyph glyph-name="Uacute" unicode="&#xda;" horiz-adv-x="625" 
d="M408 885l44 -20q22 -11 5 -28l-93 -83q-15 -13 -45 -13h-42q-10 0 -13 4t2 11l88 119q11 14 22 16.5t32 -6.5zM423 700h102q13 0 13 -13v-487q0 -52 -8 -86t-31 -63.5t-69 -43t-117 -13.5t-117 13.5t-69 43t-31 63.5t-8 86v487q0 13 13 13h100q14 0 14 -13v-488
q0 -51 19 -70.5t79 -19.5q58 0 77.5 20t19.5 70v488q0 13 13 13z" />
    <glyph glyph-name="Ucircumflex" unicode="&#xdb;" horiz-adv-x="625" 
d="M323 865l98 -49q12 -5 9 -14l-10 -46q-2 -10 -6 -12.5t-15 0.5l-76 32q-11 4 -21 0l-76 -32q-10 -4 -14.5 -2.5t-7.5 14.5l-10 46q-1 8 10 14l99 49q10 4 20 0zM423 700h102q13 0 13 -13v-487q0 -52 -8 -86t-31 -63.5t-69 -43t-117 -13.5t-117 13.5t-69 43t-31 63.5
t-8 86v487q0 13 13 13h100q14 0 14 -13v-488q0 -51 19 -70.5t79 -19.5q58 0 77.5 20t19.5 70v488q0 13 13 13z" />
    <glyph glyph-name="Udieresis" unicode="&#xdc;" horiz-adv-x="625" 
d="M182 870h77q15 0 15 -15v-89q0 -16 -15 -16h-77q-14 0 -14 16v89q0 15 14 15zM363 870h77q15 0 15 -15v-89q0 -16 -15 -16h-77q-14 0 -14 16v89q0 15 14 15zM423 700h102q13 0 13 -13v-487q0 -52 -8 -86t-31 -63.5t-69 -43t-117 -13.5t-117 13.5t-69 43t-31 63.5t-8 86
v487q0 13 13 13h100q14 0 14 -13v-488q0 -51 19 -70.5t79 -19.5q58 0 77.5 20t19.5 70v488q0 13 13 13z" />
    <glyph glyph-name="Yacute" unicode="&#xdd;" horiz-adv-x="558" 
d="M376 885l45 -20q22 -10 4 -28l-92 -83q-15 -13 -45 -13h-43q-21 0 -11 15l88 119q19 26 54 10zM382 700h103q12 0 12 -13v-177q0 -65 -27 -94l-116 -130q-12 -14 -12 -34v-240q0 -12 -12 -12h-101q-12 0 -12 12v240q0 21 -13 34l-116 131q-26 30 -26 93v177q0 13 12 13
h103q11 0 11 -13v-173q0 -19 8 -30l67 -88q17 -21 32 0l67 88q10 14 10 30v173q0 13 10 13z" />
    <glyph glyph-name="Thorn" unicode="&#xde;" horiz-adv-x="558" 
d="M97 700h102q13 0 13 -13v-89q0 -9 8 -9h71q122 0 174 -47.5t52 -163.5q0 -115 -54 -171.5t-177 -56.5h-66q-8 0 -8 -9v-128q0 -13 -13 -13h-103q-12 0 -12 13v674q0 13 13 13zM296 474h-67q-17 0 -17 -17v-181q0 -11 12 -11h68q101 0 99 113q-1 50 -22.5 73t-72.5 23z
" />
    <glyph glyph-name="germandbls" unicode="&#xdf;" horiz-adv-x="560" 
d="M76 14v496q0 105 45.5 152t166.5 47q95 0 142 -39t47 -99q0 -79 -51 -120l-37 -28q-15 -11 -21 -16t-12 -15t-6 -22q0 -18 6.5 -27t25.5 -18l45 -25q53 -30 70.5 -58.5t17.5 -94.5q0 -80 -40 -118t-124 -38q-56 0 -91 11q-20 7 -19 29l8 63q1 14 13 14q4 0 28 -4.5
t43 -4.5q36 0 50 12t14 43q0 6 -1.5 11.5t-2.5 9.5t-5.5 8.5l-6.5 6.5t-9 6.5t-9.5 6t-12.5 7t-13 7.5l-41 22q-31 18 -43 44t-12 68q0 37 8.5 57.5t36.5 43.5l28 22q37 33 43 44q5 11 5 26q0 56 -81 56q-46 0 -65.5 -20.5t-19.5 -67.5v-498q0 -14 -15 -14h-89q-16 0 -16 14
z" />
    <glyph glyph-name="agrave" unicode="&#xe0;" horiz-adv-x="498" 
d="M128 714h101q15 0 18 -14l33 -101q6 -22 -13 -22h-34q-18 0 -28 13l-85 107q-5 6 -3 11.5t11 5.5zM80 419l-8 49q-5 24 17 33q59 22 147 22q102 0 148 -42t46 -153v-314q0 -14 -15 -14h-57q-15 0 -18 10l-11 37q0 2 -3 2t-12 -9t-21.5 -20t-40.5 -20t-63 -9
q-77 0 -110 40t-33 130q0 83 39.5 119.5t129.5 36.5h80q16 0 16 16q0 48 -18 66t-67 18q-37 0 -81.5 -8t-47.5 -8q-14 0 -17 18zM301 224h-58q-48 0 -65.5 -13t-17.5 -50q0 -39 14.5 -55t50.5 -16q40 0 63.5 24t23.5 62v36q0 12 -11 12z" />
    <glyph glyph-name="aacute" unicode="&#xe1;" horiz-adv-x="498" 
d="M259 714h108q13 0 16 -7.5t-5 -14.5l-99 -106q-9 -9 -18 -9h-51q-11 0 -15 6t0 13l46 107q5 11 18 11zM80 419l-8 49q-5 24 17 33q59 22 147 22q102 0 148 -42t46 -153v-314q0 -14 -15 -14h-57q-15 0 -18 10l-11 37q0 2 -3 2t-12 -9t-21.5 -20t-40.5 -20t-63 -9
q-77 0 -110 40t-33 130q0 83 39.5 119.5t129.5 36.5h80q16 0 16 16q0 48 -18 66t-67 18q-37 0 -81.5 -8t-47.5 -8q-14 0 -17 18zM301 224h-58q-48 0 -65.5 -13t-17.5 -50q0 -39 14.5 -55t50.5 -16q40 0 63.5 24t23.5 62v36q0 12 -11 12z" />
    <glyph glyph-name="acircumflex" unicode="&#xe2;" horiz-adv-x="498" 
d="M257 709l98 -48q12 -5 9 -14l-10 -47q-3 -17 -21 -11l-76 31q-8 4 -21 0l-76 -31q-10 -5 -14.5 -3.5t-7.5 14.5l-10 47q-1 8 10 14l99 48q10 6 20 0zM80 419l-8 49q-5 24 17 33q59 22 147 22q102 0 148 -42t46 -153v-314q0 -14 -15 -14h-57q-15 0 -18 10l-11 37q0 2 -3 2
t-12 -9t-21.5 -20t-40.5 -20t-63 -9q-77 0 -110 40t-33 130q0 83 39.5 119.5t129.5 36.5h80q16 0 16 16q0 48 -18 66t-67 18q-37 0 -81.5 -8t-47.5 -8q-14 0 -17 18zM301 224h-58q-48 0 -65.5 -13t-17.5 -50q0 -39 14.5 -55t50.5 -16q40 0 63.5 24t23.5 62v36q0 12 -11 12z
" />
    <glyph glyph-name="atilde" unicode="&#xe3;" horiz-adv-x="498" 
d="M353 719q22 0 29.5 -4t7.5 -15q-1 -21 -8 -41.5t-27.5 -40t-50.5 -19.5q-24 0 -53 16.5t-40 16.5q-18 0 -30 -22q-5 -10 -11 -12.5t-26 -2.5q-32 0 -32 18q8 97 79 97q26 0 58.5 -16.5t42.5 -16.5q18 0 26 23q6 13 11 16t24 3zM80 419l-8 49q-5 24 17 33q59 22 147 22
q102 0 148 -42t46 -153v-314q0 -14 -15 -14h-57q-15 0 -18 10l-11 37q0 2 -3 2t-12 -9t-21.5 -20t-40.5 -20t-63 -9q-77 0 -110 40t-33 130q0 83 39.5 119.5t129.5 36.5h80q16 0 16 16q0 48 -18 66t-67 18q-37 0 -81.5 -8t-47.5 -8q-14 0 -17 18zM301 224h-58
q-48 0 -65.5 -13t-17.5 -50q0 -39 14.5 -55t50.5 -16q40 0 63.5 24t23.5 62v36q0 12 -11 12z" />
    <glyph glyph-name="adieresis" unicode="&#xe4;" horiz-adv-x="498" 
d="M138 714h68q15 0 15 -16v-95q0 -16 -15 -16h-68q-15 0 -15 16v95q0 16 15 16zM296 714h69q14 0 14 -16v-95q0 -16 -14 -16h-69q-15 0 -15 16v95q0 16 15 16zM80 419l-8 49q-5 24 17 33q59 22 147 22q102 0 148 -42t46 -153v-314q0 -14 -15 -14h-57q-15 0 -18 10l-11 37
q0 2 -3 2t-12 -9t-21.5 -20t-40.5 -20t-63 -9q-77 0 -110 40t-33 130q0 83 39.5 119.5t129.5 36.5h80q16 0 16 16q0 48 -18 66t-67 18q-37 0 -81.5 -8t-47.5 -8q-14 0 -17 18zM301 224h-58q-48 0 -65.5 -13t-17.5 -50q0 -39 14.5 -55t50.5 -16q40 0 63.5 24t23.5 62v36
q0 12 -11 12z" />
    <glyph glyph-name="aring" unicode="&#xe5;" horiz-adv-x="498" 
d="M251 718q42 0 63 -19t21 -63q0 -83 -84 -83q-83 0 -83 83q0 82 83 82zM251 668q-29 0 -29 -32t29 -32t29 32t-29 32zM80 419l-8 49q-5 24 17 33q59 22 147 22q102 0 148 -42t46 -153v-314q0 -14 -15 -14h-57q-15 0 -18 10l-11 37q0 2 -3 2t-12 -9t-21.5 -20t-40.5 -20
t-63 -9q-77 0 -110 40t-33 130q0 83 39.5 119.5t129.5 36.5h80q16 0 16 16q0 48 -18 66t-67 18q-37 0 -81.5 -8t-47.5 -8q-14 0 -17 18zM301 224h-58q-48 0 -65.5 -13t-17.5 -50q0 -39 14.5 -55t50.5 -16q40 0 63.5 24t23.5 62v36q0 12 -11 12z" />
    <glyph glyph-name="ae" unicode="&#xe6;" horiz-adv-x="750" 
d="M75 424l-8 44q-4 23 22 37q38 18 115 18q65 0 101 -14t58 -45q10 -10 18 0q45 59 136 59q96 0 141.5 -52t45.5 -158v-40q0 -35 -16 -50.5t-51 -15.5h-198q-8 0 -8 -6v-16q0 -47 23.5 -67.5t79.5 -20.5q36 0 77 8.5t43 8.5q14 0 19 -17l11 -42q6 -29 -18 -41
q-44 -22 -141 -22q-45 0 -89 16.5t-65 42.5q-5 6 -11 0q-54 -57 -153 -57q-86 0 -123.5 39t-37.5 125q0 79 34 116t113 37h100q15 0 15 14v11q0 45 -23.5 65t-74.5 20q-38 0 -78 -9.5t-43 -9.5q-7 0 -9 3t-4 15q-1 3 -1 4zM440 299h147q9 0 9 9q0 61 -18.5 85.5t-58.5 24.5
q-84 0 -88 -94v-16q0 -9 9 -9zM298 216h-70q-39 0 -54 -13.5t-15 -51.5q0 -35 14.5 -48t50.5 -13q85 0 85 81v35q0 10 -11 10z" />
    <glyph glyph-name="ccedilla" unicode="&#xe7;" horiz-adv-x="426" 
d="M370 94l8 -55q4 -26 -20 -35q-22 -8 -65 -11l-47 -121q-9 -23 -31 -23h-54q-21 0 -14 18l39 128q-76 14 -108 75.5t-32 189.5q0 146 42.5 204.5t144.5 58.5q80 0 125 -20q23 -10 20 -35l-8 -56q-3 -16 -14 -16q-2 0 -33 8.5t-62 8.5q-51 0 -70 -30.5t-19 -124.5
q0 -95 20 -126t74 -31q21 0 54 3.5t36 3.5q11 0 14 -14z" />
    <glyph glyph-name="egrave" unicode="&#xe8;" horiz-adv-x="489" 
d="M134 714h102q13 0 18 -14l32 -101q6 -22 -13 -22h-33q-19 0 -29 13l-84 107q-5 6 -3 11.5t10 5.5zM411 97l12 -42q6 -28 -19 -41q-42 -22 -140 -22q-115 0 -165.5 59t-50.5 207t50 206.5t157 58.5q95 0 141 -52.5t46 -161.5v-38q0 -35 -16 -50.5t-50 -15.5h-201
q-7 0 -7 -6v-5q0 -54 23 -75.5t82 -21.5q36 0 76.5 8.5t42.5 8.5q16 0 19 -17zM176 296h150q8 0 8 9q0 64 -18.5 88.5t-58.5 24.5q-46 0 -67.5 -24.5t-21.5 -88.5q0 -9 8 -9z" />
    <glyph glyph-name="eacute" unicode="&#xe9;" horiz-adv-x="489" 
d="M266 714h108q12 0 15.5 -7.5t-4.5 -14.5l-99 -106q-9 -9 -18 -9h-52q-11 0 -14.5 6t0.5 13l46 107q5 11 18 11zM411 97l12 -42q6 -28 -19 -41q-42 -22 -140 -22q-115 0 -165.5 59t-50.5 207t50 206.5t157 58.5q95 0 141 -52.5t46 -161.5v-38q0 -35 -16 -50.5t-50 -15.5
h-201q-7 0 -7 -6v-5q0 -54 23 -75.5t82 -21.5q36 0 76.5 8.5t42.5 8.5q16 0 19 -17zM176 296h150q8 0 8 9q0 64 -18.5 88.5t-58.5 24.5q-46 0 -67.5 -24.5t-21.5 -88.5q0 -9 8 -9z" />
    <glyph glyph-name="ecircumflex" unicode="&#xea;" horiz-adv-x="489" 
d="M263 709l99 -48q10 -5 9 -14l-11 -47q-1 -18 -21 -11l-76 31q-8 4 -21 0l-75 -31q-10 -5 -14.5 -3.5t-7.5 14.5l-11 47q-1 8 10 14l99 48q10 6 20 0zM411 97l12 -42q6 -28 -19 -41q-42 -22 -140 -22q-115 0 -165.5 59t-50.5 207t50 206.5t157 58.5q95 0 141 -52.5
t46 -161.5v-38q0 -35 -16 -50.5t-50 -15.5h-201q-7 0 -7 -6v-5q0 -54 23 -75.5t82 -21.5q36 0 76.5 8.5t42.5 8.5q16 0 19 -17zM176 296h150q8 0 8 9q0 64 -18.5 88.5t-58.5 24.5q-46 0 -67.5 -24.5t-21.5 -88.5q0 -9 8 -9z" />
    <glyph glyph-name="edieresis" unicode="&#xeb;" horiz-adv-x="489" 
d="M144 714h69q15 0 15 -16v-95q0 -16 -15 -16h-69q-15 0 -15 16v95q0 16 15 16zM302 714h69q15 0 15 -16v-95q0 -16 -15 -16h-69q-14 0 -14 16v95q0 16 14 16zM411 97l12 -42q6 -28 -19 -41q-42 -22 -140 -22q-115 0 -165.5 59t-50.5 207t50 206.5t157 58.5q95 0 141 -52.5
t46 -161.5v-38q0 -35 -16 -50.5t-50 -15.5h-201q-7 0 -7 -6v-5q0 -54 23 -75.5t82 -21.5q36 0 76.5 8.5t42.5 8.5q16 0 19 -17zM176 296h150q8 0 8 9q0 64 -18.5 88.5t-58.5 24.5q-46 0 -67.5 -24.5t-21.5 -88.5q0 -9 8 -9z" />
    <glyph glyph-name="igrave" unicode="&#xec;" horiz-adv-x="258" 
d="M5 714h101q14 0 19 -14l32 -101q6 -22 -13 -22h-33q-19 0 -29 13l-85 107q-5 6 -3 11.5t11 5.5zM85 514h88q17 0 17 -17v-480q0 -17 -17 -17h-90q-15 0 -15 17v480q0 17 17 17z" />
    <glyph glyph-name="iacute" unicode="&#xed;" horiz-adv-x="258" 
d="M136 714h108q13 0 16 -7.5t-5 -14.5l-99 -106q-9 -9 -18 -9h-51q-23 0 -15 19l47 107q3 11 17 11zM85 514h88q17 0 17 -17v-480q0 -17 -17 -17h-90q-15 0 -15 17v480q0 17 17 17z" />
    <glyph glyph-name="icircumflex" unicode="&#xee;" horiz-adv-x="258" 
d="M134 709l98 -48q12 -5 9 -14l-10 -47q-3 -17 -21 -11l-76 31q-8 4 -21 0l-76 -31q-10 -5 -14 -3.5t-8 14.5l-10 47q-1 8 10 14l99 48q10 6 20 0zM85 514h88q17 0 17 -17v-480q0 -17 -17 -17h-90q-15 0 -15 17v480q0 17 17 17z" />
    <glyph glyph-name="idieresis" unicode="&#xef;" horiz-adv-x="258" 
d="M15 714h68q15 0 15 -16v-95q0 -16 -15 -16h-68q-15 0 -15 16v95q0 16 15 16zM173 714h69q15 0 15 -16v-95q0 -16 -15 -16h-69q-15 0 -15 16v95q0 16 15 16zM85 514h88q17 0 17 -17v-480q0 -17 -17 -17h-90q-15 0 -15 17v480q0 17 17 17z" />
    <glyph glyph-name="eth" unicode="&#xf0;" horiz-adv-x="547" 
d="M477 654l9 -45q2 -8 -12 -12l-48 -9q22 -63 22 -134v-228q0 -122 -38 -172q-45 -60 -159 -60q-115 0 -159 59.5t-44 192.5q0 145 42.5 203t141.5 58q30 0 50.5 -5t29.5 -10t11 -5q5 0 5 6q3 34 -18 73l-91 -17q-6 -1 -8 0.5t-4 8.5l-9 44q-2 9 11 11l61 12q-25 28 -51 46
q-25 17 -3 35l42 34q20 17 52 -4q53 -36 86 -86l69 13q10 2 12 -9zM332 240v40q0 70 -13 91q-15 27 -67 27q-47 0 -67 -33.5t-20 -118.5q0 -87 19 -114.5t68 -27.5q47 0 62 22q18 26 18 114z" />
    <glyph glyph-name="ntilde" unicode="&#xf1;" horiz-adv-x="535" 
d="M368 718q22 0 30 -4t7 -15q-2 -36 -22 -69t-63 -33q-25 0 -53.5 16.5t-39.5 16.5q-19 0 -30 -21q-5 -10 -11 -12.5t-27 -2.5q-32 0 -32 17q8 97 79 97q26 0 58.5 -16t42.5 -16q18 0 27 22q5 14 10 17t24 3zM68 14v321q0 47 7.5 78.5t28.5 58t61.5 39t102.5 12.5
t102.5 -12.5t61 -39t28 -58t7.5 -78.5v-321q0 -14 -15 -14h-90q-15 0 -15 14v313q0 52 -17.5 69t-61.5 17t-62 -17t-18 -69v-313q0 -14 -14 -14h-92q-14 0 -14 14z" />
    <glyph glyph-name="ograve" unicode="&#xf2;" horiz-adv-x="506" 
d="M140 712h101q15 0 18 -14l33 -100q6 -22 -13 -22h-34q-19 0 -28 12l-85 107q-5 7 -3 12t11 5zM254 523q115 0 159.5 -58t44.5 -206q0 -150 -44.5 -209t-159.5 -59q-116 0 -161 59t-45 209q0 148 45 206t161 58zM254 413q-49 0 -66.5 -30.5t-17.5 -123.5q0 -95 17 -126.5
t67 -31.5q49 0 65.5 31.5t16.5 126.5q0 93 -16.5 123.5t-65.5 30.5z" />
    <glyph glyph-name="oacute" unicode="&#xf3;" horiz-adv-x="506" 
d="M271 712h108q13 0 16 -7t-5 -15l-99 -106q-8 -8 -18 -8h-51q-11 0 -15 5.5t0 12.5l46 108q4 10 18 10zM254 523q115 0 159.5 -58t44.5 -206q0 -150 -44.5 -209t-159.5 -59q-116 0 -161 59t-45 209q0 148 45 206t161 58zM254 413q-49 0 -66.5 -30.5t-17.5 -123.5
q0 -95 17 -126.5t67 -31.5q49 0 65.5 31.5t16.5 126.5q0 93 -16.5 123.5t-65.5 30.5z" />
    <glyph glyph-name="ocircumflex" unicode="&#xf4;" horiz-adv-x="506" 
d="M269 708l98 -49q12 -5 9 -14l-10 -46q-2 -10 -6 -12.5t-15 0.5l-76 32q-11 3 -21 0l-76 -32q-10 -4 -14.5 -2.5t-7.5 14.5l-10 46q-1 8 10 14l99 49q10 4 20 0zM254 523q115 0 159.5 -58t44.5 -206q0 -150 -44.5 -209t-159.5 -59q-116 0 -161 59t-45 209q0 148 45 206
t161 58zM254 413q-49 0 -66.5 -30.5t-17.5 -123.5q0 -95 17 -126.5t67 -31.5q49 0 65.5 31.5t16.5 126.5q0 93 -16.5 123.5t-65.5 30.5z" />
    <glyph glyph-name="otilde" unicode="&#xf5;" horiz-adv-x="506" 
d="M365 718q22 0 29.5 -4t7.5 -15q-1 -21 -8 -42t-27.5 -40.5t-50.5 -19.5q-24 0 -53 16.5t-40 16.5q-18 0 -30 -21q-5 -10 -11 -12.5t-26 -2.5q-19 0 -25.5 3.5t-6.5 13.5q8 97 79 97q26 0 58.5 -16t42.5 -16q17 0 26 22q6 14 11 17t24 3zM254 523q115 0 159.5 -58
t44.5 -206q0 -150 -44.5 -209t-159.5 -59q-116 0 -161 59t-45 209q0 148 45 206t161 58zM254 413q-49 0 -66.5 -30.5t-17.5 -123.5q0 -95 17 -126.5t67 -31.5q49 0 65.5 31.5t16.5 126.5q0 93 -16.5 123.5t-65.5 30.5z" />
    <glyph glyph-name="odieresis" unicode="&#xf6;" horiz-adv-x="506" 
d="M149 712h69q15 0 15 -15v-96q0 -15 -15 -15h-69q-14 0 -14 15v96q0 15 14 15zM308 712h68q15 0 15 -15v-96q0 -15 -15 -15h-68q-15 0 -15 15v96q0 15 15 15zM254 523q115 0 159.5 -58t44.5 -206q0 -150 -44.5 -209t-159.5 -59q-116 0 -161 59t-45 209q0 148 45 206
t161 58zM254 413q-49 0 -66.5 -30.5t-17.5 -123.5q0 -95 17 -126.5t67 -31.5q49 0 65.5 31.5t16.5 126.5q0 93 -16.5 123.5t-65.5 30.5z" />
    <glyph glyph-name="divide" unicode="&#xf7;" horiz-adv-x="554" 
d="M242 500h72q15 0 15 -15v-103q0 -15 -15 -15h-72q-16 0 -16 15v103q0 15 16 15zM80 298h392q14 0 14 -12v-73q0 -13 -14 -13h-392q-12 0 -12 12v74q0 12 12 12zM242 133h72q15 0 15 -15v-103q0 -15 -15 -15h-72q-16 0 -16 15v103q0 15 16 15z" />
    <glyph glyph-name="oslash" unicode="&#xf8;" horiz-adv-x="494" 
d="M335 606h78q15 0 9 -12l-38 -106q38 -26 51.5 -79.5t13.5 -153.5q0 -72 -7.5 -117.5t-29 -80.5t-61.5 -50.5t-103 -15.5q-16 0 -23 1l-34 -92q-4 -11 -16 -11h-83q-11 0 -7 12l44 114q-46 25 -64.5 81t-18.5 159q0 146 39 207t152 61q27 0 51 -4l28 73q6 14 19 14z
M249 413q-48 0 -64 -28.5t-16 -126.5q0 -99 16 -128t64 -29q45 0 61 29t16 128q0 97 -16 126t-61 29z" />
    <glyph glyph-name="ugrave" unicode="&#xf9;" horiz-adv-x="527" 
d="M138 711h101q14 0 19 -14l32 -100q6 -22 -13 -22h-33q-19 0 -29 12l-85 107q-11 17 8 17zM356 514h86q17 0 17 -17v-292q0 -120 -42.5 -167t-151.5 -47q-110 0 -153.5 47t-43.5 167v292q0 17 17 17h86q17 0 17 -17v-309q0 -51 17 -69t60 -18q42 0 58 18t16 69v309
q0 17 17 17z" />
    <glyph glyph-name="uacute" unicode="&#xfa;" horiz-adv-x="527" 
d="M269 711h108q13 0 16 -7.5t-5 -14.5l-99 -106q-10 -8 -18 -8h-51q-23 0 -15 18l47 108q3 10 17 10zM356 514h86q17 0 17 -17v-292q0 -120 -42.5 -167t-151.5 -47q-110 0 -153.5 47t-43.5 167v292q0 17 17 17h86q17 0 17 -17v-309q0 -51 17 -69t60 -18q42 0 58 18t16 69
v309q0 17 17 17z" />
    <glyph glyph-name="ucircumflex" unicode="&#xfb;" horiz-adv-x="527" 
d="M267 707l98 -49q12 -5 9 -14l-10 -46q-2 -10 -6 -12.5t-15 0.5l-76 32q-8 4 -21 0l-76 -32q-10 -4 -14 -2.5t-8 14.5l-10 46q-1 8 10 14l99 49q10 4 20 0zM356 514h86q17 0 17 -17v-292q0 -120 -42.5 -167t-151.5 -47q-110 0 -153.5 47t-43.5 167v292q0 17 17 17h86
q17 0 17 -17v-309q0 -51 17 -69t60 -18q42 0 58 18t16 69v309q0 17 17 17z" />
    <glyph glyph-name="udieresis" unicode="&#xfc;" horiz-adv-x="527" 
d="M148 711h68q15 0 15 -15v-96q0 -15 -15 -15h-68q-15 0 -15 15v96q0 15 15 15zM306 711h69q14 0 14 -15v-96q0 -15 -14 -15h-69q-15 0 -15 15v96q0 15 15 15zM356 514h86q17 0 17 -17v-292q0 -120 -42.5 -167t-151.5 -47q-110 0 -153.5 47t-43.5 167v292q0 17 17 17h86
q17 0 17 -17v-309q0 -51 17 -69t60 -18q42 0 58 18t16 69v309q0 17 17 17z" />
    <glyph glyph-name="yacute" unicode="&#xfd;" horiz-adv-x="532" 
d="M279 712h108q13 0 16 -7t-5 -15l-99 -106q-8 -8 -18 -8h-51q-11 0 -15 5.5t0 12.5l46 108q4 10 18 10zM359 514h90q15 0 15 -14v-509q0 -104 -48.5 -150t-158.5 -46q-85 0 -129 16q-23 8 -19 29l8 64q2 14 13 14q3 0 42 -6t71 -6q58 0 82 20.5t24 62.5v64q0 6 -6 6l-9 -3
q-9 -4 -17 -6.5t-21.5 -6t-31.5 -5.5t-38 -2q-158 0 -158 180v284q0 14 14 14h91q15 0 15 -14v-262q0 -52 17 -72t58 -20q42 0 61 16t19 51v287q0 14 16 14z" />
    <glyph glyph-name="thorn" unicode="&#xfe;" horiz-adv-x="535" 
d="M80 701h95q12 0 12 -14v-188q0 -4 1.5 -6.5t5.5 -1.5q3 1 21 10.5t40.5 15.5t52.5 6q100 0 139.5 -64t39.5 -202t-41.5 -202t-147.5 -64q-24 0 -45 6t-36.5 14t-20.5 9q-9 0 -9 -13v-168q0 -14 -12 -14h-95q-4 0 -8 4.5t-4 9.5v848q0 5 4 9.5t8 4.5zM188 303v-110
q0 -48 17 -65q25 -27 69 -27q55 0 75 29t20 124q0 98 -19.5 128.5t-68.5 30.5q-53 0 -77 -32q-16 -22 -16 -78z" />
    <glyph glyph-name="ydieresis" unicode="&#xff;" horiz-adv-x="532" 
d="M158 712h68q15 0 15 -15v-96q0 -15 -15 -15h-68q-15 0 -15 15v96q0 15 15 15zM316 712h69q14 0 14 -15v-96q0 -15 -14 -15h-69q-15 0 -15 15v96q0 15 15 15zM359 514h90q15 0 15 -14v-509q0 -104 -48.5 -150t-158.5 -46q-85 0 -129 16q-23 8 -19 29l8 64q2 14 13 14
q3 0 42 -6t71 -6q58 0 82 20.5t24 62.5v64q0 6 -6 6l-9 -3q-9 -4 -17 -6.5t-21.5 -6t-31.5 -5.5t-38 -2q-158 0 -158 180v284q0 14 14 14h91q15 0 15 -14v-262q0 -52 17 -72t58 -20q42 0 61 16t19 51v287q0 14 16 14z" />
    <glyph glyph-name="Amacron" unicode="&#x100;" horiz-adv-x="601" 
d="M179 870h228q5 0 9.5 -4t4.5 -10v-65q0 -5 -4.5 -9.5t-9.5 -4.5h-228q-12 0 -12 14v65q0 14 12 14zM128 564l121 123q21 22 53 22t54 -23l117 -121q45 -45 45 -108v-440q0 -17 -18 -17h-93q-17 0 -17 17v145q0 9 -9 9h-161q-9 0 -9 -9v-145q0 -17 -17 -17h-93
q-17 0 -17 17v440q0 63 44 107zM380 487l-71 76q-4 4 -7 4t-7 -4l-74 -76q-10 -10 -10 -25v-166q0 -9 9 -9h161q9 0 9 9v167q0 14 -10 24z" />
    <glyph glyph-name="amacron" unicode="&#x101;" horiz-adv-x="498" 
d="M128 692h228q5 0 9.5 -4.5t4.5 -10.5v-64q0 -6 -4.5 -10t-9.5 -4h-228q-12 0 -12 14v64q0 15 12 15zM80 419l-8 49q-5 24 17 33q59 22 147 22q102 0 148 -42t46 -153v-314q0 -14 -15 -14h-57q-15 0 -18 10l-11 37q0 2 -3 2t-12 -9t-21.5 -20t-40.5 -20t-63 -9
q-77 0 -110 40t-33 130q0 83 39.5 119.5t129.5 36.5h80q16 0 16 16q0 48 -18 66t-67 18q-37 0 -81.5 -8t-47.5 -8q-14 0 -17 18zM301 224h-58q-48 0 -65.5 -13t-17.5 -50q0 -39 14.5 -55t50.5 -16q40 0 63.5 24t23.5 62v36q0 12 -11 12z" />
    <glyph glyph-name="Abreve" unicode="&#x102;" horiz-adv-x="601" 
d="M375 886h40q16 0 16 -13q0 -58 -31 -85.5t-98 -27.5t-98 27.5t-31 85.5q0 13 16 13h40q13 0 14 -14q4 -37 59 -37q30 0 43 8.5t16 28.5q1 14 14 14zM128 564l121 123q21 22 53 22t54 -23l117 -121q45 -45 45 -108v-440q0 -17 -18 -17h-93q-17 0 -17 17v145q0 9 -9 9h-161
q-9 0 -9 -9v-145q0 -17 -17 -17h-93q-17 0 -17 17v440q0 63 44 107zM380 487l-71 76q-4 4 -7 4t-7 -4l-74 -76q-10 -10 -10 -25v-166q0 -9 9 -9h161q9 0 9 9v167q0 14 -10 24z" />
    <glyph glyph-name="abreve" unicode="&#x103;" horiz-adv-x="498" 
d="M324 704h40q16 0 16 -14q1 -58 -30 -85.5t-99 -27.5q-67 0 -98 27.5t-31 85.5q0 14 17 14h39q12 0 15 -14q2 -20 15 -29t43 -9t43.5 9t15.5 29q1 14 14 14zM80 419l-8 49q-5 24 17 33q59 22 147 22q102 0 148 -42t46 -153v-314q0 -14 -15 -14h-57q-15 0 -18 10l-11 37
q0 2 -3 2t-12 -9t-21.5 -20t-40.5 -20t-63 -9q-77 0 -110 40t-33 130q0 83 39.5 119.5t129.5 36.5h80q16 0 16 16q0 48 -18 66t-67 18q-37 0 -81.5 -8t-47.5 -8q-14 0 -17 18zM301 224h-58q-48 0 -65.5 -13t-17.5 -50q0 -39 14.5 -55t50.5 -16q40 0 63.5 24t23.5 62v36
q0 12 -11 12z" />
    <glyph glyph-name="Aogonek" unicode="&#x104;" horiz-adv-x="601" 
d="M500 0h-11q-33 -26 -33 -79q0 -59 37 -59q7 0 17 1.5t13 1.5q11 0 11 -13v-24q0 -16 -16 -25q-26 -17 -71 -17q-51 0 -72.5 24.5t-21.5 76.5q0 70 53 113q-16 2 -16 17v145q0 9 -9 9h-161q-9 0 -9 -9v-145q0 -17 -17 -17h-93q-17 0 -17 17v440q0 63 44 107l121 123
q21 22 53 22t54 -23l117 -121q45 -45 45 -108v-440l1 -1h-1q-2 -16 -18 -16zM390 296v167q0 14 -10 24l-71 76q-4 4 -7 4t-7 -4l-74 -76q-10 -10 -10 -25v-166q0 -9 9 -9h161q9 0 9 9z" />
    <glyph glyph-name="aogonek" unicode="&#x105;" horiz-adv-x="498" 
d="M420 1l2 -1q-64 -24 -64 -96q0 -58 37 -58q7 0 17.5 1t13.5 1q11 0 11 -12v-24q0 -16 -16 -26q-29 -16 -71 -16q-51 0 -72.5 24.5t-21.5 76.5q0 44 20 76.5t66 58.5l-2 4l-11 37q0 2 -3 2t-12 -9t-21.5 -20t-40.5 -20t-63 -9q-77 0 -110 40t-33 130q0 83 39.5 119.5
t129.5 36.5h80q16 0 16 16q0 48 -18 66t-67 18q-37 0 -81.5 -8t-47.5 -8q-14 0 -17 18l-8 49q-5 24 17 33q59 22 147 22q102 0 148 -42t46 -153v-314q0 -10 -10 -13zM312 176v36q0 12 -11 12h-58q-48 0 -65.5 -13t-17.5 -50q0 -39 14.5 -55t50.5 -16q40 0 63.5 24t23.5 62z
" />
    <glyph glyph-name="Cacute" unicode="&#x106;" horiz-adv-x="524" 
d="M401 885l44 -20q22 -11 5 -28l-93 -83q-15 -13 -45 -13h-42q-10 0 -13 4t2 11l88 119q11 14 22 16.5t32 -6.5zM468 103l7 -58q3 -26 -20 -36q-36 -18 -133 -18q-142 -2 -199.5 86t-57.5 275q0 192 56.5 275.5t200.5 83.5q87 0 137 -13q21 -6 18 -26l-8 -76
q-2 -12 -13 -12q-1 0 -38 5t-66 5q-45 1 -71.5 -6.5t-47 -33t-28.5 -74t-8 -128.5q0 -106 16.5 -160t46.5 -71t88 -17q35 0 69 6t37 6q12 0 14 -13z" />
    <glyph glyph-name="cacute" unicode="&#x107;" horiz-adv-x="426" 
d="M239 714h108q12 0 15.5 -7.5t-4.5 -14.5l-99 -106q-9 -9 -18 -9h-52q-11 0 -14.5 6t0.5 13l46 107q5 11 18 11zM370 94l8 -55q4 -26 -20 -35q-33 -13 -116 -13q-108 0 -152 60.5t-44 208.5q0 146 42.5 204.5t144.5 58.5q80 0 125 -20q23 -10 20 -35l-8 -56
q-3 -16 -14 -16q-2 0 -33 8.5t-62 8.5q-51 0 -70 -30.5t-19 -124.5q0 -95 20 -126t74 -31q21 0 54 3.5t36 3.5q11 0 14 -14z" />
    <glyph glyph-name="Cdotaccent" unicode="&#x10a;" horiz-adv-x="524" 
d="M263 900h77q15 0 15 -16v-95q0 -16 -15 -16h-77q-14 0 -14 16v95q0 16 14 16zM468 103l7 -58q3 -26 -20 -36q-36 -18 -133 -18q-142 -2 -199.5 86t-57.5 275q0 192 56.5 275.5t200.5 83.5q87 0 137 -13q21 -6 18 -26l-8 -76q-2 -12 -13 -12q-1 0 -38 5t-66 5
q-45 1 -71.5 -6.5t-47 -33t-28.5 -74t-8 -128.5q0 -106 16.5 -160t46.5 -71t88 -17q35 0 69 6t37 6q12 0 14 -13z" />
    <glyph glyph-name="cdotaccent" unicode="&#x10b;" horiz-adv-x="426" 
d="M190 714h76q15 0 15 -16v-95q0 -16 -15 -16h-76q-15 0 -15 16v95q0 16 15 16zM370 94l8 -55q4 -26 -20 -35q-33 -13 -116 -13q-108 0 -152 60.5t-44 208.5q0 146 42.5 204.5t144.5 58.5q80 0 125 -20q23 -10 20 -35l-8 -56q-3 -16 -14 -16q-2 0 -33 8.5t-62 8.5
q-51 0 -70 -30.5t-19 -124.5q0 -95 20 -126t74 -31q21 0 54 3.5t36 3.5q11 0 14 -14z" />
    <glyph glyph-name="Ccaron" unicode="&#x10c;" horiz-adv-x="524" 
d="M321 845l69 29q18 6 22 -12l10 -46q1 -8 -10 -14l-99 -48q-5 -3 -9 -3q-5 0 -11 3l-98 48q-10 6 -9 14l10 46q4 18 21 12l64 -27q21 -8 23 -8q3 0 17 6zM468 103l7 -58q3 -26 -20 -36q-36 -18 -133 -18q-142 -2 -199.5 86t-57.5 275q0 192 56.5 275.5t200.5 83.5
q87 0 137 -13q21 -6 18 -26l-8 -76q-2 -12 -13 -12q-1 0 -38 5t-66 5q-45 1 -71.5 -6.5t-47 -33t-28.5 -74t-8 -128.5q0 -106 16.5 -160t46.5 -71t88 -17q35 0 69 6t37 6q12 0 14 -13z" />
    <glyph glyph-name="ccaron" unicode="&#x10d;" horiz-adv-x="426" 
d="M248 667l68 29q19 6 22 -11l10 -47q1 -8 -9 -13l-99 -49q-6 -3 -10 -3q-5 0 -11 3l-98 49q-10 5 -9 13l10 47q4 17 22 11l63 -27q4 -1 12.5 -4.5t10.5 -3.5t8 2.5t10 3.5zM370 94l8 -55q4 -26 -20 -35q-33 -13 -116 -13q-108 0 -152 60.5t-44 208.5q0 146 42.5 204.5
t144.5 58.5q80 0 125 -20q23 -10 20 -35l-8 -56q-3 -16 -14 -16q-2 0 -33 8.5t-62 8.5q-51 0 -70 -30.5t-19 -124.5q0 -95 20 -126t74 -31q21 0 54 3.5t36 3.5q11 0 14 -14z" />
    <glyph glyph-name="Dcaron" unicode="&#x10e;" horiz-adv-x="617" 
d="M297 845l69 29q18 6 22 -12l10 -46q1 -8 -10 -14l-99 -48q-5 -3 -9 -3q-5 0 -11 3l-98 48q-10 6 -9 14l10 46q4 18 21 12l64 -27q21 -8 23 -8q3 0 17 6zM160 700h142q133 0 192 -81.5t58 -268.5q0 -186 -58.5 -268t-191.5 -82h-145q-31 0 -52 23t-21 55v549q0 31 23 52
t53 21zM291 585h-67q-4 0 -8.5 -4.5t-4.5 -7.5v-446q0 -3 4.5 -7.5t8.5 -4.5h67q49 0 76 16.5t42.5 68.5t15.5 150t-15.5 150t-42.5 68.5t-76 16.5z" />
    <glyph glyph-name="dcaron" unicode="&#x10f;" horiz-adv-x="604" 
d="M346 700h84q18 0 18 -17v-476q0 -111 -45.5 -163.5t-151.5 -52.5q-115 0 -159 62t-44 201q0 150 41.5 208t134.5 58q27 0 49 -5.5t34 -11t15 -5.5q6 0 6 9v176q0 17 18 17zM527 700h78q17 0 17 -17v-109q0 -33 -14.5 -65t-49.5 -80q-11 -14 -32 -9l-20 6q-15 3 -15 15
q19 91 19 132v110q0 17 17 17zM332 196v141q0 40 -20.5 56.5t-59.5 16.5q-49 0 -68 -30t-19 -126q0 -93 19 -123t68 -30q44 0 62 21.5t18 73.5z" />
    <glyph glyph-name="Dcroat" unicode="&#x110;" horiz-adv-x="634" 
d="M158 870h228q5 0 9.5 -4t4.5 -10v-65q0 -5 -4.5 -9.5t-9.5 -4.5h-228q-12 0 -12 14v65q0 14 12 14zM160 700h142q133 0 192 -81.5t58 -268.5q0 -186 -58.5 -268t-191.5 -82h-145q-31 0 -52 23t-21 55v549q0 31 23 52t53 21zM291 585h-67q-4 0 -8.5 -4.5t-4.5 -7.5v-446
q0 -3 4.5 -7.5t8.5 -4.5h67q49 0 76 16.5t42.5 68.5t15.5 150t-15.5 150t-42.5 68.5t-76 16.5z" />
    <glyph glyph-name="dcroat" unicode="&#x111;" horiz-adv-x="520" 
d="M448 630h52q5 0 9.5 -4.5t4.5 -10.5v-40q0 -5 -4.5 -9.5t-9.5 -4.5h-52v-354q0 -111 -45.5 -163.5t-151.5 -52.5q-115 0 -159 62t-44 201q0 150 41.5 208t134.5 58q27 0 49 -5.5t34 -11t15 -5.5q6 0 6 9v54h-59q-12 0 -12 14v40q0 15 12 15h59v53q0 17 18 17h84
q18 0 18 -17v-53zM332 196v141q0 40 -20.5 56.5t-59.5 16.5q-49 0 -68 -30t-19 -126q0 -93 19 -123t68 -30q44 0 62 21.5t18 73.5z" />
    <glyph glyph-name="Emacron" unicode="&#x112;" horiz-adv-x="515" 
d="M165 870h228q5 0 9.5 -4t4.5 -10v-65q0 -5 -4.5 -9.5t-9.5 -4.5h-228q-12 0 -12 14v65q0 14 12 14zM273 700h167q17 0 17 -17v-82q0 -17 -17 -17h-127q-64 0 -83 -14.5t-19 -68.5v-80q0 -8 8 -8h172q18 0 18 -17v-81q0 -18 -18 -18h-172q-8 0 -8 -8v-90q0 -54 19 -68.5
t83 -14.5h127q17 0 17 -17v-82q0 -17 -17 -17h-143q-121 0 -167 43t-46 144v326q0 99 42.5 143t146.5 44z" />
    <glyph glyph-name="emacron" unicode="&#x113;" horiz-adv-x="489" 
d="M135 692h228q5 0 9.5 -4.5t4.5 -10.5v-64q0 -6 -4.5 -10t-9.5 -4h-228q-12 0 -12 14v64q0 15 12 15zM411 97l12 -42q6 -28 -19 -41q-42 -22 -140 -22q-115 0 -165.5 59t-50.5 207t50 206.5t157 58.5q95 0 141 -52.5t46 -161.5v-38q0 -35 -16 -50.5t-50 -15.5h-201
q-7 0 -7 -6v-5q0 -54 23 -75.5t82 -21.5q36 0 76.5 8.5t42.5 8.5q16 0 19 -17zM176 296h150q8 0 8 9q0 64 -18.5 88.5t-58.5 24.5q-46 0 -67.5 -24.5t-21.5 -88.5q0 -9 8 -9z" />
    <glyph glyph-name="Edotaccent" unicode="&#x116;" horiz-adv-x="515" 
d="M247 900h77q15 0 15 -16v-95q0 -16 -15 -16h-77q-15 0 -15 16v95q0 16 15 16zM273 700h167q17 0 17 -17v-82q0 -17 -17 -17h-127q-64 0 -83 -14.5t-19 -68.5v-80q0 -8 8 -8h172q18 0 18 -17v-81q0 -18 -18 -18h-172q-8 0 -8 -8v-90q0 -54 19 -68.5t83 -14.5h127
q17 0 17 -17v-82q0 -17 -17 -17h-143q-121 0 -167 43t-46 144v326q0 99 42.5 143t146.5 44z" />
    <glyph glyph-name="edotaccent" unicode="&#x117;" horiz-adv-x="489" 
d="M217 714h76q15 0 15 -16v-95q0 -16 -15 -16h-76q-15 0 -15 16v95q0 16 15 16zM411 97l12 -42q6 -28 -19 -41q-42 -22 -140 -22q-115 0 -165.5 59t-50.5 207t50 206.5t157 58.5q95 0 141 -52.5t46 -161.5v-38q0 -35 -16 -50.5t-50 -15.5h-201q-7 0 -7 -6v-5
q0 -54 23 -75.5t82 -21.5q36 0 76.5 8.5t42.5 8.5q16 0 19 -17zM176 296h150q8 0 8 9q0 64 -18.5 88.5t-58.5 24.5q-46 0 -67.5 -24.5t-21.5 -88.5q0 -9 8 -9z" />
    <glyph glyph-name="Eogonek" unicode="&#x118;" horiz-adv-x="515" 
d="M440 584h-127q-64 0 -83 -14.5t-19 -68.5v-80q0 -8 8 -8h172q18 0 18 -17v-81q0 -18 -18 -18h-172q-8 0 -8 -8v-90q0 -54 19 -68.5t83 -14.5h127q17 0 17 -17v-82q0 -17 -17 -17h-42q-46 -26 -46 -88q0 -58 37 -58q7 0 17.5 1.5t13.5 1.5q11 0 11 -13v-24q0 -15 -17 -26
q-27 -16 -71 -16q-51 0 -72.5 24.5t-21.5 76.5q0 75 64 121h-16q-121 0 -167 43t-46 144v326q0 99 42.5 143t146.5 44h167q17 0 17 -17v-82q0 -17 -17 -17z" />
    <glyph glyph-name="eogonek" unicode="&#x119;" horiz-adv-x="489" 
d="M367 -164v-24q0 -15 -17 -26q-27 -16 -71 -16q-51 0 -72.5 24.5t-21.5 76.5q0 76 64 121q-107 3 -154 62.5t-47 203.5q0 148 50 206.5t157 58.5q95 0 141 -52.5t46 -161.5v-38q0 -35 -16 -50.5t-50 -15.5h-201q-7 0 -7 -6v-5q0 -54 23 -75.5t82 -21.5q36 0 76.5 8.5
t42.5 8.5q16 0 19 -17l12 -42q6 -28 -19 -41q-20 -10 -57 -16q-59 -24 -59 -94q0 -58 37 -58q7 0 17.5 1t13.5 1q11 0 11 -12zM176 296h150q8 0 8 9q0 64 -18.5 88.5t-58.5 24.5q-46 0 -67.5 -24.5t-21.5 -88.5q0 -9 8 -9z" />
    <glyph glyph-name="Ecaron" unicode="&#x11a;" horiz-adv-x="515" 
d="M305 845l69 29q18 6 22 -12l10 -46q1 -8 -10 -14l-99 -48q-6 -3 -10 -3q-5 0 -10 3l-98 48q-10 6 -9 14l10 46q2 10 6 12.5t15 -0.5l64 -27q19 -8 22 -8q2 0 18 6zM273 700h167q17 0 17 -17v-82q0 -17 -17 -17h-127q-64 0 -83 -14.5t-19 -68.5v-80q0 -8 8 -8h172
q18 0 18 -17v-81q0 -18 -18 -18h-172q-8 0 -8 -8v-90q0 -54 19 -68.5t83 -14.5h127q17 0 17 -17v-82q0 -17 -17 -17h-143q-121 0 -167 43t-46 144v326q0 99 42.5 143t146.5 44z" />
    <glyph glyph-name="ecaron" unicode="&#x11b;" horiz-adv-x="489" 
d="M275 667l68 29q19 6 22 -11l10 -47q1 -8 -9 -13l-99 -49q-6 -3 -10 -3q-5 0 -11 3l-98 49q-10 5 -9 13l10 47q4 17 22 11l63 -27q4 -1 12.5 -4.5t10.5 -3.5t8 2.5t10 3.5zM411 97l12 -42q6 -28 -19 -41q-42 -22 -140 -22q-115 0 -165.5 59t-50.5 207t50 206.5t157 58.5
q95 0 141 -52.5t46 -161.5v-38q0 -35 -16 -50.5t-50 -15.5h-201q-7 0 -7 -6v-5q0 -54 23 -75.5t82 -21.5q36 0 76.5 8.5t42.5 8.5q16 0 19 -17zM176 296h150q8 0 8 9q0 64 -18.5 88.5t-58.5 24.5q-46 0 -67.5 -24.5t-21.5 -88.5q0 -9 8 -9z" />
    <glyph glyph-name="Gbreve" unicode="&#x11e;" horiz-adv-x="600" 
d="M386 886h40q16 0 16 -13q0 -58 -31 -85.5t-98 -27.5t-98 27.5t-31 85.5q0 13 16 13h40q13 0 14 -14q4 -37 59 -37q30 0 43 8.5t16 28.5q1 14 14 14zM542 349v-144q0 -104 -54.5 -157.5t-172.5 -53.5q-138 0 -194 84t-56 274q0 142 28 219.5t83.5 106t155.5 28.5
q113 0 154 -13q21 -6 18 -29l-10 -68q-2 -13 -14 -13q-5 0 -50 4t-81 4q-64 0 -94 -16.5t-44 -67t-14 -155.5q0 -77 8 -125t25.5 -71.5t38 -31t53.5 -7.5q47 0 70 20.5t23 69.5v89q0 8 -9 8h-98q-17 0 -17 18v81q0 17 17 17h163q71 0 71 -71z" />
    <glyph glyph-name="gbreve" unicode="&#x11f;" horiz-adv-x="530" 
d="M341 704h40q16 0 16 -14q0 -58 -31 -85.5t-98 -27.5t-98 27.5t-31 85.5q0 14 16 14h40q13 0 14 -14q2 -20 15.5 -29t43.5 -9t43 9t16 29q1 14 14 14zM342 53h-4q-44 -38 -107 -38q-95 0 -139 57t-44 199q0 130 41.5 191t144.5 61q90 0 125 -53q3 -4 4.5 -5.5t3 -1.5
t2.5 1.5t2 5.5l9 23q9 21 33 21h32q17 0 17 -17v-484q0 -109 -53 -163t-168 -54q-88 0 -128 17q-17 6 -14 28l7 51q2 19 18 19q5 0 41.5 -4.5t63.5 -4.5q67 0 90 27t23 94v30zM342 213v124q0 36 -21 55.5t-61 19.5q-51 0 -71.5 -29t-20.5 -112q0 -82 20.5 -114t64.5 -32
q50 0 72 27q17 20 17 61z" />
    <glyph glyph-name="Gdotaccent" unicode="&#x120;" horiz-adv-x="600" 
d="M272 900h76q15 0 15 -16v-95q0 -16 -15 -16h-76q-15 0 -15 16v95q0 16 15 16zM542 349v-144q0 -104 -54.5 -157.5t-172.5 -53.5q-138 0 -194 84t-56 274q0 142 28 219.5t83.5 106t155.5 28.5q113 0 154 -13q21 -6 18 -29l-10 -68q-2 -13 -14 -13q-5 0 -50 4t-81 4
q-64 0 -94 -16.5t-44 -67t-14 -155.5q0 -77 8 -125t25.5 -71.5t38 -31t53.5 -7.5q47 0 70 20.5t23 69.5v89q0 8 -9 8h-98q-17 0 -17 18v81q0 17 17 17h163q71 0 71 -71z" />
    <glyph glyph-name="gdotaccent" unicode="&#x121;" horiz-adv-x="530" 
d="M226 714h77q15 0 15 -16v-95q0 -16 -15 -16h-77q-14 0 -14 16v95q0 16 14 16zM342 53h-4q-44 -38 -107 -38q-95 0 -139 57t-44 199q0 130 41.5 191t144.5 61q90 0 125 -53q3 -4 4.5 -5.5t3 -1.5t2.5 1.5t2 5.5l9 23q9 21 33 21h32q17 0 17 -17v-484q0 -109 -53 -163
t-168 -54q-88 0 -128 17q-17 6 -14 28l7 51q2 19 18 19q5 0 41.5 -4.5t63.5 -4.5q67 0 90 27t23 94v30zM342 213v124q0 36 -21 55.5t-61 19.5q-51 0 -71.5 -29t-20.5 -112q0 -82 20.5 -114t64.5 -32q50 0 72 27q17 20 17 61z" />
    <glyph glyph-name="Gcommaaccent" unicode="&#x122;" horiz-adv-x="600" 
d="M542 349v-144q0 -104 -54.5 -157.5t-172.5 -53.5q-138 0 -194 84t-56 274q0 142 28 219.5t83.5 106t155.5 28.5q113 0 154 -13q21 -6 18 -29l-10 -68q-2 -13 -14 -13q-5 0 -50 4t-81 4q-64 0 -94 -16.5t-44 -67t-14 -155.5q0 -77 8 -125t25.5 -71.5t38 -31t53.5 -7.5
q47 0 70 20.5t23 69.5v89q0 8 -9 8h-98q-17 0 -17 18v81q0 17 17 17h163q71 0 71 -71zM284 -32h78q17 0 17 -17v-31q0 -38 -14 -66.5t-49 -72.5q-12 -15 -32 -9l-20 4q-15 5 -14 15q17 102 17 127v33q0 17 17 17z" />
    <glyph glyph-name="gcommaaccent" unicode="&#x123;" horiz-adv-x="530" 
d="M294 564h-77q-18 0 -18 17v31q0 38 14 66t50 74q13 15 32 9l20 -5q15 -3 14 -15q-17 -96 -17 -127v-33q0 -17 -18 -17zM342 53h-4q-44 -38 -107 -38q-95 0 -139 57t-44 199q0 130 41.5 191t144.5 61q90 0 125 -53q3 -4 4.5 -5.5t3 -1.5t2.5 1.5t2 5.5l9 23q9 21 33 21h32
q17 0 17 -17v-484q0 -109 -53 -163t-168 -54q-88 0 -128 17q-17 6 -14 28l7 51q2 19 18 19q5 0 41.5 -4.5t63.5 -4.5q67 0 90 27t23 94v30zM342 213v124q0 36 -21 55.5t-61 19.5q-51 0 -71.5 -29t-20.5 -112q0 -82 20.5 -114t64.5 -32q50 0 72 27q17 20 17 61z" />
    <glyph glyph-name="Hbar" unicode="&#x126;" horiz-adv-x="628" 
d="M544 579h37q5 0 9.5 -4.5t4.5 -10.5v-49q0 -5 -4.5 -9.5t-9.5 -4.5h-37v-489q0 -12 -12 -12h-103q-13 0 -13 12v263q0 7 -9 7h-188q-7 0 -7 -7v-263q0 -12 -12 -12h-103q-13 0 -13 12v489h-38q-13 0 -13 14v49q0 15 13 15h38v106q0 15 13 15h102q5 0 9 -4.5t4 -10.5v-106
h204v106q0 15 13 15h101q5 0 9.5 -4.5t4.5 -10.5v-106zM416 501h-204v-88q0 -7 7 -7h188q9 0 9 7v88z" />
    <glyph glyph-name="hbar" unicode="&#x127;" horiz-adv-x="535" 
d="M186 561v-80q0 -3 2 -3t4 3q38 42 117 42q91 0 124.5 -45.5t33.5 -137.5v-327q0 -13 -13 -13h-95q-13 0 -13 13v313q0 48 -16 67.5t-59 19.5q-45 0 -64 -20.5t-19 -66.5v-313q0 -13 -13 -13h-94q-13 0 -13 13v548h-52q-12 0 -12 14v40q0 15 12 15h52v56q0 14 15 14h88
q16 0 16 -14v-56h60q5 0 9.5 -4.5t4.5 -10.5v-40q0 -5 -4.5 -9.5t-9.5 -4.5h-61z" />
    <glyph glyph-name="Imacron" unicode="&#x12a;" horiz-adv-x="297" 
d="M24 870h228q5 0 9.5 -4t4.5 -10v-65q0 -5 -4.5 -9.5t-9.5 -4.5h-228q-12 0 -12 14v65q0 14 12 14zM101 700h95q18 0 18 -17v-666q0 -17 -18 -17h-95q-17 0 -17 17v666q0 17 17 17z" />
    <glyph glyph-name="imacron" unicode="&#x12b;" horiz-adv-x="258" 
d="M6 692h228q5 0 9.5 -4.5t4.5 -10.5v-64q0 -6 -4.5 -10t-9.5 -4h-228q-13 0 -13 14v64q0 15 13 15zM85 514h88q17 0 17 -17v-480q0 -17 -17 -17h-90q-15 0 -15 17v480q0 17 17 17z" />
    <glyph glyph-name="Iogonek" unicode="&#x12e;" horiz-adv-x="297" 
d="M214 683v-666q0 -17 -18 -17q-63 -24 -63 -96q0 -58 37 -58q7 0 17.5 1t13.5 1q11 0 11 -12v-24q0 -16 -16 -26q-29 -16 -71 -16q-51 0 -73 24.5t-22 76.5q0 81 76 129h-5q-17 0 -17 17v666q0 17 17 17h95q18 0 18 -17z" />
    <glyph glyph-name="iogonek" unicode="&#x12f;" horiz-adv-x="265" 
d="M85 700h95q17 0 17 -17v-91q0 -18 -17 -18h-95q-17 0 -17 18v91q0 17 17 17zM180 0q-63 -24 -63 -96q0 -58 37 -58q7 0 17 1t13 1q11 0 11 -12v-24q0 -16 -16 -26q-29 -16 -71 -16q-51 0 -72.5 24.5t-21.5 76.5q0 81 75 129h-3q-15 0 -15 17v480q0 17 17 17h88
q17 0 17 -17v-480q0 -16 -13 -17z" />
    <glyph glyph-name="Idotaccent" unicode="&#x130;" horiz-adv-x="297" 
d="M106 900h77q14 0 14 -16v-95q0 -16 -14 -16h-77q-15 0 -15 16v95q0 16 15 16zM101 700h95q18 0 18 -17v-666q0 -17 -18 -17h-95q-17 0 -17 17v666q0 17 17 17z" />
    <glyph glyph-name="dotlessi" unicode="&#x131;" horiz-adv-x="258" 
d="M85 514h88q17 0 17 -17v-480q0 -17 -17 -17h-90q-15 0 -15 17v480q0 17 17 17z" />
    <glyph glyph-name="IJ" unicode="&#x132;" horiz-adv-x="741" 
d="M549 700h91q18 0 18 -17v-506q0 -87 -39 -135t-141 -48q-77 0 -114 14q-25 8 -23 33l9 69q0 14 13 14q1 0 33 -5t66 -5q39 0 54.5 16.5t15.5 62.5v490q0 17 17 17zM101 700h95q18 0 18 -17v-666q0 -17 -18 -17h-95q-17 0 -17 17v666q0 17 17 17z" />
    <glyph glyph-name="ij" unicode="&#x133;" horiz-adv-x="534" 
d="M85 700h95q17 0 17 -17v-91q0 -18 -17 -18h-95q-17 0 -17 18v91q0 17 17 17zM361 700h88q18 0 18 -17v-89q0 -18 -18 -18h-88q-18 0 -18 18v89q0 17 18 17zM88 514h88q17 0 17 -17v-480q0 -17 -17 -17h-90q-15 0 -15 17v480q0 17 17 17zM361 512h91q15 0 15 -14v-541
q0 -85 -37.5 -123t-119.5 -38q-63 0 -92 10q-20 8 -16 32l7 57q3 15 14 15q5 0 22 -2.5t35 -2.5q36 0 51.5 15.5t15.5 53.5v524q0 14 14 14z" />
    <glyph glyph-name="Kcommaaccent" unicode="&#x136;" horiz-adv-x="582" 
d="M432 700h104q23 0 10 -19l-190 -305v-7l197 -344q9 -15 7 -20t-15 -5h-102q-23 0 -31 13l-161 280q-7 12 -15 12h-18q-9 0 -9 -10v-278q0 -17 -17 -17h-91q-17 0 -17 17v666q0 17 17 17h91q17 0 17 -17v-251q0 -9 9 -9h16q10 0 14 8l156 253q11 16 28 16zM263 -32h78
q17 0 17 -17v-31q0 -38 -14 -66.5t-49 -72.5q-13 -15 -32 -9l-20 4q-15 4 -15 15q18 81 18 127v33q0 17 17 17z" />
    <glyph glyph-name="kcommaaccent" unicode="&#x137;" horiz-adv-x="507" 
d="M85 700h86q17 0 17 -17v-349q0 -8 8 -8h36q7 0 10 7l72 167q6 14 26 14h91q30 0 17 -24l-94 -177q-3 -6 3 -11q47 -27 72 -104l61 -179q4 -8 -0.5 -13.5t-13.5 -5.5h-86q-13 0 -17.5 4.5t-10.5 19.5l-49 140q-19 51 -67 51h-50q-8 0 -8 -9v-189q0 -17 -17 -17h-86
q-17 0 -17 17v666q0 17 17 17zM228 -32h78q17 0 17 -17v-31q0 -38 -14 -66.5t-49 -72.5q-12 -15 -32 -9l-20 4q-15 5 -15 15q18 81 18 127v33q0 17 17 17z" />
    <glyph glyph-name="Lacute" unicode="&#x139;" horiz-adv-x="498" 
d="M246 885l44 -20q22 -11 5 -28l-92 -83q-15 -13 -45 -13h-43q-21 0 -11 15l88 119q19 26 54 10zM101 700h93q17 0 17 -17v-484q0 -51 16.5 -67t69.5 -16h148q17 0 17 -17v-82q0 -17 -17 -17h-166q-109 0 -152 44t-43 135v504q0 17 17 17z" />
    <glyph glyph-name="lacute" unicode="&#x13a;" horiz-adv-x="273" 
d="M165 886h108q12 0 15.5 -7t-4.5 -14l-99 -107q-10 -8 -18 -8h-52q-23 0 -14 19l46 107q4 10 18 10zM94 700h85q17 0 17 -17v-666q0 -17 -17 -17h-85q-17 0 -17 17v666q0 17 17 17z" />
    <glyph glyph-name="Lcommaaccent" unicode="&#x13b;" horiz-adv-x="498" 
d="M101 700h93q17 0 17 -17v-484q0 -51 16.5 -67t69.5 -16h148q17 0 17 -17v-82q0 -17 -17 -17h-166q-109 0 -152 44t-43 135v504q0 17 17 17zM238 -32h78q17 0 17 -17v-31q0 -38 -14 -66.5t-50 -72.5q-12 -15 -31 -9l-20 4q-15 4 -15 15q18 108 18 127v33q0 17 17 17z" />
    <glyph glyph-name="lcommaaccent" unicode="&#x13c;" horiz-adv-x="271" 
d="M93 700h85q17 0 17 -17v-666q0 -17 -17 -17h-85q-17 0 -17 17v666q0 17 17 17zM96 -32h78q17 0 17 -17v-31q0 -38 -14 -66.5t-49 -72.5q-13 -15 -32 -9l-20 4q-15 5 -15 15q18 81 18 127v33q0 17 17 17z" />
    <glyph glyph-name="Lcaron" unicode="&#x13d;" horiz-adv-x="498" 
d="M356 700h78q17 0 17 -17v-109q0 -33 -15 -64.5t-50 -80.5q-11 -14 -32 -9l-19 6q-16 3 -15 15q19 114 19 132v110q0 17 17 17zM101 700h93q17 0 17 -17v-484q0 -51 16.5 -67t69.5 -16h148q17 0 17 -17v-82q0 -17 -17 -17h-166q-109 0 -152 44t-43 135v504q0 17 17 17z
" />
    <glyph glyph-name="lcaron" unicode="&#x13e;" horiz-adv-x="373" 
d="M291 700h78q17 0 17 -17v-109q0 -33 -14.5 -65t-49.5 -80q-11 -14 -32 -9l-20 6q-15 3 -15 15q19 91 19 132v110q0 17 17 17zM93 700h85q17 0 17 -17v-666q0 -17 -17 -17h-85q-17 0 -17 17v666q0 17 17 17z" />
    <glyph glyph-name="Ldot" unicode="&#x13f;" horiz-adv-x="498" 
d="M101 700h93q17 0 17 -17v-484q0 -51 16.5 -67t69.5 -16h148q17 0 17 -17v-82q0 -17 -17 -17h-166q-109 0 -152 44t-43 135v504q0 17 17 17zM316 475h96q17 0 17 -18v-117q0 -17 -17 -17h-96q-17 0 -17 17v117q0 18 17 18z" />
    <glyph glyph-name="ldot" unicode="&#x140;" horiz-adv-x="394" 
d="M93 700h85q17 0 17 -17v-666q0 -17 -17 -17h-85q-17 0 -17 17v666q0 17 17 17zM269 413h95q17 0 17 -17v-118q0 -17 -17 -17h-95q-17 0 -17 17v118q0 17 17 17z" />
    <glyph glyph-name="Lslash" unicode="&#x141;" horiz-adv-x="545" 
d="M122 700h96q15 0 15 -15v-214q0 -11 12 -10l93 12q14 1 14 -9v-73q0 -16 -14 -17l-95 -12q-10 -1 -10 -12v-148q0 -46 23.5 -66t80.5 -20h142q13 0 13 -12v-89q0 -15 -13 -15h-185q-100 0 -144 43.5t-44 142.5v143q0 12 -12 11l-69 -9q-12 -1 -12 11v73q0 14 12 15l71 9
q10 1 10 12v234q0 15 16 15z" />
    <glyph glyph-name="lslash" unicode="&#x142;" horiz-adv-x="303" 
d="M103 717h95q13 0 13 -13v-247q0 -7 2.5 -9t8.5 -1l72 11q14 3 14 -9v-69q0 -14 -16 -17l-71 -12q-10 0 -10 -11v-328q0 -12 -12 -12h-96q-11 0 -11 12v308q0 11 -11 9l-74 -9q-13 -1 -13 9v70q0 13 11 15l78 11q9 1 9 11v268q0 13 11 13z" />
    <glyph glyph-name="Nacute" unicode="&#x143;" horiz-adv-x="619" 
d="M408 885l44 -20q22 -11 5 -28l-93 -83q-14 -13 -45 -13h-42q-10 0 -13 4t2 11l88 119q11 14 22 16.5t32 -6.5zM422 700h102q13 0 13 -12v-642q0 -46 -46 -46h-40q-13 0 -18 9l-214 401q-2 3 -4.5 4t-4 -1t-1.5 -5v-396q0 -12 -12 -12h-103q-12 0 -12 12v642q0 46 46 46
h46q15 0 23 -12l203 -385q2 -5 6 -4t4 7v382q0 12 12 12z" />
    <glyph glyph-name="nacute" unicode="&#x144;" horiz-adv-x="535" 
d="M274 712h108q13 0 16 -7t-5 -15l-99 -106q-8 -8 -18 -8h-51q-23 0 -15 18l47 108q3 10 17 10zM68 14v321q0 47 7.5 78.5t28.5 58t61.5 39t102.5 12.5t102.5 -12.5t61 -39t28 -58t7.5 -78.5v-321q0 -14 -15 -14h-90q-15 0 -15 14v313q0 52 -17.5 69t-61.5 17t-62 -17
t-18 -69v-313q0 -14 -14 -14h-92q-14 0 -14 14z" />
    <glyph glyph-name="Ncommaaccent" unicode="&#x145;" horiz-adv-x="619" 
d="M422 700h102q13 0 13 -12v-642q0 -46 -46 -46h-40q-13 0 -18 9l-214 401q-2 3 -4.5 4t-4 -1t-1.5 -5v-396q0 -12 -12 -12h-103q-12 0 -12 12v642q0 46 46 46h46q15 0 23 -12l203 -385q2 -5 6 -4t4 7v382q0 12 12 12zM277 -32h78q17 0 17 -17v-31q0 -38 -14 -66.5
t-50 -72.5q-12 -15 -31 -9l-20 4q-15 4 -15 15q18 108 18 127v33q0 17 17 17z" />
    <glyph glyph-name="ncommaaccent" unicode="&#x146;" horiz-adv-x="535" 
d="M68 14v321q0 47 7.5 78.5t28.5 58t61.5 39t102.5 12.5t102.5 -12.5t61 -39t28 -58t7.5 -78.5v-321q0 -14 -15 -14h-90q-15 0 -15 14v313q0 52 -17.5 69t-61.5 17t-62 -17t-18 -69v-313q0 -14 -14 -14h-92q-14 0 -14 14zM229 -32h78q17 0 17 -17v-31q0 -38 -14 -66.5
t-49 -72.5q-12 -15 -32 -9l-20 4q-15 5 -15 15q18 81 18 127v33q0 17 17 17z" />
    <glyph glyph-name="Ncaron" unicode="&#x147;" horiz-adv-x="619" 
d="M329 845l68 29q19 6 22 -12l10 -46q1 -7 -9 -14l-99 -48q-6 -3 -10 -3q-5 0 -11 3l-98 48q-10 7 -9 14l10 46q4 18 22 12l63 -27q21 -8 23 -8t18 6zM422 700h102q13 0 13 -12v-642q0 -46 -46 -46h-40q-13 0 -18 9l-214 401q-2 3 -4.5 4t-4 -1t-1.5 -5v-396q0 -12 -12 -12
h-103q-12 0 -12 12v642q0 46 46 46h46q15 0 23 -12l203 -385q2 -5 6 -4t4 7v382q0 12 12 12z" />
    <glyph glyph-name="ncaron" unicode="&#x148;" horiz-adv-x="535" 
d="M283 666l69 29q18 6 22 -12l10 -46q1 -8 -10 -14l-99 -49q-6 -2 -9 -2t-11 2l-98 49q-10 6 -9 14l10 46q2 10 6 12.5t15 -0.5l64 -27q21 -8 23 -8q3 0 17 6zM68 14v321q0 47 7.5 78.5t28.5 58t61.5 39t102.5 12.5t102.5 -12.5t61 -39t28 -58t7.5 -78.5v-321
q0 -14 -15 -14h-90q-15 0 -15 14v313q0 52 -17.5 69t-61.5 17t-62 -17t-18 -69v-313q0 -14 -14 -14h-92q-14 0 -14 14z" />
    <glyph glyph-name="Eng" unicode="&#x14a;" horiz-adv-x="619" 
d="M422 700h102q13 0 13 -12v-727q0 -87 -39 -135t-141 -48q-77 0 -114 14q-26 8 -22 33l8 69q2 14 13 14q1 0 32.5 -5t66.5 -5q39 0 54.5 16.5t15.5 62.5v73l-192 360q-2 3 -4.5 4t-4 -1t-1.5 -5v-396q0 -12 -12 -12h-103q-12 0 -12 12v642q0 46 46 46h46q15 0 23 -12
l203 -385q2 -5 6 -4t4 7v382q0 12 12 12z" />
    <glyph glyph-name="eng" unicode="&#x14b;" horiz-adv-x="535" 
d="M68 14v321q0 47 7.5 78.5t28.5 58t61.5 39t102.5 12.5t102.5 -12.5t61 -39t28 -58t7.5 -78.5v-378q0 -85 -37 -123t-120 -38q-62 0 -91 10q-20 8 -17 32l8 57q2 15 14 15q4 0 21.5 -2.5t35.5 -2.5q36 0 51 15.5t15 53.5v353q0 52 -17.5 69t-61.5 17t-62 -17t-18 -69v-313
q0 -14 -14 -14h-92q-14 0 -14 14z" />
    <glyph glyph-name="Omacron" unicode="&#x14c;" 
d="M188 870h228q5 0 9.5 -4t4.5 -10v-65q0 -5 -4.5 -9.5t-9.5 -4.5h-228q-12 0 -12 14v65q0 14 12 14zM311 709q63 0 107 -14.5t71 -40.5t42 -72t20.5 -98.5t5.5 -131.5t-5 -132t-20.5 -100t-42.5 -73t-71 -41t-107 -15q-79 0 -128 21t-74.5 69.5t-34.5 110t-9 160.5
q0 79 5.5 131.5t20.5 98.5t42 72t71 40.5t107 14.5zM311 589q-48 0 -71 -17t-33.5 -67t-10.5 -154q0 -105 10.5 -155.5t33.5 -67.5t71 -17q47 0 70 17t34 68t11 155q0 103 -11 154t-34 67.5t-70 16.5z" />
    <glyph glyph-name="omacron" unicode="&#x14d;" horiz-adv-x="506" 
d="M140 690h228q5 0 9.5 -4.5t4.5 -10.5v-64q0 -5 -4.5 -9.5t-9.5 -4.5h-228q-12 0 -12 14v64q0 15 12 15zM254 523q115 0 159.5 -58t44.5 -206q0 -150 -44.5 -209t-159.5 -59q-116 0 -161 59t-45 209q0 148 45 206t161 58zM254 413q-49 0 -66.5 -30.5t-17.5 -123.5
q0 -95 17 -126.5t67 -31.5q49 0 65.5 31.5t16.5 126.5q0 93 -16.5 123.5t-65.5 30.5z" />
    <glyph glyph-name="Ohungarumlaut" unicode="&#x150;" 
d="M234 889h99q18 0 11 -13l-53 -101q-7 -13 -21 -13h-49q-18 0 -17 17l11 97q3 13 19 13zM413 889h106q19 0 7 -16l-94 -103q-10 -8 -18 -8h-58q-23 0 -14 19l52 98q4 10 19 10zM311 709q63 0 107 -14.5t71 -40.5t42 -72t20.5 -98.5t5.5 -131.5t-5 -132t-20.5 -100
t-42.5 -73t-71 -41t-107 -15q-79 0 -128 21t-74.5 69.5t-34.5 110t-9 160.5q0 79 5.5 131.5t20.5 98.5t42 72t71 40.5t107 14.5zM311 589q-48 0 -71 -17t-33.5 -67t-10.5 -154q0 -105 10.5 -155.5t33.5 -67.5t71 -17q47 0 70 17t34 68t11 155q0 103 -11 154t-34 67.5
t-70 16.5z" />
    <glyph glyph-name="ohungarumlaut" unicode="&#x151;" horiz-adv-x="506" 
d="M173 712h99q10 0 12.5 -3t-1.5 -10l-53 -112q-6 -13 -20 -13h-50q-18 0 -17 18l12 108q1 12 18 12zM352 712h106q20 0 7 -15l-94 -115q-8 -8 -18 -8h-58q-23 0 -14 19l52 109q4 10 19 10zM254 523q115 0 159.5 -58t44.5 -206q0 -150 -44.5 -209t-159.5 -59
q-116 0 -161 59t-45 209q0 148 45 206t161 58zM254 413q-49 0 -66.5 -30.5t-17.5 -123.5q0 -95 17 -126.5t67 -31.5q49 0 65.5 31.5t16.5 126.5q0 93 -16.5 123.5t-65.5 30.5z" />
    <glyph glyph-name="OE" unicode="&#x152;" horiz-adv-x="805" 
d="M734 0h-192q-71 0 -103 68q-48 -77 -151 -77q-127 0 -173 78.5t-46 280.5q0 204 46 281.5t175 77.5q58 0 97.5 -23.5t54.5 -55.5q22 70 116 70h176q13 0 13 -13v-91q0 -12 -13 -12h-114q-64 0 -83 -14.5t-19 -68.5v-75q0 -8 8 -8h161q13 0 13 -12v-90q0 -14 -13 -14h-161
q-8 0 -8 -8v-95q0 -54 19 -68.5t83 -14.5h114q13 0 13 -12v-91q0 -13 -13 -13zM383 300v120q0 102 -21.5 139.5t-65.5 37.5q-38 0 -57 -16.5t-29 -70t-10 -161.5q0 -106 10.5 -159.5t29.5 -69.5t57 -16q48 0 67 44.5t19 151.5z" />
    <glyph glyph-name="oe" unicode="&#x153;" horiz-adv-x="788" 
d="M711 89l9 -36q6 -27 -17 -40q-45 -21 -136 -21q-63 0 -99 17t-57 55q-6 10 -11 0q-38 -73 -157 -73q-109 0 -152 59.5t-43 209.5q0 148 43.5 205.5t153.5 57.5q119 0 155 -74q6 -8 11 0q22 40 56.5 57t93.5 17q181 0 181 -215v-36q0 -35 -18 -51.5t-60 -16.5h-184
q-12 0 -10 -10q3 -58 26 -78t84 -20q34 0 69.5 7.5t38.5 7.5q18 0 23 -22zM485 289h134q15 0 15 14q-1 63 -20 89t-60 26q-44 0 -63 -25t-21 -78v-11q0 -15 15 -15zM253 413q-49 0 -66 -30.5t-17 -122.5q0 -94 17 -126.5t64 -32.5q55 0 73.5 31t18.5 127q0 93 -18.5 123.5
t-71.5 30.5z" />
    <glyph glyph-name="Racute" unicode="&#x154;" horiz-adv-x="594" 
d="M400 885l44 -20q22 -11 5 -28l-93 -83q-15 -13 -45 -13h-43q-21 0 -11 15l89 119q18 26 54 10zM84 13v502q0 98 46.5 146t169.5 48q117 0 171.5 -50t54.5 -170q0 -83 -24.5 -125t-74.5 -71q-9 -4 -4 -14l146 -266q3 -5 0.5 -9t-6.5 -4h-105q-18 0 -25 14l-133 234
q-4 9 -16 9h-60q-13 0 -13 -13v-231q0 -13 -13 -13h-101q-13 0 -13 13zM224 372h68q59 0 83 26.5t24 84.5q0 63 -23.5 87t-75.5 24q-49 0 -69 -20t-20 -71v-118q0 -13 13 -13z" />
    <glyph glyph-name="racute" unicode="&#x155;" horiz-adv-x="370" 
d="M203 712h108q13 0 16.5 -7t-4.5 -15l-99 -106q-9 -8 -19 -8h-51q-11 0 -14.5 5.5t0.5 12.5l46 108q3 10 17 10zM68 14v356q0 86 31.5 119.5t104.5 33.5q66 0 107 -13q17 -5 21.5 -13t0.5 -27l-8 -44q-2 -18 -17 -18q-5 0 -29 3t-40 3q-30 0 -40.5 -12t-10.5 -45v-343
q0 -14 -15 -14h-90q-15 0 -15 14z" />
    <glyph glyph-name="Rcommaaccent" unicode="&#x156;" horiz-adv-x="594" 
d="M84 13v502q0 98 46.5 146t169.5 48q117 0 171.5 -50t54.5 -170q0 -83 -24.5 -125t-74.5 -71q-9 -4 -4 -14l146 -266q3 -5 0.5 -9t-6.5 -4h-105q-18 0 -25 14l-133 234q-4 9 -16 9h-60q-13 0 -13 -13v-231q0 -13 -13 -13h-101q-13 0 -13 13zM224 372h68q59 0 83 26.5
t24 84.5q0 63 -23.5 87t-75.5 24q-49 0 -69 -20t-20 -71v-118q0 -13 13 -13zM275 -32h78q17 0 17 -17v-31q0 -38 -14 -66.5t-50 -72.5q-12 -15 -31 -9l-20 4q-15 4 -15 15q18 108 18 127v33q0 17 17 17z" />
    <glyph glyph-name="rcommaaccent" unicode="&#x157;" horiz-adv-x="370" 
d="M68 14v356q0 86 31.5 119.5t104.5 33.5q66 0 107 -13q17 -5 21.5 -13t0.5 -27l-8 -44q-2 -18 -17 -18q-5 0 -29 3t-40 3q-30 0 -40.5 -12t-10.5 -45v-343q0 -14 -15 -14h-90q-15 0 -15 14zM89 -32h78q17 0 17 -17v-31q0 -38 -14 -66.5t-50 -72.5q-12 -15 -31 -9l-20 4
q-15 4 -15 15q18 108 18 127v33q0 17 17 17z" />
    <glyph glyph-name="Rcaron" unicode="&#x158;" horiz-adv-x="594" 
d="M320 845l69 29q18 6 22 -12l10 -46q1 -8 -10 -14l-99 -48q-6 -3 -10 -3q-6 0 -10 3l-98 48q-10 6 -9 14l10 46q2 10 6 12.5t15 -0.5l64 -27q19 -8 22 -8q4 0 18 6zM84 13v502q0 98 46.5 146t169.5 48q117 0 171.5 -50t54.5 -170q0 -83 -24.5 -125t-74.5 -71q-9 -4 -4 -14
l146 -266q3 -5 0.5 -9t-6.5 -4h-105q-18 0 -25 14l-133 234q-4 9 -16 9h-60q-13 0 -13 -13v-231q0 -13 -13 -13h-101q-13 0 -13 13zM224 372h68q59 0 83 26.5t24 84.5q0 63 -23.5 87t-75.5 24q-49 0 -69 -20t-20 -71v-118q0 -13 13 -13z" />
    <glyph glyph-name="rcaron" unicode="&#x159;" horiz-adv-x="370" 
d="M212 666l69 29q18 6 22 -12l10 -46q1 -8 -10 -14l-99 -49q-6 -2 -9 -2t-11 2l-98 49q-10 6 -9 14l10 46q4 18 21 12l64 -27q21 -8 23 -8q3 0 17 6zM68 14v356q0 86 31.5 119.5t104.5 33.5q66 0 107 -13q17 -5 21.5 -13t0.5 -27l-8 -44q-2 -18 -17 -18q-5 0 -29 3t-40 3
q-30 0 -40.5 -12t-10.5 -45v-343q0 -14 -15 -14h-90q-15 0 -15 14z" />
    <glyph glyph-name="Sacute" unicode="&#x15a;" horiz-adv-x="541" 
d="M368 885l44 -20q22 -11 5 -28l-93 -83q-15 -13 -45 -13h-43q-9 0 -12 4t2 11l88 119q11 14 22 16.5t32 -6.5zM79 47l8 66q2 13 15 13l48 -8q49 -7 88 -7q65 0 88.5 21t23.5 66q0 22 -8.5 39t-30 33t-38.5 25t-54 28q-85 42 -120 87t-35 122q0 98 48.5 137.5t161.5 39.5
q122 0 163 -10q19 -5 18 -24l-9 -83q0 -12 -14 -12q-3 0 -28.5 2t-60 4.5t-59.5 2.5q-51 0 -70 -14.5t-19 -50.5q0 -12 2 -21t9.5 -18.5t12.5 -15t20 -14.5t23 -14t30 -16.5t33 -17.5q92 -50 124 -90.5t32 -120.5q0 -108 -51 -156.5t-177 -48.5q-36 0 -85 5.5t-68 12.5
q-25 8 -21 38z" />
    <glyph glyph-name="sacute" unicode="&#x15b;" horiz-adv-x="433" 
d="M226 712h108q12 0 15.5 -7t-4.5 -15l-99 -106q-8 -8 -18 -8h-52q-11 0 -14.5 5.5t0.5 12.5l46 108q4 10 18 10zM207 209l-66 32q-49 23 -72.5 53.5t-23.5 91.5q0 75 44 106t137 31q96 0 134 -14q17 -7 14 -27l-8 -50q-3 -18 -18 -18q-5 0 -45.5 4t-66.5 4q-72 0 -72 -42
q0 -22 15 -34t49 -27q7 -3 10 -4l52 -24q54 -25 76 -54t22 -88q0 -81 -46 -119.5t-150 -38.5q-74 0 -122 11q-22 6 -19 29l7 59q2 13 13 13q2 0 40.5 -4.5t73.5 -4.5q47 0 66 13t19 39q0 22 -12.5 33.5t-50.5 29.5z" />
    <glyph glyph-name="Scedilla" unicode="&#x15e;" horiz-adv-x="541" 
d="M455 675l-9 -83q0 -12 -14 -12q-3 0 -28.5 2t-60 4.5t-59.5 2.5q-51 0 -70 -14.5t-19 -50.5q0 -12 2 -21t9.5 -18.5t12.5 -15t20 -14.5t23 -14t30 -16.5t33 -17.5q92 -50 124 -90.5t32 -120.5q0 -88 -33.5 -136t-112.5 -63l-49 -125q-9 -23 -31 -23h-54q-20 0 -14 18
l38 124q-86 6 -125 18q-25 8 -21 38l8 66q2 13 15 13l48 -8q49 -7 88 -7q65 0 88.5 21t23.5 66q0 22 -8.5 39t-30 33t-38.5 25t-54 28q-85 42 -120 87t-35 122q0 98 48.5 137.5t161.5 39.5q122 0 163 -10q19 -5 18 -24z" />
    <glyph glyph-name="scedilla" unicode="&#x15f;" horiz-adv-x="433" 
d="M238 315l52 -24q54 -25 76 -54t22 -88q0 -122 -108 -149l-50 -128q-9 -23 -31 -23h-53q-21 0 -15 18l38 124q-65 3 -99 11q-22 6 -19 29l7 59q2 13 13 13q2 0 40.5 -4.5t73.5 -4.5q47 0 66 13t19 39q0 22 -12.5 33.5t-50.5 29.5l-66 32q-49 23 -72.5 53.5t-23.5 91.5
q0 75 44 106t137 31q96 0 134 -14q17 -7 14 -27l-8 -50q-3 -18 -18 -18q-5 0 -45.5 4t-66.5 4q-72 0 -72 -42q0 -22 15 -34t49 -27q7 -3 10 -4z" />
    <glyph glyph-name="Scaron" unicode="&#x160;" horiz-adv-x="541" 
d="M288 845l69 29q18 6 22 -12l10 -46q1 -8 -10 -14l-99 -48q-5 -3 -9 -3q-5 0 -11 3l-98 48q-10 6 -9 14l10 46q2 10 6 12.5t15 -0.5l64 -27q21 -8 23 -8q3 0 17 6zM79 47l8 66q2 13 15 13l48 -8q49 -7 88 -7q65 0 88.5 21t23.5 66q0 22 -8.5 39t-30 33t-38.5 25t-54 28
q-85 42 -120 87t-35 122q0 98 48.5 137.5t161.5 39.5q122 0 163 -10q19 -5 18 -24l-9 -83q0 -12 -14 -12q-3 0 -28.5 2t-60 4.5t-59.5 2.5q-51 0 -70 -14.5t-19 -50.5q0 -12 2 -21t9.5 -18.5t12.5 -15t20 -14.5t23 -14t30 -16.5t33 -17.5q92 -50 124 -90.5t32 -120.5
q0 -108 -51 -156.5t-177 -48.5q-36 0 -85 5.5t-68 12.5q-25 8 -21 38z" />
    <glyph glyph-name="scaron" unicode="&#x161;" horiz-adv-x="433" 
d="M235 666l68 29q19 6 22 -12l10 -46q1 -7 -9 -14l-99 -49q-8 -2 -10 -2q-4 0 -10 2l-99 49q-10 7 -9 14l11 46q2 10 6 12.5t15 -0.5l63 -27q21 -8 23 -8t18 6zM207 209l-66 32q-49 23 -72.5 53.5t-23.5 91.5q0 75 44 106t137 31q96 0 134 -14q17 -7 14 -27l-8 -50
q-3 -18 -18 -18q-5 0 -45.5 4t-66.5 4q-72 0 -72 -42q0 -22 15 -34t49 -27q7 -3 10 -4l52 -24q54 -25 76 -54t22 -88q0 -81 -46 -119.5t-150 -38.5q-74 0 -122 11q-22 6 -19 29l7 59q2 13 13 13q2 0 40.5 -4.5t73.5 -4.5q47 0 66 13t19 39q0 22 -12.5 33.5t-50.5 29.5z" />
    <glyph glyph-name="Tcedilla" unicode="&#x162;" horiz-adv-x="516" 
d="M49 700h418q17 0 17 -17v-81q0 -17 -17 -17h-137q-8 0 -8 -7v-561q0 -17 -17 -17h-93q-17 0 -17 17v561q0 7 -7 7h-139q-17 0 -17 17v81q0 17 17 17zM216 -40h77q16 0 9 -16l-63 -161q-9 -23 -30 -23h-54q-21 0 -15 18l51 165q5 17 25 17z" />
    <glyph glyph-name="tcedilla" unicode="&#x163;" horiz-adv-x="356" 
d="M322 94l8 -63q3 -19 -19 -28q-33 -12 -68 -12l-46 -119q-9 -23 -30 -23h-54q-21 0 -15 18l42 137q-43 16 -59.5 51t-16.5 95v458q0 15 15 15h67q21 0 24 -23l9 -69q4 -17 22 -17h91q17 0 17 -17v-71q0 -17 -17 -17h-97q-11 0 -11 -11v-236q0 -29 14 -43.5t52 -14.5
q18 0 36 2.5t23 2.5q11 0 13 -15z" />
    <glyph glyph-name="Tcaron" unicode="&#x164;" horiz-adv-x="516" 
d="M274 845l69 29q18 6 22 -12l10 -46q1 -8 -10 -14l-99 -48q-5 -3 -9 -3q-5 0 -11 3l-98 48q-10 6 -9 14l10 46q4 18 21 12l64 -27q21 -8 23 -8q3 0 17 6zM49 700h418q17 0 17 -17v-81q0 -17 -17 -17h-137q-8 0 -8 -7v-561q0 -17 -17 -17h-93q-17 0 -17 17v561q0 7 -7 7
h-139q-17 0 -17 17v81q0 17 17 17z" />
    <glyph glyph-name="tcaron" unicode="&#x165;" horiz-adv-x="356" 
d="M259 839h78q17 0 17 -18v-108q0 -33 -14.5 -64.5t-50.5 -80.5q-11 -14 -32 -9l-19 6q-5 1 -8.5 2.5t-5 4.5t-1.5 7q19 119 19 132v110q0 18 17 18zM79 623h67q21 0 24 -23l9 -69q4 -17 22 -17h91q17 0 17 -17v-71q0 -17 -17 -17h-97q-11 0 -11 -11v-236q0 -29 14 -43.5
t52 -14.5q18 0 36 2.5t23 2.5q11 0 13 -15l8 -63q3 -19 -19 -28q-36 -12 -78 -12q-98 0 -133.5 38t-35.5 121v458q0 15 15 15z" />
    <glyph glyph-name="Tbar" unicode="&#x166;" horiz-adv-x="516" 
d="M49 700h418q17 0 17 -17v-81q0 -17 -17 -17h-137q-8 0 -8 -7v-136h88q5 0 9.5 -4.5t4.5 -10.5v-49q0 -5 -4.5 -9t-9.5 -4h-88v-348q0 -17 -17 -17h-93q-17 0 -17 17v348h-91q-13 0 -13 13v49q0 15 13 15h91v136q0 7 -7 7h-139q-17 0 -17 17v81q0 17 17 17z" />
    <glyph glyph-name="tbar" unicode="&#x167;" horiz-adv-x="356" 
d="M322 94l8 -63q3 -19 -19 -28q-36 -12 -78 -12q-98 0 -133.5 38t-35.5 121v458q0 15 15 15h67q21 0 24 -23l9 -69q4 -17 22 -17h91q17 0 17 -17v-71q0 -17 -17 -17h-97q-11 0 -11 -11v-61h106q5 0 9.5 -4.5t4.5 -10.5v-41q0 -5 -4.5 -9t-9.5 -4h-106v-106q0 -29 14 -43.5
t52 -14.5q18 0 36 2.5t23 2.5q11 0 13 -15z" />
    <glyph glyph-name="Umacron" unicode="&#x16a;" horiz-adv-x="625" 
d="M189 870h228q5 0 9.5 -4t4.5 -10v-65q0 -5 -4.5 -9.5t-9.5 -4.5h-228q-13 0 -13 14v65q0 14 13 14zM423 700h102q13 0 13 -13v-487q0 -52 -8 -86t-31 -63.5t-69 -43t-117 -13.5t-117 13.5t-69 43t-31 63.5t-8 86v487q0 13 13 13h100q14 0 14 -13v-488q0 -51 19 -70.5
t79 -19.5q58 0 77.5 20t19.5 70v488q0 13 13 13z" />
    <glyph glyph-name="umacron" unicode="&#x16b;" horiz-adv-x="527" 
d="M139 689h228q5 0 9.5 -4.5t4.5 -9.5v-65q0 -5 -4.5 -9.5t-9.5 -4.5h-228q-13 0 -13 14v65q0 14 13 14zM356 514h86q17 0 17 -17v-292q0 -120 -42.5 -167t-151.5 -47q-110 0 -153.5 47t-43.5 167v292q0 17 17 17h86q17 0 17 -17v-309q0 -51 17 -69t60 -18q42 0 58 18
t16 69v309q0 17 17 17z" />
    <glyph glyph-name="Uring" unicode="&#x16e;" horiz-adv-x="625" 
d="M312 905q83 0 83 -83t-83 -83q-84 0 -84 83t84 83zM312 854q-29 0 -29 -32q0 -31 29 -31t29 31q0 32 -29 32zM423 700h102q13 0 13 -13v-487q0 -52 -8 -86t-31 -63.5t-69 -43t-117 -13.5t-117 13.5t-69 43t-31 63.5t-8 86v487q0 13 13 13h100q14 0 14 -13v-488
q0 -51 19 -70.5t79 -19.5q58 0 77.5 20t19.5 70v488q0 13 13 13z" />
    <glyph glyph-name="uring" unicode="&#x16f;" horiz-adv-x="527" 
d="M262 716q83 0 83 -82q0 -83 -83 -83q-84 0 -84 83q0 44 21 63t63 19zM262 665q-29 0 -29 -31q0 -32 29 -32q28 0 28 32q0 31 -28 31zM356 514h86q17 0 17 -17v-292q0 -120 -42.5 -167t-151.5 -47q-110 0 -153.5 47t-43.5 167v292q0 17 17 17h86q17 0 17 -17v-309
q0 -51 17 -69t60 -18q42 0 58 18t16 69v309q0 17 17 17z" />
    <glyph glyph-name="Uhungarumlaut" unicode="&#x170;" horiz-adv-x="625" 
d="M234 889h99q19 0 12 -13l-53 -101q-8 -13 -21 -13h-49q-18 0 -17 17l11 97q1 13 18 13zM413 889h107q20 0 6 -16l-94 -103q-8 -8 -18 -8h-57q-23 0 -14 19l51 98q5 10 19 10zM423 700h102q13 0 13 -13v-487q0 -52 -8 -86t-31 -63.5t-69 -43t-117 -13.5t-117 13.5t-69 43
t-31 63.5t-8 86v487q0 13 13 13h100q14 0 14 -13v-488q0 -51 19 -70.5t79 -19.5q58 0 77.5 20t19.5 70v488q0 13 13 13z" />
    <glyph glyph-name="uhungarumlaut" unicode="&#x171;" horiz-adv-x="527" 
d="M171 711h99q10 0 12.5 -2.5t-1.5 -10.5l-53 -111q-6 -14 -20 -14h-49q-19 0 -18 18l12 108q1 12 18 12zM350 711h106q19 0 7 -15l-94 -114q-7 -9 -18 -9h-57q-23 0 -14 19l51 110q5 9 19 9zM356 514h86q17 0 17 -17v-292q0 -120 -42.5 -167t-151.5 -47q-110 0 -153.5 47
t-43.5 167v292q0 17 17 17h86q17 0 17 -17v-309q0 -51 17 -69t60 -18q42 0 58 18t16 69v309q0 17 17 17z" />
    <glyph glyph-name="Uogonek" unicode="&#x172;" horiz-adv-x="625" 
d="M423 700h102q13 0 13 -13v-487q0 -78 -22.5 -125t-85.5 -67q-53 -25 -53 -91q0 -58 37 -58q7 0 17.5 1t13.5 1q11 0 11 -12v-24q0 -16 -16 -26q-29 -16 -71 -16q-51 0 -73 24.5t-22 76.5q0 68 50 110h-11q-71 0 -117 13.5t-69 43t-31 63.5t-8 86v487q0 13 13 13h100
q14 0 14 -13v-488q0 -51 19 -70.5t79 -19.5q58 0 77.5 20t19.5 70v488q0 13 13 13z" />
    <glyph glyph-name="uogonek" unicode="&#x173;" horiz-adv-x="527" 
d="M356 514h86q17 0 17 -17v-292q0 -94 -24 -141.5t-83 -63.5q-64 -24 -64 -96q0 -58 37 -58q7 0 17.5 1t13.5 1q11 0 11 -12v-24q0 -16 -16 -26q-29 -16 -71 -16q-51 0 -72.5 24.5t-21.5 76.5q0 74 61 120q-100 3 -139.5 50.5t-39.5 163.5v292q0 17 17 17h86q17 0 17 -17
v-309q0 -51 17 -69t60 -18q42 0 58 18t16 69v309q0 17 17 17z" />
    <glyph glyph-name="Wcircumflex" unicode="&#x174;" horiz-adv-x="813" 
d="M418 865l98 -49q12 -5 9 -14l-10 -46q-2 -10 -6 -12.5t-15 0.5l-76 32q-11 4 -21 0l-76 -32q-10 -4 -14 -2.5t-8 14.5l-10 46q-1 8 10 14l99 49q10 4 20 0zM621 700h106q10 0 10 -12v-414q0 -57 -7.5 -84.5t-33.5 -56.5l-99 -115q-20 -26 -54 -25t-57 30l-65 81
q-8 9 -17 0l-68 -83q-21 -26 -55 -27t-55 24l-101 115q-26 29 -33.5 56.5t-7.5 84.5v414q0 12 10 12h107q10 0 10 -12v-454q0 -11 11 -26l47 -61q8 -9 17 1l52 65q10 13 10 22v453q0 12 11 12h105q11 0 11 -12v-453q0 -11 11 -23l51 -65q9 -9 17 0l44 61q12 17 12 26v454
q0 12 11 12z" />
    <glyph glyph-name="wcircumflex" unicode="&#x175;" horiz-adv-x="727" 
d="M372 708l99 -49q10 -5 9 -14l-11 -46q-1 -19 -21 -12l-76 32q-10 3 -21 0l-75 -32q-10 -4 -14.5 -2.5t-7.5 14.5l-11 46q-1 8 10 14l99 49q10 4 20 0zM557 514h85q18 0 18 -17v-301q0 -55 -42 -97l-81 -82q-25 -26 -54 -26q-30 0 -57 27l-56 63q-4 2 -7 2l-6 -2l-57 -63
q-27 -27 -56 -27t-54 26l-81 82q-41 41 -41 97v301q0 17 17 17h86q17 0 17 -17v-295q0 -17 12 -30l38 -46q5 -5 7 -5q5 0 8 5l39 46q12 15 12 30v295q0 17 16 17h87q17 0 17 -17v-295q0 -17 12 -30l37 -46q7 -5 9 -5q5 0 8 5l38 46q12 15 12 30v295q0 17 17 17z" />
    <glyph glyph-name="Ycircumflex" unicode="&#x176;" horiz-adv-x="558" 
d="M291 865l98 -49q12 -5 9 -14l-10 -46q-2 -10 -6 -12.5t-15 0.5l-76 32q-11 4 -21 0l-76 -32q-10 -4 -14 -2.5t-8 14.5l-10 46q-1 8 10 14l99 49q10 4 20 0zM382 700h103q12 0 12 -13v-177q0 -65 -27 -94l-116 -130q-12 -14 -12 -34v-240q0 -12 -12 -12h-101q-12 0 -12 12
v240q0 21 -13 34l-116 131q-26 30 -26 93v177q0 13 12 13h103q11 0 11 -13v-173q0 -19 8 -30l67 -88q17 -21 32 0l67 88q10 14 10 30v173q0 13 10 13z" />
    <glyph glyph-name="ycircumflex" unicode="&#x177;" horiz-adv-x="532" 
d="M277 708l98 -49q12 -5 9 -14l-10 -46q-2 -10 -6 -12.5t-15 0.5l-76 32q-10 3 -21 0l-76 -32q-10 -4 -14.5 -2.5t-7.5 14.5l-10 46q-1 8 10 14l99 49q10 4 20 0zM359 514h90q15 0 15 -14v-509q0 -104 -48.5 -150t-158.5 -46q-85 0 -129 16q-23 8 -19 29l8 64q2 14 13 14
q3 0 42 -6t71 -6q58 0 82 20.5t24 62.5v64q0 6 -6 6l-9 -3q-9 -4 -17 -6.5t-21.5 -6t-31.5 -5.5t-38 -2q-158 0 -158 180v284q0 14 14 14h91q15 0 15 -14v-262q0 -52 17 -72t58 -20q42 0 61 16t19 51v287q0 14 16 14z" />
    <glyph glyph-name="Ydieresis" unicode="&#x178;" horiz-adv-x="558" 
d="M151 870h77q14 0 14 -15v-89q0 -16 -14 -16h-77q-15 0 -15 16v89q0 15 15 15zM332 870h77q14 0 14 -15v-89q0 -16 -14 -16h-77q-15 0 -15 16v89q0 15 15 15zM382 700h103q12 0 12 -13v-177q0 -65 -27 -94l-116 -130q-12 -14 -12 -34v-240q0 -12 -12 -12h-101
q-12 0 -12 12v240q0 21 -13 34l-116 131q-26 30 -26 93v177q0 13 12 13h103q11 0 11 -13v-173q0 -19 8 -30l67 -88q17 -21 32 0l67 88q10 14 10 30v173q0 13 10 13z" />
    <glyph glyph-name="Zacute" unicode="&#x179;" horiz-adv-x="523" 
d="M368 885l44 -20q22 -11 5 -28l-93 -83q-15 -13 -45 -13h-43q-9 0 -12 4t2 11l88 119q18 26 54 10zM81 700h342q26 0 36 -10t10 -36v-66q0 -16 -6 -26l-274 -437q-7 -9 6 -9h257q17 0 17 -17v-82q0 -17 -17 -17h-352q-25 0 -35.5 10.5t-10.5 35.5v69q0 19 11 37l261 424
q5 9 -5 9h-240q-18 0 -18 17v81q0 17 18 17z" />
    <glyph glyph-name="zacute" unicode="&#x17a;" horiz-adv-x="460" 
d="M247 712h108q13 0 16 -7t-5 -15l-99 -106q-8 -8 -18 -8h-51q-11 0 -15 5.5t0 12.5l46 108q4 10 18 10zM78 514h284q43 0 43 -42v-37q0 -40 -32 -79l-183 -235q-10 -10 3 -10h205q12 0 12 -12v-86q0 -13 -12 -13h-301q-43 0 -43 43v33q0 32 7 49.5t31 46.5l174 224
q7 8 -5 8h-183q-12 0 -12 12v86q0 12 12 12z" />
    <glyph glyph-name="Zdotaccent" unicode="&#x17b;" horiz-adv-x="523" 
d="M230 900h77q15 0 15 -16v-95q0 -16 -15 -16h-77q-15 0 -15 16v95q0 16 15 16zM81 700h342q26 0 36 -10t10 -36v-66q0 -16 -6 -26l-274 -437q-7 -9 6 -9h257q17 0 17 -17v-82q0 -17 -17 -17h-352q-25 0 -35.5 10.5t-10.5 35.5v69q0 19 11 37l261 424q5 9 -5 9h-240
q-18 0 -18 17v81q0 17 18 17z" />
    <glyph glyph-name="zdotaccent" unicode="&#x17c;" horiz-adv-x="460" 
d="M198 712h77q14 0 14 -15v-96q0 -15 -14 -15h-77q-15 0 -15 15v96q0 15 15 15zM78 514h284q43 0 43 -42v-37q0 -40 -32 -79l-183 -235q-10 -10 3 -10h205q12 0 12 -12v-86q0 -13 -12 -13h-301q-43 0 -43 43v33q0 32 7 49.5t31 46.5l174 224q7 8 -5 8h-183q-12 0 -12 12v86
q0 12 12 12z" />
    <glyph glyph-name="Zcaron" unicode="&#x17d;" horiz-adv-x="523" 
d="M288 845l69 29q18 6 22 -12l10 -46q1 -8 -10 -14l-99 -48q-6 -3 -10 -3q-6 0 -10 3l-98 48q-10 6 -9 14l10 46q2 10 6 12.5t15 -0.5l64 -27q19 -8 22 -8q4 0 18 6zM81 700h342q26 0 36 -10t10 -36v-66q0 -16 -6 -26l-274 -437q-7 -9 6 -9h257q17 0 17 -17v-82
q0 -17 -17 -17h-352q-25 0 -35.5 10.5t-10.5 35.5v69q0 19 11 37l261 424q5 9 -5 9h-240q-18 0 -18 17v81q0 17 18 17z" />
    <glyph glyph-name="zcaron" unicode="&#x17e;" horiz-adv-x="460" 
d="M256 666l69 29q18 6 21 -12l11 -46q1 -8 -10 -14l-99 -49q-8 -2 -10 -2q-4 0 -10 2l-99 49q-9 6 -8 14l10 46q2 10 6 12.5t15 -0.5l63 -27q21 -8 23 -8t18 6zM78 514h284q43 0 43 -42v-37q0 -40 -32 -79l-183 -235q-10 -10 3 -10h205q12 0 12 -12v-86q0 -13 -12 -13h-301
q-43 0 -43 43v33q0 32 7 49.5t31 46.5l174 224q7 8 -5 8h-183q-12 0 -12 12v86q0 12 12 12z" />
    <glyph glyph-name="florin" unicode="&#x192;" horiz-adv-x="326" 
d="M89 506v23q0 96 36 137.5t123 41.5q48 0 70 -11q18 -10 15 -34l-8 -54q-3 -15 -14 -15q-5 0 -22.5 2.5t-35.5 2.5q-44 0 -44 -55v-37q0 -10 11 -10h90q11 0 11 -10v-85q0 -9 -11 -9h-90q-11 0 -11 -11v-394q0 -95 -36.5 -137t-121.5 -42q-50 0 -70 11q-18 10 -15 34l8 54
q3 15 14 15q5 0 22 -2.5t35 -2.5q26 0 35 14t9 41v409q0 11 -9 11h-50q-11 0 -11 9v85q0 10 11 10h50q9 0 9 9z" />
    <glyph glyph-name="Oslashacute" unicode="&#x1fe;" horiz-adv-x="650" 
d="M279 741h-43q-21 0 -11 15l88 119q19 26 54 10l45 -20q22 -10 4 -28l-92 -83q-15 -13 -45 -13zM493 656l-12 6q44 -39 60 -112.5t16 -197.5q0 -79 -5 -132t-20.5 -100t-42.5 -73t-71 -41t-107 -15q-21 0 -32 1l-37 -99q-3 -10 -17 -10h-81q-18 0 -10 15l44 117
q-67 32 -90 111t-23 226q0 79 5.5 131.5t20.5 98.5t42 72t71 40.5t107 14.5q54 0 87 -8l36 92q4 11 15 11h86q14 0 8 -15zM311 111q47 0 70 17t34 68t11 155q0 103 -11 154t-34 67.5t-70 16.5q-48 0 -71 -17t-33.5 -67t-10.5 -154q0 -105 10.5 -155.5t33.5 -67.5t71 -17z
" />
    <glyph glyph-name="oslashacute" unicode="&#x1ff;" horiz-adv-x="494" 
d="M251 714h108q12 0 15.5 -7.5t-4.5 -14.5l-99 -106q-9 -9 -18 -9h-52q-11 0 -14.5 6t0.5 13l46 107q5 11 18 11zM335 606h78q15 0 9 -12l-38 -106q38 -26 51.5 -79.5t13.5 -153.5q0 -72 -7.5 -117.5t-29 -80.5t-61.5 -50.5t-103 -15.5q-16 0 -23 1l-34 -92q-4 -11 -16 -11
h-83q-11 0 -7 12l44 114q-46 25 -64.5 81t-18.5 159q0 146 39 207t152 61q27 0 51 -4l28 73q6 14 19 14zM249 413q-48 0 -64 -28.5t-16 -126.5q0 -99 16 -128t64 -29q45 0 61 29t16 128q0 97 -16 126t-61 29z" />
    <glyph glyph-name="Scommaaccent" unicode="&#x218;" horiz-adv-x="541" 
d="M79 47l8 66q2 13 15 13l48 -8q49 -7 88 -7q65 0 88.5 21t23.5 66q0 22 -8.5 39t-30 33t-38.5 25t-54 28q-85 42 -120 87t-35 122q0 98 48.5 137.5t161.5 39.5q122 0 163 -10q19 -5 18 -24l-9 -83q0 -12 -14 -12q-3 0 -28.5 2t-60 4.5t-59.5 2.5q-51 0 -70 -14.5
t-19 -50.5q0 -12 2 -21t9.5 -18.5t12.5 -15t20 -14.5t23 -14t30 -16.5t33 -17.5q92 -50 124 -90.5t32 -120.5q0 -108 -51 -156.5t-177 -48.5q-36 0 -85 5.5t-68 12.5q-25 8 -21 38zM245 -32h78q17 0 17 -17v-31q0 -38 -14 -66.5t-50 -72.5q-12 -15 -31 -9l-20 4
q-15 4 -15 15q18 108 18 127v33q0 17 17 17z" />
    <glyph glyph-name="scommaaccent" unicode="&#x219;" horiz-adv-x="433" 
d="M207 209l-66 32q-49 23 -72.5 53.5t-23.5 91.5q0 75 44 106t137 31q96 0 134 -14q17 -7 14 -27l-8 -50q-3 -18 -18 -18q-5 0 -45.5 4t-66.5 4q-72 0 -72 -42q0 -22 15 -34t49 -27q7 -3 10 -4l52 -24q54 -25 76 -54t22 -88q0 -81 -46 -119.5t-150 -38.5q-74 0 -122 11
q-22 6 -19 29l7 59q2 13 13 13q2 0 40.5 -4.5t73.5 -4.5q47 0 66 13t19 39q0 22 -12.5 33.5t-50.5 29.5zM189 -32h78q17 0 17 -17v-31q0 -38 -14 -66.5t-50 -72.5q-12 -15 -31 -9l-20 4q-15 4 -15 15q18 108 18 127v33q0 17 17 17z" />
    <glyph glyph-name="uni021A" unicode="&#x21a;" horiz-adv-x="516" 
d="M49 700h418q17 0 17 -17v-81q0 -17 -17 -17h-137q-8 0 -8 -7v-561q0 -17 -17 -17h-93q-17 0 -17 17v561q0 7 -7 7h-139q-17 0 -17 17v81q0 17 17 17zM218 -32h77q18 0 18 -17v-31q0 -38 -14 -66t-50 -73q-12 -15 -32 -9l-20 4q-15 5 -14 15q17 102 17 127v33q0 17 18 17z
" />
    <glyph glyph-name="uni021B" unicode="&#x21b;" horiz-adv-x="356" 
d="M79 623h67q21 0 24 -23l9 -69q4 -17 22 -17h91q17 0 17 -17v-71q0 -17 -17 -17h-97q-11 0 -11 -11v-236q0 -29 14 -43.5t52 -14.5q18 0 36 2.5t23 2.5q11 0 13 -15l8 -63q3 -19 -19 -28q-36 -12 -78 -12q-98 0 -133.5 38t-35.5 121v458q0 15 15 15zM156 -32h78
q17 0 17 -17v-31q0 -38 -14 -66.5t-49 -72.5q-13 -15 -32 -9l-20 4q-15 5 -15 15q18 81 18 127v33q0 17 17 17z" />
    <glyph glyph-name="circumflex" unicode="&#x2c6;" horiz-adv-x="362" 
d="M190 695l98 -48q12 -5 9 -14l-10 -47q-3 -17 -22 -11l-75 31q-9 4 -21 0l-76 -31q-10 -5 -14.5 -3.5t-7.5 14.5l-10 47q-1 8 9 14l99 48q11 6 21 0z" />
    <glyph glyph-name="caron" unicode="&#x2c7;" horiz-adv-x="420" 
d="M228 654l68 29q19 5 22 -12l10 -46q1 -9 -9 -14l-99 -49q-6 -3 -10 -3q-6 0 -10 3l-99 49q-10 5 -9 14l11 46q2 10 6 12.5t15 -0.5l63 -28q4 -1 12.5 -4.5t10.5 -3.5t4.5 1t6.5 3t7 3z" />
    <glyph glyph-name="breve" unicode="&#x2d8;" horiz-adv-x="464" 
d="M303 690h40q16 0 16 -13q1 -58 -30 -86t-99 -28t-98.5 28t-30.5 86q0 13 16 13h40q13 0 14 -14q3 -20 16 -29t43 -9t43.5 9t15.5 29q1 14 14 14z" />
    <glyph glyph-name="dotaccent" unicode="&#x2d9;" horiz-adv-x="247" 
d="M85 700h77q14 0 14 -16v-95q0 -16 -14 -16h-77q-15 0 -15 16v95q0 16 15 16z" />
    <glyph glyph-name="ring" unicode="&#x2da;" horiz-adv-x="311" 
d="M156 705q83 0 83 -83t-83 -83q-84 0 -84 83t84 83zM156 654q-29 0 -29 -32q0 -31 29 -31t29 31q0 32 -29 32z" />
    <glyph glyph-name="ogonek" unicode="&#x2db;" horiz-adv-x="362" 
d="M215 26l42 -26q-63 -24 -63 -96q0 -58 37 -58q7 0 17 1t13 1q11 0 11 -12v-24q0 -16 -16 -26q-29 -16 -71 -16q-51 0 -72.5 24.5t-21.5 76.5q0 53 28 89t96 66z" />
    <glyph glyph-name="tilde" unicode="&#x2dc;" horiz-adv-x="391" 
d="M298 705q22 0 29.5 -4t7.5 -15q-1 -21 -8 -41.5t-27.5 -40t-50.5 -19.5q-25 0 -53.5 16.5t-39.5 16.5q-20 0 -30 -22q-5 -10 -11 -12.5t-27 -2.5q-18 0 -25 4t-6 14q1 19 5.5 37.5t23.5 39t50 20.5q26 0 58 -16t42 -16q18 0 27 22q5 13 10.5 16t24.5 3z" />
    <glyph glyph-name="hungarumlaut" unicode="&#x2dd;" horiz-adv-x="474" 
d="M122 700h99q18 0 11 -13l-53 -112q-7 -13 -21 -13h-49q-18 0 -17 17l11 109q1 12 19 12zM301 700h106q20 0 6 -16l-93 -114q-10 -8 -19 -8h-57q-23 0 -14 19l52 109q4 10 19 10z" />
    <glyph glyph-name="commaaccentcomb" unicode="&#x326;" horiz-adv-x="0" 
d="M83 -32h78q17 0 17 -17v-31q0 -38 -14 -66.5t-49 -72.5q-13 -15 -32 -9l-20 4q-15 5 -15 15q18 81 18 127v33q0 17 17 17z" />
    <glyph glyph-name="mu" unicode="&#x3bc;" horiz-adv-x="548" 
d="M375 522h90q16 0 16 -14v-260q0 -124 -37 -169.5t-137 -45.5q-34 0 -58 6.5t-35 12.5t-13 6q-5 -3 -5 -10v-209q0 -11 -11 -11h-98q-11 0 -11 11v669q0 14 15 14h95q16 0 16 -14v-235q0 -81 18 -107q17 -23 64 -23t62 22.5t15 91.5v251q0 14 14 14z" />
    <glyph glyph-name="Wgrave" unicode="&#x1e80;" horiz-adv-x="813" 
d="M276 878l82 22q20 4 27 -12l57 -116q9 -22 -13 -22h-33q-18 0 -30 13l-96 91q-7 8 -5 15t11 9zM621 700h106q10 0 10 -12v-414q0 -57 -7.5 -84.5t-33.5 -56.5l-99 -115q-20 -26 -54 -25t-57 30l-65 81q-8 9 -17 0l-68 -83q-21 -26 -55 -27t-55 24l-101 115
q-26 29 -33.5 56.5t-7.5 84.5v414q0 12 10 12h107q10 0 10 -12v-454q0 -11 11 -26l47 -61q8 -9 17 1l52 65q10 13 10 22v453q0 12 11 12h105q11 0 11 -12v-453q0 -11 11 -23l51 -65q9 -9 17 0l44 61q12 17 12 26v454q0 12 11 12z" />
    <glyph glyph-name="wgrave" unicode="&#x1e81;" horiz-adv-x="727" 
d="M243 712h102q13 0 18 -14l32 -100q6 -22 -13 -22h-33q-20 0 -29 12l-84 107q-5 7 -3 12t10 5zM557 514h85q18 0 18 -17v-301q0 -55 -42 -97l-81 -82q-25 -26 -54 -26q-30 0 -57 27l-56 63q-4 2 -7 2l-6 -2l-57 -63q-27 -27 -56 -27t-54 26l-81 82q-41 41 -41 97v301
q0 17 17 17h86q17 0 17 -17v-295q0 -17 12 -30l38 -46q5 -5 7 -5q5 0 8 5l39 46q12 15 12 30v295q0 17 16 17h87q17 0 17 -17v-295q0 -17 12 -30l37 -46q7 -5 9 -5q5 0 8 5l38 46q12 15 12 30v295q0 17 17 17z" />
    <glyph glyph-name="Wacute" unicode="&#x1e82;" horiz-adv-x="813" 
d="M503 885l44 -20q23 -11 5 -28l-93 -83q-14 -13 -44 -13h-43q-10 0 -13 4t2 11l88 119q11 14 22 16.5t32 -6.5zM621 700h106q10 0 10 -12v-414q0 -57 -7.5 -84.5t-33.5 -56.5l-99 -115q-20 -26 -54 -25t-57 30l-65 81q-8 9 -17 0l-68 -83q-21 -26 -55 -27t-55 24l-101 115
q-26 29 -33.5 56.5t-7.5 84.5v414q0 12 10 12h107q10 0 10 -12v-454q0 -11 11 -26l47 -61q8 -9 17 1l52 65q10 13 10 22v453q0 12 11 12h105q11 0 11 -12v-453q0 -11 11 -23l51 -65q9 -9 17 0l44 61q12 17 12 26v454q0 12 11 12z" />
    <glyph glyph-name="wacute" unicode="&#x1e83;" horiz-adv-x="727" 
d="M375 712h108q12 0 15.5 -7t-4.5 -15l-99 -106q-8 -8 -18 -8h-52q-11 0 -14.5 5.5t0.5 12.5l46 108q4 10 18 10zM557 514h85q18 0 18 -17v-301q0 -55 -42 -97l-81 -82q-25 -26 -54 -26q-30 0 -57 27l-56 63q-4 2 -7 2l-6 -2l-57 -63q-27 -27 -56 -27t-54 26l-81 82
q-41 41 -41 97v301q0 17 17 17h86q17 0 17 -17v-295q0 -17 12 -30l38 -46q5 -5 7 -5q5 0 8 5l39 46q12 15 12 30v295q0 17 16 17h87q17 0 17 -17v-295q0 -17 12 -30l37 -46q7 -5 9 -5q5 0 8 5l38 46q12 15 12 30v295q0 17 17 17z" />
    <glyph glyph-name="Wdieresis" unicode="&#x1e84;" horiz-adv-x="813" 
d="M278 870h76q15 0 15 -15v-89q0 -16 -15 -16h-76q-15 0 -15 16v89q0 15 15 15zM459 870h77q14 0 14 -15v-89q0 -16 -14 -16h-77q-15 0 -15 16v89q0 15 15 15zM621 700h106q10 0 10 -12v-414q0 -57 -7.5 -84.5t-33.5 -56.5l-99 -115q-20 -26 -54 -25t-57 30l-65 81
q-8 9 -17 0l-68 -83q-21 -26 -55 -27t-55 24l-101 115q-26 29 -33.5 56.5t-7.5 84.5v414q0 12 10 12h107q10 0 10 -12v-454q0 -11 11 -26l47 -61q8 -9 17 1l52 65q10 13 10 22v453q0 12 11 12h105q11 0 11 -12v-453q0 -11 11 -23l51 -65q9 -9 17 0l44 61q12 17 12 26v454
q0 12 11 12z" />
    <glyph glyph-name="wdieresis" unicode="&#x1e85;" horiz-adv-x="727" 
d="M253 712h69q15 0 15 -15v-96q0 -15 -15 -15h-69q-15 0 -15 15v96q0 15 15 15zM411 712h69q15 0 15 -15v-96q0 -15 -15 -15h-69q-14 0 -14 15v96q0 15 14 15zM557 514h85q18 0 18 -17v-301q0 -55 -42 -97l-81 -82q-25 -26 -54 -26q-30 0 -57 27l-56 63q-4 2 -7 2l-6 -2
l-57 -63q-27 -27 -56 -27t-54 26l-81 82q-41 41 -41 97v301q0 17 17 17h86q17 0 17 -17v-295q0 -17 12 -30l38 -46q5 -5 7 -5q5 0 8 5l39 46q12 15 12 30v295q0 17 16 17h87q17 0 17 -17v-295q0 -17 12 -30l37 -46q7 -5 9 -5q5 0 8 5l38 46q12 15 12 30v295q0 17 17 17z" />
    <glyph glyph-name="Ygrave" unicode="&#x1ef2;" horiz-adv-x="558" 
d="M149 878l82 22q21 4 28 -12l56 -116q9 -22 -12 -22h-34q-18 0 -30 13l-96 91q-7 8 -5 15t11 9zM382 700h103q12 0 12 -13v-177q0 -65 -27 -94l-116 -130q-12 -14 -12 -34v-240q0 -12 -12 -12h-101q-12 0 -12 12v240q0 21 -13 34l-116 131q-26 30 -26 93v177q0 13 12 13
h103q11 0 11 -13v-173q0 -19 8 -30l67 -88q17 -21 32 0l67 88q10 14 10 30v173q0 13 10 13z" />
    <glyph glyph-name="ygrave" unicode="&#x1ef3;" horiz-adv-x="532" 
d="M148 712h101q15 0 18 -14l33 -100q6 -22 -13 -22h-34q-19 0 -28 12l-85 107q-5 7 -3 12t11 5zM359 514h90q15 0 15 -14v-509q0 -104 -48.5 -150t-158.5 -46q-85 0 -129 16q-23 8 -19 29l8 64q2 14 13 14q3 0 42 -6t71 -6q58 0 82 20.5t24 62.5v64q0 6 -6 6l-9 -3
q-9 -4 -17 -6.5t-21.5 -6t-31.5 -5.5t-38 -2q-158 0 -158 180v284q0 14 14 14h91q15 0 15 -14v-262q0 -52 17 -72t58 -20q42 0 61 16t19 51v287q0 14 16 14z" />
    <glyph glyph-name="uni2009" unicode="&#x2009;" horiz-adv-x="26" 
 />
    <glyph glyph-name="endash" unicode="&#x2013;" horiz-adv-x="533" 
d="M72 318h386q15 0 15 -12v-74q0 -5 -4.5 -9t-10.5 -4h-386q-12 0 -12 12v75q0 12 12 12z" />
    <glyph glyph-name="emdash" unicode="&#x2014;" horiz-adv-x="628" 
d="M72 314h481q15 0 15 -12v-74q0 -13 -15 -13h-481q-12 0 -12 12v75q0 12 12 12z" />
    <glyph glyph-name="quoteleft" unicode="&#x2018;" horiz-adv-x="235" 
d="M151 473h-78q-17 0 -17 17v109q0 33 14.5 65t49.5 80q11 14 32 9l20 -6q15 -3 15 -15q-19 -91 -19 -132v-110q0 -17 -17 -17z" />
    <glyph glyph-name="quoteright" unicode="&#x2019;" horiz-adv-x="236" 
d="M77 700h78q17 0 17 -17v-109q0 -33 -15 -64.5t-50 -80.5q-10 -14 -31 -9l-20 6q-16 3 -15 15q19 114 19 132v110q0 17 17 17z" />
    <glyph glyph-name="quotesinglbase" unicode="&#x201a;" horiz-adv-x="235" 
d="M76 161h78q17 0 17 -17v-109q0 -33 -15 -64.5t-50 -80.5q-10 -14 -31 -9l-20 6q-15 3 -15 15q19 114 19 132v110q0 17 17 17z" />
    <glyph glyph-name="quotedblleft" unicode="&#x201c;" horiz-adv-x="399" 
d="M161 753l19 -6q16 -3 15 -15q-19 -114 -19 -132v-110q0 -17 -17 -17h-78q-17 0 -17 17v109q0 33 15 64.5t50 80.5q10 14 32 9zM324 753l20 -6q15 -3 14 -15q-18 -108 -18 -132v-110q0 -17 -18 -17h-77q-18 0 -18 17v109q0 33 15 64.5t50 80.5q11 14 32 9z" />
    <glyph glyph-name="quotedblright" unicode="&#x201d;" horiz-adv-x="399" 
d="M97 700h77q18 0 18 -17v-109q0 -33 -15 -64.5t-50 -80.5q-11 -14 -32 -9l-20 6q-15 3 -14 15q18 108 18 132v110q0 17 18 17zM260 700h78q17 0 17 -17v-109q0 -33 -15 -64.5t-50 -80.5q-11 -14 -32 -9l-19 6q-16 3 -15 15q19 114 19 132v110q0 17 17 17z" />
    <glyph glyph-name="quotedblbase" unicode="&#x201e;" horiz-adv-x="399" 
d="M76 100h78q17 0 17 -17v-109q0 -33 -15 -64.5t-50 -80.5q-10 -14 -31 -9l-20 6q-15 3 -15 15q19 114 19 132v110q0 17 17 17zM239 100h78q17 0 17 -17v-109q0 -33 -14.5 -65t-49.5 -80q-11 -14 -32 -9l-20 6q-15 3 -15 15q19 91 19 132v110q0 17 17 17z" />
    <glyph glyph-name="dagger" unicode="&#x2020;" horiz-adv-x="358" 
d="M141 700h77q11 0 11 -11v-178q0 -11 11 -11h80q14 0 14 -12v-53q0 -5 -4.5 -9t-9.5 -4h-80q-11 0 -11 -11v-400q0 -11 -11 -11h-77q-11 0 -11 11v400q0 11 -11 11h-83q-13 0 -13 12v54q0 12 13 12h83q11 0 11 11v178q0 11 11 11z" />
    <glyph glyph-name="daggerdbl" unicode="&#x2021;" horiz-adv-x="358" 
d="M141 700h77q11 0 11 -11v-130q0 -11 11 -11h80q14 0 14 -12v-53q0 -5 -4.5 -9t-9.5 -4h-80q-11 0 -11 -11v-71q0 -12 11 -12h80q14 0 14 -12v-52q0 -5 -4.5 -9.5t-9.5 -4.5h-80q-11 0 -11 -11v-276q0 -11 -11 -11h-77q-11 0 -11 11v276q0 11 -11 11h-83q-6 0 -9.5 4
t-3.5 8v54q0 12 13 12h83q11 0 11 12v71q0 11 -11 11h-83q-13 0 -13 12v54q0 12 13 12h83q11 0 11 11v130q0 11 11 11z" />
    <glyph glyph-name="bullet" unicode="&#x2022;" horiz-adv-x="358" 
d="M107 422h144q24 0 24 -23v-147q0 -23 -24 -23h-144q-11 0 -17.5 7t-6.5 16v147q0 23 24 23z" />
    <glyph glyph-name="ellipsis" unicode="&#x2026;" horiz-adv-x="737" 
d="M86 174h89q15 0 15 -15v-144q0 -15 -15 -15h-89q-16 0 -16 15v144q0 15 16 15zM324 174h89q15 0 15 -15v-144q0 -15 -15 -15h-89q-16 0 -16 15v144q0 15 16 15zM562 174h89q16 0 16 -15v-144q0 -15 -16 -15h-89q-15 0 -15 15v144q0 15 15 15z" />
    <glyph glyph-name="perthousand" unicode="&#x2030;" horiz-adv-x="1090" 
d="M216 706q71 0 98.5 -38.5t27.5 -121.5q0 -84 -27 -121.5t-99 -37.5t-100 38t-28 121q0 82 28.5 121t99.5 39zM561 700h50q17 0 9 -14l-381 -674q-6 -12 -22 -12h-48q-7 0 -9.5 4.5t1.5 11.5l378 669q8 15 22 15zM216 623q-23 0 -31.5 -17t-8.5 -60q0 -44 8.5 -60
t31.5 -16q22 0 30.5 16.5t8.5 59.5t-8.5 60t-30.5 17zM574 313q71 0 98.5 -38.5t27.5 -121.5q0 -84 -27 -121.5t-99 -37.5t-100 38.5t-28 120.5t28.5 121t99.5 39zM875 313q71 0 99 -38.5t28 -121.5q0 -84 -27.5 -121.5t-99.5 -37.5t-100 38.5t-28 120.5t28.5 121t99.5 39z
M875 230q-23 0 -31 -16.5t-8 -60.5t8 -60t31 -16q22 0 30.5 16.5t8.5 59.5t-8.5 60t-30.5 17zM574 230q-23 0 -31 -16.5t-8 -60.5t8 -60t31 -16q21 0 30 16.5t9 59.5t-9 60t-30 17z" />
    <glyph glyph-name="guilsinglleft" unicode="&#x2039;" horiz-adv-x="328" 
d="M209 455l47 -47q9 -6 2 -15l-100 -112q-6 -7 0 -15l99 -112q7 -8 0 -15l-48 -47q-8 -8 -16 2l-125 142q-32 37 0 74l125 144q7 10 16 1z" />
    <glyph glyph-name="guilsinglright" unicode="&#x203a;" horiz-adv-x="328" 
d="M136 454l125 -144q32 -37 0 -74l-125 -142q-8 -10 -16 -2l-48 47q-8 7 0 15l99 112q6 8 0 15l-100 112q-7 9 2 15l47 47q9 9 16 -1z" />
    <glyph glyph-name="fraction" unicode="&#x2044;" horiz-adv-x="157" 
d="M174 742h26q15 0 11 -14l-209 -763q-3 -13 -17 -13h-28q-14 0 -11 12l211 764q3 14 17 14z" />
    <glyph glyph-name="Euro" unicode="&#x20ac;" horiz-adv-x="608" 
d="M242 387l-1 -35q0 -25 1 -37h248q6 0 10.5 -3t3.5 -9l-7 -52q-2 -13 -17 -13h-233q11 -80 44 -107t102 -27q35 0 69 6t37 6q13 0 13 -13l8 -58q3 -26 -20 -36q-36 -18 -133 -18q-119 -1 -178 59.5t-74 187.5h-52q-13 0 -13 11v54q0 12 13 12h47l-1 37q0 6 0.5 18t0.5 17
h-47q-13 0 -13 11v54q0 13 13 13h52q14 129 72 187.5t179 58.5q86 0 138 -13q20 -7 18 -26l-8 -76q-2 -12 -13 -12q-1 0 -38 5t-66 5q-71 2 -104.5 -23.5t-44.5 -105.5h261q15 0 13 -13l-6 -52q-2 -13 -17 -13h-257z" />
    <glyph glyph-name="trademark" unicode="&#x2122;" horiz-adv-x="894" 
d="M96 701h258q12 0 12 -12v-62q0 -12 -12 -12h-77q-6 0 -6 -5v-306q0 -15 -13 -15h-61q-14 0 -18 16v308q0 5 -5 5h-78q-13 0 -13 11v60q0 12 13 12zM733 701h32q13 0 13 -12v-388q0 -12 -13 -12h-67q-12 0 -12 12v199q0 4 -2 5t-4 -2l-59 -57q-15 -14 -30 -1l-55 57
q-7 6 -7 -3v-198q0 -12 -13 -12h-66q-12 0 -12 12v388q0 12 12 12h35q17 0 25 -9l93 -116q3 -8 12 1l97 115q8 9 21 9z" />
    <glyph glyph-name="oneeighth" unicode="&#x215b;" horiz-adv-x="796" 
d="M469 742h26q15 0 11 -14l-209 -763q-3 -13 -17 -13h-28q-14 0 -11 12l211 764q3 14 17 14zM47 635v35q0 17 8 22q13 11 63 11q85 0 85 -63v-316q0 -9 -11 -9h-61q-10 0 -10 9v279q0 15 -6 20.5t-23 5.5q-9 0 -22 -1t-14 -1q-9 0 -9 8zM554 208l-17 16q-13 14 -19 22.5
t-11.5 23.5t-5.5 33q0 91 122 91q120 0 120 -88q0 -44 -37 -82l-19 -17q-3 -3 0 -5l20 -16q46 -34 46 -88q0 -95 -132 -95q-68 0 -98 23.5t-30 70.5q0 50 41 88l20 19q2 2 0 4zM627 236l17 15q21 16 21 37q0 35 -41 36q-22 1 -34 -9t-12 -28q0 -19 22 -35l20 -17q3 -2 7 1z
M647 151l-23 21q-4 2 -7 -1l-22 -21q-22 -20 -22 -41q0 -34 51 -34q49 0 49 34q0 18 -26 42z" />
    <glyph glyph-name="threeeighths" unicode="&#x215c;" horiz-adv-x="842" 
d="M515 742h25q15 0 12 -14l-209 -763q-3 -13 -18 -13h-28q-13 0 -10 12l210 764q3 14 18 14zM56 639l-8 39q-3 13 8 20q22 11 92 11q74 0 102.5 -25.5t28.5 -80.5q0 -61 -44 -81q-6 -4 0 -6q58 -11 58 -84q0 -58 -31.5 -89t-107.5 -31q-58 0 -91 11q-15 7 -10 25l7 34
q3 10 12 10q2 0 13.5 -1t28.5 -2.5t33 -1.5q37 0 51 12.5t14 37.5q0 23 -10.5 32.5t-38.5 9.5h-49q-17 0 -17 17v39q0 17 17 17h35q29 0 38.5 9t9.5 31q0 45 -59 45q-22 0 -46.5 -3.5t-26.5 -3.5q-6 0 -9 9zM599 208l-16 16q-19 20 -27.5 36t-8.5 43q0 91 122 91
q120 0 120 -88q0 -44 -37 -82l-20 -17q-2 -3 0 -5l21 -16q45 -33 45 -88q0 -95 -131 -95q-68 0 -98 23.5t-30 70.5q0 50 41 88l19 19q2 2 0 4zM672 236l18 15q21 17 21 37q0 35 -42 36q-45 2 -45 -37q0 -20 21 -35l20 -17q3 -2 7 1zM692 151l-22 21q-3 2 -8 -1l-21 -21
q-22 -20 -22 -41q0 -34 50 -34q49 0 49 34q0 19 -26 42z" />
    <glyph glyph-name="fiveeighths" unicode="&#x215d;" horiz-adv-x="845" 
d="M518 742h26q14 0 11 -14l-209 -763q-3 -13 -18 -13h-27q-14 0 -11 12l210 764q3 14 18 14zM88 700h180q9 0 9 -8v-55q0 -8 -9 -8h-134q-4 0 -4 -1v-76q26 6 54 6q52 0 79 -26t27 -89q0 -131 -135 -131q-54 0 -88 9q-16 5 -13 22l8 41q2 9 8 9q2 0 25 -3.5t42 -3.5
q39 0 55 11.5t16 41.5t-13 40.5t-44 10.5q-20 0 -40.5 -4t-25.5 -4q-6 0 -11 5l-13 11q-7 4 -7 14v157q0 17 8 24t26 7zM602 208l-16 16q-19 20 -27.5 36t-8.5 43q0 91 122 91q120 0 120 -88q0 -44 -37 -82l-20 -17q-2 -2 0 -5l21 -16q45 -33 45 -88q0 -95 -131 -95
q-68 0 -98 23.5t-30 70.5q0 50 41 88l19 19q2 2 0 4zM676 236l17 15q21 16 21 37q0 35 -41 36q-46 1 -46 -37q0 -20 21 -35l21 -17q2 -1 7 1zM695 151l-22 21q-3 2 -8 -1l-21 -21q-22 -20 -22 -41q0 -34 51 -34q49 0 49 34q0 19 -27 42z" />
    <glyph glyph-name="seveneighths" unicode="&#x215e;" horiz-adv-x="816" 
d="M490 742h25q15 0 11 -14l-208 -763q-3 -13 -18 -13h-28q-13 0 -10 12l210 764q3 14 18 14zM62 700h160q22 0 35 -12t13 -32v-78q0 -59 -29 -106l-98 -158q-4 -6 -14 -2l-49 23q-13 6 -7 16l95 160q22 37 22 68v37q0 7 -7 7h-121q-17 0 -17 17v43q0 17 17 17zM574 208
l-16 16q-13 14 -19.5 22.5t-12 23t-5.5 33.5q0 91 122 91q121 0 121 -88q0 -44 -37 -82l-20 -17q-3 -3 0 -5l20 -16q46 -33 46 -88q0 -95 -131 -95q-68 0 -98 23.5t-30 70.5q0 50 40 88l20 19q2 2 0 4zM647 236l17 15q21 16 21 37q0 35 -41 36q-45 2 -45 -37q0 -20 21 -35
l20 -17q3 -2 7 1zM667 151l-22 21q-3 2 -8 -1l-22 -21q-22 -20 -22 -41q0 -34 51 -34q49 0 49 34q0 18 -26 42z" />
    <glyph glyph-name="minus" unicode="&#x2212;" horiz-adv-x="561" 
d="M98 407h362q15 0 15 -12v-73q0 -5 -4.5 -9.5t-10.5 -4.5h-362q-12 0 -12 13v74q0 12 12 12z" />
    <glyph glyph-name="A.ss01" 
d="M398 652l190 -635q6 -17 -13 -17h-101q-11 0 -16 14l-36 133h-219l-35 -133q-5 -14 -17 -14h-105q-19 0 -13 17l194 635q9 29 25.5 38.5t52.5 9.5h20q33 0 49 -10.5t24 -37.5zM392 257l-77 280q-1 4 -4 4t-4 -4l-75 -280h160z" />
    <glyph glyph-name="Aacute.ss01" 
d="M320 741h-43q-9 0 -12 4t2 11l88 119q11 14 22 16.5t32 -6.5l44 -20q22 -11 5 -28l-93 -83q-15 -13 -45 -13zM398 652l190 -635q6 -17 -13 -17h-101q-11 0 -16 14l-36 133h-219l-35 -133q-5 -14 -17 -14h-105q-19 0 -13 17l194 635q9 29 25.5 38.5t52.5 9.5h20
q33 0 49 -10.5t24 -37.5zM392 257l-77 280q-1 4 -4 4t-4 -4l-75 -280h160z" />
    <glyph glyph-name="Abreve.ss01" 
d="M386 886h39q16 0 16 -13q1 -57 -30 -85t-98 -28q-68 0 -99 27.5t-31 85.5q0 13 17 13h40q13 0 14 -14q4 -37 59 -37q30 0 43 8.5t15 28.5q3 14 15 14zM398 652l190 -635q6 -17 -13 -17h-101q-11 0 -16 14l-36 133h-219l-35 -133q-5 -14 -17 -14h-105q-19 0 -13 17
l194 635q9 29 25.5 38.5t52.5 9.5h20q33 0 49 -10.5t24 -37.5zM392 257l-77 280q-1 4 -4 4t-4 -4l-75 -280h160z" />
    <glyph glyph-name="Acircumflex.ss01" 
d="M205 756l-10 46q-1 8 9 14l99 49q11 4 21 0l98 -49q12 -5 9 -14l-10 -46q-3 -18 -21 -12l-76 32q-11 3 -21 0l-76 -32q-10 -4 -14.5 -2.5t-7.5 14.5zM398 652l190 -635q6 -17 -13 -17h-101q-11 0 -16 14l-36 133h-219l-35 -133q-5 -14 -17 -14h-105q-19 0 -13 17l194 635
q9 29 25.5 38.5t52.5 9.5h20q33 0 49 -10.5t24 -37.5zM392 257l-77 280q-1 4 -4 4t-4 -4l-75 -280h160z" />
    <glyph glyph-name="Adieresis.ss01" 
d="M260 750h-77q-14 0 -14 16v89q0 15 14 15h77q15 0 15 -15v-89q0 -16 -15 -16zM441 750h-77q-14 0 -14 16v89q0 15 14 15h77q15 0 15 -15v-89q0 -16 -15 -16zM398 652l190 -635q6 -17 -13 -17h-101q-11 0 -16 14l-36 133h-219l-35 -133q-5 -14 -17 -14h-105q-19 0 -13 17
l194 635q9 29 25.5 38.5t52.5 9.5h20q33 0 49 -10.5t24 -37.5zM392 257l-77 280q-1 4 -4 4t-4 -4l-75 -280h160z" />
    <glyph glyph-name="Agrave.ss01" 
d="M271 763l-95 91q-7 8 -5 15t11 9l81 22q21 4 28 -12l57 -116q8 -22 -13 -22h-34q-17 0 -30 13zM398 652l190 -635q6 -17 -13 -17h-101q-11 0 -16 14l-36 133h-219l-35 -133q-5 -14 -17 -14h-105q-19 0 -13 17l194 635q9 29 25.5 38.5t52.5 9.5h20q33 0 49 -10.5t24 -37.5
zM392 257l-77 280q-1 4 -4 4t-4 -4l-75 -280h160z" />
    <glyph glyph-name="Amacron.ss01" 
d="M418 777h-228q-13 0 -13 14v65q0 14 13 14h228q5 0 9.5 -4t4.5 -10v-65q0 -5 -4.5 -9.5t-9.5 -4.5zM398 652l190 -635q6 -17 -13 -17h-101q-11 0 -16 14l-36 133h-219l-35 -133q-5 -14 -17 -14h-105q-19 0 -13 17l194 635q9 29 25.5 38.5t52.5 9.5h20q33 0 49 -10.5
t24 -37.5zM392 257l-77 280q-1 4 -4 4t-4 -4l-75 -280h160z" />
    <glyph glyph-name="Aogonek.ss01" 
d="M578 0q-63 -24 -63 -96q0 -58 37 -58q7 0 17.5 1t13.5 1q11 0 11 -12v-24q0 -16 -16 -26q-29 -16 -72 -16q-51 0 -72.5 24.5t-21.5 76.5q0 81 76 129h-14q-11 0 -16 14l-36 133h-219l-35 -133q-5 -14 -17 -14h-105q-19 0 -13 17l194 635q9 29 25.5 38.5t52.5 9.5h20
q33 0 49 -10.5t24 -37.5l190 -635q5 -15 -10 -17zM392 257l-77 280q-1 4 -4 4t-4 -4l-75 -280h160z" />
    <glyph glyph-name="Aring.ss01" 
d="M313 739q-84 0 -84 83t84 83q83 0 83 -83t-83 -83zM313 854q-29 0 -29 -32q0 -31 29 -31t29 31q0 32 -29 32zM398 652l190 -635q6 -17 -13 -17h-101q-11 0 -16 14l-36 133h-219l-35 -133q-5 -14 -17 -14h-105q-19 0 -13 17l194 635q9 29 25.5 38.5t52.5 9.5h20
q33 0 49 -10.5t24 -37.5zM392 257l-77 280q-1 4 -4 4t-4 -4l-75 -280h160z" />
    <glyph glyph-name="Atilde.ss01" 
d="M202 756q-32 0 -32 18q8 97 80 97q26 0 58 -16.5t42 -16.5q18 0 27 23q5 13 10 16t25 3q22 0 29.5 -4t7.5 -15q-1 -21 -8 -41.5t-27.5 -40t-50.5 -19.5q-25 0 -53.5 16.5t-39.5 16.5q-20 0 -30 -22q-5 -10 -11 -12.5t-27 -2.5zM398 652l190 -635q6 -17 -13 -17h-101
q-11 0 -16 14l-36 133h-219l-35 -133q-5 -14 -17 -14h-105q-19 0 -13 17l194 635q9 29 25.5 38.5t52.5 9.5h20q33 0 49 -10.5t24 -37.5zM392 257l-77 280q-1 4 -4 4t-4 -4l-75 -280h160z" />
    <glyph glyph-name="V.ss01" horiz-adv-x="593" 
d="M452 700h105q19 0 13 -17l-190 -645q-8 -27 -26 -37t-56 -10q-46 0 -63 9t-26 38l-186 645q-5 17 13 17h101q13 0 16 -14l139 -524q1 -4 4 -4q4 0 4 4l135 524q5 14 17 14z" />
    <glyph glyph-name="W.ss01" horiz-adv-x="810" 
d="M678 699h95q18 0 15 -18l-131 -638q-11 -50 -61 -50h-44q-50 0 -62 50l-85 390q-1 3 -3 3t-2 -3l-81 -389q-12 -51 -61 -51h-44q-51 0 -62 50l-129 638q-5 18 15 18h95q15 0 18 -15l86 -508q1 -3 3 -3q3 0 3 3l110 508q3 16 20 16h68q16 0 20 -16l112 -508q0 -3 3 -3
q2 0 3 4l80 507q3 15 19 15z" />
    <glyph glyph-name="Wacute.ss01" horiz-adv-x="810" 
d="M500 885l44 -20q22 -11 5 -28l-93 -83q-15 -13 -45 -13h-42q-10 0 -13 4t2 11l88 119q11 14 22 16.5t32 -6.5zM678 699h95q18 0 15 -18l-131 -638q-11 -50 -61 -50h-44q-50 0 -62 50l-85 390q-1 3 -3 3t-2 -3l-81 -389q-12 -51 -61 -51h-44q-51 0 -62 50l-129 638
q-5 18 15 18h95q15 0 18 -15l86 -508q1 -3 3 -3q3 0 3 3l110 508q3 16 20 16h68q16 0 20 -16l112 -508q0 -3 3 -3q2 0 3 4l80 507q3 15 19 15z" />
    <glyph glyph-name="Wcircumflex.ss01" horiz-adv-x="810" 
d="M415 865l98 -49q12 -5 9 -14l-10 -46q-2 -10 -6 -12.5t-15 0.5l-76 32q-11 4 -21 0l-76 -32q-10 -4 -14.5 -2.5t-7.5 14.5l-10 46q-1 8 10 14l99 49q10 4 20 0zM678 699h95q18 0 15 -18l-131 -638q-11 -50 -61 -50h-44q-50 0 -62 50l-85 390q-1 3 -3 3t-2 -3l-81 -389
q-12 -51 -61 -51h-44q-51 0 -62 50l-129 638q-5 18 15 18h95q15 0 18 -15l86 -508q1 -3 3 -3q3 0 3 3l110 508q3 16 20 16h68q16 0 20 -16l112 -508q0 -3 3 -3q2 0 3 4l80 507q3 15 19 15z" />
    <glyph glyph-name="Wdieresis.ss01" horiz-adv-x="810" 
d="M274 870h77q15 0 15 -15v-89q0 -16 -15 -16h-77q-14 0 -14 16v89q0 15 14 15zM456 870h76q15 0 15 -15v-89q0 -16 -15 -16h-76q-15 0 -15 16v89q0 15 15 15zM678 699h95q18 0 15 -18l-131 -638q-11 -50 -61 -50h-44q-50 0 -62 50l-85 390q-1 3 -3 3t-2 -3l-81 -389
q-12 -51 -61 -51h-44q-51 0 -62 50l-129 638q-5 18 15 18h95q15 0 18 -15l86 -508q1 -3 3 -3q3 0 3 3l110 508q3 16 20 16h68q16 0 20 -16l112 -508q0 -3 3 -3q2 0 3 4l80 507q3 15 19 15z" />
    <glyph glyph-name="Wgrave.ss01" horiz-adv-x="810" 
d="M273 878l82 22q20 4 27 -12l57 -116q9 -22 -13 -22h-33q-17 0 -31 12l-95 92q-7 8 -5 15t11 9zM678 699h95q18 0 15 -18l-131 -638q-11 -50 -61 -50h-44q-50 0 -62 50l-85 390q-1 3 -3 3t-2 -3l-81 -389q-12 -51 -61 -51h-44q-51 0 -62 50l-129 638q-5 18 15 18h95
q15 0 18 -15l86 -508q1 -3 3 -3q3 0 3 3l110 508q3 16 20 16h68q16 0 20 -16l112 -508q0 -3 3 -3q2 0 3 4l80 507q3 15 19 15z" />
    <glyph glyph-name="Y.ss01" horiz-adv-x="558" 
d="M431 700h94q12 0 16 -6.5t-2 -18.5l-186 -373q-9 -18 -9 -44v-246q0 -12 -14 -12h-102q-13 0 -13 12v246q0 25 -10 44l-185 372q-6 11 -0.5 18.5t17.5 7.5h85q16 0 21.5 -4t11.5 -16l120 -263q6 -15 12 0l119 265q7 18 25 18z" />
    <glyph glyph-name="Yacute.ss01" horiz-adv-x="558" 
d="M376 885l45 -20q22 -10 4 -28l-92 -83q-15 -13 -45 -13h-43q-21 0 -11 15l88 119q19 26 54 10zM431 700h94q12 0 16 -6.5t-2 -18.5l-186 -373q-9 -18 -9 -44v-246q0 -12 -14 -12h-102q-13 0 -13 12v246q0 25 -10 44l-185 372q-6 11 -0.5 18.5t17.5 7.5h85q16 0 21.5 -4
t11.5 -16l120 -263q6 -15 12 0l119 265q7 18 25 18z" />
    <glyph glyph-name="Ycircumflex.ss01" horiz-adv-x="558" 
d="M291 865l98 -49q12 -5 9 -14l-10 -46q-2 -10 -6 -12.5t-15 0.5l-76 32q-11 4 -21 0l-76 -32q-10 -4 -14 -2.5t-8 14.5l-10 46q-1 8 10 14l99 49q10 4 20 0zM431 700h94q12 0 16 -6.5t-2 -18.5l-186 -373q-9 -18 -9 -44v-246q0 -12 -14 -12h-102q-13 0 -13 12v246
q0 25 -10 44l-185 372q-6 11 -0.5 18.5t17.5 7.5h85q16 0 21.5 -4t11.5 -16l120 -263q6 -15 12 0l119 265q7 18 25 18z" />
    <glyph glyph-name="Ydieresis.ss01" horiz-adv-x="558" 
d="M151 870h77q14 0 14 -15v-89q0 -16 -14 -16h-77q-15 0 -15 16v89q0 15 15 15zM332 870h77q14 0 14 -15v-89q0 -16 -14 -16h-77q-15 0 -15 16v89q0 15 15 15zM431 700h94q12 0 16 -6.5t-2 -18.5l-186 -373q-9 -18 -9 -44v-246q0 -12 -14 -12h-102q-13 0 -13 12v246
q0 25 -10 44l-185 372q-6 11 -0.5 18.5t17.5 7.5h85q16 0 21.5 -4t11.5 -16l120 -263q6 -15 12 0l119 265q7 18 25 18z" />
    <glyph glyph-name="Ygrave.ss01" horiz-adv-x="558" 
d="M149 878l82 22q21 4 28 -12l56 -116q9 -22 -12 -22h-34q-18 0 -30 13l-96 91q-7 8 -5 15t11 9zM431 700h94q12 0 16 -6.5t-2 -18.5l-186 -373q-9 -18 -9 -44v-246q0 -12 -14 -12h-102q-13 0 -13 12v246q0 25 -10 44l-185 372q-6 11 -0.5 18.5t17.5 7.5h85q16 0 21.5 -4
t11.5 -16l120 -263q6 -15 12 0l119 265q7 18 25 18z" />
    <glyph glyph-name="a.sc.ss01" horiz-adv-x="487" 
d="M326 499l141 -483q4 -16 -12 -16h-95q-10 0 -15 13l-23 87h-153l-22 -87q-3 -13 -16 -13h-99q-17 0 -11 16l144 483q8 25 24 34t50 9h18q31 0 46.5 -9t22.5 -34zM295 203l-48 185q-1 3 -3 3t-3 -3l-46 -185h100z" />
    <glyph glyph-name="aacute.sc.ss01" horiz-adv-x="487" 
d="M257 615h-52q-11 0 -14.5 5.5t0.5 12.5l46 108q4 10 18 10h108q12 0 15.5 -7t-4.5 -14l-99 -107q-10 -8 -18 -8zM326 499l141 -483q4 -16 -12 -16h-95q-10 0 -15 13l-23 87h-153l-22 -87q-3 -13 -16 -13h-99q-17 0 -11 16l144 483q8 25 24 34t50 9h18q31 0 46.5 -9
t22.5 -34zM295 203l-48 185q-1 3 -3 3t-3 -3l-46 -185h100z" />
    <glyph glyph-name="abreve.sc.ss01" horiz-adv-x="487" 
d="M320 742h40q16 0 16 -14q0 -58 -31 -85.5t-98 -27.5t-98 27.5t-31 85.5q0 14 16 14h40q13 0 14 -14q2 -20 15 -29t44 -9q30 0 43 9t16 29q1 14 14 14zM326 499l141 -483q4 -16 -12 -16h-95q-10 0 -15 13l-23 87h-153l-22 -87q-3 -13 -16 -13h-99q-17 0 -11 16l144 483
q8 25 24 34t50 9h18q31 0 46.5 -9t22.5 -34zM295 203l-48 185q-1 3 -3 3t-3 -3l-46 -185h100z" />
    <glyph glyph-name="acircumflex.sc.ss01" horiz-adv-x="487" 
d="M134 638l-10 46q-1 10 9 14l99 49q10 4 21 0l98 -49q11 -4 9 -14l-11 -46q-1 -19 -21 -12l-75 32q-9 4 -21 0l-76 -32q-10 -4 -14.5 -2.5t-7.5 14.5zM326 499l141 -483q4 -16 -12 -16h-95q-10 0 -15 13l-23 87h-153l-22 -87q-3 -13 -16 -13h-99q-17 0 -11 16l144 483
q8 25 24 34t50 9h18q31 0 46.5 -9t22.5 -34zM295 203l-48 185q-1 3 -3 3t-3 -3l-46 -185h100z" />
    <glyph glyph-name="adieresis.sc.ss01" horiz-adv-x="487" 
d="M202 625h-69q-15 0 -15 15v96q0 15 15 15h69q15 0 15 -15v-96q0 -15 -15 -15zM360 625h-69q-14 0 -14 15v96q0 15 14 15h69q15 0 15 -15v-96q0 -15 -15 -15zM326 499l141 -483q4 -16 -12 -16h-95q-10 0 -15 13l-23 87h-153l-22 -87q-3 -13 -16 -13h-99q-17 0 -11 16
l144 483q8 25 24 34t50 9h18q31 0 46.5 -9t22.5 -34zM295 203l-48 185q-1 3 -3 3t-3 -3l-46 -185h100z" />
    <glyph glyph-name="agrave.sc.ss01" horiz-adv-x="487" 
d="M200 627l-84 107q-5 7 -3 12t11 5h101q13 0 18 -14l32 -100q6 -22 -13 -22h-33q-19 0 -29 12zM326 499l141 -483q4 -16 -12 -16h-95q-10 0 -15 13l-23 87h-153l-22 -87q-3 -13 -16 -13h-99q-17 0 -11 16l144 483q8 25 24 34t50 9h18q31 0 46.5 -9t22.5 -34zM295 203
l-48 185q-1 3 -3 3t-3 -3l-46 -185h100z" />
    <glyph glyph-name="amacron.sc.ss01" horiz-adv-x="487" 
d="M352 636h-228q-12 0 -12 14v65q0 14 12 14h228q5 0 9.5 -4.5t4.5 -9.5v-65q0 -5 -4.5 -9.5t-9.5 -4.5zM326 499l141 -483q4 -16 -12 -16h-95q-10 0 -15 13l-23 87h-153l-22 -87q-3 -13 -16 -13h-99q-17 0 -11 16l144 483q8 25 24 34t50 9h18q31 0 46.5 -9t22.5 -34z
M295 203l-48 185q-1 3 -3 3t-3 -3l-46 -185h100z" />
    <glyph glyph-name="aogonek.sc.ss01" horiz-adv-x="487" 
d="M326 499l141 -483q4 -14 -10 -16q-63 -24 -63 -96q0 -58 37 -58q7 0 17 1.5t14 1.5q10 0 10 -13v-24q0 -16 -16 -26q-27 -16 -71 -16q-51 0 -72.5 24.5t-21.5 76.5q0 80 75 129h-6q-10 0 -15 13l-23 87h-153l-22 -87q-3 -13 -16 -13h-99q-17 0 -11 16l144 483q8 25 24 34
t50 9h18q31 0 46.5 -9t22.5 -34zM295 203l-48 185q-1 3 -3 3t-3 -3l-46 -185h100z" />
    <glyph glyph-name="aring.sc.ss01" horiz-adv-x="487" 
d="M247 591q-84 0 -84 83q0 44 21 63t63 19q41 0 62 -19t21 -63t-21 -63.5t-62 -19.5zM247 705q-29 0 -29 -31q0 -32 29 -32t29 32q0 31 -29 31zM326 499l141 -483q4 -16 -12 -16h-95q-10 0 -15 13l-23 87h-153l-22 -87q-3 -13 -16 -13h-99q-17 0 -11 16l144 483q8 25 24 34
t50 9h18q31 0 46.5 -9t22.5 -34zM295 203l-48 185q-1 3 -3 3t-3 -3l-46 -185h100z" />
    <glyph glyph-name="atilde.sc.ss01" horiz-adv-x="487" 
d="M139 633q-32 0 -32 17q8 97 80 97q26 0 58 -16t42 -16q18 0 27 23q5 13 10.5 16t24.5 3q21 0 29 -4t8 -15q-1 -21 -8 -42t-27.5 -40.5t-50.5 -19.5q-25 0 -53.5 17t-39.5 17q-19 0 -30 -22q-5 -10 -11 -12.5t-27 -2.5zM326 499l141 -483q4 -16 -12 -16h-95q-10 0 -15 13
l-23 87h-153l-22 -87q-3 -13 -16 -13h-99q-17 0 -11 16l144 483q8 25 24 34t50 9h18q31 0 46.5 -9t22.5 -34zM295 203l-48 185q-1 3 -3 3t-3 -3l-46 -185h100z" />
    <glyph glyph-name="v.sc.ss01" horiz-adv-x="505" 
d="M370 542h93q9 0 13 -5.5t1 -13.5l-140 -483q-14 -49 -85 -49q-37 0 -57.5 11t-28.5 38l-138 483q-3 8 1 13.5t13 5.5h94q16 0 19 -14l92 -391q0 -2 4 -2q2 0 4 2l96 391q3 14 19 14z" />
    <glyph glyph-name="w.sc.ss01" horiz-adv-x="699" 
d="M566 544h89q19 0 14 -18l-101 -486q-9 -45 -56 -45h-45q-44 0 -56 45l-62 274q-2 2 -3 2t-1 -2l-59 -274q-10 -45 -56 -45h-44q-47 0 -56 45l-100 486q-3 18 14 18h89q14 0 17 -15l62 -384q0 -3 2 -3t2 3l80 362q5 25 13 31t32 6h18q26 0 34 -6.5t14 -31.5l81 -361l2 -3
q2 0 2 3l57 384q3 15 17 15z" />
    <glyph glyph-name="wacute.sc.ss01" horiz-adv-x="699" 
d="M355 744h108q13 0 16.5 -7t-4.5 -14l-99 -107q-11 -8 -19 -8h-51q-24 0 -14 19l46 107q3 10 17 10zM566 544h89q19 0 14 -18l-101 -486q-9 -45 -56 -45h-45q-44 0 -56 45l-62 274q-2 2 -3 2t-1 -2l-59 -274q-10 -45 -56 -45h-44q-47 0 -56 45l-100 486q-3 18 14 18h89
q14 0 17 -15l62 -384q0 -3 2 -3t2 3l80 362q5 25 13 31t32 6h18q26 0 34 -6.5t14 -31.5l81 -361l2 -3q2 0 2 3l57 384q3 15 17 15z" />
    <glyph glyph-name="wcircumflex.sc.ss01" horiz-adv-x="699" 
d="M353 740l99 -49q11 -4 8 -14l-10 -46q-3 -18 -21 -11l-76 31q-8 4 -21 0l-76 -31q-10 -5 -14 -3.5t-7 14.5l-11 46q-1 10 10 14l99 49q10 4 20 0zM566 544h89q19 0 14 -18l-101 -486q-9 -45 -56 -45h-45q-44 0 -56 45l-62 274q-2 2 -3 2t-1 -2l-59 -274q-10 -45 -56 -45
h-44q-47 0 -56 45l-100 486q-3 18 14 18h89q14 0 17 -15l62 -384q0 -3 2 -3t2 3l80 362q5 25 13 31t32 6h18q26 0 34 -6.5t14 -31.5l81 -361l2 -3q2 0 2 3l57 384q3 15 17 15z" />
    <glyph glyph-name="wdieresis.sc.ss01" horiz-adv-x="699" 
d="M234 744h69q14 0 14 -15v-96q0 -15 -14 -15h-69q-15 0 -15 15v96q0 15 15 15zM392 744h69q15 0 15 -15v-96q0 -15 -15 -15h-69q-15 0 -15 15v96q0 15 15 15zM566 544h89q19 0 14 -18l-101 -486q-9 -45 -56 -45h-45q-44 0 -56 45l-62 274q-2 2 -3 2t-1 -2l-59 -274
q-10 -45 -56 -45h-44q-47 0 -56 45l-100 486q-3 18 14 18h89q14 0 17 -15l62 -384q0 -3 2 -3t2 3l80 362q5 25 13 31t32 6h18q26 0 34 -6.5t14 -31.5l81 -361l2 -3q2 0 2 3l57 384q3 15 17 15z" />
    <glyph glyph-name="wgrave.sc.ss01" horiz-adv-x="699" 
d="M224 744h102q13 0 18 -13l32 -101q6 -22 -13 -22h-33q-18 0 -29 12l-85 107q-11 17 8 17zM566 544h89q19 0 14 -18l-101 -486q-9 -45 -56 -45h-45q-44 0 -56 45l-62 274q-2 2 -3 2t-1 -2l-59 -274q-10 -45 -56 -45h-44q-47 0 -56 45l-100 486q-3 18 14 18h89q14 0 17 -15
l62 -384q0 -3 2 -3t2 3l80 362q5 25 13 31t32 6h18q26 0 34 -6.5t14 -31.5l81 -361l2 -3q2 0 2 3l57 384q3 15 17 15z" />
    <glyph glyph-name="y.sc.ss01" horiz-adv-x="478" 
d="M362 542h70q43 0 21 -38l-138 -264q-15 -26 -15 -62v-161q0 -17 -17 -17h-88q-17 0 -17 17v161q0 36 -15 62l-138 264q-10 16 -4 27t27 11h67q16 0 23 -4t14 -19l86 -179q4 -10 8 0l80 179q6 15 13 19t23 4z" />
    <glyph glyph-name="yacute.sc.ss01" horiz-adv-x="478" 
d="M243 725h108q13 0 16 -7.5t-5 -14.5l-99 -106q-9 -9 -18 -9h-51q-23 0 -15 19l46 107q5 11 18 11zM362 542h70q43 0 21 -38l-138 -264q-15 -26 -15 -62v-161q0 -17 -17 -17h-88q-17 0 -17 17v161q0 36 -15 62l-138 264q-10 16 -4 27t27 11h67q16 0 23 -4t14 -19l86 -179
q4 -10 8 0l80 179q6 15 13 19t23 4z" />
    <glyph glyph-name="ycircumflex.sc.ss01" horiz-adv-x="478" 
d="M241 720l98 -48q12 -5 9 -14l-10 -47q-3 -17 -21 -11l-76 31q-8 4 -21 0l-76 -31q-10 -5 -14.5 -3.5t-7.5 14.5l-10 47q-1 8 10 14l99 48q10 6 20 0zM362 542h70q43 0 21 -38l-138 -264q-15 -26 -15 -62v-161q0 -17 -17 -17h-88q-17 0 -17 17v161q0 36 -15 62l-138 264
q-10 16 -4 27t27 11h67q16 0 23 -4t14 -19l86 -179q4 -10 8 0l80 179q6 15 13 19t23 4z" />
    <glyph glyph-name="ydieresis.sc.ss01" horiz-adv-x="478" 
d="M122 725h68q15 0 15 -16v-95q0 -16 -15 -16h-68q-15 0 -15 16v95q0 16 15 16zM280 725h69q14 0 14 -16v-95q0 -16 -14 -16h-69q-15 0 -15 16v95q0 16 15 16zM362 542h70q43 0 21 -38l-138 -264q-15 -26 -15 -62v-161q0 -17 -17 -17h-88q-17 0 -17 17v161q0 36 -15 62
l-138 264q-10 16 -4 27t27 11h67q16 0 23 -4t14 -19l86 -179q4 -10 8 0l80 179q6 15 13 19t23 4z" />
    <glyph glyph-name="ygrave.sc.ss01" horiz-adv-x="478" 
d="M112 725h101q14 0 19 -14l32 -101q6 -22 -13 -22h-33q-19 0 -29 13l-85 107q-5 6 -3 11.5t11 5.5zM362 542h70q43 0 21 -38l-138 -264q-15 -26 -15 -62v-161q0 -17 -17 -17h-88q-17 0 -17 17v161q0 36 -15 62l-138 264q-10 16 -4 27t27 11h67q16 0 23 -4t14 -19l86 -179
q4 -10 8 0l80 179q6 15 13 19t23 4z" />
    <glyph glyph-name="v.ss01" horiz-adv-x="497" 
d="M358 514h90q9 0 13 -5.5t1 -13.5l-140 -463q-7 -23 -18 -32t-34 -9h-43q-44 0 -55 41l-137 463q-3 8 1 13.5t13 5.5h91q15 0 18 -15l84 -352q1 -4 5 -4t4 4l89 352q3 15 18 15z" />
    <glyph glyph-name="w.ss01" horiz-adv-x="690" 
d="M556 514h87q18 0 13 -17l-101 -458q-9 -44 -54 -44h-41q-44 0 -55 44l-60 261q-1 3 -2 3q-2 0 -3 -3l-56 -261q-11 -44 -54 -44h-41q-45 0 -55 44l-100 458q-3 17 14 17h87q14 0 17 -14l60 -358q0 -3 2 -3l2 3l82 359q3 13 17 13h64q14 2 17 -13l84 -359q1 -2 2 -2
q2 0 2 2l55 358q3 14 17 14z" />
    <glyph glyph-name="wacute.ss01" horiz-adv-x="690" 
d="M355 714h108q13 0 16 -7.5t-5 -14.5l-99 -106q-9 -9 -18 -9h-51q-23 0 -15 19l47 107q3 11 17 11zM556 514h87q18 0 13 -17l-101 -458q-9 -44 -54 -44h-41q-44 0 -55 44l-60 261q-1 3 -2 3q-2 0 -3 -3l-56 -261q-11 -44 -54 -44h-41q-45 0 -55 44l-100 458q-3 17 14 17
h87q14 0 17 -14l60 -358q0 -3 2 -3l2 3l82 359q3 13 17 13h64q14 2 17 -13l84 -359q1 -2 2 -2q2 0 2 2l55 358q3 14 17 14z" />
    <glyph glyph-name="wcircumflex.ss01" horiz-adv-x="690" 
d="M353 709l98 -48q12 -5 9 -14l-10 -47q-3 -17 -21 -11l-76 31q-8 4 -21 0l-76 -31q-10 -5 -14 -3.5t-8 14.5l-10 47q-1 8 10 14l99 48q10 6 20 0zM556 514h87q18 0 13 -17l-101 -458q-9 -44 -54 -44h-41q-44 0 -55 44l-60 261q-1 3 -2 3q-2 0 -3 -3l-56 -261
q-11 -44 -54 -44h-41q-45 0 -55 44l-100 458q-3 17 14 17h87q14 0 17 -14l60 -358q0 -3 2 -3l2 3l82 359q3 13 17 13h64q14 2 17 -13l84 -359q1 -2 2 -2q2 0 2 2l55 358q3 14 17 14z" />
    <glyph glyph-name="wdieresis.ss01" horiz-adv-x="690" 
d="M234 714h68q15 0 15 -16v-95q0 -16 -15 -16h-68q-15 0 -15 16v95q0 16 15 16zM392 714h69q15 0 15 -16v-95q0 -16 -15 -16h-69q-15 0 -15 16v95q0 16 15 16zM556 514h87q18 0 13 -17l-101 -458q-9 -44 -54 -44h-41q-44 0 -55 44l-60 261q-1 3 -2 3q-2 0 -3 -3l-56 -261
q-11 -44 -54 -44h-41q-45 0 -55 44l-100 458q-3 17 14 17h87q14 0 17 -14l60 -358q0 -3 2 -3l2 3l82 359q3 13 17 13h64q14 2 17 -13l84 -359q1 -2 2 -2q2 0 2 2l55 358q3 14 17 14z" />
    <glyph glyph-name="wgrave.ss01" horiz-adv-x="690" 
d="M224 714h101q14 0 19 -14l32 -101q6 -22 -13 -22h-33q-19 0 -29 13l-85 107q-5 6 -3 11.5t11 5.5zM556 514h87q18 0 13 -17l-101 -458q-9 -44 -54 -44h-41q-44 0 -55 44l-60 261q-1 3 -2 3q-2 0 -3 -3l-56 -261q-11 -44 -54 -44h-41q-45 0 -55 44l-100 458q-3 17 14 17
h87q14 0 17 -14l60 -358q0 -3 2 -3l2 3l82 359q3 13 17 13h64q14 2 17 -13l84 -359q1 -2 2 -2q2 0 2 2l55 358q3 14 17 14z" />
    <glyph glyph-name="a.sc" horiz-adv-x="508" 
d="M104 419l100 108q22 25 49 25t51 -26l96 -103q26 -28 33 -46.5t7 -54.5v-305q0 -17 -17 -17h-86q-17 0 -17 17v114q0 9 -10 9h-112q-9 0 -9 -9v-114q0 -17 -18 -17h-85q-18 0 -18 17v305q0 36 7 55.5t29 41.5zM311 358l-48 52q-11 12 -20 0l-45 -51q-9 -10 -9 -23v-88
q0 -10 9 -10h112q10 0 10 10v88q0 13 -9 22z" />
    <glyph glyph-name="aacute.sc" horiz-adv-x="508" 
d="M263 725h108q12 0 15.5 -7.5t-4.5 -14.5l-99 -106q-9 -9 -18 -9h-52q-11 0 -14.5 6t0.5 13l46 107q5 11 18 11zM104 419l100 108q22 25 49 25t51 -26l96 -103q26 -28 33 -46.5t7 -54.5v-305q0 -17 -17 -17h-86q-17 0 -17 17v114q0 9 -10 9h-112q-9 0 -9 -9v-114
q0 -17 -18 -17h-85q-18 0 -18 17v305q0 36 7 55.5t29 41.5zM311 358l-48 52q-11 12 -20 0l-45 -51q-9 -10 -9 -23v-88q0 -10 9 -10h112q10 0 10 10v88q0 13 -9 22z" />
    <glyph glyph-name="acircumflex.sc" horiz-adv-x="508" 
d="M261 720l98 -48q12 -5 9 -14l-10 -47q-3 -17 -21 -11l-76 31q-9 4 -21 0l-76 -31q-10 -5 -14.5 -3.5t-7.5 14.5l-10 47q-1 8 9 14l99 48q11 6 21 0zM104 419l100 108q22 25 49 25t51 -26l96 -103q26 -28 33 -46.5t7 -54.5v-305q0 -17 -17 -17h-86q-17 0 -17 17v114
q0 9 -10 9h-112q-9 0 -9 -9v-114q0 -17 -18 -17h-85q-18 0 -18 17v305q0 36 7 55.5t29 41.5zM311 358l-48 52q-11 12 -20 0l-45 -51q-9 -10 -9 -23v-88q0 -10 9 -10h112q10 0 10 10v88q0 13 -9 22z" />
    <glyph glyph-name="adieresis.sc" horiz-adv-x="508" 
d="M141 725h69q15 0 15 -16v-95q0 -16 -15 -16h-69q-14 0 -14 16v95q0 16 14 16zM300 725h68q15 0 15 -16v-95q0 -16 -15 -16h-68q-15 0 -15 16v95q0 16 15 16zM104 419l100 108q22 25 49 25t51 -26l96 -103q26 -28 33 -46.5t7 -54.5v-305q0 -17 -17 -17h-86q-17 0 -17 17
v114q0 9 -10 9h-112q-9 0 -9 -9v-114q0 -17 -18 -17h-85q-18 0 -18 17v305q0 36 7 55.5t29 41.5zM311 358l-48 52q-11 12 -20 0l-45 -51q-9 -10 -9 -23v-88q0 -10 9 -10h112q10 0 10 10v88q0 13 -9 22z" />
    <glyph glyph-name="agrave.sc" horiz-adv-x="508" 
d="M132 725h101q13 0 18 -14l33 -101q5 -22 -13 -22h-34q-19 0 -28 13l-85 107q-5 6 -3 11.5t11 5.5zM104 419l100 108q22 25 49 25t51 -26l96 -103q26 -28 33 -46.5t7 -54.5v-305q0 -17 -17 -17h-86q-17 0 -17 17v114q0 9 -10 9h-112q-9 0 -9 -9v-114q0 -17 -18 -17h-85
q-18 0 -18 17v305q0 36 7 55.5t29 41.5zM311 358l-48 52q-11 12 -20 0l-45 -51q-9 -10 -9 -23v-88q0 -10 9 -10h112q10 0 10 10v88q0 13 -9 22z" />
    <glyph glyph-name="aring.sc" horiz-adv-x="508" 
d="M255 730q84 0 84 -83t-84 -83q-83 0 -83 83q0 44 21 63.5t62 19.5zM255 679q-29 0 -29 -32q0 -31 29 -31t29 31q0 32 -29 32zM104 419l100 108q22 25 49 25t51 -26l96 -103q26 -28 33 -46.5t7 -54.5v-305q0 -17 -17 -17h-86q-17 0 -17 17v114q0 9 -10 9h-112q-9 0 -9 -9
v-114q0 -17 -18 -17h-85q-18 0 -18 17v305q0 36 7 55.5t29 41.5zM311 358l-48 52q-11 12 -20 0l-45 -51q-9 -10 -9 -23v-88q0 -10 9 -10h112q10 0 10 10v88q0 13 -9 22z" />
    <glyph glyph-name="atilde.sc" horiz-adv-x="508" 
d="M357 730q22 0 29.5 -4t7.5 -15q-1 -21 -8 -41.5t-27.5 -40t-50.5 -19.5q-25 0 -53.5 16.5t-39.5 16.5q-20 0 -30 -22q-5 -10 -11 -12.5t-26 -2.5q-19 0 -26 4t-6 14q8 97 79 97q26 0 58.5 -16t42.5 -16q17 0 26 22q6 13 11 16t24 3zM104 419l100 108q22 25 49 25t51 -26
l96 -103q26 -28 33 -46.5t7 -54.5v-305q0 -17 -17 -17h-86q-17 0 -17 17v114q0 9 -10 9h-112q-9 0 -9 -9v-114q0 -17 -18 -17h-85q-18 0 -18 17v305q0 36 7 55.5t29 41.5zM311 358l-48 52q-11 12 -20 0l-45 -51q-9 -10 -9 -23v-88q0 -10 9 -10h112q10 0 10 10v88q0 13 -9 22
z" />
    <glyph glyph-name="ae.sc" horiz-adv-x="631" 
d="M257 543h301q21 0 21 -20v-64q0 -19 -21 -19h-128q-19 0 -25 -5.5t-6 -18.5v-78q0 -10 10 -10h116q20 0 20 -19v-66q0 -19 -20 -19h-116q-10 0 -10 -12v-63q0 -28 9 -37t35 -9h115q21 0 21 -19v-63q0 -9 -6 -15t-15 -6h-177q-101 0 -101 96v22q0 8 -9 8h-71
q-11 0 -11 -12v-93q0 -21 -18 -21h-83q-20 0 -20 21v318q0 50 38 90l74 83q28 31 77 31zM275 423h-16q-9 0 -13 -6l-47 -53q-10 -11 -10 -27v-103q0 -11 11 -11h66q13 0 13 11v184q0 5 -4 5z" />
    <glyph glyph-name="b.sc" horiz-adv-x="488" 
d="M68 68v315q0 83 44.5 126t130.5 43q170 0 170 -138q0 -90 -59 -118q-5 -4 0 -6q80 -23 80 -134q0 -70 -45 -113t-137 -43h-110q-34 0 -54 20.5t-20 47.5zM192 320h45q65 0 65 66q0 34 -14 48.5t-46 14.5q-34 0 -48 -12.5t-14 -43.5v-62q0 -11 12 -11zM250 235h-58
q-12 0 -12 -11v-108q0 -12 12 -12h56q35 0 51.5 15.5t16.5 50.5t-16 50t-50 15z" />
    <glyph glyph-name="c.sc" horiz-adv-x="445" 
d="M400 86l6 -53q1 -15 -4 -21.5t-20 -11.5q-34 -9 -108 -9q-120 0 -168.5 62.5t-48.5 219.5q0 151 49.5 215t168.5 64q57 0 110 -11q21 -5 18 -29l-6 -58q-1 -16 -19 -16q-84 7 -87 7q-59 0 -84 -35t-25 -137q0 -107 24 -141t86 -34q31 0 59 2t30 2q18 0 19 -16z" />
    <glyph glyph-name="ccaron.sc" horiz-adv-x="445" 
d="M276 679l69 29q18 5 22 -12l10 -46q1 -9 -10 -14l-99 -49q-6 -3 -10 -3q-6 0 -10 3l-98 49q-10 4 -9 14l10 46q2 10 6 12.5t15 -0.5l64 -28q3 -1 8 -3t9 -3.5t5 -1.5q2 0 18 7zM400 86l6 -53q1 -15 -4 -21.5t-20 -11.5q-34 -9 -108 -9q-120 0 -168.5 62.5t-48.5 219.5
q0 151 49.5 215t168.5 64q57 0 110 -11q21 -5 18 -29l-6 -58q-1 -16 -19 -16q-84 7 -87 7q-59 0 -84 -35t-25 -137q0 -107 24 -141t86 -34q31 0 59 2t30 2q18 0 19 -16z" />
    <glyph glyph-name="ccedilla.sc" horiz-adv-x="445" 
d="M400 86l6 -53q1 -15 -4 -21.5t-20 -11.5q-21 -5 -63 -8l-47 -120q-9 -23 -31 -23h-53q-21 0 -15 18l39 128q-84 14 -119.5 78.5t-35.5 199.5q0 151 49.5 215t168.5 64q57 0 110 -11q21 -5 18 -29l-6 -58q-1 -16 -19 -16q-84 7 -87 7q-59 0 -84 -35t-25 -137
q0 -107 24 -141t86 -34q31 0 59 2t30 2q18 0 19 -16z" />
    <glyph glyph-name="d.sc" horiz-adv-x="527" 
d="M139 543h122q106 0 157.5 -61.5t50.5 -209.5q0 -148 -51.5 -210t-156.5 -62h-122q-71 0 -71 71v402q0 70 71 70zM256 434h-51q-15 0 -15 -15v-295q0 -15 15 -15h51q52 0 71 35t19 128q0 91 -20 126.5t-70 35.5z" />
    <glyph glyph-name="eth.sc" horiz-adv-x="530" 
d="M139 543h122q106 0 157.5 -61.5t50.5 -209.5q0 -148 -51.5 -210t-156.5 -62h-122q-70 0 -70 71v149q-2 7 -12 7h-39q-12 0 -12 11v74q0 9 2.5 11t9.5 2h39q12 0 12 11v137q0 70 70 70zM256 434h-52q-14 0 -14 -15v-86q0 -8 12 -8h49q14 0 14 -13v-72q0 -5 -4.5 -9
t-9.5 -4h-49q-12 0 -12 -12v-91q0 -15 14 -15h52q52 0 71 35t19 128q0 91 -20 126.5t-70 35.5z" />
    <glyph glyph-name="e.sc" horiz-adv-x="447" 
d="M226 542h152q17 0 17 -17v-75q0 -18 -17 -18h-137q-33 0 -42.5 -8.5t-9.5 -38.5v-50q0 -12 10 -12h154q18 0 18 -17v-64q0 -17 -18 -17h-154q-10 0 -10 -12v-56q0 -31 9 -39.5t41 -8.5h139q17 0 17 -18v-74q0 -17 -17 -17h-152q-83 0 -120.5 35t-37.5 114v243
q0 82 36 116t122 34z" />
    <glyph glyph-name="eacute.sc" horiz-adv-x="447" 
d="M269 725h108q13 0 16 -7.5t-5 -14.5l-99 -106q-9 -9 -18 -9h-51q-23 0 -15 19l47 107q3 11 17 11zM226 542h152q17 0 17 -17v-75q0 -18 -17 -18h-137q-33 0 -42.5 -8.5t-9.5 -38.5v-50q0 -12 10 -12h154q18 0 18 -17v-64q0 -17 -18 -17h-154q-10 0 -10 -12v-56
q0 -31 9 -39.5t41 -8.5h139q17 0 17 -18v-74q0 -17 -17 -17h-152q-83 0 -120.5 35t-37.5 114v243q0 82 36 116t122 34z" />
    <glyph glyph-name="ecircumflex.sc" horiz-adv-x="447" 
d="M267 720l98 -48q12 -5 9 -14l-10 -47q-3 -17 -21 -11l-76 31q-8 4 -21 0l-76 -31q-10 -5 -14 -3.5t-8 14.5l-10 47q-1 8 10 14l99 48q10 6 20 0zM226 542h152q17 0 17 -17v-75q0 -18 -17 -18h-137q-33 0 -42.5 -8.5t-9.5 -38.5v-50q0 -12 10 -12h154q18 0 18 -17v-64
q0 -17 -18 -17h-154q-10 0 -10 -12v-56q0 -31 9 -39.5t41 -8.5h139q17 0 17 -18v-74q0 -17 -17 -17h-152q-83 0 -120.5 35t-37.5 114v243q0 82 36 116t122 34z" />
    <glyph glyph-name="edieresis.sc" horiz-adv-x="447" 
d="M148 725h69q14 0 14 -16v-95q0 -16 -14 -16h-69q-15 0 -15 16v95q0 16 15 16zM306 725h69q15 0 15 -16v-95q0 -16 -15 -16h-69q-15 0 -15 16v95q0 16 15 16zM226 542h152q17 0 17 -17v-75q0 -18 -17 -18h-137q-33 0 -42.5 -8.5t-9.5 -38.5v-50q0 -12 10 -12h154
q18 0 18 -17v-64q0 -17 -18 -17h-154q-10 0 -10 -12v-56q0 -31 9 -39.5t41 -8.5h139q17 0 17 -18v-74q0 -17 -17 -17h-152q-83 0 -120.5 35t-37.5 114v243q0 82 36 116t122 34z" />
    <glyph glyph-name="egrave.sc" horiz-adv-x="447" 
d="M138 725h101q14 0 19 -14l32 -101q6 -22 -13 -22h-33q-19 0 -29 13l-85 107q-5 6 -3 11.5t11 5.5zM226 542h152q17 0 17 -17v-75q0 -18 -17 -18h-137q-33 0 -42.5 -8.5t-9.5 -38.5v-50q0 -12 10 -12h154q18 0 18 -17v-64q0 -17 -18 -17h-154q-10 0 -10 -12v-56
q0 -31 9 -39.5t41 -8.5h139q17 0 17 -18v-74q0 -17 -17 -17h-152q-83 0 -120.5 35t-37.5 114v243q0 82 36 116t122 34z" />
    <glyph glyph-name="eogonek.sc" horiz-adv-x="447" 
d="M387 2q-63 -24 -63 -96q0 -59 37 -59q7 0 17 1.5t13 1.5q11 0 11 -12v-25q0 -16 -16 -25q-27 -16 -71 -16q-51 0 -72.5 24.5t-21.5 76.5q0 80 73 127h-68q-83 0 -120.5 35t-37.5 114v243q0 82 36 116t122 34h152q17 0 17 -17v-75q0 -18 -17 -18h-137q-33 0 -42.5 -8.5
t-9.5 -38.5v-50q0 -12 10 -12h154q18 0 18 -17v-64q0 -17 -18 -17h-154q-10 0 -10 -12v-56q0 -31 9 -39.5t41 -8.5h139q17 0 17 -18v-74q0 -12 -8 -15z" />
    <glyph glyph-name="f.sc" horiz-adv-x="410" 
d="M213 542h141q18 0 18 -17v-75q0 -18 -18 -18h-119q-29 0 -40 -11t-11 -42v-54q0 -11 12 -11h142q17 0 17 -17v-75q0 -17 -17 -17h-142q-12 0 -12 -11v-177q0 -17 -17 -17h-87q-17 0 -17 17v368q0 93 32 125t118 32z" />
    <glyph glyph-name="g.sc" horiz-adv-x="493" 
d="M447 260v-115q0 -71 -44 -112.5t-136 -41.5q-118 0 -164 67t-46 214q0 157 49 218.5t167 61.5q73 0 121 -14q27 -9 23 -34l-6 -45q-6 -26 -23 -26q-7 0 -43 5.5t-65 5.5q-58 0 -78 -33t-20 -134q0 -72 10 -111t26 -50.5t46 -11.5q35 0 47.5 13t12.5 46v58q0 11 -11 11
h-50q-18 0 -18 17v66q0 17 18 17h112q72 0 72 -72z" />
    <glyph glyph-name="h.sc" horiz-adv-x="528" 
d="M357 542h86q17 0 17 -17v-508q0 -17 -17 -17h-86q-17 0 -17 17v188q0 11 -11 11h-130q-10 0 -10 -11v-188q0 -17 -18 -17h-85q-18 0 -18 17v508q0 17 18 17h85q18 0 18 -17v-192q0 -10 10 -10h130q11 0 11 10v192q0 17 17 17z" />
    <glyph glyph-name="i.sc" horiz-adv-x="259" 
d="M86 542h88q17 0 17 -17v-508q0 -17 -17 -17h-88q-18 0 -18 17v508q0 17 18 17z" />
    <glyph glyph-name="iacute.sc" horiz-adv-x="259" 
d="M139 725h108q13 0 16.5 -7.5t-4.5 -14.5l-99 -106q-11 -9 -19 -9h-51q-11 0 -14.5 6t0.5 13l46 107q3 11 17 11zM86 542h88q17 0 17 -17v-508q0 -17 -17 -17h-88q-18 0 -18 17v508q0 17 18 17z" />
    <glyph glyph-name="icircumflex.sc" horiz-adv-x="259" 
d="M137 720l99 -48q10 -5 9 -14l-11 -47q-1 -18 -21 -11l-76 31q-8 4 -21 0l-76 -31q-10 -5 -14 -3.5t-7 14.5l-11 47q-1 8 10 14l99 48q10 6 20 0zM86 542h88q17 0 17 -17v-508q0 -17 -17 -17h-88q-18 0 -18 17v508q0 17 18 17z" />
    <glyph glyph-name="idieresis.sc" horiz-adv-x="259" 
d="M18 725h69q14 0 14 -16v-95q0 -16 -14 -16h-69q-15 0 -15 16v95q0 16 15 16zM176 725h69q15 0 15 -16v-95q0 -16 -15 -16h-69q-14 0 -14 16v95q0 16 14 16zM86 542h88q17 0 17 -17v-508q0 -17 -17 -17h-88q-18 0 -18 17v508q0 17 18 17z" />
    <glyph glyph-name="igrave.sc" horiz-adv-x="259" 
d="M8 725h102q13 0 18 -14l32 -101q6 -22 -13 -22h-33q-19 0 -29 13l-85 107q-5 6 -3 11.5t11 5.5zM86 542h88q17 0 17 -17v-508q0 -17 -17 -17h-88q-18 0 -18 17v508q0 17 18 17z" />
    <glyph glyph-name="ij.sc" horiz-adv-x="618" 
d="M86 542h88q17 0 17 -17v-508q0 -17 -17 -17h-88q-18 0 -18 17v508q0 17 18 17zM447 542h85q18 0 18 -17v-398q0 -136 -141 -136q-63 0 -102 9q-23 7 -20 33l8 63q1 13 14 13q2 0 26 -3.5t43 -3.5q27 0 39 13.5t12 46.5v363q0 17 18 17z" />
    <glyph glyph-name="iogonek.sc" horiz-adv-x="259" 
d="M191 525v-508q0 -15 -14 -17q-62 -23 -62 -95q0 -59 37 -59q7 0 17 1.5t13 1.5q11 0 11 -13v-24q0 -16 -16 -25q-28 -17 -71 -17q-51 0 -72.5 24.5t-21.5 76.5q0 81 74 129q-18 0 -18 17v508q0 17 18 17h88q17 0 17 -17z" />
    <glyph glyph-name="j.sc" horiz-adv-x="359" 
d="M187 542h86q17 0 17 -17v-398q0 -69 -34 -102.5t-106 -33.5q-63 0 -102 9q-23 6 -20 33l7 63q3 13 15 13q1 0 25 -3.5t44 -3.5q27 0 39 13.5t12 46.5v363q0 17 17 17z" />
    <glyph glyph-name="k.sc" horiz-adv-x="499" 
d="M341 542h102q23 0 11 -21l-132 -228q-4 -7 0 -14l139 -257q10 -22 -13 -22h-97q-21 0 -28 13l-99 205q-3 4 -8 4h-22q-5 0 -5 -6v-199q0 -17 -18 -17h-85q-18 0 -18 17v508q0 17 18 17h85q18 0 18 -17v-175q0 -6 5 -6h23q6 0 8 6l94 180q7 12 22 12z" />
    <glyph glyph-name="l.sc" horiz-adv-x="419" 
d="M86 542h88q17 0 17 -17v-369q0 -30 8.5 -38.5t34.5 -8.5h136q18 0 18 -18v-74q0 -17 -18 -17h-153q-86 0 -117.5 36.5t-31.5 110.5v378q0 17 18 17z" />
    <glyph glyph-name="lacute.sc" horiz-adv-x="419" 
d="M138 725h108q12 0 15.5 -7.5t-4.5 -14.5l-99 -106q-9 -9 -18 -9h-52q-11 0 -14.5 6t0.5 13l46 107q5 11 18 11zM86 542h88q17 0 17 -17v-369q0 -30 8.5 -38.5t34.5 -8.5h136q18 0 18 -18v-74q0 -17 -18 -17h-153q-86 0 -117.5 36.5t-31.5 110.5v378q0 17 18 17z" />
    <glyph glyph-name="lcaron.sc" horiz-adv-x="419" 
d="M86 542h88q17 0 17 -17v-369q0 -30 8.5 -38.5t34.5 -8.5h136q18 0 18 -18v-74q0 -17 -18 -17h-153q-86 0 -117.5 36.5t-31.5 110.5v378q0 17 18 17zM283 542h65q15 0 15 -14v-91q0 -27 -12 -53t-42 -68q-9 -12 -27 -8l-17 5q-12 3 -12 12q16 84 16 111v92q0 14 14 14z
" />
    <glyph glyph-name="lcommaaccent.sc" horiz-adv-x="419" 
d="M86 542h88q17 0 17 -17v-369q0 -30 8.5 -38.5t34.5 -8.5h136q18 0 18 -18v-74q0 -17 -18 -17h-153q-86 0 -117.5 36.5t-31.5 110.5v378q0 17 18 17zM171 -32h77q18 0 18 -17v-31q0 -38 -14 -66t-50 -73q-12 -15 -32 -9l-20 4q-15 5 -14 15q17 102 17 127v33q0 17 18 17z
" />
    <glyph glyph-name="ldot.sc" horiz-adv-x="419" 
d="M86 542h88q17 0 17 -17v-369q0 -30 8.5 -38.5t34.5 -8.5h136q18 0 18 -18v-74q0 -17 -18 -17h-153q-86 0 -117.5 36.5t-31.5 110.5v378q0 17 18 17zM253 374h80q15 0 15 -14v-98q0 -15 -15 -15h-80q-14 0 -14 15v98q0 14 14 14z" />
    <glyph glyph-name="lslash.sc" horiz-adv-x="397" 
d="M74 227l3 70q1 6 -1.5 8t-8.5 1l-21 -46q-7 -1 -13.5 4.5t-5.5 13.5l19 55q0 16 19 18h24q11 0 9 10l-20 114q0 8 4 12.5t12 3.5l85 -26q15 -22 32 -35l27 -102q1 -12 12 -10h34q9 1 13 -3.5t3 -12.5l-27 -51q-15 -9 -21.5 -10t-18.5 11l-33 24q-10 0 -10 -11l-12 -86
q-1 -19 4 -23.5t22 -4.5l109 3q17 0 18 -15l13 -69q0 -16 -16 -16l-127 45q-74 1 -101 34t-26 94z" />
    <glyph glyph-name="m.sc" horiz-adv-x="595" 
d="M467 543h25q35 0 35 -39v-491q0 -13 -14 -13h-97q-14 0 -14 13v259q0 6 -4 4l-3 -3l-52 -84q-12 -24 -21 -32.5t-24 -8.5t-23 8t-22 33l-55 86q-3 6 -6 1l-1 -4v-259q0 -13 -13 -13h-96q-14 0 -14 13v491q0 39 38 39h24q32 0 49 -30l111 -201q3 -5 8.5 -5t7.5 5l114 201
q16 30 47 30z" />
    <glyph glyph-name="n.sc" horiz-adv-x="526" 
d="M357 542h83q18 0 18 -17v-480q0 -45 -46 -45h-25q-13 0 -22 13l-169 286q-7 11 -7 -2v-280q0 -17 -18 -17h-85q-18 0 -18 17v481q0 45 46 45h33q15 0 23 -13l163 -278q5 -6 7 1v272q0 17 17 17z" />
    <glyph glyph-name="eng.sc" horiz-adv-x="526" 
d="M114 543h33q15 0 23 -13l163 -278q5 -6 7 1v272q0 17 17 17h83q18 0 18 -17v-580q0 -85 -29.5 -121t-107.5 -36q-59 0 -98 9q-23 7 -20 34l8 62q1 13 15 13q3 0 26 -3t39 -3q27 0 38 13t11 46v96l-144 244q-7 11 -7 -2v-280q0 -17 -18 -17h-85q-18 0 -18 17v481
q0 45 46 45z" />
    <glyph glyph-name="ntilde.sc" horiz-adv-x="526" 
d="M366 730q22 0 29.5 -4t7.5 -15q-1 -21 -8 -41.5t-27.5 -40t-50.5 -19.5q-25 0 -53.5 16.5t-39.5 16.5q-20 0 -30 -22q-5 -10 -11 -12.5t-27 -2.5q-32 0 -32 18q8 97 80 97q26 0 58 -16t42 -16q18 0 27 22q5 13 10 16t25 3zM357 542h83q18 0 18 -17v-480q0 -45 -46 -45
h-25q-13 0 -22 13l-169 286q-7 11 -7 -2v-280q0 -17 -18 -17h-85q-18 0 -18 17v481q0 45 46 45h33q15 0 23 -13l163 -278q5 -6 7 1v272q0 17 17 17z" />
    <glyph glyph-name="o.sc" horiz-adv-x="544" 
d="M272 552q122 0 168 -66.5t46 -212.5t-46 -214t-168 -68t-168.5 68t-46.5 214t46.5 212.5t168.5 66.5zM272 441q-53 0 -71.5 -35t-18.5 -133q0 -99 18.5 -134.5t71.5 -35.5q52 0 70 35.5t18 134.5q0 97 -18.5 132.5t-69.5 35.5z" />
    <glyph glyph-name="oacute.sc" horiz-adv-x="544" 
d="M282 725h108q13 0 16 -7.5t-5 -14.5l-99 -106q-9 -9 -18 -9h-51q-11 0 -15 6t0 13l46 107q5 11 18 11zM272 552q122 0 168 -66.5t46 -212.5t-46 -214t-168 -68t-168.5 68t-46.5 214t46.5 212.5t168.5 66.5zM272 441q-53 0 -71.5 -35t-18.5 -133q0 -99 18.5 -134.5
t71.5 -35.5q52 0 70 35.5t18 134.5q0 97 -18.5 132.5t-69.5 35.5z" />
    <glyph glyph-name="ocircumflex.sc" horiz-adv-x="544" 
d="M280 720l98 -48q12 -5 9 -14l-10 -47q-3 -17 -21 -11l-76 31q-8 4 -21 0l-76 -31q-10 -5 -14.5 -3.5t-7.5 14.5l-10 47q-1 8 10 14l99 48q10 6 20 0zM272 552q122 0 168 -66.5t46 -212.5t-46 -214t-168 -68t-168.5 68t-46.5 214t46.5 212.5t168.5 66.5zM272 441
q-53 0 -71.5 -35t-18.5 -133q0 -99 18.5 -134.5t71.5 -35.5q52 0 70 35.5t18 134.5q0 97 -18.5 132.5t-69.5 35.5z" />
    <glyph glyph-name="odieresis.sc" horiz-adv-x="544" 
d="M160 725h69q15 0 15 -16v-95q0 -16 -15 -16h-69q-14 0 -14 16v95q0 16 14 16zM319 725h68q15 0 15 -16v-95q0 -16 -15 -16h-68q-15 0 -15 16v95q0 16 15 16zM272 552q122 0 168 -66.5t46 -212.5t-46 -214t-168 -68t-168.5 68t-46.5 214t46.5 212.5t168.5 66.5zM272 441
q-53 0 -71.5 -35t-18.5 -133q0 -99 18.5 -134.5t71.5 -35.5q52 0 70 35.5t18 134.5q0 97 -18.5 132.5t-69.5 35.5z" />
    <glyph glyph-name="ograve.sc" horiz-adv-x="544" 
d="M151 725h101q15 0 18 -14l33 -101q6 -22 -13 -22h-34q-18 0 -28 13l-85 107q-5 6 -3 11.5t11 5.5zM272 552q122 0 168 -66.5t46 -212.5t-46 -214t-168 -68t-168.5 68t-46.5 214t46.5 212.5t168.5 66.5zM272 441q-53 0 -71.5 -35t-18.5 -133q0 -99 18.5 -134.5t71.5 -35.5
q52 0 70 35.5t18 134.5q0 97 -18.5 132.5t-69.5 35.5z" />
    <glyph glyph-name="oslash.sc" horiz-adv-x="552" 
d="M411 642l-29 -110q58 -26 81 -88.5t23 -170.5q0 -146 -46 -214t-168 -68h-26l-31 -108q-3 -13 -18 -13h-42q-16 0 -11 13l35 121q-68 24 -95 89.5t-27 179.5q0 146 46.5 212.5t168.5 66.5q24 0 43 -3l26 93q4 15 18 15h41q15 0 11 -15zM272 103q52 0 70 35.5t18 134.5
q0 97 -18.5 132.5t-69.5 35.5q-53 0 -71.5 -35t-18.5 -133q0 -99 18.5 -134.5t71.5 -35.5z" />
    <glyph glyph-name="oslashacute.sc" horiz-adv-x="552" 
d="M238 588h-52q-11 0 -14.5 6t0.5 13l46 107q5 11 18 11h108q12 0 15.5 -7.5t-4.5 -14.5l-99 -106q-9 -9 -18 -9zM411 642l-29 -110q58 -26 81 -88.5t23 -170.5q0 -146 -46 -214t-168 -68h-26l-31 -108q-3 -13 -18 -13h-42q-16 0 -11 13l35 121q-68 24 -95 89.5t-27 179.5
q0 146 46.5 212.5t168.5 66.5q24 0 43 -3l26 93q4 15 18 15h41q15 0 11 -15zM272 103q52 0 70 35.5t18 134.5q0 97 -18.5 132.5t-69.5 35.5q-53 0 -71.5 -35t-18.5 -133q0 -99 18.5 -134.5t71.5 -35.5z" />
    <glyph glyph-name="otilde.sc" horiz-adv-x="544" 
d="M376 730q22 0 29.5 -4t7.5 -15q-1 -21 -8 -41.5t-27.5 -40t-50.5 -19.5q-24 0 -53 16.5t-40 16.5q-18 0 -30 -22q-5 -10 -11 -12.5t-26 -2.5q-32 0 -32 18q8 97 79 97q26 0 58.5 -16t42.5 -16q17 0 26 22q6 13 11 16t24 3zM272 552q122 0 168 -66.5t46 -212.5t-46 -214
t-168 -68t-168.5 68t-46.5 214t46.5 212.5t168.5 66.5zM272 441q-53 0 -71.5 -35t-18.5 -133q0 -99 18.5 -134.5t71.5 -35.5q52 0 70 35.5t18 134.5q0 97 -18.5 132.5t-69.5 35.5z" />
    <glyph glyph-name="oe.sc" horiz-adv-x="705" 
d="M631 0h-153q-74 0 -94 49q-5 10 -11 1q-35 -55 -133 -55q-97 0 -138.5 64t-40.5 218q2 158 41.5 214.5t139.5 56.5t132 -51q6 -7 11 -1q21 49 92 49h154q22 0 22 -21v-67q0 -19 -22 -19h-117q-31 0 -46.5 -11t-15.5 -45v-40q0 -11 13 -11h145q23 0 23 -20v-66
q0 -21 -23 -21h-145q-13 0 -13 -11v-53q0 -31 13.5 -42.5t43.5 -11.5h122q22 0 22 -20v-65q0 -9 -6.5 -15t-15.5 -6zM325 196v163q0 84 -70 84q-29 0 -44 -11t-23.5 -49t-8.5 -112q0 -106 17 -138t60 -32q69 0 69 95z" />
    <glyph glyph-name="p.sc" horiz-adv-x="473" 
d="M68 17v362q0 88 39.5 128t141.5 40q103 0 146.5 -47.5t43.5 -141.5q0 -90 -43.5 -140.5t-133.5 -50.5h-61q-11 0 -11 -11v-139q0 -17 -17 -17h-87q-18 0 -18 17zM201 275h50q36 0 51 18.5t15 65.5q0 44 -15 61.5t-50 17.5q-34 0 -48 -14t-14 -48v-89q0 -12 11 -12z" />
    <glyph glyph-name="thorn.sc" horiz-adv-x="487" 
d="M82 542h101q13 0 13 -13v-68q0 -8 8 -8h75q86 0 125 -41.5t39 -125.5q0 -181 -176 -181h-59q-12 0 -12 -11v-81q0 -13 -13 -13h-101q-14 0 -14 13v516q0 13 14 13zM257 345h-52q-9 0 -9 -8v-116q0 -9 9 -9h52q60 0 60 68q0 35 -15 50t-45 15z" />
    <glyph glyph-name="q.sc" horiz-adv-x="544" 
d="M423 -91v-43q0 -20 -18 -29q-21 -8 -63 -8q-73 0 -100 39t-27 106q0 15 -2.5 19t-13.5 6q-44 8 -73 33t-43.5 64t-20 80.5t-5.5 96.5q0 50 4.5 88t18 75.5t36.5 61.5t62.5 39t93.5 15t93.5 -15t62.5 -39t36 -62t17.5 -75.5t4.5 -87.5q0 -57 -5 -97.5t-19 -82t-45 -65.5
t-78 -30q-11 -1 -13.5 -5.5t-2.5 -21.5q0 -27 11 -39t36 -12q6 0 20 1.5t17 1.5q16 0 16 -14zM272 441q-53 0 -71.5 -35t-18.5 -133q0 -96 18.5 -130t71.5 -34q51 0 69.5 34t18.5 130q0 98 -18 133t-70 35z" />
    <glyph glyph-name="r.sc" horiz-adv-x="501" 
d="M68 17v366q0 87 43 128t143 41q99 0 144.5 -43t45.5 -130q0 -110 -78 -155q-7 -4 -4 -15l93 -185q7 -13 4 -18.5t-17 -5.5h-83q-29 0 -36 17l-65 159q-4 9 -14 9h-42q-12 0 -12 -11v-157q0 -17 -17 -17h-87q-18 0 -18 17zM202 283h52q36 0 52.5 19.5t16.5 62.5
q0 39 -15.5 58.5t-51.5 19.5q-37 0 -51.5 -12.5t-14.5 -44.5v-92q0 -11 12 -11z" />
    <glyph glyph-name="racute.sc" horiz-adv-x="501" 
d="M260 725h108q13 0 16 -7.5t-5 -14.5l-99 -106q-9 -9 -18 -9h-51q-23 0 -15 19l47 107q3 11 17 11zM68 17v366q0 87 43 128t143 41q99 0 144.5 -43t45.5 -130q0 -110 -78 -155q-7 -4 -4 -15l93 -185q7 -13 4 -18.5t-17 -5.5h-83q-29 0 -36 17l-65 159q-4 9 -14 9h-42
q-12 0 -12 -11v-157q0 -17 -17 -17h-87q-18 0 -18 17zM202 283h52q36 0 52.5 19.5t16.5 62.5q0 39 -15.5 58.5t-51.5 19.5q-37 0 -51.5 -12.5t-14.5 -44.5v-92q0 -11 12 -11z" />
    <glyph glyph-name="rcaron.sc" horiz-adv-x="501" 
d="M269 679l69 29q18 5 22 -12l10 -46q1 -9 -10 -14l-99 -49q-5 -3 -9 -3q-5 0 -11 3l-98 49q-10 4 -9 14l10 46q2 10 6 12.5t15 -0.5l64 -28q4 -1 12.5 -4.5t10.5 -3.5q1 0 17 7zM68 17v366q0 87 43 128t143 41q99 0 144.5 -43t45.5 -130q0 -110 -78 -155q-7 -4 -4 -15
l93 -185q7 -13 4 -18.5t-17 -5.5h-83q-29 0 -36 17l-65 159q-4 9 -14 9h-42q-12 0 -12 -11v-157q0 -17 -17 -17h-87q-18 0 -18 17zM202 283h52q36 0 52.5 19.5t16.5 62.5q0 39 -15.5 58.5t-51.5 19.5q-37 0 -51.5 -12.5t-14.5 -44.5v-92q0 -11 12 -11z" />
    <glyph glyph-name="rcommaaccent.sc" horiz-adv-x="501" 
d="M68 17v366q0 87 43 128t143 41q99 0 144.5 -43t45.5 -130q0 -110 -78 -155q-7 -4 -4 -15l93 -185q7 -13 4 -18.5t-17 -5.5h-83q-29 0 -36 17l-65 159q-4 9 -14 9h-42q-12 0 -12 -11v-157q0 -17 -17 -17h-87q-18 0 -18 17zM202 283h52q36 0 52.5 19.5t16.5 62.5
q0 39 -15.5 58.5t-51.5 19.5q-37 0 -51.5 -12.5t-14.5 -44.5v-92q0 -11 12 -11zM234 -32h78q17 0 17 -17v-31q0 -38 -14 -66.5t-49 -72.5q-13 -15 -32 -9l-20 4q-15 4 -15 15q18 81 18 127v33q0 17 17 17z" />
    <glyph glyph-name="s.sc" horiz-adv-x="443" 
d="M61 35l8 61q2 14 16 14q3 0 21 -2.5t44 -5.5t48 -3q36 -1 52 12t16 42q0 27 -15.5 41t-66.5 40q-12 6 -19 10q-61 33 -83.5 65t-22.5 96q0 77 42.5 112t131.5 35t120 -10q16 -5 15 -22l-9 -73q-2 -11 -12 -11q-3 0 -40.5 4t-67.5 4q-55 0 -55 -50q0 -13 3 -21.5t13.5 -17
t18 -13t29.5 -15.5l34 -17q59 -31 83 -63t24 -90q0 -87 -41 -126.5t-134 -39.5q-105 0 -141 17q-15 6 -12 27z" />
    <glyph glyph-name="sacute.sc" horiz-adv-x="443" 
d="M235 725h108q12 0 15.5 -7.5t-4.5 -14.5l-99 -106q-9 -9 -18 -9h-52q-11 0 -14.5 6t0.5 13l46 107q5 11 18 11zM61 35l8 61q2 14 16 14q3 0 21 -2.5t44 -5.5t48 -3q36 -1 52 12t16 42q0 27 -15.5 41t-66.5 40q-12 6 -19 10q-61 33 -83.5 65t-22.5 96q0 77 42.5 112
t131.5 35t120 -10q16 -5 15 -22l-9 -73q-2 -11 -12 -11q-3 0 -40.5 4t-67.5 4q-55 0 -55 -50q0 -13 3 -21.5t13.5 -17t18 -13t29.5 -15.5l34 -17q59 -31 83 -63t24 -90q0 -87 -41 -126.5t-134 -39.5q-105 0 -141 17q-15 6 -12 27z" />
    <glyph glyph-name="scaron.sc" horiz-adv-x="443" 
d="M244 679l69 29q18 5 21 -12l11 -46q1 -9 -10 -14l-99 -49q-6 -3 -10 -3q-6 0 -10 3l-99 49q-10 5 -9 14l11 46q2 10 6 12.5t15 -0.5l63 -28q4 -1 13 -4.5t10 -3.5q2 0 4.5 1t6.5 3t7 3zM61 35l8 61q2 14 16 14q3 0 21 -2.5t44 -5.5t48 -3q36 -1 52 12t16 42
q0 27 -15.5 41t-66.5 40q-12 6 -19 10q-61 33 -83.5 65t-22.5 96q0 77 42.5 112t131.5 35t120 -10q16 -5 15 -22l-9 -73q-2 -11 -12 -11q-3 0 -40.5 4t-67.5 4q-55 0 -55 -50q0 -13 3 -21.5t13.5 -17t18 -13t29.5 -15.5l34 -17q59 -31 83 -63t24 -90q0 -87 -41 -126.5
t-134 -39.5q-105 0 -141 17q-15 6 -12 27z" />
    <glyph glyph-name="germandbls.sc" horiz-adv-x="517" 
d="M66 13v365q0 96 42 136t158 40q176 0 176 -126q0 -54 -44 -89l-27 -22q-20 -12 -20 -32q0 -13 5 -19t19 -14l51 -29q32 -20 45.5 -40.5t13.5 -60.5q0 -65 -33.5 -97.5t-114.5 -32.5q-47 0 -82 10q-20 7 -19 27l6 61q1 15 12 15q4 0 25 -3.5t36 -3.5q29 0 39.5 10t10.5 32
q0 20 -12 30t-42 22l-33 13q-24 10 -35 25.5t-11 46.5q0 25 7 38.5t29 29.5l29 21q26 19 26 43q0 38 -66 38q-36 0 -52.5 -14t-17.5 -50v-370q0 -13 -14 -13h-91q-16 0 -16 13z" />
    <glyph glyph-name="t.sc" horiz-adv-x="445" 
d="M50 542h346q17 0 17 -17v-75q0 -17 -17 -17h-102q-10 0 -10 -11v-405q0 -17 -18 -17h-85q-18 0 -18 17v405q0 11 -10 11h-103q-18 0 -18 17v75q0 17 18 17z" />
    <glyph glyph-name="tbar.sc" horiz-adv-x="457" 
d="M50 542h346q17 0 17 -17v-75q0 -17 -17 -17h-102q-10 0 -10 -11v-126h89q5 0 9.5 -4t4.5 -10v-49q0 -5 -4.5 -9.5t-9.5 -4.5h-89v-202q0 -17 -18 -17h-85q-18 0 -18 17v202h-92q-12 0 -12 14v49q0 14 12 14h92v126q0 11 -10 11h-103q-18 0 -18 17v75q0 17 18 17z" />
    <glyph glyph-name="tcaron.sc" horiz-adv-x="445" 
d="M238 673l69 29q18 6 22 -12l10 -46q1 -8 -10 -14l-99 -48q-5 -3 -9 -3q-7 0 -11 3l-98 48q-10 6 -9 14l10 46q2 10 6 12.5t15 -0.5l64 -27q21 -8 23 -8q3 0 17 6zM50 542h346q17 0 17 -17v-75q0 -17 -17 -17h-102q-10 0 -10 -11v-405q0 -17 -18 -17h-85q-18 0 -18 17v405
q0 11 -10 11h-103q-18 0 -18 17v75q0 17 18 17z" />
    <glyph glyph-name="tcedilla.sc" horiz-adv-x="445" 
d="M50 542h346q17 0 17 -17v-75q0 -17 -17 -17h-102q-10 0 -10 -11v-405q0 -17 -18 -17h-85q-18 0 -18 17v405q0 11 -10 11h-103q-18 0 -18 17v75q0 17 18 17zM195 -19h78q16 0 8 -16l-62 -161q-9 -23 -31 -23h-54q-22 0 -14 18l51 166q5 16 24 16z" />
    <glyph glyph-name="uni021B.sc" horiz-adv-x="445" 
d="M50 542h346q17 0 17 -17v-75q0 -17 -17 -17h-102q-10 0 -10 -11v-405q0 -17 -18 -17h-85q-18 0 -18 17v405q0 11 -10 11h-103q-18 0 -18 17v75q0 17 18 17zM189 -42h72q16 0 16 -16v-28q0 -35 -13 -61t-46 -68q-11 -13 -29 -8l-18 5q-14 3 -14 13q17 91 17 117v30
q0 16 15 16z" />
    <glyph glyph-name="u.sc" horiz-adv-x="515" 
d="M340 542h89q17 0 17 -17v-348q0 -97 -43 -141.5t-150 -44.5t-148.5 44.5t-41.5 141.5v348q0 17 17 17h86q17 0 17 -17v-352q0 -41 15.5 -56.5t54.5 -15.5q40 0 55 15.5t15 56.5v352q0 17 17 17z" />
    <glyph glyph-name="uacute.sc" horiz-adv-x="515" 
d="M265 725h108q13 0 16 -7.5t-5 -14.5l-99 -106q-9 -9 -18 -9h-51q-23 0 -15 19l47 107q3 11 17 11zM340 542h89q17 0 17 -17v-348q0 -97 -43 -141.5t-150 -44.5t-148.5 44.5t-41.5 141.5v348q0 17 17 17h86q17 0 17 -17v-352q0 -41 15.5 -56.5t54.5 -15.5q40 0 55 15.5
t15 56.5v352q0 17 17 17z" />
    <glyph glyph-name="ucircumflex.sc" horiz-adv-x="515" 
d="M263 720l98 -48q12 -5 9 -14l-10 -47q-3 -17 -21 -11l-76 31q-8 4 -21 0l-76 -31q-10 -5 -14.5 -3.5t-7.5 14.5l-10 47q-1 8 10 14l99 48q10 6 20 0zM340 542h89q17 0 17 -17v-348q0 -97 -43 -141.5t-150 -44.5t-148.5 44.5t-41.5 141.5v348q0 17 17 17h86q17 0 17 -17
v-352q0 -41 15.5 -56.5t54.5 -15.5q40 0 55 15.5t15 56.5v352q0 17 17 17z" />
    <glyph glyph-name="udieresis.sc" horiz-adv-x="515" 
d="M144 725h68q15 0 15 -16v-95q0 -16 -15 -16h-68q-15 0 -15 16v95q0 16 15 16zM302 725h69q14 0 14 -16v-95q0 -16 -14 -16h-69q-15 0 -15 16v95q0 16 15 16zM340 542h89q17 0 17 -17v-348q0 -97 -43 -141.5t-150 -44.5t-148.5 44.5t-41.5 141.5v348q0 17 17 17h86
q17 0 17 -17v-352q0 -41 15.5 -56.5t54.5 -15.5q40 0 55 15.5t15 56.5v352q0 17 17 17z" />
    <glyph glyph-name="ugrave.sc" horiz-adv-x="515" 
d="M134 725h101q14 0 19 -14l32 -101q6 -22 -13 -22h-33q-19 0 -29 13l-85 107q-5 6 -3 11.5t11 5.5zM340 542h89q17 0 17 -17v-348q0 -97 -43 -141.5t-150 -44.5t-148.5 44.5t-41.5 141.5v348q0 17 17 17h86q17 0 17 -17v-352q0 -41 15.5 -56.5t54.5 -15.5q40 0 55 15.5
t15 56.5v352q0 17 17 17z" />
    <glyph glyph-name="v.sc" horiz-adv-x="510" 
d="M346 543h72q24 0 24 -23v-325q0 -23 -6.5 -37t-29.5 -37l-95 -100q-24 -25 -56 -25q-28 0 -53 26l-99 98q-21 21 -28 36t-7 39v325q0 23 25 23h72q24 0 24 -23v-308q0 -13 11 -25l46 -56q9 -9 17 0l46 56q13 15 13 25v308q0 23 24 23z" />
    <glyph glyph-name="w.sc" horiz-adv-x="717" 
d="M544 542h87q18 0 18 -17v-347q0 -51 -34 -81l-83 -84q-22 -22 -51 -22t-55 25l-57 62q-9 9 -20 0l-63 -66q-23 -21 -49.5 -21t-50.5 22l-84 85q-34 30 -34 80v347q0 17 18 17h87q17 0 17 -17v-343q0 -11 9 -21l37 -45q8 -9 15 0l36 45q10 13 10 22v342q0 17 17 17h89
q17 0 17 -17v-342q0 -13 10 -22l36 -45q8 -9 15 0l35 45q11 11 11 21v343q0 17 17 17z" />
    <glyph glyph-name="x.sc" horiz-adv-x="500" 
d="M322 542h87q17 0 17 -17v-103q0 -36 -25 -67l-67 -80q-8 -9 0 -18l72 -81q26 -30 26 -67v-92q0 -17 -18 -17h-86q-17 0 -17 17v90q0 11 -9 23l-42 54q-9 12 -17 0l-44 -55q-9 -11 -9 -22v-90q0 -17 -17 -17h-87q-17 0 -17 17v92q0 38 25 67l71 81q7 9 0 18l-71 80
q-26 29 -26 67v103q0 17 18 17h86q17 0 17 -17v-99q0 -11 9 -23l42 -53q9 -14 18 0l39 54q8 9 8 23v98q0 17 17 17z" />
    <glyph glyph-name="y.sc" horiz-adv-x="478" 
d="M317 542h88q17 0 17 -17v-157q0 -36 -29 -65l-84 -86q-9 -9 -9 -23v-177q0 -17 -17 -17h-88q-17 0 -17 17v177q0 14 -9 23l-83 85q-30 30 -30 66v157q0 17 18 17h87q17 0 17 -17v-138q0 -12 9 -23l42 -47q11 -10 21 0l41 48q9 9 9 22v138q0 17 17 17z" />
    <glyph glyph-name="yacute.sc" horiz-adv-x="478" 
d="M250 725h108q13 0 16.5 -7.5t-4.5 -14.5l-99 -106q-11 -9 -19 -9h-51q-23 0 -15 19l47 107q3 11 17 11zM317 542h88q17 0 17 -17v-157q0 -36 -29 -65l-84 -86q-9 -9 -9 -23v-177q0 -17 -17 -17h-88q-17 0 -17 17v177q0 14 -9 23l-83 85q-30 30 -30 66v157q0 17 18 17h87
q17 0 17 -17v-138q0 -12 9 -23l42 -47q11 -10 21 0l41 48q9 9 9 22v138q0 17 17 17z" />
    <glyph glyph-name="ygrave.sc" horiz-adv-x="478" 
d="M119 725h101q14 0 19 -14l32 -101q6 -22 -13 -22h-33q-19 0 -29 13l-85 107q-5 6 -3 11.5t11 5.5zM317 542h88q17 0 17 -17v-157q0 -36 -29 -65l-84 -86q-9 -9 -9 -23v-177q0 -17 -17 -17h-88q-17 0 -17 17v177q0 14 -9 23l-83 85q-30 30 -30 66v157q0 17 18 17h87
q17 0 17 -17v-138q0 -12 9 -23l42 -47q11 -10 21 0l41 48q9 9 9 22v138q0 17 17 17z" />
    <glyph glyph-name="z.sc" horiz-adv-x="454" 
d="M69 542h277q45 0 45 -46v-32q0 -21 -9.5 -37.5t-41.5 -57.5l-157 -252q-5 -8 3 -8h194q17 0 17 -18v-74q0 -17 -17 -17h-282q-46 0 -46 45v30q0 27 6.5 42.5t24.5 38.5l173 270q4 6 -4 6h-183q-17 0 -17 18v75q0 17 17 17z" />
    <glyph glyph-name="zacute.sc" horiz-adv-x="454" 
d="M236 725h108q13 0 16 -7.5t-5 -14.5l-99 -106q-9 -9 -18 -9h-51q-23 0 -15 19l46 107q5 11 18 11zM69 542h277q45 0 45 -46v-32q0 -21 -9.5 -37.5t-41.5 -57.5l-157 -252q-5 -8 3 -8h194q17 0 17 -18v-74q0 -17 -17 -17h-282q-46 0 -46 45v30q0 27 6.5 42.5t24.5 38.5
l173 270q4 6 -4 6h-183q-17 0 -17 18v75q0 17 17 17z" />
    <glyph glyph-name="zcaron.sc" horiz-adv-x="454" 
d="M245 679l69 29q18 5 22 -12l10 -46q1 -9 -10 -14l-99 -49q-6 -3 -10 -3q-5 0 -10 3l-98 49q-10 4 -9 14l10 46q2 10 6 12.5t15 -0.5l64 -28q3 -1 8 -3t9 -3.5t5 -1.5q2 0 18 7zM69 542h277q45 0 45 -46v-32q0 -21 -9.5 -37.5t-41.5 -57.5l-157 -252q-5 -8 3 -8h194
q17 0 17 -18v-74q0 -17 -17 -17h-282q-46 0 -46 45v30q0 27 6.5 42.5t24.5 38.5l173 270q4 6 -4 6h-183q-17 0 -17 18v75q0 17 17 17z" />
    <glyph glyph-name="zdotaccent.sc" horiz-adv-x="454" 
d="M187 725h77q15 0 15 -16v-95q0 -16 -15 -16h-77q-15 0 -15 16v95q0 16 15 16zM69 542h277q45 0 45 -46v-32q0 -21 -9.5 -37.5t-41.5 -57.5l-157 -252q-5 -8 3 -8h194q17 0 17 -18v-74q0 -17 -17 -17h-282q-46 0 -46 45v30q0 27 6.5 42.5t24.5 38.5l173 270q4 6 -4 6h-183
q-17 0 -17 18v75q0 17 17 17z" />
    <glyph glyph-name="zero.lf" horiz-adv-x="606" 
d="M303 709q87 0 136 -31.5t73 -109t24 -218.5q0 -142 -24 -220.5t-72.5 -109.5t-136.5 -31t-136.5 31t-72.5 109.5t-24 220.5q0 141 24 218.5t73 109t136 31.5zM303 594q-64 0 -84 -47.5t-20 -196.5q0 -148 20.5 -197t83.5 -49q61 0 81.5 49.5t20.5 196.5q0 149 -20 196.5
t-82 47.5z" />
    <glyph glyph-name="one.lf" horiz-adv-x="440" 
d="M58 600v57q0 28 21 35q44 14 96 14q80 0 113.5 -32t33.5 -118v-541q0 -15 -15 -15h-97q-6 0 -10.5 4.5t-4.5 10.5v508q0 39 -10 53.5t-42 14.5q-12 0 -36 -2t-36 -2q-13 0 -13 13z" />
    <glyph glyph-name="two.lf" horiz-adv-x="548" 
d="M82 591l-8 68q-4 25 18 32q48 18 153 18q120 0 172 -41.5t52 -134.5q0 -66 -26 -109t-94 -106q-100 -94 -118 -116q-31 -39 -31 -81q0 -5 6 -5h251q17 0 17 -17v-82q0 -17 -17 -17h-367q-18 0 -18 18v60q0 88 25.5 135.5t98.5 115.5q90 85 116 118t26 70q0 41 -27 59
t-87 18q-40 0 -84 -8l-44 -7q-12 0 -14 12z" />
    <glyph glyph-name="three.lf" horiz-adv-x="554" 
d="M73 594l-8 63q-3 23 17 30q55 22 142 22q124 0 177 -42.5t53 -128.5q0 -63 -17 -99.5t-53 -58.5q-8 -5 0 -7q97 -27 97 -165q0 -217 -242 -217q-123 0 -161 18q-20 8 -16 37l8 60q2 13 14 13l48 -5q48 -5 84 -5q71 0 102 22.5t31 80.5q0 52 -21.5 72t-83.5 20h-96
q-17 0 -17 17v81q0 17 17 17h84q51 0 70.5 21t19.5 67q0 49 -25 68t-86 19q-39 0 -80.5 -6t-43.5 -6q-12 0 -14 12z" />
    <glyph glyph-name="four.lf" horiz-adv-x="574" 
d="M346 700h58q46 0 46 -47v-420q0 -9 9 -10h69q18 0 18 -17v-71q0 -17 -18 -17h-69q-9 0 -9 -9v-92q0 -17 -16 -17h-94q-17 0 -17 17v92q0 9 -9 9h-186q-72 0 -72 72v75q0 54 33 103l206 305q18 27 51 27zM323 233v283q-6 0 -10 -7l-118 -186q-14 -20 -14 -50v-40
q0 -9 8 -9h125q9 0 9 9z" />
    <glyph glyph-name="five.lf" horiz-adv-x="563" 
d="M141 700h308q17 0 17 -17v-82q0 -17 -17 -17h-226q-7 0 -7 -7v-142q31 6 85 6q103 0 149.5 -51t46.5 -168q0 -110 -56.5 -170.5t-190.5 -60.5q-92 0 -145 15q-21 6 -18 29l9 68q3 16 17 16q4 0 22 -3.5t47.5 -6.5t61.5 -3q69 0 95 25.5t26 90.5q0 61 -22.5 82.5
t-75.5 21.5q-36 0 -81 -6.5t-48 -6.5q-10 0 -18 7l-21 15q-11 8 -11 23v290q0 52 53 52z" />
    <glyph glyph-name="six.lf" horiz-adv-x="576" 
d="M74 189v289q0 125 51 178t163 53q116 0 166 -18q12 -4 16.5 -9t3.5 -17l-9 -81q0 -12 -13 -12q-1 0 -23 3.5t-54 6.5t-67 3q-62 0 -84 -22t-22 -81v-38q0 -9 7 -9l37 5q37 4 72 4q104 0 151.5 -51t47.5 -158q0 -128 -56.5 -186t-172.5 -58q-110 0 -162 44.5t-52 153.5z
M202 297v-106q0 -47 18.5 -66t67.5 -19q58 0 78 29t20 91q0 55 -18 79t-72 24q-61 0 -83 -10q-11 -4 -11 -22z" />
    <glyph glyph-name="seven.lf" horiz-adv-x="502" 
d="M64 701h289q38 -1 59.5 -20.5t21.5 -53.5v-172q0 -43 -9 -79.5t-18.5 -55t-29.5 -51.5l-159 -263q-8 -16 -24 -7l-76 43q-17 9 -7 24l155 268q40 67 40 123v101q0 12 -4.5 16.5t-15.5 4.5h-222q-17 0 -17 17v88q0 17 17 17z" />
    <glyph glyph-name="eight.lf" horiz-adv-x="577" 
d="M181 364l-31 26q-39 30 -55.5 64t-16.5 88q0 75 51 121t165 46q214 0 214 -169q0 -43 -17.5 -74t-52.5 -65l-40 -37q-5 -5 0 -8l35 -29q45 -34 66 -68t21 -84q0 -92 -55 -138t-173 -46q-228 0 -228 176q0 50 19 85t62 73l36 32q5 4 0 7zM302 416l36 33q42 44 42 76
q0 33 -20 48.5t-67 15.5q-49 0 -69 -16.5t-20 -47.5q0 -27 12 -45t41 -39l32 -25q8 -5 13 0zM337 262l-45 34q-7 5 -13 -1l-42 -36q-43 -36 -43 -75q0 -73 98 -73q53 0 75.5 17.5t22.5 54.5q0 24 -12.5 41t-40.5 38z" />
    <glyph glyph-name="nine.lf" horiz-adv-x="577" 
d="M363 218v39q0 7 -7 7q-3 0 -15 -2t-34.5 -4t-50.5 -2q-106 0 -150.5 54t-44.5 171q0 120 50.5 174t171.5 54q112 0 160 -44t48 -133v-326q0 -105 -53 -160t-173 -55q-107 0 -155 15q-18 6 -22.5 15t-1.5 29l7 48q3 20 18 20q4 0 26.5 -3.5t51 -6t53.5 -2.5q69 0 95 23.5
t26 88.5zM363 397v121q0 43 -20 59.5t-68 16.5q-50 0 -69 -22.5t-19 -90.5q0 -62 20 -86t72 -24q59 0 75 8q9 3 9 18z" />
    <glyph glyph-name="zero.osf" horiz-adv-x="580" 
d="M291 524q125 0 173.5 -63t48.5 -200q0 -138 -48.5 -202.5t-173.5 -64.5t-173.5 64.5t-48.5 202.5q0 137 48.5 200t173.5 63zM291 412q-58 0 -79.5 -31.5t-21.5 -119.5q0 -87 22 -121t79 -34t79 34t22 121q0 88 -21.5 119.5t-79.5 31.5z" />
    <glyph glyph-name="one.osf" horiz-adv-x="387" 
d="M60 430l-3 59q-2 17 13 21q34 13 94 13q69 0 99 -26.5t30 -81.5v-400q0 -15 -16 -15h-89q-6 0 -10.5 4.5t-4.5 10.5v355q0 28 -10.5 38.5t-35.5 10.5q-11 0 -27.5 -2.5t-20.5 -2.5q-16 0 -19 16z" />
    <glyph glyph-name="two.osf" horiz-adv-x="535" 
d="M89 417l-9 54q-3 21 19 32q51 20 142 20q111 0 158 -33t47 -112q0 -49 -22 -83.5t-54.5 -54t-65.5 -35.5t-61 -38.5t-36 -51.5l5 -6h232q18 0 18 -18v-74q0 -17 -18 -17h-360q-13 0 -13 11v51q0 53 18 93.5t45.5 63t59.5 42t59.5 32t45.5 30.5t18 40q0 31 -19.5 44
t-70.5 13q-37 0 -79.5 -7.5t-45.5 -7.5q-11 0 -13 12z" />
    <glyph glyph-name="three.osf" horiz-adv-x="540" 
d="M58 409l-8 63q-3 23 17 31q50 20 142 20q124 0 177 -38.5t53 -116.5q0 -59 -16.5 -92t-52.5 -53q-10 -5 0 -7q96 -27 96 -150q0 -197 -242 -197q-126 0 -161 16q-19 10 -16 38l8 59q2 13 14 13l48 -4q48 -4 84 -4q72 0 102.5 17.5t30.5 65.5q0 44 -21.5 60t-82.5 16h-96
q-17 0 -17 17v81q0 17 17 17h83q51 0 70.5 18t19.5 56q0 42 -25 58t-86 16q-39 0 -80.5 -5.5t-43.5 -5.5q-12 0 -14 11z" />
    <glyph glyph-name="four.osf" horiz-adv-x="556" 
d="M338 514h58q46 0 46 -47v-348q0 -9 9 -10h69q18 0 18 -17v-71q0 -17 -18 -17h-69q-9 0 -9 -9v-101q0 -17 -16 -17h-94q-17 0 -17 17v101q0 9 -9 9h-186q-72 0 -72 73v76q0 67 33 102l206 232q24 27 51 27zM315 119v234q-5 0 -10 -6l-118 -137q-14 -16 -14 -48v-43
q0 -9 8 -9h125q9 0 9 9z" />
    <glyph glyph-name="five.osf" horiz-adv-x="515" 
d="M124 514h308q17 0 17 -17v-82q0 -17 -17 -17h-226q-7 0 -7 -5v-118q42 4 86 4q102 0 148.5 -48t46.5 -155q0 -208 -246 -208q-92 0 -146 15q-19 7 -18 29l9 68q3 16 18 16q3 0 21 -3t47.5 -6t62.5 -3q68 -1 94 19t26 73q0 50 -22.5 69t-75.5 19q-36 0 -81 -5.5t-48 -5.5
q-9 0 -18 6l-21 16q-11 8 -11 23v268q0 48 53 48z" />
    <glyph glyph-name="six.osf" horiz-adv-x="582" 
d="M79 189v254q0 149 49.5 207.5t163.5 58.5q117 0 166 -18q12 -4 16.5 -9t3.5 -17l-8 -81q0 -12 -13 -12q-1 0 -23.5 3.5t-54.5 6.5t-66 3q-62 0 -84.5 -22t-22.5 -81v-38q0 -9 8 -9q3 0 18.5 2.5t40 4.5t49.5 2q104 0 151.5 -51t47.5 -158q0 -128 -56.5 -186t-172.5 -58
q-110 0 -161.5 44.5t-51.5 153.5zM206 297v-106q0 -47 18.5 -66t67.5 -19q58 0 78 28.5t20 91.5q0 55 -17.5 79t-71.5 24q-62 0 -84 -10q-11 -4 -11 -22z" />
    <glyph glyph-name="seven.osf" horiz-adv-x="502" 
d="M67 514h289q38 -1 59 -20.5t21 -53.5v-172q0 -43 -9 -79.5t-18.5 -55.5t-28.5 -51l-129 -212q-8 -16 -24 -7l-77 42q-15 11 -7 25l125 217q41 69 41 123v101q0 12 -4.5 16.5t-16.5 4.5h-221q-18 0 -18 17v88q0 17 18 17z" />
    <glyph glyph-name="eight.osf" horiz-adv-x="568" 
d="M168 364l-31 26q-39 30 -55.5 64t-16.5 88q0 75 51 121t165 46q214 0 214 -169q0 -43 -17.5 -74t-52.5 -65l-40 -37q-5 -5 0 -8l35 -29q45 -34 66 -68t21 -84q0 -92 -55 -138t-172 -46q-229 0 -229 176q0 50 19 85t62 73l36 32q5 4 0 7zM289 416l37 33q41 44 41 76
q0 33 -20 48.5t-67 15.5q-49 0 -69 -16.5t-20 -47.5q0 -27 12 -45t41 -39l32 -25q8 -5 13 0zM324 262l-45 34q-7 5 -13 -1l-42 -36q-43 -37 -43 -75q0 -73 99 -73q52 0 74.5 17.5t22.5 54.5q0 24 -12 41.5t-41 37.5z" />
    <glyph glyph-name="nine.osf" horiz-adv-x="577" 
d="M363 72v29q0 7 -7 7q-3 0 -15 -2t-34.5 -3.5t-50.5 -1.5q-106 0 -150.5 50t-44.5 160q0 111 50.5 161.5t171.5 50.5q112 0 160 -41t48 -123v-300q0 -101 -54 -154t-179 -53q-105 0 -148 16q-18 6 -22.5 14.5t-1.5 29.5l7 49q3 18 18 18q4 0 26.5 -3t51 -5.5t53.5 -2.5
q69 0 95 22t26 82zM363 241v103q0 36 -20 50t-68 14q-50 0 -69 -19.5t-19 -77.5q0 -54 20 -74.5t72 -20.5q60 0 74 7q10 3 10 18z" />
    <glyph glyph-name="zero.sinf" horiz-adv-x="365" 
d="M181 274q81 0 111.5 -42.5t30.5 -153.5t-30.5 -154.5t-111.5 -43.5q-80 0 -110 43.5t-30 154.5q0 110 30 153t110 43zM181 194q-32 0 -44.5 -23.5t-12.5 -92.5q0 -70 12.5 -93.5t44.5 -23.5t45.5 23.5t13.5 93.5q0 68 -13.5 92t-45.5 24z" />
    <glyph glyph-name="one.sinf" horiz-adv-x="295" 
d="M47 205v35q0 17 8 22q13 11 63 11q85 0 85 -63v-316q0 -9 -11 -9h-61q-10 0 -10 9v279q0 15 -6 20.5t-23 5.5q-9 0 -22 -1t-14 -1q-9 0 -9 8z" />
    <glyph glyph-name="two.sinf" horiz-adv-x="335" 
d="M45 204l-8 42q-4 16 11 22q27 11 100 11q74 0 103.5 -26.5t29.5 -80.5q0 -33 -15 -60.5t-36.5 -45t-42.5 -33t-36 -33t-15 -36.5q0 -4 2 -4h144q9 0 9 -8v-59q0 -8 -9 -8h-236q-8 0 -8 7v32q0 40 16 72t38.5 52t45.5 37t39 34.5t16 36.5q0 27 -14.5 37.5t-51.5 10.5
q-20 0 -47 -4l-26 -4q-7 0 -9 8z" />
    <glyph glyph-name="three.sinf" horiz-adv-x="341" 
d="M56 209l-8 39q-3 13 8 20q22 11 92 11q74 0 102.5 -25.5t28.5 -80.5q0 -61 -44 -81q-6 -4 0 -6q58 -11 58 -84q0 -58 -31.5 -89t-107.5 -31q-65 0 -91 11q-15 7 -10 25l7 34q3 10 12 10q2 0 13.5 -1t28.5 -2.5t33 -1.5q37 0 51 12.5t14 37.5q0 23 -10.5 32.5t-38.5 9.5
h-49q-17 0 -17 17v39q0 17 17 17h35q29 0 38.5 9t9.5 31q0 45 -59 45q-22 0 -46.5 -3.5t-26.5 -3.5q-6 0 -9 9z" />
    <glyph glyph-name="four.sinf" horiz-adv-x="334" 
d="M219 270h20q21 0 21 -26v-220q0 -6 6 -6h36q6 0 6 -7v-58q0 -7 -6 -7h-36q-6 0 -6 -6v-47q0 -8 -8 -8h-57q-8 0 -8 8v47q0 6 -6 6h-125q-30 0 -30 26v33q0 24 3 35.5t15 28.5l122 174q20 27 53 27zM187 24v126q-9 0 -15 -9l-57 -84q-8 -13 -8 -23v-12q0 -4 6 -4h68
q6 0 6 6z" />
    <glyph glyph-name="five.sinf" horiz-adv-x="344" 
d="M88 270h180q9 0 9 -8v-55q0 -8 -9 -8h-134q-4 0 -4 -1v-76q26 6 54 6q52 0 79 -26t27 -89q0 -131 -135 -131q-54 0 -88 9q-16 5 -13 22l8 41q2 9 8 9q2 0 25 -3.5t42 -3.5q39 0 55 11.5t16 41.5t-13 40.5t-44 10.5q-20 0 -40.5 -4t-25.5 -4q-6 0 -11 5l-13 11q-7 4 -7 14
v157q0 17 8 24t26 7z" />
    <glyph glyph-name="six.sinf" horiz-adv-x="323" 
d="M38 -16v153q0 77 29 109.5t97 32.5q58 0 92 -9q15 -3 12 -19l-8 -39q-1 -15 -12 -15q-6 0 -31 3t-43 3q-30 0 -43 -11.5t-13 -38.5v-23q0 -6 5 -6q1 0 21 2.5t37 2.5q60 0 82.5 -26t22.5 -90q0 -71 -25 -101t-94 -30q-77 0 -103 24.5t-26 77.5zM118 43v-53q0 -20 9 -27
t34 -7q28 0 37 11t9 44q0 25 -9 35t-35 10q-31 0 -39 -4q-6 -3 -6 -9z" />
    <glyph glyph-name="seven.sinf" horiz-adv-x="315" 
d="M62 270h160q22 0 35 -12t13 -32v-78q0 -59 -29 -106l-98 -158q-4 -6 -14 -2l-49 23q-13 6 -7 16l95 160q22 37 22 68v37q0 7 -7 7h-121q-17 0 -17 17v43q0 17 17 17z" />
    <glyph glyph-name="eight.sinf" horiz-adv-x="344" 
d="M101 93l-16 16q-19 20 -27.5 36t-8.5 43q0 91 122 91q120 0 120 -88q0 -44 -37 -82l-20 -17q-2 -2 0 -5l21 -16q45 -33 45 -88q0 -95 -131 -95q-68 0 -98 23.5t-30 69.5q0 51 41 89l19 19q2 2 0 4zM175 121l17 15q21 16 21 37q0 35 -42 36q-45 1 -45 -37q0 -20 21 -35
l21 -17q2 -1 7 1zM194 36l-22 21q-3 2 -8 -1l-21 -21q-22 -20 -22 -41q0 -34 51 -34q49 0 49 34q0 19 -27 42z" />
    <glyph glyph-name="nine.sinf" horiz-adv-x="323" 
d="M204 6v27q0 5 -3 5q-1 0 -17.5 -2.5t-28.5 -2.5q-65 0 -91.5 27t-26.5 94q0 60 28 92.5t95 32.5q74 0 99.5 -26t25.5 -83v-168q0 -114 -131 -114q-61 0 -83 11q-15 7 -11 27l8 31q2 9 9 9q2 0 28.5 -2.5t42.5 -2.5q32 0 44 10t12 35zM204 123v42q0 20 -9.5 30t-34.5 10
t-34.5 -11.5t-9.5 -39.5t9 -39.5t35 -11.5q32 0 39 6q5 5 5 14z" />
    <glyph glyph-name="zero.sups" horiz-adv-x="365" 
d="M181 924q81 0 111.5 -42.5t30.5 -153.5t-30.5 -154.5t-111.5 -43.5q-80 0 -110 43.5t-30 154.5q0 110 30 153t110 43zM181 844q-32 0 -44.5 -23.5t-12.5 -92.5q0 -70 12.5 -93.5t44.5 -23.5t45.5 23.5t13.5 93.5q0 68 -13.5 92t-45.5 24z" />
    <glyph glyph-name="four.sups" horiz-adv-x="334" 
d="M219 920h20q21 0 21 -26v-220q0 -6 6 -6h36q6 0 6 -7v-58q0 -7 -6 -7h-36q-6 0 -6 -6v-47q0 -8 -8 -8h-57q-8 0 -8 8v47q0 6 -6 6h-125q-30 0 -30 26v33q0 24 3 35.5t15 28.5l122 174q20 27 53 27zM187 674v126q-9 0 -15 -9l-57 -84q-8 -13 -8 -23v-12q0 -4 6 -4h68
q6 0 6 6z" />
    <glyph glyph-name="five.sups" horiz-adv-x="344" 
d="M88 920h180q9 0 9 -8v-55q0 -8 -9 -8h-134q-4 0 -4 -1v-76q26 6 54 6q52 0 79 -26t27 -89q0 -131 -135 -131q-54 0 -88 9q-16 5 -13 22l8 41q2 9 8 9q2 0 25 -3.5t42 -3.5q39 0 55 11.5t16 41.5t-13 40.5t-44 10.5q-20 0 -40.5 -4t-25.5 -4q-6 0 -11 5l-13 11q-7 4 -7 14
v157q0 17 8 24t26 7z" />
    <glyph glyph-name="six.sups" horiz-adv-x="323" 
d="M38 634v153q0 77 29 109.5t97 32.5q58 0 92 -9q15 -3 12 -19l-8 -39q-1 -15 -12 -15q-6 0 -31 3t-43 3q-30 0 -43 -11.5t-13 -38.5v-23q0 -6 5 -6q1 0 21 2.5t37 2.5q60 0 82.5 -26t22.5 -90q0 -71 -25 -101t-94 -30q-77 0 -103 24.5t-26 77.5zM118 693v-53q0 -20 9 -27
t34 -7q28 0 37 11t9 44q0 25 -9 35t-35 10q-31 0 -39 -4q-6 -3 -6 -9z" />
    <glyph glyph-name="seven.sups" horiz-adv-x="315" 
d="M62 920h160q22 0 35 -12t13 -32v-78q0 -59 -29 -106l-98 -158q-4 -6 -14 -2l-49 23q-13 6 -7 16l95 160q22 37 22 68v37q0 7 -7 7h-121q-17 0 -17 17v43q0 17 17 17z" />
    <glyph glyph-name="eight.sups" horiz-adv-x="344" 
d="M101 743l-16 16q-19 20 -27.5 36t-8.5 43q0 91 122 91q120 0 120 -88q0 -44 -37 -82l-20 -17q-2 -2 0 -5l21 -16q45 -33 45 -88q0 -95 -131 -95q-68 0 -98 23.5t-30 70.5q0 50 41 88l19 19q2 2 0 4zM175 771l17 15q21 16 21 37q0 35 -42 36q-45 1 -45 -37q0 -20 21 -35
l21 -17q2 -1 7 1zM194 686l-22 21q-3 2 -8 -1l-21 -21q-22 -20 -22 -41q0 -34 51 -34q49 0 49 34q0 19 -27 42z" />
    <glyph glyph-name="nine.sups" horiz-adv-x="323" 
d="M204 656v27q0 5 -3 5q-1 0 -17.5 -2.5t-28.5 -2.5q-65 0 -91.5 27t-26.5 94q0 60 28 92.5t95 32.5q74 0 99.5 -26t25.5 -83v-168q0 -114 -131 -114q-61 0 -83 11q-15 7 -11 27l8 31q2 9 9 9q2 0 28.5 -2.5t42.5 -2.5q32 0 44 10t12 35zM204 773v42q0 20 -9.5 30t-34.5 10
t-34.5 -11.5t-9.5 -39.5t9 -39.5t35 -11.5q32 0 39 6q5 5 5 14z" />
    <glyph glyph-name="zero.tf" horiz-adv-x="561" 
d="M278 709q87 0 136.5 -31t73.5 -109t24 -219q0 -142 -24 -220.5t-73 -109.5t-137 -31t-136.5 31t-72.5 109.5t-24 220.5q0 141 24 219t73 109t136 31zM278 594q-64 0 -83.5 -47t-19.5 -197q0 -148 20 -197t83 -49q62 0 82.5 49.5t20.5 196.5q0 148 -20.5 196t-82.5 48z
" />
    <glyph glyph-name="one.tf" horiz-adv-x="561" 
d="M106 602v57q0 28 21 34q45 13 114 13q82 0 116.5 -32.5t34.5 -117.5v-541q0 -15 -16 -15h-96q-6 0 -10.5 4.5t-4.5 10.5v517q0 32 -15 47t-50 15q-16 0 -47.5 -2t-33.5 -2q-13 0 -13 12z" />
    <glyph glyph-name="two.tf" horiz-adv-x="561" 
d="M87 591l-8 68q-4 25 18 32q48 18 153 18q120 0 172 -41.5t52 -134.5q0 -66 -26 -109t-94 -106q-100 -94 -118 -116q-31 -39 -31 -81q0 -5 6 -5h251q17 0 17 -17v-82q0 -17 -17 -17h-367q-18 0 -18 18v60q0 88 25.5 135.5t98.5 115.5q90 85 116 118t26 70q0 41 -27 59
t-87 18q-39 0 -83 -7.5t-45 -7.5q-12 0 -14 12z" />
    <glyph glyph-name="three.tf" horiz-adv-x="561" 
d="M89 594l-8 63q-4 23 16 30q55 22 142 22q124 0 177.5 -42.5t53.5 -128.5q0 -63 -17 -99.5t-53 -58.5q-10 -5 0 -7q97 -27 97 -165q0 -217 -243 -217q-122 0 -160 18q-21 8 -16 37l8 60q2 13 14 13l48 -5q48 -5 84 -5q71 0 102 22.5t31 80.5q0 51 -22 71.5t-83 20.5h-96
q-18 0 -18 17v81q0 17 18 17h84q51 0 70.5 21t19.5 67q0 49 -25 68t-86 19q-39 0 -81 -6t-44 -6q-11 0 -13 12z" />
    <glyph glyph-name="four.tf" horiz-adv-x="561" 
d="M338 700h58q46 0 46 -47v-420q0 -9 9 -10h69q17 0 17 -17v-71q0 -17 -17 -17h-69q-9 0 -9 -9v-92q0 -17 -17 -17h-93q-18 0 -18 17v92q0 9 -8 9h-186q-72 0 -72 72v75q0 56 33 103l206 305q18 27 51 27zM314 233v283q-5 0 -9 -7l-118 -186q-15 -22 -15 -50v-40q0 -9 9 -9
h125q8 0 8 9z" />
    <glyph glyph-name="five.tf" horiz-adv-x="561" 
d="M133 700h308q17 0 17 -17v-82q0 -17 -17 -17h-226q-7 0 -7 -7v-142q31 6 85 6q103 0 149.5 -51t46.5 -168q0 -110 -56.5 -170.5t-190.5 -60.5q-92 0 -145 15q-21 6 -18 29l9 68q3 16 17 16q4 0 22 -3.5t47.5 -6.5t61.5 -3q69 0 95 25.5t26 90.5q0 61 -22.5 82.5
t-75.5 21.5q-36 0 -81 -6.5t-48 -6.5q-10 0 -18 7l-21 15q-11 8 -11 23v290q0 52 53 52z" />
    <glyph glyph-name="six.tf" horiz-adv-x="582" 
d="M78 189v289q0 125 51 178t163 53q117 0 166 -18q12 -4 16.5 -9t3.5 -17l-9 -81q0 -12 -13 -12q-1 0 -23 3.5t-54 6.5t-67 3q-62 0 -84 -22t-22 -81v-38q0 -9 7 -9l37 5q37 4 72 4q104 0 151.5 -51t47.5 -158q0 -128 -56.5 -186t-172.5 -58q-110 0 -162 44.5t-52 153.5z
M206 297v-106q0 -47 18.5 -66t67.5 -19q58 0 78 29t20 91q0 55 -18 79t-72 24q-61 0 -83 -10q-11 -4 -11 -22z" />
    <glyph glyph-name="seven.tf" horiz-adv-x="561" 
d="M98 701h289q38 -1 59.5 -20.5t21.5 -53.5v-172q0 -43 -9 -79.5t-18.5 -55t-29.5 -51.5l-159 -263q-9 -16 -25 -7l-76 43q-16 9 -7 24l156 268q40 70 40 123v101q0 12 -4.5 16.5t-15.5 4.5h-222q-17 0 -17 17v88q0 17 17 17z" />
    <glyph glyph-name="eight.tf" horiz-adv-x="568" 
d="M168 364l-31 26q-39 30 -55.5 64t-16.5 88q0 75 51 121t165 46q214 0 214 -169q0 -43 -17.5 -74t-52.5 -65l-40 -37q-5 -5 0 -8l35 -29q45 -34 66 -68t21 -84q0 -92 -55 -138t-172 -46q-229 0 -229 176q0 50 19 85t62 73l36 32q5 4 0 7zM289 416l37 33q41 44 41 76
q0 33 -20 48.5t-67 15.5q-49 0 -69 -16.5t-20 -47.5q0 -27 12 -45t41 -39l32 -25q8 -5 13 0zM324 262l-45 34q-7 5 -13 -1l-42 -36q-43 -37 -43 -75q0 -73 99 -73q52 0 74.5 17.5t22.5 54.5q0 24 -12 41.5t-41 37.5z" />
    <glyph glyph-name="nine.tf" horiz-adv-x="561" 
d="M363 218v39q0 7 -7 7q-3 0 -15.5 -2t-34.5 -4t-50 -2q-106 0 -150.5 54t-44.5 171q0 120 50.5 174t171.5 54q112 0 160 -44t48 -133v-326q0 -105 -53 -160t-173 -55q-106 0 -156 15q-18 6 -22.5 15t-0.5 29l7 48q2 20 18 20q4 0 26.5 -3.5t50.5 -6t53 -2.5q70 0 96 23.5
t26 88.5zM363 397v121q0 43 -20.5 59.5t-68.5 16.5q-50 0 -68.5 -22.5t-18.5 -90.5q0 -62 19.5 -86t72.5 -24q59 0 75 8q9 3 9 18z" />
    </font>
</defs>
</svg>
