<?xml version="1.0" standalone="no"?>
<!DOCTYPE svg PUBLIC "-//W3C//DTD SVG 1.1//EN" "http://www.w3.org/Graphics/SVG/1.1/DTD/svg11.dtd" >
<svg xmlns="http://www.w3.org/2000/svg">
<metadata>
Created by FontPrep 20130207 at Wed Oct 30 14:26:28 2013
 By Rodrigo Saiani
Copyright (c) 2010 by Rodrigo Saiani. All rights reserved.
</metadata>
<defs>
<font id="adf5cd79860c42af2449abbbfe8b00b1" horiz-adv-x='1024' >
  <font-face 
    font-family="Plau-Regular"
    font-weight="400"
    font-stretch="normal"
    units-per-em="1000"
    panose-1="0 0 5 0 0 0 0 0 0 0"
    ascent="750"
    descent="-250"
    x-height="508"
    cap-height="700"
    bbox="-61.0909 -215.067 899 927"
    underline-thickness="50"
    underline-position="-50"
    unicode-range="U+0020-FB02"
  />
<missing-glyph horiz-adv-x="578" 
d="M113 701h352q21 0 21 -20v-661q0 -20 -21 -20h-352q-21 0 -21 20v661q0 20 21 20zM421 644h-264q-5 0 -5 -5v-577q0 -5 5 -5h264q5 0 5 5v577q0 5 -5 5z" />
    <glyph glyph-name="fi" unicode="fi" horiz-adv-x="479" 
d="M90 516v34q0 88 31.5 121.5t121.5 33.5q76 0 122 -12q18 -5 17 -28l-4 -30q-1 -11 -10 -11q-1 0 -20 2t-48 4t-56 2q-44 0 -59 -16t-15 -65v-36q0 -7 8 -7h218q10 0 10 -10v-486q0 -12 -12 -12h-57q-11 0 -11 12v426h-148q-8 0 -8 -9v-419q0 -10 -11 -10h-58
q-11 0 -11 10v420q-1 8 -8 8h-54q-12 0 -12 12v46q0 12 12 12h54q8 0 8 8z" />
    <glyph glyph-name="fl" unicode="fl" horiz-adv-x="528" 
d="M90 516v46q0 87 42.5 124.5t135.5 37.5t137.5 -38t44.5 -124v-553q0 -9 -8 -9h-65q-9 0 -9 9v544q0 53 -22.5 75t-77.5 22q-54 0 -76 -18.5t-22 -69.5v-47q0 -7 8 -7h107q13 0 13 -12v-46q0 -12 -13 -12h-107q-8 0 -8 -9v-419q0 -10 -11 -10h-58q-11 0 -11 10v420
q-1 8 -8 8h-54q-12 0 -12 12v46q0 12 12 12h54q8 0 8 8z" />
    <glyph glyph-name="f_f" unicode="ff" horiz-adv-x="562" 
d="M345 516v53q0 88 28 121.5t99 33.5q54 0 80 -10q14 -5 13 -24l-5 -36q-2 -9 -10 -9q-1 0 -24.5 2.5t-40.5 2.5q-34 0 -47 -16t-13 -62v-57q0 -7 9 -7h100q12 0 12 -12v-46q0 -12 -12 -12h-100q-9 0 -9 -9v-419q0 -10 -11 -10h-58q-11 0 -11 10v420q-1 8 -8 8h-159
q-8 0 -8 -9v-419q0 -10 -11 -10h-58q-11 0 -11 10v420q-1 8 -8 8h-54q-12 0 -12 12v46q0 12 12 12h54q8 0 8 8v41q0 83 25 114.5t88 31.5q47 0 80 -10q17 -5 14 -22l-4 -31q-1 -10 -10 -10q-3 0 -26 1t-37 1q-29 0 -39.5 -15t-10.5 -58v-44q0 -7 8 -7h159q8 0 8 8z" />
    <glyph glyph-name="f_f_i" unicode="ffi" horiz-adv-x="726" 
d="M335 516v53q0 88 29 121.5t103 33.5q63 0 95 -10q15 -6 14 -24l-5 -36q-1 -9 -10 -9q-1 0 -29 2.5t-51 2.5q-37 0 -51.5 -15.5t-14.5 -62.5v-57q0 -7 9 -7h218q11 0 11 -10v-486q0 -12 -12 -12h-58q-10 0 -10 12v426h-149q-9 0 -9 -9v-419q0 -10 -11 -10h-57
q-12 0 -12 10v420q-1 8 -8 8h-149q-8 0 -8 -9v-419q0 -10 -11 -10h-58q-11 0 -11 10v420q-1 8 -8 8h-54q-12 0 -12 12v46q0 12 12 12h54q8 0 8 8v52q0 83 26 114.5t92 31.5q48 0 81 -11q17 -6 14 -23l-4 -30q-2 -11 -11 -11q-1 0 -12 1t-25.5 2t-25.5 1q-32 0 -43.5 -15.5
t-11.5 -58.5v-54q0 -7 8 -7h149q8 0 8 8z" />
    <glyph glyph-name=".notdef" horiz-adv-x="578" 
d="M113 701h352q21 0 21 -20v-661q0 -20 -21 -20h-352q-21 0 -21 20v661q0 20 21 20zM421 644h-264q-5 0 -5 -5v-577q0 -5 5 -5h264q5 0 5 5v577q0 5 -5 5z" />
    <glyph glyph-name=".null" horiz-adv-x="0" 
 />
    <glyph glyph-name="nonmarkingreturn" horiz-adv-x="333" 
 />
    <glyph glyph-name="space" unicode=" " horiz-adv-x="214" 
 />
    <glyph glyph-name="exclam" unicode="!" horiz-adv-x="243" 
d="M89 700h65q10 0 10 -11v-438q0 -9 -9 -9h-66q-9 0 -9 9v438q0 11 9 11zM91 155h62q11 0 11 -11v-133q0 -11 -11 -11h-62q-11 0 -11 11v133q0 11 11 11z" />
    <glyph glyph-name="quotedbl" unicode="&#x22;" horiz-adv-x="317" 
d="M54 700h59q11 0 11 -11v-115l-8 -90q0 -11 -11 -11h-43q-12 0 -12 11l-8 90v114q0 12 12 12zM203 700h59q12 0 12 -11v-115l-8 -90q0 -11 -11 -11h-44q-11 0 -11 11l-8 90v114q0 12 11 12z" />
    <glyph glyph-name="numbersign" unicode="#" horiz-adv-x="669" 
d="M435 704h54q10 0 10 -12l-19 -184h106q11 0 11 -9v-48q0 -10 -11 -10h-113l-17 -164h120q10 0 10 -10v-51q0 -7 -10 -7h-127l-21 -200q0 -9 -13 -9h-50q-12 0 -10 11l20 198h-118l-20 -200q0 -9 -14 -9h-50q-10 0 -10 11l20 198h-102q-9 0 -9 6v52q0 10 9 10h109l16 164
h-114q-10 0 -10 9v49q0 9 10 9h121l19 186q2 10 11 10h55q9 0 9 -12l-19 -184h116l20 186q0 10 11 10zM281 441l-17 -164h117l17 164h-117z" />
    <glyph glyph-name="dollar" unicode="$" horiz-adv-x="506" 
d="M234 774h54q10 0 10 -11v-90q0 -8 9 -8q50 -1 88 -9q17 -4 16 -16l-3 -49q-2 -8 -11 -8q-4 0 -26.5 2.5t-55 5t-60.5 2.5q-55 0 -76.5 -16.5t-21.5 -57.5q0 -42 22.5 -62t95.5 -54q16 -8 25 -12q83 -41 113.5 -76.5t30.5 -105.5q0 -148 -151 -165q-9 -3 -9 -12v-96
q0 -10 -9 -10h-55q-10 0 -10 10v92q0 9 -9 10q-54 4 -103 16q-16 5 -16 19l5 49q0 10 10 10q3 0 25.5 -4t55 -8t59.5 -4q68 0 95.5 21t27.5 68q0 48 -26 71.5t-112 63.5q-85 39 -117.5 75t-32.5 108q0 69 33.5 103t109.5 38q7 1 8.5 2.5t1.5 6.5v90q0 11 9 11z" />
    <glyph glyph-name="percent" unicode="%" horiz-adv-x="722" 
d="M197 707q63 0 87.5 -34t24.5 -116q0 -80 -25.5 -115t-86.5 -35q-62 0 -87 35t-25 115q0 81 25 115.5t87 34.5zM532 700h35q14 0 7 -11l-375 -680q-6 -9 -17 -9h-33q-14 0 -7 12l374 677q6 11 16 11zM197 648q-28 0 -39.5 -18.5t-11.5 -72.5t11.5 -73t39.5 -19q29 0 40 19
t11 73q0 55 -11 73t-40 18zM525 294q63 0 87.5 -34t24.5 -115t-25 -115.5t-87 -34.5q-61 0 -86.5 35t-25.5 115q0 81 25 115t87 34zM525 236q-28 0 -39 -18.5t-11 -72.5q0 -55 11 -73.5t39 -18.5q29 0 40 18.5t11 73.5q0 54 -11 72.5t-40 18.5z" />
    <glyph glyph-name="ampersand" unicode="&#x26;" horiz-adv-x="645" 
d="M591 66v-29q0 -21 -26.5 -33.5t-56.5 -12.5q-66 0 -98 53q-5 7 -10 0q-32 -52 -137 -52q-102 0 -145 51t-43 155q0 71 24 118t70 62q8 3 8 5t-6 5q-68 37 -68 148q0 86 47.5 128.5t148.5 42.5q82 0 128 -13q20 -6 18 -29l-5 -32q0 -10 -9 -10q-3 0 -47 4t-76 4
q-57 0 -87 -24t-30 -85q0 -62 25 -91t79 -29h84q9 0 9 8v91q0 11 11 11h33q8 0 15 -10l10 -14q10 -16 10 -39v-34q0 -13 16 -13h84q8 0 8 -8v-52q0 -7 -8 -7h-86q-9 0 -9 -8v-191q0 -28 12.5 -48t34.5 -20q18 0 37.5 4.5t23.5 4.5q11 0 11 -11zM379 335h-110
q-106 0 -106 -133q0 -70 28 -102.5t89 -32.5q52 0 80 22.5t28 59.5v177q0 9 -9 9z" />
    <glyph glyph-name="quotesingle" unicode="'" horiz-adv-x="210" 
d="M80 700h52q12 0 12 -12v-95q0 -30 -11 -56t-40 -69q-8 -11 -22 -7l-16 3q-12 2 -11 11q24 62 24 119v94q0 12 12 12z" />
    <glyph glyph-name="parenleft" unicode="(" horiz-adv-x="287" 
d="M267 -47l-17 -28q-7 -12 -18 -6q-176 79 -174 423q-2 343 174 422q10 6 18 -5l17 -29q7 -10 -5 -17q-128 -75 -128 -371t128 -372q12 -7 5 -17z" />
    <glyph glyph-name="parenright" unicode=")" horiz-adv-x="299" 
d="M24 730l18 29q6 11 18 5q176 -79 174 -422q2 -344 -174 -423q-11 -6 -18 6l-18 28q-5 11 6 17q127 76 127 372q0 297 -127 371q-13 6 -6 17z" />
    <glyph glyph-name="asterisk" unicode="*" horiz-adv-x="463" 
d="M209 700h44q12 0 12 -12l-2 -110q-1 -7 3 -9.5t11 -0.5l104 35q12 5 15 -7l13 -41q4 -12 -7 -15l-102 -31q-14 -3 -5 -16l66 -87q7 -10 -2 -16l-36 -26q-9 -8 -16 2l-67 96q-9 11 -17 0l-67 -96q-7 -10 -17 -3l-36 26q-9 8 -3 17l66 87q9 12 -5 15l-99 31q-11 3 -8 14
l13 42q3 10 16 7l103 -34q13 -5 13 9l-2 111q0 12 12 12z" />
    <glyph glyph-name="plus" unicode="+" horiz-adv-x="530" 
d="M241 447h48q11 0 11 -11v-126q0 -11 9 -11h128q11 0 11 -9v-48q0 -10 -11 -10h-127q-10 0 -10 -10v-130q0 -9 -10 -9h-49q-10 0 -10 9v129q0 11 -9 11h-129q-10 0 -10 9v49q0 9 10 9h128q10 0 10 10v127q0 11 10 11z" />
    <glyph glyph-name="comma" unicode="," horiz-adv-x="229" 
d="M81 136h52q12 0 12 -13v-94q0 -31 -11 -57.5t-40 -68.5q-7 -10 -22 -7l-16 3q-12 3 -11 11q24 64 24 120v93q0 13 12 13z" />
    <glyph glyph-name="hyphen" unicode="-" horiz-adv-x="379" 
d="M69 305h240q10 0 10 -9v-48q0 -11 -10 -11h-240q-9 0 -9 10v49q0 9 9 9z" />
    <glyph glyph-name="period" unicode="." horiz-adv-x="224" 
d="M83 160h58q11 0 11 -11v-138q0 -11 -11 -11h-58q-11 0 -11 11v138q0 11 11 11z" />
    <glyph glyph-name="slash" unicode="/" horiz-adv-x="293" 
d="M225 755h49q9 0 8 -10l-195 -803q-3 -9 -13 -9h-50q-10 0 -8 9l196 803q2 10 13 10z" />
    <glyph glyph-name="zero" unicode="0" horiz-adv-x="578" 
d="M287 708q82 0 126 -30t64.5 -105.5t20.5 -217.5q0 -148 -20 -225.5t-64 -108t-127 -30.5q-82 0 -126 30.5t-64.5 108.5t-20.5 225q0 142 20.5 217.5t64.5 105.5t126 30zM287 631q-52 0 -77.5 -22t-36.5 -79.5t-11 -174.5q0 -120 11 -180t36.5 -83.5t77.5 -23.5t77.5 23.5
t36 83t10.5 180.5q0 170 -24 223t-100 53z" />
    <glyph glyph-name="one" unicode="1" horiz-adv-x="386" 
d="M56 632v37q0 21 19 26q38 12 79 12q64 0 91.5 -26.5t27.5 -90.5v-579q0 -11 -11 -11h-62q-11 0 -11 11v553q0 37 -10 51t-43 14q-15 0 -39 -3t-31 -3q-10 0 -10 9z" />
    <glyph glyph-name="two" unicode="2" horiz-adv-x="506" 
d="M76 626l-5 45q-1 17 13 21q53 16 146 16q112 0 159 -39.5t47 -126.5q0 -47 -18.5 -86.5t-41 -64t-71.5 -69.5q-87 -79 -120 -125t-33 -115q0 -4 4 -4h270q12 0 12 -12v-54q0 -12 -12 -12h-345q-15 0 -15 15v41q0 68 19.5 120t45.5 83t77 77q47 43 64 60t40 44t29.5 47.5
t6.5 45.5q0 52 -30 75t-101 23q-30 0 -60 -3.5t-48.5 -7t-22.5 -3.5q-8 0 -10 9z" />
    <glyph glyph-name="three" unicode="3" horiz-adv-x="505" 
d="M63 628l-5 40q-1 16 14 22q46 18 131 18q114 0 161.5 -42.5t47.5 -128.5q0 -123 -79 -157q-9 -4 0 -5q51 -11 77 -56t26 -112q0 -215 -221 -215q-107 0 -147 16q-13 6 -11 24l4 41q2 9 10 9q3 0 22.5 -3t49 -5.5t57.5 -2.5q80 0 114 31.5t34 106.5q0 66 -28 93t-103 27
h-84q-12 0 -12 12v53q0 12 12 12h77q64 0 89 27.5t25 84.5q0 62 -28.5 87.5t-100.5 25.5q-39 0 -80 -6t-42 -6q-8 0 -10 9z" />
    <glyph glyph-name="four" unicode="4" horiz-adv-x="533" 
d="M336 700h37q32 0 32 -32v-461q0 -7 7 -8h79q12 0 12 -12v-47q0 -12 -12 -12h-79q-7 0 -7 -8v-108q0 -12 -12 -12h-61q-12 0 -12 12v108q0 8 -7 8h-209q-51 0 -51 51v75q0 50 32 99l204 322q16 25 47 25zM320 207v376q-8 0 -12 -9l-154 -254q-18 -30 -18 -64v-49
q0 -7 7 -7h170q7 0 7 7z" />
    <glyph glyph-name="five" unicode="5" horiz-adv-x="527" 
d="M132 700h284q12 0 12 -12v-54q0 -12 -12 -12h-234q-12 0 -12 -11v-187q47 9 101 9q96 0 139.5 -48.5t43.5 -165.5q0 -113 -50.5 -170t-170.5 -57q-88 0 -137 15q-14 3 -12 19l5 45q1 11 12 11q4 0 21.5 -3t46 -6.5t60.5 -3.5q78 0 107.5 32.5t29.5 117.5q0 81 -27 109
t-89 28q-41 0 -86.5 -7t-46.5 -7q-5 0 -12 4l-13 10q-7 4 -7 15v282q0 47 47 47z" />
    <glyph glyph-name="six" unicode="6" horiz-adv-x="533" 
d="M70 177v306q0 121 45 173t158 52q90 0 146 -14q17 -6 16 -20l-5 -49q0 -11 -12 -11q-102 12 -133 12q-75 0 -103 -29t-28 -110v-60q0 -8 7 -8q3 0 19.5 2.5t43 4.5t53.5 2q104 0 147 -49.5t43 -152.5q0 -128 -46.5 -181t-158.5 -53q-105 0 -148.5 42t-43.5 143zM154 326
v-149q0 -60 22 -84t86 -24q73 0 95.5 33t22.5 120q0 69 -23 99t-92 30q-61 0 -102 -9q-9 -3 -9 -16z" />
    <glyph glyph-name="seven" unicode="7" horiz-adv-x="463" 
d="M54 700h276q64 0 64 -59v-173q0 -58 -12.5 -96t-38.5 -81l-170 -286q-7 -13 -20 -6l-46 26q-14 7 -6 19l167 287q23 39 32 68t9 72v129q0 20 -19 20h-236q-12 0 -12 12v56q0 12 12 12z" />
    <glyph glyph-name="eight" unicode="8" horiz-adv-x="545" 
d="M200 365l-54 52q-35 30 -51 61.5t-16 80.5q0 149 197 149q103 0 149 -38.5t46 -111.5q0 -42 -16 -71.5t-49 -63.5l-61 -58q-4 -4 0 -8l56 -53q41 -35 61.5 -69t20.5 -79q0 -82 -47.5 -123t-160.5 -41t-161 41t-48 119q0 45 19 78.5t59 71.5l56 56q5 4 0 7zM282 402l57 56
q16 17 24.5 27t15.5 27.5t7 36.5q0 41 -24 60t-87 19q-64 0 -88 -19.5t-24 -59.5q0 -31 13 -52t40 -44l55 -51q6 -5 11 0zM335 261l-60 53q-6 4 -11 -1l-56 -54q-56 -53 -56 -98t26.5 -67t96.5 -22t96 21.5t26 66.5q0 51 -62 101z" />
    <glyph glyph-name="nine" unicode="9" horiz-adv-x="540" 
d="M365 213v65q0 6 -6 6q-2 0 -19.5 -3t-44 -6t-52.5 -3q-105 0 -145.5 52t-40.5 163q0 121 43.5 171t160.5 50q108 0 148.5 -42t40.5 -130v-328q0 -110 -45.5 -163t-162.5 -53q-100 0 -142 11q-13 5 -16.5 11t-1.5 20l4 29q1 16 15 16q95 -10 128 -10q79 0 107.5 29.5
t28.5 114.5zM365 374v154q0 60 -23 81.5t-86 21.5q-70 0 -92.5 -28.5t-22.5 -115.5q0 -76 23.5 -107t92.5 -31q26 0 59 4.5t40 6.5q9 3 9 14z" />
    <glyph glyph-name="colon" unicode=":" horiz-adv-x="250" 
d="M94 500h62q11 0 11 -11v-120q0 -10 -11 -10h-62q-11 0 -11 10v120q0 11 11 11zM94 141h62q11 0 11 -11v-119q0 -11 -11 -11h-62q-11 0 -11 11v119q0 11 11 11z" />
    <glyph glyph-name="semicolon" unicode=";" horiz-adv-x="229" 
d="M79 500h52q12 0 12 -11v-107q0 -10 -12 -10h-52q-11 0 -11 10v107q0 11 11 11zM81 136h52q12 0 12 -13v-94q0 -31 -11 -57.5t-40 -68.5q-7 -10 -22 -7l-16 3q-12 3 -11 11q24 64 24 120v93q0 13 12 13z" />
    <glyph glyph-name="less" unicode="&#x3c;" horiz-adv-x="403" 
d="M319 511l28 -27q12 -10 2 -17l-208 -202q-11 -11 0 -21l209 -202q8 -8 -2 -17l-29 -27q-9 -9 -20 2l-248 236q-8 8 -8 18t8 18l248 239q11 9 20 0z" />
    <glyph glyph-name="equal" unicode="=" horiz-adv-x="508" 
d="M86 417h335q10 0 10 -9v-48q0 -10 -10 -10h-335q-9 0 -9 9v49q0 9 9 9zM86 262h335q10 0 10 -10v-48q0 -9 -10 -9h-335q-9 0 -9 8v49q0 10 9 10z" />
    <glyph glyph-name="greater" unicode="&#x3e;" horiz-adv-x="403" 
d="M49 484l29 27q10 10 19 -1l248 -237q19 -19 0 -37l-248 -236q-11 -11 -20 -2l-28 27q-10 9 -2 17l209 202q10 10 0 21l-209 202q-9 8 2 17z" />
    <glyph glyph-name="question" unicode="?" horiz-adv-x="473" 
d="M75 626l-5 47q-3 14 11 19q49 15 150 15q112 0 154 -34t42 -115q0 -44 -17 -74t-41 -46.5t-48.5 -30.5t-41.5 -38t-17 -58v-67q0 -11 -11 -11h-55q-12 0 -12 11v78q0 43 16 74t39 47.5t46 30t39 33t16 45.5q0 43 -26.5 60t-99.5 17q-36 0 -82.5 -6t-47.5 -6q-9 0 -9 9z
M189 151h69q11 0 11 -11v-129q0 -11 -11 -11h-69q-11 0 -11 11v129q0 11 11 11z" />
    <glyph glyph-name="at" unicode="@" horiz-adv-x="720" 
d="M449 -13l4 -21q3 -20 -12 -28q-32 -20 -118 -20q-263 0 -263 322q0 188 69.5 265t234.5 77q153 0 224.5 -66.5t71.5 -231.5q0 -119 -33 -164.5t-102 -45.5q-38 0 -57.5 12.5t-29.5 38.5h-6q-10 -18 -34 -31t-53 -13q-57 0 -85.5 39.5t-28.5 130.5q0 90 29 126.5t103 36.5
q65 0 92.5 -25t27.5 -86v-107q0 -34 10.5 -47t32.5 -13q36 0 48.5 27t12.5 119q0 132 -52.5 183.5t-170.5 51.5q-121 0 -176.5 -58t-55.5 -210q0 -68 12 -117.5t30.5 -77.5t46.5 -45t54 -22t59 -5q34 0 57.5 3.5t35 7.5t13.5 4q8 0 9 -10zM419 215v74q0 35 -13 46.5
t-45 11.5q-38 0 -51 -19.5t-13 -78.5q0 -57 13 -78t46 -21q63 0 63 65z" />
    <glyph glyph-name="A" unicode="A" 
d="M122 556l122 132q18 19 41 19q25 0 42 -20l120 -130q32 -34 32 -77v-468q0 -12 -13 -12h-60q-12 0 -12 12v179q0 7 -8 7h-203q-8 0 -8 -7v-179q0 -12 -12 -12h-60q-12 0 -12 12v468q0 45 31 76zM384 506l-92 103q-4 4 -7 4t-7 -4l-93 -103q-10 -10 -10 -25v-198
q0 -7 8 -7h203q8 0 8 7v198q0 15 -10 25z" />
    <glyph glyph-name="B" unicode="B" horiz-adv-x="546" 
d="M91 49v478q0 97 38.5 139t144.5 42q103 0 151.5 -41.5t48.5 -126.5q0 -130 -78 -163v-2q105 -26 105 -174q0 -101 -48 -151t-151 -50h-160q-23 0 -37 14.5t-14 34.5zM184 394h93q61 0 86.5 29t25.5 98q0 60 -26.5 85t-88.5 25q-55 0 -77 -21t-22 -74v-133q0 -9 9 -9z
M296 329h-112q-9 0 -9 -9v-235q0 -8 9 -8h104q67 0 96 30.5t29 98.5t-27.5 95.5t-89.5 27.5z" />
    <glyph glyph-name="C" unicode="C" horiz-adv-x="496" 
d="M447 68l4 -35q3 -20 -15 -27q-40 -14 -131 -14q-135 -1 -183.5 78t-48.5 282q0 204 49 280.5t184 76.5q86 0 128 -10q15 -4 14 -20l-4 -48q-2 -9 -10 -9q-1 0 -42 4.5t-70 4.5q-64 1 -96 -17.5t-48.5 -79t-16.5 -182.5q0 -124 15.5 -184t47 -80t97.5 -20q38 0 76.5 5
t39.5 5q8 0 10 -10z" />
    <glyph glyph-name="D" unicode="D" horiz-adv-x="588" 
d="M139 700h144q125 0 178.5 -75t53.5 -275q1 -199 -53 -274.5t-179 -75.5h-145q-20 0 -33.5 14.5t-13.5 34.5v604q0 21 14 34t34 13zM276 623h-92q-3 0 -6 -3t-3 -5v-530q0 -2 3 -5t6 -3h92q58 0 88.5 19.5t47.5 79t17 174.5t-17 174.5t-47.5 79t-88.5 19.5z" />
    <glyph glyph-name="E" unicode="E" horiz-adv-x="507" 
d="M265 700h165q12 0 12 -12v-54q0 -12 -12 -12h-140q-73 0 -94 -18t-21 -84v-116q0 -6 7 -6h212q12 0 12 -12v-54q0 -12 -12 -12h-212q-7 0 -7 -6v-134q0 -66 21 -84t94 -18h140q12 0 12 -12v-54q0 -12 -12 -12h-150q-109 0 -149 37t-40 130v366q0 92 37.5 129.5
t136.5 37.5z" />
    <glyph glyph-name="F" unicode="F" horiz-adv-x="459" 
d="M260 700h152q12 0 12 -12v-54q0 -12 -12 -12h-133q-66 0 -85 -18t-19 -84v-139q0 -6 7 -6h209q12 0 12 -12v-54q0 -12 -12 -12h-209q-7 0 -7 -6v-282q0 -9 -9 -9h-66q-9 0 -9 9v524q0 94 34.5 130.5t134.5 36.5z" />
    <glyph glyph-name="G" unicode="G" 
d="M504 357v-172q0 -94 -48.5 -143t-158.5 -49q-127 0 -175.5 80.5t-48.5 278.5q0 142 23.5 218.5t73.5 106.5t141 30q95 0 147 -11q17 -3 14 -22l-6 -43q0 -9 -10 -9q-2 0 -48.5 3.5t-86.5 3.5q-65 0 -97 -20t-47.5 -79t-15.5 -178q0 -116 16 -177t44 -80.5t80 -19.5
q64 0 91 28t27 93v123q0 6 -6 6h-128q-12 0 -12 12v54q0 12 12 12h174q45 0 45 -46z" />
    <glyph glyph-name="H" unicode="H" horiz-adv-x="601" 
d="M435 700h65q11 0 11 -11v-680q0 -9 -10 -9h-66q-9 0 -9 9v291q0 7 -8 7h-235q-8 0 -8 -7v-291q0 -9 -9 -9h-66q-9 0 -9 9v680q0 11 9 11h66q9 0 9 -11v-292q0 -7 8 -7h235q8 0 8 7v292q0 11 9 11z" />
    <glyph glyph-name="I" unicode="I" horiz-adv-x="267" 
d="M103 700h62q12 0 12 -12v-676q0 -12 -12 -12h-62q-12 0 -12 12v676q0 12 12 12z" />
    <glyph glyph-name="J" unicode="J" horiz-adv-x="419" 
d="M256 700h60q12 0 12 -12v-510q0 -98 -33.5 -141.5t-128.5 -43.5q-69 0 -107 12q-18 7 -17 25l5 43q2 10 10 10q3 0 16 -2.5t36 -5t48 -2.5q52 0 69.5 21.5t17.5 90.5v503q0 12 12 12z" />
    <glyph glyph-name="K" unicode="K" horiz-adv-x="541" 
d="M424 700h70q16 0 7 -13l-194 -312v-9l200 -347q6 -11 4.5 -15t-11.5 -4h-65q-17 0 -22 10l-174 305q-6 11 -15 11h-43q-7 0 -7 -8v-306q0 -12 -12 -12h-59q-12 0 -12 12v676q0 12 12 12h59q12 0 12 -12v-276q0 -7 7 -7h42q10 0 14 8l168 276q6 11 19 11z" />
    <glyph glyph-name="L" unicode="L" horiz-adv-x="464" 
d="M103 700h60q12 0 12 -12v-513q0 -61 18.5 -79t82.5 -18h145q12 0 12 -12v-54q0 -12 -12 -12h-155q-100 0 -137.5 36t-37.5 122v530q0 12 12 12z" />
    <glyph glyph-name="M" unicode="M" horiz-adv-x="664" 
d="M534 700h13q26 0 26 -29v-661q0 -10 -9 -10h-66q-9 0 -9 10v492q0 4 -1.5 4.5t-3.5 -2.5l-121 -200q-11 -18 -31 -18t-31 18l-121 200q-2 3 -3.5 2.5t-1.5 -4.5v-492q0 -10 -9 -10h-66q-9 0 -9 10v661q0 29 26 29h13q17 0 27 -15l166 -274q5 -9 9 -9t9 9l166 274
q10 15 27 15z" />
    <glyph glyph-name="N" unicode="N" horiz-adv-x="595" 
d="M432 700h66q9 0 9 -9v-662q0 -29 -28 -29h-26q-11 0 -16 9l-258 492q-2 4 -4.5 3t-2.5 -5v-490q0 -9 -9 -9h-66q-10 0 -10 9v662q0 29 29 29h29q13 0 20 -11l251 -482q2 -4 4.5 -3t2.5 5v482q0 9 9 9z" />
    <glyph glyph-name="O" unicode="O" horiz-adv-x="593" 
d="M297 708q72 0 116 -18.5t67.5 -65t31.5 -108t8 -164.5q0 -104 -8 -166t-31.5 -109t-67.5 -66t-116 -19t-116.5 19t-68 66t-31.5 109t-8 166q0 82 5 136t18.5 99.5t38.5 70t64.5 37.5t97.5 13zM297 628q-58 0 -85.5 -21.5t-39 -79t-11.5 -176.5q0 -120 11.5 -177.5
t39 -79.5t85.5 -22q57 0 84.5 22t39 80t11.5 177t-11.5 176.5t-39 79t-84.5 21.5z" />
    <glyph glyph-name="P" unicode="P" horiz-adv-x="525" 
d="M91 12v513q0 94 42 136.5t156 42.5q110 0 155 -53.5t45 -158.5q0 -108 -46 -163t-158 -55h-102q-8 0 -8 -7v-255q0 -12 -12 -12h-60q-12 0 -12 12zM183 352h98q71 0 97.5 33t26.5 107q0 73 -25 104t-91 31t-90 -21t-24 -80v-167q0 -7 8 -7z" />
    <glyph glyph-name="Q" unicode="Q" horiz-adv-x="593" 
d="M459 -105v-32q0 -16 -11 -20q-24 -9 -57 -9q-72 0 -102 35.5t-31 102.5q-1 14 -6 20t-18 10q-97 12 -129 89.5t-32 260.5q0 82 5 136t18.5 99.5t38.5 70t64.5 37.5t97.5 13q72 0 116 -18.5t68 -65t31.5 -107.5t7.5 -165q0 -194 -32 -266t-131 -85q-12 -4 -15 -8t-3 -15
q0 -43 13.5 -58.5t49.5 -15.5q15 0 28.5 1.5t16.5 1.5q12 0 12 -12zM297 629q-57 0 -84.5 -21.5t-39.5 -79.5t-12 -177q0 -118 12 -175.5t39.5 -79t84.5 -21.5q56 0 83.5 21.5t39.5 79t12 175.5q0 119 -12 177t-39.5 79.5t-83.5 21.5z" />
    <glyph glyph-name="R" unicode="R" horiz-adv-x="560" 
d="M91 10v518q0 94 40 137t152 43q106 0 155.5 -47.5t49.5 -161.5q0 -81 -26.5 -124.5t-80.5 -65.5q-10 -5 -5 -14l148 -285q3 -4 1 -7t-6 -3h-67q-13 0 -18 10l-141 265q-5 9 -17 9h-91q-10 0 -10 -10v-264q0 -10 -9 -10h-66q-9 0 -9 10zM185 361h92q69 0 97 33.5t28 100.5
q0 76 -28 106t-92 30q-60 0 -83.5 -23.5t-23.5 -87.5v-149q0 -10 10 -10z" />
    <glyph glyph-name="S" unicode="S" horiz-adv-x="514" 
d="M84 33l5 42q0 9 10 9q4 0 22 -3t48.5 -6t63.5 -3q77 0 104.5 26.5t27.5 85.5q0 51 -29.5 79.5t-106.5 68.5q-60 31 -90.5 54t-48.5 59.5t-18 90.5q0 94 45 133t153 39q103 0 146 -9q15 -3 14 -18l-5 -53q0 -10 -10 -10q-3 0 -24 2.5t-53 5t-61 2.5q-66 0 -91.5 -21.5
t-25.5 -76.5q0 -14 2.5 -25t5 -19.5t11.5 -18t13 -14.5t20 -14.5t23 -13.5t30 -16.5t33 -17.5q92 -51 123.5 -90.5t31.5 -117.5q0 -100 -47 -145.5t-161 -45.5q-96 0 -144 14q-20 5 -17 27z" />
    <glyph glyph-name="T" unicode="T" horiz-adv-x="478" 
d="M39 701h400q12 0 12 -13v-53q0 -12 -12 -12h-151q-7 0 -7 -6v-605q0 -12 -12 -12h-60q-12 0 -12 12v605q0 6 -6 6h-152q-12 0 -12 12v53q0 13 12 13z" />
    <glyph glyph-name="U" unicode="U" horiz-adv-x="602" 
d="M433 700h65q10 0 10 -10v-485q0 -116 -41.5 -164t-165.5 -48q-123 0 -165 48t-42 164v485q0 10 10 10h65q10 0 10 -10v-488q0 -78 24 -104.5t98 -26.5q73 0 97.5 26.5t24.5 104.5v488q0 10 10 10z" />
    <glyph glyph-name="V" unicode="V" horiz-adv-x="590" 
d="M420 700h69q9 0 9 -10v-452q0 -48 -22 -71l-134 -148q-21 -24 -47 -24q-23 0 -46 24l-135 148q-21 25 -21 71v452q0 10 9 10h68q9 0 9 -10v-448q0 -19 9 -29l95 -109q7 -9 12 -9t13 9l95 109q10 12 10 29v448q0 10 7 10z" />
    <glyph glyph-name="W" unicode="W" horiz-adv-x="785" 
d="M622 700h68q8 0 8 -9v-453q0 -36 -6 -56t-24 -40l-103 -131q-15 -19 -39 -18.5t-42 21.5l-84 111q-4 5 -10 0l-84 -110q-17 -21 -41.5 -21.5t-41.5 19.5l-103 129q-18 21 -23.5 40.5t-5.5 55.5v453q0 9 7 9h69q8 0 8 -9v-474q0 -13 11 -26l69 -94q7 -10 16 1l72 96
q9 12 9 22v475q0 9 9 9h67q9 0 9 -9v-475q0 -9 11 -23l71 -96q7 -9 16 0l67 94q11 15 11 26v474q0 9 9 9z" />
    <glyph glyph-name="X" unicode="X" horiz-adv-x="565" 
d="M404 700h67q9 0 9 -10v-129q0 -48 -25 -76l-99 -117q-8 -8 0 -16l99 -114q25 -28 25 -77v-151q0 -10 -9 -10h-67q-8 0 -8 10v149q0 18 -11 32l-90 112q-11 13 -21 0l-94 -112q-10 -13 -10 -32v-149q0 -10 -9 -10h-66q-10 0 -10 10v151q0 50 24 77l103 115q7 8 0 15
l-102 117q-25 28 -25 76v129q0 10 10 10h66q9 0 9 -10v-126q0 -20 10 -32l92 -113q13 -17 25 0l88 113q11 14 11 33v125q0 10 8 10z" />
    <glyph glyph-name="Y" unicode="Y" horiz-adv-x="541" 
d="M392 700h67q9 0 9 -10v-185q0 -48 -25 -77l-116 -136q-13 -16 -13 -34v-249q0 -9 -9 -9h-65q-9 0 -9 9v249q0 20 -13 34l-121 137q-24 28 -24 76v185q0 10 10 10h66q9 0 9 -10v-183q0 -20 10 -31l92 -114q13 -15 25 1l88 113q11 14 11 32v182q0 10 8 10z" />
    <glyph glyph-name="Z" unicode="Z" horiz-adv-x="500" 
d="M78 700h332q16 0 22.5 -6.5t6.5 -22.5v-41q0 -13 -4 -19l-284 -527q-4 -6 3 -6h273q12 0 12 -12v-54q0 -12 -12 -12h-337q-29 0 -29 29v45q0 13 7 26l276 517q4 6 -4 6h-262q-12 0 -12 12v53q0 12 12 12z" />
    <glyph glyph-name="bracketleft" unicode="[" horiz-adv-x="334" 
d="M78 17v649q0 56 23 80.5t74 24.5q46 0 81 -7q17 -4 17 -20v-26q0 -10 -10 -10h-71q-27 0 -37 -12.5t-10 -45.5v-618q0 -33 9.5 -45t37.5 -12h71q10 0 10 -10v-26q0 -17 -16 -20q-28 -7 -82 -7q-51 0 -74 24.5t-23 80.5z" />
    <glyph glyph-name="backslash" unicode="\" horiz-adv-x="388" 
d="M58 755h56q7 0 11 -10l201 -803q3 -9 -8 -9h-56q-8 0 -11 8l-201 804q-2 10 8 10z" />
    <glyph glyph-name="bracketright" unicode="]" horiz-adv-x="316" 
d="M43 718v26q0 16 17 20q37 7 81 7q51 0 74.5 -24.5t23.5 -80.5v-649q0 -56 -23.5 -80.5t-74.5 -24.5q-52 0 -82 7q-16 3 -16 20v26q0 10 11 10h71q27 0 36.5 12t9.5 45v618q0 33 -9.5 45.5t-36.5 12.5h-71q-11 0 -11 10z" />
    <glyph glyph-name="asciicircum" unicode="^" horiz-adv-x="503" 
d="M39 465l167 179q27 25 47 25q21 0 46 -25l165 -177q9 -10 6.5 -15.5t-14.5 -5.5h-55q-25 0 -41 18l-98 111q-10 12 -20 -1l-96 -110q-12 -13 -20 -15.5t-25 -2.5h-52q-13 0 -15 6t5 13z" />
    <glyph glyph-name="underscore" unicode="_" horiz-adv-x="607" 
d="M96 0h414q10 0 10 -9v-48q0 -10 -10 -10h-414q-9 0 -9 9v49q0 9 9 9z" />
    <glyph glyph-name="grave" unicode="`" horiz-adv-x="204" 
d="M38 700h67q10 0 13 -10l44 -108q6 -16 -9 -16h-23q-14 0 -21 10l-77 112q-3 4 -1.5 8t7.5 4z" />
    <glyph glyph-name="a" unicode="a" horiz-adv-x="472" 
d="M84 443l-5 31q-1 18 14 24q49 18 126 18q97 0 138.5 -41.5t41.5 -154.5v-310q0 -10 -11 -10h-36q-12 0 -14 9l-8 42q0 2 -3 2q-2 0 -7.5 -6.5t-15 -15.5t-23.5 -17.5t-38.5 -15t-54.5 -6.5q-73 0 -104.5 38.5t-31.5 126.5q0 79 38 114.5t121 35.5h94q14 0 14 15
q0 73 -23 98t-84 25q-32 0 -73.5 -7.5t-42.5 -7.5q-10 0 -12 13zM309 243h-80q-55 0 -78 -19t-23 -67q0 -56 19.5 -77t62.5 -21q53 0 81.5 31t28.5 83v58q0 12 -11 12z" />
    <glyph glyph-name="b" unicode="b" horiz-adv-x="495" 
d="M81 700h63q8 0 8 -8v-212q0 -3 3 -3l1 1l4 4t7 6q32 28 100 28q45 0 75 -10t54 -37t35 -78t11 -130q0 -152 -44 -210.5t-142 -58.5q-105 0 -144 43t-39 150v507q0 8 8 8zM151 350v-184q0 -54 23 -77.5t78 -23.5q63 0 87 38.5t24 157.5q0 107 -24 143t-83 36
q-103 0 -105 -90z" />
    <glyph glyph-name="c" unicode="c" horiz-adv-x="410" 
d="M348 62l5 -34q3 -19 -16 -26q-37 -10 -102 -10q-103 0 -143 59.5t-40 204.5t38.5 202.5t137.5 57.5q70 0 109 -14q18 -7 16 -25l-5 -36q-2 -11 -10 -11q-1 0 -33.5 6.5t-59.5 6.5q-64 0 -87 -39t-23 -149t24 -150t92 -40q21 0 53.5 3.5t33.5 3.5q9 0 10 -10z" />
    <glyph glyph-name="d" unicode="d" horiz-adv-x="488" 
d="M348 700h55q12 0 12 -12v-505q0 -101 -41 -146t-141 -45q-102 0 -141.5 57.5t-39.5 202.5q0 152 39 207.5t129 55.5q34 0 59 -8.5t37.5 -16.5t14.5 -8q5 0 5 7v199q0 12 12 12zM338 176v175q0 48 -25 69t-76 21q-40 0 -60.5 -12t-33 -54t-12.5 -123q0 -115 22 -151
t81 -36q58 0 81 24.5t23 86.5z" />
    <glyph glyph-name="e" unicode="e" horiz-adv-x="459" 
d="M388 69l6 -28q5 -20 -14 -28q-42 -20 -128 -20q-74 0 -115.5 22t-62.5 79t-21 161t21.5 162t60.5 78.5t105 20.5q91 0 131 -50.5t40 -172.5v-26q0 -44 -45 -44h-228q-5 0 -5 -5v-8q0 -88 27.5 -117.5t98.5 -29.5q35 0 75 9t41 9q10 0 13 -12zM139 285h194q5 0 5 6
q0 93 -22.5 124t-74.5 31q-58 0 -83 -31.5t-25 -122.5q0 -7 6 -7z" />
    <glyph glyph-name="f" unicode="f" horiz-adv-x="307" 
d="M90 516v34q0 88 30 121.5t104 33.5q47 0 73 -10q15 -5 12 -24l-4 -34q-2 -11 -11 -11q-2 0 -23 3t-39 3q-35 0 -48.5 -17.5t-13.5 -63.5v-36q0 -7 8 -7h101q12 0 12 -12v-46q0 -12 -12 -12h-101q-8 0 -8 -9v-419q0 -10 -11 -10h-58q-11 0 -11 10v420q-1 8 -8 8h-54
q-12 0 -12 12v46q0 12 12 12h54q8 0 8 8z" />
    <glyph glyph-name="g" unicode="g" horiz-adv-x="502" 
d="M349 69h-3q-42 -51 -120 -51q-88 0 -130.5 55t-42.5 197q0 134 39.5 190t136.5 56q89 0 127 -51q6 -7 7 -7t4 6l7 30q5 14 22 14h21q12 0 12 -12v-488q0 -100 -44 -149t-152 -49q-79 0 -124 14q-13 5 -12 21l4 33q2 14 13 14q3 0 43 -5.5t69 -5.5q75 0 99 31t24 102v55z
M349 210v146q0 39 -27 62.5t-78 23.5q-61 0 -86 -36t-25 -136q0 -101 26.5 -139.5t80.5 -38.5q56 0 88 34q21 23 21 84z" />
    <glyph glyph-name="h" unicode="h" horiz-adv-x="511" 
d="M84 700h57q11 0 11 -10v-225q0 -2 1 -2q3 0 4 2q36 51 127 51q89 0 121.5 -42t32.5 -137v-327q0 -10 -9 -10h-62q-10 0 -10 10v321q0 64 -20.5 88t-72.5 24q-58 0 -84.5 -26t-26.5 -86v-321q0 -10 -10 -10h-60q-10 0 -10 10v680q0 10 11 10z" />
    <glyph glyph-name="i" unicode="i" horiz-adv-x="231" 
d="M85 700h61q12 0 12 -12v-95q0 -13 -12 -13h-61q-12 0 -12 13v95q0 12 12 12zM87 508h57q12 0 12 -12v-484q0 -12 -12 -12h-59q-10 0 -10 12v484q0 12 12 12z" />
    <glyph glyph-name="j" unicode="j" horiz-adv-x="248" 
d="M105 700h58q12 0 12 -12v-90q0 -12 -12 -12h-58q-12 0 -12 12v90q0 12 12 12zM106 507h58q11 0 11 -10v-533q0 -84 -31.5 -119t-105.5 -35q-52 0 -81 9q-15 4 -14 23l4 36q1 11 10 11q2 0 23.5 -3t40.5 -3q42 0 58 18.5t16 70.5v525q0 10 11 10z" />
    <glyph glyph-name="k" unicode="k" horiz-adv-x="468" 
d="M85 700h56q12 0 12 -12v-377q0 -6 6 -6h56q4 0 6 5l94 188q4 10 20 10h59q20 0 11 -17l-106 -193q-2 -5 3 -7q55 -19 80 -90l67 -188q5 -13 -10 -13h-57q-13 0 -18 16l-60 160q-19 55 -75 55h-70q-6 0 -6 -6v-213q0 -12 -12 -12h-56q-12 0 -12 12v676q0 12 12 12z" />
    <glyph glyph-name="l" unicode="l" horiz-adv-x="235" 
d="M90 700h55q12 0 12 -12v-676q0 -12 -12 -12h-55q-12 0 -12 12v676q0 12 12 12z" />
    <glyph glyph-name="m" unicode="m" horiz-adv-x="737" 
d="M73 12v339q0 84 35 124.5t117 40.5q104 0 139 -69q5 -8 8 -1q28 70 139 70q83 0 118 -40.5t35 -124.5v-339q0 -12 -12 -12h-56q-12 0 -12 12v333q0 53 -20 75t-68 22q-45 0 -66.5 -25t-21.5 -81v-324q0 -12 -11 -12h-57q-12 0 -12 12v324q0 56 -20.5 81.5t-66.5 25.5
q-48 0 -68 -22.5t-20 -75.5v-333q0 -12 -12 -12h-56q-12 0 -12 12z" />
    <glyph glyph-name="n" unicode="n" horiz-adv-x="511" 
d="M73 10v324q0 99 37.5 140.5t145.5 41.5t145 -41.5t37 -140.5v-324q0 -10 -10 -10h-59q-11 0 -11 10v321q0 68 -22 90t-80 22t-80.5 -22t-22.5 -90v-321q0 -10 -10 -10h-60q-10 0 -10 10z" />
    <glyph glyph-name="o" unicode="o" horiz-adv-x="479" 
d="M240 516q107 0 147 -56t40 -204q0 -150 -40 -207t-147 -57t-147 57t-40 207q0 148 40 204t147 56zM240 443q-62 0 -84 -37.5t-22 -149.5q0 -114 22 -152.5t84 -38.5t83.5 38.5t21.5 152.5q0 112 -21.5 149.5t-83.5 37.5z" />
    <glyph glyph-name="p" unicode="p" horiz-adv-x="495" 
d="M73 -174v510q0 180 184 180q102 1 143.5 -55t41.5 -200q0 -147 -43.5 -208t-136.5 -61q-31 0 -55.5 7t-36.5 13.5t-13 6.5q-4 0 -4 -5v-188q0 -12 -12 -12h-56q-12 0 -12 12zM153 323v-191q0 -67 91 -67q44 0 67 13.5t36 56.5t13 126q0 78 -10.5 117t-31.5 52t-62 13
q-57 0 -80 -28t-23 -92z" />
    <glyph glyph-name="q" unicode="q" horiz-adv-x="498" 
d="M347 -174v193q0 3 -0.5 4.5t-2 2.5t-3.5 1q-48 -35 -113 -35q-66 0 -102 21.5t-55 79t-19 164.5q0 148 43 203.5t151 55.5q96 0 138.5 -44t42.5 -141v-505q0 -12 -13 -12h-55q-12 0 -12 12zM347 160v174q0 56 -24.5 80.5t-78.5 24.5q-62 0 -86 -36t-24 -146
q0 -83 11.5 -124t33 -53.5t64.5 -12.5q59 0 86 32q18 24 18 61z" />
    <glyph glyph-name="r" unicode="r" horiz-adv-x="339" 
d="M73 10v374q0 75 28 103.5t97 28.5q50 0 90 -10q13 -4 16 -9.5t1 -18.5l-4 -29q-1 -12 -12 -12q-3 0 -29 3t-42 3q-37 0 -51 -13.5t-14 -51.5v-368q0 -10 -11 -10h-58q-11 0 -11 10z" />
    <glyph glyph-name="s" unicode="s" horiz-adv-x="413" 
d="M212 220l-65 33q-51 25 -73.5 52.5t-22.5 86.5q0 67 40.5 95.5t124.5 28.5q88 0 123 -11q15 -4 12 -20l-4 -32q-1 -13 -13 -13q-2 0 -43 4t-67 4q-46 0 -69.5 -12.5t-23.5 -46.5q0 -32 16.5 -48t60.5 -36l58 -27q56 -27 78.5 -54.5t22.5 -80.5q0 -76 -41 -113.5
t-137 -37.5q-71 0 -116 9q-17 4 -15 21l4 38q2 10 10 10l39 -4q39 -4 74 -4q103 0 103 75q0 30 -15 45t-61 38z" />
    <glyph glyph-name="t" unicode="t" horiz-adv-x="314" 
d="M73 612h45q14 0 16 -16l6 -76q1 -12 14 -12h105q12 0 12 -12v-46q0 -12 -12 -12h-108q-9 0 -9 -8v-298q0 -36 15 -50.5t55 -14.5q18 0 38 3t22 3q9 0 9 -11l6 -40q1 -14 -15 -20q-31 -10 -70 -10q-81 0 -110.5 31t-29.5 104v474q0 11 11 11z" />
    <glyph glyph-name="u" unicode="u" horiz-adv-x="498" 
d="M357 508h56q12 0 12 -12v-307q0 -112 -37.5 -154.5t-137.5 -42.5q-101 0 -139 42.5t-38 154.5v307q0 12 12 12h56q12 0 12 -12v-319q0 -66 21 -89t76 -23t75 22.5t20 89.5v319q0 12 12 12z" />
    <glyph glyph-name="v" unicode="v" horiz-adv-x="496" 
d="M353 508h60q10 0 10 -10v-289q0 -46 -33 -82l-95 -110q-22 -25 -47 -25t-47 25l-96 110q-32 35 -32 82v289q0 10 10 10h60q10 0 10 -10v-288q0 -21 14 -38l71 -90q6 -7 10 -7q5 0 11 7l71 90q13 17 13 38v288q0 10 10 10z" />
    <glyph glyph-name="w" unicode="w" horiz-adv-x="704" 
d="M564 508h55q12 0 12 -12v-296q0 -44 -32 -82l-80 -101q-20 -25 -46 -25q-27 0 -48 25l-69 94q-2 2 -4 2q-1 0 -5 -2l-71 -94q-22 -25 -46 -25q-25 0 -45 25l-80 101q-32 36 -32 82v296q0 12 12 12h56q12 0 12 -12v-293q0 -19 14 -37l55 -82q6 -6 9 -6q5 0 9 6l59 82
q13 17 13 37v295q0 10 11 10h59q10 0 10 -10v-295q0 -19 14 -37l56 -82q7 -7 10 -7q5 0 10 7l56 82q13 17 13 37v293q0 12 13 12z" />
    <glyph glyph-name="x" unicode="x" horiz-adv-x="441" 
d="M327 508h55q12 0 12 -12v-66q0 -47 -24 -71l-89 -98q-4 -4 0 -8l91 -93q24 -24 24 -71v-77q0 -12 -12 -12h-56q-12 0 -12 12v70q0 26 -14 40l-73 81q-5 5 -10 0l-72 -80q-14 -15 -14 -41v-70q0 -12 -12 -12h-56q-12 0 -12 12v77q0 45 23 71l91 97q4 4 0 9l-88 93
q-25 25 -25 71v66q0 12 13 12h55q12 0 12 -12v-59q0 -27 16 -46l69 -77q5 -5 10 0l70 77q15 16 15 46v59q0 12 13 12z" />
    <glyph glyph-name="y" unicode="y" horiz-adv-x="507" 
d="M362 508h59q11 0 11 -10v-503q0 -97 -41 -141.5t-144 -44.5q-75 0 -122 14q-16 5 -15 22l5 40q0 10 10 10l41 -6q41 -6 73 -6q67 0 91 27t24 83v76q0 5 -4 3q-42 -33 -119 -33q-81 0 -118 40t-37 137v282q0 10 11 10h58q11 0 11 -10v-271q0 -67 21.5 -90.5t75.5 -23.5
q48 0 73 19.5t25 53.5v312q0 10 11 10z" />
    <glyph glyph-name="z" unicode="z" horiz-adv-x="425" 
d="M67 508h276q33 0 33 -32v-24q0 -30 -22 -57l-215 -312q-7 -9 3 -9h226q9 0 9 -9v-55q0 -10 -9 -10h-286q-34 0 -34 31v22q0 21 5 33t22 32l209 307q6 9 -4 9h-213q-10 0 -10 10v55q0 9 10 9z" />
    <glyph glyph-name="braceleft" unicode="{" horiz-adv-x="357" 
d="M116 469v193q0 62 26 87.5t90 25.5q57 0 73 -7q15 -7 15 -28v-23q0 -6 -7 -6h-68q-35 0 -46 -15.5t-11 -56.5v-201q0 -46 -37 -69q-9 -5 -9 -11t9 -11q37 -23 37 -74v-210q0 -41 11 -56t46 -15h68q7 0 7 -6v-23q0 -22 -15 -29q-17 -6 -73 -6q-64 0 -90 25t-26 87v207
q0 41 -9 56t-40 31q-16 9 -16 24q0 14 16 24q30 15 39.5 30t9.5 57z" />
    <glyph glyph-name="bar" unicode="|" horiz-adv-x="250" 
d="M100 799h49q10 0 10 -11v-910q0 -9 -9 -9h-50q-9 0 -9 9v910q0 11 9 11z" />
    <glyph glyph-name="braceright" unicode="}" horiz-adv-x="367" 
d="M37 717v23q0 21 15 28q16 7 73 7q64 0 90 -25.5t26 -87.5v-193q0 -41 9.5 -56t39.5 -31q11 -6 13.5 -10t2.5 -14q0 -15 -16 -24q-30 -16 -39.5 -31t-9.5 -56v-207q0 -62 -26 -87t-90 -25q-56 0 -73 6q-15 7 -15 29v23q0 6 7 6h67q35 0 46.5 15t11.5 56v210q0 51 37 74
q10 6 10 11t-10 11q-37 23 -37 69v201q0 41 -11 56.5t-47 15.5h-67q-7 0 -7 6z" />
    <glyph glyph-name="asciitilde" unicode="~" horiz-adv-x="451" 
d="M382 436q18 0 23 -4t2 -15q-23 -87 -102 -87q-38 0 -81.5 23.5t-65.5 23.5q-40 0 -57 -36q-7 -11 -12.5 -14t-21.5 -3q-17 0 -22 4t-1 14q28 94 113 94q37 0 80 -23.5t61 -23.5q38 0 53 32q5 10 10 12.5t21 2.5z" />
    <glyph glyph-name="exclamdown" unicode="&#xa1;" horiz-adv-x="229" 
d="M145 345h-62q-11 0 -11 11v133q0 11 11 11h62q11 0 11 -11v-133q0 -11 -11 -11zM147 -200h-65q-10 0 -10 11v438q0 9 9 9h66q9 0 9 -9v-438q0 -11 -9 -11z" />
    <glyph glyph-name="cent" unicode="&#xa2;" horiz-adv-x="415" 
d="M214 700h47q10 0 10 -11v-108q0 -8 8 -10q41 -2 63 -10q18 -6 17 -21l-4 -45q-2 -9 -10 -9l-37 5q-38 5 -64 5q-58 0 -79.5 -32t-21.5 -112q0 -81 22.5 -115t83.5 -34q26 0 60 3.5t35 3.5q9 0 11 -10l4 -40q1 -12 -14 -20q-32 -12 -76 -12q-8 0 -8 -9v-110q0 -9 -9 -9
h-49q-10 0 -10 9v113q0 7 -6 7q-72 11 -101.5 64t-29.5 159q0 104 32.5 157t106.5 62q8 2 8 10v108q0 11 11 11z" />
    <glyph glyph-name="sterling" unicode="&#xa3;" horiz-adv-x="460" 
d="M114 435v63q0 108 36 158.5t138 50.5q62 0 119 -12q10 -2 13.5 -5.5t2.5 -13.5l-5 -48q0 -10 -9 -10q-3 0 -20.5 3t-43.5 5.5t-49 2.5q-56 0 -76 -24.5t-20 -84.5v-85q0 -9 9 -9h160q11 0 11 -8v-49q0 -10 -11 -10h-160q-9 0 -9 -8v-270q0 -8 9 -8h195q8 0 8 -8v-57
q0 -8 -8 -8h-329q-9 0 -9 8v34q0 11 11 14l27 6q10 3 10 13v276q0 8 -8 8h-37q-10 0 -10 10v49q0 8 10 8h37q8 0 8 9z" />
    <glyph glyph-name="currency" unicode="&#xa4;" horiz-adv-x="607" 
d="M99 503l83 -81q5 -6 12 -4q37 25 110 25q75 0 105 -23q10 -3 15 2l82 81q7 7 14 0l31 -30q6 -6 0 -12l-87 -86q-5 -5 -4 -11q17 -37 17 -111q0 -68 -17 -111q-3 -6 4 -13l86 -83q8 -6 0 -13l-30 -30q-6 -8 -14 0l-81 80q-5 5 -15 3q-32 -25 -106 -25q-70 0 -110 26
q-9 2 -11 -2l-84 -83q-5 -5 -12 0l-31 31q-6 7 0 13l87 86q4 4 3 11q-17 41 -17 110q0 67 17 107q1 8 -4 15l-86 84q-8 7 0 15l30 29q7 7 13 0zM304 375q-55 0 -77.5 -27.5t-22.5 -94.5t22.5 -95t77.5 -28q54 0 76.5 28t22.5 95t-22 94.5t-77 27.5z" />
    <glyph glyph-name="yen" unicode="&#xa5;" horiz-adv-x="596" 
d="M420 700h67q8 0 8 -10v-192q0 -38 -27 -68l-81 -97q-6 -6 3 -6h104q10 0 10 -9v-36q0 -10 -10 -10h-141q-11 0 -11 -12v-45q0 -7 8 -7h144q10 0 10 -9v-37q0 -10 -10 -10h-143q-9 0 -9 -8v-135q0 -9 -9 -9h-65q-9 0 -9 9v135q0 8 -9 8h-149q-9 0 -9 10v37q0 9 9 9h151
q7 0 7 7v45q0 12 -12 12h-146q-9 0 -9 9v37q0 9 9 9h109q9 0 2 7l-83 96q-28 33 -28 75v185q0 10 10 10h66q8 0 8 -10v-183q0 -17 11 -31l92 -114q7 -10 12.5 -9.5t12.5 10.5l88 113q11 16 11 32v182q0 10 8 10z" />
    <glyph glyph-name="brokenbar" unicode="&#xa6;" horiz-adv-x="258" 
d="M105 799h48q10 0 10 -11v-346q0 -12 -9 -12h-49q-10 0 -10 12v346q0 11 10 11zM105 263h48q10 0 10 -11v-375q0 -8 -9 -8h-49q-10 0 -10 8v375q0 11 10 11z" />
    <glyph glyph-name="section" unicode="&#xa7;" horiz-adv-x="466" 
d="M100 28l5 33q2 12 13 12q6 0 37 -4.5t49 -4.5q50 0 70.5 16t20.5 53q0 34 -20.5 52t-70.5 35q-68 25 -97 50.5t-29 79.5q0 51 21.5 77.5t68.5 35.5q3 1 3 3.5t-2 3.5q-67 46 -67 118q0 67 32 93.5t113 26.5q72 0 101 -8q14 -5 13 -17l-4 -39q0 -11 -12 -11
q-4 0 -34.5 3.5t-53.5 3.5q-43 0 -60.5 -15t-17.5 -47q0 -38 27.5 -60t73.5 -38q62 -22 87.5 -46t25.5 -77q0 -98 -94 -114q-2 -1 -2 -3.5t2 -3.5q43 -18 58.5 -45.5t15.5 -71.5q0 -63 -37.5 -95t-120.5 -32q-68 0 -99 11q-17 4 -16 25zM235 413q-44 0 -63 -14.5t-19 -45.5
q0 -64 82 -64q45 0 64 15.5t19 48.5q0 32 -19 46t-64 14z" />
    <glyph glyph-name="dieresis" unicode="&#xa8;" horiz-adv-x="290" 
d="M59 700h46q11 0 11 -11v-104q0 -11 -11 -11h-46q-11 0 -11 11v104q0 11 11 11zM185 700h46q11 0 11 -11v-104q0 -11 -11 -11h-46q-11 0 -11 11v104q0 11 11 11z" />
    <glyph glyph-name="copyright" unicode="&#xa9;" horiz-adv-x="541" 
d="M270 700q205 0 205 -227q0 -116 -50 -173.5t-155 -57.5q-104 0 -153.5 57.5t-49.5 173.5q0 227 203 227zM270 670q-86 0 -128 -47t-42 -151t42 -151.5t128 -47.5t129 47.5t43 151.5t-43 151t-129 47zM333 376v-14q0 -12 -9 -17q-16 -7 -49 -7q-61 0 -80 32t-19 107
q0 74 19.5 105t81.5 31q21 0 45 -8q9 -3 9 -15v-17q0 -6 -6 -6q-1 0 -16 3.5t-31 3.5q-33 0 -46 -21t-13 -76q0 -56 13 -78t46 -22q12 0 23 1t18 2t8 1q6 0 6 -5z" />
    <glyph glyph-name="ordfeminine" unicode="&#xaa;" horiz-adv-x="309" 
d="M52 657v19q0 13 14 19q23 9 69 9q70 0 96 -22t26 -81v-191q0 -10 -10 -10h-21q-6 0 -7 7l-8 26q-1 3 -3 0q-25 -36 -81 -36q-89 0 -89 87q0 51 22.5 72.5t76.5 21.5h56q7 0 7 6v23q0 26 -14 36t-53 10q-20 0 -35 -2t-23.5 -4t-11.5 -2q-11 0 -11 12zM191 538h-43
q-31 0 -42 -9.5t-11 -35.5q0 -48 44 -48q29 0 45 18.5t16 46.5v19q0 9 -9 9z" />
    <glyph glyph-name="guillemotleft" unicode="&#xab;" horiz-adv-x="465" 
d="M227 294l126 144q5 7 12 0l32 -31q6 -6 1 -12l-109 -123q-5 -6 0 -11l108 -123q6 -6 0 -11l-32 -32q-5 -5 -12 1l-126 142q-24 28 0 56zM67 294l123 144q5 7 12 0l32 -31q6 -6 1 -12l-105 -123q-6 -6 0 -11l104 -123q6 -6 0 -11l-32 -32q-6 -5 -12 1l-122 142
q-25 28 -1 56z" />
    <glyph glyph-name="logicalnot" unicode="&#xac;" horiz-adv-x="640" 
d="M83 343h371q61 0 89 -28.5t28 -91.5v-89q0 -15 -14 -15h-50q-15 0 -15 15v62q0 37 -15 53t-50 16h-344q-15 0 -15 14v50q0 14 15 14z" />
    <glyph glyph-name="softhyphen" unicode="&#xad;" horiz-adv-x="379" 
d="M69 305h240q10 0 10 -9v-48q0 -11 -10 -11h-240q-9 0 -9 10v49q0 9 9 9z" />
    <glyph glyph-name="registered" unicode="&#xae;" horiz-adv-x="541" 
d="M270 700q205 0 205 -227q0 -116 -50 -173.5t-155 -57.5q-104 0 -153.5 57.5t-49.5 173.5q0 227 203 227zM270 670q-86 0 -128 -47t-42 -151t42 -151.5t128 -47.5t129 47.5t43 151.5t-43 151t-129 47zM186 353v186q0 39 18.5 57.5t66.5 18.5q47 0 65 -22t18 -60
q0 -57 -43 -74q-3 -2 -2 -4l59 -102q3 -8 -5 -8h-29q-7 0 -11 8l-47 83q-7 12 -19 12h-21q-8 0 -8 -8v-87q0 -8 -7 -8h-28q-7 0 -7 8zM233 488h33q24 0 34 10.5t10 34.5q0 23 -8 33t-32 10q-26 0 -34.5 -8t-7.5 -32v-43q0 -5 5 -5z" />
    <glyph glyph-name="macron" unicode="&#xaf;" horiz-adv-x="375" 
d="M78 665h217q11 0 11 -11v-43q0 -10 -11 -10h-217q-9 0 -9 10v43q0 11 9 11z" />
    <glyph glyph-name="degree" unicode="&#xb0;" horiz-adv-x="349" 
d="M175 705q131 0 131 -139q0 -141 -131 -141q-132 0 -132 141q0 139 132 139zM175 655q-37 0 -54.5 -21.5t-17.5 -68.5t17.5 -68t54.5 -21q71 0 71 89q0 90 -71 90z" />
    <glyph glyph-name="plusminus" unicode="&#xb1;" horiz-adv-x="530" 
d="M241 632h48q11 0 11 -11v-127q0 -10 9 -10h128q11 0 11 -6v-51q0 -10 -11 -10h-127q-10 0 -10 -10v-130q0 -9 -10 -9h-49q-10 0 -10 9v129q0 11 -9 11h-129q-10 0 -10 9v52q0 6 10 6h128q10 0 10 9v128q0 11 10 11zM93 160h344q11 0 11 -9v-48q0 -11 -11 -11h-344
q-10 0 -10 10v49q0 9 10 9z" />
    <glyph glyph-name="twosuperior" unicode="&#xb2;" horiz-adv-x="312" 
d="M44 872l-4 30q-2 10 8 15q33 10 91 10q70 0 98.5 -24.5t28.5 -73.5q0 -33 -16.5 -60t-40 -46.5t-47 -37.5t-40 -42t-16.5 -52q0 -3 2 -3h157q7 0 7 -5v-42q0 -6 -7 -6h-220q-7 0 -7 6v25q0 42 17 76t41 55.5t48.5 39.5t41.5 39t17 43q0 30 -16.5 42t-60.5 12
q-15 0 -32.5 -1.5t-29 -3.5t-13.5 -2q-5 0 -7 6z" />
    <glyph glyph-name="threesuperior" unicode="&#xb3;" horiz-adv-x="312" 
d="M48 876l-5 27q-1 9 8 14q17 10 82 10q69 0 96 -24.5t27 -76.5q0 -66 -47 -83q-8 -4 0 -4q61 -12 61 -89q0 -58 -29.5 -88.5t-102.5 -30.5q-58 0 -83 10q-11 5 -8 17l4 25q2 7 8 7q2 0 13 -1.5t28.5 -3t33.5 -1.5q43 0 60.5 16.5t17.5 52.5q0 32 -13.5 45.5t-50.5 13.5
h-48q-11 0 -11 11v29q0 11 11 11h39q34 0 46.5 13t12.5 42q0 30 -16.5 44t-54.5 14q-23 0 -47 -4l-25 -3q-7 0 -7 7z" />
    <glyph glyph-name="acute" unicode="&#xb4;" horiz-adv-x="222" 
d="M103 700h72q9 0 11 -5t-3 -9l-83 -112q-5 -8 -15 -8h-33q-18 0 -11 14l49 112q3 8 13 8z" />
    <glyph glyph-name="paragraph" unicode="&#xb6;" horiz-adv-x="592" 
d="M319 346h-78q-86 0 -122.5 43.5t-36.5 132.5q0 97 37.5 141.5t122.5 44.5t115.5 -34t30.5 -117v-544q0 -13 -12 -13h-37q-12 0 -12 13v326q0 7 -8 7zM453 700h34q13 0 13 -13v-675q0 -12 -12 -12h-37q-12 0 -12 12v675q0 13 14 13z" />
    <glyph glyph-name="periodcentered" unicode="&#xb7;" horiz-adv-x="276" 
d="M107 414h61q12 0 12 -12v-123q0 -12 -12 -12h-61q-12 0 -12 12v123q0 12 12 12z" />
    <glyph glyph-name="cedilla" unicode="&#xb8;" horiz-adv-x="271" 
d="M132 32h52q12 0 7 -11l-48 -141q-5 -15 -21 -15h-37q-14 0 -10 12l40 143q4 12 17 12z" />
    <glyph glyph-name="onesuperior" unicode="&#xb9;" horiz-adv-x="280" 
d="M60 874v24q0 13 8 17q17 9 54 9q72 0 72 -55v-327q0 -7 -8 -7h-43q-7 0 -7 7v301q0 16 -6.5 22.5t-24.5 6.5q-10 0 -23.5 -2t-14.5 -2q-7 0 -7 6z" />
    <glyph glyph-name="ordmasculine" unicode="&#xba;" horiz-adv-x="315" 
d="M158 705q70 0 93.5 -35t23.5 -120q0 -82 -24 -117.5t-93 -35.5t-93.5 35.5t-24.5 117.5q0 85 24 120t94 35zM158 655q-37 0 -49.5 -21.5t-12.5 -83.5q0 -60 13 -81.5t49 -21.5t48.5 21.5t12.5 81.5q0 62 -12.5 83.5t-48.5 21.5z" />
    <glyph glyph-name="guillemotright" unicode="&#xbb;" horiz-adv-x="465" 
d="M112 438l126 -144q24 -28 0 -56l-126 -142q-6 -6 -12 -1l-32 32q-6 5 0 11l108 123q5 5 0 11l-109 123q-5 6 1 12l32 31q7 7 12 0zM276 438l122 -144q24 -28 0 -56l-122 -142q-7 -7 -13 -1l-32 32q-5 5 0 11l104 123q6 5 0 11l-104 123q-5 5 1 12l31 31q7 6 13 0z" />
    <glyph glyph-name="onequarter" unicode="&#xbc;" horiz-adv-x="728" 
d="M452 725h21q11 0 8 -11l-218 -732q-3 -10 -13 -10h-22q-11 0 -8 9l219 733q2 11 13 11zM60 654v24q0 13 8 17q17 9 54 9q72 0 72 -55v-327q0 -7 -8 -7h-43q-7 0 -7 7v301q0 16 -6.5 22.5t-24.5 6.5q-10 0 -23.5 -2t-14.5 -2q-7 0 -7 6zM622 385h16q15 0 15 -19v-243
q0 -5 5 -5h42q5 0 5 -6v-40q0 -5 -5 -5h-42q-5 0 -5 -4v-57q0 -6 -6 -6h-41q-6 0 -6 6v57q0 4 -5 4h-125q-27 0 -27 23v34q0 32 18 59l117 178q16 24 44 24zM600 123v179q-7 0 -12 -8l-77 -123q-10 -15 -10 -30v-19q0 -4 5 -4h89q5 0 5 5z" />
    <glyph glyph-name="onehalf" unicode="&#xbd;" horiz-adv-x="732" 
d="M452 725h21q11 0 8 -11l-218 -732q-3 -10 -13 -10h-22q-11 0 -8 9l219 733q2 11 13 11zM60 654v24q0 13 8 17q17 9 54 9q72 0 72 -55v-327q0 -7 -8 -7h-43q-7 0 -7 7v301q0 16 -6.5 22.5t-24.5 6.5q-10 0 -23.5 -2t-14.5 -2q-7 0 -7 6zM465 337l-5 30q-2 10 8 15
q33 10 91 10q71 0 99 -24.5t28 -73.5q0 -33 -16.5 -60t-40 -46.5t-47 -37.5t-40 -42t-16.5 -52q0 -3 2 -3h157q7 0 7 -5v-42q0 -6 -7 -6h-219q-8 0 -8 6v25q0 42 17 76t41 55.5t48.5 39.5t41.5 39t17 43q0 30 -16.5 42t-59.5 12q-16 0 -33 -2t-29 -3.5t-14 -1.5q-6 0 -6 6z
" />
    <glyph glyph-name="threequarters" unicode="&#xbe;" horiz-adv-x="760" 
d="M484 725h21q11 0 8 -11l-218 -732q-3 -10 -13 -10h-22q-11 0 -8 9l218 733q3 11 14 11zM48 656l-5 27q-1 9 8 14q17 10 82 10q69 0 96 -24.5t27 -76.5q0 -66 -47 -83q-8 -4 0 -4q61 -12 61 -89q0 -58 -29.5 -88.5t-102.5 -30.5q-58 0 -83 10q-11 5 -8 17l4 25q2 7 8 7
q2 0 13 -1.5t28.5 -3t33.5 -1.5q43 0 60.5 16.5t17.5 52.5q0 32 -13.5 45.5t-50.5 13.5h-48q-11 0 -11 11v29q0 11 11 11h39q34 0 46.5 13t12.5 42q0 30 -16.5 44t-54.5 14q-23 0 -47 -4l-25 -3q-7 0 -7 7zM654 385h16q15 0 15 -19v-243q0 -5 5 -5h42q5 0 5 -6v-40
q0 -5 -5 -5h-42q-5 0 -5 -4v-57q0 -6 -6 -6h-41q-6 0 -6 6v57q0 4 -5 4h-125q-27 0 -27 23v34q0 32 18 59l117 178q16 24 44 24zM632 123v179q-7 0 -12 -8l-77 -123q-10 -15 -10 -30v-19q0 -4 5 -4h89q5 0 5 5z" />
    <glyph glyph-name="questiondown" unicode="&#xbf;" horiz-adv-x="455" 
d="M279 349h-69q-11 0 -11 11v129q0 11 11 11h69q11 0 11 -11v-129q0 -11 -11 -11zM393 -126l6 -47q1 -15 -12 -19q-49 -15 -150 -15q-112 0 -154 34t-42 115q0 44 17 74t41.5 46.5t48.5 30.5t41 38t17 58v67q0 11 11 11h56q11 0 11 -11v-78q0 -43 -16 -74t-39 -47.5
t-46 -30t-39 -33t-16 -45.5q0 -43 26.5 -60t99.5 -17q36 0 83 6l47 6q9 0 9 -9z" />
    <glyph glyph-name="Agrave" unicode="&#xc0;" 
d="M165 859l55 17q14 5 21 -8l72 -101q8 -17 -8 -17h-24q-15 0 -25 10l-94 82q-5 5 -4 10t7 7zM122 556l122 132q18 19 41 19q25 0 42 -20l120 -130q32 -34 32 -77v-468q0 -12 -13 -12h-60q-12 0 -12 12v179q0 7 -8 7h-203q-8 0 -8 -7v-179q0 -12 -12 -12h-60q-12 0 -12 12
v468q0 45 31 76zM384 506l-92 103q-4 4 -7 4t-7 -4l-93 -103q-10 -10 -10 -25v-198q0 -7 8 -7h203q8 0 8 7v198q0 15 -10 25z" />
    <glyph glyph-name="Aacute" unicode="&#xc1;" 
d="M380 867l32 -16q14 -8 3 -19l-93 -77q-12 -10 -34 -10h-29q-17 0 -7 12l90 103q14 18 38 7zM122 556l122 132q18 19 41 19q25 0 42 -20l120 -130q32 -34 32 -77v-468q0 -12 -13 -12h-60q-12 0 -12 12v179q0 7 -8 7h-203q-8 0 -8 -7v-179q0 -12 -12 -12h-60q-12 0 -12 12
v468q0 45 31 76zM384 506l-92 103q-4 4 -7 4t-7 -4l-93 -103q-10 -10 -10 -25v-198q0 -7 8 -7h203q8 0 8 7v198q0 15 -10 25z" />
    <glyph glyph-name="Acircumflex" unicode="&#xc2;" 
d="M293 849l93 -53q6 -3 5 -10l-11 -33q-2 -11 -14 -6l-73 39q-8 3 -16 0l-74 -39q-6 -4 -9 -3t-5 9l-11 33q-1 6 6 10l93 53q8 4 16 0zM122 556l122 132q18 19 41 19q25 0 42 -20l120 -130q32 -34 32 -77v-468q0 -12 -13 -12h-60q-12 0 -12 12v179q0 7 -8 7h-203
q-8 0 -8 -7v-179q0 -12 -12 -12h-60q-12 0 -12 12v468q0 45 31 76zM384 506l-92 103q-4 4 -7 4t-7 -4l-93 -103q-10 -10 -10 -25v-198q0 -7 8 -7h203q8 0 8 7v198q0 15 -10 25z" />
    <glyph glyph-name="Atilde" unicode="&#xc3;" 
d="M383 857q16 0 21 -2.5t4 -10.5q-11 -88 -74 -88q-23 0 -52 19t-41 19q-20 0 -31 -28q-5 -8 -9.5 -10.5t-18.5 -2.5q-23 0 -23 13q12 83 70 83q24 0 55 -18.5t42 -18.5q22 0 31 31q4 9 8 11.5t18 2.5zM122 556l122 132q18 19 41 19q25 0 42 -20l120 -130q32 -34 32 -77
v-468q0 -12 -13 -12h-60q-12 0 -12 12v179q0 7 -8 7h-203q-8 0 -8 -7v-179q0 -12 -12 -12h-60q-12 0 -12 12v468q0 45 31 76zM384 506l-92 103q-4 4 -7 4t-7 -4l-93 -103q-10 -10 -10 -25v-198q0 -7 8 -7h203q8 0 8 7v198q0 15 -10 25z" />
    <glyph glyph-name="Adieresis" unicode="&#xc4;" 
d="M190 858h51q11 0 11 -12v-85q0 -11 -11 -11h-51q-11 0 -11 11v85q0 12 11 12zM329 858h51q11 0 11 -12v-85q0 -11 -11 -11h-51q-11 0 -11 11v85q0 12 11 12zM122 556l122 132q18 19 41 19q25 0 42 -20l120 -130q32 -34 32 -77v-468q0 -12 -13 -12h-60q-12 0 -12 12v179
q0 7 -8 7h-203q-8 0 -8 -7v-179q0 -12 -12 -12h-60q-12 0 -12 12v468q0 45 31 76zM384 506l-92 103q-4 4 -7 4t-7 -4l-93 -103q-10 -10 -10 -25v-198q0 -7 8 -7h203q8 0 8 7v198q0 15 -10 25z" />
    <glyph glyph-name="Aring" unicode="&#xc5;" 
d="M285 895q72 0 72 -74q0 -73 -72 -73q-71 0 -71 73q0 74 71 74zM285 857q-30 0 -30 -36q0 -35 30 -35q31 0 31 35q0 36 -31 36zM122 556l122 132q18 19 41 19q25 0 42 -20l120 -130q32 -34 32 -77v-468q0 -12 -13 -12h-60q-12 0 -12 12v179q0 7 -8 7h-203q-8 0 -8 -7v-179
q0 -12 -12 -12h-60q-12 0 -12 12v468q0 45 31 76zM384 506l-92 103q-4 4 -7 4t-7 -4l-93 -103q-10 -10 -10 -25v-198q0 -7 8 -7h203q8 0 8 7v198q0 15 -10 25z" />
    <glyph glyph-name="AE" unicode="&#xc6;" horiz-adv-x="795" 
d="M314 700h378q10 0 10 -10v-58q0 -10 -10 -10h-228q-24 0 -24 -22v-193q0 -6 7 -6h210q9 0 9 -10v-58q0 -10 -9 -10h-210q-7 0 -7 -7v-164q0 -45 17 -59.5t66 -14.5h169q10 0 10 -10v-58q0 -10 -10 -10h-190q-146 0 -146 127v45q0 14 -14 14h-159q-6 0 -6 -6v-170
q0 -10 -8 -10h-69q-8 0 -8 10v448q0 49 22 70l144 148q24 24 56 24zM347 615h-30q-10 0 -17 -8l-113 -123q-10 -11 -10 -29v-180q0 -7 6 -7h165q8 0 8 9v330q0 8 -9 8z" />
    <glyph glyph-name="Ccedilla" unicode="&#xc7;" horiz-adv-x="496" 
d="M447 68l4 -35q3 -20 -15 -27q-33 -12 -93 -14l-38 -112q-5 -15 -21 -15h-37q-14 0 -10 12l32 116q-113 8 -154.5 88.5t-41.5 270.5q0 204 49 280.5t184 76.5q86 0 128 -10q15 -4 14 -20l-4 -48q-2 -9 -10 -9q-1 0 -42 4.5t-70 4.5q-64 1 -96 -17.5t-48.5 -79
t-16.5 -182.5q0 -124 15.5 -184t47 -80t97.5 -20q38 0 76.5 5t39.5 5q8 0 10 -10z" />
    <glyph glyph-name="Egrave" unicode="&#xc8;" horiz-adv-x="507" 
d="M160 859l54 17q15 4 22 -8l71 -101q9 -17 -7 -17h-25q-14 0 -25 10l-94 82q-11 11 4 17zM265 700h165q12 0 12 -12v-54q0 -12 -12 -12h-140q-73 0 -94 -18t-21 -84v-116q0 -6 7 -6h212q12 0 12 -12v-54q0 -12 -12 -12h-212q-7 0 -7 -6v-134q0 -66 21 -84t94 -18h140
q12 0 12 -12v-54q0 -12 -12 -12h-150q-109 0 -149 37t-40 130v366q0 92 37.5 129.5t136.5 37.5z" />
    <glyph glyph-name="Eacute" unicode="&#xc9;" horiz-adv-x="507" 
d="M375 867l31 -16q15 -7 3 -19l-92 -77q-12 -10 -34 -10h-29q-17 0 -7 12l90 103q13 17 38 7zM265 700h165q12 0 12 -12v-54q0 -12 -12 -12h-140q-73 0 -94 -18t-21 -84v-116q0 -6 7 -6h212q12 0 12 -12v-54q0 -12 -12 -12h-212q-7 0 -7 -6v-134q0 -66 21 -84t94 -18h140
q12 0 12 -12v-54q0 -12 -12 -12h-150q-109 0 -149 37t-40 130v366q0 92 37.5 129.5t136.5 37.5z" />
    <glyph glyph-name="Ecircumflex" unicode="&#xca;" horiz-adv-x="507" 
d="M287 849l93 -53q8 -3 5 -10l-10 -33q-3 -11 -14 -6l-74 39q-8 3 -15 0l-74 -39q-5 -2 -7.5 -2.5t-4.5 1.5t-3 7l-10 33q-1 6 5 10l94 53q8 5 15 0zM265 700h165q12 0 12 -12v-54q0 -12 -12 -12h-140q-73 0 -94 -18t-21 -84v-116q0 -6 7 -6h212q12 0 12 -12v-54
q0 -12 -12 -12h-212q-7 0 -7 -6v-134q0 -66 21 -84t94 -18h140q12 0 12 -12v-54q0 -12 -12 -12h-150q-109 0 -149 37t-40 130v366q0 92 37.5 129.5t136.5 37.5z" />
    <glyph glyph-name="Edieresis" unicode="&#xcb;" horiz-adv-x="507" 
d="M184 858h51q11 0 11 -12v-85q0 -11 -11 -11h-51q-10 0 -10 11v85q0 12 10 12zM324 858h51q11 0 11 -12v-85q0 -11 -11 -11h-51q-11 0 -11 11v85q0 12 11 12zM265 700h165q12 0 12 -12v-54q0 -12 -12 -12h-140q-73 0 -94 -18t-21 -84v-116q0 -6 7 -6h212q12 0 12 -12v-54
q0 -12 -12 -12h-212q-7 0 -7 -6v-134q0 -66 21 -84t94 -18h140q12 0 12 -12v-54q0 -12 -12 -12h-150q-109 0 -149 37t-40 130v366q0 92 37.5 129.5t136.5 37.5z" />
    <glyph glyph-name="Igrave" unicode="&#xcc;" horiz-adv-x="267" 
d="M13 859l54 17q15 4 22 -8l71 -101q9 -17 -7 -17h-25q-14 0 -25 10l-94 82q-11 11 4 17zM103 700h62q12 0 12 -12v-676q0 -12 -12 -12h-62q-12 0 -12 12v676q0 12 12 12z" />
    <glyph glyph-name="Iacute" unicode="&#xcd;" horiz-adv-x="267" 
d="M228 867l31 -16q15 -7 3 -19l-92 -77q-12 -10 -34 -10h-29q-17 0 -7 12l90 103q14 18 38 7zM103 700h62q12 0 12 -12v-676q0 -12 -12 -12h-62q-12 0 -12 12v676q0 12 12 12z" />
    <glyph glyph-name="Icircumflex" unicode="&#xce;" horiz-adv-x="267" 
d="M140 849l93 -53q7 -3 6 -10l-11 -33q-2 -11 -14 -6l-74 39q-8 3 -15 0l-74 -39q-5 -2 -7.5 -2.5t-4.5 1.5t-3 7l-10 33q-1 6 6 10l93 53q7 5 15 0zM103 700h62q12 0 12 -12v-676q0 -12 -12 -12h-62q-12 0 -12 12v676q0 12 12 12z" />
    <glyph glyph-name="Idieresis" unicode="&#xcf;" horiz-adv-x="267" 
d="M37 858h52q10 0 10 -12v-85q0 -11 -10 -11h-52q-10 0 -10 11v85q0 12 10 12zM177 858h51q11 0 11 -12v-85q0 -11 -11 -11h-51q-11 0 -11 11v85q0 12 11 12zM103 700h62q12 0 12 -12v-676q0 -12 -12 -12h-62q-12 0 -12 12v676q0 12 12 12z" />
    <glyph glyph-name="Eth" unicode="&#xd0;" horiz-adv-x="624" 
d="M165 700h157q78 0 123 -28t70.5 -105.5t25.5 -216.5q0 -138 -25 -215.5t-70.5 -106t-123.5 -28.5h-159q-20 0 -33.5 14.5t-13.5 34.5v276q0 7 -7 7h-59q-9 0 -9 9v38q0 8 9 8h59q7 0 7 9v257q0 20 14.5 33.5t34.5 13.5zM302 623h-93q-8 0 -8 -8v-219q0 -9 8 -9h124
q10 0 10 -8v-37q0 -10 -10 -10h-124q-8 0 -8 -7v-240q0 -8 8 -8h93q92 0 122.5 54.5t30.5 218.5t-30.5 218.5t-122.5 54.5z" />
    <glyph glyph-name="Ntilde" unicode="&#xd1;" horiz-adv-x="595" 
d="M396 857q16 0 21.5 -2.5t4.5 -10.5q-5 -36 -22.5 -62t-51.5 -26q-23 0 -52 19t-41 19t-18.5 -5.5t-13.5 -22.5q-4 -8 -8.5 -10.5t-18.5 -2.5t-19 3t-4 10q12 83 70 83q24 0 55 -18.5t42 -18.5q22 0 31 31q4 9 7.5 11.5t17.5 2.5zM432 700h66q9 0 9 -9v-662q0 -29 -28 -29
h-26q-11 0 -16 9l-258 492q-2 4 -4.5 3t-2.5 -5v-490q0 -9 -9 -9h-66q-10 0 -10 9v662q0 29 29 29h29q13 0 20 -11l251 -482q2 -4 4.5 -3t2.5 5v482q0 9 9 9z" />
    <glyph glyph-name="Ograve" unicode="&#xd2;" horiz-adv-x="593" 
d="M177 859l54 17q15 4 22 -8l71 -101q9 -17 -7 -17h-25q-14 0 -25 10l-94 82q-11 11 4 17zM297 708q72 0 116 -18.5t67.5 -65t31.5 -108t8 -164.5q0 -104 -8 -166t-31.5 -109t-67.5 -66t-116 -19t-116.5 19t-68 66t-31.5 109t-8 166q0 82 5 136t18.5 99.5t38.5 70
t64.5 37.5t97.5 13zM297 628q-58 0 -85.5 -21.5t-39 -79t-11.5 -176.5q0 -120 11.5 -177.5t39 -79.5t85.5 -22q57 0 84.5 22t39 80t11.5 177t-11.5 176.5t-39 79t-84.5 21.5z" />
    <glyph glyph-name="Oacute" unicode="&#xd3;" horiz-adv-x="593" 
d="M392 867l31 -16q15 -7 3 -19l-92 -77q-12 -10 -34 -10h-29q-17 0 -7 12l90 103q14 18 38 7zM297 708q72 0 116 -18.5t67.5 -65t31.5 -108t8 -164.5q0 -104 -8 -166t-31.5 -109t-67.5 -66t-116 -19t-116.5 19t-68 66t-31.5 109t-8 166q0 82 5 136t18.5 99.5t38.5 70
t64.5 37.5t97.5 13zM297 628q-58 0 -85.5 -21.5t-39 -79t-11.5 -176.5q0 -120 11.5 -177.5t39 -79.5t85.5 -22q57 0 84.5 22t39 80t11.5 177t-11.5 176.5t-39 79t-84.5 21.5z" />
    <glyph glyph-name="Ocircumflex" unicode="&#xd4;" horiz-adv-x="593" 
d="M304 849l93 -53q7 -3 6 -10l-11 -33q-2 -11 -14 -6l-74 39q-8 3 -15 0l-74 -39q-5 -2 -7.5 -2.5t-4.5 1.5t-3 7l-10 33q-1 6 6 10l93 53q7 5 15 0zM297 708q72 0 116 -18.5t67.5 -65t31.5 -108t8 -164.5q0 -104 -8 -166t-31.5 -109t-67.5 -66t-116 -19t-116.5 19t-68 66
t-31.5 109t-8 166q0 82 5 136t18.5 99.5t38.5 70t64.5 37.5t97.5 13zM297 628q-58 0 -85.5 -21.5t-39 -79t-11.5 -176.5q0 -120 11.5 -177.5t39 -79.5t85.5 -22q57 0 84.5 22t39 80t11.5 177t-11.5 176.5t-39 79t-84.5 21.5z" />
    <glyph glyph-name="Otilde" unicode="&#xd5;" horiz-adv-x="593" 
d="M394 857q16 0 21 -2.5t5 -10.5q-5 -36 -22.5 -62t-51.5 -26q-23 0 -52 19t-41 19t-18.5 -5.5t-13.5 -22.5q-4 -8 -8.5 -10.5t-19.5 -2.5q-13 0 -18 3t-4 10q12 83 70 83q24 0 55 -18.5t42 -18.5q22 0 31 31q3 9 7 11.5t18 2.5zM297 708q72 0 116 -18.5t67.5 -65
t31.5 -108t8 -164.5q0 -104 -8 -166t-31.5 -109t-67.5 -66t-116 -19t-116.5 19t-68 66t-31.5 109t-8 166q0 82 5 136t18.5 99.5t38.5 70t64.5 37.5t97.5 13zM297 628q-58 0 -85.5 -21.5t-39 -79t-11.5 -176.5q0 -120 11.5 -177.5t39 -79.5t85.5 -22q57 0 84.5 22t39 80
t11.5 177t-11.5 176.5t-39 79t-84.5 21.5z" />
    <glyph glyph-name="Odieresis" unicode="&#xd6;" horiz-adv-x="593" 
d="M201 858h52q10 0 10 -12v-85q0 -11 -10 -11h-52q-10 0 -10 11v85q0 12 10 12zM341 858h51q11 0 11 -12v-85q0 -11 -11 -11h-51q-11 0 -11 11v85q0 12 11 12zM297 708q72 0 116 -18.5t67.5 -65t31.5 -108t8 -164.5q0 -104 -8 -166t-31.5 -109t-67.5 -66t-116 -19
t-116.5 19t-68 66t-31.5 109t-8 166q0 82 5 136t18.5 99.5t38.5 70t64.5 37.5t97.5 13zM297 628q-58 0 -85.5 -21.5t-39 -79t-11.5 -176.5q0 -120 11.5 -177.5t39 -79.5t85.5 -22q57 0 84.5 22t39 80t11.5 177t-11.5 176.5t-39 79t-84.5 21.5z" />
    <glyph glyph-name="multiply" unicode="&#xd7;" horiz-adv-x="442" 
d="M78 375l35 34q7 7 14 0l90 -89q7 -8 14 -1l90 90q8 8 14 2l35 -35q6 -6 -1 -14l-90 -90q-8 -8 0 -14l92 -92q7 -6 0 -13l-35 -35q-7 -6 -14 0l-91 91q-7 7 -14 1l-92 -91q-7 -8 -13 0l-34 34q-6 7 0 13l91 91q8 8 0 14l-90 90q-7 7 -1 14z" />
    <glyph glyph-name="Oslash" unicode="&#xd8;" horiz-adv-x="601" 
d="M512 786l-50 -133q33 -38 45.5 -109t12.5 -192q0 -104 -8 -166t-31.5 -109t-67.5 -66t-116 -19q-43 0 -68 5l-37 -95q-3 -9 -15 -9h-51q-13 0 -8 11l45 117q-53 33 -71.5 109.5t-18.5 221.5q0 82 5 136t18.5 99.5t38.5 70t64.5 37.5t97.5 13q66 0 104 -15l37 95q3 8 12 8
h55q10 0 7 -10zM297 72q57 0 84.5 22t39 80t11.5 177t-11.5 176.5t-39 79t-84.5 21.5q-58 0 -85.5 -21.5t-39 -79t-11.5 -176.5q0 -120 11.5 -177.5t39 -79.5t85.5 -22z" />
    <glyph glyph-name="Ugrave" unicode="&#xd9;" horiz-adv-x="602" 
d="M178 859l55 17q14 5 21 -8l72 -101q8 -17 -8 -17h-24q-15 0 -25 10l-94 82q-11 11 3 17zM433 700h65q10 0 10 -10v-485q0 -116 -41.5 -164t-165.5 -48q-123 0 -165 48t-42 164v485q0 10 10 10h65q10 0 10 -10v-488q0 -78 24 -104.5t98 -26.5q73 0 97.5 26.5t24.5 104.5
v488q0 10 10 10z" />
    <glyph glyph-name="Uacute" unicode="&#xda;" horiz-adv-x="602" 
d="M393 867l32 -16q15 -7 3 -19l-93 -77q-11 -10 -33 -10h-30q-16 0 -7 12l91 103q12 18 37 7zM433 700h65q10 0 10 -10v-485q0 -116 -41.5 -164t-165.5 -48q-123 0 -165 48t-42 164v485q0 10 10 10h65q10 0 10 -10v-488q0 -78 24 -104.5t98 -26.5q73 0 97.5 26.5
t24.5 104.5v488q0 10 10 10z" />
    <glyph glyph-name="Ucircumflex" unicode="&#xdb;" horiz-adv-x="602" 
d="M306 849l93 -53q7 -4 5 -10l-10 -33q-3 -11 -14 -6l-74 39q-8 3 -16 0l-74 -39q-6 -4 -9 -3t-5 9l-11 33q-1 6 6 10l94 53q7 4 15 0zM433 700h65q10 0 10 -10v-485q0 -116 -41.5 -164t-165.5 -48q-123 0 -165 48t-42 164v485q0 10 10 10h65q10 0 10 -10v-488
q0 -78 24 -104.5t98 -26.5q73 0 97.5 26.5t24.5 104.5v488q0 10 10 10z" />
    <glyph glyph-name="Udieresis" unicode="&#xdc;" horiz-adv-x="602" 
d="M203 858h51q11 0 11 -12v-85q0 -11 -11 -11h-51q-11 0 -11 11v85q0 12 11 12zM342 858h51q11 0 11 -12v-85q0 -11 -11 -11h-51q-10 0 -10 11v85q0 12 10 12zM433 700h65q10 0 10 -10v-485q0 -116 -41.5 -164t-165.5 -48q-123 0 -165 48t-42 164v485q0 10 10 10h65
q10 0 10 -10v-488q0 -78 24 -104.5t98 -26.5q73 0 97.5 26.5t24.5 104.5v488q0 10 10 10z" />
    <glyph glyph-name="Yacute" unicode="&#xdd;" horiz-adv-x="541" 
d="M366 867l32 -16q14 -8 3 -19l-93 -77q-12 -10 -33 -10h-30q-17 0 -7 12l90 103q14 18 38 7zM392 700h67q9 0 9 -10v-185q0 -48 -25 -77l-116 -136q-13 -16 -13 -34v-249q0 -9 -9 -9h-65q-9 0 -9 9v249q0 20 -13 34l-121 137q-24 28 -24 76v185q0 10 10 10h66q9 0 9 -10
v-183q0 -20 10 -31l92 -114q13 -15 25 1l88 113q11 14 11 32v182q0 10 8 10z" />
    <glyph glyph-name="Thorn" unicode="&#xde;" horiz-adv-x="508" 
d="M101 700h66q10 0 10 -10v-116q0 -7 6 -7h96q102 0 146.5 -42.5t44.5 -146.5t-47 -154t-157 -50h-83q-6 0 -6 -5v-160q0 -9 -9 -9h-67q-9 0 -9 9v681q0 10 9 10zM282 490h-94q-11 0 -11 -10v-221q0 -7 8 -7h84q64 0 90.5 30t25.5 95q0 60 -23.5 86.5t-79.5 26.5z" />
    <glyph glyph-name="germandbls" unicode="&#xdf;" horiz-adv-x="522" 
d="M78 10v514q0 96 40.5 140t146.5 44q89 0 130 -36.5t41 -94.5q0 -77 -60 -117l-45 -31q-19 -12 -25.5 -17.5t-13 -16.5t-6.5 -26q0 -22 9 -35t35 -26l55 -28q55 -29 73 -55t18 -86q0 -79 -38.5 -113t-125.5 -34q-59 0 -93 9q-17 5 -15 21l4 40q1 10 10 10q1 0 32 -4t55 -4
q52 0 71.5 17.5t19.5 61.5q0 7 -1 13t-1.5 10.5t-3.5 9.5t-4 8t-6.5 7t-7 5.5t-9.5 6t-10 6t-12 6.5t-13 7l-51 27q-35 19 -50 43.5t-15 66.5q0 34 11 53t42 42l40 26q31 23 42 38t11 43q0 74 -97 74q-57 0 -80 -27t-23 -85v-513q0 -10 -11 -10h-58q-11 0 -11 10z" />
    <glyph glyph-name="agrave" unicode="&#xe0;" horiz-adv-x="472" 
d="M135 708h67q10 0 14 -10l43 -108q6 -16 -9 -16h-23q-14 0 -21 10l-77 112q-3 4 -1.5 8t7.5 4zM84 443l-5 31q-1 18 14 24q49 18 126 18q97 0 138.5 -41.5t41.5 -154.5v-310q0 -10 -11 -10h-36q-12 0 -14 9l-8 42q0 2 -3 2q-2 0 -7.5 -6.5t-15 -15.5t-23.5 -17.5
t-38.5 -15t-54.5 -6.5q-73 0 -104.5 38.5t-31.5 126.5q0 79 38 114.5t121 35.5h94q14 0 14 15q0 73 -23 98t-84 25q-32 0 -73.5 -7.5t-42.5 -7.5q-10 0 -12 13zM309 243h-80q-55 0 -78 -19t-23 -67q0 -56 19.5 -77t62.5 -21q53 0 81.5 31t28.5 83v58q0 12 -11 12z" />
    <glyph glyph-name="aacute" unicode="&#xe1;" horiz-adv-x="472" 
d="M259 708h72q9 0 11 -5t-3 -9l-83 -112q-5 -8 -15 -8h-33q-18 0 -10 14l48 112q3 8 13 8zM84 443l-5 31q-1 18 14 24q49 18 126 18q97 0 138.5 -41.5t41.5 -154.5v-310q0 -10 -11 -10h-36q-12 0 -14 9l-8 42q0 2 -3 2q-2 0 -7.5 -6.5t-15 -15.5t-23.5 -17.5t-38.5 -15
t-54.5 -6.5q-73 0 -104.5 38.5t-31.5 126.5q0 79 38 114.5t121 35.5h94q14 0 14 15q0 73 -23 98t-84 25q-32 0 -73.5 -7.5t-42.5 -7.5q-10 0 -12 13zM309 243h-80q-55 0 -78 -19t-23 -67q0 -56 19.5 -77t62.5 -21q53 0 81.5 31t28.5 83v58q0 12 -11 12z" />
    <glyph glyph-name="acircumflex" unicode="&#xe2;" horiz-adv-x="472" 
d="M242 695l93 -53q7 -3 5 -10l-11 -33q-1 -11 -14 -7l-73 39q-6 4 -16 0l-74 -39q-7 -3 -9.5 -2t-4.5 9l-11 33q-2 6 6 10l93 53q8 4 16 0zM84 443l-5 31q-1 18 14 24q49 18 126 18q97 0 138.5 -41.5t41.5 -154.5v-310q0 -10 -11 -10h-36q-12 0 -14 9l-8 42q0 2 -3 2
q-2 0 -7.5 -6.5t-15 -15.5t-23.5 -17.5t-38.5 -15t-54.5 -6.5q-73 0 -104.5 38.5t-31.5 126.5q0 79 38 114.5t121 35.5h94q14 0 14 15q0 73 -23 98t-84 25q-32 0 -73.5 -7.5t-42.5 -7.5q-10 0 -12 13zM309 243h-80q-55 0 -78 -19t-23 -67q0 -56 19.5 -77t62.5 -21
q53 0 81.5 31t28.5 83v58q0 12 -11 12z" />
    <glyph glyph-name="atilde" unicode="&#xe3;" horiz-adv-x="472" 
d="M334 698q15 0 20.5 -3t4.5 -11q-5 -36 -22.5 -61.5t-51.5 -25.5q-23 0 -52 18.5t-41 18.5t-18.5 -5t-13.5 -22q-4 -8 -8.5 -10.5t-18.5 -2.5t-19 2.5t-4 10.5q12 82 70 82q24 0 55 -18t42 -18q22 0 31 31q4 9 8 11.5t18 2.5zM84 443l-5 31q-1 18 14 24q49 18 126 18
q97 0 138.5 -41.5t41.5 -154.5v-310q0 -10 -11 -10h-36q-12 0 -14 9l-8 42q0 2 -3 2q-2 0 -7.5 -6.5t-15 -15.5t-23.5 -17.5t-38.5 -15t-54.5 -6.5q-73 0 -104.5 38.5t-31.5 126.5q0 79 38 114.5t121 35.5h94q14 0 14 15q0 73 -23 98t-84 25q-32 0 -73.5 -7.5t-42.5 -7.5
q-10 0 -12 13zM309 243h-80q-55 0 -78 -19t-23 -67q0 -56 19.5 -77t62.5 -21q53 0 81.5 31t28.5 83v58q0 12 -11 12z" />
    <glyph glyph-name="adieresis" unicode="&#xe4;" horiz-adv-x="472" 
d="M151 708h46q11 0 11 -11v-104q0 -11 -11 -11h-46q-11 0 -11 11v104q0 11 11 11zM277 708h46q11 0 11 -11v-104q0 -11 -11 -11h-46q-11 0 -11 11v104q0 11 11 11zM84 443l-5 31q-1 18 14 24q49 18 126 18q97 0 138.5 -41.5t41.5 -154.5v-310q0 -10 -11 -10h-36
q-12 0 -14 9l-8 42q0 2 -3 2q-2 0 -7.5 -6.5t-15 -15.5t-23.5 -17.5t-38.5 -15t-54.5 -6.5q-73 0 -104.5 38.5t-31.5 126.5q0 79 38 114.5t121 35.5h94q14 0 14 15q0 73 -23 98t-84 25q-32 0 -73.5 -7.5t-42.5 -7.5q-10 0 -12 13zM309 243h-80q-55 0 -78 -19t-23 -67
q0 -56 19.5 -77t62.5 -21q53 0 81.5 31t28.5 83v58q0 12 -11 12z" />
    <glyph glyph-name="aring" unicode="&#xe5;" horiz-adv-x="472" 
d="M237 703q72 0 72 -74q0 -73 -72 -73q-71 0 -71 73q0 74 71 74zM237 665q-30 0 -30 -36q0 -35 30 -35q31 0 31 35q0 36 -31 36zM84 443l-5 31q-1 18 14 24q49 18 126 18q97 0 138.5 -41.5t41.5 -154.5v-310q0 -10 -11 -10h-36q-12 0 -14 9l-8 42q0 2 -3 2q-2 0 -7.5 -6.5
t-15 -15.5t-23.5 -17.5t-38.5 -15t-54.5 -6.5q-73 0 -104.5 38.5t-31.5 126.5q0 79 38 114.5t121 35.5h94q14 0 14 15q0 73 -23 98t-84 25q-32 0 -73.5 -7.5t-42.5 -7.5q-10 0 -12 13zM309 243h-80q-55 0 -78 -19t-23 -67q0 -56 19.5 -77t62.5 -21q53 0 81.5 31t28.5 83v58
q0 12 -11 12z" />
    <glyph glyph-name="ae" unicode="&#xe6;" horiz-adv-x="721" 
d="M78 446l-4 28q-3 18 17 26q37 16 107 16q118 0 156 -77q6 -9 12 -1q40 78 138 78q90 0 129 -48t39 -161v-33q0 -44 -44 -44h-222q-7 0 -7 -6v-38q0 -69 28.5 -96t91.5 -27q34 0 75 9t42 9q12 0 13 -12l7 -28q3 -20 -15 -28q-42 -20 -129 -20q-112 0 -153 75q-3 5 -8 0
q-49 -75 -152 -75q-78 0 -112.5 36.5t-34.5 120.5q0 81 30.5 115.5t110.5 34.5h114q11 0 11 10v20q0 117 -118 117q-31 0 -70 -8t-42 -8q-8 0 -10 15zM407 293h186q7 0 7 7q-1 86 -22 116t-73 30q-103 0 -105 -123v-23q-1 -7 7 -7zM310 235h-84q-59 0 -78.5 -15.5
t-19.5 -72.5q0 -51 18 -69.5t63 -18.5q109 0 109 111v57q0 8 -8 8z" />
    <glyph glyph-name="ccedilla" unicode="&#xe7;" horiz-adv-x="410" 
d="M348 62l5 -34q3 -19 -16 -26q-20 -6 -62 -9l-39 -113q-5 -15 -21 -15h-37q-14 0 -10 12l32 116q-82 9 -115 69.5t-33 193.5q0 145 38.5 202.5t137.5 57.5q70 0 109 -14q18 -7 16 -25l-5 -36q-2 -11 -10 -11q-1 0 -33.5 6.5t-59.5 6.5q-64 0 -87 -39t-23 -149t24 -150
t92 -40q21 0 53.5 3.5t33.5 3.5q9 0 10 -10z" />
    <glyph glyph-name="egrave" unicode="&#xe8;" horiz-adv-x="459" 
d="M141 708h67q10 0 13 -10l44 -108q6 -16 -9 -16h-23q-14 0 -21 10l-77 112q-3 4 -1.5 8t7.5 4zM388 69l6 -28q5 -20 -14 -28q-42 -20 -128 -20q-74 0 -115.5 22t-62.5 79t-21 161t21.5 162t60.5 78.5t105 20.5q91 0 131 -50.5t40 -172.5v-26q0 -44 -45 -44h-228
q-5 0 -5 -5v-8q0 -88 27.5 -117.5t98.5 -29.5q35 0 75 9t41 9q10 0 13 -12zM139 285h194q5 0 5 6q0 93 -22.5 124t-74.5 31q-58 0 -83 -31.5t-25 -122.5q0 -7 6 -7z" />
    <glyph glyph-name="eacute" unicode="&#xe9;" horiz-adv-x="459" 
d="M265 708h72q9 0 11 -5t-3 -9l-83 -112q-5 -8 -15 -8h-33q-9 0 -11.5 4.5t0.5 9.5l49 112q3 8 13 8zM388 69l6 -28q5 -20 -14 -28q-42 -20 -128 -20q-74 0 -115.5 22t-62.5 79t-21 161t21.5 162t60.5 78.5t105 20.5q91 0 131 -50.5t40 -172.5v-26q0 -44 -45 -44h-228
q-5 0 -5 -5v-8q0 -88 27.5 -117.5t98.5 -29.5q35 0 75 9t41 9q10 0 13 -12zM139 285h194q5 0 5 6q0 93 -22.5 124t-74.5 31q-58 0 -83 -31.5t-25 -122.5q0 -7 6 -7z" />
    <glyph glyph-name="ecircumflex" unicode="&#xea;" horiz-adv-x="459" 
d="M247 695l93 -53q8 -3 6 -10l-11 -33q-1 -11 -14 -7l-74 39q-6 4 -15 0l-74 -39q-7 -3 -10 -2t-5 9l-10 33q-2 6 6 10l93 53q8 4 15 0zM388 69l6 -28q5 -20 -14 -28q-42 -20 -128 -20q-74 0 -115.5 22t-62.5 79t-21 161t21.5 162t60.5 78.5t105 20.5q91 0 131 -50.5
t40 -172.5v-26q0 -44 -45 -44h-228q-5 0 -5 -5v-8q0 -88 27.5 -117.5t98.5 -29.5q35 0 75 9t41 9q10 0 13 -12zM139 285h194q5 0 5 6q0 93 -22.5 124t-74.5 31q-58 0 -83 -31.5t-25 -122.5q0 -7 6 -7z" />
    <glyph glyph-name="edieresis" unicode="&#xeb;" horiz-adv-x="459" 
d="M157 708h46q11 0 11 -11v-104q0 -11 -11 -11h-46q-11 0 -11 11v104q0 11 11 11zM283 708h46q11 0 11 -11v-104q0 -11 -11 -11h-46q-11 0 -11 11v104q0 11 11 11zM388 69l6 -28q5 -20 -14 -28q-42 -20 -128 -20q-74 0 -115.5 22t-62.5 79t-21 161t21.5 162t60.5 78.5
t105 20.5q91 0 131 -50.5t40 -172.5v-26q0 -44 -45 -44h-228q-5 0 -5 -5v-8q0 -88 27.5 -117.5t98.5 -29.5q35 0 75 9t41 9q10 0 13 -12zM139 285h194q5 0 5 6q0 93 -22.5 124t-74.5 31q-58 0 -83 -31.5t-25 -122.5q0 -7 6 -7z" />
    <glyph glyph-name="igrave" unicode="&#xec;" horiz-adv-x="227" 
d="M11 708h67q10 0 14 -10l43 -108q6 -16 -9 -16h-23q-14 0 -21 10l-77 112q-3 4 -1.5 8t7.5 4zM85 508h57q12 0 12 -12v-484q0 -12 -12 -12h-58q-11 0 -11 12v484q0 12 12 12z" />
    <glyph glyph-name="iacute" unicode="&#xed;" horiz-adv-x="227" 
d="M135 708h72q9 0 11 -5t-3 -9l-83 -112q-5 -8 -15 -8h-33q-17 0 -11 14l49 112q3 8 13 8zM85 508h57q12 0 12 -12v-484q0 -12 -12 -12h-58q-11 0 -11 12v484q0 12 12 12z" />
    <glyph glyph-name="icircumflex" unicode="&#xee;" horiz-adv-x="227" 
d="M117 695l94 -53q7 -3 5 -10l-11 -33q-1 -11 -14 -7l-74 39q-5 4 -15 0l-74 -39q-7 -3 -10 -2t-4 9l-11 33q-2 6 6 10l93 53q8 4 15 0zM85 508h57q12 0 12 -12v-484q0 -12 -12 -12h-58q-11 0 -11 12v484q0 12 12 12z" />
    <glyph glyph-name="idieresis" unicode="&#xef;" horiz-adv-x="227" 
d="M27 708h46q11 0 11 -11v-104q0 -11 -11 -11h-46q-11 0 -11 11v104q0 11 11 11zM153 708h46q11 0 11 -11v-104q0 -11 -11 -11h-46q-11 0 -11 11v104q0 11 11 11zM85 508h57q12 0 12 -12v-484q0 -12 -12 -12h-58q-11 0 -11 12v484q0 12 12 12z" />
    <glyph glyph-name="eth" unicode="&#xf0;" horiz-adv-x="508" 
d="M448 648l5 -31q1 -9 -9 -10l-57 -14q29 -64 29 -152v-247q0 -108 -35 -149q-40 -52 -147 -52q-102 0 -141.5 56t-39.5 198q0 150 39.5 205t133.5 55q36 0 61 -8.5t35 -17.5t11 -9q4 0 4 5q1 46 -27 99l-105 -24q-7 -2 -9 7l-5 30q-1 7 8 9l82 19q-30 37 -65 61
q-18 12 -1 24l26 21q16 12 38 -3q55 -42 83 -84l77 18q8 3 9 -6zM339 202v115q0 60 -19 86q-23 31 -82 31q-58 0 -82.5 -38t-24.5 -149q0 -110 22.5 -145t81.5 -35q64 0 83 28q21 27 21 107z" />
    <glyph glyph-name="ntilde" unicode="&#xf1;" horiz-adv-x="511" 
d="M351 697q16 0 21 -3t5 -11q-5 -36 -22.5 -61.5t-51.5 -25.5q-23 0 -52 18.5t-41 18.5t-18.5 -5t-13.5 -22q-4 -8 -8.5 -10.5t-19.5 -2.5q-13 0 -18 2.5t-4 10.5q13 83 70 83q24 0 55 -18.5t42 -18.5q21 0 30 31q4 9 8 11.5t18 2.5zM73 10v324q0 99 37.5 140.5t145.5 41.5
t145 -41.5t37 -140.5v-324q0 -10 -10 -10h-59q-11 0 -11 10v321q0 68 -22 90t-80 22t-80.5 -22t-22.5 -90v-321q0 -10 -10 -10h-60q-10 0 -10 10z" />
    <glyph glyph-name="ograve" unicode="&#xf2;" horiz-adv-x="479" 
d="M143 707h67q10 0 14 -10l44 -108q5 -16 -10 -16h-23q-14 0 -21 10l-77 113q-3 4 -1.5 7.5t7.5 3.5zM240 516q107 0 147 -56t40 -204q0 -150 -40 -207t-147 -57t-147 57t-40 207q0 148 40 204t147 56zM240 443q-62 0 -84 -37.5t-22 -149.5q0 -114 22 -152.5t84 -38.5
t83.5 38.5t21.5 152.5q0 112 -21.5 149.5t-83.5 37.5z" />
    <glyph glyph-name="oacute" unicode="&#xf3;" horiz-adv-x="479" 
d="M268 707h71q9 0 11 -4.5t-3 -9.5l-83 -112q-5 -8 -14 -8h-34q-18 0 -10 14l48 112q3 8 14 8zM240 516q107 0 147 -56t40 -204q0 -150 -40 -207t-147 -57t-147 57t-40 207q0 148 40 204t147 56zM240 443q-62 0 -84 -37.5t-22 -149.5q0 -114 22 -152.5t84 -38.5t83.5 38.5
t21.5 152.5q0 112 -21.5 149.5t-83.5 37.5z" />
    <glyph glyph-name="ocircumflex" unicode="&#xf4;" horiz-adv-x="479" 
d="M250 694l93 -53q8 -4 5 -10l-10 -33q-3 -11 -14 -7l-74 39q-6 4 -16 0l-74 -39q-6 -3 -9 -2t-5 9l-11 33q-2 6 6 10l94 53q7 4 15 0zM240 516q107 0 147 -56t40 -204q0 -150 -40 -207t-147 -57t-147 57t-40 207q0 148 40 204t147 56zM240 443q-62 0 -84 -37.5t-22 -149.5
q0 -114 22 -152.5t84 -38.5t83.5 38.5t21.5 152.5q0 112 -21.5 149.5t-83.5 37.5z" />
    <glyph glyph-name="otilde" unicode="&#xf5;" horiz-adv-x="479" 
d="M342 697q16 0 21 -3t4 -11q-11 -87 -74 -87q-23 0 -52 18.5t-41 18.5q-11 0 -18 -5.5t-13 -21.5q-5 -8 -9.5 -10.5t-18.5 -2.5t-18.5 2.5t-4.5 10.5q13 83 70 83q24 0 55.5 -18.5t41.5 -18.5q22 0 31 31q4 9 8 11.5t18 2.5zM240 516q107 0 147 -56t40 -204
q0 -150 -40 -207t-147 -57t-147 57t-40 207q0 148 40 204t147 56zM240 443q-62 0 -84 -37.5t-22 -149.5q0 -114 22 -152.5t84 -38.5t83.5 38.5t21.5 152.5q0 112 -21.5 149.5t-83.5 37.5z" />
    <glyph glyph-name="odieresis" unicode="&#xf6;" horiz-adv-x="479" 
d="M159 707h47q10 0 10 -11v-104q0 -11 -10 -11h-47q-10 0 -10 11v104q0 11 10 11zM285 707h47q10 0 10 -11v-104q0 -11 -10 -11h-47q-10 0 -10 11v104q0 11 10 11zM240 516q107 0 147 -56t40 -204q0 -150 -40 -207t-147 -57t-147 57t-40 207q0 148 40 204t147 56zM240 443
q-62 0 -84 -37.5t-22 -149.5q0 -114 22 -152.5t84 -38.5t83.5 38.5t21.5 152.5q0 112 -21.5 149.5t-83.5 37.5z" />
    <glyph glyph-name="divide" unicode="&#xf7;" horiz-adv-x="549" 
d="M251 500h48q11 0 11 -11v-115q0 -10 -11 -10h-48q-11 0 -11 10v115q0 11 11 11zM82 282h384q10 0 10 -9v-49q0 -9 -10 -9h-384q-9 0 -9 8v50q0 9 9 9zM251 136h48q11 0 11 -10v-115q0 -11 -11 -11h-48q-11 0 -11 11v115q0 10 11 10z" />
    <glyph glyph-name="oslash" unicode="&#xf8;" horiz-adv-x="472" 
d="M320 602h51q11 0 7 -10l-32 -100q43 -22 59 -77t16 -162q0 -146 -37 -203.5t-147 -57.5q-21 0 -37 3l-29 -90q-3 -8 -13 -8h-52q-8 0 -6 8l36 105q-47 22 -65.5 78.5t-18.5 164.5q0 147 35.5 205t140.5 58q26 0 52 -4l26 79q5 11 14 11zM237 443q-61 0 -82.5 -36.5
t-21.5 -151.5q0 -116 21.5 -153t82.5 -37q59 0 80.5 37t21.5 153q0 115 -21 151.5t-81 36.5z" />
    <glyph glyph-name="ugrave" unicode="&#xf9;" horiz-adv-x="498" 
d="M146 707h66q11 0 14 -11l44 -107q4 -16 -9 -16h-23q-15 0 -21 10l-77 112q-4 5 -2.5 8.5t8.5 3.5zM357 508h56q12 0 12 -12v-307q0 -112 -37.5 -154.5t-137.5 -42.5q-101 0 -139 42.5t-38 154.5v307q0 12 12 12h56q12 0 12 -12v-319q0 -66 21 -89t76 -23t75 22.5t20 89.5
v319q0 12 12 12z" />
    <glyph glyph-name="uacute" unicode="&#xfa;" horiz-adv-x="498" 
d="M270 707h72q8 0 10 -5.5t-3 -9.5l-82 -112q-7 -7 -15 -7h-34q-17 0 -10 14l49 111q3 9 13 9zM357 508h56q12 0 12 -12v-307q0 -112 -37.5 -154.5t-137.5 -42.5q-101 0 -139 42.5t-38 154.5v307q0 12 12 12h56q12 0 12 -12v-319q0 -66 21 -89t76 -23t75 22.5t20 89.5v319
q0 12 12 12z" />
    <glyph glyph-name="ucircumflex" unicode="&#xfb;" horiz-adv-x="498" 
d="M252 694l93 -54q7 -4 5 -10l-10 -33q-3 -11 -14 -6l-74 39q-8 3 -16 0l-73 -39q-12 -5 -15 6l-10 33q-1 7 5 10l94 54q7 3 15 0zM357 508h56q12 0 12 -12v-307q0 -112 -37.5 -154.5t-137.5 -42.5q-101 0 -139 42.5t-38 154.5v307q0 12 12 12h56q12 0 12 -12v-319
q0 -66 21 -89t76 -23t75 22.5t20 89.5v319q0 12 12 12z" />
    <glyph glyph-name="udieresis" unicode="&#xfc;" horiz-adv-x="498" 
d="M162 707h46q11 0 11 -12v-103q0 -11 -11 -11h-46q-11 0 -11 11v103q0 12 11 12zM288 707h46q11 0 11 -12v-103q0 -11 -11 -11h-46q-11 0 -11 11v103q0 12 11 12zM357 508h56q12 0 12 -12v-307q0 -112 -37.5 -154.5t-137.5 -42.5q-101 0 -139 42.5t-38 154.5v307
q0 12 12 12h56q12 0 12 -12v-319q0 -66 21 -89t76 -23t75 22.5t20 89.5v319q0 12 12 12z" />
    <glyph glyph-name="yacute" unicode="&#xfd;" horiz-adv-x="507" 
d="M279 707h72q9 0 11 -4.5t-3 -9.5l-83 -112q-5 -8 -15 -8h-33q-18 0 -10 14l48 112q3 8 13 8zM362 508h59q11 0 11 -10v-503q0 -97 -41 -141.5t-144 -44.5q-75 0 -122 14q-16 5 -15 22l5 40q0 10 10 10l41 -6q41 -6 73 -6q67 0 91 27t24 83v76q0 5 -4 3q-42 -33 -119 -33
q-81 0 -118 40t-37 137v282q0 10 11 10h58q11 0 11 -10v-271q0 -67 21.5 -90.5t75.5 -23.5q48 0 73 19.5t25 53.5v312q0 10 11 10z" />
    <glyph glyph-name="thorn" unicode="&#xfe;" horiz-adv-x="496" 
d="M82 700h62q8 0 8 -10v-209q0 -3 1.5 -5t4.5 -1q45 41 118 41q93 0 130 -57.5t37 -199.5q0 -147 -39 -207t-136 -60q-50 0 -109 36q-3 1 -5 -1.5t-2 -7.5v-182q0 -10 -8 -10h-62q-9 0 -9 10v853q0 10 9 10zM153 323v-173q0 -36 18 -54q33 -31 82 -31q43 0 64.5 12.5
t34 54.5t12.5 125q0 79 -11.5 119.5t-32.5 53.5t-60 13q-62 0 -87 -35q-20 -25 -20 -85z" />
    <glyph glyph-name="ydieresis" unicode="&#xff;" horiz-adv-x="507" 
d="M171 707h46q11 0 11 -11v-104q0 -11 -11 -11h-46q-11 0 -11 11v104q0 11 11 11zM297 707h46q11 0 11 -11v-104q0 -11 -11 -11h-46q-11 0 -11 11v104q0 11 11 11zM362 508h59q11 0 11 -10v-503q0 -97 -41 -141.5t-144 -44.5q-75 0 -122 14q-16 5 -15 22l5 40q0 10 10 10
l41 -6q41 -6 73 -6q67 0 91 27t24 83v76q0 5 -4 3q-42 -33 -119 -33q-81 0 -118 40t-37 137v282q0 10 11 10h58q11 0 11 -10v-271q0 -67 21.5 -90.5t75.5 -23.5q48 0 73 19.5t25 53.5v312q0 10 11 10z" />
    <glyph glyph-name="Amacron" unicode="&#x100;" 
d="M171 844h218q10 0 10 -11v-43q0 -10 -10 -10h-218q-9 0 -9 10v43q0 11 9 11zM122 556l122 132q18 19 41 19q25 0 42 -20l120 -130q32 -34 32 -77v-468q0 -12 -13 -12h-60q-12 0 -12 12v179q0 7 -8 7h-203q-8 0 -8 -7v-179q0 -12 -12 -12h-60q-12 0 -12 12v468q0 45 31 76
zM384 506l-92 103q-4 4 -7 4t-7 -4l-93 -103q-10 -10 -10 -25v-198q0 -7 8 -7h203q8 0 8 7v198q0 15 -10 25z" />
    <glyph glyph-name="amacron" unicode="&#x101;" horiz-adv-x="472" 
d="M124 673h217q10 0 10 -11v-43q0 -10 -10 -10h-217q-10 0 -10 10v43q0 11 10 11zM84 443l-5 31q-1 18 14 24q49 18 126 18q97 0 138.5 -41.5t41.5 -154.5v-310q0 -10 -11 -10h-36q-12 0 -14 9l-8 42q0 2 -3 2q-2 0 -7.5 -6.5t-15 -15.5t-23.5 -17.5t-38.5 -15t-54.5 -6.5
q-73 0 -104.5 38.5t-31.5 126.5q0 79 38 114.5t121 35.5h94q14 0 14 15q0 73 -23 98t-84 25q-32 0 -73.5 -7.5t-42.5 -7.5q-10 0 -12 13zM309 243h-80q-55 0 -78 -19t-23 -67q0 -56 19.5 -77t62.5 -21q53 0 81.5 31t28.5 83v58q0 12 -11 12z" />
    <glyph glyph-name="Abreve" unicode="&#x102;" 
d="M360 862h29q10 0 10 -10q-1 -48 -28.5 -69.5t-85.5 -21.5q-113 0 -113 91q0 10 10 10h29q9 0 10 -11q4 -20 18 -28.5t46 -8.5t46.5 8.5t17.5 28.5q1 11 11 11zM122 556l122 132q18 19 41 19q25 0 42 -20l120 -130q32 -34 32 -77v-468q0 -12 -13 -12h-60q-12 0 -12 12v179
q0 7 -8 7h-203q-8 0 -8 -7v-179q0 -12 -12 -12h-60q-12 0 -12 12v468q0 45 31 76zM384 506l-92 103q-4 4 -7 4t-7 -4l-93 -103q-10 -10 -10 -25v-198q0 -7 8 -7h203q8 0 8 7v198q0 15 -10 25z" />
    <glyph glyph-name="abreve" unicode="&#x103;" horiz-adv-x="472" 
d="M312 680h29q10 0 10 -9q-1 -92 -114 -92t-113 92q0 9 10 9h29q9 0 11 -10q3 -20 17 -28.5t46 -8.5t46.5 8.5t17.5 28.5q1 10 11 10zM84 443l-5 31q-1 18 14 24q49 18 126 18q97 0 138.5 -41.5t41.5 -154.5v-310q0 -10 -11 -10h-36q-12 0 -14 9l-8 42q0 2 -3 2
q-2 0 -7.5 -6.5t-15 -15.5t-23.5 -17.5t-38.5 -15t-54.5 -6.5q-73 0 -104.5 38.5t-31.5 126.5q0 79 38 114.5t121 35.5h94q14 0 14 15q0 73 -23 98t-84 25q-32 0 -73.5 -7.5t-42.5 -7.5q-10 0 -12 13zM309 243h-80q-55 0 -78 -19t-23 -67q0 -56 19.5 -77t62.5 -21
q53 0 81.5 31t28.5 83v58q0 12 -11 12z" />
    <glyph glyph-name="Aogonek" unicode="&#x104;" 
d="M466 0h-13q-50 -26 -50 -88q0 -58 39 -58q9 0 20.5 1.5t14.5 1.5q9 0 9 -10v-16q0 -11 -13 -18q-19 -12 -58 -12q-43 0 -62.5 21.5t-19.5 70.5q0 71 63 112q-2 2 -2 7v179q0 7 -8 7h-203q-8 0 -8 -7v-179q0 -12 -12 -12h-60q-12 0 -12 12v468q0 45 31 76l122 132
q18 19 41 19q25 0 42 -20l120 -130q32 -34 32 -77v-468q0 -12 -13 -12zM394 283v198q0 15 -10 25l-92 103q-4 4 -7 4t-7 -4l-93 -103q-10 -10 -10 -25v-198q0 -7 8 -7h203q8 0 8 7z" />
    <glyph glyph-name="aogonek" unicode="&#x105;" horiz-adv-x="472" 
d="M392 0q-75 -24 -75 -97q0 -58 39 -58q9 0 21 1t14 1q9 0 9 -9v-16q0 -12 -12 -19q-22 -11 -59 -11q-43 0 -62.5 21t-19.5 70q0 44 21.5 74t69.5 53l-8 41q0 2 -3 2q-2 0 -7.5 -6.5t-15 -15.5t-23.5 -17.5t-38.5 -15t-54.5 -6.5q-73 0 -104.5 38.5t-31.5 126.5
q0 79 38 114.5t121 35.5h94q14 0 14 15q0 73 -23 98t-84 25q-32 0 -73.5 -7.5t-42.5 -7.5q-10 0 -12 13l-5 31q-1 18 14 24q49 18 126 18q97 0 138.5 -41.5t41.5 -154.5v-310q0 -6 -7 -10zM320 173v58q0 12 -11 12h-80q-55 0 -78 -19t-23 -67q0 -56 19.5 -77t62.5 -21
q53 0 81.5 31t28.5 83z" />
    <glyph glyph-name="Cacute" unicode="&#x106;" horiz-adv-x="496" 
d="M390 867l32 -16q14 -8 3 -19l-93 -77q-12 -10 -34 -10h-29q-17 0 -7 12l90 103q14 18 38 7zM447 68l4 -35q3 -20 -15 -27q-40 -14 -131 -14q-135 -1 -183.5 78t-48.5 282q0 204 49 280.5t184 76.5q86 0 128 -10q15 -4 14 -20l-4 -48q-2 -9 -10 -9q-1 0 -42 4.5t-70 4.5
q-64 1 -96 -17.5t-48.5 -79t-16.5 -182.5q0 -124 15.5 -184t47 -80t97.5 -20q38 0 76.5 5t39.5 5q8 0 10 -10z" />
    <glyph glyph-name="cacute" unicode="&#x107;" horiz-adv-x="410" 
d="M244 708h72q8 0 10 -5t-3 -9l-82 -112q-7 -8 -15 -8h-34q-18 0 -10 14l49 112q3 8 13 8zM348 62l5 -34q3 -19 -16 -26q-37 -10 -102 -10q-103 0 -143 59.5t-40 204.5t38.5 202.5t137.5 57.5q70 0 109 -14q18 -7 16 -25l-5 -36q-2 -11 -10 -11q-1 0 -33.5 6.5t-59.5 6.5
q-64 0 -87 -39t-23 -149t24 -150t92 -40q21 0 53.5 3.5t33.5 3.5q9 0 10 -10z" />
    <glyph glyph-name="Cdotaccent" unicode="&#x10a;" horiz-adv-x="496" 
d="M268 900h51q11 0 11 -11v-104q0 -11 -11 -11h-51q-11 0 -11 11v104q0 11 11 11zM447 68l4 -35q3 -20 -15 -27q-40 -14 -131 -14q-135 -1 -183.5 78t-48.5 282q0 204 49 280.5t184 76.5q86 0 128 -10q15 -4 14 -20l-4 -48q-2 -9 -10 -9q-1 0 -42 4.5t-70 4.5
q-64 1 -96 -17.5t-48.5 -79t-16.5 -182.5q0 -124 15.5 -184t47 -80t97.5 -20q38 0 76.5 5t39.5 5q8 0 10 -10z" />
    <glyph glyph-name="cdotaccent" unicode="&#x10b;" horiz-adv-x="410" 
d="M194 708h51q11 0 11 -11v-104q0 -11 -11 -11h-51q-10 0 -10 11v104q0 11 10 11zM348 62l5 -34q3 -19 -16 -26q-37 -10 -102 -10q-103 0 -143 59.5t-40 204.5t38.5 202.5t137.5 57.5q70 0 109 -14q18 -7 16 -25l-5 -36q-2 -11 -10 -11q-1 0 -33.5 6.5t-59.5 6.5
q-64 0 -87 -39t-23 -149t24 -150t92 -40q21 0 53.5 3.5t33.5 3.5q9 0 10 -10z" />
    <glyph glyph-name="Ccaron" unicode="&#x10c;" horiz-adv-x="496" 
d="M306 815l70 38q11 4 14 -7l11 -32q1 -6 -6 -10l-93 -53q-5 -3 -8 -3q-4 0 -8 3l-93 53q-6 5 -5 10l11 32q3 11 14 7l66 -36q2 -1 5.5 -2.5t6 -2.5t3.5 -1q2 0 6 2t6 2zM447 68l4 -35q3 -20 -15 -27q-40 -14 -131 -14q-135 -1 -183.5 78t-48.5 282q0 204 49 280.5
t184 76.5q86 0 128 -10q15 -4 14 -20l-4 -48q-2 -9 -10 -9q-1 0 -42 4.5t-70 4.5q-64 1 -96 -17.5t-48.5 -79t-16.5 -182.5q0 -124 15.5 -184t47 -80t97.5 -20q38 0 76.5 5t39.5 5q8 0 10 -10z" />
    <glyph glyph-name="ccaron" unicode="&#x10d;" horiz-adv-x="410" 
d="M232 648l70 38q12 4 15 -7l10 -32q1 -7 -5 -10l-94 -53q-4 -3 -7 -3q-5 0 -8 3l-93 53q-6 3 -5 10l10 32q3 11 14 7l67 -36l4 -2l4 -2t4 -1.5t3 -0.5q2 0 5.5 2t5.5 2zM348 62l5 -34q3 -19 -16 -26q-37 -10 -102 -10q-103 0 -143 59.5t-40 204.5t38.5 202.5t137.5 57.5
q70 0 109 -14q18 -7 16 -25l-5 -36q-2 -11 -10 -11q-1 0 -33.5 6.5t-59.5 6.5q-64 0 -87 -39t-23 -149t24 -150t92 -40q21 0 53.5 3.5t33.5 3.5q9 0 10 -10z" />
    <glyph glyph-name="Dcaron" unicode="&#x10e;" horiz-adv-x="588" 
d="M282 815l70 38q11 4 14 -7l11 -32q1 -6 -6 -10l-93 -53q-5 -3 -8 -3q-4 0 -8 3l-93 53q-6 5 -5 10l11 32q3 11 14 7l66 -36q2 -1 5.5 -2.5t6 -2.5t3.5 -1q2 0 6 2t6 2zM139 700h144q125 0 178.5 -75t53.5 -275q1 -199 -53 -274.5t-179 -75.5h-145q-20 0 -33.5 14.5
t-13.5 34.5v604q0 21 14 34t34 13zM276 623h-92q-3 0 -6 -3t-3 -5v-530q0 -2 3 -5t6 -3h92q58 0 88.5 19.5t47.5 79t17 174.5t-17 174.5t-47.5 79t-88.5 19.5z" />
    <glyph glyph-name="dcaron" unicode="&#x10f;" horiz-adv-x="549" 
d="M503 700h52q12 0 12 -12v-95q0 -30 -11.5 -56t-40.5 -69q-8 -11 -22 -7l-16 3q-12 2 -10 11q24 62 24 119v94q0 12 12 12zM349 700h55q12 0 12 -12v-505q0 -101 -41 -146t-141 -45q-102 0 -141.5 57.5t-39.5 202.5q0 152 39 207.5t129 55.5q34 0 59 -8.5t37.5 -16.5
t14.5 -8q5 0 5 7v199q0 12 12 12zM339 176v175q0 48 -25 69t-76 21q-40 0 -61 -12t-33.5 -54t-12.5 -123q0 -115 22.5 -151t81.5 -36q58 0 81 24.5t23 86.5z" />
    <glyph glyph-name="Dcroat" unicode="&#x110;" horiz-adv-x="599" 
d="M159 844h217q10 0 10 -11v-43q0 -10 -10 -10h-217q-9 0 -9 10v43q0 11 9 11zM139 700h144q125 0 178.5 -75t53.5 -275q1 -199 -53 -274.5t-179 -75.5h-145q-20 0 -33.5 14.5t-13.5 34.5v604q0 21 14 34t34 13zM276 623h-92q-3 0 -6 -3t-3 -5v-530q0 -2 3 -5t6 -3h92
q58 0 88.5 19.5t47.5 79t17 174.5t-17 174.5t-47.5 79t-88.5 19.5z" />
    <glyph glyph-name="dcroat" unicode="&#x111;" horiz-adv-x="492" 
d="M416 618h63q10 0 10 -11v-29q0 -10 -10 -10h-63v-385q0 -101 -41 -146t-141 -45q-102 0 -141.5 57.5t-39.5 202.5q0 152 39 207.5t129 55.5q34 0 59 -8.5t37.5 -16.5t14.5 -8q5 0 5 7v79h-64q-9 0 -9 10v29q0 11 9 11h64v70q0 12 12 12h55q12 0 12 -12v-70zM339 176v175
q0 48 -25 69t-76 21q-40 0 -61 -12t-33.5 -54t-12.5 -123q0 -115 22.5 -151t81.5 -36q58 0 81 24.5t23 86.5z" />
    <glyph glyph-name="Emacron" unicode="&#x112;" horiz-adv-x="507" 
d="M166 844h217q10 0 10 -11v-43q0 -10 -10 -10h-217q-9 0 -9 10v43q0 11 9 11zM265 700h165q12 0 12 -12v-54q0 -12 -12 -12h-140q-73 0 -94 -18t-21 -84v-116q0 -6 7 -6h212q12 0 12 -12v-54q0 -12 -12 -12h-212q-7 0 -7 -6v-134q0 -66 21 -84t94 -18h140q12 0 12 -12v-54
q0 -12 -12 -12h-150q-109 0 -149 37t-40 130v366q0 92 37.5 129.5t136.5 37.5z" />
    <glyph glyph-name="emacron" unicode="&#x113;" horiz-adv-x="459" 
d="M129 673h218q10 0 10 -11v-43q0 -10 -10 -10h-218q-9 0 -9 10v43q0 11 9 11zM388 69l6 -28q5 -20 -14 -28q-42 -20 -128 -20q-74 0 -115.5 22t-62.5 79t-21 161t21.5 162t60.5 78.5t105 20.5q91 0 131 -50.5t40 -172.5v-26q0 -44 -45 -44h-228q-5 0 -5 -5v-8
q0 -88 27.5 -117.5t98.5 -29.5q35 0 75 9t41 9q10 0 13 -12zM139 285h194q5 0 5 6q0 93 -22.5 124t-74.5 31q-58 0 -83 -31.5t-25 -122.5q0 -7 6 -7z" />
    <glyph glyph-name="Edotaccent" unicode="&#x116;" horiz-adv-x="507" 
d="M252 900h51q11 0 11 -11v-104q0 -11 -11 -11h-51q-10 0 -10 11v104q0 11 10 11zM265 700h165q12 0 12 -12v-54q0 -12 -12 -12h-140q-73 0 -94 -18t-21 -84v-116q0 -6 7 -6h212q12 0 12 -12v-54q0 -12 -12 -12h-212q-7 0 -7 -6v-134q0 -66 21 -84t94 -18h140q12 0 12 -12
v-54q0 -12 -12 -12h-150q-109 0 -149 37t-40 130v366q0 92 37.5 129.5t136.5 37.5z" />
    <glyph glyph-name="edotaccent" unicode="&#x117;" horiz-adv-x="459" 
d="M216 708h51q11 0 11 -11v-104q0 -11 -11 -11h-51q-11 0 -11 11v104q0 11 11 11zM388 69l6 -28q5 -20 -14 -28q-42 -20 -128 -20q-74 0 -115.5 22t-62.5 79t-21 161t21.5 162t60.5 78.5t105 20.5q91 0 131 -50.5t40 -172.5v-26q0 -44 -45 -44h-228q-5 0 -5 -5v-8
q0 -88 27.5 -117.5t98.5 -29.5q35 0 75 9t41 9q10 0 13 -12zM139 285h194q5 0 5 6q0 93 -22.5 124t-74.5 31q-58 0 -83 -31.5t-25 -122.5q0 -7 6 -7z" />
    <glyph glyph-name="Eogonek" unicode="&#x118;" horiz-adv-x="507" 
d="M430 622h-140q-73 0 -94 -18t-21 -84v-116q0 -6 7 -6h212q12 0 12 -12v-54q0 -12 -12 -12h-212q-7 0 -7 -6v-134q0 -66 21 -84t94 -18h140q12 0 12 -12v-54q0 -12 -12 -12h-57q-60 -24 -60 -92q0 -58 38 -58q9 0 21 1t15 1q8 0 8 -10v-15q0 -12 -12 -19q-24 -12 -59 -12
q-42 0 -62 21.5t-20 70.5q0 70 63 112h-25q-109 0 -149 37t-40 130v366q0 92 37.5 129.5t136.5 37.5h165q12 0 12 -12v-54q0 -12 -12 -12z" />
    <glyph glyph-name="eogonek" unicode="&#x119;" horiz-adv-x="459" 
d="M337 -162v-16q0 -12 -13 -19q-20 -11 -59 -11q-42 0 -61.5 21t-19.5 70q0 71 59 110q-104 2 -147 57.5t-43 204.5q0 104 21.5 162t60.5 78.5t105 20.5q91 0 131 -50.5t40 -172.5v-26q0 -44 -45 -44h-228q-5 0 -5 -5v-8q0 -88 27.5 -117.5t98.5 -29.5q35 0 75 9t41 9
q10 0 13 -12l6 -28q5 -20 -14 -28q-17 -9 -59 -15q-67 -25 -67 -95q0 -58 39 -58q9 0 20.5 1t14.5 1q9 0 9 -9zM139 285h194q5 0 5 6q0 93 -22.5 124t-74.5 31q-58 0 -83 -31.5t-25 -122.5q0 -7 6 -7z" />
    <glyph glyph-name="Ecaron" unicode="&#x11a;" horiz-adv-x="507" 
d="M290 815l71 38q11 4 14 -7l10 -32q1 -5 -5 -10l-94 -53q-5 -3 -7 -3q-5 0 -8 3l-93 53q-6 5 -5 10l10 32q3 11 14 7l67 -36q1 -1 3 -1.5t3.5 -1.5t3 -1.5l3 -1t2.5 -0.5q2 0 5.5 2t5.5 2zM265 700h165q12 0 12 -12v-54q0 -12 -12 -12h-140q-73 0 -94 -18t-21 -84v-116
q0 -6 7 -6h212q12 0 12 -12v-54q0 -12 -12 -12h-212q-7 0 -7 -6v-134q0 -66 21 -84t94 -18h140q12 0 12 -12v-54q0 -12 -12 -12h-150q-109 0 -149 37t-40 130v366q0 92 37.5 129.5t136.5 37.5z" />
    <glyph glyph-name="ecaron" unicode="&#x11b;" horiz-adv-x="459" 
d="M254 648l70 38q11 4 14 -7l11 -32q1 -6 -6 -10l-93 -53q-5 -3 -8 -3q-4 0 -8 3l-93 53q-6 3 -5 10l11 32q3 11 14 7l66 -36q2 -1 5.5 -2.5t6 -2.5t3.5 -1q2 0 6 2t6 2zM388 69l6 -28q5 -20 -14 -28q-42 -20 -128 -20q-74 0 -115.5 22t-62.5 79t-21 161t21.5 162
t60.5 78.5t105 20.5q91 0 131 -50.5t40 -172.5v-26q0 -44 -45 -44h-228q-5 0 -5 -5v-8q0 -88 27.5 -117.5t98.5 -29.5q35 0 75 9t41 9q10 0 13 -12zM139 285h194q5 0 5 6q0 93 -22.5 124t-74.5 31q-58 0 -83 -31.5t-25 -122.5q0 -7 6 -7z" />
    <glyph glyph-name="Gbreve" unicode="&#x11e;" 
d="M375 862h29q11 0 11 -10q-1 -91 -114 -91q-58 0 -85.5 22t-27.5 69q0 10 10 10h28q10 0 11 -11q3 -20 17.5 -28.5t46.5 -8.5t46 8.5t18 28.5q1 11 10 11zM504 357v-172q0 -94 -48.5 -143t-158.5 -49q-127 0 -175.5 80.5t-48.5 278.5q0 142 23.5 218.5t73.5 106.5t141 30
q95 0 147 -11q17 -3 14 -22l-6 -43q0 -9 -10 -9q-2 0 -48.5 3.5t-86.5 3.5q-65 0 -97 -20t-47.5 -79t-15.5 -178q0 -116 16 -177t44 -80.5t80 -19.5q64 0 91 28t27 93v123q0 6 -6 6h-128q-12 0 -12 12v54q0 12 12 12h174q45 0 45 -46z" />
    <glyph glyph-name="gbreve" unicode="&#x11f;" horiz-adv-x="502" 
d="M328 680h28q11 0 11 -9q-1 -92 -114 -92t-113 92q0 9 10 9h28q10 0 11 -10q3 -20 17.5 -28.5t46.5 -8.5t46 8.5t18 28.5q1 10 11 10zM349 69h-3q-42 -51 -120 -51q-88 0 -130.5 55t-42.5 197q0 134 39.5 190t136.5 56q89 0 127 -51q6 -7 7 -7t4 6l7 30q5 14 22 14h21
q12 0 12 -12v-488q0 -100 -44 -149t-152 -49q-79 0 -124 14q-13 5 -12 21l4 33q2 14 13 14q3 0 43 -5.5t69 -5.5q75 0 99 31t24 102v55zM349 210v146q0 39 -27 62.5t-78 23.5q-61 0 -86 -36t-25 -136q0 -101 26.5 -139.5t80.5 -38.5q56 0 88 34q21 23 21 84z" />
    <glyph glyph-name="Gdotaccent" unicode="&#x120;" 
d="M273 900h51q11 0 11 -11v-104q0 -11 -11 -11h-51q-10 0 -10 11v104q0 11 10 11zM504 357v-172q0 -94 -48.5 -143t-158.5 -49q-127 0 -175.5 80.5t-48.5 278.5q0 142 23.5 218.5t73.5 106.5t141 30q95 0 147 -11q17 -3 14 -22l-6 -43q0 -9 -10 -9q-2 0 -48.5 3.5
t-86.5 3.5q-65 0 -97 -20t-47.5 -79t-15.5 -178q0 -116 16 -177t44 -80.5t80 -19.5q64 0 91 28t27 93v123q0 6 -6 6h-128q-12 0 -12 12v54q0 12 12 12h174q45 0 45 -46z" />
    <glyph glyph-name="gdotaccent" unicode="&#x121;" horiz-adv-x="502" 
d="M225 708h51q11 0 11 -11v-104q0 -11 -11 -11h-51q-10 0 -10 11v104q0 11 10 11zM349 69h-3q-42 -51 -120 -51q-88 0 -130.5 55t-42.5 197q0 134 39.5 190t136.5 56q89 0 127 -51q6 -7 7 -7t4 6l7 30q5 14 22 14h21q12 0 12 -12v-488q0 -100 -44 -149t-152 -49
q-79 0 -124 14q-13 5 -12 21l4 33q2 14 13 14q3 0 43 -5.5t69 -5.5q75 0 99 31t24 102v55zM349 210v146q0 39 -27 62.5t-78 23.5q-61 0 -86 -36t-25 -136q0 -101 26.5 -139.5t80.5 -38.5q56 0 88 34q21 23 21 84z" />
    <glyph glyph-name="Gcommaaccent" unicode="&#x122;" 
d="M504 357v-172q0 -94 -48.5 -143t-158.5 -49q-127 0 -175.5 80.5t-48.5 278.5q0 142 23.5 218.5t73.5 106.5t141 30q95 0 147 -11q17 -3 14 -22l-6 -43q0 -9 -10 -9q-2 0 -48.5 3.5t-86.5 3.5q-65 0 -97 -20t-47.5 -79t-15.5 -178q0 -116 16 -177t44 -80.5t80 -19.5
q64 0 91 28t27 93v123q0 6 -6 6h-128q-12 0 -12 12v54q0 12 12 12h174q45 0 45 -46zM280 -29h52q12 0 12 -12v-37q0 -33 -10.5 -56.5t-38.5 -65.5q-8 -11 -22 -7l-16 2q-11 4 -10 11q21 63 21 117v36q0 12 12 12z" />
    <glyph glyph-name="gcommaaccent" unicode="&#x123;" horiz-adv-x="502" 
d="M266 557h-52q-12 0 -12 12v37q0 33 10.5 57t37.5 65q9 10 22 8l16 -3q12 -3 11 -11q-21 -63 -21 -117v-36q0 -12 -12 -12zM349 69h-3q-42 -51 -120 -51q-88 0 -130.5 55t-42.5 197q0 134 39.5 190t136.5 56q89 0 127 -51q6 -7 7 -7t4 6l7 30q5 14 22 14h21q12 0 12 -12
v-488q0 -100 -44 -149t-152 -49q-79 0 -124 14q-13 5 -12 21l4 33q2 14 13 14q3 0 43 -5.5t69 -5.5q75 0 99 31t24 102v55zM349 210v146q0 39 -27 62.5t-78 23.5q-61 0 -86 -36t-25 -136q0 -101 26.5 -139.5t80.5 -38.5q56 0 88 34q21 23 21 84z" />
    <glyph glyph-name="Hbar" unicode="&#x126;" horiz-adv-x="605" 
d="M513 561h44q10 0 10 -11v-34q0 -10 -10 -10h-44v-497q0 -9 -10 -9h-66q-9 0 -9 9v292q0 6 -8 6h-236q-7 0 -7 -6v-292q0 -9 -9 -9h-66q-9 0 -9 9v497h-46q-10 0 -10 10v34q0 11 10 11h46v128q0 11 9 11h66q9 0 9 -11v-128h251v128q0 11 9 11h65q11 0 11 -11v-128z
M428 506h-251v-110q0 -6 7 -6h236q8 0 8 6v110z" />
    <glyph glyph-name="hbar" unicode="&#x127;" horiz-adv-x="511" 
d="M152 568v-103q0 -2 1 -2q3 0 4 2q36 51 127 51q89 0 121.5 -42t32.5 -137v-327q0 -10 -9 -10h-62q-10 0 -10 10v321q0 64 -20.5 88t-72.5 24q-58 0 -84.5 -26t-26.5 -86v-321q0 -10 -10 -10h-60q-10 0 -10 10v558h-60q-10 0 -10 10v29q0 11 10 11h60v72q0 10 11 10h57
q11 0 11 -10v-72h67q10 0 10 -11v-29q0 -10 -10 -10h-67z" />
    <glyph glyph-name="Imacron" unicode="&#x12a;" horiz-adv-x="267" 
d="M19 844h217q11 0 11 -11v-43q0 -10 -11 -10h-217q-9 0 -9 10v43q0 11 9 11zM103 700h62q12 0 12 -12v-676q0 -12 -12 -12h-62q-12 0 -12 12v676q0 12 12 12z" />
    <glyph glyph-name="imacron" unicode="&#x12b;" horiz-adv-x="227" 
d="M0 673h217q10 0 10 -11v-43q0 -10 -10 -10h-217q-10 0 -10 10v43q0 11 10 11zM85 508h57q12 0 12 -12v-484q0 -12 -12 -12h-58q-11 0 -11 12v484q0 12 12 12z" />
    <glyph glyph-name="Iogonek" unicode="&#x12e;" horiz-adv-x="267" 
d="M103 700h62q12 0 12 -12v-676q0 -12 -12 -12q-75 -24 -75 -97q0 -58 39 -58q9 0 21 1t14 1q9 0 9 -9v-16q0 -12 -13 -19q-20 -11 -58 -11q-43 0 -62.5 21t-19.5 70q0 77 75 119q-4 3 -4 10v676q0 12 12 12z" />
    <glyph glyph-name="iogonek" unicode="&#x12f;" horiz-adv-x="231" 
d="M85 700h61q12 0 12 -12v-95q0 -13 -12 -13h-61q-12 0 -12 13v95q0 12 12 12zM87 508h57q12 0 12 -12v-484q0 -10 -9 -12q-75 -24 -75 -97q0 -58 39 -58q9 0 21 1t14 1q9 0 9 -9v-16q0 -12 -13 -19q-20 -11 -58 -11q-43 0 -62.5 21t-19.5 70q0 78 76 120q-3 3 -3 9v484
q0 12 12 12z" />
    <glyph glyph-name="Idotaccent" unicode="&#x130;" horiz-adv-x="267" 
d="M105 900h52q10 0 10 -11v-104q0 -11 -10 -11h-52q-10 0 -10 11v104q0 11 10 11zM103 700h62q12 0 12 -12v-676q0 -12 -12 -12h-62q-12 0 -12 12v676q0 12 12 12z" />
    <glyph glyph-name="dotlessi" unicode="&#x131;" horiz-adv-x="227" 
d="M85 508h57q12 0 12 -12v-484q0 -12 -12 -12h-58q-11 0 -11 12v484q0 12 12 12z" />
    <glyph glyph-name="IJ" unicode="&#x132;" horiz-adv-x="686" 
d="M524 700h59q12 0 12 -12v-510q0 -98 -33.5 -141.5t-127.5 -43.5q-71 0 -107 12q-19 7 -17 25l4 43q2 10 10 10q3 0 16.5 -2.5t36.5 -5t48 -2.5q51 0 68.5 21.5t17.5 90.5v503q0 12 13 12zM103 700h62q12 0 12 -12v-676q0 -12 -12 -12h-62q-12 0 -12 12v676q0 12 12 12z
" />
    <glyph glyph-name="ij" unicode="&#x133;" horiz-adv-x="479" 
d="M85 700h61q12 0 12 -12v-95q0 -13 -12 -13h-61q-12 0 -12 13v95q0 12 12 12zM336 700h58q12 0 12 -12v-90q0 -12 -12 -12h-58q-12 0 -12 12v90q0 12 12 12zM87 508h57q12 0 12 -12v-484q0 -12 -12 -12h-59q-10 0 -10 12v484q0 12 12 12zM337 507h58q11 0 11 -10v-533
q0 -84 -31.5 -119t-105.5 -35q-52 0 -81 9q-17 4 -14 23l4 36q1 11 10 11q2 0 23.5 -3t40.5 -3q42 0 58 18.5t16 70.5v525q0 10 11 10z" />
    <glyph glyph-name="Kcommaaccent" unicode="&#x136;" horiz-adv-x="541" 
d="M424 700h70q16 0 7 -13l-194 -312v-9l200 -347q6 -11 4.5 -15t-11.5 -4h-65q-17 0 -22 10l-174 305q-6 11 -15 11h-43q-7 0 -7 -8v-306q0 -12 -12 -12h-59q-12 0 -12 12v676q0 12 12 12h59q12 0 12 -12v-276q0 -7 7 -7h42q10 0 14 8l168 276q6 11 19 11zM256 -29h52
q12 0 12 -12v-37q0 -33 -10 -56.5t-38 -65.5q-9 -11 -22 -7l-16 2q-12 3 -11 11q21 63 21 117v36q0 12 12 12z" />
    <glyph glyph-name="kcommaaccent" unicode="&#x137;" horiz-adv-x="468" 
d="M85 700h56q12 0 12 -12v-377q0 -6 6 -6h56q4 0 6 5l94 188q4 10 20 10h59q20 0 11 -17l-106 -193q-2 -5 3 -7q55 -19 80 -90l67 -188q5 -13 -10 -13h-57q-13 0 -18 16l-60 160q-19 55 -75 55h-70q-6 0 -6 -6v-213q0 -12 -12 -12h-56q-12 0 -12 12v676q0 12 12 12z
M221 -29h53q12 0 12 -12v-37q0 -33 -10.5 -56.5t-38.5 -65.5q-8 -11 -22 -7l-16 2q-12 4 -10 11q20 60 20 117v36q0 12 12 12z" />
    <glyph glyph-name="Lacute" unicode="&#x139;" horiz-adv-x="464" 
d="M232 867l32 -16q15 -7 3 -19l-93 -77q-11 -10 -33 -10h-30q-16 0 -6 12l90 103q12 18 37 7zM103 700h60q12 0 12 -12v-513q0 -61 18.5 -79t82.5 -18h145q12 0 12 -12v-54q0 -12 -12 -12h-155q-100 0 -137.5 36t-37.5 122v530q0 12 12 12z" />
    <glyph glyph-name="lacute" unicode="&#x13a;" horiz-adv-x="239" 
d="M155 884h71q9 0 11 -5t-3 -10l-83 -112q-6 -7 -14 -7h-34q-17 0 -10 14l48 111q3 9 14 9zM93 700h56q12 0 12 -12v-676q0 -12 -12 -12h-56q-12 0 -12 12v676q0 12 12 12z" />
    <glyph glyph-name="Lcommaaccent" unicode="&#x13b;" horiz-adv-x="464" 
d="M103 700h60q12 0 12 -12v-513q0 -61 18.5 -79t82.5 -18h145q12 0 12 -12v-54q0 -12 -12 -12h-155q-100 0 -137.5 36t-37.5 122v530q0 12 12 12zM243 -29h52q13 0 13 -12v-37q0 -32 -10.5 -55.5t-38.5 -66.5q-8 -11 -22 -7l-16 2q-12 3 -10 11q20 60 20 117v36q0 12 12 12
z" />
    <glyph glyph-name="lcommaaccent" unicode="&#x13c;" horiz-adv-x="235" 
d="M90 700h55q12 0 12 -12v-676q0 -12 -12 -12h-55q-12 0 -12 12v676q0 12 12 12zM91 -29h52q12 0 12 -12v-37q0 -33 -10 -56.5t-38 -65.5q-8 -11 -22 -7l-16 2q-12 3 -11 11q21 57 21 117v36q0 12 12 12z" />
    <glyph glyph-name="Lcaron" unicode="&#x13d;" horiz-adv-x="464" 
d="M345 700h52q12 0 12 -12v-95q0 -30 -11.5 -56t-40.5 -69q-8 -11 -22 -7l-16 3q-12 2 -10 11q24 62 24 119v94q0 12 12 12zM103 700h60q12 0 12 -12v-513q0 -61 18.5 -79t82.5 -18h145q12 0 12 -12v-54q0 -12 -12 -12h-155q-100 0 -137.5 36t-37.5 122v530q0 12 12 12z
" />
    <glyph glyph-name="lcaron" unicode="&#x13e;" horiz-adv-x="294" 
d="M246 700h52q12 0 12 -12v-95q0 -30 -11.5 -56t-40.5 -69q-8 -11 -22 -7l-16 3q-12 2 -10 11q23 59 23 119v94q0 12 13 12zM90 700h55q12 0 12 -12v-676q0 -12 -12 -12h-55q-12 0 -12 12v676q0 12 12 12z" />
    <glyph glyph-name="Ldot" unicode="&#x13f;" horiz-adv-x="464" 
d="M103 700h60q12 0 12 -12v-513q0 -61 18.5 -79t82.5 -18h145q12 0 12 -12v-54q0 -12 -12 -12h-155q-100 0 -137.5 36t-37.5 122v530q0 12 12 12zM292 472h61q12 0 12 -12v-123q0 -12 -12 -12h-61q-12 0 -12 12v123q0 12 12 12z" />
    <glyph glyph-name="ldot" unicode="&#x140;" horiz-adv-x="306" 
d="M90 700h55q12 0 12 -12v-676q0 -12 -12 -12h-55q-12 0 -12 12v676q0 12 12 12zM225 416h61q12 0 12 -12v-123q0 -12 -12 -12h-61q-12 0 -12 12v123q0 12 12 12z" />
    <glyph glyph-name="Lslash" unicode="&#x141;" horiz-adv-x="499" 
d="M116 700h63q10 0 10 -11v-246q0 -8 8 -6l108 21q10 1 10 -7v-49q0 -11 -10 -12l-109 -21q-7 -1 -7 -8v-193q0 -48 24.5 -69t79.5 -21h149q9 0 9 -10v-57q0 -11 -9 -11h-170q-90 0 -128.5 37.5t-38.5 124.5v183q0 9 -8 7l-74 -13q-9 -1 -9 7v49q0 10 9 11l75 14q7 1 7 8
v261q0 11 11 11z" />
    <glyph glyph-name="lslash" unicode="&#x142;" horiz-adv-x="269" 
d="M104 707h61q10 0 10 -10v-265q0 -7 8 -6l66 11q10 3 10 -6v-47q0 -9 -11 -12l-66 -12q-7 -1 -7 -8v-343q0 -9 -9 -9h-62q-9 0 -9 9v329q0 7 -7 7l-70 -11q-9 -2 -9 7v47q0 10 8 10l72 12q6 1 6 8v279q0 10 9 10z" />
    <glyph glyph-name="Nacute" unicode="&#x143;" horiz-adv-x="595" 
d="M394 867l31 -16q16 -8 3 -19l-92 -77q-12 -10 -34 -10h-29q-17 0 -7 12l90 103q14 18 38 7zM432 700h66q9 0 9 -9v-662q0 -29 -28 -29h-26q-11 0 -16 9l-258 492q-2 4 -4.5 3t-2.5 -5v-490q0 -9 -9 -9h-66q-10 0 -10 9v662q0 29 29 29h29q13 0 20 -11l251 -482
q2 -4 4.5 -3t2.5 5v482q0 9 9 9z" />
    <glyph glyph-name="nacute" unicode="&#x144;" horiz-adv-x="511" 
d="M277 707h72q8 0 10.5 -4.5t-2.5 -9.5l-83 -112q-7 -8 -15 -8h-34q-8 0 -10.5 4.5t0.5 9.5l49 112q3 8 13 8zM73 10v324q0 99 37.5 140.5t145.5 41.5t145 -41.5t37 -140.5v-324q0 -10 -10 -10h-59q-11 0 -11 10v321q0 68 -22 90t-80 22t-80.5 -22t-22.5 -90v-321
q0 -10 -10 -10h-60q-10 0 -10 10z" />
    <glyph glyph-name="Ncommaaccent" unicode="&#x145;" horiz-adv-x="595" 
d="M432 700h66q9 0 9 -9v-662q0 -29 -28 -29h-26q-11 0 -16 9l-258 492q-2 4 -4.5 3t-2.5 -5v-490q0 -9 -9 -9h-66q-10 0 -10 9v662q0 29 29 29h29q13 0 20 -11l251 -482q2 -4 4.5 -3t2.5 5v482q0 9 9 9zM281 -29h52q12 0 12 -12v-37q0 -33 -10 -56.5t-38 -65.5
q-9 -11 -23 -7l-15 2q-12 3 -11 11q21 63 21 117v36q0 12 12 12z" />
    <glyph glyph-name="ncommaaccent" unicode="&#x146;" horiz-adv-x="511" 
d="M73 10v324q0 99 37.5 140.5t145.5 41.5t145 -41.5t37 -140.5v-324q0 -10 -10 -10h-59q-11 0 -11 10v321q0 68 -22 90t-80 22t-80.5 -22t-22.5 -90v-321q0 -10 -10 -10h-60q-10 0 -10 10zM232 -29h52q12 0 12 -12v-37q0 -33 -10 -56.5t-38 -65.5q-9 -11 -23 -7l-15 2
q-12 3 -11 11q21 63 21 117v36q0 12 12 12z" />
    <glyph glyph-name="Ncaron" unicode="&#x147;" horiz-adv-x="595" 
d="M310 815l70 38q11 4 14 -7l11 -32q1 -5 -6 -10l-94 -53q-5 -3 -7 -3q-4 0 -8 3l-93 53q-6 5 -5 10l10 32q3 11 14 7l67 -36q2 -1 5.5 -2.5t6 -2.5t3.5 -1q2 0 6 2t6 2zM432 700h66q9 0 9 -9v-662q0 -29 -28 -29h-26q-11 0 -16 9l-258 492q-2 4 -4.5 3t-2.5 -5v-490
q0 -9 -9 -9h-66q-10 0 -10 9v662q0 29 29 29h29q13 0 20 -11l251 -482q2 -4 4.5 -3t2.5 5v482q0 9 9 9z" />
    <glyph glyph-name="ncaron" unicode="&#x148;" horiz-adv-x="511" 
d="M266 647l70 38q11 4 14 -7l11 -32q1 -6 -6 -10l-94 -53q-3 -3 -7 -3t-8 3l-93 53q-6 3 -5 10l11 32q1 11 13 7l67 -36q2 -1 5.5 -2.5t6 -2.5t3.5 -1q2 0 6 2t6 2zM73 10v324q0 99 37.5 140.5t145.5 41.5t145 -41.5t37 -140.5v-324q0 -10 -10 -10h-59q-11 0 -11 10v321
q0 68 -22 90t-80 22t-80.5 -22t-22.5 -90v-321q0 -10 -10 -10h-60q-10 0 -10 10z" />
    <glyph glyph-name="Eng" unicode="&#x14a;" horiz-adv-x="595" 
d="M432 700h66q9 0 9 -9v-719q0 -98 -33.5 -141t-127.5 -43q-71 0 -107 12q-19 7 -17 25l4 43q2 10 10 10q3 0 16.5 -2.5t36 -5t48.5 -2.5q51 0 68.5 21.5t17.5 90.5v54l-244 467q-2 4 -4.5 3t-2.5 -5v-490q0 -9 -9 -9h-66q-10 0 -10 9v662q0 29 29 29h29q13 0 20 -11
l251 -482q2 -4 4.5 -3t2.5 5v482q0 9 9 9z" />
    <glyph glyph-name="eng" unicode="&#x14b;" horiz-adv-x="511" 
d="M73 10v324q0 99 37.5 140.5t145.5 41.5t145 -41.5t37 -140.5v-370q0 -84 -31 -119t-106 -35q-52 0 -81 9q-15 4 -14 23l5 36q1 11 10 11q2 0 23 -3t40 -3q42 0 58 18.5t16 70.5v359q0 68 -22 90t-80 22t-80.5 -22t-22.5 -90v-321q0 -10 -10 -10h-60q-10 0 -10 10z" />
    <glyph glyph-name="Omacron" unicode="&#x14c;" horiz-adv-x="593" 
d="M183 844h217q11 0 11 -11v-43q0 -10 -11 -10h-217q-9 0 -9 10v43q0 11 9 11zM297 708q72 0 116 -18.5t67.5 -65t31.5 -108t8 -164.5q0 -104 -8 -166t-31.5 -109t-67.5 -66t-116 -19t-116.5 19t-68 66t-31.5 109t-8 166q0 82 5 136t18.5 99.5t38.5 70t64.5 37.5t97.5 13z
M297 628q-58 0 -85.5 -21.5t-39 -79t-11.5 -176.5q0 -120 11.5 -177.5t39 -79.5t85.5 -22q57 0 84.5 22t39 80t11.5 177t-11.5 176.5t-39 79t-84.5 21.5z" />
    <glyph glyph-name="omacron" unicode="&#x14d;" horiz-adv-x="479" 
d="M132 672h217q10 0 10 -11v-43q0 -10 -10 -10h-217q-9 0 -9 10v43q0 11 9 11zM240 516q107 0 147 -56t40 -204q0 -150 -40 -207t-147 -57t-147 57t-40 207q0 148 40 204t147 56zM240 443q-62 0 -84 -37.5t-22 -149.5q0 -114 22 -152.5t84 -38.5t83.5 38.5t21.5 152.5
q0 112 -21.5 149.5t-83.5 37.5z" />
    <glyph glyph-name="Ohungarumlaut" unicode="&#x150;" horiz-adv-x="593" 
d="M255 868h64q14 0 8 -9l-50 -87q-6 -10 -15 -10h-33q-15 0 -12 13l25 84q2 9 13 9zM390 868h69q15 0 6 -11l-79 -88q-7 -7 -13 -7h-38q-18 0 -10 14l52 85q4 7 13 7zM297 708q72 0 116 -18.5t67.5 -65t31.5 -108t8 -164.5q0 -104 -8 -166t-31.5 -109t-67.5 -66t-116 -19
t-116.5 19t-68 66t-31.5 109t-8 166q0 82 5 136t18.5 99.5t38.5 70t64.5 37.5t97.5 13zM297 628q-58 0 -85.5 -21.5t-39 -79t-11.5 -176.5q0 -120 11.5 -177.5t39 -79.5t85.5 -22q57 0 84.5 22t39 80t11.5 177t-11.5 176.5t-39 79t-84.5 21.5z" />
    <glyph glyph-name="ohungarumlaut" unicode="&#x151;" horiz-adv-x="479" 
d="M193 707h64q13 0 9 -10l-51 -118q-5 -10 -15 -10h-33q-13 0 -12 13l25 116q2 9 13 9zM329 707h68q13 0 6 -11l-79 -120q-6 -7 -13 -7h-38q-16 0 -10 14l52 116q3 8 14 8zM240 516q107 0 147 -56t40 -204q0 -150 -40 -207t-147 -57t-147 57t-40 207q0 148 40 204t147 56z
M240 443q-62 0 -84 -37.5t-22 -149.5q0 -114 22 -152.5t84 -38.5t83.5 38.5t21.5 152.5q0 112 -21.5 149.5t-83.5 37.5z" />
    <glyph glyph-name="OE" unicode="&#x152;" horiz-adv-x="782" 
d="M707 0h-162q-53 0 -81.5 17t-41.5 57q-39 -82 -146 -82q-117 0 -158.5 75t-41.5 280q0 211 41.5 286t160.5 75q59 0 96.5 -22.5t51.5 -58.5q9 38 38 55.5t90 17.5h153q10 0 10 -10v-58q0 -10 -10 -10h-116q-73 0 -94 -18t-21 -84v-113q0 -6 7 -6h189q10 0 10 -10v-58
q0 -10 -10 -10h-189q-7 0 -7 -7v-136q0 -66 21 -84t94 -18h116q10 0 10 -10v-58q0 -10 -10 -10zM387 265v210q0 88 -27 123t-79 35q-48 0 -71.5 -20.5t-35 -81.5t-11.5 -185q0 -119 12 -179t35.5 -79.5t70.5 -19.5q64 0 85 44.5t21 152.5z" />
    <glyph glyph-name="oe" unicode="&#x153;" horiz-adv-x="765" 
d="M689 61l6 -25q4 -19 -13 -27q-43 -16 -128 -16q-65 0 -101 21.5t-55 63.5q-6 10 -10 0q-35 -86 -158 -86q-98 0 -137.5 59t-39.5 207q0 146 40 202t142 56q122 0 154 -88q3 -7 7 0q20 46 55 67t94 21q91 0 131.5 -54.5t40.5 -170.5v-25q0 -46 -51 -46h-223q-8 0 -8 -8
q1 -83 29 -116t98 -33q34 0 72 6.5t40 6.5q12 0 15 -15zM446 279h189q10 0 10 11q-1 85 -24.5 120.5t-78.5 35.5q-56 0 -82 -35q-25 -33 -25 -99v-22q0 -11 11 -11zM240 443q-62 0 -84 -37.5t-22 -147.5q0 -111 21.5 -152t78.5 -41q68 0 92.5 37.5t24.5 153.5
q0 114 -23.5 150.5t-87.5 36.5z" />
    <glyph glyph-name="Racute" unicode="&#x154;" horiz-adv-x="560" 
d="M379 867l32 -16q15 -8 2 -19l-92 -77q-12 -10 -34 -10h-29q-17 0 -7 12l90 103q14 18 38 7zM91 10v518q0 94 40 137t152 43q106 0 155.5 -47.5t49.5 -161.5q0 -81 -26.5 -124.5t-80.5 -65.5q-10 -5 -5 -14l148 -285q3 -4 1 -7t-6 -3h-67q-13 0 -18 10l-141 265
q-5 9 -17 9h-91q-10 0 -10 -10v-264q0 -10 -9 -10h-66q-9 0 -9 10zM185 361h92q69 0 97 33.5t28 100.5q0 76 -28 106t-92 30q-60 0 -83.5 -23.5t-23.5 -87.5v-149q0 -10 10 -10z" />
    <glyph glyph-name="racute" unicode="&#x155;" horiz-adv-x="339" 
d="M208 707h72q9 0 11 -4.5t-3 -9.5l-83 -112q-5 -8 -15 -8h-33q-9 0 -11.5 4.5t0.5 9.5l49 112q3 8 13 8zM73 10v374q0 75 28 103.5t97 28.5q50 0 90 -10q13 -4 16 -9.5t1 -18.5l-4 -29q-1 -12 -12 -12q-3 0 -29 3t-42 3q-37 0 -51 -13.5t-14 -51.5v-368q0 -10 -11 -10h-58
q-11 0 -11 10z" />
    <glyph glyph-name="Rcommaaccent" unicode="&#x156;" horiz-adv-x="560" 
d="M91 10v518q0 94 40 137t152 43q106 0 155.5 -47.5t49.5 -161.5q0 -81 -26.5 -124.5t-80.5 -65.5q-10 -5 -5 -14l148 -285q3 -4 1 -7t-6 -3h-67q-13 0 -18 10l-141 265q-5 9 -17 9h-91q-10 0 -10 -10v-264q0 -10 -9 -10h-66q-9 0 -9 10zM185 361h92q69 0 97 33.5t28 100.5
q0 76 -28 106t-92 30q-60 0 -83.5 -23.5t-23.5 -87.5v-149q0 -10 10 -10zM270 -29h52q12 0 12 -12v-37q0 -33 -10.5 -56.5t-38.5 -65.5q-8 -11 -22 -7l-16 2q-11 4 -10 11q20 60 20 117v36q0 12 13 12z" />
    <glyph glyph-name="rcommaaccent" unicode="&#x157;" horiz-adv-x="339" 
d="M73 10v374q0 75 28 103.5t97 28.5q50 0 90 -10q13 -4 16 -9.5t1 -18.5l-4 -29q-1 -12 -12 -12q-3 0 -29 3t-42 3q-37 0 -51 -13.5t-14 -51.5v-368q0 -10 -11 -10h-58q-11 0 -11 10zM87 -29h52q13 0 13 -12v-37q0 -32 -10.5 -55.5t-38.5 -66.5q-8 -11 -22 -7l-16 2
q-12 3 -10 11q20 60 20 117v36q0 12 12 12z" />
    <glyph glyph-name="Rcaron" unicode="&#x158;" horiz-adv-x="560" 
d="M295 815l70 38q11 4 14 -7l11 -32q1 -5 -6 -10l-94 -53q-5 -3 -7 -3q-3 0 -8 3l-93 53q-6 5 -5 10l10 32q3 11 14 7l67 -36q2 -1 5.5 -2.5t6 -2.5t3.5 -1q2 0 6 2t6 2zM91 10v518q0 94 40 137t152 43q106 0 155.5 -47.5t49.5 -161.5q0 -81 -26.5 -124.5t-80.5 -65.5
q-10 -5 -5 -14l148 -285q3 -4 1 -7t-6 -3h-67q-13 0 -18 10l-141 265q-5 9 -17 9h-91q-10 0 -10 -10v-264q0 -10 -9 -10h-66q-9 0 -9 10zM185 361h92q69 0 97 33.5t28 100.5q0 76 -28 106t-92 30q-60 0 -83.5 -23.5t-23.5 -87.5v-149q0 -10 10 -10z" />
    <glyph glyph-name="rcaron" unicode="&#x159;" horiz-adv-x="339" 
d="M197 647l70 38q11 4 14 -7l11 -32q1 -7 -6 -10l-93 -53q-5 -3 -8 -3t-8 3l-93 53q-6 3 -5 10l11 32q3 11 14 7l66 -36q2 -1 5.5 -2.5t6 -2.5t3.5 -1q2 0 6 2t6 2zM73 10v374q0 75 28 103.5t97 28.5q50 0 90 -10q13 -4 16 -9.5t1 -18.5l-4 -29q-1 -12 -12 -12q-3 0 -29 3
t-42 3q-37 0 -51 -13.5t-14 -51.5v-368q0 -10 -11 -10h-58q-11 0 -11 10z" />
    <glyph glyph-name="Sacute" unicode="&#x15a;" horiz-adv-x="514" 
d="M360 867l32 -16q15 -7 3 -19l-93 -77q-11 -10 -33 -10h-30q-16 0 -6 12l90 103q12 18 37 7zM84 33l5 42q0 9 10 9q4 0 22 -3t48.5 -6t63.5 -3q77 0 104.5 26.5t27.5 85.5q0 51 -29.5 79.5t-106.5 68.5q-60 31 -90.5 54t-48.5 59.5t-18 90.5q0 94 45 133t153 39
q103 0 146 -9q15 -3 14 -18l-5 -53q0 -10 -10 -10q-3 0 -24 2.5t-53 5t-61 2.5q-66 0 -91.5 -21.5t-25.5 -76.5q0 -14 2.5 -25t5 -19.5t11.5 -18t13 -14.5t20 -14.5t23 -13.5t30 -16.5t33 -17.5q92 -51 123.5 -90.5t31.5 -117.5q0 -100 -47 -145.5t-161 -45.5q-96 0 -144 14
q-20 5 -17 27z" />
    <glyph glyph-name="sacute" unicode="&#x15b;" horiz-adv-x="413" 
d="M235 707h71q9 0 11 -4.5t-3 -9.5l-83 -112q-5 -8 -14 -8h-34q-18 0 -10 14l48 112q3 8 14 8zM212 220l-65 33q-51 25 -73.5 52.5t-22.5 86.5q0 67 40.5 95.5t124.5 28.5q88 0 123 -11q15 -4 12 -20l-4 -32q-1 -13 -13 -13q-2 0 -43 4t-67 4q-46 0 -69.5 -12.5
t-23.5 -46.5q0 -32 16.5 -48t60.5 -36l58 -27q56 -27 78.5 -54.5t22.5 -80.5q0 -76 -41 -113.5t-137 -37.5q-71 0 -116 9q-17 4 -15 21l4 38q2 10 10 10l39 -4q39 -4 74 -4q103 0 103 75q0 30 -15 45t-61 38z" />
    <glyph glyph-name="Scedilla" unicode="&#x15e;" horiz-adv-x="514" 
d="M430 681l-5 -53q0 -10 -10 -10q-3 0 -24 2.5t-53 5t-61 2.5q-66 0 -91.5 -21.5t-25.5 -76.5q0 -14 2.5 -25t5 -19.5t11.5 -18t13 -14.5t20 -14.5t23 -13.5t30 -16.5t33 -17.5q92 -51 123.5 -90.5t31.5 -117.5q0 -84 -32 -129t-108 -57l-40 -117q-5 -15 -21 -15h-37
q-14 0 -10 12l32 115q-92 0 -136 14q-20 5 -17 27l5 42q0 9 10 9q4 0 22 -3t48.5 -6t63.5 -3q77 0 104.5 26.5t27.5 85.5q0 51 -29.5 79.5t-106.5 68.5q-60 31 -90.5 54t-48.5 59.5t-18 90.5q0 94 45 133t153 39q103 0 146 -9q15 -3 14 -18z" />
    <glyph glyph-name="scedilla" unicode="&#x15f;" horiz-adv-x="413" 
d="M208 305l58 -27q56 -27 78.5 -54.5t22.5 -80.5q0 -124 -113 -146l-40 -117q-5 -15 -21 -15h-37q-14 0 -10 12l32 115q-64 0 -105 9q-17 4 -15 21l4 38q2 10 10 10l39 -4q39 -4 74 -4q103 0 103 75q0 30 -15 45t-61 38l-65 33q-51 25 -73.5 52.5t-22.5 86.5
q0 67 40.5 95.5t124.5 28.5q88 0 123 -11q15 -4 12 -20l-4 -32q-1 -13 -13 -13q-2 0 -43 4t-67 4q-46 0 -69.5 -12.5t-23.5 -46.5q0 -32 16.5 -48t60.5 -36z" />
    <glyph glyph-name="Scaron" unicode="&#x160;" horiz-adv-x="514" 
d="M276 815l70 38q12 4 15 -7l10 -32q1 -6 -6 -10l-93 -53q-5 -3 -7 -3q-5 0 -8 3l-93 53q-7 4 -6 10l11 32q3 11 14 7l67 -36l4 -2l4 -2t4 -1.5t3 -0.5t4.5 1.5t6.5 2.5zM84 33l5 42q0 9 10 9q4 0 22 -3t48.5 -6t63.5 -3q77 0 104.5 26.5t27.5 85.5q0 51 -29.5 79.5
t-106.5 68.5q-60 31 -90.5 54t-48.5 59.5t-18 90.5q0 94 45 133t153 39q103 0 146 -9q15 -3 14 -18l-5 -53q0 -10 -10 -10q-3 0 -24 2.5t-53 5t-61 2.5q-66 0 -91.5 -21.5t-25.5 -76.5q0 -14 2.5 -25t5 -19.5t11.5 -18t13 -14.5t20 -14.5t23 -13.5t30 -16.5t33 -17.5
q92 -51 123.5 -90.5t31.5 -117.5q0 -100 -47 -145.5t-161 -45.5q-96 0 -144 14q-20 5 -17 27z" />
    <glyph glyph-name="scaron" unicode="&#x161;" horiz-adv-x="413" 
d="M223 647l70 38q12 4 15 -7l10 -32q1 -7 -5 -10l-94 -53q-5 -3 -7 -3q-5 0 -8 3l-93 53q-7 3 -6 10l11 32q3 11 14 7l67 -36l4 -2l4 -2t4 -1.5t3 -0.5t4.5 1.5t6.5 2.5zM212 220l-65 33q-51 25 -73.5 52.5t-22.5 86.5q0 67 40.5 95.5t124.5 28.5q88 0 123 -11
q15 -4 12 -20l-4 -32q-1 -13 -13 -13q-2 0 -43 4t-67 4q-46 0 -69.5 -12.5t-23.5 -46.5q0 -32 16.5 -48t60.5 -36l58 -27q56 -27 78.5 -54.5t22.5 -80.5q0 -76 -41 -113.5t-137 -37.5q-71 0 -116 9q-17 4 -15 21l4 38q2 10 10 10l39 -4q39 -4 74 -4q103 0 103 75
q0 30 -15 45t-61 38z" />
    <glyph glyph-name="Tcedilla" unicode="&#x162;" horiz-adv-x="478" 
d="M39 701h400q12 0 12 -13v-53q0 -12 -12 -12h-151q-7 0 -7 -6v-605q0 -12 -12 -12h-60q-12 0 -12 12v605q0 6 -6 6h-152q-12 0 -12 12v53q0 13 12 13zM213 -44h52q11 0 7 -11l-49 -141q-5 -15 -20 -15h-38q-13 0 -9 12l39 143q4 12 18 12z" />
    <glyph glyph-name="tcedilla" unicode="&#x163;" horiz-adv-x="314" 
d="M281 62l6 -40q1 -14 -15 -20q-30 -10 -67 -10l-38 -112q-5 -15 -21 -15h-37q-14 0 -10 12l34 123q-40 12 -55.5 42t-15.5 85v474q0 11 11 11h45q14 0 16 -16l6 -76q1 -12 14 -12h105q12 0 12 -12v-46q0 -12 -12 -12h-108q-9 0 -9 -8v-298q0 -36 15 -50.5t55 -14.5
q18 0 38 3t22 3q9 0 9 -11z" />
    <glyph glyph-name="Tcaron" unicode="&#x164;" horiz-adv-x="478" 
d="M250 815l70 38q11 4 14 -7l11 -32q1 -5 -6 -10l-94 -53q-5 -3 -7 -3q-4 0 -8 3l-93 53q-6 5 -5 10l10 32q3 11 14 7l67 -36q2 -1 5.5 -2.5t6 -2.5t3.5 -1q2 0 6 2t6 2zM39 701h400q12 0 12 -13v-53q0 -12 -12 -12h-151q-7 0 -7 -6v-605q0 -12 -12 -12h-60q-12 0 -12 12
v605q0 6 -6 6h-152q-12 0 -12 12v53q0 13 12 13z" />
    <glyph glyph-name="tcaron" unicode="&#x165;" horiz-adv-x="314" 
d="M228 802h52q12 0 12 -12v-95q0 -31 -11 -56.5t-41 -68.5q-7 -11 -22 -8l-16 4q-12 2 -10 10q24 64 24 120v94q0 12 12 12zM73 612h45q14 0 16 -16l6 -76q1 -12 14 -12h105q12 0 12 -12v-46q0 -12 -12 -12h-108q-9 0 -9 -8v-298q0 -36 15 -50.5t55 -14.5q18 0 38 3t22 3
q9 0 9 -11l6 -40q1 -14 -15 -20q-31 -10 -70 -10q-81 0 -110.5 31t-29.5 104v474q0 11 11 11z" />
    <glyph glyph-name="Tbar" unicode="&#x166;" horiz-adv-x="478" 
d="M39 701h400q12 0 12 -13v-53q0 -12 -12 -12h-151q-7 0 -7 -6v-151h95q11 0 11 -10v-35q0 -10 -11 -10h-95v-399q0 -12 -12 -12h-60q-12 0 -12 12v399h-96q-9 0 -9 10v35q0 10 9 10h96v151q0 6 -6 6h-152q-12 0 -12 12v53q0 13 12 13z" />
    <glyph glyph-name="tbar" unicode="&#x167;" horiz-adv-x="314" 
d="M281 62l6 -40q1 -14 -15 -20q-31 -10 -70 -10q-81 0 -110.5 31t-29.5 104v474q0 11 11 11h45q14 0 16 -16l6 -76q1 -12 14 -12h105q12 0 12 -12v-46q0 -12 -12 -12h-108q-9 0 -9 -8v-66h116q10 0 10 -11v-29q0 -10 -10 -10h-116v-182q0 -36 15 -50.5t55 -14.5q18 0 38 3
t22 3q9 0 9 -11z" />
    <glyph glyph-name="Umacron" unicode="&#x16a;" horiz-adv-x="602" 
d="M185 844h217q10 0 10 -11v-43q0 -10 -10 -10h-217q-10 0 -10 10v43q0 11 10 11zM433 700h65q10 0 10 -10v-485q0 -116 -41.5 -164t-165.5 -48q-123 0 -165 48t-42 164v485q0 10 10 10h65q10 0 10 -10v-488q0 -78 24 -104.5t98 -26.5q73 0 97.5 26.5t24.5 104.5v488
q0 10 10 10z" />
    <glyph glyph-name="umacron" unicode="&#x16b;" horiz-adv-x="498" 
d="M134 672h217q11 0 11 -11v-43q0 -11 -11 -11h-217q-9 0 -9 11v43q0 11 9 11zM357 508h56q12 0 12 -12v-307q0 -112 -37.5 -154.5t-137.5 -42.5q-101 0 -139 42.5t-38 154.5v307q0 12 12 12h56q12 0 12 -12v-319q0 -66 21 -89t76 -23t75 22.5t20 89.5v319q0 12 12 12z" />
    <glyph glyph-name="Uring" unicode="&#x16e;" horiz-adv-x="602" 
d="M299 895q71 0 71 -74q0 -73 -71 -73q-72 0 -72 73q0 74 72 74zM299 857q-31 0 -31 -36q0 -35 31 -35q30 0 30 35q0 36 -30 36zM433 700h65q10 0 10 -10v-485q0 -116 -41.5 -164t-165.5 -48q-123 0 -165 48t-42 164v485q0 10 10 10h65q10 0 10 -10v-488q0 -78 24 -104.5
t98 -26.5q73 0 97.5 26.5t24.5 104.5v488q0 10 10 10z" />
    <glyph glyph-name="uring" unicode="&#x16f;" horiz-adv-x="498" 
d="M248 701q36 0 54 -17t18 -56q0 -74 -72 -74t-72 74q0 39 18 56t54 17zM248 663q-31 0 -31 -35t31 -35t31 35t-31 35zM357 508h56q12 0 12 -12v-307q0 -112 -37.5 -154.5t-137.5 -42.5q-101 0 -139 42.5t-38 154.5v307q0 12 12 12h56q12 0 12 -12v-319q0 -66 21 -89
t76 -23t75 22.5t20 89.5v319q0 12 12 12z" />
    <glyph glyph-name="Uhungarumlaut" unicode="&#x170;" horiz-adv-x="602" 
d="M256 868h65q14 0 8 -9l-51 -87q-5 -10 -14 -10h-33q-15 0 -12 13l24 84q3 9 13 9zM392 868h69q14 0 5 -11l-79 -88q-6 -7 -13 -7h-37q-17 0 -11 14l52 85q4 7 14 7zM433 700h65q10 0 10 -10v-485q0 -116 -41.5 -164t-165.5 -48q-123 0 -165 48t-42 164v485q0 10 10 10h65
q10 0 10 -10v-488q0 -78 24 -104.5t98 -26.5q73 0 97.5 26.5t24.5 104.5v488q0 10 10 10z" />
    <glyph glyph-name="uhungarumlaut" unicode="&#x171;" horiz-adv-x="498" 
d="M195 707h65q12 0 8 -10l-51 -119q-5 -9 -15 -9h-32q-13 0 -12 12l24 116q1 10 13 10zM331 707h69q14 0 5 -12l-79 -119q-6 -7 -13 -7h-38q-16 0 -10 13l52 117q4 8 14 8zM357 508h56q12 0 12 -12v-307q0 -112 -37.5 -154.5t-137.5 -42.5q-101 0 -139 42.5t-38 154.5v307
q0 12 12 12h56q12 0 12 -12v-319q0 -66 21 -89t76 -23t75 22.5t20 89.5v319q0 12 12 12z" />
    <glyph glyph-name="Uogonek" unicode="&#x172;" horiz-adv-x="602" 
d="M433 700h65q10 0 10 -10v-485q0 -93 -24.5 -140t-91.5 -63q-59 -24 -59 -92q0 -57 38 -57q10 0 21.5 1t14.5 1q8 0 8 -10v-16q0 -11 -12 -18q-22 -12 -59 -12q-42 0 -61.5 21.5t-19.5 70.5q0 65 49 103l-11 -1q-123 0 -165 48t-42 164v485q0 10 10 10h65q10 0 10 -10
v-488q0 -78 24 -104.5t98 -26.5q73 0 97.5 26.5t24.5 104.5v488q0 10 10 10z" />
    <glyph glyph-name="uogonek" unicode="&#x173;" horiz-adv-x="498" 
d="M357 508h56q12 0 12 -12v-307q0 -92 -24 -135.5t-83 -56.5q-67 -24 -67 -94q0 -58 39 -58q9 0 21 1t14 1q9 0 9 -9v-16q0 -12 -13 -19q-20 -11 -58 -11q-43 0 -62.5 21t-19.5 70q0 69 58 109q-94 1 -130 44.5t-36 152.5v307q0 12 12 12h56q12 0 12 -12v-319q0 -66 21 -89
t76 -23t75 22.5t20 89.5v319q0 12 12 12z" />
    <glyph glyph-name="Wcircumflex" unicode="&#x174;" horiz-adv-x="785" 
d="M400 849l93 -53q7 -4 5 -10l-10 -33q-3 -11 -14 -6l-74 39q-8 3 -16 0l-74 -39q-6 -4 -9 -3t-5 9l-11 33q-1 6 6 10l94 53q7 4 15 0zM622 700h68q8 0 8 -9v-453q0 -36 -6 -56t-24 -40l-103 -131q-15 -19 -39 -18.5t-42 21.5l-84 111q-4 5 -10 0l-84 -110
q-17 -21 -41.5 -21.5t-41.5 19.5l-103 129q-18 21 -23.5 40.5t-5.5 55.5v453q0 9 7 9h69q8 0 8 -9v-474q0 -13 11 -26l69 -94q7 -10 16 1l72 96q9 12 9 22v475q0 9 9 9h67q9 0 9 -9v-475q0 -9 11 -23l71 -96q7 -9 16 0l67 94q11 15 11 26v474q0 9 9 9z" />
    <glyph glyph-name="wcircumflex" unicode="&#x175;" horiz-adv-x="704" 
d="M358 694l93 -53q8 -3 5 -10l-10 -33q-3 -11 -14 -7l-74 39q-7 4 -15 0l-74 -39q-7 -3 -10 -2t-5 9l-10 33q-1 6 5 10l94 53q7 4 15 0zM564 508h55q12 0 12 -12v-296q0 -44 -32 -82l-80 -101q-20 -25 -46 -25q-27 0 -48 25l-69 94q-2 2 -4 2q-1 0 -5 -2l-71 -94
q-22 -25 -46 -25q-25 0 -45 25l-80 101q-32 36 -32 82v296q0 12 12 12h56q12 0 12 -12v-293q0 -19 14 -37l55 -82q6 -6 9 -6q5 0 9 6l59 82q13 17 13 37v295q0 10 11 10h59q10 0 10 -10v-295q0 -19 14 -37l56 -82q7 -7 10 -7q5 0 10 7l56 82q13 17 13 37v293q0 12 13 12z
" />
    <glyph glyph-name="Ycircumflex" unicode="&#x176;" horiz-adv-x="541" 
d="M279 849l93 -53q6 -3 5 -10l-11 -33q-2 -11 -14 -6l-73 39q-8 3 -16 0l-74 -39q-6 -4 -9 -3t-5 9l-11 33q-1 6 6 10l94 53q7 4 15 0zM392 700h67q9 0 9 -10v-185q0 -48 -25 -77l-116 -136q-13 -16 -13 -34v-249q0 -9 -9 -9h-65q-9 0 -9 9v249q0 20 -13 34l-121 137
q-24 28 -24 76v185q0 10 10 10h66q9 0 9 -10v-183q0 -20 10 -31l92 -114q13 -15 25 1l88 113q11 14 11 32v182q0 10 8 10z" />
    <glyph glyph-name="ycircumflex" unicode="&#x177;" horiz-adv-x="507" 
d="M262 694l93 -53q7 -3 5 -10l-11 -33q-1 -11 -14 -7l-73 39q-6 4 -16 0l-74 -39q-7 -3 -9.5 -2t-4.5 9l-11 33q-2 6 6 10l93 53q8 4 16 0zM362 508h59q11 0 11 -10v-503q0 -97 -41 -141.5t-144 -44.5q-75 0 -122 14q-16 5 -15 22l5 40q0 10 10 10l41 -6q41 -6 73 -6
q67 0 91 27t24 83v76q0 5 -4 3q-42 -33 -119 -33q-81 0 -118 40t-37 137v282q0 10 11 10h58q11 0 11 -10v-271q0 -67 21.5 -90.5t75.5 -23.5q48 0 73 19.5t25 53.5v312q0 10 11 10z" />
    <glyph glyph-name="Ydieresis" unicode="&#x178;" horiz-adv-x="541" 
d="M176 858h51q11 0 11 -12v-85q0 -11 -11 -11h-51q-11 0 -11 11v85q0 12 11 12zM315 858h51q11 0 11 -12v-85q0 -11 -11 -11h-51q-10 0 -10 11v85q0 12 10 12zM392 700h67q9 0 9 -10v-185q0 -48 -25 -77l-116 -136q-13 -16 -13 -34v-249q0 -9 -9 -9h-65q-9 0 -9 9v249
q0 20 -13 34l-121 137q-24 28 -24 76v185q0 10 10 10h66q9 0 9 -10v-183q0 -20 10 -31l92 -114q13 -15 25 1l88 113q11 14 11 32v182q0 10 8 10z" />
    <glyph glyph-name="Zacute" unicode="&#x179;" horiz-adv-x="500" 
d="M351 867l31 -16q15 -7 3 -19l-92 -77q-12 -10 -34 -10h-30q-16 0 -6 12l90 103q13 17 38 7zM78 700h332q16 0 22.5 -6.5t6.5 -22.5v-41q0 -13 -4 -19l-284 -527q-4 -6 3 -6h273q12 0 12 -12v-54q0 -12 -12 -12h-337q-29 0 -29 29v45q0 13 7 26l276 517q4 6 -4 6h-262
q-12 0 -12 12v53q0 12 12 12z" />
    <glyph glyph-name="zacute" unicode="&#x17a;" horiz-adv-x="425" 
d="M241 707h72q9 0 11 -4.5t-3 -9.5l-83 -112q-5 -8 -15 -8h-33q-18 0 -10 14l48 112q3 8 13 8zM67 508h276q33 0 33 -32v-24q0 -30 -22 -57l-215 -312q-7 -9 3 -9h226q9 0 9 -9v-55q0 -10 -9 -10h-286q-34 0 -34 31v22q0 21 5 33t22 32l209 307q6 9 -4 9h-213q-10 0 -10 10
v55q0 9 10 9z" />
    <glyph glyph-name="Zdotaccent" unicode="&#x17b;" horiz-adv-x="500" 
d="M228 900h51q11 0 11 -11v-104q0 -11 -11 -11h-51q-10 0 -10 11v104q0 11 10 11zM78 700h332q16 0 22.5 -6.5t6.5 -22.5v-41q0 -13 -4 -19l-284 -527q-4 -6 3 -6h273q12 0 12 -12v-54q0 -12 -12 -12h-337q-29 0 -29 29v45q0 13 7 26l276 517q4 6 -4 6h-262q-12 0 -12 12
v53q0 12 12 12z" />
    <glyph glyph-name="zdotaccent" unicode="&#x17c;" horiz-adv-x="425" 
d="M192 707h51q11 0 11 -11v-104q0 -11 -11 -11h-51q-11 0 -11 11v104q0 11 11 11zM67 508h276q33 0 33 -32v-24q0 -30 -22 -57l-215 -312q-7 -9 3 -9h226q9 0 9 -9v-55q0 -10 -9 -10h-286q-34 0 -34 31v22q0 21 5 33t22 32l209 307q6 9 -4 9h-213q-10 0 -10 10v55q0 9 10 9
z" />
    <glyph glyph-name="Zcaron" unicode="&#x17d;" horiz-adv-x="500" 
d="M266 815l70 38q12 4 15 -7l10 -32q1 -5 -5 -10l-94 -53q-5 -3 -7 -3q-5 0 -8 3l-93 53q-6 5 -5 10l10 32q3 11 14 7l67 -36l4 -2l4 -2t4 -1.5t3 -0.5q2 0 5.5 2t5.5 2zM78 700h332q16 0 22.5 -6.5t6.5 -22.5v-41q0 -13 -4 -19l-284 -527q-4 -6 3 -6h273q12 0 12 -12v-54
q0 -12 -12 -12h-337q-29 0 -29 29v45q0 13 7 26l276 517q4 6 -4 6h-262q-12 0 -12 12v53q0 12 12 12z" />
    <glyph glyph-name="zcaron" unicode="&#x17e;" horiz-adv-x="425" 
d="M230 647l70 38q12 4 15 -7l10 -32q1 -7 -6 -10l-93 -53q-5 -3 -7 -3q-5 0 -8 3l-93 53q-7 3 -6 10l11 32q3 11 14 7l67 -36q1 -1 3 -1.5t3.5 -1.5t3 -1.5l3 -1t2.5 -0.5t4.5 1.5t6.5 2.5zM67 508h276q33 0 33 -32v-24q0 -30 -22 -57l-215 -312q-7 -9 3 -9h226q9 0 9 -9
v-55q0 -10 -9 -10h-286q-34 0 -34 31v22q0 21 5 33t22 32l209 307q6 9 -4 9h-213q-10 0 -10 10v55q0 9 10 9z" />
    <glyph glyph-name="florin" unicode="&#x192;" horiz-adv-x="317" 
d="M101 505v35q0 91 30.5 128t107.5 37q45 0 69 -10q16 -5 13 -24l-5 -34q-1 -11 -10 -11q-2 0 -23 2.5t-40 2.5q-36 0 -49 -17.5t-13 -62.5v-46q0 -7 8 -7h105q9 0 9 -8v-54q0 -8 -9 -8h-105q-8 0 -8 -7v-416q0 -90 -30.5 -127t-106.5 -37q-47 0 -69 9q-14 7 -13 25l5 34
q2 11 10 11q2 0 23.5 -3t40.5 -3q35 0 47.5 18t12.5 63v426q0 7 -6 7h-59q-8 0 -8 8v54q0 8 8 8h59q6 0 6 7z" />
    <glyph glyph-name="Oslashacute" unicode="&#x1fe;" horiz-adv-x="601" 
d="M275 745h-30q-16 0 -7 12l91 103q12 18 37 7l32 -16q15 -7 3 -19l-93 -77q-11 -10 -33 -10zM512 786l-50 -133q33 -38 45.5 -109t12.5 -192q0 -104 -8 -166t-31.5 -109t-67.5 -66t-116 -19q-43 0 -68 5l-37 -95q-3 -9 -15 -9h-51q-13 0 -8 11l45 117q-53 33 -71.5 109.5
t-18.5 221.5q0 82 5 136t18.5 99.5t38.5 70t64.5 37.5t97.5 13q66 0 104 -15l37 95q3 8 12 8h55q10 0 7 -10zM297 72q57 0 84.5 22t39 80t11.5 177t-11.5 176.5t-39 79t-84.5 21.5q-58 0 -85.5 -21.5t-39 -79t-11.5 -176.5q0 -120 11.5 -177.5t39 -79.5t85.5 -22z" />
    <glyph glyph-name="oslashacute" unicode="&#x1ff;" horiz-adv-x="472" 
d="M256 708h72q8 0 10 -5t-3 -9l-82 -112q-7 -8 -15 -8h-34q-18 0 -10 14l49 112q3 8 13 8zM320 602h51q11 0 7 -10l-32 -100q43 -22 59 -77t16 -162q0 -146 -37 -203.5t-147 -57.5q-21 0 -37 3l-29 -90q-3 -8 -13 -8h-52q-8 0 -6 8l36 105q-47 22 -65.5 78.5t-18.5 164.5
q0 147 35.5 205t140.5 58q26 0 52 -4l26 79q5 11 14 11zM237 443q-61 0 -82.5 -36.5t-21.5 -151.5q0 -116 21.5 -153t82.5 -37q59 0 80.5 37t21.5 153q0 115 -21 151.5t-81 36.5z" />
    <glyph glyph-name="Scommaaccent" unicode="&#x218;" horiz-adv-x="514" 
d="M84 33l5 42q0 9 10 9q4 0 22 -3t48.5 -6t63.5 -3q77 0 104.5 26.5t27.5 85.5q0 51 -29.5 79.5t-106.5 68.5q-60 31 -90.5 54t-48.5 59.5t-18 90.5q0 94 45 133t153 39q103 0 146 -9q15 -3 14 -18l-5 -53q0 -10 -10 -10q-3 0 -24 2.5t-53 5t-61 2.5q-66 0 -91.5 -21.5
t-25.5 -76.5q0 -14 2.5 -25t5 -19.5t11.5 -18t13 -14.5t20 -14.5t23 -13.5t30 -16.5t33 -17.5q92 -51 123.5 -90.5t31.5 -117.5q0 -100 -47 -145.5t-161 -45.5q-96 0 -144 14q-20 5 -17 27zM252 -29h52q12 0 12 -12v-37q0 -33 -10 -56.5t-38 -65.5q-9 -11 -22 -7l-16 2
q-12 3 -11 11q21 63 21 117v36q0 12 12 12z" />
    <glyph glyph-name="scommaaccent" unicode="&#x219;" horiz-adv-x="413" 
d="M212 220l-65 33q-51 25 -73.5 52.5t-22.5 86.5q0 67 40.5 95.5t124.5 28.5q88 0 123 -11q15 -4 12 -20l-4 -32q-1 -13 -13 -13q-2 0 -43 4t-67 4q-46 0 -69.5 -12.5t-23.5 -46.5q0 -32 16.5 -48t60.5 -36l58 -27q56 -27 78.5 -54.5t22.5 -80.5q0 -76 -41 -113.5
t-137 -37.5q-71 0 -116 9q-17 4 -15 21l4 38q2 10 10 10l39 -4q39 -4 74 -4q103 0 103 75q0 30 -15 45t-61 38zM193 -29h52q12 0 12 -12v-37q0 -33 -10 -56.5t-38 -65.5q-9 -11 -23 -7l-15 2q-12 3 -11 11q21 63 21 117v36q0 12 12 12z" />
    <glyph glyph-name="uni021A" unicode="&#x21a;" horiz-adv-x="478" 
d="M39 701h400q12 0 12 -13v-53q0 -12 -12 -12h-151q-7 0 -7 -6v-605q0 -12 -12 -12h-60q-12 0 -12 12v605q0 6 -6 6h-152q-12 0 -12 12v53q0 13 12 13zM213 -29h52q12 0 12 -12v-37q0 -33 -10 -56.5t-38 -65.5q-8 -11 -22 -7l-16 2q-12 3 -11 11q21 57 21 117v36
q0 12 12 12z" />
    <glyph glyph-name="uni021B" unicode="&#x21b;" horiz-adv-x="314" 
d="M73 612h45q14 0 16 -16l6 -76q1 -12 14 -12h105q12 0 12 -12v-46q0 -12 -12 -12h-108q-9 0 -9 -8v-298q0 -36 15 -50.5t55 -14.5q18 0 38 3t22 3q9 0 9 -11l6 -40q1 -14 -15 -20q-31 -10 -70 -10q-81 0 -110.5 31t-29.5 104v474q0 11 11 11zM146 -29h52q12 0 12 -12v-37
q0 -33 -10 -56.5t-38 -65.5q-9 -11 -23 -7l-15 2q-12 3 -11 11q21 63 21 117v36q0 12 12 12z" />
    <glyph glyph-name="circumflex" unicode="&#x2c6;" horiz-adv-x="336" 
d="M174 687l93 -53q8 -3 6 -10l-11 -33q-1 -11 -14 -7l-74 39q-6 4 -15 0l-74 -39q-7 -3 -10 -2t-5 9l-10 33q-2 6 6 10l93 53q8 4 15 0z" />
    <glyph glyph-name="caron" unicode="&#x2c7;" horiz-adv-x="370" 
d="M196 640l70 38q12 4 15 -7l10 -32q1 -7 -5 -10l-94 -54q-6 -2 -7 -2q-4 0 -8 2l-93 54q-7 3 -6 10l11 32q3 11 14 7l67 -37q2 0 7.5 -2.5t7.5 -2.5q1 0 4.5 1.5t6.5 2.5z" />
    <glyph glyph-name="breve" unicode="&#x2d8;" horiz-adv-x="390" 
d="M268 672h29q11 0 11 -9q-1 -48 -29 -70t-85 -22q-114 0 -114 92q0 9 10 9h29q10 0 11 -10q3 -20 17.5 -29t46.5 -9q57 0 64 38q1 10 10 10z" />
    <glyph glyph-name="dotaccent" unicode="&#x2d9;" horiz-adv-x="217" 
d="M83 700h51q11 0 11 -11v-104q0 -11 -11 -11h-51q-11 0 -11 11v104q0 11 11 11z" />
    <glyph glyph-name="ring" unicode="&#x2da;" horiz-adv-x="277" 
d="M139 695q71 0 71 -74q0 -73 -71 -73q-72 0 -72 73q0 74 72 74zM139 657q-31 0 -31 -36q0 -35 31 -35q30 0 30 35q0 36 -30 36z" />
    <glyph glyph-name="ogonek" unicode="&#x2db;" horiz-adv-x="300" 
d="M190 22l28 -22q-38 -12 -56 -35t-18 -62q0 -58 38 -58q10 0 21.5 1t14.5 1q9 0 9 -9v-16q0 -12 -13 -19q-20 -11 -59 -11q-42 0 -61.5 21t-19.5 70t26.5 81.5t89.5 57.5z" />
    <glyph glyph-name="tilde" unicode="&#x2dc;" horiz-adv-x="357" 
d="M277 690q16 0 21.5 -3t4.5 -11q-5 -36 -22.5 -61.5t-51.5 -25.5q-23 0 -52 18.5t-41 18.5q-20 0 -32 -27q-4 -8 -8.5 -10.5t-18.5 -2.5t-19 2.5t-4 9.5q12 83 70 83q24 0 55 -18t42 -18q22 0 31 31q4 9 7.5 11.5t17.5 2.5z" />
    <glyph glyph-name="hungarumlaut" unicode="&#x2dd;" horiz-adv-x="379" 
d="M117 700h65q12 0 8 -10l-51 -118q-5 -10 -15 -10h-32q-13 0 -12 13l24 116q2 9 13 9zM253 700h69q14 0 5 -11l-79 -120q-6 -7 -13 -7h-38q-16 0 -10 14l52 116q4 8 14 8z" />
    <glyph glyph-name="commaaccentcomb" unicode="&#x326;" horiz-adv-x="0" 
d="M78 -29h52q12 0 12 -12v-37q0 -33 -10 -56.5t-38 -65.5q-9 -11 -22 -7l-16 2q-12 3 -11 11q21 63 21 117v36q0 12 12 12z" />
    <glyph glyph-name="mu" unicode="&#x3bc;" horiz-adv-x="513" 
d="M371 513h58q11 0 11 -10v-268q0 -115 -34.5 -156.5t-128.5 -41.5q-25 0 -46 4.5t-31.5 9t-23 11.5t-14.5 8q-4 0 -4 -6v-227q0 -8 -9 -8h-63q-8 0 -8 8v666q0 10 10 10h62q11 0 11 -10v-285q0 -56 19 -79q26 -28 83 -28t77 25t20 102v265q0 10 11 10z" />
    <glyph glyph-name="Wgrave" unicode="&#x1e80;" horiz-adv-x="785" 
d="M272 859l55 17q14 5 21 -8l72 -101q8 -17 -8 -17h-24q-15 0 -25 10l-94 82q-11 11 3 17zM622 700h68q8 0 8 -9v-453q0 -36 -6 -56t-24 -40l-103 -131q-15 -19 -39 -18.5t-42 21.5l-84 111q-4 5 -10 0l-84 -110q-17 -21 -41.5 -21.5t-41.5 19.5l-103 129
q-18 21 -23.5 40.5t-5.5 55.5v453q0 9 7 9h69q8 0 8 -9v-474q0 -13 11 -26l69 -94q7 -10 16 1l72 96q9 12 9 22v475q0 9 9 9h67q9 0 9 -9v-475q0 -9 11 -23l71 -96q7 -9 16 0l67 94q11 15 11 26v474q0 9 9 9z" />
    <glyph glyph-name="wgrave" unicode="&#x1e81;" horiz-adv-x="704" 
d="M252 707h67q10 0 13 -10l44 -108q6 -16 -9 -16h-23q-14 0 -21 10l-77 113q-4 4 -2.5 7.5t8.5 3.5zM564 508h55q12 0 12 -12v-296q0 -44 -32 -82l-80 -101q-20 -25 -46 -25q-27 0 -48 25l-69 94q-2 2 -4 2q-1 0 -5 -2l-71 -94q-22 -25 -46 -25q-25 0 -45 25l-80 101
q-32 36 -32 82v296q0 12 12 12h56q12 0 12 -12v-293q0 -19 14 -37l55 -82q6 -6 9 -6q5 0 9 6l59 82q13 17 13 37v295q0 10 11 10h59q10 0 10 -10v-295q0 -19 14 -37l56 -82q7 -7 10 -7q5 0 10 7l56 82q13 17 13 37v293q0 12 13 12z" />
    <glyph glyph-name="Wacute" unicode="&#x1e82;" horiz-adv-x="785" 
d="M487 867l32 -16q14 -8 3 -19l-93 -77q-11 -10 -33 -10h-30q-17 0 -7 12l91 103q12 18 37 7zM622 700h68q8 0 8 -9v-453q0 -36 -6 -56t-24 -40l-103 -131q-15 -19 -39 -18.5t-42 21.5l-84 111q-4 5 -10 0l-84 -110q-17 -21 -41.5 -21.5t-41.5 19.5l-103 129
q-18 21 -23.5 40.5t-5.5 55.5v453q0 9 7 9h69q8 0 8 -9v-474q0 -13 11 -26l69 -94q7 -10 16 1l72 96q9 12 9 22v475q0 9 9 9h67q9 0 9 -9v-475q0 -9 11 -23l71 -96q7 -9 16 0l67 94q11 15 11 26v474q0 9 9 9z" />
    <glyph glyph-name="wacute" unicode="&#x1e83;" horiz-adv-x="704" 
d="M376 707h72q8 0 10.5 -4.5t-2.5 -9.5l-83 -112q-7 -8 -15 -8h-34q-8 0 -10.5 4.5t0.5 9.5l49 112q3 8 13 8zM564 508h55q12 0 12 -12v-296q0 -44 -32 -82l-80 -101q-20 -25 -46 -25q-27 0 -48 25l-69 94q-2 2 -4 2q-1 0 -5 -2l-71 -94q-22 -25 -46 -25q-25 0 -45 25
l-80 101q-32 36 -32 82v296q0 12 12 12h56q12 0 12 -12v-293q0 -19 14 -37l55 -82q6 -6 9 -6q5 0 9 6l59 82q13 17 13 37v295q0 10 11 10h59q10 0 10 -10v-295q0 -19 14 -37l56 -82q7 -7 10 -7q5 0 10 7l56 82q13 17 13 37v293q0 12 13 12z" />
    <glyph glyph-name="Wdieresis" unicode="&#x1e84;" horiz-adv-x="785" 
d="M297 858h51q11 0 11 -12v-85q0 -11 -11 -11h-51q-11 0 -11 11v85q0 12 11 12zM436 858h51q11 0 11 -12v-85q0 -11 -11 -11h-51q-10 0 -10 11v85q0 12 10 12zM622 700h68q8 0 8 -9v-453q0 -36 -6 -56t-24 -40l-103 -131q-15 -19 -39 -18.5t-42 21.5l-84 111q-4 5 -10 0
l-84 -110q-17 -21 -41.5 -21.5t-41.5 19.5l-103 129q-18 21 -23.5 40.5t-5.5 55.5v453q0 9 7 9h69q8 0 8 -9v-474q0 -13 11 -26l69 -94q7 -10 16 1l72 96q9 12 9 22v475q0 9 9 9h67q9 0 9 -9v-475q0 -9 11 -23l71 -96q7 -9 16 0l67 94q11 15 11 26v474q0 9 9 9z" />
    <glyph glyph-name="wdieresis" unicode="&#x1e85;" horiz-adv-x="704" 
d="M268 707h46q11 0 11 -11v-104q0 -11 -11 -11h-46q-11 0 -11 11v104q0 11 11 11zM394 707h46q11 0 11 -11v-104q0 -11 -11 -11h-46q-11 0 -11 11v104q0 11 11 11zM564 508h55q12 0 12 -12v-296q0 -44 -32 -82l-80 -101q-20 -25 -46 -25q-27 0 -48 25l-69 94q-2 2 -4 2
q-1 0 -5 -2l-71 -94q-22 -25 -46 -25q-25 0 -45 25l-80 101q-32 36 -32 82v296q0 12 12 12h56q12 0 12 -12v-293q0 -19 14 -37l55 -82q6 -6 9 -6q5 0 9 6l59 82q13 17 13 37v295q0 10 11 10h59q10 0 10 -10v-295q0 -19 14 -37l56 -82q7 -7 10 -7q5 0 10 7l56 82q13 17 13 37
v293q0 12 13 12z" />
    <glyph glyph-name="Ygrave" unicode="&#x1ef2;" horiz-adv-x="541" 
d="M151 859l55 17q14 5 21 -8l72 -101q8 -17 -8 -17h-24q-15 0 -25 10l-94 82q-5 4 -4 9.5t7 7.5zM392 700h67q9 0 9 -10v-185q0 -48 -25 -77l-116 -136q-13 -16 -13 -34v-249q0 -9 -9 -9h-65q-9 0 -9 9v249q0 20 -13 34l-121 137q-24 28 -24 76v185q0 10 10 10h66
q9 0 9 -10v-183q0 -20 10 -31l92 -114q13 -15 25 1l88 113q11 14 11 32v182q0 10 8 10z" />
    <glyph glyph-name="ygrave" unicode="&#x1ef3;" horiz-adv-x="507" 
d="M155 707h67q10 0 14 -10l43 -108q6 -16 -9 -16h-23q-14 0 -21 10l-77 113q-3 4 -1.5 7.5t7.5 3.5zM362 508h59q11 0 11 -10v-503q0 -97 -41 -141.5t-144 -44.5q-75 0 -122 14q-16 5 -15 22l5 40q0 10 10 10l41 -6q41 -6 73 -6q67 0 91 27t24 83v76q0 5 -4 3
q-42 -33 -119 -33q-81 0 -118 40t-37 137v282q0 10 11 10h58q11 0 11 -10v-271q0 -67 21.5 -90.5t75.5 -23.5q48 0 73 19.5t25 53.5v312q0 10 11 10z" />
    <glyph glyph-name="uni2009" unicode="&#x2009;" horiz-adv-x="36" 
 />
    <glyph glyph-name="endash" unicode="&#x2013;" horiz-adv-x="486" 
d="M69 305h346q11 0 11 -9v-49q0 -10 -11 -10h-346q-9 0 -9 10v49q0 9 9 9z" />
    <glyph glyph-name="emdash" unicode="&#x2014;" horiz-adv-x="575" 
d="M69 303h435q11 0 11 -10v-48q0 -10 -11 -10h-435q-9 0 -9 9v49q0 10 9 10z" />
    <glyph glyph-name="quoteleft" unicode="&#x2018;" horiz-adv-x="203" 
d="M118 491h-53q-12 0 -12 12v95q0 31 11.5 57t40.5 68q7 11 22 8l16 -3q12 -3 11 -11q-24 -59 -24 -120v-94q0 -12 -12 -12z" />
    <glyph glyph-name="quoteright" unicode="&#x2019;" horiz-adv-x="203" 
d="M77 700h52q12 0 12 -12v-95q0 -30 -11 -56t-40 -69q-9 -10 -23 -7l-15 3q-13 2 -11 11q24 62 24 119v94q0 12 12 12z" />
    <glyph glyph-name="quotesinglbase" unicode="&#x201a;" horiz-adv-x="203" 
d="M77 136h52q12 0 12 -13v-94q0 -31 -11.5 -57t-40.5 -69q-7 -10 -22 -7l-16 3q-12 3 -10 11q23 61 23 120v93q0 13 13 13z" />
    <glyph glyph-name="quotedblleft" unicode="&#x201c;" horiz-adv-x="325" 
d="M136 731l16 -3q12 -3 11 -11q-24 -59 -24 -120v-94q0 -12 -12 -12h-53q-12 0 -12 12v95q0 31 11.5 57t40.5 68q7 11 22 8zM258 731l16 -3q12 -3 10 -11q-23 -61 -23 -120v-94q0 -12 -13 -12h-52q-12 0 -12 12v95q0 31 11.5 57t40.5 68q7 11 22 8z" />
    <glyph glyph-name="quotedblright" unicode="&#x201d;" horiz-adv-x="325" 
d="M88 700h52q13 0 13 -12v-95q0 -30 -11.5 -56t-40.5 -69q-8 -11 -22 -7l-16 3q-12 2 -11 11q24 62 24 119v94q0 12 12 12zM210 700h52q12 0 12 -12v-95q0 -30 -11 -56t-40 -69q-8 -11 -22 -7l-16 3q-12 2 -11 11q24 62 24 119v94q0 12 12 12z" />
    <glyph glyph-name="quotedblbase" unicode="&#x201e;" horiz-adv-x="325" 
d="M77 100h52q12 0 12 -12v-95q0 -30 -11.5 -56t-40.5 -69q-8 -11 -22 -7l-16 3q-12 2 -10 11q23 59 23 119v94q0 12 13 12zM198 100h52q13 0 13 -12v-95q0 -30 -11.5 -56t-40.5 -69q-8 -11 -22 -7l-16 3q-12 2 -11 11q24 57 24 119v94q0 12 12 12z" />
    <glyph glyph-name="dagger" unicode="&#x2020;" horiz-adv-x="355" 
d="M153 700h50q9 0 9 -8v-184q0 -8 9 -8h85q11 0 11 -9v-37q0 -9 -11 -9h-85q-9 0 -9 -9v-428q0 -8 -9 -8h-50q-9 0 -9 8v428q0 9 -8 9h-88q-9 0 -9 8v38q0 9 9 9h88q8 0 8 8v184q0 8 9 8z" />
    <glyph glyph-name="daggerdbl" unicode="&#x2021;" horiz-adv-x="355" 
d="M153 700h50q9 0 9 -8v-156q0 -8 9 -8h85q11 0 11 -9v-37q0 -9 -11 -9h-85q-9 0 -9 -9v-86q0 -7 9 -7h85q11 0 11 -10v-35q0 -11 -11 -11h-85q-9 0 -9 -7v-300q0 -8 -9 -8h-50q-9 0 -9 8v299q0 8 -8 8h-88q-9 0 -9 10v36q0 10 9 10h88q8 0 8 7v86q0 9 -8 9h-88q-9 0 -9 8
v38q0 9 9 9h88q8 0 8 8v156q0 8 9 8z" />
    <glyph glyph-name="bullet" unicode="&#x2022;" horiz-adv-x="319" 
d="M106 399h107q16 0 16 -15v-116q0 -15 -16 -15h-107q-16 0 -16 15v116q0 15 16 15z" />
    <glyph glyph-name="ellipsis" unicode="&#x2026;" horiz-adv-x="586" 
d="M83 160h58q11 0 11 -11v-138q0 -11 -11 -11h-58q-11 0 -11 11v138q0 11 11 11zM264 160h58q11 0 11 -11v-138q0 -11 -11 -11h-58q-11 0 -11 11v138q0 11 11 11zM445 160h57q12 0 12 -11v-138q0 -11 -12 -11h-57q-11 0 -11 11v138q0 11 11 11z" />
    <glyph glyph-name="perthousand" unicode="&#x2030;" horiz-adv-x="984" 
d="M197 707q63 0 87.5 -34t24.5 -116q0 -80 -25.5 -115t-86.5 -35q-62 0 -87 35t-25 115q0 81 25 115.5t87 34.5zM522 700h33q14 0 8 -10l-376 -681q-6 -9 -17 -9h-33q-12 0 -6 12l374 677q5 11 17 11zM197 648q-28 0 -39.5 -18.5t-11.5 -72.5t11.5 -73t39.5 -19q29 0 40 19
t11 73q0 55 -11 73t-40 18zM504 294q62 0 87 -34t25 -115t-25 -115.5t-87 -34.5t-87.5 35t-25.5 115q0 81 25.5 115t87.5 34zM787 294q63 0 87.5 -34t24.5 -115t-25 -115.5t-87 -34.5q-61 0 -86.5 35t-25.5 115q0 81 25 115t87 34zM504 236q-29 0 -40 -18.5t-11 -72.5
q0 -55 11 -73.5t40 -18.5t40 18.5t11 73.5q0 54 -11 72.5t-40 18.5zM787 236q-28 0 -39 -18.5t-11 -72.5q0 -55 11 -73.5t39 -18.5q29 0 40 18.5t11 73.5q0 54 -11 72.5t-40 18.5z" />
    <glyph glyph-name="guilsinglleft" unicode="&#x2039;" horiz-adv-x="301" 
d="M202 438l32 -31q6 -6 1 -12l-105 -123q-6 -6 0 -11l104 -123q6 -6 0 -11l-32 -32q-6 -5 -12 1l-122 142q-25 28 -1 56l123 144q5 7 12 0z" />
    <glyph glyph-name="guilsinglright" unicode="&#x203a;" horiz-adv-x="301" 
d="M112 438l122 -144q25 -28 0 -56l-122 -142q-6 -6 -12 -1l-32 32q-6 5 0 11l104 123q6 5 0 11l-105 123q-5 6 1 12l32 31q7 7 12 0z" />
    <glyph glyph-name="fraction" unicode="&#x2044;" horiz-adv-x="140" 
d="M171 725h21q11 0 8 -11l-217 -732q-3 -10 -14 -10h-21q-10 0 -9 9l219 733q3 11 13 11z" />
    <glyph glyph-name="Euro" unicode="&#x20ac;" horiz-adv-x="559" 
d="M484 68l4 -35q3 -20 -16 -27q-37 -14 -130 -14q-116 -1 -167 56.5t-61 196.5h-63q-9 0 -9 8v38q0 9 9 9h60l-1 52q0 33 1 49h-60q-9 0 -9 9v37q0 9 9 9h62q10 141 61.5 197t168.5 56q86 0 128 -10q15 -4 14 -20l-4 -48q-2 -9 -10 -9q-1 0 -42 4.5t-70 4.5q-80 1 -114 -33
t-43 -142h277q9 0 9 -9l-5 -36q-2 -10 -13 -10h-271l-1 -49q0 -36 1 -52h259q4 0 7 -2.5t2 -6.5l-6 -37q0 -9 -12 -9h-247q8 -108 41.5 -142.5t114.5 -34.5q38 0 76.5 5t39.5 5q8 0 10 -10z" />
    <glyph glyph-name="trademark" unicode="&#x2122;" horiz-adv-x="827" 
d="M91 701h253q9 0 9 -9v-42q0 -9 -9 -9h-91q-5 0 -5 -5v-320q0 -10 -10 -10h-42q-10 0 -12 11v321q0 4 -6 4h-87q-9 0 -9 9v41q0 9 9 9zM696 700h21q9 0 9 -8v-377q0 -9 -9 -9h-46q-9 0 -9 9v238q0 3 -2 3.5t-3 -1.5l-67 -92q-15 -16 -29 0l-66 91q-5 5 -5 -2v-237
q0 -9 -10 -9h-45q-9 0 -9 9v377q0 8 9 8h23q12 0 17 -6l98 -142q2 -7 8 0l100 142q5 6 15 6z" />
    <glyph glyph-name="oneeighth" unicode="&#x215b;" horiz-adv-x="729" 
d="M452 725h21q11 0 8 -11l-218 -732q-3 -10 -13 -10h-22q-11 0 -8 9l219 733q2 11 13 11zM60 654v24q0 13 8 17q17 9 54 9q72 0 72 -55v-327q0 -7 -8 -7h-43q-7 0 -7 7v301q0 16 -6.5 22.5t-24.5 6.5q-10 0 -23.5 -2t-14.5 -2q-7 0 -7 6zM524 205l-28 29q-35 38 -35 75
q0 83 113 83q112 0 112 -81q0 -43 -36 -77l-29 -29q-3 -3 0 -4l29 -30q44 -38 44 -84q0 -43 -27.5 -65t-93.5 -22q-65 0 -92 22t-27 64q0 45 41 84l29 31q3 3 0 4zM578 227l29 28q23 21 23 45q0 21 -12 31.5t-44 10.5q-57 1 -57 -43q0 -24 22 -43l31 -29q3 -3 8 0zM607 146
l-31 32q-2 3 -7 0l-31 -33q-27 -27 -27 -51q0 -22 13.5 -32.5t49.5 -10.5q35 0 49 10.5t14 32.5t-30 52z" />
    <glyph glyph-name="threeeighths" unicode="&#x215c;" horiz-adv-x="761" 
d="M484 725h21q11 0 8 -11l-218 -732q-3 -10 -13 -10h-22q-11 0 -8 9l218 733q3 11 14 11zM48 656l-5 27q-1 9 8 14q17 10 82 10q69 0 96 -24.5t27 -76.5q0 -66 -47 -83q-8 -4 0 -4q61 -12 61 -89q0 -58 -29.5 -88.5t-102.5 -30.5q-58 0 -83 10q-11 5 -8 17l4 25q2 7 8 7
q2 0 13 -1.5t28.5 -3t33.5 -1.5q43 0 60.5 16.5t17.5 52.5q0 32 -13.5 45.5t-50.5 13.5h-48q-11 0 -11 11v29q0 11 11 11h39q34 0 46.5 13t12.5 42q0 30 -16.5 44t-54.5 14q-23 0 -47 -4l-25 -3q-7 0 -7 7zM556 205l-28 29q-35 38 -35 75q0 83 113 83q112 0 112 -81
q0 -43 -36 -77l-29 -29q-3 -3 0 -4l29 -30q44 -38 44 -84q0 -43 -27.5 -65t-93.5 -22t-92.5 22t-26.5 64q0 45 41 84l29 31q3 3 0 4zM610 227l29 28q23 21 23 45q0 21 -12 31.5t-44 10.5q-57 1 -57 -43q0 -24 22 -43l31 -29q3 -3 8 0zM639 146l-31 32q-2 3 -7 0l-31 -33
q-27 -27 -27 -51q0 -22 13.5 -32.5t49.5 -10.5q35 0 49 10.5t14 32.5t-30 52z" />
    <glyph glyph-name="fiveeighths" unicode="&#x215d;" horiz-adv-x="759" 
d="M482 725h21q11 0 8 -11l-218 -732q-2 -10 -13 -10h-22q-10 0 -8 9l219 733q2 11 13 11zM77 700h168q6 0 6 -6v-38q0 -6 -6 -6h-138q-5 0 -5 -5v-97q28 6 59 6q51 0 77 -25.5t26 -89.5q0 -66 -30.5 -97t-95.5 -31q-47 0 -81 9q-12 3 -10 15l5 29q0 6 6 6q1 0 24 -3.5
t44 -3.5q43 0 61.5 16.5t18.5 57.5t-15.5 55t-50.5 14q-22 0 -45 -4t-25 -4q-4 0 -9 3l-9 7q-5 2 -5 10v154q0 28 30 28zM554 205l-28 29q-35 38 -35 75q0 83 113 83q112 0 112 -81q0 -43 -36 -77l-29 -29q-3 -3 0 -4l29 -30q44 -38 44 -84q0 -43 -27.5 -65t-93.5 -22
q-65 0 -92 22t-27 64q0 45 41 84l29 31q3 3 0 4zM608 227l29 28q23 21 23 45q0 21 -12 31.5t-44 10.5q-57 1 -57 -43q0 -24 22 -43l31 -29q3 -3 8 0zM637 146l-31 32q-2 3 -7 0l-31 -33q-27 -27 -27 -51q0 -22 13.5 -32.5t49.5 -10.5q35 0 49 10.5t14 32.5t-30 52z" />
    <glyph glyph-name="seveneighths" unicode="&#x215e;" horiz-adv-x="741" 
d="M464 725h21q10 0 7 -11l-217 -732q-3 -10 -13 -10h-22q-11 0 -8 9l218 733q3 11 14 11zM53 700h158q39 0 39 -36v-84q0 -58 -27 -101l-102 -164q-3 -7 -11 -2l-33 15q-10 5 -5 13l99 165q22 38 22 75v58q0 7 -7 7h-133q-11 0 -11 11v32q0 11 11 11zM536 205l-28 29
q-35 38 -35 75q0 83 113 83q112 0 112 -81q0 -41 -36 -77l-29 -29q-3 -3 0 -4l29 -30q44 -38 44 -84q0 -43 -28 -65t-93 -22q-66 0 -93 22t-27 64q0 44 42 84l29 31q3 3 0 4zM590 227l28 28q23 20 23 45q0 21 -11.5 31.5t-43.5 10.5q-58 1 -58 -43q0 -23 23 -43l31 -29
q3 -3 8 0zM619 146l-31 32q-2 3 -7 0l-31 -33q-28 -28 -28 -51q0 -22 14 -32.5t50 -10.5q35 0 49 10.5t14 32.5t-30 52z" />
    <glyph glyph-name="minus" unicode="&#x2212;" horiz-adv-x="511" 
d="M93 360h324q11 0 11 -9v-48q0 -10 -11 -10h-324q-10 0 -10 9v49q0 9 10 9z" />
    <glyph glyph-name="A.ss01" horiz-adv-x="582" 
d="M353 664l192 -652q5 -12 -9 -12h-66q-9 0 -12 10l-46 165h-240l-46 -165q-3 -10 -12 -10h-69q-12 0 -9 12l195 652q7 21 19 28.5t37 7.5h13q42 0 53 -36zM391 249l-95 343q-1 4 -5 4t-5 -4l-94 -343h199z" />
    <glyph glyph-name="Aacute.ss01" horiz-adv-x="582" 
d="M295 745h-29q-17 0 -7 12l90 103q14 18 38 7l31 -16q15 -7 3 -19l-92 -77q-12 -10 -34 -10zM353 664l192 -652q5 -12 -9 -12h-66q-9 0 -12 10l-46 165h-240l-46 -165q-3 -10 -12 -10h-69q-12 0 -9 12l195 652q7 21 19 28.5t37 7.5h13q42 0 53 -36zM391 249l-95 343
q-1 4 -5 4t-5 -4l-94 -343h199z" />
    <glyph glyph-name="Abreve.ss01" horiz-adv-x="582" 
d="M367 862h28q11 0 11 -10q-1 -91 -114 -91t-113 91q0 10 10 10h28q10 0 11 -11q4 -20 18 -28.5t46 -8.5t46 8.5t18 28.5q1 11 11 11zM353 664l192 -652q5 -12 -9 -12h-66q-9 0 -12 10l-46 165h-240l-46 -165q-3 -10 -12 -10h-69q-12 0 -9 12l195 652q7 21 19 28.5t37 7.5
h13q42 0 53 -36zM391 249l-95 343q-1 4 -5 4t-5 -4l-94 -343h199z" />
    <glyph glyph-name="Acircumflex.ss01" horiz-adv-x="582" 
d="M195 753l-10 33q-1 6 6 10l93 53q8 5 15 0l93 -53q7 -3 6 -10l-11 -33q-2 -11 -14 -6l-74 39q-7 3 -15 0l-74 -39q-5 -2 -7.5 -2.5t-4.5 1.5t-3 7zM353 664l192 -652q5 -12 -9 -12h-66q-9 0 -12 10l-46 165h-240l-46 -165q-3 -10 -12 -10h-69q-12 0 -9 12l195 652
q7 21 19 28.5t37 7.5h13q42 0 53 -36zM391 249l-95 343q-1 4 -5 4t-5 -4l-94 -343h199z" />
    <glyph glyph-name="Adieresis.ss01" horiz-adv-x="582" 
d="M248 750h-52q-10 0 -10 11v85q0 12 10 12h52q10 0 10 -12v-85q0 -11 -10 -11zM387 750h-51q-11 0 -11 11v85q0 12 11 12h51q11 0 11 -12v-85q0 -11 -11 -11zM353 664l192 -652q5 -12 -9 -12h-66q-9 0 -12 10l-46 165h-240l-46 -165q-3 -10 -12 -10h-69q-12 0 -9 12
l195 652q7 21 19 28.5t37 7.5h13q42 0 53 -36zM391 249l-95 343q-1 4 -5 4t-5 -4l-94 -343h199z" />
    <glyph glyph-name="Agrave.ss01" horiz-adv-x="582" 
d="M262 760l-94 82q-11 11 4 17l54 17q15 4 22 -8l71 -101q9 -17 -7 -17h-25q-14 0 -25 10zM353 664l192 -652q5 -12 -9 -12h-66q-9 0 -12 10l-46 165h-240l-46 -165q-3 -10 -12 -10h-69q-12 0 -9 12l195 652q7 21 19 28.5t37 7.5h13q42 0 53 -36zM391 249l-95 343
q-1 4 -5 4t-5 -4l-94 -343h199z" />
    <glyph glyph-name="Amacron.ss01" horiz-adv-x="582" 
d="M395 780h-217q-9 0 -9 10v43q0 11 9 11h217q11 0 11 -11v-43q0 -10 -11 -10zM353 664l192 -652q5 -12 -9 -12h-66q-9 0 -12 10l-46 165h-240l-46 -165q-3 -10 -12 -10h-69q-12 0 -9 12l195 652q7 21 19 28.5t37 7.5h13q42 0 53 -36zM391 249l-95 343q-1 4 -5 4t-5 -4
l-94 -343h199z" />
    <glyph glyph-name="Aogonek.ss01" horiz-adv-x="582" 
d="M537 0q-38 -12 -56 -35t-18 -62q0 -58 39 -58q9 0 21 1t14 1q9 0 9 -9v-16q0 -12 -13 -19q-20 -11 -58 -11q-43 0 -62.5 21t-19.5 70q0 76 72 118q-5 1 -7 9l-46 165h-240l-46 -165q-3 -10 -12 -10h-69q-12 0 -9 12l195 652q7 21 19 28.5t37 7.5h13q42 0 53 -36l192 -652
q3 -10 -8 -12zM391 249l-95 343q-1 4 -5 4t-5 -4l-94 -343h199z" />
    <glyph glyph-name="Aring.ss01" horiz-adv-x="582" 
d="M292 748q-72 0 -72 73q0 74 72 74t72 -74q0 -73 -72 -73zM292 857q-31 0 -31 -36q0 -35 31 -35t31 35q0 36 -31 36zM353 664l192 -652q5 -12 -9 -12h-66q-9 0 -12 10l-46 165h-240l-46 -165q-3 -10 -12 -10h-69q-12 0 -9 12l195 652q7 21 19 28.5t37 7.5h13q42 0 53 -36z
M391 249l-95 343q-1 4 -5 4t-5 -4l-94 -343h199z" />
    <glyph glyph-name="Atilde.ss01" horiz-adv-x="582" 
d="M188 753q-13 0 -18 3t-4 10q12 83 70 83q24 0 55 -18.5t42 -18.5q22 0 31 31q3 9 7 11.5t18 2.5q16 0 21 -2.5t5 -10.5q-5 -36 -22.5 -62t-51.5 -26q-23 0 -52 19t-41 19t-18.5 -5.5t-13.5 -22.5q-4 -8 -8.5 -10.5t-19.5 -2.5zM353 664l192 -652q5 -12 -9 -12h-66
q-9 0 -12 10l-46 165h-240l-46 -165q-3 -10 -12 -10h-69q-12 0 -9 12l195 652q7 21 19 28.5t37 7.5h13q42 0 53 -36zM391 249l-95 343q-1 4 -5 4t-5 -4l-94 -343h199z" />
    <glyph glyph-name="V.ss01" horiz-adv-x="575" 
d="M462 700h68q13 0 10 -12l-193 -660q-6 -20 -19.5 -28t-39.5 -8q-30 0 -43 7.5t-20 28.5l-189 660q-4 12 9 12h66q9 0 12 -10l159 -586q1 -4 5 -4t5 4l158 586q3 10 12 10z" />
    <glyph glyph-name="W.ss01" horiz-adv-x="784" 
d="M676 700h63q13 0 10 -13l-134 -656q-8 -38 -46 -38h-27q-37 0 -47 38l-102 490q-1 3 -2 3t-3 -3l-99 -490q-9 -38 -46 -38h-27q-38 0 -46 37l-135 657q-3 13 11 13h63q10 0 13 -11l106 -577q2 -3 3 -3q3 0 5 3l119 574q3 14 18 14h41q14 0 17 -14l122 -574q0 -3 3 -3
q4 0 4 4l103 575q1 12 13 12z" />
    <glyph glyph-name="Wacute.ss01" horiz-adv-x="784" 
d="M486 866l32 -15q15 -7 3 -19l-92 -77q-12 -10 -34 -10h-30q-16 0 -6 12l90 103q14 18 37 6zM676 700h63q13 0 10 -13l-134 -656q-8 -38 -46 -38h-27q-37 0 -47 38l-102 490q-1 3 -2 3t-3 -3l-99 -490q-9 -38 -46 -38h-27q-38 0 -46 37l-135 657q-3 13 11 13h63
q10 0 13 -11l106 -577q2 -3 3 -3q3 0 5 3l119 574q3 14 18 14h41q14 0 17 -14l122 -574q0 -3 3 -3q4 0 4 4l103 575q1 12 13 12z" />
    <glyph glyph-name="Wcircumflex.ss01" horiz-adv-x="784" 
d="M399 849l93 -53q8 -4 5 -10l-10 -33q-3 -11 -14 -6l-74 39q-8 3 -16 0l-73 -39q-5 -2 -7.5 -2.5t-4.5 1.5t-3 7l-10 33q-1 7 5 10l94 53q8 5 15 0zM676 700h63q13 0 10 -13l-134 -656q-8 -38 -46 -38h-27q-37 0 -47 38l-102 490q-1 3 -2 3t-3 -3l-99 -490q-9 -38 -46 -38
h-27q-38 0 -46 37l-135 657q-3 13 11 13h63q10 0 13 -11l106 -577q2 -3 3 -3q3 0 5 3l119 574q3 14 18 14h41q14 0 17 -14l122 -574q0 -3 3 -3q4 0 4 4l103 575q1 12 13 12z" />
    <glyph glyph-name="Wdieresis.ss01" horiz-adv-x="784" 
d="M296 857h51q11 0 11 -11v-85q0 -11 -11 -11h-51q-10 0 -10 11v85q0 11 10 11zM436 857h51q10 0 10 -11v-85q0 -11 -10 -11h-51q-11 0 -11 11v85q0 11 11 11zM676 700h63q13 0 10 -13l-134 -656q-8 -38 -46 -38h-27q-37 0 -47 38l-102 490q-1 3 -2 3t-3 -3l-99 -490
q-9 -38 -46 -38h-27q-38 0 -46 37l-135 657q-3 13 11 13h63q10 0 13 -11l106 -577q2 -3 3 -3q3 0 5 3l119 574q3 14 18 14h41q14 0 17 -14l122 -574q0 -3 3 -3q4 0 4 4l103 575q1 12 13 12z" />
    <glyph glyph-name="Wgrave.ss01" horiz-adv-x="784" 
d="M272 858l54 18q14 4 21 -8l72 -101q9 -17 -8 -17h-24q-14 0 -25 10l-94 81q-11 13 4 17zM676 700h63q13 0 10 -13l-134 -656q-8 -38 -46 -38h-27q-37 0 -47 38l-102 490q-1 3 -2 3t-3 -3l-99 -490q-9 -38 -46 -38h-27q-38 0 -46 37l-135 657q-3 13 11 13h63q10 0 13 -11
l106 -577q2 -3 3 -3q3 0 5 3l119 574q3 14 18 14h41q14 0 17 -14l122 -574q0 -3 3 -3q4 0 4 4l103 575q1 12 13 12z" />
    <glyph glyph-name="Y.ss01" horiz-adv-x="541" 
d="M439 700h60q19 0 10 -17l-187 -386q-7 -14 -7 -30v-258q0 -9 -9 -9h-67q-9 0 -9 9v257q0 17 -7 32l-190 384q-4 8 -0.5 13t12.5 5h55q16 0 23 -14l146 -313q5 -11 9 0l143 314q6 13 18 13z" />
    <glyph glyph-name="Yacute.ss01" horiz-adv-x="541" 
d="M366 867l32 -16q14 -8 3 -19l-93 -77q-12 -10 -33 -10h-30q-17 0 -7 12l90 103q14 18 38 7zM439 700h60q19 0 10 -17l-187 -386q-7 -14 -7 -30v-258q0 -9 -9 -9h-67q-9 0 -9 9v257q0 17 -7 32l-190 384q-4 8 -0.5 13t12.5 5h55q16 0 23 -14l146 -313q5 -11 9 0l143 314
q6 13 18 13z" />
    <glyph glyph-name="Ycircumflex.ss01" horiz-adv-x="541" 
d="M279 849l93 -53q6 -3 5 -10l-11 -33q-2 -11 -14 -6l-73 39q-8 3 -16 0l-74 -39q-6 -4 -9 -3t-5 9l-11 33q-1 6 6 10l94 53q7 4 15 0zM439 700h60q19 0 10 -17l-187 -386q-7 -14 -7 -30v-258q0 -9 -9 -9h-67q-9 0 -9 9v257q0 17 -7 32l-190 384q-4 8 -0.5 13t12.5 5h55
q16 0 23 -14l146 -313q5 -11 9 0l143 314q6 13 18 13z" />
    <glyph glyph-name="Ydieresis.ss01" horiz-adv-x="541" 
d="M176 858h51q11 0 11 -12v-85q0 -11 -11 -11h-51q-11 0 -11 11v85q0 12 11 12zM315 858h51q11 0 11 -12v-85q0 -11 -11 -11h-51q-10 0 -10 11v85q0 12 10 12zM439 700h60q19 0 10 -17l-187 -386q-7 -14 -7 -30v-258q0 -9 -9 -9h-67q-9 0 -9 9v257q0 17 -7 32l-190 384
q-4 8 -0.5 13t12.5 5h55q16 0 23 -14l146 -313q5 -11 9 0l143 314q6 13 18 13z" />
    <glyph glyph-name="Ygrave.ss01" horiz-adv-x="541" 
d="M151 859l55 17q14 5 21 -8l72 -101q8 -17 -8 -17h-24q-15 0 -25 10l-94 82q-5 4 -4 9.5t7 7.5zM439 700h60q19 0 10 -17l-187 -386q-7 -14 -7 -30v-258q0 -9 -9 -9h-67q-9 0 -9 9v257q0 17 -7 32l-190 384q-4 8 -0.5 13t12.5 5h55q16 0 23 -14l146 -313q5 -11 9 0
l143 314q6 13 18 13z" />
    <glyph glyph-name="a.sc.ss01" horiz-adv-x="469" 
d="M293 509l147 -498q3 -11 -9 -11h-62q-7 0 -11 9l-32 117h-180l-32 -117q-2 -9 -11 -9h-65q-12 0 -9 11l150 498q6 18 17.5 25t34.5 7h12q41 0 50 -32zM306 196l-67 242q-1 3 -4 3t-3 -3l-67 -242h141z" />
    <glyph glyph-name="aacute.sc.ss01" horiz-adv-x="469" 
d="M241 615h-33q-18 0 -11 14l49 112q3 8 13 8h72q9 0 11 -5t-3 -10l-83 -112q-6 -7 -15 -7zM293 509l147 -498q3 -11 -9 -11h-62q-7 0 -11 9l-32 117h-180l-32 -117q-2 -9 -11 -9h-65q-12 0 -9 11l150 498q6 18 17.5 25t34.5 7h12q41 0 50 -32zM306 196l-67 242q-1 3 -4 3
t-3 -3l-67 -242h141z" />
    <glyph glyph-name="abreve.sc.ss01" horiz-adv-x="469" 
d="M312 721h29q10 0 10 -9q-1 -92 -114 -92t-113 92q0 9 10 9h29q9 0 10 -10q7 -38 64 -38q32 0 46.5 9t17.5 29q1 10 11 10zM293 509l147 -498q3 -11 -9 -11h-62q-7 0 -11 9l-32 117h-180l-32 -117q-2 -9 -11 -9h-65q-12 0 -9 11l150 498q6 18 17.5 25t34.5 7h12
q41 0 50 -32zM306 196l-67 242q-1 3 -4 3t-3 -3l-67 -242h141z" />
    <glyph glyph-name="acircumflex.sc.ss01" horiz-adv-x="469" 
d="M137 640l-10 33q-1 5 6 9l93 54q8 4 15 0l93 -54q8 -3 6 -9l-11 -33q-1 -11 -14 -7l-74 39q-6 4 -15 0l-74 -39q-7 -3 -10 -2t-5 9zM293 509l147 -498q3 -11 -9 -11h-62q-7 0 -11 9l-32 117h-180l-32 -117q-2 -9 -11 -9h-65q-12 0 -9 11l150 498q6 18 17.5 25t34.5 7h12
q41 0 50 -32zM306 196l-67 242q-1 3 -4 3t-3 -3l-67 -242h141z" />
    <glyph glyph-name="adieresis.sc.ss01" horiz-adv-x="469" 
d="M197 623h-46q-11 0 -11 11v104q0 11 11 11h46q11 0 11 -11v-104q0 -11 -11 -11zM323 623h-46q-11 0 -11 11v104q0 11 11 11h46q11 0 11 -11v-104q0 -11 -11 -11zM293 509l147 -498q3 -11 -9 -11h-62q-7 0 -11 9l-32 117h-180l-32 -117q-2 -9 -11 -9h-65q-12 0 -9 11
l150 498q6 18 17.5 25t34.5 7h12q41 0 50 -32zM306 196l-67 242q-1 3 -4 3t-3 -3l-67 -242h141z" />
    <glyph glyph-name="agrave.sc.ss01" horiz-adv-x="469" 
d="M206 625l-77 112q-3 5 -1.5 8.5t7.5 3.5h67q10 0 13 -10l44 -108q6 -16 -9 -16h-23q-14 0 -21 10zM293 509l147 -498q3 -11 -9 -11h-62q-7 0 -11 9l-32 117h-180l-32 -117q-2 -9 -11 -9h-65q-12 0 -9 11l150 498q6 18 17.5 25t34.5 7h12q41 0 50 -32zM306 196l-67 242
q-1 3 -4 3t-3 -3l-67 -242h141z" />
    <glyph glyph-name="amacron.sc.ss01" horiz-adv-x="469" 
d="M341 650h-218q-9 0 -9 10v43q0 11 9 11h218q10 0 10 -11v-43q0 -10 -10 -10zM293 509l147 -498q3 -11 -9 -11h-62q-7 0 -11 9l-32 117h-180l-32 -117q-2 -9 -11 -9h-65q-12 0 -9 11l150 498q6 18 17.5 25t34.5 7h12q41 0 50 -32zM306 196l-67 242q-1 3 -4 3t-3 -3
l-67 -242h141z" />
    <glyph glyph-name="aogonek.sc.ss01" horiz-adv-x="469" 
d="M293 509l147 -498q3 -11 -8 -11q-74 -24 -74 -97q0 -58 39 -58q9 0 21 1.5t14 1.5q9 0 9 -10v-16q0 -12 -13 -19q-20 -11 -58 -11q-43 0 -62.5 21.5t-19.5 70.5q0 76 74 118q-2 2 -4 7l-32 117h-180l-32 -117q-2 -9 -11 -9h-65q-12 0 -9 11l150 498q6 18 17.5 25t34.5 7
h12q41 0 50 -32zM306 196l-67 242q-1 3 -4 3t-3 -3l-67 -242h141z" />
    <glyph glyph-name="aring.sc.ss01" horiz-adv-x="469" 
d="M237 596q-71 0 -71 74t71 74q72 0 72 -74t-72 -74zM237 706q-30 0 -30 -36q0 -35 30 -35q31 0 31 35q0 36 -31 36zM293 509l147 -498q3 -11 -9 -11h-62q-7 0 -11 9l-32 117h-180l-32 -117q-2 -9 -11 -9h-65q-12 0 -9 11l150 498q6 18 17.5 25t34.5 7h12q41 0 50 -32z
M306 196l-67 242q-1 3 -4 3t-3 -3l-67 -242h141z" />
    <glyph glyph-name="atilde.sc.ss01" horiz-adv-x="469" 
d="M132 635q-13 0 -18 2.5t-4 9.5q12 83 70 83q24 0 55 -18.5t42 -18.5q22 0 31 32q3 9 7 11.5t18 2.5q16 0 21 -3t5 -11q-5 -36 -22.5 -61.5t-51.5 -25.5q-23 0 -52 18.5t-41 18.5q-20 0 -32 -27q-4 -8 -8.5 -10.5t-19.5 -2.5zM293 509l147 -498q3 -11 -9 -11h-62
q-7 0 -11 9l-32 117h-180l-32 -117q-2 -9 -11 -9h-65q-12 0 -9 11l150 498q6 18 17.5 25t34.5 7h12q41 0 50 -32zM306 196l-67 242q-1 3 -4 3t-3 -3l-67 -242h141z" />
    <glyph glyph-name="v.sc.ss01" horiz-adv-x="469" 
d="M368 541h62q6 0 9 -4t1 -9l-146 -499q-10 -36 -61 -36q-52 0 -61 36l-143 499q-3 13 10 13h64q10 0 12 -11l113 -440q0 -3 4 -3t5 3l118 440q2 11 13 11z" />
    <glyph glyph-name="w.sc.ss01" horiz-adv-x="650" 
d="M552 542h59q13 0 10 -12l-106 -502q-8 -33 -41 -33h-28q-35 0 -42 33l-78 358l-2 2q-2 0 -2 -2l-76 -358q-8 -33 -41 -33h-27q-36 0 -42 33l-106 502q-2 12 10 12h60q10 0 11 -10l81 -437q0 -3 2 -3q3 0 3 3l91 422q4 16 9 20.5t22 4.5h13q18 0 23.5 -4.5t9.5 -20.5
l92 -422q0 -3 3 -3q2 0 3 3l76 437q3 10 13 10z" />
    <glyph glyph-name="wacute.sc.ss01" horiz-adv-x="650" 
d="M346 742h72q9 0 11 -5t-3 -9l-83 -112q-6 -7 -15 -7h-33q-17 0 -10 14l48 111q3 8 13 8zM552 542h59q13 0 10 -12l-106 -502q-8 -33 -41 -33h-28q-35 0 -42 33l-78 358l-2 2q-2 0 -2 -2l-76 -358q-8 -33 -41 -33h-27q-36 0 -42 33l-106 502q-2 12 10 12h60q10 0 11 -10
l81 -437q0 -3 2 -3q3 0 3 3l91 422q4 16 9 20.5t22 4.5h13q18 0 23.5 -4.5t9.5 -20.5l92 -422q0 -3 3 -3q2 0 3 3l76 437q3 10 13 10z" />
    <glyph glyph-name="wcircumflex.sc.ss01" horiz-adv-x="650" 
d="M329 729l93 -53q6 -3 5 -10l-11 -33q-2 -11 -14 -6l-73 39q-8 3 -16 0l-74 -39q-6 -4 -9 -3t-5 9l-11 33q-1 6 6 10l93 53q8 4 16 0zM552 542h59q13 0 10 -12l-106 -502q-8 -33 -41 -33h-28q-35 0 -42 33l-78 358l-2 2q-2 0 -2 -2l-76 -358q-8 -33 -41 -33h-27
q-36 0 -42 33l-106 502q-2 12 10 12h60q10 0 11 -10l81 -437q0 -3 2 -3q3 0 3 3l91 422q4 16 9 20.5t22 4.5h13q18 0 23.5 -4.5t9.5 -20.5l92 -422q0 -3 3 -3q2 0 3 3l76 437q3 10 13 10z" />
    <glyph glyph-name="wdieresis.sc.ss01" horiz-adv-x="650" 
d="M238 742h46q11 0 11 -11v-103q0 -12 -11 -12h-46q-11 0 -11 12v103q0 11 11 11zM364 742h47q10 0 10 -11v-103q0 -12 -10 -12h-47q-10 0 -10 12v103q0 11 10 11zM552 542h59q13 0 10 -12l-106 -502q-8 -33 -41 -33h-28q-35 0 -42 33l-78 358l-2 2q-2 0 -2 -2l-76 -358
q-8 -33 -41 -33h-27q-36 0 -42 33l-106 502q-2 12 10 12h60q10 0 11 -10l81 -437q0 -3 2 -3q3 0 3 3l91 422q4 16 9 20.5t22 4.5h13q18 0 23.5 -4.5t9.5 -20.5l92 -422q0 -3 3 -3q2 0 3 3l76 437q3 10 13 10z" />
    <glyph glyph-name="wgrave.sc.ss01" horiz-adv-x="650" 
d="M222 742h67q10 0 14 -10l44 -107q4 -16 -10 -16h-23q-14 0 -21 9l-77 113q-7 11 6 11zM552 542h59q13 0 10 -12l-106 -502q-8 -33 -41 -33h-28q-35 0 -42 33l-78 358l-2 2q-2 0 -2 -2l-76 -358q-8 -33 -41 -33h-27q-36 0 -42 33l-106 502q-2 12 10 12h60q10 0 11 -10
l81 -437q0 -3 2 -3q3 0 3 3l91 422q4 16 9 20.5t22 4.5h13q18 0 23.5 -4.5t9.5 -20.5l92 -422q0 -3 3 -3q2 0 3 3l76 437q3 10 13 10z" />
    <glyph glyph-name="y.sc.ss01" horiz-adv-x="444" 
d="M354 541h48q26 0 14 -25l-142 -287q-9 -18 -9 -42v-175q0 -12 -12 -12h-58q-12 0 -12 12v175q0 26 -9 42l-146 287q-12 25 16 25h45q17 0 24 -15l110 -229q1 -2 3 -2t3 2l101 228q7 16 24 16z" />
    <glyph glyph-name="yacute.sc.ss01" horiz-adv-x="444" 
d="M242 725h72q8 0 10 -4.5t-3 -9.5l-82 -112q-7 -8 -15 -8h-34q-17 0 -10 14l49 112q3 8 13 8zM354 541h48q26 0 14 -25l-142 -287q-9 -18 -9 -42v-175q0 -12 -12 -12h-58q-12 0 -12 12v175q0 26 -9 42l-146 287q-12 25 16 25h45q17 0 24 -15l110 -229q1 -2 3 -2t3 2
l101 228q7 16 24 16z" />
    <glyph glyph-name="ycircumflex.sc.ss01" horiz-adv-x="444" 
d="M224 712l93 -53q8 -4 5 -10l-10 -33q-3 -11 -14 -7l-74 39q-6 4 -16 0l-74 -39q-6 -3 -9 -2t-5 9l-11 33q-2 6 6 10l94 53q7 4 15 0zM354 541h48q26 0 14 -25l-142 -287q-9 -18 -9 -42v-175q0 -12 -12 -12h-58q-12 0 -12 12v175q0 26 -9 42l-146 287q-12 25 16 25h45
q17 0 24 -15l110 -229q1 -2 3 -2t3 2l101 228q7 16 24 16z" />
    <glyph glyph-name="ydieresis.sc.ss01" horiz-adv-x="444" 
d="M133 725h47q10 0 10 -11v-104q0 -11 -10 -11h-47q-10 0 -10 11v104q0 11 10 11zM260 725h46q11 0 11 -11v-104q0 -11 -11 -11h-46q-11 0 -11 11v104q0 11 11 11zM354 541h48q26 0 14 -25l-142 -287q-9 -18 -9 -42v-175q0 -12 -12 -12h-58q-12 0 -12 12v175q0 26 -9 42
l-146 287q-12 25 16 25h45q17 0 24 -15l110 -229q1 -2 3 -2t3 2l101 228q7 16 24 16z" />
    <glyph glyph-name="ygrave.sc.ss01" horiz-adv-x="444" 
d="M117 725h67q11 0 14 -10l44 -108q5 -16 -9 -16h-24q-14 0 -21 10l-76 112q-4 5 -2.5 8.5t7.5 3.5zM354 541h48q26 0 14 -25l-142 -287q-9 -18 -9 -42v-175q0 -12 -12 -12h-58q-12 0 -12 12v175q0 26 -9 42l-146 287q-12 25 16 25h45q17 0 24 -15l110 -229q1 -2 3 -2t3 2
l101 228q7 16 24 16z" />
    <glyph glyph-name="v.ss01" horiz-adv-x="461" 
d="M357 508h60q15 0 10 -13l-144 -471q-9 -31 -41 -31h-25q-34 0 -44 31l-140 471q-3 13 11 13h61q9 0 12 -10l106 -402q1 -3 5 -3t5 3l111 402q3 10 13 10z" />
    <glyph glyph-name="w.ss01" horiz-adv-x="640" 
d="M540 508h58q12 0 9 -11l-104 -470q-8 -32 -40 -32h-26q-34 0 -41 32l-76 335q0 2 -1 2q-2 0 -2 -2l-73 -335q-8 -32 -41 -32h-25q-33 0 -41 32l-104 470q-3 11 9 11h59q9 0 11 -9l78 -406q0 -3 3 -3q1 0 3 3l91 405q3 11 14 11h40q12 0 14 -11l93 -405q2 -3 3 -3q2 0 2 3
l75 405q1 10 12 10z" />
    <glyph glyph-name="wacute.ss01" horiz-adv-x="640" 
d="M343 708h72q9 0 11 -5t-3 -9l-83 -112q-5 -8 -15 -8h-33q-18 0 -11 15l49 111q3 8 13 8zM540 508h58q12 0 9 -11l-104 -470q-8 -32 -40 -32h-26q-34 0 -41 32l-76 335q0 2 -1 2q-2 0 -2 -2l-73 -335q-8 -32 -41 -32h-25q-33 0 -41 32l-104 470q-3 11 9 11h59q9 0 11 -9
l78 -406q0 -3 3 -3q1 0 3 3l91 405q3 11 14 11h40q12 0 14 -11l93 -405q2 -3 3 -3q2 0 2 3l75 405q1 10 12 10z" />
    <glyph glyph-name="wcircumflex.ss01" horiz-adv-x="640" 
d="M325 695l94 -53q7 -3 5 -10l-11 -33q-1 -11 -14 -7l-74 40q-7 3 -15 0l-74 -40q-7 -3 -10 -2t-4 9l-11 33q-2 6 6 10l93 53q8 4 15 0zM540 508h58q12 0 9 -11l-104 -470q-8 -32 -40 -32h-26q-34 0 -41 32l-76 335q0 2 -1 2q-2 0 -2 -2l-73 -335q-8 -32 -41 -32h-25
q-33 0 -41 32l-104 470q-3 11 9 11h59q9 0 11 -9l78 -406q0 -3 3 -3q1 0 3 3l91 405q3 11 14 11h40q12 0 14 -11l93 -405q2 -3 3 -3q2 0 2 3l75 405q1 10 12 10z" />
    <glyph glyph-name="wdieresis.ss01" horiz-adv-x="640" 
d="M235 708h46q11 0 11 -11v-104q0 -11 -11 -11h-46q-11 0 -11 11v104q0 11 11 11zM361 708h46q11 0 11 -11v-104q0 -11 -11 -11h-46q-11 0 -11 11v104q0 11 11 11zM540 508h58q12 0 9 -11l-104 -470q-8 -32 -40 -32h-26q-34 0 -41 32l-76 335q0 2 -1 2q-2 0 -2 -2l-73 -335
q-8 -32 -41 -32h-25q-33 0 -41 32l-104 470q-3 11 9 11h59q9 0 11 -9l78 -406q0 -3 3 -3q1 0 3 3l91 405q3 11 14 11h40q12 0 14 -11l93 -405q2 -3 3 -3q2 0 2 3l75 405q1 10 12 10z" />
    <glyph glyph-name="wgrave.ss01" horiz-adv-x="640" 
d="M219 708h67q10 0 13 -10l44 -107q6 -17 -9 -17h-23q-14 0 -21 10l-77 113q-3 4 -1.5 7.5t7.5 3.5zM540 508h58q12 0 9 -11l-104 -470q-8 -32 -40 -32h-26q-34 0 -41 32l-76 335q0 2 -1 2q-2 0 -2 -2l-73 -335q-8 -32 -41 -32h-25q-33 0 -41 32l-104 470q-3 11 9 11h59
q9 0 11 -9l78 -406q0 -3 3 -3q1 0 3 3l91 405q3 11 14 11h40q12 0 14 -11l93 -405q2 -3 3 -3q2 0 2 3l75 405q1 10 12 10z" />
    <glyph glyph-name="a.sc" horiz-adv-x="480" 
d="M101 418l96 110q21 22 43 22q23 0 42 -23l95 -106q18 -21 23.5 -35t5.5 -39v-335q0 -12 -13 -12h-56q-12 0 -12 12v138q0 8 -8 8h-154q-8 0 -8 -8v-138q0 -12 -12 -12h-56q-13 0 -13 12v335q0 43 27 71zM315 378l-67 79q-9 11 -18 0l-65 -79q-10 -11 -10 -25v-120
q0 -7 8 -7h154q8 0 8 7v120q0 14 -10 25z" />
    <glyph glyph-name="aacute.sc" horiz-adv-x="480" 
d="M262 725h72q9 0 11 -4.5t-3 -9.5l-83 -112q-5 -8 -15 -8h-33q-17 0 -10 14l48 112q3 8 13 8zM101 418l96 110q21 22 43 22q23 0 42 -23l95 -106q18 -21 23.5 -35t5.5 -39v-335q0 -12 -13 -12h-56q-12 0 -12 12v138q0 8 -8 8h-154q-8 0 -8 -8v-138q0 -12 -12 -12h-56
q-13 0 -13 12v335q0 43 27 71zM315 378l-67 79q-9 11 -18 0l-65 -79q-10 -11 -10 -25v-120q0 -7 8 -7h154q8 0 8 7v120q0 14 -10 25z" />
    <glyph glyph-name="acircumflex.sc" horiz-adv-x="480" 
d="M245 712l93 -53q7 -3 5 -10l-11 -33q-1 -11 -14 -7l-73 39q-6 4 -16 0l-74 -39q-6 -3 -9 -2t-5 9l-11 33q-2 6 6 10l93 53q8 4 16 0zM101 418l96 110q21 22 43 22q23 0 42 -23l95 -106q18 -21 23.5 -35t5.5 -39v-335q0 -12 -13 -12h-56q-12 0 -12 12v138q0 8 -8 8h-154
q-8 0 -8 -8v-138q0 -12 -12 -12h-56q-13 0 -13 12v335q0 43 27 71zM315 378l-67 79q-9 11 -18 0l-65 -79q-10 -11 -10 -25v-120q0 -7 8 -7h154q8 0 8 7v120q0 14 -10 25z" />
    <glyph glyph-name="adieresis.sc" horiz-adv-x="480" 
d="M154 725h46q11 0 11 -11v-104q0 -11 -11 -11h-46q-11 0 -11 11v104q0 11 11 11zM280 725h47q10 0 10 -11v-104q0 -11 -10 -11h-47q-11 0 -11 11v104q0 11 11 11zM101 418l96 110q21 22 43 22q23 0 42 -23l95 -106q18 -21 23.5 -35t5.5 -39v-335q0 -12 -13 -12h-56
q-12 0 -12 12v138q0 8 -8 8h-154q-8 0 -8 -8v-138q0 -12 -12 -12h-56q-13 0 -13 12v335q0 43 27 71zM315 378l-67 79q-9 11 -18 0l-65 -79q-10 -11 -10 -25v-120q0 -7 8 -7h154q8 0 8 7v120q0 14 -10 25z" />
    <glyph glyph-name="agrave.sc" horiz-adv-x="480" 
d="M138 725h67q10 0 14 -10l44 -108q5 -16 -10 -16h-23q-14 0 -21 10l-77 112q-3 5 -1.5 8.5t7.5 3.5zM101 418l96 110q21 22 43 22q23 0 42 -23l95 -106q18 -21 23.5 -35t5.5 -39v-335q0 -12 -13 -12h-56q-12 0 -12 12v138q0 8 -8 8h-154q-8 0 -8 -8v-138q0 -12 -12 -12
h-56q-13 0 -13 12v335q0 43 27 71zM315 378l-67 79q-9 11 -18 0l-65 -79q-10 -11 -10 -25v-120q0 -7 8 -7h154q8 0 8 7v120q0 14 -10 25z" />
    <glyph glyph-name="aring.sc" horiz-adv-x="480" 
d="M240 720q72 0 72 -74q0 -73 -72 -73q-71 0 -71 73q0 74 71 74zM240 682q-30 0 -30 -36q0 -35 30 -35q31 0 31 35q0 36 -31 36zM101 418l96 110q21 22 43 22q23 0 42 -23l95 -106q18 -21 23.5 -35t5.5 -39v-335q0 -12 -13 -12h-56q-12 0 -12 12v138q0 8 -8 8h-154
q-8 0 -8 -8v-138q0 -12 -12 -12h-56q-13 0 -13 12v335q0 43 27 71zM315 378l-67 79q-9 11 -18 0l-65 -79q-10 -11 -10 -25v-120q0 -7 8 -7h154q8 0 8 7v120q0 14 -10 25z" />
    <glyph glyph-name="atilde.sc" horiz-adv-x="480" 
d="M337 715q15 0 20.5 -3t4.5 -11q-5 -36 -22.5 -61.5t-51.5 -25.5q-23 0 -52 18.5t-41 18.5q-20 0 -32 -27q-4 -8 -8.5 -10.5t-18.5 -2.5t-19 2.5t-4 9.5q12 83 70 83q24 0 55 -18t42 -18q22 0 31 31q4 9 8 11.5t18 2.5zM101 418l96 110q21 22 43 22q23 0 42 -23l95 -106
q18 -21 23.5 -35t5.5 -39v-335q0 -12 -13 -12h-56q-12 0 -12 12v138q0 8 -8 8h-154q-8 0 -8 -8v-138q0 -12 -12 -12h-56q-13 0 -13 12v335q0 43 27 71zM315 378l-67 79q-9 11 -18 0l-65 -79q-10 -11 -10 -25v-120q0 -7 8 -7h154q8 0 8 7v120q0 14 -10 25z" />
    <glyph glyph-name="ae.sc" horiz-adv-x="606" 
d="M247 541h293q14 0 14 -14v-43q0 -13 -14 -13h-164q-20 0 -20 -16v-135q0 -8 8 -8h148q14 0 14 -14v-43q0 -14 -14 -14h-148q-8 0 -8 -8v-97q0 -41 12.5 -53.5t53.5 -12.5h118q14 0 14 -13v-43q0 -14 -14 -14h-155q-58 0 -83 21.5t-25 77.5v36q0 6 -8 6h-105q-9 0 -9 -9
v-118q0 -14 -13 -14h-54q-14 0 -14 14v334q0 39 28 68l90 102q22 23 55 23zM272 461h-23q-6 0 -11 -5l-72 -83q-11 -11 -11 -27v-129q0 -9 9 -9h103q9 0 9 9v239q0 5 -4 5z" />
    <glyph glyph-name="b.sc" horiz-adv-x="471" 
d="M74 44v351q0 78 39 116.5t122 38.5q157 0 157 -137q0 -99 -72 -123q-6 -4 1 -4q91 -20 91 -135q0 -151 -173 -151h-118q-22 0 -34.5 13t-12.5 31zM159 307h59q51 0 74.5 20.5t23.5 69.5q0 44 -19 63.5t-63 19.5q-47 0 -65.5 -17.5t-18.5 -61.5v-86q0 -8 9 -8zM235 247
h-76q-9 0 -9 -7v-161q0 -8 9 -8h75q52 0 75 20t23 67q0 49 -22 69t-75 20z" />
    <glyph glyph-name="c.sc" horiz-adv-x="421" 
d="M378 59l4 -33q1 -20 -19 -25q-31 -9 -108 -9q-112 0 -153 59t-41 218q0 158 42.5 219t153.5 61q55 0 104 -9q16 -3 15 -22l-4 -37q0 -13 -13 -11q-1 0 -35 3.5t-60 3.5q-67 0 -93 -42t-26 -166t24.5 -164.5t96.5 -40.5q24 0 46 1.5t36 3t17 1.5q13 0 13 -11z" />
    <glyph glyph-name="ccaron.sc" horiz-adv-x="421" 
d="M256 665l70 38q12 4 15 -7l10 -32q1 -7 -6 -10l-93 -54q-6 -2 -7 -2q-4 0 -8 2l-93 54q-7 3 -6 10l11 32q3 11 14 7l67 -37q2 0 7.5 -2.5t7.5 -2.5q1 0 4.5 1.5t6.5 2.5zM378 59l4 -33q1 -20 -19 -25q-31 -9 -108 -9q-112 0 -153 59t-41 218q0 158 42.5 219t153.5 61
q55 0 104 -9q16 -3 15 -22l-4 -37q0 -13 -13 -11q-1 0 -35 3.5t-60 3.5q-67 0 -93 -42t-26 -166t24.5 -164.5t96.5 -40.5q24 0 46 1.5t36 3t17 1.5q13 0 13 -11z" />
    <glyph glyph-name="ccedilla.sc" horiz-adv-x="421" 
d="M378 59l4 -33q1 -20 -19 -25q-24 -7 -72 -8l-39 -113q-5 -15 -21 -15h-37q-14 0 -10 12l33 116q-89 9 -122.5 69.5t-33.5 206.5q0 158 42.5 219t153.5 61q55 0 104 -9q16 -3 15 -22l-4 -37q0 -13 -13 -11q-1 0 -35 3.5t-60 3.5q-67 0 -93 -42t-26 -166t24.5 -164.5
t96.5 -40.5q24 0 46 1.5t36 3t17 1.5q13 0 13 -11z" />
    <glyph glyph-name="d.sc" horiz-adv-x="493" 
d="M120 541h118q50 0 84 -11.5t60 -40.5t38 -82t12 -134q0 -108 -23 -168.5t-63.5 -82.5t-107.5 -22h-118q-46 0 -46 45v451q0 45 46 45zM235 467h-69q-10 0 -10 -9v-374q0 -10 10 -10h69q64 0 89 40.5t25 158.5q0 115 -25 154.5t-89 39.5z" />
    <glyph glyph-name="eth.sc" horiz-adv-x="495" 
d="M119 541h119q50 0 83.5 -11.5t59.5 -40.5t38 -82t12 -134q1 -157 -45.5 -215t-147.5 -58h-119q-45 0 -45 45v192q-1 5 -7 5h-49q-9 0 -9 9v49q0 10 9 10h49q7 0 7 7v179q0 45 45 45zM235 467h-70q-10 0 -10 -9v-142q0 -6 9 -6h68q10 0 10 -10v-48q0 -10 -10 -10h-68
q-9 0 -9 -8v-150q0 -10 10 -10h70q64 0 88.5 40.5t24.5 158.5q0 115 -25 154.5t-88 39.5z" />
    <glyph glyph-name="e.sc" horiz-adv-x="420" 
d="M220 541h137q12 0 12 -13v-49q0 -13 -12 -13h-128q-48 0 -61 -12.5t-13 -57.5v-79q0 -9 8 -9h171q12 0 12 -12v-43q0 -12 -12 -12h-171q-8 0 -8 -9v-87q0 -46 12.5 -58.5t56.5 -12.5h133q12 0 12 -13v-49q0 -12 -12 -12h-141q-78 0 -110 30t-32 104v272q0 76 32 105.5
t114 29.5z" />
    <glyph glyph-name="eacute.sc" horiz-adv-x="420" 
d="M268 725h72q9 0 11 -4.5t-3 -9.5l-83 -112q-5 -8 -15 -8h-33q-17 0 -10 14l48 112q3 8 13 8zM220 541h137q12 0 12 -13v-49q0 -13 -12 -13h-128q-48 0 -61 -12.5t-13 -57.5v-79q0 -9 8 -9h171q12 0 12 -12v-43q0 -12 -12 -12h-171q-8 0 -8 -9v-87q0 -46 12.5 -58.5
t56.5 -12.5h133q12 0 12 -13v-49q0 -12 -12 -12h-141q-78 0 -110 30t-32 104v272q0 76 32 105.5t114 29.5z" />
    <glyph glyph-name="ecircumflex.sc" horiz-adv-x="420" 
d="M251 712l93 -53q7 -3 5 -10l-11 -33q-1 -11 -14 -7l-73 39q-6 4 -16 0l-74 -39q-6 -3 -9 -2t-5 9l-11 33q-2 6 6 10l93 53q8 4 16 0zM220 541h137q12 0 12 -13v-49q0 -13 -12 -13h-128q-48 0 -61 -12.5t-13 -57.5v-79q0 -9 8 -9h171q12 0 12 -12v-43q0 -12 -12 -12h-171
q-8 0 -8 -9v-87q0 -46 12.5 -58.5t56.5 -12.5h133q12 0 12 -13v-49q0 -12 -12 -12h-141q-78 0 -110 30t-32 104v272q0 76 32 105.5t114 29.5z" />
    <glyph glyph-name="edieresis.sc" horiz-adv-x="420" 
d="M160 725h46q11 0 11 -11v-104q0 -11 -11 -11h-46q-11 0 -11 11v104q0 11 11 11zM286 725h46q11 0 11 -11v-104q0 -11 -11 -11h-46q-11 0 -11 11v104q0 11 11 11zM220 541h137q12 0 12 -13v-49q0 -13 -12 -13h-128q-48 0 -61 -12.5t-13 -57.5v-79q0 -9 8 -9h171
q12 0 12 -12v-43q0 -12 -12 -12h-171q-8 0 -8 -9v-87q0 -46 12.5 -58.5t56.5 -12.5h133q12 0 12 -13v-49q0 -12 -12 -12h-141q-78 0 -110 30t-32 104v272q0 76 32 105.5t114 29.5z" />
    <glyph glyph-name="egrave.sc" horiz-adv-x="420" 
d="M144 725h67q10 0 14 -10l43 -108q6 -16 -9 -16h-23q-14 0 -21 10l-77 112q-3 5 -1.5 8.5t7.5 3.5zM220 541h137q12 0 12 -13v-49q0 -13 -12 -13h-128q-48 0 -61 -12.5t-13 -57.5v-79q0 -9 8 -9h171q12 0 12 -12v-43q0 -12 -12 -12h-171q-8 0 -8 -9v-87q0 -46 12.5 -58.5
t56.5 -12.5h133q12 0 12 -13v-49q0 -12 -12 -12h-141q-78 0 -110 30t-32 104v272q0 76 32 105.5t114 29.5z" />
    <glyph glyph-name="eogonek.sc" horiz-adv-x="420" 
d="M369 61v-49q0 -11 -10 -12q-72 -24 -72 -96q0 -58 39 -58q9 0 21 1t14 1q9 0 9 -9v-16q0 -13 -13 -19q-20 -11 -58 -11q-43 0 -62.5 21t-19.5 70q0 75 69 116h-70q-78 0 -110 30t-32 104v272q0 76 32 105.5t114 29.5h137q12 0 12 -13v-49q0 -13 -12 -13h-128
q-48 0 -61 -12.5t-13 -57.5v-79q0 -9 8 -9h171q12 0 12 -12v-43q0 -12 -12 -12h-171q-8 0 -8 -9v-87q0 -46 12.5 -58.5t56.5 -12.5h133q12 0 12 -13z" />
    <glyph glyph-name="f.sc" horiz-adv-x="399" 
d="M212 541h130q13 0 13 -13v-49q0 -13 -13 -13h-116q-45 0 -59 -14t-14 -60v-84q0 -9 8 -9h164q12 0 12 -12v-49q0 -12 -12 -12h-164q-8 0 -8 -9v-205q0 -12 -13 -12h-57q-12 0 -12 12v389q0 83 29.5 111.5t111.5 28.5z" />
    <glyph glyph-name="g.sc" horiz-adv-x="466" 
d="M414 269v-127q0 -150 -166 -150q-108 0 -147.5 65t-39.5 221q0 154 42 213t151 59q72 0 116 -11q21 -6 18 -25l-4 -29q-3 -18 -15 -18q-3 0 -42 5t-68 5q-67 0 -90.5 -38t-23.5 -158q0 -90 11.5 -137t32 -61.5t58.5 -14.5q50 0 67.5 20t17.5 69v82q0 8 -8 8h-79
q-12 0 -12 12v44q0 12 12 12h123q25 0 35.5 -11t10.5 -35z" />
    <glyph glyph-name="h.sc" horiz-adv-x="504" 
d="M361 541h56q12 0 12 -12v-517q0 -12 -12 -12h-56q-12 0 -12 12v213q0 9 -9 9h-177q-8 0 -8 -9v-213q0 -12 -12 -12h-56q-13 0 -13 12v517q0 12 13 12h56q12 0 12 -12v-215q0 -8 8 -8h177q9 0 9 8v215q0 12 12 12z" />
    <glyph glyph-name="i.sc" horiz-adv-x="231" 
d="M87 541h57q12 0 12 -13v-516q0 -12 -12 -12h-57q-13 0 -13 12v516q0 13 13 13z" />
    <glyph glyph-name="iacute.sc" horiz-adv-x="231" 
d="M139 725h72q8 0 10 -4.5t-3 -9.5l-82 -112q-7 -8 -15 -8h-34q-17 0 -10 14l49 112q3 8 13 8zM87 541h57q12 0 12 -13v-516q0 -12 -12 -12h-57q-13 0 -13 12v516q0 13 13 13z" />
    <glyph glyph-name="icircumflex.sc" horiz-adv-x="231" 
d="M121 712l93 -53q8 -4 5 -10l-10 -33q-3 -11 -14 -7l-74 39q-6 4 -16 0l-73 -39q-7 -3 -10 -2t-5 9l-10 33q-2 7 5 10l94 53q8 4 15 0zM87 541h57q12 0 12 -13v-516q0 -12 -12 -12h-57q-13 0 -13 12v516q0 13 13 13z" />
    <glyph glyph-name="idieresis.sc" horiz-adv-x="231" 
d="M30 725h47q11 0 11 -11v-104q0 -11 -11 -11h-47q-10 0 -10 11v104q0 11 10 11zM157 725h46q11 0 11 -11v-104q0 -11 -11 -11h-46q-11 0 -11 11v104q0 11 11 11zM87 541h57q12 0 12 -13v-516q0 -12 -12 -12h-57q-13 0 -13 12v516q0 13 13 13z" />
    <glyph glyph-name="igrave.sc" horiz-adv-x="231" 
d="M14 725h67q11 0 14 -10l44 -108q5 -16 -9 -16h-24q-14 0 -20 10l-77 112q-4 5 -2.5 8.5t7.5 3.5zM87 541h57q12 0 12 -13v-516q0 -12 -12 -12h-57q-13 0 -13 12v516q0 13 13 13z" />
    <glyph glyph-name="ij.sc" horiz-adv-x="574" 
d="M432 541h56q12 0 12 -13v-398q0 -75 -28.5 -106.5t-96.5 -31.5q-59 0 -95 9q-17 5 -16 25l5 39q0 10 10 10q2 0 13 -2t29 -4t36 -2q36 0 49 16t13 65v380q0 13 13 13zM87 541h57q12 0 12 -13v-516q0 -12 -12 -12h-57q-13 0 -13 12v516q0 13 13 13z" />
    <glyph glyph-name="iogonek.sc" horiz-adv-x="231" 
d="M156 528v-516q0 -11 -10 -12q-38 -12 -56 -35t-18 -62q0 -58 39 -58q9 0 21 1.5t14 1.5q9 0 9 -10v-16q0 -13 -13 -18q-20 -12 -58 -12q-43 0 -62.5 21.5t-19.5 70.5q0 77 76 119q-4 4 -4 9v516q0 13 13 13h57q12 0 12 -13z" />
    <glyph glyph-name="j.sc" horiz-adv-x="343" 
d="M201 541h56q12 0 12 -13v-398q0 -75 -28.5 -106.5t-96.5 -31.5q-59 0 -95 9q-17 5 -16 25l5 39q1 10 10 10q2 0 13.5 -2t29 -4t35.5 -2q36 0 49.5 16t13.5 65v380q0 13 12 13z" />
    <glyph glyph-name="k.sc" horiz-adv-x="458" 
d="M331 541h65q16 0 8 -15l-137 -235q-5 -8 -1 -15l145 -259q9 -17 -9 -17h-61q-17 0 -22 10l-119 226q-2 5 -11 5h-28q-6 0 -6 -5v-224q0 -12 -12 -12h-56q-13 0 -13 12v516q0 13 13 13h56q12 0 12 -13v-200q0 -5 6 -5h30q7 0 11 7l111 201q5 10 18 10z" />
    <glyph glyph-name="l.sc" horiz-adv-x="396" 
d="M87 541h57q12 0 12 -12v-385q0 -45 11.5 -57.5t49.5 -12.5h139q13 0 13 -13v-49q0 -12 -13 -12h-149q-77 0 -105 31.5t-28 102.5v395q0 12 13 12z" />
    <glyph glyph-name="lacute.sc" horiz-adv-x="396" 
d="M145 725h72q8 0 10.5 -4.5t-2.5 -9.5l-83 -112q-7 -8 -15 -8h-34q-17 0 -10 14l49 112q3 8 13 8zM87 541h57q12 0 12 -12v-385q0 -45 11.5 -57.5t49.5 -12.5h139q13 0 13 -13v-49q0 -12 -13 -12h-149q-77 0 -105 31.5t-28 102.5v395q0 12 13 12z" />
    <glyph glyph-name="lcaron.sc" horiz-adv-x="396" 
d="M87 541h57q12 0 12 -12v-385q0 -45 11.5 -57.5t49.5 -12.5h139q13 0 13 -13v-49q0 -12 -13 -12h-149q-77 0 -105 31.5t-28 102.5v395q0 12 13 12zM270 541h47q11 0 11 -11v-86q0 -27 -10 -50t-37 -63q-6 -10 -20 -7l-14 3q-11 2 -10 10q22 56 22 108v85q0 11 11 11z" />
    <glyph glyph-name="lcommaaccent.sc" horiz-adv-x="396" 
d="M87 541h57q12 0 12 -12v-385q0 -45 11.5 -57.5t49.5 -12.5h139q13 0 13 -13v-49q0 -12 -13 -12h-149q-77 0 -105 31.5t-28 102.5v395q0 12 13 12zM177 -29h52q12 0 12 -12v-37q0 -33 -10 -56.5t-38 -65.5q-9 -11 -22 -7l-16 2q-12 3 -11 11q21 63 21 117v36q0 12 12 12z
" />
    <glyph glyph-name="ldot.sc" horiz-adv-x="396" 
d="M87 541h57q12 0 12 -12v-385q0 -45 11.5 -57.5t49.5 -12.5h139q13 0 13 -13v-49q0 -12 -13 -12h-149q-77 0 -105 31.5t-28 102.5v395q0 12 13 12zM239 375h56q11 0 11 -11v-112q0 -11 -11 -11h-56q-11 0 -11 11v112q0 11 11 11z" />
    <glyph glyph-name="lslash.sc" horiz-adv-x="393" 
d="M99 398l-9 -41q0 -34 10 -50l-16 -12l11 106q4 2 4 -1v-2zM148 342l-46 48q-1 4 1 6.5t7 1.5zM148 342l9 -9q1 -3 0 -3zM299 193l20 -6q11 0 7 -11l-76 -29q-36 -5 -50 4t-19 43l-1 5l16 2q9 2 12 -7l9 -8l-55 94q-46 1 -62 27l27 20q2 11 13 9l14 -6h3l3 -5
q4 -35 14.5 -47t39.5 -17l76 -60q3 -7 9 -8zM84 295l-1 -19q-4 -1 -8 1.5t-3 7.5zM119 207l36 57q1 6 7 6l18 -71l-48 -6q-10 -1 -12 1t-1 13z" />
    <glyph glyph-name="m.sc" horiz-adv-x="555" 
d="M442 541h16q22 0 22 -25v-506q0 -10 -9 -10h-64q-9 0 -9 10v342q0 3 -2 3.5t-4 -2.5l-82 -137q-14 -28 -32 -28q-16 0 -33 28l-83 138q-2 3 -3.5 2.5t-1.5 -4.5v-342q0 -10 -10 -10h-63q-10 0 -10 10v506q0 25 24 25h17q20 0 31 -19l126 -222q6 -10 12 0l128 222
q10 19 30 19z" />
    <glyph glyph-name="n.sc" horiz-adv-x="501" 
d="M359 541h55q12 0 12 -13v-500q0 -28 -28 -28h-17q-11 0 -19 12l-202 358q-2 4 -3.5 3t-1.5 -4v-357q0 -12 -12 -12h-56q-13 0 -13 12v501q0 28 29 28h22q12 0 19 -11l198 -354q3 -3 5 1v351q0 13 12 13z" />
    <glyph glyph-name="eng.sc" horiz-adv-x="501" 
d="M103 541h22q12 0 19 -11l198 -354q3 -3 5 1v351q0 13 12 13h55q12 0 12 -13v-576q0 -85 -25.5 -117.5t-97.5 -32.5q-59 0 -92 9q-17 5 -16 25l4 39q1 9 11 9q1 0 27 -3.5t49 -3.5q35 0 48 16t13 65v78l-187 334q-2 4 -3.5 3t-1.5 -4v-357q0 -12 -12 -12h-56q-13 0 -13 12
v501q0 28 29 28z" />
    <glyph glyph-name="ntilde.sc" horiz-adv-x="501" 
d="M347 715q26 0 26 -14q-13 -87 -74 -87q-23 0 -52.5 18.5t-40.5 18.5q-20 0 -32 -27q-4 -8 -8.5 -10.5t-19.5 -2.5q-23 0 -23 12q4 22 9 37.5t21.5 30.5t40.5 15t55 -18t41 -18q22 0 31 31q4 9 8 11.5t18 2.5zM359 541h55q12 0 12 -13v-500q0 -28 -28 -28h-17
q-11 0 -19 12l-202 358q-2 4 -3.5 3t-1.5 -4v-357q0 -12 -12 -12h-56q-13 0 -13 12v501q0 28 29 28h22q12 0 19 -11l198 -354q3 -3 5 1v351q0 13 12 13z" />
    <glyph glyph-name="o.sc" horiz-adv-x="503" 
d="M252 549q112 0 151 -62t39 -213q0 -154 -39 -218t-151 -64t-151.5 64.5t-39.5 217.5q0 151 39.5 213t151.5 62zM252 474q-65 0 -86 -40t-21 -160q0 -124 21 -165.5t86 -41.5q63 0 84 41.5t21 165.5q0 120 -20.5 160t-84.5 40z" />
    <glyph glyph-name="oacute.sc" horiz-adv-x="503" 
d="M275 725h72q8 0 10 -4.5t-3 -9.5l-82 -112q-7 -8 -15 -8h-34q-17 0 -10 14l49 112q3 8 13 8zM252 549q112 0 151 -62t39 -213q0 -154 -39 -218t-151 -64t-151.5 64.5t-39.5 217.5q0 151 39.5 213t151.5 62zM252 474q-65 0 -86 -40t-21 -160q0 -124 21 -165.5t86 -41.5
q63 0 84 41.5t21 165.5q0 120 -20.5 160t-84.5 40z" />
    <glyph glyph-name="ocircumflex.sc" horiz-adv-x="503" 
d="M257 712l93 -53q8 -4 5 -10l-10 -33q-3 -11 -14 -7l-74 39q-6 4 -16 0l-73 -39q-7 -3 -10 -2t-5 9l-10 33q-2 7 5 10l94 53q8 4 15 0zM252 549q112 0 151 -62t39 -213q0 -154 -39 -218t-151 -64t-151.5 64.5t-39.5 217.5q0 151 39.5 213t151.5 62zM252 474q-65 0 -86 -40
t-21 -160q0 -124 21 -165.5t86 -41.5q63 0 84 41.5t21 165.5q0 120 -20.5 160t-84.5 40z" />
    <glyph glyph-name="odieresis.sc" horiz-adv-x="503" 
d="M167 725h46q11 0 11 -11v-104q0 -11 -11 -11h-46q-11 0 -11 11v104q0 11 11 11zM293 725h46q11 0 11 -11v-104q0 -11 -11 -11h-46q-11 0 -11 11v104q0 11 11 11zM252 549q112 0 151 -62t39 -213q0 -154 -39 -218t-151 -64t-151.5 64.5t-39.5 217.5q0 151 39.5 213
t151.5 62zM252 474q-65 0 -86 -40t-21 -160q0 -124 21 -165.5t86 -41.5q63 0 84 41.5t21 165.5q0 120 -20.5 160t-84.5 40z" />
    <glyph glyph-name="ograve.sc" horiz-adv-x="503" 
d="M150 725h67q11 0 14 -10l44 -108q5 -16 -9 -16h-24q-14 0 -20 10l-77 112q-4 5 -2.5 8.5t7.5 3.5zM252 549q112 0 151 -62t39 -213q0 -154 -39 -218t-151 -64t-151.5 64.5t-39.5 217.5q0 151 39.5 213t151.5 62zM252 474q-65 0 -86 -40t-21 -160q0 -124 21 -165.5
t86 -41.5q63 0 84 41.5t21 165.5q0 120 -20.5 160t-84.5 40z" />
    <glyph glyph-name="oslash.sc" horiz-adv-x="508" 
d="M378 639l-28 -107q52 -24 72 -85t20 -173q0 -154 -39 -218t-151 -64q-24 0 -35 1l-28 -104q-4 -9 -13 -9h-31q-11 0 -8 9l31 115q-61 22 -84 85.5t-23 184.5q0 151 39.5 213t151.5 62q26 0 49 -3l25 93q4 11 14 11h30q4 0 6.5 -3t1.5 -8zM252 67q63 0 84 41.5t21 165.5
q0 120 -20.5 160t-84.5 40q-65 0 -86 -40t-21 -160q0 -124 21 -165.5t86 -41.5z" />
    <glyph glyph-name="oslashacute.sc" horiz-adv-x="508" 
d="M230 591h-34q-17 0 -10 14l49 112q3 8 13 8h72q8 0 10 -4.5t-3 -9.5l-82 -112q-7 -8 -15 -8zM378 639l-28 -107q52 -24 72 -85t20 -173q0 -154 -39 -218t-151 -64q-24 0 -35 1l-28 -104q-4 -9 -13 -9h-31q-11 0 -8 9l31 115q-61 22 -84 85.5t-23 184.5q0 151 39.5 213
t151.5 62q26 0 49 -3l25 93q4 11 14 11h30q4 0 6.5 -3t1.5 -8zM252 67q63 0 84 41.5t21 165.5q0 120 -20.5 160t-84.5 40q-65 0 -86 -40t-21 -160q0 -124 21 -165.5t86 -41.5z" />
    <glyph glyph-name="otilde.sc" horiz-adv-x="503" 
d="M349 715q26 0 26 -14q-13 -87 -75 -87q-23 0 -52 18.5t-41 18.5q-19 0 -31 -27q-4 -8 -9 -10.5t-19 -2.5q-23 0 -23 12q4 22 9 37.5t21.5 30.5t40.5 15t55 -18t41 -18q22 0 31 31q4 9 8 11.5t18 2.5zM252 549q112 0 151 -62t39 -213q0 -154 -39 -218t-151 -64
t-151.5 64.5t-39.5 217.5q0 151 39.5 213t151.5 62zM252 474q-65 0 -86 -40t-21 -160q0 -124 21 -165.5t86 -41.5q63 0 84 41.5t21 165.5q0 120 -20.5 160t-84.5 40z" />
    <glyph glyph-name="oe.sc" horiz-adv-x="670" 
d="M604 0h-136q-95 0 -106 63q-3 8 -8 0q-31 -69 -128 -69q-92 0 -127.5 62.5t-34.5 224.5q1 156 35.5 211t127.5 55q103 0 129 -64q4 -7 7 -1q8 32 32.5 46t70.5 14h138q15 0 15 -14v-45q0 -13 -15 -13h-116q-46 0 -63 -17t-17 -72v-59q0 -9 10 -9h165q16 0 16 -14v-44
q0 -14 -16 -14h-165q-10 0 -10 -9v-72q0 -54 16 -71t61 -17h119q15 0 15 -14v-44q0 -14 -15 -14zM324 201v168q0 107 -90 107q-52 0 -71 -38t-19 -161q0 -90 9.5 -136t27.5 -60.5t54 -14.5q89 0 89 135z" />
    <glyph glyph-name="p.sc" horiz-adv-x="450" 
d="M74 12v384q0 80 35 115.5t130 35.5q92 0 132 -42.5t40 -132.5q0 -177 -170 -177h-77q-8 0 -8 -7v-176q0 -12 -12 -12h-57q-13 0 -13 12zM164 268h70q54 0 74.5 23.5t20.5 80.5q0 56 -20.5 79t-68.5 23q-47 0 -65.5 -17.5t-18.5 -62.5v-118q0 -8 8 -8z" />
    <glyph glyph-name="thorn.sc" horiz-adv-x="449" 
d="M84 541h65q10 0 10 -10v-75q0 -6 6 -6h77q87 0 125 -39.5t38 -120.5q0 -85 -41 -126.5t-129 -41.5h-68q-8 0 -8 -7v-105q0 -10 -10 -10h-65q-10 0 -10 10v521q0 10 10 10zM229 377h-63q-7 0 -7 -6v-170q0 -6 7 -6h63q50 0 70.5 22t20.5 70t-20.5 69t-70.5 21z" />
    <glyph glyph-name="q.sc" horiz-adv-x="503" 
d="M382 -95v-30q0 -14 -13 -20q-12 -5 -48 -5q-64 0 -86.5 33t-22.5 99q0 9 -1.5 11t-8.5 4q-83 11 -112 77.5t-29 199.5q0 71 7 117t26.5 84.5t58 56t99.5 17.5q60 0 98.5 -17.5t58 -56t26.5 -84.5t7 -117q0 -54 -2.5 -91t-11.5 -73.5t-25 -58.5t-42.5 -36.5t-64.5 -17.5
q-7 -1 -9 -4t-2 -13q0 -37 11.5 -52.5t39.5 -15.5q8 0 20 1t15 1q11 0 11 -9zM252 474q-65 0 -86 -40t-21 -160q0 -123 21 -163.5t86 -40.5q64 0 84.5 40.5t20.5 163.5q0 119 -21 159.5t-84 40.5z" />
    <glyph glyph-name="r.sc" horiz-adv-x="470" 
d="M74 12v390q0 78 36.5 113t129.5 35q87 0 128.5 -40.5t41.5 -124.5q0 -115 -80 -153q-7 -4 -4 -12l94 -203q5 -9 3 -13t-12 -4h-56q-19 0 -24 12l-75 184q-4 10 -16 10h-75q-9 0 -9 -9v-185q0 -12 -12 -12h-57q-13 0 -13 12zM165 273h76q47 0 67 25.5t20 78.5
q0 51 -20.5 75t-67.5 24q-48 0 -66 -16t-18 -58v-120q0 -9 9 -9z" />
    <glyph glyph-name="racute.sc" horiz-adv-x="470" 
d="M258 725h71q9 0 11 -4.5t-3 -9.5l-83 -112q-5 -8 -14 -8h-34q-17 0 -10 14l49 112q2 8 13 8zM74 12v390q0 78 36.5 113t129.5 35q87 0 128.5 -40.5t41.5 -124.5q0 -115 -80 -153q-7 -4 -4 -12l94 -203q5 -9 3 -13t-12 -4h-56q-19 0 -24 12l-75 184q-4 10 -16 10h-75
q-9 0 -9 -9v-185q0 -12 -12 -12h-57q-13 0 -13 12zM165 273h76q47 0 67 25.5t20 78.5q0 51 -20.5 75t-67.5 24q-48 0 -66 -16t-18 -58v-120q0 -9 9 -9z" />
    <glyph glyph-name="rcaron.sc" horiz-adv-x="470" 
d="M246 665l70 38q12 4 15 -7l10 -32q1 -7 -5 -10l-94 -54q-6 -2 -7 -2q-4 0 -8 2l-93 54q-6 3 -5 10l10 32q3 11 14 7l67 -37q2 0 7.5 -2.5t7.5 -2.5q1 0 4.5 1.5t6.5 2.5zM74 12v390q0 78 36.5 113t129.5 35q87 0 128.5 -40.5t41.5 -124.5q0 -115 -80 -153q-7 -4 -4 -12
l94 -203q5 -9 3 -13t-12 -4h-56q-19 0 -24 12l-75 184q-4 10 -16 10h-75q-9 0 -9 -9v-185q0 -12 -12 -12h-57q-13 0 -13 12zM165 273h76q47 0 67 25.5t20 78.5q0 51 -20.5 75t-67.5 24q-48 0 -66 -16t-18 -58v-120q0 -9 9 -9z" />
    <glyph glyph-name="rcommaaccent.sc" horiz-adv-x="470" 
d="M74 12v390q0 78 36.5 113t129.5 35q87 0 128.5 -40.5t41.5 -124.5q0 -115 -80 -153q-7 -4 -4 -12l94 -203q5 -9 3 -13t-12 -4h-56q-19 0 -24 12l-75 184q-4 10 -16 10h-75q-9 0 -9 -9v-185q0 -12 -12 -12h-57q-13 0 -13 12zM165 273h76q47 0 67 25.5t20 78.5
q0 51 -20.5 75t-67.5 24q-48 0 -66 -16t-18 -58v-120q0 -9 9 -9zM227 -29h52q12 0 12 -12v-37q0 -33 -10 -56.5t-38 -65.5q-9 -11 -22 -7l-16 2q-12 3 -11 11q21 63 21 117v36q0 12 12 12z" />
    <glyph glyph-name="s.sc" horiz-adv-x="421" 
d="M63 26l4 39q2 10 12 10q2 0 19.5 -2.5t44.5 -5t54 -2.5q46 -1 66 18t20 60q0 37 -20.5 57t-85.5 52q-66 34 -91 64t-25 94q0 74 38 107t123 33q84 0 112 -9q13 -3 13 -17l-5 -47q-2 -8 -10 -8q-3 0 -17.5 2t-38.5 4t-51 2q-43 0 -61.5 -17.5t-18.5 -57.5q0 -9 1 -16.5
t4.5 -14.5t5.5 -12t9.5 -11t11 -9t15 -9t17 -9t21.5 -10.5t24 -11.5q66 -32 89.5 -63.5t23.5 -91.5q0 -78 -38.5 -115t-122.5 -37q-96 0 -132 13q-12 5 -11 21z" />
    <glyph glyph-name="sacute.sc" horiz-adv-x="421" 
d="M240 725h72q9 0 11 -4.5t-3 -9.5l-83 -112q-5 -8 -15 -8h-33q-18 0 -11 14l49 112q3 8 13 8zM63 26l4 39q2 10 12 10q2 0 19.5 -2.5t44.5 -5t54 -2.5q46 -1 66 18t20 60q0 37 -20.5 57t-85.5 52q-66 34 -91 64t-25 94q0 74 38 107t123 33q84 0 112 -9q13 -3 13 -18
l-5 -46q-2 -8 -10 -8q-3 0 -17.5 2t-38.5 4t-51 2q-43 0 -61.5 -17.5t-18.5 -57.5q0 -9 1 -16.5t4.5 -14.5t5.5 -12t9.5 -11t11 -9t15 -9t17 -9t21.5 -10.5t24 -11.5q66 -32 89.5 -63.5t23.5 -91.5q0 -78 -38.5 -115t-122.5 -37q-96 0 -132 13q-12 5 -11 21z" />
    <glyph glyph-name="scaron.sc" horiz-adv-x="421" 
d="M229 665l70 38q11 4 14 -7l11 -32q1 -7 -6 -10l-93 -54q-6 -2 -8 -2q-3 0 -7 2l-94 54q-6 3 -5 10l11 32q3 11 14 7l66 -37q3 -1 8.5 -3t6.5 -2q2 0 6 2t6 2zM63 26l4 39q2 10 12 10q2 0 19.5 -2.5t44.5 -5t54 -2.5q46 -1 66 18t20 60q0 37 -20.5 57t-85.5 52
q-66 34 -91 64t-25 94q0 74 38 107t123 33q84 0 112 -9q13 -3 13 -17l-5 -47q-2 -8 -10 -8q-3 0 -17.5 2t-38.5 4t-51 2q-43 0 -61.5 -17.5t-18.5 -57.5q0 -9 1 -16.5t4.5 -14.5t5.5 -12t9.5 -11t11 -9t15 -9t17 -9t21.5 -10.5t24 -11.5q66 -32 89.5 -63.5t23.5 -91.5
q0 -78 -38.5 -115t-122.5 -37q-96 0 -132 13q-12 5 -11 21z" />
    <glyph glyph-name="germandbls.sc" horiz-adv-x="497" 
d="M80 9v388q0 83 38 119.5t140 36.5q159 0 159 -113q0 -31 -12.5 -51t-41.5 -38l-38 -24q-19 -10 -25.5 -17t-6.5 -24t7.5 -26.5t30.5 -18.5l56 -28q41 -20 56 -39.5t15 -60.5q0 -63 -34 -91.5t-116 -28.5q-48 0 -85 8q-16 5 -15 20l3 39q2 11 9 11q2 0 30 -3.5t48 -3.5
q46 0 63 13.5t17 46.5q0 26 -12 36.5t-51 26.5l-45 18q-29 11 -42.5 28t-13.5 48q0 25 9 38.5t36 30.5l40 22q38 22 38 55q0 54 -85 54q-50 0 -70 -19t-21 -64v-389q0 -9 -10 -9h-60q-11 0 -11 9z" />
    <glyph glyph-name="t.sc" horiz-adv-x="408" 
d="M40 541h328q12 0 12 -13v-49q0 -12 -12 -12h-115q-8 0 -8 -9v-446q0 -12 -12 -12h-57q-12 0 -12 12v446q0 9 -8 9h-116q-12 0 -12 12v49q0 13 12 13z" />
    <glyph glyph-name="tbar.sc" horiz-adv-x="414" 
d="M40 541h328q12 0 12 -13v-49q0 -12 -12 -12h-115q-8 0 -8 -9v-148h89q10 0 10 -11v-34q0 -10 -10 -10h-89v-243q0 -12 -12 -12h-57q-12 0 -12 12v243h-90q-10 0 -10 10v34q0 11 10 11h90v148q0 9 -8 9h-116q-12 0 -12 12v49q0 13 12 13z" />
    <glyph glyph-name="tcaron.sc" horiz-adv-x="408" 
d="M213 664l70 38q12 4 15 -7l10 -33q1 -6 -6 -9l-93 -54q-6 -2 -7 -2q-4 0 -8 2l-93 54q-7 3 -6 9l11 33q3 11 14 7l67 -37l15 -6q1 0 2.5 1t4 2t4.5 2zM40 541h328q12 0 12 -13v-49q0 -12 -12 -12h-115q-8 0 -8 -9v-446q0 -12 -12 -12h-57q-12 0 -12 12v446q0 9 -8 9h-116
q-12 0 -12 12v49q0 13 12 13z" />
    <glyph glyph-name="tcedilla.sc" horiz-adv-x="408" 
d="M40 541h328q12 0 12 -13v-49q0 -12 -12 -12h-115q-8 0 -8 -9v-446q0 -12 -12 -12h-57q-12 0 -12 12v446q0 9 -8 9h-116q-12 0 -12 12v49q0 13 12 13zM185 -17h52q12 0 7 -12l-48 -140q-5 -15 -21 -15h-37q-14 0 -10 12l40 143q4 12 17 12z" />
    <glyph glyph-name="uni021B.sc" horiz-adv-x="408" 
d="M40 541h328q12 0 12 -13v-49q0 -12 -12 -12h-115q-8 0 -8 -9v-446q0 -12 -12 -12h-57q-12 0 -12 12v446q0 9 -8 9h-116q-12 0 -12 12v49q0 13 12 13zM182 -44h49q12 0 12 -12v-35q0 -32 -9.5 -54.5t-36.5 -61.5q-8 -11 -21 -7l-15 2q-12 3 -10 11q19 59 19 111v34
q0 12 12 12z" />
    <glyph glyph-name="u.sc" horiz-adv-x="491" 
d="M346 541h58q12 0 12 -13v-354q0 -100 -37.5 -141t-135.5 -41t-135 41t-37 141v354q0 13 12 13h57q12 0 12 -13v-359q0 -62 19 -82.5t72 -20.5t72 20.5t19 82.5v359q0 13 12 13z" />
    <glyph glyph-name="uacute.sc" horiz-adv-x="491" 
d="M268 725h71q9 0 11 -4.5t-3 -9.5l-83 -112q-5 -8 -14 -8h-34q-17 0 -10 14l48 112q3 8 14 8zM346 541h58q12 0 12 -13v-354q0 -100 -37.5 -141t-135.5 -41t-135 41t-37 141v354q0 13 12 13h57q12 0 12 -13v-359q0 -62 19 -82.5t72 -20.5t72 20.5t19 82.5v359q0 13 12 13z
" />
    <glyph glyph-name="ucircumflex.sc" horiz-adv-x="491" 
d="M250 712l93 -53q7 -3 5 -10l-11 -33q-1 -11 -13 -7l-74 39q-6 4 -16 0l-74 -39q-6 -3 -9 -2t-5 9l-11 33q-2 6 6 10l94 53q7 4 15 0zM346 541h58q12 0 12 -13v-354q0 -100 -37.5 -141t-135.5 -41t-135 41t-37 141v354q0 13 12 13h57q12 0 12 -13v-359q0 -62 19 -82.5
t72 -20.5t72 20.5t19 82.5v359q0 13 12 13z" />
    <glyph glyph-name="udieresis.sc" horiz-adv-x="491" 
d="M159 725h47q10 0 10 -11v-104q0 -11 -10 -11h-47q-10 0 -10 11v104q0 11 10 11zM285 725h47q10 0 10 -11v-104q0 -11 -10 -11h-47q-10 0 -10 11v104q0 11 10 11zM346 541h58q12 0 12 -13v-354q0 -100 -37.5 -141t-135.5 -41t-135 41t-37 141v354q0 13 12 13h57
q12 0 12 -13v-359q0 -62 19 -82.5t72 -20.5t72 20.5t19 82.5v359q0 13 12 13z" />
    <glyph glyph-name="ugrave.sc" horiz-adv-x="491" 
d="M143 725h67q10 0 14 -10l44 -108q5 -16 -10 -16h-23q-14 0 -21 10l-77 112q-3 5 -1.5 8.5t7.5 3.5zM346 541h58q12 0 12 -13v-354q0 -100 -37.5 -141t-135.5 -41t-135 41t-37 141v354q0 13 12 13h57q12 0 12 -13v-359q0 -62 19 -82.5t72 -20.5t72 20.5t19 82.5v359
q0 13 12 13z" />
    <glyph glyph-name="v.sc" horiz-adv-x="486" 
d="M347 541h49q16 0 16 -16v-346q0 -30 -27 -58l-96 -106q-22 -22 -46 -22q-21 0 -44 23l-99 104q-26 27 -26 59v346q0 16 17 16h48q16 0 16 -16v-334q0 -14 11 -26l68 -81q8 -10 17 0l68 81q12 14 12 26v334q0 16 16 16z" />
    <glyph glyph-name="w.sc" horiz-adv-x="686" 
d="M542 541h57q12 0 12 -13v-355q0 -38 -25 -62l-84 -98q-41 -44 -84 1l-68 85q-7 6 -14 0l-71 -87q-18 -19 -40 -19t-41 20l-85 99q-25 25 -25 61v355q0 13 13 13h57q12 0 12 -13v-351q0 -12 10 -23l55 -75q7 -9 15 0l55 75q11 13 11 27v347q0 13 12 13h58q12 0 12 -13
v-347q0 -16 10 -27l56 -75q6 -9 14 0l55 75q11 11 11 23v351q0 13 12 13z" />
    <glyph glyph-name="x.sc" horiz-adv-x="471" 
d="M324 541h57q12 0 12 -13v-99q0 -31 -24 -61l-75 -93q-6 -6 0 -11l78 -90q24 -29 24 -62v-100q0 -12 -12 -12h-57q-12 0 -12 12v98q0 17 -11 29l-59 75q-6 6 -12 -1l-66 -74q-11 -14 -11 -29v-98q0 -12 -12 -12h-57q-12 0 -12 12v100q0 37 24 62l80 90q5 5 0 12l-80 91
q-25 28 -25 62v99q0 13 13 13h56q12 0 12 -13v-96q0 -13 11 -29l65 -76q7 -8 12 0l59 77q10 14 10 29v95q0 13 12 13z" />
    <glyph glyph-name="y.sc" horiz-adv-x="444" 
d="M316 541h57q12 0 12 -13v-151q0 -32 -26 -61l-83 -91q-11 -11 -11 -29v-184q0 -12 -12 -12h-58q-12 0 -12 12v184q0 17 -11 29l-87 91q-26 26 -26 61v151q0 13 12 13h57q12 0 12 -13v-140q0 -15 11 -28l65 -72q9 -9 17 1l60 71q11 14 11 29v139q0 13 12 13z" />
    <glyph glyph-name="yacute.sc" horiz-adv-x="444" 
d="M246 725h72q8 0 10.5 -4.5t-2.5 -9.5l-83 -112q-7 -8 -15 -8h-34q-17 0 -10 14l49 112q3 8 13 8zM316 541h57q12 0 12 -13v-151q0 -32 -26 -61l-83 -91q-11 -11 -11 -29v-184q0 -12 -12 -12h-58q-12 0 -12 12v184q0 17 -11 29l-87 91q-26 26 -26 61v151q0 13 12 13h57
q12 0 12 -13v-140q0 -15 11 -28l65 -72q9 -9 17 1l60 71q11 14 11 29v139q0 13 12 13z" />
    <glyph glyph-name="ygrave.sc" horiz-adv-x="444" 
d="M122 725h67q10 0 13 -10l44 -108q6 -16 -9 -16h-23q-14 0 -21 10l-77 112q-8 12 6 12zM316 541h57q12 0 12 -13v-151q0 -32 -26 -61l-83 -91q-11 -11 -11 -29v-184q0 -12 -12 -12h-58q-12 0 -12 12v184q0 17 -11 29l-87 91q-26 26 -26 61v151q0 13 12 13h57q12 0 12 -13
v-140q0 -15 11 -28l65 -72q9 -9 17 1l60 71q11 14 11 29v139q0 13 12 13z" />
    <glyph glyph-name="z.sc" horiz-adv-x="433" 
d="M68 541h272q29 0 29 -29v-22q0 -13 -6 -23.5t-25 -35.5l-192 -352q-3 -5 3 -5h211q12 0 12 -13v-49q0 -12 -12 -12h-275q-29 0 -29 28v23q0 25 19 51l200 359q4 5 -3 5h-204q-12 0 -12 13v49q0 13 12 13z" />
    <glyph glyph-name="zacute.sc" horiz-adv-x="433" 
d="M240 725h72q9 0 11 -4.5t-3 -9.5l-83 -112q-5 -8 -15 -8h-33q-18 0 -11 14l49 112q3 8 13 8zM68 541h272q29 0 29 -29v-22q0 -13 -6 -23.5t-25 -35.5l-192 -352q-3 -5 3 -5h211q12 0 12 -13v-49q0 -12 -12 -12h-275q-29 0 -29 28v23q0 25 19 51l200 359q4 5 -3 5h-204
q-12 0 -12 13v49q0 13 12 13z" />
    <glyph glyph-name="zcaron.sc" horiz-adv-x="433" 
d="M229 665l70 38q11 4 14 -7l11 -32q1 -6 -6 -10l-93 -54q-6 -2 -8 -2t-8 2l-93 54q-6 3 -5 10l11 32q3 11 14 7l66 -37q3 -1 8.5 -3t6.5 -2q2 0 6 2t6 2zM68 541h272q29 0 29 -29v-22q0 -13 -6 -23.5t-25 -35.5l-192 -352q-3 -5 3 -5h211q12 0 12 -13v-49q0 -12 -12 -12
h-275q-29 0 -29 28v23q0 25 19 51l200 359q4 5 -3 5h-204q-12 0 -12 13v49q0 13 12 13z" />
    <glyph glyph-name="zdotaccent.sc" horiz-adv-x="433" 
d="M191 725h51q11 0 11 -11v-104q0 -11 -11 -11h-51q-11 0 -11 11v104q0 11 11 11zM68 541h272q29 0 29 -29v-22q0 -13 -6 -23.5t-25 -35.5l-192 -352q-3 -5 3 -5h211q12 0 12 -13v-49q0 -12 -12 -12h-275q-29 0 -29 28v23q0 25 19 51l200 359q4 5 -3 5h-204q-12 0 -12 13
v49q0 13 12 13z" />
    <glyph glyph-name="zero.lf" horiz-adv-x="578" 
d="M287 708q82 0 126 -30t64.5 -105.5t20.5 -217.5q0 -148 -20 -225.5t-64 -108t-127 -30.5q-82 0 -126 30.5t-64.5 108.5t-20.5 225q0 142 20.5 217.5t64.5 105.5t126 30zM287 631q-52 0 -77.5 -22t-36.5 -79.5t-11 -174.5q0 -120 11 -180t36.5 -83.5t77.5 -23.5t77.5 23.5
t36 83t10.5 180.5q0 170 -24 223t-100 53z" />
    <glyph glyph-name="one.lf" horiz-adv-x="386" 
d="M56 632v37q0 21 19 26q38 12 79 12q64 0 91.5 -26.5t27.5 -90.5v-579q0 -11 -11 -11h-62q-11 0 -11 11v553q0 37 -10 51t-43 14q-15 0 -39 -3t-31 -3q-10 0 -10 9z" />
    <glyph glyph-name="two.lf" horiz-adv-x="506" 
d="M76 626l-5 45q-1 17 13 21q53 16 146 16q112 0 159 -39.5t47 -126.5q0 -47 -18.5 -86.5t-41 -64t-71.5 -69.5q-87 -79 -120 -125t-33 -115q0 -4 4 -4h270q12 0 12 -12v-54q0 -12 -12 -12h-345q-15 0 -15 15v41q0 68 19.5 120t45.5 83t77 77q47 43 64 60t40 44t29.5 47.5
t6.5 45.5q0 52 -30 75t-101 23q-30 0 -60 -3.5t-48.5 -7t-22.5 -3.5q-8 0 -10 9z" />
    <glyph glyph-name="three.lf" horiz-adv-x="505" 
d="M63 628l-5 40q-1 16 14 22q46 18 131 18q114 0 161.5 -42.5t47.5 -128.5q0 -123 -79 -157q-9 -4 0 -5q51 -11 77 -56t26 -112q0 -215 -221 -215q-107 0 -147 16q-13 6 -11 24l4 41q2 9 10 9q3 0 22.5 -3t49 -5.5t57.5 -2.5q80 0 114 31.5t34 106.5q0 66 -28 93t-103 27
h-84q-12 0 -12 12v53q0 12 12 12h77q64 0 89 27.5t25 84.5q0 62 -28.5 87.5t-100.5 25.5q-39 0 -80 -6t-42 -6q-8 0 -10 9z" />
    <glyph glyph-name="four.lf" horiz-adv-x="533" 
d="M336 700h37q32 0 32 -32v-461q0 -7 7 -8h79q12 0 12 -12v-47q0 -12 -12 -12h-79q-7 0 -7 -8v-108q0 -12 -12 -12h-61q-12 0 -12 12v108q0 8 -7 8h-209q-51 0 -51 51v75q0 50 32 99l204 322q16 25 47 25zM320 207v376q-8 0 -12 -9l-154 -254q-18 -30 -18 -64v-49
q0 -7 7 -7h170q7 0 7 7z" />
    <glyph glyph-name="five.lf" horiz-adv-x="527" 
d="M132 700h284q12 0 12 -12v-54q0 -12 -12 -12h-234q-12 0 -12 -11v-187q47 9 101 9q96 0 139.5 -48.5t43.5 -165.5q0 -113 -50.5 -170t-170.5 -57q-88 0 -137 15q-14 3 -12 19l5 45q1 11 12 11q4 0 21.5 -3t46 -6.5t60.5 -3.5q78 0 107.5 32.5t29.5 117.5q0 81 -27 109
t-89 28q-41 0 -86.5 -7t-46.5 -7q-5 0 -12 4l-13 10q-7 4 -7 15v282q0 47 47 47z" />
    <glyph glyph-name="six.lf" horiz-adv-x="533" 
d="M70 177v306q0 121 45 173t158 52q90 0 146 -14q17 -6 16 -20l-5 -49q0 -11 -12 -11q-102 12 -133 12q-75 0 -103 -29t-28 -110v-60q0 -8 7 -8q3 0 19.5 2.5t43 4.5t53.5 2q104 0 147 -49.5t43 -152.5q0 -128 -46.5 -181t-158.5 -53q-105 0 -148.5 42t-43.5 143zM154 326
v-149q0 -60 22 -84t86 -24q73 0 95.5 33t22.5 120q0 69 -23 99t-92 30q-61 0 -102 -9q-9 -3 -9 -16z" />
    <glyph glyph-name="seven.lf" horiz-adv-x="463" 
d="M54 700h276q64 0 64 -59v-173q0 -58 -12.5 -96t-38.5 -81l-170 -286q-7 -13 -20 -6l-46 26q-14 7 -6 19l167 287q23 39 32 68t9 72v129q0 20 -19 20h-236q-12 0 -12 12v56q0 12 12 12z" />
    <glyph glyph-name="eight.lf" horiz-adv-x="545" 
d="M200 365l-54 52q-35 30 -51 61.5t-16 80.5q0 149 197 149q103 0 149 -38.5t46 -111.5q0 -42 -16 -71.5t-49 -63.5l-61 -58q-4 -4 0 -8l56 -53q41 -35 61.5 -69t20.5 -79q0 -82 -47.5 -123t-160.5 -41t-161 41t-48 119q0 45 19 78.5t59 71.5l56 56q5 4 0 7zM282 402l57 56
q16 17 24.5 27t15.5 27.5t7 36.5q0 41 -24 60t-87 19q-64 0 -88 -19.5t-24 -59.5q0 -31 13 -52t40 -44l55 -51q6 -5 11 0zM335 261l-60 53q-6 4 -11 -1l-56 -54q-56 -53 -56 -98t26.5 -67t96.5 -22t96 21.5t26 66.5q0 51 -62 101z" />
    <glyph glyph-name="nine.lf" horiz-adv-x="540" 
d="M365 213v65q0 6 -6 6q-2 0 -19.5 -3t-44 -6t-52.5 -3q-105 0 -145.5 52t-40.5 163q0 121 43.5 171t160.5 50q108 0 148.5 -42t40.5 -130v-328q0 -110 -45.5 -163t-162.5 -53q-100 0 -142 11q-13 5 -16.5 11t-1.5 20l4 29q1 16 15 16q95 -10 128 -10q79 0 107.5 29.5
t28.5 114.5zM365 374v154q0 60 -23 81.5t-86 21.5q-70 0 -92.5 -28.5t-22.5 -115.5q0 -76 23.5 -107t92.5 -31q26 0 59 4.5t40 6.5q9 3 9 14z" />
    <glyph glyph-name="zero.osf" horiz-adv-x="544" 
d="M273 517q118 0 161.5 -62.5t43.5 -197.5q0 -136 -43.5 -200t-161.5 -64t-162 64.5t-44 199.5t44 197.5t162 62.5zM273 442q-71 0 -97.5 -39t-26.5 -146q0 -106 27 -147t97 -41q69 0 96 41t27 147q0 107 -26.5 146t-96.5 39z" />
    <glyph glyph-name="one.osf" horiz-adv-x="335" 
d="M52 449l-2 39q-2 12 11 17q28 11 78 11q56 0 79.5 -21t23.5 -67v-417q0 -11 -11 -11h-59q-10 0 -10 11v391q0 24 -11.5 33.5t-35.5 9.5q-14 0 -30.5 -3.5t-19.5 -3.5q-11 0 -13 11z" />
    <glyph glyph-name="two.osf" horiz-adv-x="491" 
d="M80 441l-5 37q-2 13 13 21q54 17 140 17q101 0 143.5 -31t42.5 -102q0 -47 -25 -81t-61.5 -55.5t-73.5 -42t-65 -52t-33 -74.5q-1 -2 1 -3.5t3 -1.5h252q12 0 12 -12v-49q0 -12 -12 -12h-335q-11 0 -11 10v36q0 64 27 110.5t65.5 72t77 45.5t65.5 44.5t27 55.5
q0 39 -24.5 55.5t-84.5 16.5q-41 0 -85 -7l-44 -7q-8 0 -10 9z" />
    <glyph glyph-name="three.osf" horiz-adv-x="494" 
d="M52 438l-5 41q-1 15 14 21q42 17 131 17q114 0 161.5 -38t47.5 -116q0 -108 -80 -141q-8 -2 -3 -4q1 -1 3 -1q104 -20 104 -150q0 -191 -222 -191q-111 0 -146 14q-14 6 -12 24l5 40q2 10 10 10q3 0 22.5 -2t49 -4.5t57.5 -2.5q80 0 114 26t34 89q0 56 -27.5 78.5
t-102.5 22.5h-84q-12 0 -12 12v53q0 12 12 12h76q64 0 88.5 23.5t24.5 72.5q0 53 -28.5 74.5t-99.5 21.5q-39 0 -80 -5.5t-42 -5.5q-10 0 -10 9z" />
    <glyph glyph-name="four.osf" horiz-adv-x="512" 
d="M328 508h37q32 0 32 -32v-386q0 -7 7 -8h79q12 0 12 -12v-47q0 -12 -12 -12h-79q-7 0 -7 -7v-113q0 -12 -12 -12h-61q-12 0 -12 12v113q0 7 -7 7h-209q-51 0 -51 51v74q0 60 32 97l204 250q19 25 47 25zM312 90v315q-6 0 -12 -8l-154 -196q-18 -24 -18 -62v-49q0 -7 7 -7
h170q7 0 7 7z" />
    <glyph glyph-name="five.osf" horiz-adv-x="488" 
d="M118 508h283q12 0 12 -12v-53q0 -12 -12 -12h-234q-12 0 -12 -9v-160q63 7 101 7q96 0 139.5 -44t43.5 -149q0 -98 -50.5 -148.5t-169.5 -51.5q-72 -1 -137 13q-15 4 -13 20l6 45q1 11 12 11q3 0 20.5 -3t46 -6t60.5 -3q78 0 107.5 26.5t29.5 96.5q0 68 -27 91.5
t-89 23.5q-41 0 -87 -5l-45 -6q-7 0 -12 4l-13 9q-8 5 -8 16v256q0 43 48 43z" />
    <glyph glyph-name="six.osf" horiz-adv-x="531" 
d="M75 177v285q0 135 45 190.5t158 55.5q90 0 146 -14q17 -6 16 -20l-5 -49q0 -11 -11 -11q-102 12 -134 12q-75 0 -102.5 -29t-27.5 -110v-60q0 -8 6 -8q3 0 19.5 2.5t43 4.5t54.5 2q103 0 146.5 -49.5t43.5 -152.5q0 -128 -46.5 -181t-159.5 -53q-105 0 -148.5 42
t-43.5 143zM160 326v-149q0 -60 21.5 -84t85.5 -24q74 0 96 32.5t22 120.5q0 69 -22.5 99t-92.5 30q-62 0 -102 -9q-8 -3 -8 -16z" />
    <glyph glyph-name="seven.osf" horiz-adv-x="463" 
d="M61 508h276q63 0 63 -60v-172q0 -58 -12.5 -97t-37.5 -81l-131 -218q-8 -14 -20 -7l-47 26q-12 7 -6 20l128 219q23 40 32.5 69.5t9.5 71.5v128q0 11 -4.5 15.5t-15.5 4.5h-235q-13 0 -13 12v57q0 12 13 12z" />
    <glyph glyph-name="eight.osf" horiz-adv-x="531" 
d="M182 365l-54 52q-35 30 -51 61.5t-16 80.5q0 149 197 149q103 0 149 -38.5t46 -111.5q0 -42 -16 -71.5t-49 -63.5l-61 -58q-4 -4 0 -8l56 -53q41 -35 61.5 -69t20.5 -79q0 -82 -47.5 -123t-160.5 -41t-161 41t-48 119q0 45 19 78.5t60 71.5l56 56q4 4 -1 7zM264 402
l57 56q16 17 24.5 27t15.5 27.5t7 36.5q0 41 -24 60t-87 19q-64 0 -88 -19.5t-24 -59.5q0 -31 13 -52t41 -44l54 -51q6 -5 11 0zM317 261l-60 53q-5 4 -10 -1l-57 -54q-56 -53 -56 -98t26.5 -67t96.5 -22t96 21.5t26 66.5q0 51 -62 101z" />
    <glyph glyph-name="nine.osf" horiz-adv-x="540" 
d="M365 44v60q0 6 -6 6q-2 0 -19.5 -3t-44 -6t-52.5 -3q-105 0 -145.5 50t-40.5 156q0 116 44 164t160 48q108 0 148.5 -40t40.5 -125v-313q0 -107 -46 -158.5t-166 -51.5q-96 0 -138 11q-13 4 -16.5 10.5t-1.5 20.5l4 30q2 15 15 14q5 0 28.5 -2.5t50.5 -4.5t49 -2
q79 0 107.5 28.5t28.5 110.5zM365 200v143q0 55 -23 75.5t-86 20.5q-70 0 -92.5 -26.5t-22.5 -108.5q0 -71 23.5 -100t92.5 -29q65 0 98 11q10 2 10 14z" />
    <glyph glyph-name="zero.sinf" horiz-adv-x="321" 
d="M160 274q74 0 100 -41t26 -153q0 -113 -26 -156t-100 -43q-72 0 -98.5 43.5t-26.5 155.5q0 111 26.5 152.5t98.5 41.5zM160 218q-39 0 -53 -27.5t-14 -110.5q0 -87 14 -115.5t53 -28.5t53.5 28.5t14.5 115.5q0 83 -14.5 110.5t-53.5 27.5z" />
    <glyph glyph-name="one.sinf" horiz-adv-x="280" 
d="M60 224v24q0 13 8 17q17 9 54 9q72 0 72 -55v-327q0 -7 -8 -7h-43q-7 0 -7 7v301q0 16 -6.5 22.5t-24.5 6.5q-10 0 -23.5 -2t-14.5 -2q-7 0 -7 6z" />
    <glyph glyph-name="two.sinf" horiz-adv-x="312" 
d="M44 222l-4 30q-2 10 8 15q33 10 91 10q70 0 98.5 -24.5t28.5 -73.5q0 -33 -16.5 -60t-40 -46.5t-47 -37.5t-40 -42t-16.5 -52q0 -3 2 -3h157q7 0 7 -5v-42q0 -6 -7 -6h-220q-7 0 -7 6v25q0 42 17 76t41 55.5t48.5 39.5t41.5 39t17 43q0 30 -16.5 42t-60.5 12
q-15 0 -32.5 -1.5t-29 -3.5t-13.5 -2q-5 0 -7 6z" />
    <glyph glyph-name="three.sinf" horiz-adv-x="312" 
d="M48 226l-5 27q-1 9 8 14q17 10 82 10q69 0 96 -24.5t27 -76.5q0 -66 -47 -83q-8 -4 0 -4q61 -12 61 -89q0 -58 -29.5 -88.5t-102.5 -30.5q-58 0 -83 10q-11 5 -8 17l4 25q2 7 8 7q2 0 13 -1.5t28.5 -3t33.5 -1.5q43 0 60.5 16.5t17.5 52.5q0 32 -13.5 45.5t-50.5 13.5
h-48q-11 0 -11 11v29q0 11 11 11h39q34 0 46.5 13t12.5 42q0 30 -16.5 44t-54.5 14q-23 0 -47 -4l-25 -3q-7 0 -7 7z" />
    <glyph glyph-name="four.sinf" horiz-adv-x="308" 
d="M202 270h15q16 0 16 -19v-243q0 -5 5 -5h42q5 0 5 -6v-40q0 -5 -5 -5h-42q-5 0 -5 -4v-57q0 -6 -6 -6h-41q-6 0 -6 6v57q0 4 -5 4h-125q-27 0 -27 23v34q0 32 18 59l117 178q16 24 44 24zM180 8v179q-7 0 -12 -8l-77 -123q-10 -15 -10 -30v-19q0 -4 5 -4h89q5 0 5 5z" />
    <glyph glyph-name="five.sinf" horiz-adv-x="311" 
d="M77 270h168q6 0 6 -6v-38q0 -6 -6 -6h-138q-5 0 -5 -5v-97q28 6 59 6q51 0 77 -25.5t26 -89.5q0 -66 -30.5 -97t-95.5 -31q-47 0 -81 9q-12 3 -10 15l5 29q0 6 6 6q1 0 24 -3.5t44 -3.5q43 0 61.5 16.5t18.5 57.5t-15.5 55t-50.5 14q-22 0 -45 -4t-25 -4q-4 0 -9 3l-9 7
q-5 2 -5 10v154q0 28 30 28z" />
    <glyph glyph-name="six.sinf" horiz-adv-x="297" 
d="M35 -20v163q0 72 26.5 103t94.5 31q50 0 82 -8q10 -1 9 -14l-4 -26q-1 -11 -10 -11q-5 0 -30 3t-41 3q-40 0 -55.5 -15.5t-15.5 -54.5v-33q0 -4 4 -4l23 2q24 2 40 2q61 0 83 -26t22 -86q0 -70 -23 -99t-89 -29q-70 0 -93 23.5t-23 75.5zM91 60v-76q0 -29 11.5 -40
t44.5 -11q37 0 48 15t11 60q0 34 -11.5 48t-46.5 14q-40 0 -52 -3q-5 -3 -5 -7z" />
    <glyph glyph-name="seven.sinf" horiz-adv-x="292" 
d="M53 270h158q39 0 39 -36v-84q0 -58 -27 -101l-102 -164q-3 -7 -11 -2l-33 15q-10 5 -5 13l99 165q22 38 22 75v58q0 7 -7 7h-133q-11 0 -11 11v32q0 11 11 11z" />
    <glyph glyph-name="eight.sinf" horiz-adv-x="309" 
d="M104 90l-28 29q-35 38 -35 75q0 83 113 83q112 0 112 -81q0 -41 -36 -77l-29 -29q-3 -3 0 -4l29 -30q44 -38 44 -84q0 -43 -27.5 -65t-93.5 -22t-93 22t-27 64q0 44 42 84l29 31q3 3 0 4zM158 112l28 28q24 21 24 45q0 21 -12 31.5t-44 10.5q-58 1 -58 -43q0 -23 23 -43
l31 -29q3 -3 8 0zM187 31l-31 32q-2 3 -7 0l-31 -33q-28 -28 -28 -51q0 -22 14 -32.5t50 -10.5q35 0 49 10.5t14 32.5t-30 52z" />
    <glyph glyph-name="nine.sinf" horiz-adv-x="297" 
d="M205 3v37q0 4 -3 4l-22 -4q-21 -3 -35 -3q-62 0 -86.5 27.5t-24.5 90.5q0 62 24.5 92t90.5 30q68 0 90.5 -24.5t22.5 -77.5v-174q0 -58 -27 -87t-94 -29q-57 0 -79 8q-11 5 -8 19l4 22q2 8 8 8q2 0 29 -2.5t42 -2.5q40 0 54 14t14 52zM205 104v67q0 29 -11.5 41.5
t-44.5 12.5q-36 0 -47 -14.5t-11 -55.5q0 -37 11 -52.5t46 -15.5q43 0 52 7q5 2 5 10z" />
    <glyph glyph-name="zero.sups" horiz-adv-x="321" 
d="M160 924q74 0 100 -41t26 -153q0 -113 -26 -156t-100 -43q-72 0 -98.5 43.5t-26.5 155.5q0 111 26.5 152.5t98.5 41.5zM160 868q-39 0 -53 -27.5t-14 -110.5q0 -87 14 -115.5t53 -28.5t53.5 28.5t14.5 115.5q0 83 -14.5 110.5t-53.5 27.5z" />
    <glyph glyph-name="four.sups" horiz-adv-x="308" 
d="M202 920h15q16 0 16 -19v-243q0 -5 5 -5h42q5 0 5 -6v-40q0 -5 -5 -5h-42q-5 0 -5 -4v-57q0 -6 -6 -6h-41q-6 0 -6 6v57q0 4 -5 4h-125q-27 0 -27 23v34q0 32 18 59l117 178q16 24 44 24zM180 658v179q-7 0 -12 -8l-77 -123q-10 -15 -10 -30v-19q0 -4 5 -4h89q5 0 5 5z
" />
    <glyph glyph-name="five.sups" horiz-adv-x="311" 
d="M77 920h168q6 0 6 -6v-38q0 -6 -6 -6h-138q-5 0 -5 -5v-97q28 6 59 6q51 0 77 -25.5t26 -89.5q0 -66 -30.5 -97t-95.5 -31q-47 0 -81 9q-12 3 -10 15l5 29q0 6 6 6q1 0 24 -3.5t44 -3.5q43 0 61.5 16.5t18.5 57.5t-15.5 55t-50.5 14q-22 0 -45 -4t-25 -4q-4 0 -9 3l-9 7
q-5 2 -5 10v154q0 28 30 28z" />
    <glyph glyph-name="six.sups" horiz-adv-x="297" 
d="M35 630v163q0 72 26.5 103t94.5 31q50 0 82 -8q10 -1 9 -14l-4 -26q-1 -11 -10 -11q-5 0 -30 3t-41 3q-40 0 -55.5 -15.5t-15.5 -54.5v-33q0 -4 4 -4l23 2q24 2 40 2q61 0 83 -26t22 -86q0 -70 -23 -99t-89 -29q-70 0 -93 23.5t-23 75.5zM91 710v-76q0 -29 11.5 -40
t44.5 -11q37 0 48 15t11 60q0 34 -11.5 48t-46.5 14q-40 0 -52 -3q-5 -3 -5 -7z" />
    <glyph glyph-name="seven.sups" horiz-adv-x="292" 
d="M53 920h158q39 0 39 -36v-84q0 -58 -27 -101l-102 -164q-3 -7 -11 -2l-33 15q-10 5 -5 13l99 165q22 38 22 75v58q0 7 -7 7h-133q-11 0 -11 11v32q0 11 11 11z" />
    <glyph glyph-name="eight.sups" horiz-adv-x="309" 
d="M104 740l-28 29q-35 38 -35 75q0 83 113 83q112 0 112 -81q0 -41 -36 -77l-29 -29q-3 -3 0 -4l29 -30q44 -38 44 -84q0 -43 -27.5 -65t-93.5 -22t-93 22t-27 64q0 44 42 84l29 31q3 3 0 4zM158 762l28 28q24 21 24 45q0 21 -12 31.5t-44 10.5q-58 1 -58 -43q0 -23 23 -43
l31 -29q3 -3 8 0zM187 681l-31 32q-2 3 -7 0l-31 -33q-28 -28 -28 -51q0 -22 14 -32.5t50 -10.5q35 0 49 10.5t14 32.5t-30 52z" />
    <glyph glyph-name="nine.sups" horiz-adv-x="297" 
d="M205 653v37q0 4 -3 4l-22 -4q-21 -3 -35 -3q-62 0 -86.5 27.5t-24.5 90.5q0 62 24.5 92t90.5 30q68 0 90.5 -24.5t22.5 -77.5v-174q0 -58 -27 -87t-94 -29q-57 0 -79 8q-11 5 -8 19l4 22q2 8 8 8q2 0 29 -2.5t42 -2.5q40 0 54 14t14 52zM205 754v67q0 29 -11.5 41.5
t-44.5 12.5q-36 0 -47 -14.5t-11 -55.5q0 -37 11 -52.5t46 -15.5q43 0 52 7q5 2 5 10z" />
    <glyph glyph-name="zero.tf" horiz-adv-x="527" 
d="M256 708q82 0 126 -30t64.5 -105.5t20.5 -217.5q0 -148 -20 -225.5t-64 -108t-127 -30.5q-82 0 -126 30.5t-64.5 108.5t-20.5 225q0 142 20.5 217.5t64.5 105.5t126 30zM256 631q-52 0 -77.5 -22t-36.5 -79.5t-11 -174.5q0 -120 11 -180t36.5 -83.5t77.5 -23.5t77.5 23.5
t36 83t10.5 180.5q0 170 -24 223t-100 53z" />
    <glyph glyph-name="one.tf" horiz-adv-x="527" 
d="M105 635v37q0 20 19 24q42 11 95 11q69 0 99 -26.5t30 -90.5v-579q0 -11 -11 -11h-63q-11 0 -11 11v558q0 33 -15.5 48t-53.5 14q-20 -1 -48.5 -3t-30.5 -2q-10 0 -10 9z" />
    <glyph glyph-name="two.tf" horiz-adv-x="527" 
d="M79 626l-4 45q-3 17 12 21q53 16 147 16q112 0 158.5 -39.5t46.5 -126.5q0 -67 -29.5 -111t-101.5 -109q-47 -43 -67 -63t-44.5 -51.5t-33 -60t-8.5 -65.5q0 -4 4 -4h270q12 0 12 -12v-54q0 -12 -12 -12h-345q-15 0 -15 15v41q0 68 19.5 120t45.5 83t77 77q47 43 65 60.5
t40.5 44t29 47t6.5 45.5q0 52 -30.5 75t-101.5 23q-30 0 -59.5 -3.5t-48.5 -7t-23 -3.5q-9 0 -10 9z" />
    <glyph glyph-name="three.tf" horiz-adv-x="527" 
d="M78 628l-5 40q-1 17 14 22q46 18 131 18q114 0 161.5 -42.5t47.5 -128.5q0 -123 -79 -157q-10 -4 0 -5q51 -11 77 -56t26 -112q0 -215 -221 -215q-107 0 -147 16q-13 6 -11 24l4 41q2 9 10 9q3 0 22.5 -3t49 -5.5t57.5 -2.5q80 0 114 31.5t34 106.5q0 66 -28 93t-103 27
h-84q-12 0 -12 12v53q0 12 12 12h77q64 0 89 27.5t25 84.5q0 62 -28.5 87.5t-100.5 25.5q-39 0 -80 -6t-42 -6q-8 0 -10 9z" />
    <glyph glyph-name="four.tf" horiz-adv-x="527" 
d="M328 700h37q31 0 31 -32v-461q0 -7 7 -8h79q12 0 12 -12v-47q0 -12 -12 -12h-79q-7 0 -7 -8v-108q0 -12 -12 -12h-61q-12 0 -12 12v108q0 8 -7 8h-209q-50 0 -50 51v75q0 51 31 99l204 322q16 25 48 25zM311 207v376q-6 0 -12 -9l-153 -254q-18 -30 -18 -64v-49
q0 -7 7 -7h169q7 0 7 7z" />
    <glyph glyph-name="five.tf" horiz-adv-x="527" 
d="M123 700h283q13 0 13 -12v-54q0 -12 -13 -12h-234q-12 0 -12 -11v-187q49 9 102 9q96 0 139 -48.5t43 -165.5q0 -113 -50.5 -170t-169.5 -57q-88 0 -137 15q-15 3 -12 19l5 45q1 11 11 11q4 0 21.5 -3t46 -6.5t60.5 -3.5q78 0 107.5 32.5t29.5 117.5q0 81 -27 109t-89 28
q-40 0 -85.5 -7t-46.5 -7q-7 0 -12 4l-13 10q-7 4 -7 15v282q0 47 47 47z" />
    <glyph glyph-name="six.tf" horiz-adv-x="539" 
d="M74 177v306q0 121 45 173t158 52q90 0 146 -14q17 -6 16 -20l-5 -49q0 -11 -12 -11q-102 12 -133 12q-75 0 -103 -29t-28 -110v-60q0 -8 7 -8q3 0 19.5 2.5t43 4.5t53.5 2q104 0 147 -49.5t43 -152.5q0 -128 -46.5 -181t-158.5 -53q-105 0 -148.5 42t-43.5 143zM158 326
v-149q0 -60 22 -84t86 -24q73 0 95.5 33t22.5 120q0 69 -23 99t-92 30q-61 0 -102 -9q-9 -3 -9 -16z" />
    <glyph glyph-name="seven.tf" horiz-adv-x="527" 
d="M89 700h276q64 0 64 -59v-173q0 -58 -12.5 -96t-38.5 -81l-170 -286q-8 -13 -20 -6l-47 26q-13 7 -6 19l168 287q23 40 32 69t9 71v129q0 11 -4.5 15.5t-15.5 4.5h-235q-12 0 -12 12v56q0 12 12 12z" />
    <glyph glyph-name="eight.tf" horiz-adv-x="531" 
d="M182 365l-54 52q-35 30 -51 61.5t-16 80.5q0 149 197 149q103 0 149 -38.5t46 -111.5q0 -42 -16 -71.5t-49 -63.5l-61 -58q-4 -4 0 -8l56 -53q41 -35 61.5 -69t20.5 -79q0 -82 -47.5 -123t-160.5 -41t-161 41t-48 119q0 45 19 78.5t60 71.5l56 56q4 4 -1 7zM264 402
l57 56q16 17 24.5 27t15.5 27.5t7 36.5q0 41 -24 60t-87 19q-64 0 -88 -19.5t-24 -59.5q0 -31 13 -52t41 -44l54 -51q6 -5 11 0zM317 261l-60 53q-5 4 -10 -1l-57 -54q-56 -53 -56 -98t26.5 -67t96.5 -22t96 21.5t26 66.5q0 51 -62 101z" />
    <glyph glyph-name="nine.tf" horiz-adv-x="527" 
d="M366 213v65q0 6 -6 6q-2 0 -19.5 -3t-44 -6t-52.5 -3q-104 0 -145 52t-41 163q0 121 43.5 171t160.5 50q108 0 149 -42t41 -130v-328q0 -110 -46 -163t-163 -53q-100 0 -142 11q-13 5 -16.5 11t-1.5 20l4 29q1 16 15 16q95 -10 128 -10q79 0 107.5 29.5t28.5 114.5z
M366 374v154q0 60 -23 81.5t-86 21.5q-69 0 -92 -28.5t-23 -115.5q0 -76 23.5 -107t92.5 -31q26 0 59 4.5t40 6.5q9 3 9 14z" />
    <glyph glyph-name="zero.tosf" horiz-adv-x="513" 
d="M249 517q118 0 161.5 -62.5t43.5 -197.5q0 -136 -43.5 -200t-161.5 -64t-162 64.5t-44 199.5t44 197.5t162 62.5zM249 442q-71 0 -97.5 -39t-26.5 -146q0 -106 27 -147t97 -41q69 0 96 41t27 147q0 107 -26.5 146t-96.5 39z" />
    <glyph glyph-name="one.tosf" horiz-adv-x="513" 
d="M128 452l-2 38q0 13 15 17q32 9 89 9q123 0 123 -93v-412q0 -11 -12 -11h-58q-11 0 -11 11v378q0 32 -14 44.5t-51 11.5q-20 0 -42.5 -2t-23.5 -2q-10 0 -13 11z" />
    <glyph glyph-name="two.tosf" horiz-adv-x="513" 
d="M83 441l-4 37q-2 13 13 21q54 17 140 17q100 0 143 -31.5t43 -101.5q0 -47 -25 -81t-61.5 -55.5t-73.5 -42t-65.5 -52t-33.5 -74.5q-1 -2 1 -3.5t3 -1.5h252q12 0 12 -12v-49q0 -12 -12 -12h-334q-12 0 -12 10v36q0 64 27 110.5t65.5 72t77 45.5t65.5 44.5t27 55.5
q0 39 -24.5 55.5t-84.5 16.5q-40 0 -84 -7l-45 -7q-9 0 -10 9z" />
    <glyph glyph-name="three.tosf" horiz-adv-x="513" 
d="M60 438l-5 41q-2 14 14 21q42 17 131 17q114 0 161 -38t47 -116q0 -108 -79 -141q-8 -2 -3 -4q1 -1 3 -1q104 -20 104 -150q0 -191 -222 -191q-111 0 -146 14q-14 6 -12 24l5 40q0 10 9 10q4 0 23.5 -2t49 -4.5t57.5 -2.5q80 0 113.5 26t33.5 89q0 56 -27.5 78.5
t-102.5 22.5h-84q-12 0 -12 12v53q0 12 12 12h77q64 0 88.5 23.5t24.5 72.5q0 53 -28.5 74.5t-100.5 21.5q-38 0 -79.5 -5.5t-42.5 -5.5q-9 0 -9 9z" />
    <glyph glyph-name="four.tosf" horiz-adv-x="513" 
d="M321 508h37q32 0 32 -32v-386q0 -7 7 -8h79q12 0 12 -12v-47q0 -12 -12 -12h-79q-7 0 -7 -7v-113q0 -12 -12 -12h-61q-12 0 -12 12v113q0 7 -7 7h-209q-51 0 -51 51v74q0 60 32 97l204 250q19 25 47 25zM305 90v315q-6 0 -12 -8l-154 -196q-18 -24 -18 -62v-49q0 -7 7 -7
h170q7 0 7 7z" />
    <glyph glyph-name="five.tosf" horiz-adv-x="513" 
d="M113 508h283q12 0 12 -12v-53q0 -12 -12 -12h-234q-12 0 -12 -9v-160q63 7 102 7q96 0 139 -44t43 -149q0 -98 -50.5 -148.5t-169.5 -51.5q-72 -1 -137 13q-14 4 -12 20l5 45q1 11 12 11q3 0 20.5 -3t46 -6t60.5 -3q79 0 108 26t29 97q0 68 -27 91.5t-89 23.5
q-40 0 -85.5 -5.5t-46.5 -5.5q-7 0 -12 4l-13 9q-7 5 -7 16v256q0 43 47 43z" />
    <glyph glyph-name="six.tosf" horiz-adv-x="513" 
d="M63 161v251q0 125 44 175.5t154 50.5q87 0 143 -14q16 -6 16 -19l-5 -51q0 -10 -12 -10q-4 0 -25.5 3t-49.5 5.5t-55 2.5q-72 0 -98.5 -25t-26.5 -92v-50q0 -8 6 -8q3 0 19 2t41.5 4t52.5 2q101 0 143 -44.5t42 -138.5q0 -115 -46 -163.5t-155 -48.5q-102 0 -145 38
t-43 130zM148 288v-126q0 -52 21 -72.5t82 -20.5q70 0 91.5 28.5t21.5 102.5q0 60 -21.5 85.5t-88.5 25.5q-74 0 -98 -8q-8 -3 -8 -15z" />
    <glyph glyph-name="seven.tosf" horiz-adv-x="513" 
d="M62 508h277q63 0 63 -60v-172q0 -58 -12.5 -97t-37.5 -81l-131 -218q-8 -14 -20 -7l-47 26q-12 7 -6 20l128 219q23 40 32 69.5t9 71.5v128q0 20 -19 20h-236q-12 0 -12 12v57q0 12 12 12z" />
    <glyph glyph-name="eight.tosf" horiz-adv-x="513" 
d="M176 328l-51 44q-33 24 -49 52.5t-16 72.5q0 67 43.5 103.5t147.5 37.5q192 -1 192 -137q0 -78 -64 -125l-56 -47q-4 -3 0 -7l52 -44q43 -32 61 -62t19 -77q-1 -72 -48.5 -109t-155.5 -37q-109 0 -156.5 37t-47.5 107q0 44 18 73t61 65l51 47q4 3 -1 6zM258 361l54 49
q26 24 36 40.5t10 40.5q0 34 -23.5 50t-83.5 17q-61 -1 -84 -17.5t-23 -50.5q0 -27 11.5 -43.5t40.5 -41.5l51 -44q5 -5 11 0zM309 235l-57 45q-6 3 -11 0l-54 -47q-30 -25 -42 -43t-12 -44q0 -36 26 -54.5t93 -19.5q65 1 90.5 19t25.5 54q0 28 -13 47t-46 43z" />
    <glyph glyph-name="nine.tosf" horiz-adv-x="513" 
d="M362 77v55q0 5 -6 5q-2 0 -19 -2.5t-44 -5t-53 -2.5q-104 0 -145 46.5t-41 145.5q0 107 44 152t160 45q108 0 149 -37t41 -116v-292q0 -99 -46.5 -147t-166.5 -48q-96 0 -138 11q-22 6 -18 31l4 30q1 14 15 13q5 0 28.5 -2.5t50.5 -4t49 -1.5q79 0 107.5 25.5t28.5 98.5z
M362 227v127q0 49 -23 67t-86 18q-69 0 -92 -23.5t-23 -96.5q0 -64 23.5 -89.5t92.5 -25.5q68 0 98 10q10 2 10 13z" />
    <glyph glyph-name="zero.dnom" horiz-adv-x="321" 
d="M160 389q74 0 100 -41t26 -153q0 -113 -26 -156t-100 -43q-72 0 -98.5 43.5t-26.5 155.5q0 111 26.5 152.5t98.5 41.5zM160 333q-39 0 -53 -27.5t-14 -110.5q0 -87 14 -115.5t53 -28.5t53.5 28.5t14.5 115.5q0 83 -14.5 110.5t-53.5 27.5z" />
    </font>
</defs>
</svg>
